{"accessors":[{"bufferView":0,"byteOffset":0,"componentType":5123,"count":600,"type":"SCALAR"},{"bufferView":1,"byteOffset":0,"componentType":5126,"count":392,"max":[0.156272619962692,0.177271872758865,0.167840763926506],"min":[-0.15635186433792,-0.18641147017479,-0.16784064471722],"type":"VEC3"},{"bufferView":2,"byteOffset":0,"componentType":5126,"count":392,"type":"VEC3"},{"bufferView":3,"byteOffset":0,"componentType":5126,"count":392,"type":"VEC2"}],"asset":{"generator":"FBX2glTF v0.13.1","version":"2.0"},"bufferViews":[{"buffer":0,"byteLength":1200,"byteOffset":0,"target":34963},{"buffer":0,"byteLength":4704,"byteOffset":1200,"target":34962},{"buffer":0,"byteLength":4704,"byteOffset":5904,"target":34962},{"buffer":0,"byteLength":3136,"byteOffset":10608,"target":34962}],"buffers":[{"byteLength":13744,"uri":"SM_Bucket.bin"}],"images":[{"name":"MainTexture_City_4","uri":"MainTexture_City_4.png"}],"materials":[{"alphaMode":"OPAQUE","doubleSided":false,"extras":{"fromFBX":{"isTruePBR":false,"shadingModel":"Phong"}},"name":"Material","pbrMetallicRoughness":{"baseColorFactor":[1,1,1,1],"baseColorTexture":{"index":0,"texCoord":0},"metallicFactor":0.400000005960464,"roughnessFactor":0.140028014779091}}],"meshes":[{"name":"Bucket","primitives":[{"attributes":{"NORMAL":2,"POSITION":1,"TEXCOORD_0":3},"indices":0,"material":0,"mode":4}]}],"nodes":[{"mesh":0,"name":"Bucket","rotation":[0,0,0,1],"scale":[1,1,1],"translation":[-125.744300842285,0.193811774253845,-60.0163612365723]}],"samplers":[{}],"scene":0,"scenes":[{"name":"Root Scene","nodes":[0]}],"textures":[{"name":"base_color_texture","sampler":0,"source":0}]}