{"accessors":[{"bufferView":0,"byteOffset":0,"componentType":5123,"count":252,"type":"SCALAR"},{"bufferView":1,"byteOffset":0,"componentType":5126,"count":168,"max":[0.0225385688245296,0.0446433424949646,0.166643038392067],"min":[-0.0225430149585,-0.03173004090786,-0.18498578667641],"type":"VEC3"},{"bufferView":2,"byteOffset":0,"componentType":5126,"count":168,"type":"VEC3"},{"bufferView":3,"byteOffset":0,"componentType":5126,"count":168,"type":"VEC2"}],"asset":{"generator":"FBX2glTF v0.13.1","version":"2.0"},"bufferViews":[{"buffer":0,"byteLength":504,"byteOffset":0,"target":34963},{"buffer":0,"byteLength":2016,"byteOffset":504,"target":34962},{"buffer":0,"byteLength":2016,"byteOffset":2520,"target":34962},{"buffer":0,"byteLength":1344,"byteOffset":4536,"target":34962}],"buffers":[{"byteLength":5880,"uri":"SM_Banana_01_A.bin"}],"images":[{"name":"MainTexture_City_4","uri":"MainTexture_City_4.png"}],"materials":[{"alphaMode":"OPAQUE","doubleSided":false,"extras":{"fromFBX":{"isTruePBR":false,"shadingModel":"Phong"}},"name":"Material","pbrMetallicRoughness":{"baseColorFactor":[1,1,1,1],"baseColorTexture":{"index":0,"texCoord":0},"metallicFactor":0.400000005960464,"roughnessFactor":0.140028014779091}}],"meshes":[{"name":"Banana_01_A","primitives":[{"attributes":{"NORMAL":2,"POSITION":1,"TEXCOORD_0":3},"indices":0,"material":0,"mode":4}]}],"nodes":[{"mesh":0,"name":"Banana_01_A","rotation":[0,0,0,1],"scale":[1,1,1],"translation":[192.175598144531,0.0091892508789897,-294.248870849609]}],"samplers":[{}],"scene":0,"scenes":[{"name":"Root Scene","nodes":[0]}],"textures":[{"name":"base_color_texture","sampler":0,"source":0}]}