{"accessors":[{"bufferView":0,"byteOffset":0,"componentType":5123,"count":2988,"type":"SCALAR"},{"bufferView":1,"byteOffset":0,"componentType":5126,"count":1992,"max":[0.0842913836240768,0.182869911193848,0.0679709166288376],"min":[-0.09823080152273,-0.00160469324328,-0.06482844799757],"type":"VEC3"},{"bufferView":2,"byteOffset":0,"componentType":5126,"count":1992,"type":"VEC3"},{"bufferView":3,"byteOffset":0,"componentType":5126,"count":1992,"type":"VEC2"}],"asset":{"generator":"FBX2glTF v0.13.1","version":"2.0"},"bufferViews":[{"buffer":0,"byteLength":5976,"byteOffset":0,"target":34963},{"buffer":0,"byteLength":23904,"byteOffset":5976,"target":34962},{"buffer":0,"byteLength":23904,"byteOffset":29880,"target":34962},{"buffer":0,"byteLength":15936,"byteOffset":53784,"target":34962}],"buffers":[{"byteLength":69720,"uri":"SM_Books_02_A.bin"}],"images":[{"name":"MainTexture_City_4","uri":"MainTexture_City_4.png"}],"materials":[{"alphaMode":"OPAQUE","doubleSided":false,"extras":{"fromFBX":{"isTruePBR":false,"shadingModel":"Phong"}},"name":"Material","pbrMetallicRoughness":{"baseColorFactor":[1,1,1,1],"baseColorTexture":{"index":0,"texCoord":0},"metallicFactor":0.400000005960464,"roughnessFactor":0.140028014779091}}],"meshes":[{"name":"Books_02_A","primitives":[{"attributes":{"NORMAL":2,"POSITION":1,"TEXCOORD_0":3},"indices":0,"material":0,"mode":4}]}],"nodes":[{"mesh":0,"name":"Books_02_A","rotation":[0,0,0,1],"scale":[1,1,1],"translation":[-11.6545076370239,1.08267521858215,-55.9217758178711]}],"samplers":[{}],"scene":0,"scenes":[{"name":"Root Scene","nodes":[0]}],"textures":[{"name":"base_color_texture","sampler":0,"source":0}]}