{"accessors":[{"bufferView":0,"byteOffset":0,"componentType":5123,"count":612,"type":"SCALAR"},{"bufferView":1,"byteOffset":0,"componentType":5126,"count":315,"max":[0.287202268838882,0.48997637629509,0.340191721916199],"min":[-0.26747795939446,0.0000000178813941431599,-0.32001823186874],"type":"VEC3"},{"bufferView":2,"byteOffset":0,"componentType":5126,"count":315,"type":"VEC3"},{"bufferView":3,"byteOffset":0,"componentType":5126,"count":315,"type":"VEC2"}],"asset":{"generator":"FBX2glTF v0.13.1","version":"2.0"},"bufferViews":[{"buffer":0,"byteLength":1224,"byteOffset":0,"target":34963},{"buffer":0,"byteLength":3780,"byteOffset":1224,"target":34962},{"buffer":0,"byteLength":3780,"byteOffset":5004,"target":34962},{"buffer":0,"byteLength":2520,"byteOffset":8784,"target":34962}],"buffers":[{"byteLength":11304,"uri":"SM_Boxx_02_A.bin"}],"images":[{"name":"MainTexture_City_4","uri":"MainTexture_City_4.png"}],"materials":[{"alphaMode":"OPAQUE","doubleSided":false,"extras":{"fromFBX":{"isTruePBR":false,"shadingModel":"Phong"}},"name":"Material","pbrMetallicRoughness":{"baseColorFactor":[1,1,1,1],"baseColorTexture":{"index":0,"texCoord":0},"metallicFactor":0.400000005960464,"roughnessFactor":0.140028014779091}}],"meshes":[{"name":"Boxx_02_A","primitives":[{"attributes":{"NORMAL":2,"POSITION":1,"TEXCOORD_0":3},"indices":0,"material":0,"mode":4}]}],"nodes":[{"mesh":0,"name":"Boxx_02_A","rotation":[0,0,0,1],"scale":[1,1,1],"translation":[189.898330688477,-0.00085037946701,-294.059631347656]}],"samplers":[{}],"scene":0,"scenes":[{"name":"Root Scene","nodes":[0]}],"textures":[{"name":"base_color_texture","sampler":0,"source":0}]}