{"accessors":[{"bufferView":0,"byteOffset":0,"componentType":5123,"count":192,"type":"SCALAR"},{"bufferView":1,"byteOffset":0,"componentType":5126,"count":118,"max":[0.0477066226303577,0.0595124997198582,0.00780322169885039],"min":[-0.04770696163177,-0.05901495739818,-0.00780070386827],"type":"VEC3"},{"bufferView":2,"byteOffset":0,"componentType":5126,"count":118,"type":"VEC3"},{"bufferView":3,"byteOffset":0,"componentType":5126,"count":118,"type":"VEC2"}],"asset":{"generator":"FBX2glTF v0.13.1","version":"2.0"},"bufferViews":[{"buffer":0,"byteLength":384,"byteOffset":0,"target":34963},{"buffer":0,"byteLength":1416,"byteOffset":384,"target":34962},{"buffer":0,"byteLength":1416,"byteOffset":1800,"target":34962},{"buffer":0,"byteLength":944,"byteOffset":3216,"target":34962}],"buffers":[{"byteLength":4160,"uri":"SM_Bread_01_A.bin"}],"images":[{"name":"MainTexture_City_4","uri":"MainTexture_City_4.png"}],"materials":[{"alphaMode":"OPAQUE","doubleSided":false,"extras":{"fromFBX":{"isTruePBR":false,"shadingModel":"Phong"}},"name":"Material","pbrMetallicRoughness":{"baseColorFactor":[1,1,1,1],"baseColorTexture":{"index":0,"texCoord":0},"metallicFactor":0.400000005960464,"roughnessFactor":0.140028014779091}}],"meshes":[{"name":"Bread_01_A","primitives":[{"attributes":{"NORMAL":2,"POSITION":1,"TEXCOORD_0":3},"indices":0,"material":0,"mode":4}]}],"nodes":[{"mesh":0,"name":"Bread_01_A","rotation":[0,0,0,1],"scale":[1,1,1],"translation":[195.016799926758,0.11300753057003,-294.527648925781]}],"samplers":[{}],"scene":0,"scenes":[{"name":"Root Scene","nodes":[0]}],"textures":[{"name":"base_color_texture","sampler":0,"source":0}]}