{"accessors":[{"bufferView":0,"byteOffset":0,"componentType":5123,"count":282,"type":"SCALAR"},{"bufferView":1,"byteOffset":0,"componentType":5126,"count":174,"max":[0.0999999940395355,0.300000011920929,0.100024409592152],"min":[-0.09999999403954,0,-0.0999755859375],"type":"VEC3"},{"bufferView":2,"byteOffset":0,"componentType":5126,"count":174,"type":"VEC3"},{"bufferView":3,"byteOffset":0,"componentType":5126,"count":174,"type":"VEC2"}],"asset":{"generator":"FBX2glTF v0.13.1","version":"2.0"},"bufferViews":[{"buffer":0,"byteLength":564,"byteOffset":0,"target":34963},{"buffer":0,"byteLength":2088,"byteOffset":564,"target":34962},{"buffer":0,"byteLength":2088,"byteOffset":2652,"target":34962},{"buffer":0,"byteLength":1392,"byteOffset":4740,"target":34962}],"buffers":[{"byteLength":6132,"uri":"SM_Bank_02_A.bin"}],"images":[{"name":"MainTexture_City_4","uri":"MainTexture_City_4.png"}],"materials":[{"alphaMode":"OPAQUE","doubleSided":false,"extras":{"fromFBX":{"isTruePBR":false,"shadingModel":"Phong"}},"name":"Material","pbrMetallicRoughness":{"baseColorFactor":[1,1,1,1],"baseColorTexture":{"index":0,"texCoord":0},"metallicFactor":0.400000005960464,"roughnessFactor":0.140028014779091}}],"meshes":[{"name":"Bank_02_A","primitives":[{"attributes":{"NORMAL":2,"POSITION":1,"TEXCOORD_0":3},"indices":0,"material":0,"mode":4}]}],"nodes":[{"mesh":0,"name":"Bank_02_A","rotation":[0,0,0,1],"scale":[1,1,1],"translation":[189.114044189453,-0.00622381269932,-294.111236572266]}],"samplers":[{}],"scene":0,"scenes":[{"name":"Root Scene","nodes":[0]}],"textures":[{"name":"base_color_texture","sampler":0,"source":0}]}