{"accessors":[{"bufferView":0,"byteOffset":0,"componentType":5123,"count":2106,"type":"SCALAR"},{"bufferView":1,"byteOffset":0,"componentType":5126,"count":1384,"max":[1.02388572692871,1.23874258995056,0.509705007076263],"min":[-1.02388668060303,-0.00000004768371,-0.50971990823746],"type":"VEC3"},{"bufferView":2,"byteOffset":0,"componentType":5126,"count":1384,"type":"VEC3"},{"bufferView":3,"byteOffset":0,"componentType":5126,"count":1384,"type":"VEC2"}],"asset":{"generator":"FBX2glTF v0.13.1","version":"2.0"},"bufferViews":[{"buffer":0,"byteLength":4212,"byteOffset":0,"target":34963},{"buffer":0,"byteLength":16608,"byteOffset":4212,"target":34962},{"buffer":0,"byteLength":16608,"byteOffset":20820,"target":34962},{"buffer":0,"byteLength":11072,"byteOffset":37428,"target":34962}],"buffers":[{"byteLength":48500,"uri":"SM_Bed_01.bin"}],"images":[{"name":"MainTexture_City_4","uri":"MainTexture_City_4.png"}],"materials":[{"alphaMode":"OPAQUE","doubleSided":false,"extras":{"fromFBX":{"isTruePBR":false,"shadingModel":"Phong"}},"name":"Material","pbrMetallicRoughness":{"baseColorFactor":[1,1,1,1],"baseColorTexture":{"index":0,"texCoord":0},"metallicFactor":0.400000005960464,"roughnessFactor":0.140028014779091}}],"meshes":[{"name":"Bed_01","primitives":[{"attributes":{"NORMAL":2,"POSITION":1,"TEXCOORD_0":3},"indices":0,"material":0,"mode":4}]}],"nodes":[{"mesh":0,"name":"Bed_01","rotation":[0,0,0,1],"scale":[1,1,1],"translation":[-32.2727928161621,-0.11190485954285,-59.537899017334]}],"samplers":[{}],"scene":0,"scenes":[{"name":"Root Scene","nodes":[0]}],"textures":[{"name":"base_color_texture","sampler":0,"source":0}]}