{"accessors":[{"bufferView":0,"byteOffset":0,"componentType":5123,"count":864,"type":"SCALAR"},{"bufferView":1,"byteOffset":0,"componentType":5126,"count":560,"max":[0.038421630859375,0.0523567758500576,0.0351905822753906],"min":[-0.04534149169922,-0.04630680009723,-0.03480911254883],"type":"VEC3"},{"bufferView":2,"byteOffset":0,"componentType":5126,"count":560,"type":"VEC3"},{"bufferView":3,"byteOffset":0,"componentType":5126,"count":560,"type":"VEC2"}],"asset":{"generator":"FBX2glTF v0.13.1","version":"2.0"},"bufferViews":[{"buffer":0,"byteLength":1728,"byteOffset":0,"target":34963},{"buffer":0,"byteLength":6720,"byteOffset":1728,"target":34962},{"buffer":0,"byteLength":6720,"byteOffset":8448,"target":34962},{"buffer":0,"byteLength":4480,"byteOffset":15168,"target":34962}],"buffers":[{"byteLength":19648,"uri":"SM_Bank_02_dest.bin"}],"images":[{"name":"MainTexture_City_4","uri":"MainTexture_City_4.png"}],"materials":[{"alphaMode":"OPAQUE","doubleSided":false,"extras":{"fromFBX":{"isTruePBR":false,"shadingModel":"Phong"}},"name":"Material.072","pbrMetallicRoughness":{"baseColorFactor":[1,1,1,1],"baseColorTexture":{"index":0,"texCoord":0},"metallicFactor":0.400000005960464,"roughnessFactor":0.140028014779091}}],"meshes":[{"name":"Bank_02_dest","primitives":[{"attributes":{"NORMAL":2,"POSITION":1,"TEXCOORD_0":3},"indices":0,"material":0,"mode":4}]}],"nodes":[{"mesh":0,"name":"Bank_02_dest","rotation":[0,0,0,1],"scale":[1,1,1],"translation":[-55.6315765380859,0.0463068000972271,-60.4670791625977]}],"samplers":[{}],"scene":0,"scenes":[{"name":"Root Scene","nodes":[0]}],"textures":[{"name":"base_color_texture","sampler":0,"source":0}]}