{"accessors":[{"bufferView":0,"byteOffset":0,"componentType":5123,"count":2988,"type":"SCALAR"},{"bufferView":1,"byteOffset":0,"componentType":5126,"count":1992,"max":[0.0836839526891708,0.183293625712395,0.0707223936915398],"min":[-0.09987249970436,-0.0014930915786,-0.05914169177413],"type":"VEC3"},{"bufferView":2,"byteOffset":0,"componentType":5126,"count":1992,"type":"VEC3"},{"bufferView":3,"byteOffset":0,"componentType":5126,"count":1992,"type":"VEC2"}],"asset":{"generator":"FBX2glTF v0.13.1","version":"2.0"},"bufferViews":[{"buffer":0,"byteLength":5976,"byteOffset":0,"target":34963},{"buffer":0,"byteLength":23904,"byteOffset":5976,"target":34962},{"buffer":0,"byteLength":23904,"byteOffset":29880,"target":34962},{"buffer":0,"byteLength":15936,"byteOffset":53784,"target":34962}],"buffers":[{"byteLength":69720,"uri":"SM_Books_01_A.bin"}],"images":[{"name":"MainTexture_City_4","uri":"MainTexture_City_4.png"}],"materials":[{"alphaMode":"OPAQUE","doubleSided":false,"extras":{"fromFBX":{"isTruePBR":false,"shadingModel":"Phong"}},"name":"Material","pbrMetallicRoughness":{"baseColorFactor":[1,1,1,1],"baseColorTexture":{"index":0,"texCoord":0},"metallicFactor":0.400000005960464,"roughnessFactor":0.140028014779091}}],"meshes":[{"name":"Books_01_A","primitives":[{"attributes":{"NORMAL":2,"POSITION":1,"TEXCOORD_0":3},"indices":0,"material":0,"mode":4}]}],"nodes":[{"mesh":0,"name":"Books_01_A","rotation":[0,0,0,1],"scale":[1,1,1],"translation":[-12.3321542739868,1.33305430412292,-55.9223861694336]}],"samplers":[{}],"scene":0,"scenes":[{"name":"Root Scene","nodes":[0]}],"textures":[{"name":"base_color_texture","sampler":0,"source":0}]}