{"accessors":[{"bufferView":0,"byteOffset":0,"componentType":5123,"count":612,"type":"SCALAR"},{"bufferView":1,"byteOffset":0,"componentType":5126,"count":318,"max":[0.217286184430122,0.48997637629509,0.340167313814163],"min":[-0.19453254342079,0,-0.32004263997078],"type":"VEC3"},{"bufferView":2,"byteOffset":0,"componentType":5126,"count":318,"type":"VEC3"},{"bufferView":3,"byteOffset":0,"componentType":5126,"count":318,"type":"VEC2"}],"asset":{"generator":"FBX2glTF v0.13.1","version":"2.0"},"bufferViews":[{"buffer":0,"byteLength":1224,"byteOffset":0,"target":34963},{"buffer":0,"byteLength":3816,"byteOffset":1224,"target":34962},{"buffer":0,"byteLength":3816,"byteOffset":5040,"target":34962},{"buffer":0,"byteLength":2544,"byteOffset":8856,"target":34962}],"buffers":[{"byteLength":11400,"uri":"SM_Boxx_04_B.bin"}],"images":[{"name":"MainTexture_City_4","uri":"MainTexture_City_4.png"}],"materials":[{"alphaMode":"OPAQUE","doubleSided":false,"extras":{"fromFBX":{"isTruePBR":false,"shadingModel":"Phong"}},"name":"Material.278","pbrMetallicRoughness":{"baseColorFactor":[1,1,1,1],"baseColorTexture":{"index":0,"texCoord":0},"metallicFactor":0.400000005960464,"roughnessFactor":0.140028014779091}}],"meshes":[{"name":"Boxx_04_B","primitives":[{"attributes":{"NORMAL":2,"POSITION":1,"TEXCOORD_0":3},"indices":0,"material":0,"mode":4}]}],"nodes":[{"mesh":0,"name":"Boxx_04_B","rotation":[0,0,0,1],"scale":[1,1,1],"translation":[190.841125488281,0.00219559669494629,-294.722198486328]}],"samplers":[{}],"scene":0,"scenes":[{"name":"Root Scene","nodes":[0]}],"textures":[{"name":"base_color_texture","sampler":0,"source":0}]}