{"accessors":[{"bufferView":0,"byteOffset":0,"componentType":5123,"count":996,"type":"SCALAR"},{"bufferView":1,"byteOffset":0,"componentType":5126,"count":614,"max":[0.231296226382256,0.999540388584137,0.133440852165222],"min":[-0.23129622638226,0.00000601541250944138,-0.13343957066536],"type":"VEC3"},{"bufferView":2,"byteOffset":0,"componentType":5126,"count":614,"type":"VEC3"},{"bufferView":3,"byteOffset":0,"componentType":5126,"count":614,"type":"VEC2"}],"asset":{"generator":"FBX2glTF v0.13.1","version":"2.0"},"bufferViews":[{"buffer":0,"byteLength":1992,"byteOffset":0,"target":34963},{"buffer":0,"byteLength":7368,"byteOffset":1992,"target":34962},{"buffer":0,"byteLength":7368,"byteOffset":9360,"target":34962},{"buffer":0,"byteLength":4912,"byteOffset":16728,"target":34962}],"buffers":[{"byteLength":21640,"uri":"SM_Billboard_04_A.bin"}],"images":[{"name":"MainTexture_City_4","uri":"MainTexture_City_4.png"}],"materials":[{"alphaMode":"OPAQUE","doubleSided":false,"extras":{"fromFBX":{"isTruePBR":false,"shadingModel":"Phong"}},"name":"Material","pbrMetallicRoughness":{"baseColorFactor":[1,1,1,1],"baseColorTexture":{"index":0,"texCoord":0},"metallicFactor":0.400000005960464,"roughnessFactor":0.140028014779091}}],"meshes":[{"name":"Billboard_04_A","primitives":[{"attributes":{"NORMAL":2,"POSITION":1,"TEXCOORD_0":3},"indices":0,"material":0,"mode":4}]}],"nodes":[{"mesh":0,"name":"Billboard_04_A","rotation":[0,0,0,1],"scale":[1,1,1],"translation":[146.099853515625,0.0130413770675659,-294.368591308594]}],"samplers":[{}],"scene":0,"scenes":[{"name":"Root Scene","nodes":[0]}],"textures":[{"name":"base_color_texture","sampler":0,"source":0}]}