{"accessors":[{"bufferView":0,"byteOffset":0,"componentType":5123,"count":576,"type":"SCALAR"},{"bufferView":1,"byteOffset":0,"componentType":5126,"count":354,"max":[0.0797429978847504,0.0149999996647239,0.0258096680045128],"min":[-0.23573775589466,-0.03930909186602,-0.02580966800451],"type":"VEC3"},{"bufferView":2,"byteOffset":0,"componentType":5126,"count":354,"type":"VEC3"},{"bufferView":3,"byteOffset":0,"componentType":5126,"count":354,"type":"VEC2"}],"asset":{"generator":"FBX2glTF v0.13.1","version":"2.0"},"bufferViews":[{"buffer":0,"byteLength":1152,"byteOffset":0,"target":34963},{"buffer":0,"byteLength":4248,"byteOffset":1152,"target":34962},{"buffer":0,"byteLength":4248,"byteOffset":5400,"target":34962},{"buffer":0,"byteLength":2832,"byteOffset":9648,"target":34962}],"buffers":[{"byteLength":12480,"uri":"SM_Brush.bin"}],"images":[{"name":"MainTexture_City_4","uri":"MainTexture_City_4.png"}],"materials":[{"alphaMode":"OPAQUE","doubleSided":false,"extras":{"fromFBX":{"isTruePBR":false,"shadingModel":"Phong"}},"name":"Material","pbrMetallicRoughness":{"baseColorFactor":[1,1,1,1],"baseColorTexture":{"index":0,"texCoord":0},"metallicFactor":0.400000005960464,"roughnessFactor":0.140028014779091}}],"meshes":[{"name":"Brush","primitives":[{"attributes":{"NORMAL":2,"POSITION":1,"TEXCOORD_0":3},"indices":0,"material":0,"mode":4}]}],"nodes":[{"mesh":0,"name":"Brush","rotation":[0,0,0,1],"scale":[1,1,1],"translation":[-122.491050720215,0,-60.0163612365723]}],"samplers":[{}],"scene":0,"scenes":[{"name":"Root Scene","nodes":[0]}],"textures":[{"name":"base_color_texture","sampler":0,"source":0}]}