{"accessors":[{"bufferView":0,"byteOffset":0,"componentType":5123,"count":768,"type":"SCALAR"},{"bufferView":1,"byteOffset":0,"componentType":5126,"count":470,"max":[0.0349998474121094,0.0752731189131737,0.0349998474121094],"min":[-0.03499984741211,-0.07472685724497,-0.03499984741211],"type":"VEC3"},{"bufferView":2,"byteOffset":0,"componentType":5126,"count":470,"type":"VEC3"},{"bufferView":3,"byteOffset":0,"componentType":5126,"count":470,"type":"VEC2"}],"asset":{"generator":"FBX2glTF v0.13.1","version":"2.0"},"bufferViews":[{"buffer":0,"byteLength":1536,"byteOffset":0,"target":34963},{"buffer":0,"byteLength":5640,"byteOffset":1536,"target":34962},{"buffer":0,"byteLength":5640,"byteOffset":7176,"target":34962},{"buffer":0,"byteLength":3760,"byteOffset":12816,"target":34962}],"buffers":[{"byteLength":16576,"uri":"SM_Bank_03.bin"}],"images":[{"name":"MainTexture_City_4","uri":"MainTexture_City_4.png"}],"materials":[{"alphaMode":"OPAQUE","doubleSided":false,"extras":{"fromFBX":{"isTruePBR":false,"shadingModel":"Phong"}},"name":"Material.078","pbrMetallicRoughness":{"baseColorFactor":[1,1,1,1],"baseColorTexture":{"index":0,"texCoord":0},"metallicFactor":0.400000005960464,"roughnessFactor":0.140028014779091}}],"meshes":[{"name":"Bank_03","primitives":[{"attributes":{"NORMAL":2,"POSITION":1,"TEXCOORD_0":3},"indices":0,"material":0,"mode":4}]}],"nodes":[{"mesh":0,"name":"Bank_03","rotation":[0,0,0,1],"scale":[1,1,1],"translation":[-55.7547073364258,0.0747268572449684,-60.6079139709473]}],"samplers":[{}],"scene":0,"scenes":[{"name":"Root Scene","nodes":[0]}],"textures":[{"name":"base_color_texture","sampler":0,"source":0}]}