{"accessors":[{"bufferView":0,"byteOffset":0,"componentType":5123,"count":1314,"type":"SCALAR"},{"bufferView":1,"byteOffset":0,"componentType":5126,"count":800,"max":[1,1.04899394512177,1.02130818367004],"min":[-1,0,-1.0125595331192],"type":"VEC3"},{"bufferView":2,"byteOffset":0,"componentType":5126,"count":800,"type":"VEC3"},{"bufferView":3,"byteOffset":0,"componentType":5126,"count":800,"type":"VEC2"}],"asset":{"generator":"FBX2glTF v0.13.1","version":"2.0"},"bufferViews":[{"buffer":0,"byteLength":2628,"byteOffset":0,"target":34963},{"buffer":0,"byteLength":9600,"byteOffset":2628,"target":34962},{"buffer":0,"byteLength":9600,"byteOffset":12228,"target":34962},{"buffer":0,"byteLength":6400,"byteOffset":21828,"target":34962}],"buffers":[{"byteLength":28228,"uri":"SM_Bed_02.bin"}],"images":[{"name":"MainTexture_City_4","uri":"MainTexture_City_4.png"}],"materials":[{"alphaMode":"OPAQUE","doubleSided":false,"extras":{"fromFBX":{"isTruePBR":false,"shadingModel":"Phong"}},"name":"Material","pbrMetallicRoughness":{"baseColorFactor":[1,1,1,1],"baseColorTexture":{"index":0,"texCoord":0},"metallicFactor":0.400000005960464,"roughnessFactor":0.140028014779091}}],"meshes":[{"name":"Bed_02","primitives":[{"attributes":{"NORMAL":2,"POSITION":1,"TEXCOORD_0":3},"indices":0,"material":0,"mode":4}]}],"nodes":[{"mesh":0,"name":"Bed_02","rotation":[0,0,0,1],"scale":[1,1,1],"translation":[-29.229305267334,0.013595849275589,-59.5379028320312]}],"samplers":[{}],"scene":0,"scenes":[{"name":"Root Scene","nodes":[0]}],"textures":[{"name":"base_color_texture","sampler":0,"source":0}]}