{"accessors":[{"bufferView":0,"byteOffset":0,"componentType":5123,"count":228,"type":"SCALAR"},{"bufferView":1,"byteOffset":0,"componentType":5126,"count":144,"max":[0.0499999970197678,0.292293667793274,0.0500244125723839],"min":[-0.04999999701977,0,-0.04997558519244],"type":"VEC3"},{"bufferView":2,"byteOffset":0,"componentType":5126,"count":144,"type":"VEC3"},{"bufferView":3,"byteOffset":0,"componentType":5126,"count":144,"type":"VEC2"}],"asset":{"generator":"FBX2glTF v0.13.1","version":"2.0"},"bufferViews":[{"buffer":0,"byteLength":456,"byteOffset":0,"target":34963},{"buffer":0,"byteLength":1728,"byteOffset":456,"target":34962},{"buffer":0,"byteLength":1728,"byteOffset":2184,"target":34962},{"buffer":0,"byteLength":1152,"byteOffset":3912,"target":34962}],"buffers":[{"byteLength":5064,"uri":"SM_Bottle_01_B.bin"}],"images":[{"name":"MainTexture_City_4","uri":"MainTexture_City_4.png"}],"materials":[{"alphaMode":"OPAQUE","doubleSided":false,"extras":{"fromFBX":{"isTruePBR":false,"shadingModel":"Phong"}},"name":"Material.266","pbrMetallicRoughness":{"baseColorFactor":[1,1,1,1],"baseColorTexture":{"index":0,"texCoord":0},"metallicFactor":0.400000005960464,"roughnessFactor":0.140028014779091}}],"meshes":[{"name":"Bottle_01_B","primitives":[{"attributes":{"NORMAL":2,"POSITION":1,"TEXCOORD_0":3},"indices":0,"material":0,"mode":4}]}],"nodes":[{"mesh":0,"name":"Bottle_01_B","rotation":[0,0,0,1],"scale":[1,1,1],"translation":[187.828842163086,0.0198965892195702,-294.376953125]}],"samplers":[{}],"scene":0,"scenes":[{"name":"Root Scene","nodes":[0]}],"textures":[{"name":"base_color_texture","sampler":0,"source":0}]}