{"accessors":[{"bufferView":0,"byteOffset":0,"componentType":5123,"count":480,"type":"SCALAR"},{"bufferView":1,"byteOffset":0,"componentType":5126,"count":302,"max":[0.0347023010253906,0.0276455730199814,0.0351142883300781],"min":[-0.0351676940918,-0.01060166582465,-0.03476715087891],"type":"VEC3"},{"bufferView":2,"byteOffset":0,"componentType":5126,"count":302,"type":"VEC3"},{"bufferView":3,"byteOffset":0,"componentType":5126,"count":302,"type":"VEC2"}],"asset":{"generator":"FBX2glTF v0.13.1","version":"2.0"},"bufferViews":[{"buffer":0,"byteLength":960,"byteOffset":0,"target":34963},{"buffer":0,"byteLength":3624,"byteOffset":960,"target":34962},{"buffer":0,"byteLength":3624,"byteOffset":4584,"target":34962},{"buffer":0,"byteLength":2416,"byteOffset":8208,"target":34962}],"buffers":[{"byteLength":10624,"uri":"SM_Bottle_03_dest.bin"}],"images":[{"name":"MainTexture_City_4","uri":"MainTexture_City_4.png"}],"materials":[{"alphaMode":"OPAQUE","doubleSided":false,"extras":{"fromFBX":{"isTruePBR":false,"shadingModel":"Phong"}},"name":"Material","pbrMetallicRoughness":{"baseColorFactor":[1,1,1,1],"baseColorTexture":{"index":0,"texCoord":0},"metallicFactor":0.400000005960464,"roughnessFactor":0.140028014779091}}],"meshes":[{"name":"Bottle_03_dest","primitives":[{"attributes":{"NORMAL":2,"POSITION":1,"TEXCOORD_0":3},"indices":0,"material":0,"mode":4}]}],"nodes":[{"mesh":0,"name":"Bottle_03_dest","rotation":[0,0,0,1],"scale":[1,1,1],"translation":[-54.7417182922363,0.0119687980040908,-60.3401756286621]}],"samplers":[{}],"scene":0,"scenes":[{"name":"Root Scene","nodes":[0]}],"textures":[{"name":"base_color_texture","sampler":0,"source":0}]}