{"accessors":[{"bufferView":0,"byteOffset":0,"componentType":5123,"count":1344,"type":"SCALAR"},{"bufferView":1,"byteOffset":0,"componentType":5126,"count":845,"max":[0.0352516174316406,0.125061422586441,0.0356330871582031],"min":[-0.03474807739258,-0.09971728920937,-0.03436660766602],"type":"VEC3"},{"bufferView":2,"byteOffset":0,"componentType":5126,"count":845,"type":"VEC3"},{"bufferView":3,"byteOffset":0,"componentType":5126,"count":845,"type":"VEC2"}],"asset":{"generator":"FBX2glTF v0.13.1","version":"2.0"},"bufferViews":[{"buffer":0,"byteLength":2688,"byteOffset":0,"target":34963},{"buffer":0,"byteLength":10140,"byteOffset":2688,"target":34962},{"buffer":0,"byteLength":10140,"byteOffset":12828,"target":34962},{"buffer":0,"byteLength":6760,"byteOffset":22968,"target":34962}],"buffers":[{"byteLength":29728,"uri":"SM_Bottle_02_dest.bin"}],"images":[{"name":"MainTexture_City_4","uri":"MainTexture_City_4.png"}],"materials":[{"alphaMode":"OPAQUE","doubleSided":false,"extras":{"fromFBX":{"isTruePBR":false,"shadingModel":"Phong"}},"name":"Material","pbrMetallicRoughness":{"baseColorFactor":[1,1,1,1],"baseColorTexture":{"index":0,"texCoord":0},"metallicFactor":0.400000005960464,"roughnessFactor":0.140028014779091}}],"meshes":[{"name":"Bottle_02_dest","primitives":[{"attributes":{"NORMAL":2,"POSITION":1,"TEXCOORD_0":3},"indices":0,"material":0,"mode":4}]}],"nodes":[{"mesh":0,"name":"Bottle_02_dest","rotation":[0,0,0,1],"scale":[1,1,1],"translation":[-54.8338508605957,0.103248223662376,-60.3406448364258]}],"samplers":[{}],"scene":0,"scenes":[{"name":"Root Scene","nodes":[0]}],"textures":[{"name":"base_color_texture","sampler":0,"source":0}]}