{"accessors":[{"bufferView":0,"byteOffset":0,"componentType":5123,"count":1236,"type":"SCALAR"},{"bufferView":1,"byteOffset":0,"componentType":5126,"count":769,"max":[1.00108659267426,3.638099193573,0.120217241346836],"min":[-0.99891346693039,0,-0.12027595192194],"type":"VEC3"},{"bufferView":2,"byteOffset":0,"componentType":5126,"count":769,"type":"VEC3"},{"bufferView":3,"byteOffset":0,"componentType":5126,"count":769,"type":"VEC2"}],"asset":{"generator":"FBX2glTF v0.13.1","version":"2.0"},"bufferViews":[{"buffer":0,"byteLength":2472,"byteOffset":0,"target":34963},{"buffer":0,"byteLength":9228,"byteOffset":2472,"target":34962},{"buffer":0,"byteLength":9228,"byteOffset":11700,"target":34962},{"buffer":0,"byteLength":6152,"byteOffset":20928,"target":34962}],"buffers":[{"byteLength":27080,"uri":"SM_Billboard_01_A.bin"}],"images":[{"name":"MainTexture_City_4","uri":"MainTexture_City_4.png"}],"materials":[{"alphaMode":"OPAQUE","doubleSided":false,"extras":{"fromFBX":{"isTruePBR":false,"shadingModel":"Phong"}},"name":"Material.291","pbrMetallicRoughness":{"baseColorFactor":[1,1,1,1],"baseColorTexture":{"index":0,"texCoord":0},"metallicFactor":0.400000005960464,"roughnessFactor":0.140028014779091}}],"meshes":[{"name":"Billboard_01_A","primitives":[{"attributes":{"NORMAL":2,"POSITION":1,"TEXCOORD_0":3},"indices":0,"material":0,"mode":4}]}],"nodes":[{"mesh":0,"name":"Billboard_01_A","rotation":[0,0,0,1],"scale":[1,1,1],"translation":[140.538360595703,-0.00836192071438,-293.842864990234]}],"samplers":[{}],"scene":0,"scenes":[{"name":"Root Scene","nodes":[0]}],"textures":[{"name":"base_color_texture","sampler":0,"source":0}]}