{"accessors":[{"bufferView":0,"byteOffset":0,"componentType":5123,"count":300,"type":"SCALAR"},{"bufferView":1,"byteOffset":0,"componentType":5126,"count":196,"max":[0.0681106671690941,0.0136049529537559,0.0485823303461075],"min":[-0.06674420833588,-0.0163216162473,-0.04857854172587],"type":"VEC3"},{"bufferView":2,"byteOffset":0,"componentType":5126,"count":196,"type":"VEC3"},{"bufferView":3,"byteOffset":0,"componentType":5126,"count":196,"type":"VEC2"}],"asset":{"generator":"FBX2glTF v0.13.1","version":"2.0"},"bufferViews":[{"buffer":0,"byteLength":600,"byteOffset":0,"target":34963},{"buffer":0,"byteLength":2352,"byteOffset":600,"target":34962},{"buffer":0,"byteLength":2352,"byteOffset":2952,"target":34962},{"buffer":0,"byteLength":1568,"byteOffset":5304,"target":34962}],"buffers":[{"byteLength":6872,"uri":"SM_Bone_01_A.bin"}],"images":[{"name":"MainTexture_City_4","uri":"MainTexture_City_4.png"}],"materials":[{"alphaMode":"OPAQUE","doubleSided":false,"extras":{"fromFBX":{"isTruePBR":false,"shadingModel":"Phong"}},"name":"Material","pbrMetallicRoughness":{"baseColorFactor":[1,1,1,1],"baseColorTexture":{"index":0,"texCoord":0},"metallicFactor":0.400000005960464,"roughnessFactor":0.140028014779091}}],"meshes":[{"name":"Bone_01_A","primitives":[{"attributes":{"NORMAL":2,"POSITION":1,"TEXCOORD_0":3},"indices":0,"material":0,"mode":4}]}],"nodes":[{"mesh":0,"name":"Bone_01_A","rotation":[0,0,0,1],"scale":[1,1,1],"translation":[-12.8507356643677,0.10734823346138,-55.0934448242188]}],"samplers":[{}],"scene":0,"scenes":[{"name":"Root Scene","nodes":[0]}],"textures":[{"name":"base_color_texture","sampler":0,"source":0}]}