{"accessors":[{"bufferView":0,"byteOffset":0,"componentType":5123,"count":1296,"type":"SCALAR"},{"bufferView":1,"byteOffset":0,"componentType":5126,"count":864,"max":[0.031026354059577,0.15584135055542,0.0608829334378242],"min":[-0.03650448471308,-0.00085093488451,-0.05625635012984],"type":"VEC3"},{"bufferView":2,"byteOffset":0,"componentType":5126,"count":864,"type":"VEC3"},{"bufferView":3,"byteOffset":0,"componentType":5126,"count":864,"type":"VEC2"}],"asset":{"generator":"FBX2glTF v0.13.1","version":"2.0"},"bufferViews":[{"buffer":0,"byteLength":2592,"byteOffset":0,"target":34963},{"buffer":0,"byteLength":10368,"byteOffset":2592,"target":34962},{"buffer":0,"byteLength":10368,"byteOffset":12960,"target":34962},{"buffer":0,"byteLength":6912,"byteOffset":23328,"target":34962}],"buffers":[{"byteLength":30240,"uri":"SM_Books_03_A.bin"}],"images":[{"name":"MainTexture_City_4","uri":"MainTexture_City_4.png"}],"materials":[{"alphaMode":"OPAQUE","doubleSided":false,"extras":{"fromFBX":{"isTruePBR":false,"shadingModel":"Phong"}},"name":"Material","pbrMetallicRoughness":{"baseColorFactor":[1,1,1,1],"baseColorTexture":{"index":0,"texCoord":0},"metallicFactor":0.400000005960464,"roughnessFactor":0.140028014779091}}],"meshes":[{"name":"Books_03_A","primitives":[{"attributes":{"NORMAL":2,"POSITION":1,"TEXCOORD_0":3},"indices":0,"material":0,"mode":4}]}],"nodes":[{"mesh":0,"name":"Books_03_A","rotation":[0,0,0,1],"scale":[1,1,1],"translation":[-12.1973505020142,0.84985089302063,-55.9710006713867]}],"samplers":[{}],"scene":0,"scenes":[{"name":"Root Scene","nodes":[0]}],"textures":[{"name":"base_color_texture","sampler":0,"source":0}]}