{"accessors":[{"bufferView":0,"byteOffset":0,"componentType":5123,"count":816,"type":"SCALAR"},{"bufferView":1,"byteOffset":0,"componentType":5126,"count":517,"max":[0.0349960327148438,0.312513887882233,0.035003662109375],"min":[-0.03500366210938,0,-0.03499603271484],"type":"VEC3"},{"bufferView":2,"byteOffset":0,"componentType":5126,"count":517,"type":"VEC3"},{"bufferView":3,"byteOffset":0,"componentType":5126,"count":517,"type":"VEC2"}],"asset":{"generator":"FBX2glTF v0.13.1","version":"2.0"},"bufferViews":[{"buffer":0,"byteLength":1632,"byteOffset":0,"target":34963},{"buffer":0,"byteLength":6204,"byteOffset":1632,"target":34962},{"buffer":0,"byteLength":6204,"byteOffset":7836,"target":34962},{"buffer":0,"byteLength":4136,"byteOffset":14040,"target":34962}],"buffers":[{"byteLength":18176,"uri":"SM_Bottle_01.bin"}],"images":[{"name":"MainTexture_City_4","uri":"MainTexture_City_4.png"}],"materials":[{"alphaMode":"OPAQUE","doubleSided":false,"extras":{"fromFBX":{"isTruePBR":false,"shadingModel":"Phong"}},"name":"Material","pbrMetallicRoughness":{"baseColorFactor":[1,1,1,1],"baseColorTexture":{"index":0,"texCoord":0},"metallicFactor":0.400000005960464,"roughnessFactor":0.140028014779091}}],"meshes":[{"name":"Bottle_01","primitives":[{"attributes":{"NORMAL":2,"POSITION":1,"TEXCOORD_0":3},"indices":0,"material":0,"mode":4}]}],"nodes":[{"mesh":0,"name":"Bottle_01","rotation":[0,0,0,1],"scale":[1,1,1],"translation":[-55.0406875610352,0.00374670326709747,-60.3400115966797]}],"samplers":[{}],"scene":0,"scenes":[{"name":"Root Scene","nodes":[0]}],"textures":[{"name":"base_color_texture","sampler":0,"source":0}]}