{"accessors":[{"bufferView":0,"byteOffset":0,"componentType":5123,"count":708,"type":"SCALAR"},{"bufferView":1,"byteOffset":0,"componentType":5126,"count":316,"max":[0.149981737136841,0.0986306071281433,0.100024409592152],"min":[-0.15001834928989,0,-0.0999755859375],"type":"VEC3"},{"bufferView":2,"byteOffset":0,"componentType":5126,"count":316,"type":"VEC3"},{"bufferView":3,"byteOffset":0,"componentType":5126,"count":316,"type":"VEC2"}],"asset":{"generator":"FBX2glTF v0.13.1","version":"2.0"},"bufferViews":[{"buffer":0,"byteLength":1416,"byteOffset":0,"target":34963},{"buffer":0,"byteLength":3792,"byteOffset":1416,"target":34962},{"buffer":0,"byteLength":3792,"byteOffset":5208,"target":34962},{"buffer":0,"byteLength":2528,"byteOffset":9000,"target":34962}],"buffers":[{"byteLength":11528,"uri":"SM_Box_01_B.bin"}],"images":[{"name":"MainTexture_City_4","uri":"MainTexture_City_4.png"}],"materials":[{"alphaMode":"OPAQUE","doubleSided":false,"extras":{"fromFBX":{"isTruePBR":false,"shadingModel":"Phong"}},"name":"Material.272","pbrMetallicRoughness":{"baseColorFactor":[1,1,1,1],"baseColorTexture":{"index":0,"texCoord":0},"metallicFactor":0.400000005960464,"roughnessFactor":0.140028014779091}}],"meshes":[{"name":"Box_01_B","primitives":[{"attributes":{"NORMAL":2,"POSITION":1,"TEXCOORD_0":3},"indices":0,"material":0,"mode":4}]}],"nodes":[{"mesh":0,"name":"Box_01_B","rotation":[0,0,0,1],"scale":[1,1,1],"translation":[188.527847290039,-0.01000000350177,-294.433197021484]}],"samplers":[{}],"scene":0,"scenes":[{"name":"Root Scene","nodes":[0]}],"textures":[{"name":"base_color_texture","sampler":0,"source":0}]}