{"accessors":[{"bufferView":0,"byteOffset":0,"componentType":5123,"count":768,"type":"SCALAR"},{"bufferView":1,"byteOffset":0,"componentType":5126,"count":469,"max":[0.0349998474121094,0.0752727687358856,0.0349998474121094],"min":[-0.03499984741211,-0.07472720742226,-0.03499984741211],"type":"VEC3"},{"bufferView":2,"byteOffset":0,"componentType":5126,"count":469,"type":"VEC3"},{"bufferView":3,"byteOffset":0,"componentType":5126,"count":469,"type":"VEC2"}],"asset":{"generator":"FBX2glTF v0.13.1","version":"2.0"},"bufferViews":[{"buffer":0,"byteLength":1536,"byteOffset":0,"target":34963},{"buffer":0,"byteLength":5628,"byteOffset":1536,"target":34962},{"buffer":0,"byteLength":5628,"byteOffset":7164,"target":34962},{"buffer":0,"byteLength":3752,"byteOffset":12792,"target":34962}],"buffers":[{"byteLength":16544,"uri":"SM_Bank_02.bin"}],"images":[{"name":"MainTexture_City_4","uri":"MainTexture_City_4.png"}],"materials":[{"alphaMode":"OPAQUE","doubleSided":false,"extras":{"fromFBX":{"isTruePBR":false,"shadingModel":"Phong"}},"name":"Material.072","pbrMetallicRoughness":{"baseColorFactor":[1,1,1,1],"baseColorTexture":{"index":0,"texCoord":0},"metallicFactor":0.400000005960464,"roughnessFactor":0.140028014779091}}],"meshes":[{"name":"Bank_02","primitives":[{"attributes":{"NORMAL":2,"POSITION":1,"TEXCOORD_0":3},"indices":0,"material":0,"mode":4}]}],"nodes":[{"mesh":0,"name":"Bank_02","rotation":[0,0,0,1],"scale":[1,1,1],"translation":[-55.7547073364258,0.0747272074222565,-60.4668846130371]}],"samplers":[{}],"scene":0,"scenes":[{"name":"Root Scene","nodes":[0]}],"textures":[{"name":"base_color_texture","sampler":0,"source":0}]}