{"accessors":[{"bufferView":0,"byteOffset":0,"componentType":5123,"count":480,"type":"SCALAR"},{"bufferView":1,"byteOffset":0,"componentType":5126,"count":316,"max":[0.0349998474121094,0.136559754610062,0.0350227355957031],"min":[-0.03499984741211,-0.00030907616019,-0.03497695922852],"type":"VEC3"},{"bufferView":2,"byteOffset":0,"componentType":5126,"count":316,"type":"VEC3"},{"bufferView":3,"byteOffset":0,"componentType":5126,"count":316,"type":"VEC2"}],"asset":{"generator":"FBX2glTF v0.13.1","version":"2.0"},"bufferViews":[{"buffer":0,"byteLength":960,"byteOffset":0,"target":34963},{"buffer":0,"byteLength":3792,"byteOffset":960,"target":34962},{"buffer":0,"byteLength":3792,"byteOffset":4752,"target":34962},{"buffer":0,"byteLength":2528,"byteOffset":8544,"target":34962}],"buffers":[{"byteLength":11072,"uri":"SM_Bottle_01_dest.bin"}],"images":[{"name":"MainTexture_City_4","uri":"MainTexture_City_4.png"}],"materials":[{"alphaMode":"OPAQUE","doubleSided":false,"extras":{"fromFBX":{"isTruePBR":false,"shadingModel":"Phong"}},"name":"Material","pbrMetallicRoughness":{"baseColorFactor":[1,1,1,1],"baseColorTexture":{"index":0,"texCoord":0},"metallicFactor":0.400000005960464,"roughnessFactor":0.140028014779091}}],"meshes":[{"name":"Bottle_01_dest","primitives":[{"attributes":{"NORMAL":2,"POSITION":1,"TEXCOORD_0":3},"indices":0,"material":0,"mode":4}]}],"nodes":[{"mesh":0,"name":"Bottle_01_dest","rotation":[0,0,0,1],"scale":[1,1,1],"translation":[-54.9273490905762,0.00167620927095413,-60.3400192260742]}],"samplers":[{}],"scene":0,"scenes":[{"name":"Root Scene","nodes":[0]}],"textures":[{"name":"base_color_texture","sampler":0,"source":0}]}