{"accessors":[{"bufferView":0,"byteOffset":0,"componentType":5123,"count":1140,"type":"SCALAR"},{"bufferView":1,"byteOffset":0,"componentType":5126,"count":536,"max":[2.13021850585938,0.865380525588989,0.450000762939453],"min":[-2.13021087646484,0,-0.44999694824219],"type":"VEC3"},{"bufferView":2,"byteOffset":0,"componentType":5126,"count":536,"type":"VEC3"},{"bufferView":3,"byteOffset":0,"componentType":5126,"count":536,"type":"VEC2"}],"asset":{"generator":"FBX2glTF v0.13.1","version":"2.0"},"bufferViews":[{"buffer":0,"byteLength":2280,"byteOffset":0,"target":34963},{"buffer":0,"byteLength":6432,"byteOffset":2280,"target":34962},{"buffer":0,"byteLength":6432,"byteOffset":8712,"target":34962},{"buffer":0,"byteLength":4288,"byteOffset":15144,"target":34962}],"buffers":[{"byteLength":19432,"uri":"SM_Bench01.bin"}],"images":[{"name":"MainTexture_City_4","uri":"MainTexture_City_4.png"}],"materials":[{"alphaMode":"OPAQUE","doubleSided":false,"extras":{"fromFBX":{"isTruePBR":false,"shadingModel":"Phong"}},"name":"Material","pbrMetallicRoughness":{"baseColorFactor":[1,1,1,1],"baseColorTexture":{"index":0,"texCoord":0},"metallicFactor":0.400000005960464,"roughnessFactor":0.140028014779091}}],"meshes":[{"name":"Bench01","primitives":[{"attributes":{"NORMAL":2,"POSITION":1,"TEXCOORD_0":3},"indices":0,"material":0,"mode":4}]}],"nodes":[{"mesh":0,"name":"Bench01","rotation":[0,0,0,1],"scale":[1,1,1],"translation":[-68.5267562866211,-0.00000005960464,-60.7400131225586]}],"samplers":[{}],"scene":0,"scenes":[{"name":"Root Scene","nodes":[0]}],"textures":[{"name":"base_color_texture","sampler":0,"source":0}]}