{"accessors":[{"bufferView":0,"byteOffset":0,"componentType":5123,"count":954,"type":"SCALAR"},{"bufferView":1,"byteOffset":0,"componentType":5126,"count":488,"max":[0.518676340579987,2.20096755027771,0.283374965190887],"min":[-0.51867645978928,0,-0.28337615728378],"type":"VEC3"},{"bufferView":2,"byteOffset":0,"componentType":5126,"count":488,"type":"VEC3"},{"bufferView":3,"byteOffset":0,"componentType":5126,"count":488,"type":"VEC2"},{"bufferView":4,"byteOffset":0,"componentType":5123,"count":168,"type":"SCALAR"},{"bufferView":5,"byteOffset":0,"componentType":5126,"count":112,"max":[0.0269198529422283,0.663957118988037,0.447695225477219],"min":[-0.03240126371384,-0.66395711898804,0],"type":"VEC3"},{"bufferView":6,"byteOffset":0,"componentType":5126,"count":112,"type":"VEC3"},{"bufferView":7,"byteOffset":0,"componentType":5126,"count":112,"type":"VEC2"},{"bufferView":8,"byteOffset":0,"componentType":5123,"count":228,"type":"SCALAR"},{"bufferView":9,"byteOffset":0,"componentType":5126,"count":128,"max":[0.447695225477219,0.126453578472137,0.16076286137104],"min":[-0.44769522547722,-0.12990808486938,-0.34245723485947],"type":"VEC3"},{"bufferView":10,"byteOffset":0,"componentType":5126,"count":128,"type":"VEC3"},{"bufferView":11,"byteOffset":0,"componentType":5126,"count":128,"type":"VEC2"},{"bufferView":12,"byteOffset":0,"componentType":5123,"count":228,"type":"SCALAR"},{"bufferView":13,"byteOffset":0,"componentType":5126,"count":128,"max":[0.447695225477219,0.134588301181793,0.16076286137104],"min":[-0.44769522547722,-0.14501523971558,-0.34245723485947],"type":"VEC3"},{"bufferView":14,"byteOffset":0,"componentType":5126,"count":128,"type":"VEC3"},{"bufferView":15,"byteOffset":0,"componentType":5126,"count":128,"type":"VEC2"},{"bufferView":16,"byteOffset":0,"componentType":5123,"count":168,"type":"SCALAR"},{"bufferView":17,"byteOffset":0,"componentType":5126,"count":112,"max":[0.0324012637138367,0.663957118988037,0.447695225477219],"min":[-0.02691985294223,-0.66395711898804,0],"type":"VEC3"},{"bufferView":18,"byteOffset":0,"componentType":5126,"count":112,"type":"VEC3"},{"bufferView":19,"byteOffset":0,"componentType":5126,"count":112,"type":"VEC2"}],"asset":{"generator":"FBX2glTF v0.13.1","version":"2.0"},"bufferViews":[{"buffer":0,"byteLength":1908,"byteOffset":0,"target":34963},{"buffer":0,"byteLength":5856,"byteOffset":1908,"target":34962},{"buffer":0,"byteLength":5856,"byteOffset":7764,"target":34962},{"buffer":0,"byteLength":3904,"byteOffset":13620,"target":34962},{"buffer":0,"byteLength":336,"byteOffset":17524,"target":34963},{"buffer":0,"byteLength":1344,"byteOffset":17860,"target":34962},{"buffer":0,"byteLength":1344,"byteOffset":19204,"target":34962},{"buffer":0,"byteLength":896,"byteOffset":20548,"target":34962},{"buffer":0,"byteLength":456,"byteOffset":21444,"target":34963},{"buffer":0,"byteLength":1536,"byteOffset":21900,"target":34962},{"buffer":0,"byteLength":1536,"byteOffset":23436,"target":34962},{"buffer":0,"byteLength":1024,"byteOffset":24972,"target":34962},{"buffer":0,"byteLength":456,"byteOffset":25996,"target":34963},{"buffer":0,"byteLength":1536,"byteOffset":26452,"target":34962},{"buffer":0,"byteLength":1536,"byteOffset":27988,"target":34962},{"buffer":0,"byteLength":1024,"byteOffset":29524,"target":34962},{"buffer":0,"byteLength":336,"byteOffset":30548,"target":34963},{"buffer":0,"byteLength":1344,"byteOffset":30884,"target":34962},{"buffer":0,"byteLength":1344,"byteOffset":32228,"target":34962},{"buffer":0,"byteLength":896,"byteOffset":33572,"target":34962}],"buffers":[{"byteLength":34468,"uri":"SM_Cupboard_01.bin"}],"images":[{"name":"MainTexture_City_4","uri":"MainTexture_City_4.png"}],"materials":[{"alphaMode":"OPAQUE","doubleSided":false,"extras":{"fromFBX":{"isTruePBR":false,"shadingModel":"Phong"}},"name":"Material","pbrMetallicRoughness":{"baseColorFactor":[1,1,1,1],"baseColorTexture":{"index":0,"texCoord":0},"metallicFactor":0.400000005960464,"roughnessFactor":0.140028014779091}}],"meshes":[{"name":"Cupboard_01","primitives":[{"attributes":{"NORMAL":2,"POSITION":1,"TEXCOORD_0":3},"indices":0,"material":0,"mode":4}]},{"name":"Cupboard_Door_02","primitives":[{"attributes":{"NORMAL":6,"POSITION":5,"TEXCOORD_0":7},"indices":4,"material":0,"mode":4}]},{"name":"Cupboard_Box_02","primitives":[{"attributes":{"NORMAL":10,"POSITION":9,"TEXCOORD_0":11},"indices":8,"material":0,"mode":4}]},{"name":"Cupboard_Box_01","primitives":[{"attributes":{"NORMAL":14,"POSITION":13,"TEXCOORD_0":15},"indices":12,"material":0,"mode":4}]},{"name":"Cupboard_Door_01","primitives":[{"attributes":{"NORMAL":18,"POSITION":17,"TEXCOORD_0":19},"indices":16,"material":0,"mode":4}]}],"nodes":[{"children":[1,2,3,4],"mesh":0,"name":"Cupboard_01","rotation":[0,0,0,1],"scale":[1,1,1],"translation":[-27.4008293151855,0.0575140714645386,-59.6849594116211]},{"mesh":1,"name":"Cupboard_Door_02","rotation":[0,0,0,1],"scale":[1,1,1],"translation":[0.447690427303314,1.48422706127167,0.249990224838257]},{"mesh":2,"name":"Cupboard_Box_02","rotation":[0,0,0,1],"scale":[1,1,1],"translation":[-0.00000488281239,0.353149980306625,0.581303715705872]},{"mesh":3,"name":"Cupboard_Box_01","rotation":[0,0,0,1],"scale":[1,1,1],"translation":[-0.00000488281239,0.642138361930847,0.336186528205872]},{"mesh":4,"name":"Cupboard_Door_01","rotation":[0,0,0,1],"scale":[1,1,1],"translation":[-0.44769775867462,1.48422706127167,0.249990224838257]}],"samplers":[{}],"scene":0,"scenes":[{"name":"Root Scene","nodes":[0]}],"textures":[{"name":"base_color_texture","sampler":0,"source":0}]}