{"accessors":[{"bufferView":0,"byteOffset":0,"componentType":5123,"count":6084,"type":"SCALAR"},{"bufferView":1,"byteOffset":0,"componentType":5126,"count":3696,"max":[1.92455458641052,1.29068529605865,1.92451477050781],"min":[-1.92683637142181,0,-1.92249166965485],"type":"VEC3"},{"bufferView":2,"byteOffset":0,"componentType":5126,"count":3696,"type":"VEC3"},{"bufferView":3,"byteOffset":0,"componentType":5126,"count":3696,"type":"VEC2"}],"asset":{"generator":"FBX2glTF v0.13.1","version":"2.0"},"bufferViews":[{"buffer":0,"byteLength":12168,"byteOffset":0,"target":34963},{"buffer":0,"byteLength":44352,"byteOffset":12168,"target":34962},{"buffer":0,"byteLength":44352,"byteOffset":56520,"target":34962},{"buffer":0,"byteLength":29568,"byteOffset":100872,"target":34962}],"buffers":[{"byteLength":130440,"uri":"SM_ChildrenProp_01_A.bin"}],"images":[{"name":"MainTexture_City_4","uri":"MainTexture_City_4.png"}],"materials":[{"alphaMode":"OPAQUE","doubleSided":false,"extras":{"fromFBX":{"isTruePBR":false,"shadingModel":"Phong"}},"name":"Material.289","pbrMetallicRoughness":{"baseColorFactor":[1,1,1,1],"baseColorTexture":{"index":0,"texCoord":0},"metallicFactor":0.400000005960464,"roughnessFactor":0.140028014779091}}],"meshes":[{"name":"ChildrenProp_01_A","primitives":[{"attributes":{"NORMAL":2,"POSITION":1,"TEXCOORD_0":3},"indices":0,"material":0,"mode":4}]}],"nodes":[{"mesh":0,"name":"ChildrenProp_01_A","rotation":[0,0,0,1],"scale":[1,1,1],"translation":[132.036956787109,0.00517916679382324,-293.791809082031]}],"samplers":[{}],"scene":0,"scenes":[{"name":"Root Scene","nodes":[0]}],"textures":[{"name":"base_color_texture","sampler":0,"source":0}]}