{"accessors":[{"bufferView":0,"byteOffset":0,"componentType":5123,"count":456,"type":"SCALAR"},{"bufferView":1,"byteOffset":0,"componentType":5126,"count":232,"max":[0.749999761581421,2,0.250000208616257],"min":[-0.75000023841858,0,-0.24999976158142],"type":"VEC3"},{"bufferView":2,"byteOffset":0,"componentType":5126,"count":232,"type":"VEC3"},{"bufferView":3,"byteOffset":0,"componentType":5126,"count":232,"type":"VEC2"},{"bufferView":4,"byteOffset":0,"componentType":5123,"count":132,"type":"SCALAR"},{"bufferView":5,"byteOffset":0,"componentType":5126,"count":88,"max":[0.207495778799057,0.089530736207962,0.145202070474625],"min":[-0.20749598741531,-0.15486735105515,-0.37889301776886],"type":"VEC3"},{"bufferView":6,"byteOffset":0,"componentType":5126,"count":88,"type":"VEC3"},{"bufferView":7,"byteOffset":0,"componentType":5126,"count":88,"type":"VEC2"},{"bufferView":8,"byteOffset":0,"componentType":5123,"count":132,"type":"SCALAR"},{"bufferView":9,"byteOffset":0,"componentType":5126,"count":80,"max":[0.207495778799057,0.0903773829340935,0.145202070474625],"min":[-0.20749598741531,-0.15571397542954,-0.37889301776886],"type":"VEC3"},{"bufferView":10,"byteOffset":0,"componentType":5126,"count":80,"type":"VEC3"},{"bufferView":11,"byteOffset":0,"componentType":5126,"count":80,"type":"VEC2"},{"bufferView":12,"byteOffset":0,"componentType":5123,"count":84,"type":"SCALAR"},{"bufferView":13,"byteOffset":0,"componentType":5126,"count":56,"max":[0.212466716766357,0.963528275489807,0.450477242469788],"min":[0.0000000179395875932187,-0.96352827548981,-0.00661564571783],"type":"VEC3"},{"bufferView":14,"byteOffset":0,"componentType":5126,"count":56,"type":"VEC3"},{"bufferView":15,"byteOffset":0,"componentType":5126,"count":56,"type":"VEC2"},{"bufferView":16,"byteOffset":0,"componentType":5123,"count":84,"type":"SCALAR"},{"bufferView":17,"byteOffset":0,"componentType":5126,"count":56,"max":[-0.00000002008176,0.963528275489807,0.439398914575577],"min":[-0.23483866453171,-0.96352827548981,-0.00699111726135],"type":"VEC3"},{"bufferView":18,"byteOffset":0,"componentType":5126,"count":56,"type":"VEC3"},{"bufferView":19,"byteOffset":0,"componentType":5126,"count":56,"type":"VEC2"}],"asset":{"generator":"FBX2glTF v0.13.1","version":"2.0"},"bufferViews":[{"buffer":0,"byteLength":912,"byteOffset":0,"target":34963},{"buffer":0,"byteLength":2784,"byteOffset":912,"target":34962},{"buffer":0,"byteLength":2784,"byteOffset":3696,"target":34962},{"buffer":0,"byteLength":1856,"byteOffset":6480,"target":34962},{"buffer":0,"byteLength":264,"byteOffset":8336,"target":34963},{"buffer":0,"byteLength":1056,"byteOffset":8600,"target":34962},{"buffer":0,"byteLength":1056,"byteOffset":9656,"target":34962},{"buffer":0,"byteLength":704,"byteOffset":10712,"target":34962},{"buffer":0,"byteLength":264,"byteOffset":11416,"target":34963},{"buffer":0,"byteLength":960,"byteOffset":11680,"target":34962},{"buffer":0,"byteLength":960,"byteOffset":12640,"target":34962},{"buffer":0,"byteLength":640,"byteOffset":13600,"target":34962},{"buffer":0,"byteLength":168,"byteOffset":14240,"target":34963},{"buffer":0,"byteLength":672,"byteOffset":14408,"target":34962},{"buffer":0,"byteLength":672,"byteOffset":15080,"target":34962},{"buffer":0,"byteLength":448,"byteOffset":15752,"target":34962},{"buffer":0,"byteLength":168,"byteOffset":16200,"target":34963},{"buffer":0,"byteLength":672,"byteOffset":16368,"target":34962},{"buffer":0,"byteLength":672,"byteOffset":17040,"target":34962},{"buffer":0,"byteLength":448,"byteOffset":17712,"target":34962}],"buffers":[{"byteLength":18160,"uri":"SM_Cupboard_02.bin"}],"images":[{"name":"MainTexture_City_4","uri":"MainTexture_City_4.png"}],"materials":[{"alphaMode":"OPAQUE","doubleSided":false,"extras":{"fromFBX":{"isTruePBR":false,"shadingModel":"Phong"}},"name":"Material","pbrMetallicRoughness":{"baseColorFactor":[1,1,1,1],"baseColorTexture":{"index":0,"texCoord":0},"metallicFactor":0.400000005960464,"roughnessFactor":0.140028014779091}}],"meshes":[{"name":"Cupboard_02","primitives":[{"attributes":{"NORMAL":2,"POSITION":1,"TEXCOORD_0":3},"indices":0,"material":0,"mode":4}]},{"name":"Cupboard_02_Box_01","primitives":[{"attributes":{"NORMAL":6,"POSITION":5,"TEXCOORD_0":7},"indices":4,"material":0,"mode":4}]},{"name":"Cupboard_02_Box_02","primitives":[{"attributes":{"NORMAL":10,"POSITION":9,"TEXCOORD_0":11},"indices":8,"material":0,"mode":4}]},{"name":"Cupboard_02_Door_01","primitives":[{"attributes":{"NORMAL":14,"POSITION":13,"TEXCOORD_0":15},"indices":12,"material":0,"mode":4}]},{"name":"Cupboard_02_Door_02","primitives":[{"attributes":{"NORMAL":18,"POSITION":17,"TEXCOORD_0":19},"indices":16,"material":0,"mode":4}]}],"nodes":[{"children":[1,2,3,4],"mesh":0,"name":"Cupboard_02","rotation":[0,0,0,1],"scale":[1,1,1],"translation":[-25.294750213623,0.0177870988845825,-59.5379104614258]},{"mesh":1,"name":"Cupboard_02_Box_01","rotation":[0,0,0,1],"scale":[1,1,1],"translation":[-0.0000024414062,0.471268594264984,0.369394510984421]},{"mesh":2,"name":"Cupboard_02_Box_02","rotation":[0,0,0,1],"scale":[1,1,1],"translation":[-0.0000024414062,0.19394750893116,0.519287109375]},{"mesh":3,"name":"Cupboard_02_Door_01","rotation":[0,0,0,1],"scale":[1,1,1],"translation":[-0.72264891862869,0.99999988079071,0.250004887580872]},{"mesh":4,"name":"Cupboard_02_Door_02","rotation":[0,0,0,1],"scale":[1,1,1],"translation":[0.722644031047821,0.99999988079071,0.250004887580872]}],"samplers":[{}],"scene":0,"scenes":[{"name":"Root Scene","nodes":[0]}],"textures":[{"name":"base_color_texture","sampler":0,"source":0}]}