{"accessors":[{"bufferView":0,"byteOffset":0,"componentType":5123,"count":3432,"type":"SCALAR"},{"bufferView":1,"byteOffset":0,"componentType":5126,"count":1986,"max":[0.782490611076355,0.670578122138977,0.802704751491547],"min":[-0.78249061107635,0,-0.53249454498291],"type":"VEC3"},{"bufferView":2,"byteOffset":0,"componentType":5126,"count":1986,"type":"VEC3"},{"bufferView":3,"byteOffset":0,"componentType":5126,"count":1986,"type":"VEC2"}],"asset":{"generator":"FBX2glTF v0.13.1","version":"2.0"},"bufferViews":[{"buffer":0,"byteLength":6864,"byteOffset":0,"target":34963},{"buffer":0,"byteLength":23832,"byteOffset":6864,"target":34962},{"buffer":0,"byteLength":23832,"byteOffset":30696,"target":34962},{"buffer":0,"byteLength":15888,"byteOffset":54528,"target":34962}],"buffers":[{"byteLength":70416,"uri":"SM_ChildrenBed_01.bin"}],"images":[{"name":"MainTexture_City_4","uri":"MainTexture_City_4.png"}],"materials":[{"alphaMode":"OPAQUE","doubleSided":false,"extras":{"fromFBX":{"isTruePBR":false,"shadingModel":"Phong"}},"name":"Material","pbrMetallicRoughness":{"baseColorFactor":[1,1,1,1],"baseColorTexture":{"index":0,"texCoord":0},"metallicFactor":0.400000005960464,"roughnessFactor":0.140028014779091}}],"meshes":[{"name":"ChildrenBed_01","primitives":[{"attributes":{"NORMAL":2,"POSITION":1,"TEXCOORD_0":3},"indices":0,"material":0,"mode":4}]}],"nodes":[{"mesh":0,"name":"ChildrenBed_01","rotation":[0,0,0,1],"scale":[1,1,1],"translation":[-36.3419799804688,0.105807662010193,-59.5379028320312]}],"samplers":[{}],"scene":0,"scenes":[{"name":"Root Scene","nodes":[0]}],"textures":[{"name":"base_color_texture","sampler":0,"source":0}]}