{"accessors":[{"bufferView":0,"byteOffset":0,"componentType":5123,"count":4284,"type":"SCALAR"},{"bufferView":1,"byteOffset":0,"componentType":5126,"count":2343,"max":[0.32823783159256,1.72499167919159,1.99840950965881],"min":[-0.3282622396946,0,-0.32502910494804],"type":"VEC3"},{"bufferView":2,"byteOffset":0,"componentType":5126,"count":2343,"type":"VEC3"},{"bufferView":3,"byteOffset":0,"componentType":5126,"count":2343,"type":"VEC2"}],"asset":{"generator":"FBX2glTF v0.13.1","version":"2.0"},"bufferViews":[{"buffer":0,"byteLength":8568,"byteOffset":0,"target":34963},{"buffer":0,"byteLength":28116,"byteOffset":8568,"target":34962},{"buffer":0,"byteLength":28116,"byteOffset":36684,"target":34962},{"buffer":0,"byteLength":18744,"byteOffset":64800,"target":34962}],"buffers":[{"byteLength":83544,"uri":"SM_ChildrenSlide_01_A.bin"}],"images":[{"name":"MainTexture_City_4","uri":"MainTexture_City_4.png"}],"materials":[{"alphaMode":"OPAQUE","doubleSided":false,"extras":{"fromFBX":{"isTruePBR":false,"shadingModel":"Phong"}},"name":"Material.286","pbrMetallicRoughness":{"baseColorFactor":[1,1,1,1],"baseColorTexture":{"index":0,"texCoord":0},"metallicFactor":0.400000005960464,"roughnessFactor":0.140028014779091}}],"meshes":[{"name":"ChildrenSlide_01_A","primitives":[{"attributes":{"NORMAL":2,"POSITION":1,"TEXCOORD_0":3},"indices":0,"material":0,"mode":4}]}],"nodes":[{"mesh":0,"name":"ChildrenSlide_01_A","rotation":[0,0,0,1],"scale":[1,1,1],"translation":[120.302711486816,0,-294.268524169922]}],"samplers":[{}],"scene":0,"scenes":[{"name":"Root Scene","nodes":[0]}],"textures":[{"name":"base_color_texture","sampler":0,"source":0}]}