{"accessors":[{"bufferView":0,"byteOffset":0,"componentType":5123,"count":612,"type":"SCALAR"},{"bufferView":1,"byteOffset":0,"componentType":5126,"count":400,"max":[0.377904653549194,0.396386593580246,0.279392719268799],"min":[-0.36732333898544,0,-0.29350331425667],"type":"VEC3"},{"bufferView":2,"byteOffset":0,"componentType":5126,"count":400,"type":"VEC3"},{"bufferView":3,"byteOffset":0,"componentType":5126,"count":400,"type":"VEC2"}],"asset":{"generator":"FBX2glTF v0.13.1","version":"2.0"},"bufferViews":[{"buffer":0,"byteLength":1224,"byteOffset":0,"target":34963},{"buffer":0,"byteLength":4800,"byteOffset":1224,"target":34962},{"buffer":0,"byteLength":4800,"byteOffset":6024,"target":34962},{"buffer":0,"byteLength":3200,"byteOffset":10824,"target":34962}],"buffers":[{"byteLength":14024,"uri":"SM_Chair_03_A.bin"}],"images":[{"name":"MainTexture_City_4","uri":"MainTexture_City_4.png"}],"materials":[{"alphaMode":"OPAQUE","doubleSided":false,"extras":{"fromFBX":{"isTruePBR":false,"shadingModel":"Phong"}},"name":"Material","pbrMetallicRoughness":{"baseColorFactor":[1,1,1,1],"baseColorTexture":{"index":0,"texCoord":0},"metallicFactor":0.400000005960464,"roughnessFactor":0.140028014779091}}],"meshes":[{"name":"Chair_03_A","primitives":[{"attributes":{"NORMAL":2,"POSITION":1,"TEXCOORD_0":3},"indices":0,"material":0,"mode":4}]}],"nodes":[{"mesh":0,"name":"Chair_03_A","rotation":[0,0,0,1],"scale":[1,1,1],"translation":[-14.6608371734619,-0.0126179754734,-54.8208084106445]}],"samplers":[{}],"scene":0,"scenes":[{"name":"Root Scene","nodes":[0]}],"textures":[{"name":"base_color_texture","sampler":0,"source":0}]}