{"accessors":[{"bufferView":0,"byteOffset":0,"componentType":5123,"count":3564,"type":"SCALAR"},{"bufferView":1,"byteOffset":0,"componentType":5126,"count":2338,"max":[0.759954214096069,0.459089070558548,0.514494121074677],"min":[-0.7597262263298,0.0000000238418564890708,-0.51450175046921],"type":"VEC3"},{"bufferView":2,"byteOffset":0,"componentType":5126,"count":2338,"type":"VEC3"},{"bufferView":3,"byteOffset":0,"componentType":5126,"count":2338,"type":"VEC2"},{"bufferView":4,"byteOffset":0,"componentType":5123,"count":276,"type":"SCALAR"},{"bufferView":5,"byteOffset":0,"componentType":5126,"count":136,"max":[0.356825321912766,0.072560228407383,0.256335586309433],"min":[-0.35682529211044,-0.0799308642745,-0.25633573532104],"type":"VEC3"},{"bufferView":6,"byteOffset":0,"componentType":5126,"count":136,"type":"VEC3"},{"bufferView":7,"byteOffset":0,"componentType":5126,"count":136,"type":"VEC2"},{"bufferView":8,"byteOffset":0,"componentType":5123,"count":276,"type":"SCALAR"},{"bufferView":9,"byteOffset":0,"componentType":5126,"count":136,"max":[0.356825292110443,0.072560228407383,0.256335586309433],"min":[-0.35682532191277,-0.0799308642745,-0.2563356757164],"type":"VEC3"},{"bufferView":10,"byteOffset":0,"componentType":5126,"count":136,"type":"VEC3"},{"bufferView":11,"byteOffset":0,"componentType":5126,"count":136,"type":"VEC2"}],"asset":{"generator":"FBX2glTF v0.13.1","version":"2.0"},"bufferViews":[{"buffer":0,"byteLength":7128,"byteOffset":0,"target":34963},{"buffer":0,"byteLength":28056,"byteOffset":7128,"target":34962},{"buffer":0,"byteLength":28056,"byteOffset":35184,"target":34962},{"buffer":0,"byteLength":18704,"byteOffset":63240,"target":34962},{"buffer":0,"byteLength":552,"byteOffset":81944,"target":34963},{"buffer":0,"byteLength":1632,"byteOffset":82496,"target":34962},{"buffer":0,"byteLength":1632,"byteOffset":84128,"target":34962},{"buffer":0,"byteLength":1088,"byteOffset":85760,"target":34962},{"buffer":0,"byteLength":552,"byteOffset":86848,"target":34963},{"buffer":0,"byteLength":1632,"byteOffset":87400,"target":34962},{"buffer":0,"byteLength":1632,"byteOffset":89032,"target":34962},{"buffer":0,"byteLength":1088,"byteOffset":90664,"target":34962}],"buffers":[{"byteLength":91752,"uri":"SM_ChildrenBed_02.bin"}],"images":[{"name":"MainTexture_City_4","uri":"MainTexture_City_4.png"}],"materials":[{"alphaMode":"OPAQUE","doubleSided":false,"extras":{"fromFBX":{"isTruePBR":false,"shadingModel":"Phong"}},"name":"Material","pbrMetallicRoughness":{"baseColorFactor":[1,1,1,1],"baseColorTexture":{"index":0,"texCoord":0},"metallicFactor":0.400000005960464,"roughnessFactor":0.140028014779091}}],"meshes":[{"name":"ChildrenBed_02","primitives":[{"attributes":{"NORMAL":2,"POSITION":1,"TEXCOORD_0":3},"indices":0,"material":0,"mode":4}]},{"name":"ChildrenBedBox_01","primitives":[{"attributes":{"NORMAL":6,"POSITION":5,"TEXCOORD_0":7},"indices":4,"material":0,"mode":4}]},{"name":"ChildrenBedBox_02","primitives":[{"attributes":{"NORMAL":10,"POSITION":9,"TEXCOORD_0":11},"indices":8,"material":0,"mode":4}]}],"nodes":[{"children":[1,2],"mesh":0,"name":"ChildrenBed_02","rotation":[0,0,0,1],"scale":[1,1,1],"translation":[-34.2978897094727,0.351696044206619,-59.5379028320312]},{"mesh":1,"name":"ChildrenBedBox_01","rotation":[0,0,0,1],"scale":[1,1,1],"translation":[-0.35682860016823,0.079930879175663,0.379062503576279]},{"mesh":2,"name":"ChildrenBedBox_02","rotation":[0,0,0,1],"scale":[1,1,1],"translation":[0.356821268796921,0.079930879175663,0.499619126319885]}],"samplers":[{}],"scene":0,"scenes":[{"name":"Root Scene","nodes":[0]}],"textures":[{"name":"base_color_texture","sampler":0,"source":0}]}