{"accessors":[{"bufferView":0,"byteOffset":0,"componentType":5123,"count":480,"type":"SCALAR"},{"bufferView":1,"byteOffset":0,"componentType":5126,"count":208,"max":[1.61008501052856,0.842119336128235,0.500030517578125],"min":[-1.95132744312286,0.0000000476837129781416,-0.49996948242188],"type":"VEC3"},{"bufferView":2,"byteOffset":0,"componentType":5126,"count":208,"type":"VEC3"},{"bufferView":3,"byteOffset":0,"componentType":5126,"count":208,"type":"VEC2"}],"asset":{"generator":"FBX2glTF v0.13.1","version":"2.0"},"bufferViews":[{"buffer":0,"byteLength":960,"byteOffset":0,"target":34963},{"buffer":0,"byteLength":2496,"byteOffset":960,"target":34962},{"buffer":0,"byteLength":2496,"byteOffset":3456,"target":34962},{"buffer":0,"byteLength":1664,"byteOffset":5952,"target":34962}],"buffers":[{"byteLength":7616,"uri":"SM_CashTable_01_A.bin"}],"images":[{"name":"MainTexture_City_4","uri":"MainTexture_City_4.png"}],"materials":[{"alphaMode":"OPAQUE","doubleSided":false,"extras":{"fromFBX":{"isTruePBR":false,"shadingModel":"Phong"}},"name":"Material","pbrMetallicRoughness":{"baseColorFactor":[1,1,1,1],"baseColorTexture":{"index":0,"texCoord":0},"metallicFactor":0.400000005960464,"roughnessFactor":0.140028014779091}}],"meshes":[{"name":"CashTable_01_A","primitives":[{"attributes":{"NORMAL":2,"POSITION":1,"TEXCOORD_0":3},"indices":0,"material":0,"mode":4}]}],"nodes":[{"mesh":0,"name":"CashTable_01_A","rotation":[0,0,0,1],"scale":[1,1,1],"translation":[179.037338256836,0.0706487223505974,-294.368621826172]}],"samplers":[{}],"scene":0,"scenes":[{"name":"Root Scene","nodes":[0]}],"textures":[{"name":"base_color_texture","sampler":0,"source":0}]}