{"accessors":[{"bufferView":0,"byteOffset":0,"componentType":5123,"count":924,"type":"SCALAR"},{"bufferView":1,"byteOffset":0,"componentType":5126,"count":508,"max":[0.375960290431976,0.453239619731903,0.221719086170197],"min":[-0.37596029043198,0,-0.22155100107193],"type":"VEC3"},{"bufferView":2,"byteOffset":0,"componentType":5126,"count":508,"type":"VEC3"},{"bufferView":3,"byteOffset":0,"componentType":5126,"count":508,"type":"VEC2"}],"asset":{"generator":"FBX2glTF v0.13.1","version":"2.0"},"bufferViews":[{"buffer":0,"byteLength":1848,"byteOffset":0,"target":34963},{"buffer":0,"byteLength":6096,"byteOffset":1848,"target":34962},{"buffer":0,"byteLength":6096,"byteOffset":7944,"target":34962},{"buffer":0,"byteLength":4064,"byteOffset":14040,"target":34962}],"buffers":[{"byteLength":18104,"uri":"SM_Cupboard_04_A.bin"}],"images":[{"name":"MainTexture_City_4","uri":"MainTexture_City_4.png"}],"materials":[{"alphaMode":"OPAQUE","doubleSided":false,"extras":{"fromFBX":{"isTruePBR":false,"shadingModel":"Phong"}},"name":"Material","pbrMetallicRoughness":{"baseColorFactor":[1,1,1,1],"baseColorTexture":{"index":0,"texCoord":0},"metallicFactor":0.400000005960464,"roughnessFactor":0.140028014779091}}],"meshes":[{"name":"Cupboard_04_A","primitives":[{"attributes":{"NORMAL":2,"POSITION":1,"TEXCOORD_0":3},"indices":0,"material":0,"mode":4}]}],"nodes":[{"mesh":0,"name":"Cupboard_04_A","rotation":[0,0,0,1],"scale":[1,1,1],"translation":[-7.80132007598877,0.118214763700962,-56.4468803405762]}],"samplers":[{}],"scene":0,"scenes":[{"name":"Root Scene","nodes":[0]}],"textures":[{"name":"base_color_texture","sampler":0,"source":0}]}