{"accessors":[{"bufferView":0,"byteOffset":0,"componentType":5123,"count":624,"type":"SCALAR"},{"bufferView":1,"byteOffset":0,"componentType":5126,"count":412,"max":[0.33689096570015,0.993792235851288,0.309011161327362],"min":[-0.40422114729881,-0.02448549680412,-0.3630522787571],"type":"VEC3"},{"bufferView":2,"byteOffset":0,"componentType":5126,"count":412,"type":"VEC3"},{"bufferView":3,"byteOffset":0,"componentType":5126,"count":412,"type":"VEC2"}],"asset":{"generator":"FBX2glTF v0.13.1","version":"2.0"},"bufferViews":[{"buffer":0,"byteLength":1248,"byteOffset":0,"target":34963},{"buffer":0,"byteLength":4944,"byteOffset":1248,"target":34962},{"buffer":0,"byteLength":4944,"byteOffset":6192,"target":34962},{"buffer":0,"byteLength":3296,"byteOffset":11136,"target":34962}],"buffers":[{"byteLength":14432,"uri":"SM_Chair_01_B.bin"}],"images":[{"name":"MainTexture_City_4","uri":"MainTexture_City_4.png"}],"materials":[{"alphaMode":"OPAQUE","doubleSided":false,"extras":{"fromFBX":{"isTruePBR":false,"shadingModel":"Phong"}},"name":"Material","pbrMetallicRoughness":{"baseColorFactor":[1,1,1,1],"baseColorTexture":{"index":0,"texCoord":0},"metallicFactor":0.400000005960464,"roughnessFactor":0.140028014779091}}],"meshes":[{"name":"Chair_01_B","primitives":[{"attributes":{"NORMAL":2,"POSITION":1,"TEXCOORD_0":3},"indices":0,"material":0,"mode":4}]}],"nodes":[{"mesh":0,"name":"Chair_01_B","rotation":[0,0,0,1],"scale":[1,1,1],"translation":[-23.2257881164551,0.0400677286088467,-58.0643920898438]}],"samplers":[{}],"scene":0,"scenes":[{"name":"Root Scene","nodes":[0]}],"textures":[{"name":"base_color_texture","sampler":0,"source":0}]}