{"accessors":[{"bufferView":0,"byteOffset":0,"componentType":5123,"count":1338,"type":"SCALAR"},{"bufferView":1,"byteOffset":0,"componentType":5126,"count":884,"max":[0.245116874575615,0.851086318492889,0.243026301264763],"min":[-0.27835395932198,-0.00076195743168,-0.31820845603943],"type":"VEC3"},{"bufferView":2,"byteOffset":0,"componentType":5126,"count":884,"type":"VEC3"},{"bufferView":3,"byteOffset":0,"componentType":5126,"count":884,"type":"VEC2"}],"asset":{"generator":"FBX2glTF v0.13.1","version":"2.0"},"bufferViews":[{"buffer":0,"byteLength":2676,"byteOffset":0,"target":34963},{"buffer":0,"byteLength":10608,"byteOffset":2676,"target":34962},{"buffer":0,"byteLength":10608,"byteOffset":13284,"target":34962},{"buffer":0,"byteLength":7072,"byteOffset":23892,"target":34962}],"buffers":[{"byteLength":30964,"uri":"SM_Chair_02_A.bin"}],"images":[{"name":"MainTexture_City_4","uri":"MainTexture_City_4.png"}],"materials":[{"alphaMode":"OPAQUE","doubleSided":false,"extras":{"fromFBX":{"isTruePBR":false,"shadingModel":"Phong"}},"name":"Material","pbrMetallicRoughness":{"baseColorFactor":[1,1,1,1],"baseColorTexture":{"index":0,"texCoord":0},"metallicFactor":0.400000005960464,"roughnessFactor":0.140028014779091}}],"meshes":[{"name":"Chair_02_A","primitives":[{"attributes":{"NORMAL":2,"POSITION":1,"TEXCOORD_0":3},"indices":0,"material":0,"mode":4}]}],"nodes":[{"mesh":0,"name":"Chair_02_A","rotation":[0,0,0,1],"scale":[1,1,1],"translation":[-10.8387079238892,0.122247114777565,-56.1737823486328]}],"samplers":[{}],"scene":0,"scenes":[{"name":"Root Scene","nodes":[0]}],"textures":[{"name":"base_color_texture","sampler":0,"source":0}]}