{"accessors":[{"bufferView":0,"byteOffset":0,"componentType":5123,"count":480,"type":"SCALAR"},{"bufferView":1,"byteOffset":0,"componentType":5126,"count":274,"max":[0.0350000001490116,0.050597008317709,0.0350000001490116],"min":[-0.03500000014901,-0.00059701129794,-0.03500000014901],"type":"VEC3"},{"bufferView":2,"byteOffset":0,"componentType":5126,"count":274,"type":"VEC3"},{"bufferView":3,"byteOffset":0,"componentType":5126,"count":274,"type":"VEC2"}],"asset":{"generator":"FBX2glTF v0.13.1","version":"2.0"},"bufferViews":[{"buffer":0,"byteLength":960,"byteOffset":0,"target":34963},{"buffer":0,"byteLength":3288,"byteOffset":960,"target":34962},{"buffer":0,"byteLength":3288,"byteOffset":4248,"target":34962},{"buffer":0,"byteLength":2192,"byteOffset":7536,"target":34962}],"buffers":[{"byteLength":9728,"uri":"SM_DuctTape.bin"}],"images":[{"name":"MainTexture_City_4","uri":"MainTexture_City_4.png"}],"materials":[{"alphaMode":"OPAQUE","doubleSided":false,"extras":{"fromFBX":{"isTruePBR":false,"shadingModel":"Phong"}},"name":"Material","pbrMetallicRoughness":{"baseColorFactor":[1,1,1,1],"baseColorTexture":{"index":0,"texCoord":0},"metallicFactor":0.400000005960464,"roughnessFactor":0.140028014779091}}],"meshes":[{"name":"DuctTape","primitives":[{"attributes":{"NORMAL":2,"POSITION":1,"TEXCOORD_0":3},"indices":0,"material":0,"mode":4}]}],"nodes":[{"mesh":0,"name":"DuctTape","rotation":[0,0,0,1],"scale":[1,1,1],"translation":[-112.592559814453,0,-60.0163612365723]}],"samplers":[{}],"scene":0,"scenes":[{"name":"Root Scene","nodes":[0]}],"textures":[{"name":"base_color_texture","sampler":0,"source":0}]}