{"accessors":[{"bufferView":0,"byteOffset":0,"componentType":5123,"count":204,"type":"SCALAR"},{"bufferView":1,"byteOffset":0,"componentType":5126,"count":132,"max":[0.154747813940048,0.0700604766607285,0.0813745185732841],"min":[-0.15649697184563,-0.07006047666073,-0.08110823482275],"type":"VEC3"},{"bufferView":2,"byteOffset":0,"componentType":5126,"count":132,"type":"VEC3"},{"bufferView":3,"byteOffset":0,"componentType":5126,"count":132,"type":"VEC2"}],"asset":{"generator":"FBX2glTF v0.13.1","version":"2.0"},"bufferViews":[{"buffer":0,"byteLength":408,"byteOffset":0,"target":34963},{"buffer":0,"byteLength":1584,"byteOffset":408,"target":34962},{"buffer":0,"byteLength":1584,"byteOffset":1992,"target":34962},{"buffer":0,"byteLength":1056,"byteOffset":3576,"target":34962}],"buffers":[{"byteLength":4632,"uri":"SM_Dumbbell_01_A.bin"}],"images":[{"name":"MainTexture_City_4","uri":"MainTexture_City_4.png"}],"materials":[{"alphaMode":"OPAQUE","doubleSided":false,"extras":{"fromFBX":{"isTruePBR":false,"shadingModel":"Phong"}},"name":"Material","pbrMetallicRoughness":{"baseColorFactor":[1,1,1,1],"baseColorTexture":{"index":0,"texCoord":0},"metallicFactor":0.400000005960464,"roughnessFactor":0.140028014779091}}],"meshes":[{"name":"Dumbbell_01_A","primitives":[{"attributes":{"NORMAL":2,"POSITION":1,"TEXCOORD_0":3},"indices":0,"material":0,"mode":4}]}],"nodes":[{"mesh":0,"name":"Dumbbell_01_A","rotation":[0,0,0,1],"scale":[1,1,1],"translation":[-11.365532875061,0.169653564691544,-56.7528533935547]}],"samplers":[{}],"scene":0,"scenes":[{"name":"Root Scene","nodes":[0]}],"textures":[{"name":"base_color_texture","sampler":0,"source":0}]}