{"accessors":[{"bufferView":0,"byteOffset":0,"componentType":5123,"count":480,"type":"SCALAR"},{"bufferView":1,"byteOffset":0,"componentType":5126,"count":302,"max":[0.374999940395355,0.499399244785309,0.0414154529571533],"min":[-0.37499994039536,-0.50060069561005,-0.08207724988461],"type":"VEC3"},{"bufferView":2,"byteOffset":0,"componentType":5126,"count":302,"type":"VEC3"},{"bufferView":3,"byteOffset":0,"componentType":5126,"count":302,"type":"VEC2"},{"bufferView":4,"byteOffset":0,"componentType":5123,"count":84,"type":"SCALAR"},{"bufferView":5,"byteOffset":0,"componentType":5126,"count":56,"max":[0.265341013669968,0.149544715881348,0.0216785445809364],"min":[-0.26534107327461,-0.14600935578346,-0.02167857065797],"type":"VEC3"},{"bufferView":6,"byteOffset":0,"componentType":5126,"count":56,"type":"VEC3"},{"bufferView":7,"byteOffset":0,"componentType":5126,"count":56,"type":"VEC2"},{"bufferView":8,"byteOffset":0,"componentType":5123,"count":84,"type":"SCALAR"},{"bufferView":9,"byteOffset":0,"componentType":5126,"count":56,"max":[0.0741356238722801,0.149544715881348,0.0216785445809364],"min":[-0.07413563132286,-0.14600935578346,-0.02167857065797],"type":"VEC3"},{"bufferView":10,"byteOffset":0,"componentType":5126,"count":56,"type":"VEC3"},{"bufferView":11,"byteOffset":0,"componentType":5126,"count":56,"type":"VEC2"}],"asset":{"generator":"FBX2glTF v0.13.1","version":"2.0"},"bufferViews":[{"buffer":0,"byteLength":960,"byteOffset":0,"target":34963},{"buffer":0,"byteLength":3624,"byteOffset":960,"target":34962},{"buffer":0,"byteLength":3624,"byteOffset":4584,"target":34962},{"buffer":0,"byteLength":2416,"byteOffset":8208,"target":34962},{"buffer":0,"byteLength":168,"byteOffset":10624,"target":34963},{"buffer":0,"byteLength":672,"byteOffset":10792,"target":34962},{"buffer":0,"byteLength":672,"byteOffset":11464,"target":34962},{"buffer":0,"byteLength":448,"byteOffset":12136,"target":34962},{"buffer":0,"byteLength":168,"byteOffset":12584,"target":34963},{"buffer":0,"byteLength":672,"byteOffset":12752,"target":34962},{"buffer":0,"byteLength":672,"byteOffset":13424,"target":34962},{"buffer":0,"byteLength":448,"byteOffset":14096,"target":34962}],"buffers":[{"byteLength":14544,"uri":"SM_Dryer.bin"}],"images":[{"name":"MainTexture_City_4","uri":"MainTexture_City_4.png"}],"materials":[{"alphaMode":"OPAQUE","doubleSided":false,"extras":{"fromFBX":{"isTruePBR":false,"shadingModel":"Phong"}},"name":"Material","pbrMetallicRoughness":{"baseColorFactor":[1,1,1,1],"baseColorTexture":{"index":0,"texCoord":0},"metallicFactor":0.400000005960464,"roughnessFactor":0.140028014779091}}],"meshes":[{"name":"Dryer","primitives":[{"attributes":{"NORMAL":2,"POSITION":1,"TEXCOORD_0":3},"indices":0,"material":0,"mode":4}]},{"name":"Towel01","primitives":[{"attributes":{"NORMAL":6,"POSITION":5,"TEXCOORD_0":7},"indices":4,"material":0,"mode":4}]},{"name":"Towel02","primitives":[{"attributes":{"NORMAL":10,"POSITION":9,"TEXCOORD_0":11},"indices":8,"material":0,"mode":4}]}],"nodes":[{"children":[1,2],"mesh":0,"name":"Dryer","rotation":[0,0,0,1],"scale":[1,1,1],"translation":[-113.706108093262,0.500600695610046,-60.032772064209]},{"mesh":1,"name":"Towel01","rotation":[0,0,0,1],"scale":[1,1,1],"translation":[0,0.269125312566757,0.0164111331105232]},{"mesh":2,"name":"Towel02","rotation":[0,0,0,1],"scale":[1,1,1],"translation":[0.00198242184706032,-0.20488077402115,0.0164501946419477]}],"samplers":[{}],"scene":0,"scenes":[{"name":"Root Scene","nodes":[0]}],"textures":[{"name":"base_color_texture","sampler":0,"source":0}]}