{"accessors":[{"bufferView":0,"byteOffset":0,"componentType":5123,"count":3570,"type":"SCALAR"},{"bufferView":1,"byteOffset":0,"componentType":5126,"count":2293,"max":[0.295659959316254,0.812079429626465,0.375103831291199],"min":[-0.34073367714882,-0.00403176480904,-0.38791674375534],"type":"VEC3"},{"bufferView":2,"byteOffset":0,"componentType":5126,"count":2293,"type":"VEC3"},{"bufferView":3,"byteOffset":0,"componentType":5126,"count":2293,"type":"VEC2"}],"asset":{"generator":"FBX2glTF v0.13.1","version":"2.0"},"bufferViews":[{"buffer":0,"byteLength":7140,"byteOffset":0,"target":34963},{"buffer":0,"byteLength":27516,"byteOffset":7140,"target":34962},{"buffer":0,"byteLength":27516,"byteOffset":34656,"target":34962},{"buffer":0,"byteLength":18344,"byteOffset":62172,"target":34962}],"buffers":[{"byteLength":80516,"uri":"SM_Doghouse.bin"}],"images":[{"name":"MainTexture_City_4","uri":"MainTexture_City_4.png"}],"materials":[{"alphaMode":"OPAQUE","doubleSided":false,"extras":{"fromFBX":{"isTruePBR":false,"shadingModel":"Phong"}},"name":"Material","pbrMetallicRoughness":{"baseColorFactor":[1,1,1,1],"baseColorTexture":{"index":0,"texCoord":0},"metallicFactor":0.400000005960464,"roughnessFactor":0.140028014779091}}],"meshes":[{"name":"Doghouse","primitives":[{"attributes":{"NORMAL":2,"POSITION":1,"TEXCOORD_0":3},"indices":0,"material":0,"mode":4}]}],"nodes":[{"mesh":0,"name":"Doghouse","rotation":[0,0,0,1],"scale":[1,1,1],"translation":[-97.9903335571289,0.0000000596046447753906,-60.5413627624512]}],"samplers":[{}],"scene":0,"scenes":[{"name":"Root Scene","nodes":[0]}],"textures":[{"name":"base_color_texture","sampler":0,"source":0}]}