{"accessors":[{"bufferView":0,"byteOffset":0,"componentType":5123,"count":132,"type":"SCALAR"},{"bufferView":1,"byteOffset":0,"componentType":5126,"count":88,"max":[0,2,0.0499992370605469],"min":[-1,0,-0.04999923706055],"type":"VEC3"},{"bufferView":2,"byteOffset":0,"componentType":5126,"count":88,"type":"VEC3"},{"bufferView":3,"byteOffset":0,"componentType":5126,"count":88,"type":"VEC2"},{"bufferView":4,"byteOffset":0,"componentType":5123,"count":48,"type":"SCALAR"},{"bufferView":5,"byteOffset":0,"componentType":5126,"count":32,"max":[-0.08239364624023,1.91760647296906,0.0123519897460938],"min":[-0.91760635375977,0.0823934078216553,-0.01235198974609],"type":"VEC3"},{"bufferView":6,"byteOffset":0,"componentType":5126,"count":32,"type":"VEC3"},{"bufferView":7,"byteOffset":0,"componentType":5126,"count":32,"type":"VEC2"}],"asset":{"generator":"FBX2glTF v0.13.1","version":"2.0"},"bufferViews":[{"buffer":0,"byteLength":264,"byteOffset":0,"target":34963},{"buffer":0,"byteLength":1056,"byteOffset":264,"target":34962},{"buffer":0,"byteLength":1056,"byteOffset":1320,"target":34962},{"buffer":0,"byteLength":704,"byteOffset":2376,"target":34962},{"buffer":0,"byteLength":96,"byteOffset":3080,"target":34963},{"buffer":0,"byteLength":384,"byteOffset":3176,"target":34962},{"buffer":0,"byteLength":384,"byteOffset":3560,"target":34962},{"buffer":0,"byteLength":256,"byteOffset":3944,"target":34962}],"buffers":[{"byteLength":4200,"uri":"SM_Doors_01.bin"}],"images":[{"name":"MainTexture_City_4","uri":"MainTexture_City_4.png"}],"materials":[{"alphaMode":"OPAQUE","doubleSided":false,"extras":{"fromFBX":{"isTruePBR":false,"shadingModel":"Phong"}},"name":"Glass","pbrMetallicRoughness":{"baseColorFactor":[0.364632904529572,0.488288849592209,0.800000071525574,1],"metallicFactor":0.400000005960464,"roughnessFactor":1}},{"alphaMode":"OPAQUE","doubleSided":false,"extras":{"fromFBX":{"isTruePBR":false,"shadingModel":"Phong"}},"name":"Material","pbrMetallicRoughness":{"baseColorFactor":[1,1,1,1],"baseColorTexture":{"index":0,"texCoord":0},"metallicFactor":0.400000005960464,"roughnessFactor":0.140028014779091}}],"meshes":[{"name":"Doors_01","primitives":[{"attributes":{"NORMAL":2,"POSITION":1,"TEXCOORD_0":3},"indices":0,"material":1,"mode":4},{"attributes":{"NORMAL":6,"POSITION":5,"TEXCOORD_0":7},"indices":4,"material":0,"mode":4}]}],"nodes":[{"mesh":0,"name":"Doors_01","rotation":[0,0,0,1],"scale":[1,1,1],"translation":[-38.7184448242188,0.0182536840438843,-57.937629699707]}],"samplers":[{}],"scene":0,"scenes":[{"name":"Root Scene","nodes":[0]}],"textures":[{"name":"base_color_texture","sampler":0,"source":0}]}