{"accessors":[{"bufferView":0,"byteOffset":0,"componentType":5123,"count":384,"type":"SCALAR"},{"bufferView":1,"byteOffset":0,"componentType":5126,"count":200,"max":[0.179411649703979,0,0.0500244125723839],"min":[-0.17944826185703,-0.42112669348717,-0.04997558519244],"type":"VEC3"},{"bufferView":2,"byteOffset":0,"componentType":5126,"count":200,"type":"VEC3"},{"bufferView":3,"byteOffset":0,"componentType":5126,"count":200,"type":"VEC2"}],"asset":{"generator":"FBX2glTF v0.13.1","version":"2.0"},"bufferViews":[{"buffer":0,"byteLength":768,"byteOffset":0,"target":34963},{"buffer":0,"byteLength":2400,"byteOffset":768,"target":34962},{"buffer":0,"byteLength":2400,"byteOffset":3168,"target":34962},{"buffer":0,"byteLength":1600,"byteOffset":5568,"target":34962}],"buffers":[{"byteLength":7168,"uri":"SM_Exit_01_A.bin"}],"images":[{"name":"MainTexture_City_4","uri":"MainTexture_City_4.png"}],"materials":[{"alphaMode":"OPAQUE","doubleSided":false,"extras":{"fromFBX":{"isTruePBR":false,"shadingModel":"Phong"}},"name":"Material","pbrMetallicRoughness":{"baseColorFactor":[1,1,1,1],"baseColorTexture":{"index":0,"texCoord":0},"metallicFactor":0.400000005960464,"roughnessFactor":0.140028014779091}}],"meshes":[{"name":"Exit_01_A","primitives":[{"attributes":{"NORMAL":2,"POSITION":1,"TEXCOORD_0":3},"indices":0,"material":0,"mode":4}]}],"nodes":[{"mesh":0,"name":"Exit_01_A","rotation":[0,0,0,1],"scale":[1,1,1],"translation":[193.880462646484,0.455251008272171,-294.368621826172]}],"samplers":[{}],"scene":0,"scenes":[{"name":"Root Scene","nodes":[0]}],"textures":[{"name":"base_color_texture","sampler":0,"source":0}]}