{"accessors":[{"bufferView":0,"byteOffset":0,"componentType":5123,"count":60,"type":"SCALAR"},{"bufferView":1,"byteOffset":0,"componentType":5126,"count":40,"max":[0.100535959005356,0.300239026546478,0.0268863346427679],"min":[-0.10124511271715,-0.00090683693998,-0.02598884515464],"type":"VEC3"},{"bufferView":2,"byteOffset":0,"componentType":5126,"count":40,"type":"VEC3"},{"bufferView":3,"byteOffset":0,"componentType":5126,"count":40,"type":"VEC2"}],"asset":{"generator":"FBX2glTF v0.13.1","version":"2.0"},"bufferViews":[{"buffer":0,"byteLength":120,"byteOffset":0,"target":34963},{"buffer":0,"byteLength":480,"byteOffset":120,"target":34962},{"buffer":0,"byteLength":480,"byteOffset":600,"target":34962},{"buffer":0,"byteLength":320,"byteOffset":1080,"target":34962}],"buffers":[{"byteLength":1400,"uri":"SM_FoodBox_01_C.bin"}],"images":[{"name":"MainTexture_City_4","uri":"MainTexture_City_4.png"}],"materials":[{"alphaMode":"OPAQUE","doubleSided":false,"extras":{"fromFBX":{"isTruePBR":false,"shadingModel":"Phong"}},"name":"Material.024","pbrMetallicRoughness":{"baseColorFactor":[1,1,1,1],"baseColorTexture":{"index":0,"texCoord":0},"metallicFactor":0.400000005960464,"roughnessFactor":0.140028014779091}}],"meshes":[{"name":"FoodBox_01_C","primitives":[{"attributes":{"NORMAL":2,"POSITION":1,"TEXCOORD_0":3},"indices":0,"material":0,"mode":4}]}],"nodes":[{"mesh":0,"name":"FoodBox_01_C","rotation":[0,0,0,1],"scale":[1,1,1],"translation":[186.870559692383,0.0755193755030632,-294.540496826172]}],"samplers":[{}],"scene":0,"scenes":[{"name":"Root Scene","nodes":[0]}],"textures":[{"name":"base_color_texture","sampler":0,"source":0}]}