{"accessors":[{"bufferView":0,"byteOffset":0,"componentType":5123,"count":108,"type":"SCALAR"},{"bufferView":1,"byteOffset":0,"componentType":5126,"count":64,"max":[0.04998779296875,0.199999988079071,0.0350341834127903],"min":[-0.05001220479608,0,-0.03496582433581],"type":"VEC3"},{"bufferView":2,"byteOffset":0,"componentType":5126,"count":64,"type":"VEC3"},{"bufferView":3,"byteOffset":0,"componentType":5126,"count":64,"type":"VEC2"}],"asset":{"generator":"FBX2glTF v0.13.1","version":"2.0"},"bufferViews":[{"buffer":0,"byteLength":216,"byteOffset":0,"target":34963},{"buffer":0,"byteLength":768,"byteOffset":216,"target":34962},{"buffer":0,"byteLength":768,"byteOffset":984,"target":34962},{"buffer":0,"byteLength":512,"byteOffset":1752,"target":34962}],"buffers":[{"byteLength":2264,"uri":"SM_FoodBox_02_A.bin"}],"images":[{"name":"MainTexture_City_4","uri":"MainTexture_City_4.png"}],"materials":[{"alphaMode":"OPAQUE","doubleSided":false,"extras":{"fromFBX":{"isTruePBR":false,"shadingModel":"Phong"}},"name":"Material","pbrMetallicRoughness":{"baseColorFactor":[1,1,1,1],"baseColorTexture":{"index":0,"texCoord":0},"metallicFactor":0.400000005960464,"roughnessFactor":0.140028014779091}}],"meshes":[{"name":"FoodBox_02_A","primitives":[{"attributes":{"NORMAL":2,"POSITION":1,"TEXCOORD_0":3},"indices":0,"material":0,"mode":4}]}],"nodes":[{"mesh":0,"name":"FoodBox_02_A","rotation":[0,0,0,1],"scale":[1,1,1],"translation":[187.047393798828,0.00128845125436783,-294.220184326172]}],"samplers":[{}],"scene":0,"scenes":[{"name":"Root Scene","nodes":[0]}],"textures":[{"name":"base_color_texture","sampler":0,"source":0}]}