{"accessors":[{"bufferView":0,"byteOffset":0,"componentType":5123,"count":228,"type":"SCALAR"},{"bufferView":1,"byteOffset":0,"componentType":5126,"count":140,"max":[0.0249999985098839,0.0161319449543953,0.0563447289168835],"min":[-0.02499999850988,0,-0.05629589781165],"type":"VEC3"},{"bufferView":2,"byteOffset":0,"componentType":5126,"count":140,"type":"VEC3"},{"bufferView":3,"byteOffset":0,"componentType":5126,"count":140,"type":"VEC2"}],"asset":{"generator":"FBX2glTF v0.13.1","version":"2.0"},"bufferViews":[{"buffer":0,"byteLength":456,"byteOffset":0,"target":34963},{"buffer":0,"byteLength":1680,"byteOffset":456,"target":34962},{"buffer":0,"byteLength":1680,"byteOffset":2136,"target":34962},{"buffer":0,"byteLength":1120,"byteOffset":3816,"target":34962}],"buffers":[{"byteLength":4936,"uri":"SM_FoodBox_05_C.bin"}],"images":[{"name":"MainTexture_City_4","uri":"MainTexture_City_4.png"}],"materials":[{"alphaMode":"OPAQUE","doubleSided":false,"extras":{"fromFBX":{"isTruePBR":false,"shadingModel":"Phong"}},"name":"Material.271","pbrMetallicRoughness":{"baseColorFactor":[1,1,1,1],"baseColorTexture":{"index":0,"texCoord":0},"metallicFactor":0.400000005960464,"roughnessFactor":0.140028014779091}}],"meshes":[{"name":"FoodBox_05_C","primitives":[{"attributes":{"NORMAL":2,"POSITION":1,"TEXCOORD_0":3},"indices":0,"material":0,"mode":4}]}],"nodes":[{"mesh":0,"name":"FoodBox_05_C","rotation":[0,0,0,1],"scale":[1,1,1],"translation":[188.293563842773,-0.0080659724772,-294.567108154297]}],"samplers":[{}],"scene":0,"scenes":[{"name":"Root Scene","nodes":[0]}],"textures":[{"name":"base_color_texture","sampler":0,"source":0}]}