{"accessors":[{"bufferView":0,"byteOffset":0,"componentType":5123,"count":108,"type":"SCALAR"},{"bufferView":1,"byteOffset":0,"componentType":5126,"count":60,"max":[0.0999877899885178,0.300000011920929,0.0249999985098839],"min":[-0.10001220554113,0,-0.02499999850988],"type":"VEC3"},{"bufferView":2,"byteOffset":0,"componentType":5126,"count":60,"type":"VEC3"},{"bufferView":3,"byteOffset":0,"componentType":5126,"count":60,"type":"VEC2"}],"asset":{"generator":"FBX2glTF v0.13.1","version":"2.0"},"bufferViews":[{"buffer":0,"byteLength":216,"byteOffset":0,"target":34963},{"buffer":0,"byteLength":720,"byteOffset":216,"target":34962},{"buffer":0,"byteLength":720,"byteOffset":936,"target":34962},{"buffer":0,"byteLength":480,"byteOffset":1656,"target":34962}],"buffers":[{"byteLength":2136,"uri":"SM_FoodBox_01_A.bin"}],"images":[{"name":"MainTexture_City_4","uri":"MainTexture_City_4.png"}],"materials":[{"alphaMode":"OPAQUE","doubleSided":false,"extras":{"fromFBX":{"isTruePBR":false,"shadingModel":"Phong"}},"name":"Material","pbrMetallicRoughness":{"baseColorFactor":[1,1,1,1],"baseColorTexture":{"index":0,"texCoord":0},"metallicFactor":0.400000005960464,"roughnessFactor":0.140028014779091}}],"meshes":[{"name":"FoodBox_01_A","primitives":[{"attributes":{"NORMAL":2,"POSITION":1,"TEXCOORD_0":3},"indices":0,"material":0,"mode":4}]}],"nodes":[{"mesh":0,"name":"FoodBox_01_A","rotation":[0,0,0,1],"scale":[1,1,1],"translation":[186.843856811523,0.0218442212790251,-294.191711425781]}],"samplers":[{}],"scene":0,"scenes":[{"name":"Root Scene","nodes":[0]}],"textures":[{"name":"base_color_texture","sampler":0,"source":0}]}