{"accessors":[{"bufferView":0,"byteOffset":0,"componentType":5123,"count":132,"type":"SCALAR"},{"bufferView":1,"byteOffset":0,"componentType":5126,"count":88,"max":[0.172578230500221,0.345303326845169,0.0978469997644424],"min":[-0.17257823050022,-0.00031486153603,-0.08166542649269],"type":"VEC3"},{"bufferView":2,"byteOffset":0,"componentType":5126,"count":88,"type":"VEC3"},{"bufferView":3,"byteOffset":0,"componentType":5126,"count":88,"type":"VEC2"}],"asset":{"generator":"FBX2glTF v0.13.1","version":"2.0"},"bufferViews":[{"buffer":0,"byteLength":264,"byteOffset":0,"target":34963},{"buffer":0,"byteLength":1056,"byteOffset":264,"target":34962},{"buffer":0,"byteLength":1056,"byteOffset":1320,"target":34962},{"buffer":0,"byteLength":704,"byteOffset":2376,"target":34962}],"buffers":[{"byteLength":3080,"uri":"SM_Frame_01_F.bin"}],"images":[{"name":"MainTexture_City_4","uri":"MainTexture_City_4.png"}],"materials":[{"alphaMode":"OPAQUE","doubleSided":false,"extras":{"fromFBX":{"isTruePBR":false,"shadingModel":"Phong"}},"name":"Material","pbrMetallicRoughness":{"baseColorFactor":[1,1,1,1],"baseColorTexture":{"index":0,"texCoord":0},"metallicFactor":0.400000005960464,"roughnessFactor":0.140028014779091}}],"meshes":[{"name":"Frame_01_F","primitives":[{"attributes":{"NORMAL":2,"POSITION":1,"TEXCOORD_0":3},"indices":0,"material":0,"mode":4}]}],"nodes":[{"mesh":0,"name":"Frame_01_F","rotation":[0,0,0,1],"scale":[1,1,1],"translation":[-23.1377353668213,0.299533933401108,-56.8771858215332]}],"samplers":[{}],"scene":0,"scenes":[{"name":"Root Scene","nodes":[0]}],"textures":[{"name":"base_color_texture","sampler":0,"source":0}]}