{"accessors":[{"bufferView":0,"byteOffset":0,"componentType":5123,"count":498,"type":"SCALAR"},{"bufferView":1,"byteOffset":0,"componentType":5126,"count":490,"max":[0.504619717597961,0.114913374185562,1.03466069698334],"min":[-0.54580539464951,-0.00035583245335,-1.09318804740906],"type":"VEC3"},{"bufferView":2,"byteOffset":0,"componentType":5126,"count":490,"type":"VEC3"},{"bufferView":3,"byteOffset":0,"componentType":5126,"count":490,"type":"VEC2"}],"asset":{"generator":"FBX2glTF v0.13.1","version":"2.0"},"bufferViews":[{"buffer":0,"byteLength":996,"byteOffset":0,"target":34963},{"buffer":0,"byteLength":5880,"byteOffset":996,"target":34962},{"buffer":0,"byteLength":5880,"byteOffset":6876,"target":34962},{"buffer":0,"byteLength":3920,"byteOffset":12756,"target":34962}],"buffers":[{"byteLength":16676,"uri":"SM_Footpath01.bin"}],"images":[{"name":"MainTexture_City_4","uri":"MainTexture_City_4.png"}],"materials":[{"alphaMode":"OPAQUE","doubleSided":false,"extras":{"fromFBX":{"isTruePBR":false,"shadingModel":"Phong"}},"name":"Material","pbrMetallicRoughness":{"baseColorFactor":[1,1,1,1],"baseColorTexture":{"index":0,"texCoord":0},"metallicFactor":0.400000005960464,"roughnessFactor":0.140028014779091}}],"meshes":[{"name":"Footpath01","primitives":[{"attributes":{"NORMAL":2,"POSITION":1,"TEXCOORD_0":3},"indices":0,"material":0,"mode":4}]}],"nodes":[{"mesh":0,"name":"Footpath01","rotation":[0,0,0,1],"scale":[1,1,1],"translation":[-101.130340576172,0,-60.2500076293945]}],"samplers":[{}],"scene":0,"scenes":[{"name":"Root Scene","nodes":[0]}],"textures":[{"name":"base_color_texture","sampler":0,"source":0}]}