{"accessors":[{"bufferView":0,"byteOffset":0,"componentType":5123,"count":1500,"type":"SCALAR"},{"bufferView":1,"byteOffset":0,"componentType":5126,"count":703,"max":[0.830394744873047,2.06039810180664,0.474836140871048],"min":[-0.66960525512695,0,-0.41997069120407],"type":"VEC3"},{"bufferView":2,"byteOffset":0,"componentType":5126,"count":703,"type":"VEC3"},{"bufferView":3,"byteOffset":0,"componentType":5126,"count":703,"type":"VEC2"},{"bufferView":4,"byteOffset":0,"componentType":5123,"count":180,"type":"SCALAR"},{"bufferView":5,"byteOffset":0,"componentType":5126,"count":76,"max":[0.556614756584167,0.723474323749542,0.0102182859554887],"min":[-0.45224913954735,-0.7614409327507,-0.01257638912648],"type":"VEC3"},{"bufferView":6,"byteOffset":0,"componentType":5126,"count":76,"type":"VEC3"},{"bufferView":7,"byteOffset":0,"componentType":5126,"count":76,"type":"VEC2"}],"asset":{"generator":"FBX2glTF v0.13.1","version":"2.0"},"bufferViews":[{"buffer":0,"byteLength":3000,"byteOffset":0,"target":34963},{"buffer":0,"byteLength":8436,"byteOffset":3000,"target":34962},{"buffer":0,"byteLength":8436,"byteOffset":11436,"target":34962},{"buffer":0,"byteLength":5624,"byteOffset":19872,"target":34962},{"buffer":0,"byteLength":360,"byteOffset":25496,"target":34963},{"buffer":0,"byteLength":912,"byteOffset":25856,"target":34962},{"buffer":0,"byteLength":912,"byteOffset":26768,"target":34962},{"buffer":0,"byteLength":608,"byteOffset":27680,"target":34962}],"buffers":[{"byteLength":28288,"uri":"SM_FoodMachine_01_A.bin"}],"images":[{"name":"MainTexture_City_4","uri":"MainTexture_City_4.png"}],"materials":[{"alphaMode":"OPAQUE","doubleSided":false,"extras":{"fromFBX":{"isTruePBR":false,"shadingModel":"Phong"}},"name":"Material","pbrMetallicRoughness":{"baseColorFactor":[1,1,1,1],"baseColorTexture":{"index":0,"texCoord":0},"metallicFactor":0.400000005960464,"roughnessFactor":0.140028014779091}},{"alphaMode":"OPAQUE","doubleSided":false,"extras":{"fromFBX":{"isTruePBR":false,"shadingModel":"Phong"}},"name":"Glass","pbrMetallicRoughness":{"baseColorFactor":[0.364632904529572,0.488288849592209,0.800000071525574,1],"metallicFactor":0.400000005960464,"roughnessFactor":1}}],"meshes":[{"name":"FoodMachine_01_A","primitives":[{"attributes":{"NORMAL":2,"POSITION":1,"TEXCOORD_0":3},"indices":0,"material":0,"mode":4}]},{"name":"FoodMachineGlass_01_A","primitives":[{"attributes":{"NORMAL":6,"POSITION":5,"TEXCOORD_0":7},"indices":4,"material":1,"mode":4}]}],"nodes":[{"children":[1],"mesh":0,"name":"FoodMachine_01_A","rotation":[0,0,0,1],"scale":[1,1,1],"translation":[169.311538696289,-0.06039810180664,-294.3486328125]},{"mesh":1,"name":"FoodMachineGlass_01_A","rotation":[0,0,0,1],"scale":[1,1,1],"translation":[-0.12894530594349,1.19947254657745,0.392617166042328]}],"samplers":[{}],"scene":0,"scenes":[{"name":"Root Scene","nodes":[0]}],"textures":[{"name":"base_color_texture","sampler":0,"source":0}]}