{"accessors":[{"bufferView":0,"byteOffset":0,"componentType":5123,"count":60,"type":"SCALAR"},{"bufferView":1,"byteOffset":0,"componentType":5126,"count":40,"max":[0.178096979856491,0.262684524059296,0.0149681884795427],"min":[-0.17809697985649,-0.2626845240593,-0.00758448056877],"type":"VEC3"},{"bufferView":2,"byteOffset":0,"componentType":5126,"count":40,"type":"VEC3"},{"bufferView":3,"byteOffset":0,"componentType":5126,"count":40,"type":"VEC2"}],"asset":{"generator":"FBX2glTF v0.13.1","version":"2.0"},"bufferViews":[{"buffer":0,"byteLength":120,"byteOffset":0,"target":34963},{"buffer":0,"byteLength":480,"byteOffset":120,"target":34962},{"buffer":0,"byteLength":480,"byteOffset":600,"target":34962},{"buffer":0,"byteLength":320,"byteOffset":1080,"target":34962}],"buffers":[{"byteLength":1400,"uri":"SM_Frame_01_B.bin"}],"images":[{"name":"MainTexture_City_4","uri":"MainTexture_City_4.png"}],"materials":[{"alphaMode":"OPAQUE","doubleSided":false,"extras":{"fromFBX":{"isTruePBR":false,"shadingModel":"Phong"}},"name":"Material","pbrMetallicRoughness":{"baseColorFactor":[1,1,1,1],"baseColorTexture":{"index":0,"texCoord":0},"metallicFactor":0.400000005960464,"roughnessFactor":0.140028014779091}}],"meshes":[{"name":"Frame_01_B","primitives":[{"attributes":{"NORMAL":2,"POSITION":1,"TEXCOORD_0":3},"indices":0,"material":0,"mode":4}]}],"nodes":[{"mesh":0,"name":"Frame_01_B","rotation":[0,0,0,1],"scale":[1,1,1],"translation":[-24.9445362091064,0.477233409881592,-56.8726501464844]}],"samplers":[{}],"scene":0,"scenes":[{"name":"Root Scene","nodes":[0]}],"textures":[{"name":"base_color_texture","sampler":0,"source":0}]}