{"accessors":[{"bufferView":0,"byteOffset":0,"componentType":5123,"count":84,"type":"SCALAR"},{"bufferView":1,"byteOffset":0,"componentType":5126,"count":52,"max":[0.04998779296875,0.199999988079071,0.0350000038743019],"min":[-0.05001220479608,0,-0.0350000038743],"type":"VEC3"},{"bufferView":2,"byteOffset":0,"componentType":5126,"count":52,"type":"VEC3"},{"bufferView":3,"byteOffset":0,"componentType":5126,"count":52,"type":"VEC2"}],"asset":{"generator":"FBX2glTF v0.13.1","version":"2.0"},"bufferViews":[{"buffer":0,"byteLength":168,"byteOffset":0,"target":34963},{"buffer":0,"byteLength":624,"byteOffset":168,"target":34962},{"buffer":0,"byteLength":624,"byteOffset":792,"target":34962},{"buffer":0,"byteLength":416,"byteOffset":1416,"target":34962}],"buffers":[{"byteLength":1832,"uri":"SM_FoodBox_02_B.bin"}],"images":[{"name":"MainTexture_City_4","uri":"MainTexture_City_4.png"}],"materials":[{"alphaMode":"OPAQUE","doubleSided":false,"extras":{"fromFBX":{"isTruePBR":false,"shadingModel":"Phong"}},"name":"Material","pbrMetallicRoughness":{"baseColorFactor":[1,1,1,1],"baseColorTexture":{"index":0,"texCoord":0},"metallicFactor":0.400000005960464,"roughnessFactor":0.140028014779091}}],"meshes":[{"name":"FoodBox_02_B","primitives":[{"attributes":{"NORMAL":2,"POSITION":1,"TEXCOORD_0":3},"indices":0,"material":0,"mode":4}]}],"nodes":[{"mesh":0,"name":"FoodBox_02_B","rotation":[0,0,0,1],"scale":[1,1,1],"translation":[187.047393798828,0.00128845125436783,-294.368591308594]}],"samplers":[{}],"scene":0,"scenes":[{"name":"Root Scene","nodes":[0]}],"textures":[{"name":"base_color_texture","sampler":0,"source":0}]}