{"accessors":[{"bufferView":0,"byteOffset":0,"componentType":5123,"count":60,"type":"SCALAR"},{"bufferView":1,"byteOffset":0,"componentType":5126,"count":40,"max":[0.622112274169922,0.355709075927734,0.0353997722268105],"min":[-0.62211227416992,-0.35570907592773,-0.01207666564733],"type":"VEC3"},{"bufferView":2,"byteOffset":0,"componentType":5126,"count":40,"type":"VEC3"},{"bufferView":3,"byteOffset":0,"componentType":5126,"count":40,"type":"VEC2"}],"asset":{"generator":"FBX2glTF v0.13.1","version":"2.0"},"bufferViews":[{"buffer":0,"byteLength":120,"byteOffset":0,"target":34963},{"buffer":0,"byteLength":480,"byteOffset":120,"target":34962},{"buffer":0,"byteLength":480,"byteOffset":600,"target":34962},{"buffer":0,"byteLength":320,"byteOffset":1080,"target":34962}],"buffers":[{"byteLength":1400,"uri":"SM_Frame_01_A.bin"}],"images":[{"name":"MainTexture_City_4","uri":"MainTexture_City_4.png"}],"materials":[{"alphaMode":"OPAQUE","doubleSided":false,"extras":{"fromFBX":{"isTruePBR":false,"shadingModel":"Phong"}},"name":"Material","pbrMetallicRoughness":{"baseColorFactor":[1,1,1,1],"baseColorTexture":{"index":0,"texCoord":0},"metallicFactor":0.400000005960464,"roughnessFactor":0.140028014779091}}],"meshes":[{"name":"Frame_01_A","primitives":[{"attributes":{"NORMAL":2,"POSITION":1,"TEXCOORD_0":3},"indices":0,"material":0,"mode":4}]}],"nodes":[{"mesh":0,"name":"Frame_01_A","rotation":[0,0,0,1],"scale":[1,1,1],"translation":[-25.8494434356689,0.521209180355072,-56.8694267272949]}],"samplers":[{}],"scene":0,"scenes":[{"name":"Root Scene","nodes":[0]}],"textures":[{"name":"base_color_texture","sampler":0,"source":0}]}