{"accessors":[{"bufferView":0,"byteOffset":0,"componentType":5123,"count":1080,"type":"SCALAR"},{"bufferView":1,"byteOffset":0,"componentType":5126,"count":598,"max":[1,1.99999964237213,0.0499992370605469],"min":[-1,0,-0.04999923706055],"type":"VEC3"},{"bufferView":2,"byteOffset":0,"componentType":5126,"count":598,"type":"VEC3"},{"bufferView":3,"byteOffset":0,"componentType":5126,"count":598,"type":"VEC2"}],"asset":{"generator":"FBX2glTF v0.13.1","version":"2.0"},"bufferViews":[{"buffer":0,"byteLength":2160,"byteOffset":0,"target":34963},{"buffer":0,"byteLength":7176,"byteOffset":2160,"target":34962},{"buffer":0,"byteLength":7176,"byteOffset":9336,"target":34962},{"buffer":0,"byteLength":4784,"byteOffset":16512,"target":34962}],"buffers":[{"byteLength":21296,"uri":"SM_Fence06.bin"}],"images":[{"name":"MainTexture_City_4","uri":"MainTexture_City_4.png"}],"materials":[{"alphaMode":"OPAQUE","doubleSided":false,"extras":{"fromFBX":{"isTruePBR":false,"shadingModel":"Phong"}},"name":"Material.230","pbrMetallicRoughness":{"baseColorFactor":[1,1,1,1],"baseColorTexture":{"index":0,"texCoord":0},"metallicFactor":0.400000005960464,"roughnessFactor":0.140028014779091}}],"meshes":[{"name":"Fence06","primitives":[{"attributes":{"NORMAL":2,"POSITION":1,"TEXCOORD_0":3},"indices":0,"material":0,"mode":4}]}],"nodes":[{"mesh":0,"name":"Fence06","rotation":[0,0,0,1],"scale":[1,1,1],"translation":[-82.2410659790039,-0.0250000115484,-62.7896270751953]}],"samplers":[{}],"scene":0,"scenes":[{"name":"Root Scene","nodes":[0]}],"textures":[{"name":"base_color_texture","sampler":0,"source":0}]}