{"accessors":[{"bufferView":0,"byteOffset":0,"componentType":5123,"count":660,"type":"SCALAR"},{"bufferView":1,"byteOffset":0,"componentType":5126,"count":358,"max":[1.02500152587891,2,0.0250015258789062],"min":[-1.02500152587891,0,-0.02500152587891],"type":"VEC3"},{"bufferView":2,"byteOffset":0,"componentType":5126,"count":358,"type":"VEC3"},{"bufferView":3,"byteOffset":0,"componentType":5126,"count":358,"type":"VEC2"}],"asset":{"generator":"FBX2glTF v0.13.1","version":"2.0"},"bufferViews":[{"buffer":0,"byteLength":1320,"byteOffset":0,"target":34963},{"buffer":0,"byteLength":4296,"byteOffset":1320,"target":34962},{"buffer":0,"byteLength":4296,"byteOffset":5616,"target":34962},{"buffer":0,"byteLength":2864,"byteOffset":9912,"target":34962}],"buffers":[{"byteLength":12776,"uri":"SM_Fence01.bin"}],"images":[{"name":"MainTexture_City_4","uri":"MainTexture_City_4.png"}],"materials":[{"alphaMode":"OPAQUE","doubleSided":false,"extras":{"fromFBX":{"isTruePBR":false,"shadingModel":"Phong"}},"name":"Material","pbrMetallicRoughness":{"baseColorFactor":[1,1,1,1],"baseColorTexture":{"index":0,"texCoord":0},"metallicFactor":0.400000005960464,"roughnessFactor":0.140028014779091}}],"meshes":[{"name":"Fence01","primitives":[{"attributes":{"NORMAL":2,"POSITION":1,"TEXCOORD_0":3},"indices":0,"material":0,"mode":4}]}],"nodes":[{"mesh":0,"name":"Fence01","rotation":[0,0,0,1],"scale":[1,1,1],"translation":[-84.5107803344727,0,-60.3400077819824]}],"samplers":[{}],"scene":0,"scenes":[{"name":"Root Scene","nodes":[0]}],"textures":[{"name":"base_color_texture","sampler":0,"source":0}]}