{"accessors":[{"bufferView":0,"byteOffset":0,"componentType":5123,"count":84,"type":"SCALAR"},{"bufferView":1,"byteOffset":0,"componentType":5126,"count":52,"max":[0.0249999985098839,0.0161319449543953,0.0500244125723839],"min":[-0.02499999850988,0,-0.04997558519244],"type":"VEC3"},{"bufferView":2,"byteOffset":0,"componentType":5126,"count":52,"type":"VEC3"},{"bufferView":3,"byteOffset":0,"componentType":5126,"count":52,"type":"VEC2"}],"asset":{"generator":"FBX2glTF v0.13.1","version":"2.0"},"bufferViews":[{"buffer":0,"byteLength":168,"byteOffset":0,"target":34963},{"buffer":0,"byteLength":624,"byteOffset":168,"target":34962},{"buffer":0,"byteLength":624,"byteOffset":792,"target":34962},{"buffer":0,"byteLength":416,"byteOffset":1416,"target":34962}],"buffers":[{"byteLength":1832,"uri":"SM_FoodBox_04_B.bin"}],"images":[{"name":"MainTexture_City_4","uri":"MainTexture_City_4.png"}],"materials":[{"alphaMode":"OPAQUE","doubleSided":false,"extras":{"fromFBX":{"isTruePBR":false,"shadingModel":"Phong"}},"name":"Material.270","pbrMetallicRoughness":{"baseColorFactor":[1,1,1,1],"baseColorTexture":{"index":0,"texCoord":0},"metallicFactor":0.400000005960464,"roughnessFactor":0.140028014779091}}],"meshes":[{"name":"FoodBox_04_B","primitives":[{"attributes":{"NORMAL":2,"POSITION":1,"TEXCOORD_0":3},"indices":0,"material":0,"mode":4}]}],"nodes":[{"mesh":0,"name":"FoodBox_04_B","rotation":[0,0,0,1],"scale":[1,1,1],"translation":[188.179779052734,-0.0080659724772,-294.394744873047]}],"samplers":[{}],"scene":0,"scenes":[{"name":"Root Scene","nodes":[0]}],"textures":[{"name":"base_color_texture","sampler":0,"source":0}]}