{"accessors":[{"bufferView":0,"byteOffset":0,"componentType":5123,"count":150,"type":"SCALAR"},{"bufferView":1,"byteOffset":0,"componentType":5126,"count":76,"max":[0.487656772136688,1.02673065662384,0.483434677124023],"min":[-0.48765677213669,-1.02673065662384,-0.48343467712402],"type":"VEC3"},{"bufferView":2,"byteOffset":0,"componentType":5126,"count":76,"type":"VEC3"},{"bufferView":3,"byteOffset":0,"componentType":5126,"count":76,"type":"VEC2"},{"bufferView":4,"byteOffset":0,"componentType":5123,"count":480,"type":"SCALAR"},{"bufferView":5,"byteOffset":0,"componentType":5126,"count":320,"max":[0.316722333431244,0.496688038110733,-0.00000058486933],"min":[-0.0549982637167,-1.01581907272339,-0.91811728477478],"type":"VEC3"},{"bufferView":6,"byteOffset":0,"componentType":5126,"count":320,"type":"VEC3"},{"bufferView":7,"byteOffset":0,"componentType":5126,"count":320,"type":"VEC2"},{"bufferView":8,"byteOffset":0,"componentType":5123,"count":528,"type":"SCALAR"},{"bufferView":9,"byteOffset":0,"componentType":5126,"count":340,"max":[0.578506171703339,0.237319216132164,0],"min":[-0.04567950963974,-0.24571938812733,-0.82609558105469],"type":"VEC3"},{"bufferView":10,"byteOffset":0,"componentType":5126,"count":340,"type":"VEC3"},{"bufferView":11,"byteOffset":0,"componentType":5126,"count":340,"type":"VEC2"}],"asset":{"generator":"FBX2glTF v0.13.1","version":"2.0"},"bufferViews":[{"buffer":0,"byteLength":300,"byteOffset":0,"target":34963},{"buffer":0,"byteLength":912,"byteOffset":300,"target":34962},{"buffer":0,"byteLength":912,"byteOffset":1212,"target":34962},{"buffer":0,"byteLength":608,"byteOffset":2124,"target":34962},{"buffer":0,"byteLength":960,"byteOffset":2732,"target":34963},{"buffer":0,"byteLength":3840,"byteOffset":3692,"target":34962},{"buffer":0,"byteLength":3840,"byteOffset":7532,"target":34962},{"buffer":0,"byteLength":2560,"byteOffset":11372,"target":34962},{"buffer":0,"byteLength":1056,"byteOffset":13932,"target":34963},{"buffer":0,"byteLength":4080,"byteOffset":14988,"target":34962},{"buffer":0,"byteLength":4080,"byteOffset":19068,"target":34962},{"buffer":0,"byteLength":2720,"byteOffset":23148,"target":34962}],"buffers":[{"byteLength":25868,"uri":"SM_Fridge_01_A.bin"}],"images":[{"name":"MainTexture_City_4","uri":"MainTexture_City_4.png"}],"materials":[{"alphaMode":"OPAQUE","doubleSided":false,"extras":{"fromFBX":{"isTruePBR":false,"shadingModel":"Phong"}},"name":"Material","pbrMetallicRoughness":{"baseColorFactor":[1,1,1,1],"baseColorTexture":{"index":0,"texCoord":0},"metallicFactor":0.400000005960464,"roughnessFactor":0.140028014779091}}],"meshes":[{"name":"Fridge_01_A","primitives":[{"attributes":{"NORMAL":2,"POSITION":1,"TEXCOORD_0":3},"indices":0,"material":0,"mode":4}]},{"name":"fridge_door_1","primitives":[{"attributes":{"NORMAL":6,"POSITION":5,"TEXCOORD_0":7},"indices":4,"material":0,"mode":4}]},{"name":"fridge_door_2","primitives":[{"attributes":{"NORMAL":10,"POSITION":9,"TEXCOORD_0":11},"indices":8,"material":0,"mode":4}]}],"nodes":[{"children":[1,2],"mesh":0,"name":"Fridge_01_A","rotation":[0.0000000000000000612323426292584,1,0.0000000000000000612323426292584,-0.0000000754979],"scale":[0.74407172203064,0.74407172203064,0.74407172203064],"translation":[-18.2844409942627,0.822810053825378,-59.5890693664551]},{"mesh":1,"name":"fridge_door_1","rotation":[0.00000000000000000000000000000001,0,0,1],"scale":[1,1,1],"translation":[-0.47438457608223,0.00249603274278343,-0.48391237854958]},{"mesh":2,"name":"fridge_door_2","rotation":[0.00000000000000000000000000000001,0,0,1],"scale":[1,1,1],"translation":[-0.47442117333412,0.764377474784851,-0.48416629433632]}],"samplers":[{}],"scene":0,"scenes":[{"name":"Root Scene","nodes":[0]}],"textures":[{"name":"base_color_texture","sampler":0,"source":0}]}