{"accessors":[{"bufferView":0,"byteOffset":0,"componentType":5123,"count":1326,"type":"SCALAR"},{"bufferView":1,"byteOffset":0,"componentType":5126,"count":744,"max":[1.05001068115234,1,0.0499992370605469],"min":[-1.04999542236328,0,-0.04999923706055],"type":"VEC3"},{"bufferView":2,"byteOffset":0,"componentType":5126,"count":744,"type":"VEC3"},{"bufferView":3,"byteOffset":0,"componentType":5126,"count":744,"type":"VEC2"}],"asset":{"generator":"FBX2glTF v0.13.1","version":"2.0"},"bufferViews":[{"buffer":0,"byteLength":2652,"byteOffset":0,"target":34963},{"buffer":0,"byteLength":8928,"byteOffset":2652,"target":34962},{"buffer":0,"byteLength":8928,"byteOffset":11580,"target":34962},{"buffer":0,"byteLength":5952,"byteOffset":20508,"target":34962}],"buffers":[{"byteLength":26460,"uri":"SM_Fencing.bin"}],"images":[{"name":"MainTexture_City_4","uri":"MainTexture_City_4.png"}],"materials":[{"alphaMode":"OPAQUE","doubleSided":false,"extras":{"fromFBX":{"isTruePBR":false,"shadingModel":"Phong"}},"name":"Material","pbrMetallicRoughness":{"baseColorFactor":[1,1,1,1],"baseColorTexture":{"index":0,"texCoord":0},"metallicFactor":0.400000005960464,"roughnessFactor":0.140028014779091}}],"meshes":[{"name":"Fencing","primitives":[{"attributes":{"NORMAL":2,"POSITION":1,"TEXCOORD_0":3},"indices":0,"material":0,"mode":4}]}],"nodes":[{"mesh":0,"name":"Fencing","rotation":[0,0,0,1],"scale":[1,1,1],"translation":[-89.5548477172852,-0.00000011920929,-60.3400077819824]}],"samplers":[{}],"scene":0,"scenes":[{"name":"Root Scene","nodes":[0]}],"textures":[{"name":"base_color_texture","sampler":0,"source":0}]}