{"accessors":[{"bufferView":0,"byteOffset":0,"componentType":5123,"count":756,"type":"SCALAR"},{"bufferView":1,"byteOffset":0,"componentType":5126,"count":448,"max":[0.168438151478767,0.168438151478767,0.033445380628109],"min":[-0.16843815147877,-0.16843815147877,-0.00000003279612],"type":"VEC3"},{"bufferView":2,"byteOffset":0,"componentType":5126,"count":448,"type":"VEC3"},{"bufferView":3,"byteOffset":0,"componentType":5126,"count":448,"type":"VEC2"}],"asset":{"generator":"FBX2glTF v0.13.1","version":"2.0"},"bufferViews":[{"buffer":0,"byteLength":1512,"byteOffset":0,"target":34963},{"buffer":0,"byteLength":5376,"byteOffset":1512,"target":34962},{"buffer":0,"byteLength":5376,"byteOffset":6888,"target":34962},{"buffer":0,"byteLength":3584,"byteOffset":12264,"target":34962}],"buffers":[{"byteLength":15848,"uri":"SM_Frame_01_D.bin"}],"images":[{"name":"MainTexture_City_4","uri":"MainTexture_City_4.png"}],"materials":[{"alphaMode":"OPAQUE","doubleSided":false,"extras":{"fromFBX":{"isTruePBR":false,"shadingModel":"Phong"}},"name":"Material","pbrMetallicRoughness":{"baseColorFactor":[1,1,1,1],"baseColorTexture":{"index":0,"texCoord":0},"metallicFactor":0.400000005960464,"roughnessFactor":0.140028014779091}}],"meshes":[{"name":"Frame_01_D","primitives":[{"attributes":{"NORMAL":2,"POSITION":1,"TEXCOORD_0":3},"indices":0,"material":0,"mode":4}]}],"nodes":[{"mesh":0,"name":"Frame_01_D","rotation":[0,0,0,1],"scale":[1,1,1],"translation":[-24.1707763671875,0.490278542041779,-56.8855361938477]}],"samplers":[{}],"scene":0,"scenes":[{"name":"Root Scene","nodes":[0]}],"textures":[{"name":"base_color_texture","sampler":0,"source":0}]}