{"accessors":[{"bufferView":0,"byteOffset":0,"componentType":5123,"count":1050,"type":"SCALAR"},{"bufferView":1,"byteOffset":0,"componentType":5126,"count":694,"max":[0.0897682532668114,0.0276077017188072,0.0279719773679972],"min":[-0.08976822346449,-0.04603680968285,-0.15870359539986],"type":"VEC3"},{"bufferView":2,"byteOffset":0,"componentType":5126,"count":694,"type":"VEC3"},{"bufferView":3,"byteOffset":0,"componentType":5126,"count":694,"type":"VEC2"},{"bufferView":4,"byteOffset":0,"componentType":5123,"count":216,"type":"SCALAR"},{"bufferView":5,"byteOffset":0,"componentType":5126,"count":144,"max":[0.0805993899703026,0.0232444107532501,0.0260159708559513],"min":[-0.0805993527174,-0.04167347028852,0.0240599531680346],"type":"VEC3"},{"bufferView":6,"byteOffset":0,"componentType":5126,"count":144,"type":"VEC3"},{"bufferView":7,"byteOffset":0,"componentType":5126,"count":144,"type":"VEC2"}],"asset":{"generator":"FBX2glTF v0.13.1","version":"2.0"},"bufferViews":[{"buffer":0,"byteLength":2100,"byteOffset":0,"target":34963},{"buffer":0,"byteLength":8328,"byteOffset":2100,"target":34962},{"buffer":0,"byteLength":8328,"byteOffset":10428,"target":34962},{"buffer":0,"byteLength":5552,"byteOffset":18756,"target":34962},{"buffer":0,"byteLength":432,"byteOffset":24308,"target":34963},{"buffer":0,"byteLength":1728,"byteOffset":24740,"target":34962},{"buffer":0,"byteLength":1728,"byteOffset":26468,"target":34962},{"buffer":0,"byteLength":1152,"byteOffset":28196,"target":34962}],"buffers":[{"byteLength":29348,"uri":"SM_Glasses_01_A.bin"}],"images":[{"name":"MainTexture_City_4","uri":"MainTexture_City_4.png"}],"materials":[{"alphaMode":"OPAQUE","doubleSided":false,"extras":{"fromFBX":{"isTruePBR":false,"shadingModel":"Phong"}},"name":"Material","pbrMetallicRoughness":{"baseColorFactor":[1,1,1,1],"baseColorTexture":{"index":0,"texCoord":0},"metallicFactor":0.400000005960464,"roughnessFactor":0.140028014779091}},{"alphaMode":"OPAQUE","doubleSided":false,"extras":{"fromFBX":{"isTruePBR":false,"shadingModel":"Phong"}},"name":"Glass","pbrMetallicRoughness":{"baseColorFactor":[0.364632904529572,0.488288849592209,0.800000071525574,1],"metallicFactor":0.400000005960464,"roughnessFactor":1}}],"meshes":[{"name":"Glasses_01_A","primitives":[{"attributes":{"NORMAL":2,"POSITION":1,"TEXCOORD_0":3},"indices":0,"material":0,"mode":4},{"attributes":{"NORMAL":6,"POSITION":5,"TEXCOORD_0":7},"indices":4,"material":1,"mode":4}]}],"nodes":[{"mesh":0,"name":"Glasses_01_A","rotation":[0,0,0,1],"scale":[1,1,1],"translation":[194.540832519531,0.694184005260468,-294.347412109375]}],"samplers":[{}],"scene":0,"scenes":[{"name":"Root Scene","nodes":[0]}],"textures":[{"name":"base_color_texture","sampler":0,"source":0}]}