{"accessors":[{"bufferView":0,"byteOffset":0,"componentType":5123,"count":3804,"type":"SCALAR"},{"bufferView":1,"byteOffset":0,"componentType":5126,"count":2488,"max":[0.439119607210159,3.73426961898804,0.127113625407219],"min":[-0.43913036584854,-0.00000017454194,-0.11450915783644],"type":"VEC3"},{"bufferView":2,"byteOffset":0,"componentType":5126,"count":2488,"type":"VEC3"},{"bufferView":3,"byteOffset":0,"componentType":5126,"count":2488,"type":"VEC2"}],"asset":{"generator":"FBX2glTF v0.13.1","version":"2.0"},"bufferViews":[{"buffer":0,"byteLength":7608,"byteOffset":0,"target":34963},{"buffer":0,"byteLength":29856,"byteOffset":7608,"target":34962},{"buffer":0,"byteLength":29856,"byteOffset":37464,"target":34962},{"buffer":0,"byteLength":19904,"byteOffset":67320,"target":34962}],"buffers":[{"byteLength":87224,"uri":"SM_GroundLight_05_A.bin"}],"images":[{"name":"MainTexture_City_4","uri":"MainTexture_City_4.png"}],"materials":[{"alphaMode":"OPAQUE","doubleSided":false,"extras":{"fromFBX":{"isTruePBR":false,"shadingModel":"Phong"}},"name":"Material.284","pbrMetallicRoughness":{"baseColorFactor":[1,1,1,1],"baseColorTexture":{"index":0,"texCoord":0},"metallicFactor":0.400000005960464,"roughnessFactor":0.140028014779091}}],"meshes":[{"name":"GroundLight_05_A","primitives":[{"attributes":{"NORMAL":2,"POSITION":1,"TEXCOORD_0":3},"indices":0,"material":0,"mode":4}]}],"nodes":[{"mesh":0,"name":"GroundLight_05_A","rotation":[0,0,0,1],"scale":[1,1,1],"translation":[116.250701904297,0,-294.368591308594]}],"samplers":[{}],"scene":0,"scenes":[{"name":"Root Scene","nodes":[0]}],"textures":[{"name":"base_color_texture","sampler":0,"source":0}]}