{"accessors":[{"bufferView":0,"byteOffset":0,"componentType":5123,"count":156,"type":"SCALAR"},{"bufferView":1,"byteOffset":0,"componentType":5126,"count":88,"max":[1,1.15092551708221,1.04558610916138],"min":[-1,-1.15092551708221,-1],"type":"VEC3"},{"bufferView":2,"byteOffset":0,"componentType":5126,"count":88,"type":"VEC3"},{"bufferView":3,"byteOffset":0,"componentType":5126,"count":88,"type":"VEC2"}],"asset":{"generator":"FBX2glTF v0.13.1","version":"2.0"},"bufferViews":[{"buffer":0,"byteLength":312,"byteOffset":0,"target":34963},{"buffer":0,"byteLength":1056,"byteOffset":312,"target":34962},{"buffer":0,"byteLength":1056,"byteOffset":1368,"target":34962},{"buffer":0,"byteLength":704,"byteOffset":2424,"target":34962}],"buffers":[{"byteLength":3128,"uri":"SM_GasStationRoof_01_E.bin"}],"images":[{"name":"MainTexture_City_4","uri":"MainTexture_City_4.png"}],"materials":[{"alphaMode":"OPAQUE","doubleSided":false,"extras":{"fromFBX":{"isTruePBR":false,"shadingModel":"Phong"}},"name":"Material","pbrMetallicRoughness":{"baseColorFactor":[1,1,1,1],"baseColorTexture":{"index":0,"texCoord":0},"metallicFactor":0.400000005960464,"roughnessFactor":0.140028014779091}}],"meshes":[{"name":"GasStationRoof_01_E","primitives":[{"attributes":{"NORMAL":2,"POSITION":1,"TEXCOORD_0":3},"indices":0,"material":0,"mode":4}]}],"nodes":[{"mesh":0,"name":"GasStationRoof_01_E","rotation":[1,0,0,-0.0000000754979],"scale":[1,0.5,1],"translation":[152.141128540039,0.500000417232513,-296.368591308594]}],"samplers":[{}],"scene":0,"scenes":[{"name":"Root Scene","nodes":[0]}],"textures":[{"name":"base_color_texture","sampler":0,"source":0}]}