{"accessors":[{"bufferView":0,"byteOffset":0,"componentType":5123,"count":24978,"type":"SCALAR"},{"bufferView":1,"byteOffset":0,"componentType":5126,"count":16159,"max":[0.476253807544708,1.89728832244873,0.409365713596344],"min":[-0.47623506188393,-0.00000005960464,-0.40930467844009],"type":"VEC3"},{"bufferView":2,"byteOffset":0,"componentType":5126,"count":16159,"type":"VEC3"},{"bufferView":3,"byteOffset":0,"componentType":5126,"count":16159,"type":"VEC2"}],"asset":{"generator":"FBX2glTF v0.13.1","version":"2.0"},"bufferViews":[{"buffer":0,"byteLength":49956,"byteOffset":0,"target":34963},{"buffer":0,"byteLength":193908,"byteOffset":49956,"target":34962},{"buffer":0,"byteLength":193908,"byteOffset":243864,"target":34962},{"buffer":0,"byteLength":129272,"byteOffset":437772,"target":34962}],"buffers":[{"byteLength":567044,"uri":"SM_GasStation_01_B.bin"}],"images":[{"name":"MainTexture_City_4","uri":"MainTexture_City_4.png"}],"materials":[{"alphaMode":"OPAQUE","doubleSided":false,"extras":{"fromFBX":{"isTruePBR":false,"shadingModel":"Phong"}},"name":"Material.233","pbrMetallicRoughness":{"baseColorFactor":[1,1,1,1],"baseColorTexture":{"index":0,"texCoord":0},"metallicFactor":0.400000005960464,"roughnessFactor":0.140028014779091}}],"meshes":[{"name":"GasStation_01_B","primitives":[{"attributes":{"NORMAL":2,"POSITION":1,"TEXCOORD_0":3},"indices":0,"material":0,"mode":4}]}],"nodes":[{"mesh":0,"name":"GasStation_01_B","rotation":[0,0,0,1],"scale":[1,1,1],"translation":[147.628479003906,0.00245821475982666,-295.395172119141]}],"samplers":[{}],"scene":0,"scenes":[{"name":"Root Scene","nodes":[0]}],"textures":[{"name":"base_color_texture","sampler":0,"source":0}]}