{"accessors":[{"bufferView":0,"byteOffset":0,"componentType":5123,"count":822,"type":"SCALAR"},{"bufferView":1,"byteOffset":0,"componentType":5126,"count":403,"max":[0.0873096734285355,0.0375020764768124,0.0199421904981136],"min":[-0.08730967342854,-0.05210722237825,-0.13864584267139],"type":"VEC3"},{"bufferView":2,"byteOffset":0,"componentType":5126,"count":403,"type":"VEC3"},{"bufferView":3,"byteOffset":0,"componentType":5126,"count":403,"type":"VEC2"},{"bufferView":4,"byteOffset":0,"componentType":5123,"count":48,"type":"SCALAR"},{"bufferView":5,"byteOffset":0,"componentType":5126,"count":24,"max":[0.0783716291189194,0.0194431189447641,0.0171403847634792],"min":[-0.07837162911892,-0.04530011117458,0.00785943120718002],"type":"VEC3"},{"bufferView":6,"byteOffset":0,"componentType":5126,"count":24,"type":"VEC3"},{"bufferView":7,"byteOffset":0,"componentType":5126,"count":24,"type":"VEC2"}],"asset":{"generator":"FBX2glTF v0.13.1","version":"2.0"},"bufferViews":[{"buffer":0,"byteLength":1644,"byteOffset":0,"target":34963},{"buffer":0,"byteLength":4836,"byteOffset":1644,"target":34962},{"buffer":0,"byteLength":4836,"byteOffset":6480,"target":34962},{"buffer":0,"byteLength":3224,"byteOffset":11316,"target":34962},{"buffer":0,"byteLength":96,"byteOffset":14540,"target":34963},{"buffer":0,"byteLength":288,"byteOffset":14636,"target":34962},{"buffer":0,"byteLength":288,"byteOffset":14924,"target":34962},{"buffer":0,"byteLength":192,"byteOffset":15212,"target":34962}],"buffers":[{"byteLength":15404,"uri":"SM_Glasses_01_C.bin"}],"images":[{"name":"MainTexture_City_4","uri":"MainTexture_City_4.png"}],"materials":[{"alphaMode":"OPAQUE","doubleSided":false,"extras":{"fromFBX":{"isTruePBR":false,"shadingModel":"Phong"}},"name":"Glass","pbrMetallicRoughness":{"baseColorFactor":[0.364632904529572,0.488288849592209,0.800000071525574,1],"metallicFactor":0.400000005960464,"roughnessFactor":1}},{"alphaMode":"OPAQUE","doubleSided":false,"extras":{"fromFBX":{"isTruePBR":false,"shadingModel":"Phong"}},"name":"Material","pbrMetallicRoughness":{"baseColorFactor":[1,1,1,1],"baseColorTexture":{"index":0,"texCoord":0},"metallicFactor":0.400000005960464,"roughnessFactor":0.140028014779091}}],"meshes":[{"name":"Glasses_01_C","primitives":[{"attributes":{"NORMAL":2,"POSITION":1,"TEXCOORD_0":3},"indices":0,"material":1,"mode":4},{"attributes":{"NORMAL":6,"POSITION":5,"TEXCOORD_0":7},"indices":4,"material":0,"mode":4}]}],"nodes":[{"mesh":0,"name":"Glasses_01_C","rotation":[0,0,0,1],"scale":[1,1,1],"translation":[194.54280090332,0.249452754855156,-294.342346191406]}],"samplers":[{}],"scene":0,"scenes":[{"name":"Root Scene","nodes":[0]}],"textures":[{"name":"base_color_texture","sampler":0,"source":0}]}