{"accessors":[{"bufferView":0,"byteOffset":0,"componentType":5123,"count":2136,"type":"SCALAR"},{"bufferView":1,"byteOffset":0,"componentType":5126,"count":898,"max":[0.205623179674149,1.86028623580933,0.232930541038513],"min":[-0.20562317967415,0.0000000299961833150064,-0.23288170993328],"type":"VEC3"},{"bufferView":2,"byteOffset":0,"componentType":5126,"count":898,"type":"VEC3"},{"bufferView":3,"byteOffset":0,"componentType":5126,"count":898,"type":"VEC2"}],"asset":{"generator":"FBX2glTF v0.13.1","version":"2.0"},"bufferViews":[{"buffer":0,"byteLength":4272,"byteOffset":0,"target":34963},{"buffer":0,"byteLength":10776,"byteOffset":4272,"target":34962},{"buffer":0,"byteLength":10776,"byteOffset":15048,"target":34962},{"buffer":0,"byteLength":7184,"byteOffset":25824,"target":34962}],"buffers":[{"byteLength":33008,"uri":"SM_GlassesRack_01_A.bin"}],"images":[{"name":"MainTexture_City_4","uri":"MainTexture_City_4.png"}],"materials":[{"alphaMode":"OPAQUE","doubleSided":false,"extras":{"fromFBX":{"isTruePBR":false,"shadingModel":"Phong"}},"name":"Material","pbrMetallicRoughness":{"baseColorFactor":[1,1,1,1],"baseColorTexture":{"index":0,"texCoord":0},"metallicFactor":0.400000005960464,"roughnessFactor":0.140028014779091}}],"meshes":[{"name":"GlassesRack_01_A","primitives":[{"attributes":{"NORMAL":2,"POSITION":1,"TEXCOORD_0":3},"indices":0,"material":0,"mode":4}]}],"nodes":[{"mesh":0,"name":"GlassesRack_01_A","rotation":[0,0,0,1],"scale":[1,1,1],"translation":[194.54655456543,-0.00002527236938,-294.368621826172]}],"samplers":[{}],"scene":0,"scenes":[{"name":"Root Scene","nodes":[0]}],"textures":[{"name":"base_color_texture","sampler":0,"source":0}]}