{"accessors":[{"bufferView":0,"byteOffset":0,"componentType":5123,"count":582,"type":"SCALAR"},{"bufferView":1,"byteOffset":0,"componentType":5126,"count":376,"max":[0.777033090591431,0.199999988079071,0.63291472196579],"min":[-0.85592651367188,0.0000000119209282445354,-0.63300395011902],"type":"VEC3"},{"bufferView":2,"byteOffset":0,"componentType":5126,"count":376,"type":"VEC3"},{"bufferView":3,"byteOffset":0,"componentType":5126,"count":376,"type":"VEC2"}],"asset":{"generator":"FBX2glTF v0.13.1","version":"2.0"},"bufferViews":[{"buffer":0,"byteLength":1164,"byteOffset":0,"target":34963},{"buffer":0,"byteLength":4512,"byteOffset":1164,"target":34962},{"buffer":0,"byteLength":4512,"byteOffset":5676,"target":34962},{"buffer":0,"byteLength":3008,"byteOffset":10188,"target":34962}],"buffers":[{"byteLength":13196,"uri":"SM_GasStationSidewalk_01_B.bin"}],"images":[{"name":"MainTexture_City_4","uri":"MainTexture_City_4.png"}],"materials":[{"alphaMode":"OPAQUE","doubleSided":false,"extras":{"fromFBX":{"isTruePBR":false,"shadingModel":"Phong"}},"name":"Material.298","pbrMetallicRoughness":{"baseColorFactor":[1,1,1,1],"baseColorTexture":{"index":0,"texCoord":0},"metallicFactor":0.400000005960464,"roughnessFactor":0.140028014779091}}],"meshes":[{"name":"GasStationSidewalk_01_B","primitives":[{"attributes":{"NORMAL":2,"POSITION":1,"TEXCOORD_0":3},"indices":0,"material":0,"mode":4}]}],"nodes":[{"mesh":0,"name":"GasStationSidewalk_01_B","rotation":[0,0,0,1],"scale":[1,1,1],"translation":[159.444610595703,-0.10000007599592,-294.285766601562]}],"samplers":[{}],"scene":0,"scenes":[{"name":"Root Scene","nodes":[0]}],"textures":[{"name":"base_color_texture","sampler":0,"source":0}]}