{"accessors":[{"bufferView":0,"byteOffset":0,"componentType":5123,"count":672,"type":"SCALAR"},{"bufferView":1,"byteOffset":0,"componentType":5126,"count":393,"max":[0.0499999970197678,0.699999988079071,0.0499999970197678],"min":[-0.04999999701977,0,-0.04999999701977],"type":"VEC3"},{"bufferView":2,"byteOffset":0,"componentType":5126,"count":393,"type":"VEC3"},{"bufferView":3,"byteOffset":0,"componentType":5126,"count":393,"type":"VEC2"}],"asset":{"generator":"FBX2glTF v0.13.1","version":"2.0"},"bufferViews":[{"buffer":0,"byteLength":1344,"byteOffset":0,"target":34963},{"buffer":0,"byteLength":4716,"byteOffset":1344,"target":34962},{"buffer":0,"byteLength":4716,"byteOffset":6060,"target":34962},{"buffer":0,"byteLength":3144,"byteOffset":10776,"target":34962}],"buffers":[{"byteLength":13920,"uri":"SM_GroundLight_01_A.bin"}],"images":[{"name":"MainTexture_City_4","uri":"MainTexture_City_4.png"}],"materials":[{"alphaMode":"OPAQUE","doubleSided":false,"extras":{"fromFBX":{"isTruePBR":false,"shadingModel":"Phong"}},"name":"Material","pbrMetallicRoughness":{"baseColorFactor":[1,1,1,1],"baseColorTexture":{"index":0,"texCoord":0},"metallicFactor":0.400000005960464,"roughnessFactor":0.140028014779091}}],"meshes":[{"name":"GroundLight_01_A","primitives":[{"attributes":{"NORMAL":2,"POSITION":1,"TEXCOORD_0":3},"indices":0,"material":0,"mode":4}]}],"nodes":[{"mesh":0,"name":"GroundLight_01_A","rotation":[0,0,0,1],"scale":[1,1,1],"translation":[113.033073425293,0,-294.368591308594]}],"samplers":[{}],"scene":0,"scenes":[{"name":"Root Scene","nodes":[0]}],"textures":[{"name":"base_color_texture","sampler":0,"source":0}]}