{"accessors":[{"bufferView":0,"byteOffset":0,"componentType":5123,"count":288,"type":"SCALAR"},{"bufferView":1,"byteOffset":0,"componentType":5126,"count":160,"max":[0.999969482421875,0.199999988079071,0.632958173751831],"min":[-1.00003051757812,0.0000000119209282445354,-0.63295817375183],"type":"VEC3"},{"bufferView":2,"byteOffset":0,"componentType":5126,"count":160,"type":"VEC3"},{"bufferView":3,"byteOffset":0,"componentType":5126,"count":160,"type":"VEC2"}],"asset":{"generator":"FBX2glTF v0.13.1","version":"2.0"},"bufferViews":[{"buffer":0,"byteLength":576,"byteOffset":0,"target":34963},{"buffer":0,"byteLength":1920,"byteOffset":576,"target":34962},{"buffer":0,"byteLength":1920,"byteOffset":2496,"target":34962},{"buffer":0,"byteLength":1280,"byteOffset":4416,"target":34962}],"buffers":[{"byteLength":5696,"uri":"SM_GasStationSidewalk_01_A.bin"}],"images":[{"name":"MainTexture_City_4","uri":"MainTexture_City_4.png"}],"materials":[{"alphaMode":"OPAQUE","doubleSided":false,"extras":{"fromFBX":{"isTruePBR":false,"shadingModel":"Phong"}},"name":"Material.297","pbrMetallicRoughness":{"baseColorFactor":[1,1,1,1],"baseColorTexture":{"index":0,"texCoord":0},"metallicFactor":0.400000005960464,"roughnessFactor":0.140028014779091}}],"meshes":[{"name":"GasStationSidewalk_01_A","primitives":[{"attributes":{"NORMAL":2,"POSITION":1,"TEXCOORD_0":3},"indices":0,"material":0,"mode":4}]}],"nodes":[{"mesh":0,"name":"GasStationSidewalk_01_A","rotation":[0,0,0,1],"scale":[1,1,1],"translation":[157.46923828125,-0.10000007599592,-294.251281738281]}],"samplers":[{}],"scene":0,"scenes":[{"name":"Root Scene","nodes":[0]}],"textures":[{"name":"base_color_texture","sampler":0,"source":0}]}