{"accessors":[{"bufferView":0,"byteOffset":0,"componentType":5123,"count":822,"type":"SCALAR"},{"bufferView":1,"byteOffset":0,"componentType":5126,"count":420,"max":[0.0873096063733101,0.0216146316379309,0.0270311441272497],"min":[-0.08730973303318,-0.03020071052015,-0.13155688345432],"type":"VEC3"},{"bufferView":2,"byteOffset":0,"componentType":5126,"count":420,"type":"VEC3"},{"bufferView":3,"byteOffset":0,"componentType":5126,"count":420,"type":"VEC2"},{"bufferView":4,"byteOffset":0,"componentType":5123,"count":48,"type":"SCALAR"},{"bufferView":5,"byteOffset":0,"componentType":5126,"count":24,"max":[0.0783722400665283,0.0156759805977345,0.024229334667325],"min":[-0.07837103307247,-0.02339358255267,0.014948382973671],"type":"VEC3"},{"bufferView":6,"byteOffset":0,"componentType":5126,"count":24,"type":"VEC3"},{"bufferView":7,"byteOffset":0,"componentType":5126,"count":24,"type":"VEC2"}],"asset":{"generator":"FBX2glTF v0.13.1","version":"2.0"},"bufferViews":[{"buffer":0,"byteLength":1644,"byteOffset":0,"target":34963},{"buffer":0,"byteLength":5040,"byteOffset":1644,"target":34962},{"buffer":0,"byteLength":5040,"byteOffset":6684,"target":34962},{"buffer":0,"byteLength":3360,"byteOffset":11724,"target":34962},{"buffer":0,"byteLength":96,"byteOffset":15084,"target":34963},{"buffer":0,"byteLength":288,"byteOffset":15180,"target":34962},{"buffer":0,"byteLength":288,"byteOffset":15468,"target":34962},{"buffer":0,"byteLength":192,"byteOffset":15756,"target":34962}],"buffers":[{"byteLength":15948,"uri":"SM_Glasses_01_B.bin"}],"images":[{"name":"MainTexture_City_4","uri":"MainTexture_City_4.png"}],"materials":[{"alphaMode":"OPAQUE","doubleSided":false,"extras":{"fromFBX":{"isTruePBR":false,"shadingModel":"Phong"}},"name":"Glass","pbrMetallicRoughness":{"baseColorFactor":[0.364632904529572,0.488288849592209,0.800000071525574,1],"metallicFactor":0.400000005960464,"roughnessFactor":1}},{"alphaMode":"OPAQUE","doubleSided":false,"extras":{"fromFBX":{"isTruePBR":false,"shadingModel":"Phong"}},"name":"Material","pbrMetallicRoughness":{"baseColorFactor":[1,1,1,1],"baseColorTexture":{"index":0,"texCoord":0},"metallicFactor":0.400000005960464,"roughnessFactor":0.140028014779091}}],"meshes":[{"name":"Glasses_01_B","primitives":[{"attributes":{"NORMAL":2,"POSITION":1,"TEXCOORD_0":3},"indices":0,"material":1,"mode":4},{"attributes":{"NORMAL":6,"POSITION":5,"TEXCOORD_0":7},"indices":4,"material":0,"mode":4}]}],"nodes":[{"mesh":0,"name":"Glasses_01_B","rotation":[0,0,0,1],"scale":[1,1,1],"translation":[194.548858642578,0.480117797851562,-294.349426269531]}],"samplers":[{}],"scene":0,"scenes":[{"name":"Root Scene","nodes":[0]}],"textures":[{"name":"base_color_texture","sampler":0,"source":0}]}