{"accessors":[{"bufferView":0,"byteOffset":0,"componentType":5123,"count":5940,"type":"SCALAR"},{"bufferView":1,"byteOffset":0,"componentType":5126,"count":3856,"max":[0.417266964912415,3.19077110290527,0.146402359008789],"min":[-0.41724929213524,0.000000174541938235961,-0.14643043279648],"type":"VEC3"},{"bufferView":2,"byteOffset":0,"componentType":5126,"count":3856,"type":"VEC3"},{"bufferView":3,"byteOffset":0,"componentType":5126,"count":3856,"type":"VEC2"}],"asset":{"generator":"FBX2glTF v0.13.1","version":"2.0"},"bufferViews":[{"buffer":0,"byteLength":11880,"byteOffset":0,"target":34963},{"buffer":0,"byteLength":46272,"byteOffset":11880,"target":34962},{"buffer":0,"byteLength":46272,"byteOffset":58152,"target":34962},{"buffer":0,"byteLength":30848,"byteOffset":104424,"target":34962}],"buffers":[{"byteLength":135272,"uri":"SM_GroundLight_04_A.bin"}],"images":[{"name":"MainTexture_City_4","uri":"MainTexture_City_4.png"}],"materials":[{"alphaMode":"OPAQUE","doubleSided":false,"extras":{"fromFBX":{"isTruePBR":false,"shadingModel":"Phong"}},"name":"Material.283","pbrMetallicRoughness":{"baseColorFactor":[1,1,1,1],"baseColorTexture":{"index":0,"texCoord":0},"metallicFactor":0.400000005960464,"roughnessFactor":0.140028014779091}}],"meshes":[{"name":"GroundLight_04_A","primitives":[{"attributes":{"NORMAL":2,"POSITION":1,"TEXCOORD_0":3},"indices":0,"material":0,"mode":4}]}],"nodes":[{"mesh":0,"name":"GroundLight_04_A","rotation":[0,0,0,1],"scale":[1,1,1],"translation":[115.310241699219,-0.00000023841858,-294.368560791016]}],"samplers":[{}],"scene":0,"scenes":[{"name":"Root Scene","nodes":[0]}],"textures":[{"name":"base_color_texture","sampler":0,"source":0}]}