{"accessors":[{"bufferView":0,"byteOffset":0,"componentType":5123,"count":2280,"type":"SCALAR"},{"bufferView":1,"byteOffset":0,"componentType":5126,"count":1480,"max":[1.67011427879333,0.497398167848587,0.0357133895158768],"min":[-1.67011427879333,-0.49739816784859,-0.12034989893436],"type":"VEC3"},{"bufferView":2,"byteOffset":0,"componentType":5126,"count":1480,"type":"VEC3"},{"bufferView":3,"byteOffset":0,"componentType":5126,"count":1480,"type":"VEC2"}],"asset":{"generator":"FBX2glTF v0.13.1","version":"2.0"},"bufferViews":[{"buffer":0,"byteLength":4560,"byteOffset":0,"target":34963},{"buffer":0,"byteLength":17760,"byteOffset":4560,"target":34962},{"buffer":0,"byteLength":17760,"byteOffset":22320,"target":34962},{"buffer":0,"byteLength":11840,"byteOffset":40080,"target":34962}],"buffers":[{"byteLength":51920,"uri":"SM_Heating.bin"}],"images":[{"name":"MainTexture_City_4","uri":"MainTexture_City_4.png"}],"materials":[{"alphaMode":"OPAQUE","doubleSided":false,"extras":{"fromFBX":{"isTruePBR":false,"shadingModel":"Phong"}},"name":"Material","pbrMetallicRoughness":{"baseColorFactor":[1,1,1,1],"baseColorTexture":{"index":0,"texCoord":0},"metallicFactor":0.400000005960464,"roughnessFactor":0.140028014779091}}],"meshes":[{"name":"Heating","primitives":[{"attributes":{"NORMAL":2,"POSITION":1,"TEXCOORD_0":3},"indices":0,"material":0,"mode":4}]}],"nodes":[{"mesh":0,"name":"Heating","rotation":[0,0,0,1],"scale":[1,1,1],"translation":[-139.694229125977,0,-60.0163612365723]}],"samplers":[{}],"scene":0,"scenes":[{"name":"Root Scene","nodes":[0]}],"textures":[{"name":"base_color_texture","sampler":0,"source":0}]}