{"accessors":[{"bufferView":0,"byteOffset":0,"componentType":5123,"count":1848,"type":"SCALAR"},{"bufferView":1,"byteOffset":0,"componentType":5126,"count":1214,"max":[0.249272495508194,0.311545938253403,0.127222374081612],"min":[-0.28373390436173,-0.31022176146507,-0.17457368969917],"type":"VEC3"},{"bufferView":2,"byteOffset":0,"componentType":5126,"count":1214,"type":"VEC3"},{"bufferView":3,"byteOffset":0,"componentType":5126,"count":1214,"type":"VEC2"}],"asset":{"generator":"FBX2glTF v0.13.1","version":"2.0"},"bufferViews":[{"buffer":0,"byteLength":3696,"byteOffset":0,"target":34963},{"buffer":0,"byteLength":14568,"byteOffset":3696,"target":34962},{"buffer":0,"byteLength":14568,"byteOffset":18264,"target":34962},{"buffer":0,"byteLength":9712,"byteOffset":32832,"target":34962}],"buffers":[{"byteLength":42544,"uri":"SM_Heating02.bin"}],"images":[{"name":"MainTexture_City_4","uri":"MainTexture_City_4.png"}],"materials":[{"alphaMode":"OPAQUE","doubleSided":false,"extras":{"fromFBX":{"isTruePBR":false,"shadingModel":"Phong"}},"name":"Material","pbrMetallicRoughness":{"baseColorFactor":[1,1,1,1],"baseColorTexture":{"index":0,"texCoord":0},"metallicFactor":0.400000005960464,"roughnessFactor":0.140028014779091}}],"meshes":[{"name":"Heating02","primitives":[{"attributes":{"NORMAL":2,"POSITION":1,"TEXCOORD_0":3},"indices":0,"material":0,"mode":4}]}],"nodes":[{"mesh":0,"name":"Heating02","rotation":[0,0,0,1],"scale":[1,1,1],"translation":[-114.59513092041,0.294309079647064,-60.0164909362793]}],"samplers":[{}],"scene":0,"scenes":[{"name":"Root Scene","nodes":[0]}],"textures":[{"name":"base_color_texture","sampler":0,"source":0}]}