{"accessors":[{"bufferView":0,"byteOffset":0,"componentType":5123,"count":192,"type":"SCALAR"},{"bufferView":1,"byteOffset":0,"componentType":5126,"count":150,"max":[0.0482158549129963,0.0337714031338692,0.110476918518543],"min":[-0.0481100641191,-0.0351786762476,-0.11047691851854],"type":"VEC3"},{"bufferView":2,"byteOffset":0,"componentType":5126,"count":150,"type":"VEC3"},{"bufferView":3,"byteOffset":0,"componentType":5126,"count":150,"type":"VEC2"},{"bufferView":4,"byteOffset":0,"componentType":5123,"count":288,"type":"SCALAR"},{"bufferView":5,"byteOffset":0,"componentType":5126,"count":192,"max":[0.0144100785255432,0.0199166666716337,0.119673557579517],"min":[-0.0141581222415,-0.01939919963479,-0.12385798990727],"type":"VEC3"},{"bufferView":6,"byteOffset":0,"componentType":5126,"count":192,"type":"VEC3"},{"bufferView":7,"byteOffset":0,"componentType":5126,"count":192,"type":"VEC2"}],"asset":{"generator":"FBX2glTF v0.13.1","version":"2.0"},"bufferViews":[{"buffer":0,"byteLength":384,"byteOffset":0,"target":34963},{"buffer":0,"byteLength":1800,"byteOffset":384,"target":34962},{"buffer":0,"byteLength":1800,"byteOffset":2184,"target":34962},{"buffer":0,"byteLength":1200,"byteOffset":3984,"target":34962},{"buffer":0,"byteLength":576,"byteOffset":5184,"target":34963},{"buffer":0,"byteLength":2304,"byteOffset":5760,"target":34962},{"buffer":0,"byteLength":2304,"byteOffset":8064,"target":34962},{"buffer":0,"byteLength":1536,"byteOffset":10368,"target":34962}],"buffers":[{"byteLength":11904,"uri":"SM_HotDogBun_01_A.bin"}],"images":[{"name":"MainTexture_City_4","uri":"MainTexture_City_4.png"}],"materials":[{"alphaMode":"OPAQUE","doubleSided":false,"extras":{"fromFBX":{"isTruePBR":false,"shadingModel":"Phong"}},"name":"Material","pbrMetallicRoughness":{"baseColorFactor":[1,1,1,1],"baseColorTexture":{"index":0,"texCoord":0},"metallicFactor":0.400000005960464,"roughnessFactor":0.140028014779091}}],"meshes":[{"name":"HotDogBun_01_A","primitives":[{"attributes":{"NORMAL":2,"POSITION":1,"TEXCOORD_0":3},"indices":0,"material":0,"mode":4}]},{"name":"Sausage_01_A","primitives":[{"attributes":{"NORMAL":6,"POSITION":5,"TEXCOORD_0":7},"indices":4,"material":0,"mode":4}]}],"nodes":[{"children":[1],"mesh":0,"name":"HotDogBun_01_A","rotation":[0,0,0,1],"scale":[1,1,1],"translation":[195.315460205078,0.0790761858224869,-294.447326660156]},{"mesh":1,"name":"Sausage_01_A","rotation":[0,0,0,1],"scale":[1,1,1],"translation":[-0.00007812499825,0.020134100690484,0]}],"samplers":[{}],"scene":0,"scenes":[{"name":"Root Scene","nodes":[0]}],"textures":[{"name":"base_color_texture","sampler":0,"source":0}]}