{"accessors":[{"bufferView":0,"byteOffset":0,"componentType":5123,"count":1368,"type":"SCALAR"},{"bufferView":1,"byteOffset":0,"componentType":5126,"count":880,"max":[0.0500983223319054,0.019640002399683,0.0370663851499557],"min":[-0.05029551684856,-0.01974476315081,-0.05983381718397],"type":"VEC3"},{"bufferView":2,"byteOffset":0,"componentType":5126,"count":880,"type":"VEC3"},{"bufferView":3,"byteOffset":0,"componentType":5126,"count":880,"type":"VEC2"}],"asset":{"generator":"FBX2glTF v0.13.1","version":"2.0"},"bufferViews":[{"buffer":0,"byteLength":2736,"byteOffset":0,"target":34963},{"buffer":0,"byteLength":10560,"byteOffset":2736,"target":34962},{"buffer":0,"byteLength":10560,"byteOffset":13296,"target":34962},{"buffer":0,"byteLength":7040,"byteOffset":23856,"target":34962}],"buffers":[{"byteLength":30896,"uri":"SM_Headphones_01_A.bin"}],"images":[{"name":"MainTexture_City_4","uri":"MainTexture_City_4.png"}],"materials":[{"alphaMode":"OPAQUE","doubleSided":false,"extras":{"fromFBX":{"isTruePBR":false,"shadingModel":"Phong"}},"name":"Material","pbrMetallicRoughness":{"baseColorFactor":[1,1,1,1],"baseColorTexture":{"index":0,"texCoord":0},"metallicFactor":0.400000005960464,"roughnessFactor":0.140028014779091}}],"meshes":[{"name":"Headphones_01_A","primitives":[{"attributes":{"NORMAL":2,"POSITION":1,"TEXCOORD_0":3},"indices":0,"material":0,"mode":4}]}],"nodes":[{"mesh":0,"name":"Headphones_01_A","rotation":[0,0,0,1],"scale":[1,1,1],"translation":[-8.90265083312988,0.628342807292938,-56.1608734130859]}],"samplers":[{}],"scene":0,"scenes":[{"name":"Root Scene","nodes":[0]}],"textures":[{"name":"base_color_texture","sampler":0,"source":0}]}