{"accessors":[{"bufferView":0,"byteOffset":0,"componentType":5123,"count":2700,"type":"SCALAR"},{"bufferView":1,"byteOffset":0,"componentType":5126,"count":1612,"max":[0.0459515452384949,0.0989832654595375,0.0192844830453396],"min":[-0.19150361418724,-0.05152888968587,-0.01928448304534],"type":"VEC3"},{"bufferView":2,"byteOffset":0,"componentType":5126,"count":1612,"type":"VEC3"},{"bufferView":3,"byteOffset":0,"componentType":5126,"count":1612,"type":"VEC2"}],"asset":{"generator":"FBX2glTF v0.13.1","version":"2.0"},"bufferViews":[{"buffer":0,"byteLength":5400,"byteOffset":0,"target":34963},{"buffer":0,"byteLength":19344,"byteOffset":5400,"target":34962},{"buffer":0,"byteLength":19344,"byteOffset":24744,"target":34962},{"buffer":0,"byteLength":12896,"byteOffset":44088,"target":34962}],"buffers":[{"byteLength":56984,"uri":"SM_Hammer.bin"}],"images":[{"name":"MainTexture_City_4","uri":"MainTexture_City_4.png"}],"materials":[{"alphaMode":"OPAQUE","doubleSided":false,"extras":{"fromFBX":{"isTruePBR":false,"shadingModel":"Phong"}},"name":"Material","pbrMetallicRoughness":{"baseColorFactor":[1,1,1,1],"baseColorTexture":{"index":0,"texCoord":0},"metallicFactor":0.400000005960464,"roughnessFactor":0.140028014779091}}],"meshes":[{"name":"Hammer","primitives":[{"attributes":{"NORMAL":2,"POSITION":1,"TEXCOORD_0":3},"indices":0,"material":0,"mode":4}]}],"nodes":[{"mesh":0,"name":"Hammer","rotation":[0,0,0,1],"scale":[1,1,1],"translation":[-123.179710388184,-0.00038583576679,-60.0163612365723]}],"samplers":[{}],"scene":0,"scenes":[{"name":"Root Scene","nodes":[0]}],"textures":[{"name":"base_color_texture","sampler":0,"source":0}]}