{"accessors":[{"bufferView":0,"byteOffset":0,"componentType":5123,"count":390,"type":"SCALAR"},{"bufferView":1,"byteOffset":0,"componentType":5126,"count":340,"max":[0.0688858032226562,0.0649556741118431,0.0748863220214844],"min":[-0.06869125366211,-0.07015442848206,-0.07649993896484],"type":"VEC3"},{"bufferView":2,"byteOffset":0,"componentType":5126,"count":340,"type":"VEC3"},{"bufferView":3,"byteOffset":0,"componentType":5126,"count":340,"type":"VEC2"}],"asset":{"generator":"FBX2glTF v0.13.1","version":"2.0"},"bufferViews":[{"buffer":0,"byteLength":780,"byteOffset":0,"target":34963},{"buffer":0,"byteLength":4080,"byteOffset":780,"target":34962},{"buffer":0,"byteLength":4080,"byteOffset":4860,"target":34962},{"buffer":0,"byteLength":2720,"byteOffset":8940,"target":34962}],"buffers":[{"byteLength":11660,"uri":"SM_IcoSphere.bin"}],"images":[{"name":"MainTexture_City_4","uri":"MainTexture_City_4.png"}],"materials":[{"alphaMode":"OPAQUE","doubleSided":false,"extras":{"fromFBX":{"isTruePBR":false,"shadingModel":"Phong"}},"name":"Material","pbrMetallicRoughness":{"baseColorFactor":[1,1,1,1],"baseColorTexture":{"index":0,"texCoord":0},"metallicFactor":0.400000005960464,"roughnessFactor":0.140028014779091}}],"meshes":[{"name":"IcoSphere","primitives":[{"attributes":{"NORMAL":2,"POSITION":1,"TEXCOORD_0":3},"indices":0,"material":0,"mode":4}]}],"nodes":[{"mesh":0,"name":"IcoSphere","rotation":[0,0,0,1],"scale":[1,1,1],"translation":[-55.8859710693359,0.0742645040154457,-60.3383331298828]}],"samplers":[{}],"scene":0,"scenes":[{"name":"Root Scene","nodes":[0]}],"textures":[{"name":"base_color_texture","sampler":0,"source":0}]}