{"accessors":[{"bufferView":0,"byteOffset":0,"componentType":5123,"count":576,"type":"SCALAR"},{"bufferView":1,"byteOffset":0,"componentType":5126,"count":330,"max":[1,1.0455310344696,0.468536376953125],"min":[-1,0,-0.53146362304688],"type":"VEC3"},{"bufferView":2,"byteOffset":0,"componentType":5126,"count":330,"type":"VEC3"},{"bufferView":3,"byteOffset":0,"componentType":5126,"count":330,"type":"VEC2"},{"bufferView":4,"byteOffset":0,"componentType":5123,"count":102,"type":"SCALAR"},{"bufferView":5,"byteOffset":0,"componentType":5126,"count":66,"max":[-0.14110827445984,0.0263672899454832,0.446979701519012],"min":[-0.17545662820339,-0.05426561832428,-0.41467276215553],"type":"VEC3"},{"bufferView":6,"byteOffset":0,"componentType":5126,"count":66,"type":"VEC3"},{"bufferView":7,"byteOffset":0,"componentType":5126,"count":66,"type":"VEC2"},{"bufferView":8,"byteOffset":0,"componentType":5123,"count":30,"type":"SCALAR"},{"bufferView":9,"byteOffset":0,"componentType":5126,"count":20,"max":[0.781069219112396,0.0237586442381144,0.446979731321335],"min":[-0.1411783695221,-0.05426563322544,-0.4146728515625],"type":"VEC3"},{"bufferView":10,"byteOffset":0,"componentType":5126,"count":20,"type":"VEC3"},{"bufferView":11,"byteOffset":0,"componentType":5126,"count":20,"type":"VEC2"}],"asset":{"generator":"FBX2glTF v0.13.1","version":"2.0"},"bufferViews":[{"buffer":0,"byteLength":1152,"byteOffset":0,"target":34963},{"buffer":0,"byteLength":3960,"byteOffset":1152,"target":34962},{"buffer":0,"byteLength":3960,"byteOffset":5112,"target":34962},{"buffer":0,"byteLength":2640,"byteOffset":9072,"target":34962},{"buffer":0,"byteLength":204,"byteOffset":11712,"target":34963},{"buffer":0,"byteLength":792,"byteOffset":11916,"target":34962},{"buffer":0,"byteLength":792,"byteOffset":12708,"target":34962},{"buffer":0,"byteLength":528,"byteOffset":13500,"target":34962},{"buffer":0,"byteLength":60,"byteOffset":14028,"target":34963},{"buffer":0,"byteLength":240,"byteOffset":14088,"target":34962},{"buffer":0,"byteLength":240,"byteOffset":14328,"target":34962},{"buffer":0,"byteLength":160,"byteOffset":14568,"target":34962}],"buffers":[{"byteLength":14728,"uri":"SM_IceCremeFridge_01_A.bin"}],"images":[{"name":"MainTexture_City_4","uri":"MainTexture_City_4.png"}],"materials":[{"alphaMode":"OPAQUE","doubleSided":false,"extras":{"fromFBX":{"isTruePBR":false,"shadingModel":"Phong"}},"name":"Material","pbrMetallicRoughness":{"baseColorFactor":[1,1,1,1],"baseColorTexture":{"index":0,"texCoord":0},"metallicFactor":0.400000005960464,"roughnessFactor":0.140028014779091}},{"alphaMode":"OPAQUE","doubleSided":false,"extras":{"fromFBX":{"isTruePBR":false,"shadingModel":"Phong"}},"name":"Glass","pbrMetallicRoughness":{"baseColorFactor":[0.364632904529572,0.488288849592209,0.800000071525574,1],"metallicFactor":0.400000005960464,"roughnessFactor":1}}],"meshes":[{"name":"IceCremeFridge_01_A","primitives":[{"attributes":{"NORMAL":2,"POSITION":1,"TEXCOORD_0":3},"indices":0,"material":0,"mode":4}]},{"name":"IceCremeFridgeDoor_01_B","primitives":[{"attributes":{"NORMAL":6,"POSITION":5,"TEXCOORD_0":7},"indices":4,"material":0,"mode":4},{"attributes":{"NORMAL":10,"POSITION":9,"TEXCOORD_0":11},"indices":8,"material":1,"mode":4}]}],"nodes":[{"children":[1,2],"mesh":0,"name":"IceCremeFridge_01_A","rotation":[0,0,0,1],"scale":[1,1,1],"translation":[167.042861938477,0.0258485078811646,-294.337127685547]},{"mesh":1,"name":"IceCremeFridgeDoor_01_B","rotation":[-0.00021382850537,-0,0,1],"scale":[1,0.999999821186066,0.999999821186066],"translation":[1.0467187166214,1.02670168876648,-0.05382812395692]},{"mesh":1,"name":"IceCremeFridgeDoor_01_A","rotation":[0.00000000357256357830238,0.998879790306091,0.0473200567066669,-0.00000007541333],"scale":[1,0.999999821186066,0.999999821186066],"translation":[-1.16957032680511,1.02360916137695,-0.02126953005791]}],"samplers":[{}],"scene":0,"scenes":[{"name":"Root Scene","nodes":[0]}],"textures":[{"name":"base_color_texture","sampler":0,"source":0}]}