{"accessors":[{"bufferView":0,"byteOffset":0,"componentType":5123,"count":558,"type":"SCALAR"},{"bufferView":1,"byteOffset":0,"componentType":5126,"count":330,"max":[0.602850735187531,0.763314783573151,0.440670609474182],"min":[-0.60284626483917,0,-0.41632461547852],"type":"VEC3"},{"bufferView":2,"byteOffset":0,"componentType":5126,"count":330,"type":"VEC3"},{"bufferView":3,"byteOffset":0,"componentType":5126,"count":330,"type":"VEC2"},{"bufferView":4,"byteOffset":0,"componentType":5123,"count":384,"type":"SCALAR"},{"bufferView":5,"byteOffset":0,"componentType":5126,"count":254,"max":[0.590812563896179,0.216792941093445,0.0664926245808601],"min":[-0.00000088249925,-0.50032466650009,-0.0036579426378],"type":"VEC3"},{"bufferView":6,"byteOffset":0,"componentType":5126,"count":254,"type":"VEC3"},{"bufferView":7,"byteOffset":0,"componentType":5126,"count":254,"type":"VEC2"},{"bufferView":8,"byteOffset":0,"componentType":5123,"count":384,"type":"SCALAR"},{"bufferView":9,"byteOffset":0,"componentType":5126,"count":240,"max":[0.0189245399087667,0.216208472847939,0.545480489730835],"min":[-0.24606800079346,-0.50090914964676,0.000000747285014313093],"type":"VEC3"},{"bufferView":10,"byteOffset":0,"componentType":5126,"count":240,"type":"VEC3"},{"bufferView":11,"byteOffset":0,"componentType":5126,"count":240,"type":"VEC2"},{"bufferView":12,"byteOffset":0,"componentType":5123,"count":900,"type":"SCALAR"},{"bufferView":13,"byteOffset":0,"componentType":5126,"count":568,"max":[0.109680019319057,0.250104367733002,0.373410612344742],"min":[-0.10633374750614,-0.01005822513253,-0.06864081323147],"type":"VEC3"},{"bufferView":14,"byteOffset":0,"componentType":5126,"count":568,"type":"VEC3"},{"bufferView":15,"byteOffset":0,"componentType":5126,"count":568,"type":"VEC2"}],"asset":{"generator":"FBX2glTF v0.13.1","version":"2.0"},"bufferViews":[{"buffer":0,"byteLength":1116,"byteOffset":0,"target":34963},{"buffer":0,"byteLength":3960,"byteOffset":1116,"target":34962},{"buffer":0,"byteLength":3960,"byteOffset":5076,"target":34962},{"buffer":0,"byteLength":2640,"byteOffset":9036,"target":34962},{"buffer":0,"byteLength":768,"byteOffset":11676,"target":34963},{"buffer":0,"byteLength":3048,"byteOffset":12444,"target":34962},{"buffer":0,"byteLength":3048,"byteOffset":15492,"target":34962},{"buffer":0,"byteLength":2032,"byteOffset":18540,"target":34962},{"buffer":0,"byteLength":768,"byteOffset":20572,"target":34963},{"buffer":0,"byteLength":2880,"byteOffset":21340,"target":34962},{"buffer":0,"byteLength":2880,"byteOffset":24220,"target":34962},{"buffer":0,"byteLength":1920,"byteOffset":27100,"target":34962},{"buffer":0,"byteLength":1800,"byteOffset":29020,"target":34963},{"buffer":0,"byteLength":6816,"byteOffset":30820,"target":34962},{"buffer":0,"byteLength":6816,"byteOffset":37636,"target":34962},{"buffer":0,"byteLength":4544,"byteOffset":44452,"target":34962}],"buffers":[{"byteLength":48996,"uri":"SM_KitchenWashTable_01_D.bin"}],"images":[{"name":"MainTexture_City_4","uri":"MainTexture_City_4.png"}],"materials":[{"alphaMode":"OPAQUE","doubleSided":false,"extras":{"fromFBX":{"isTruePBR":false,"shadingModel":"Phong"}},"name":"Material.246","pbrMetallicRoughness":{"baseColorFactor":[1,1,1,1],"baseColorTexture":{"index":0,"texCoord":0},"metallicFactor":0.400000005960464,"roughnessFactor":0.140028014779091}},{"alphaMode":"OPAQUE","doubleSided":false,"extras":{"fromFBX":{"isTruePBR":false,"shadingModel":"Lambert"}},"name":"DefaultMaterial","pbrMetallicRoughness":{"baseColorFactor":[0.5,0.5,0.5,1],"metallicFactor":0.200000002980232,"roughnessFactor":0.800000011920929}}],"meshes":[{"name":"KitchenWashTable_01_D","primitives":[{"attributes":{"NORMAL":2,"POSITION":1,"TEXCOORD_0":3},"indices":0,"material":0,"mode":4}]},{"name":"KitchenWashTableDoor_04_A","primitives":[{"attributes":{"NORMAL":6,"POSITION":5,"TEXCOORD_0":7},"indices":4,"material":0,"mode":4}]},{"name":"KitchenWashTableDoor_04_B","primitives":[{"attributes":{"NORMAL":10,"POSITION":9,"TEXCOORD_0":11},"indices":8,"material":0,"mode":4}]},{"name":"WaterTap_01_A.004","primitives":[{"attributes":{"NORMAL":14,"POSITION":13,"TEXCOORD_0":15},"indices":12,"material":1,"mode":4}]}],"nodes":[{"children":[1,2,3],"mesh":0,"name":"KitchenWashTable_01_D","rotation":[0,0,0,1],"scale":[1,1,1],"translation":[-19.9955272674561,0.0953869223594666,-66.3823013305664]},{"mesh":1,"name":"KitchenWashTableDoor_04_A","rotation":[0,0,0,1],"scale":[1,1,1],"translation":[-0.60201781988144,0.51167106628418,0.417866200208664]},{"mesh":2,"name":"KitchenWashTableDoor_04_B","rotation":[0,0,0,1],"scale":[1,1,1],"translation":[0.581971406936646,0.512255489826202,0.417866200208664]},{"mesh":3,"name":"WaterTap_01_A.004","rotation":[0,0,0,1],"scale":[1,1,1],"translation":[0.165279537439346,0.771049499511719,-0.34237793087959]}],"samplers":[{}],"scene":0,"scenes":[{"name":"Root Scene","nodes":[0]}],"textures":[{"name":"base_color_texture","sampler":0,"source":0}]}