{"accessors":[{"bufferView":0,"byteOffset":0,"componentType":5123,"count":228,"type":"SCALAR"},{"bufferView":1,"byteOffset":0,"componentType":5126,"count":140,"max":[0.422054827213287,0.763315081596375,0.442338287830353],"min":[-0.42206022143364,-0.00000002217507,-0.41465717554092],"type":"VEC3"},{"bufferView":2,"byteOffset":0,"componentType":5126,"count":140,"type":"VEC3"},{"bufferView":3,"byteOffset":0,"componentType":5126,"count":140,"type":"VEC2"},{"bufferView":4,"byteOffset":0,"componentType":5123,"count":384,"type":"SCALAR"},{"bufferView":5,"byteOffset":0,"componentType":5126,"count":245,"max":[0.268105089664459,0.216792955994606,0.327262878417969],"min":[-0.01582723669708,-0.50032466650009,-0.00000053682766],"type":"VEC3"},{"bufferView":6,"byteOffset":0,"componentType":5126,"count":245,"type":"VEC3"},{"bufferView":7,"byteOffset":0,"componentType":5126,"count":245,"type":"VEC2"},{"bufferView":8,"byteOffset":0,"componentType":5123,"count":384,"type":"SCALAR"},{"bufferView":9,"byteOffset":0,"componentType":5126,"count":252,"max":[-0.00000062983378,0.216208413243294,0.0649982243776321],"min":[-0.41280835866928,-0.50090932846069,-0.00350137730129],"type":"VEC3"},{"bufferView":10,"byteOffset":0,"componentType":5126,"count":252,"type":"VEC3"},{"bufferView":11,"byteOffset":0,"componentType":5126,"count":252,"type":"VEC2"}],"asset":{"generator":"FBX2glTF v0.13.1","version":"2.0"},"bufferViews":[{"buffer":0,"byteLength":456,"byteOffset":0,"target":34963},{"buffer":0,"byteLength":1680,"byteOffset":456,"target":34962},{"buffer":0,"byteLength":1680,"byteOffset":2136,"target":34962},{"buffer":0,"byteLength":1120,"byteOffset":3816,"target":34962},{"buffer":0,"byteLength":768,"byteOffset":4936,"target":34963},{"buffer":0,"byteLength":2940,"byteOffset":5704,"target":34962},{"buffer":0,"byteLength":2940,"byteOffset":8644,"target":34962},{"buffer":0,"byteLength":1960,"byteOffset":11584,"target":34962},{"buffer":0,"byteLength":768,"byteOffset":13544,"target":34963},{"buffer":0,"byteLength":3024,"byteOffset":14312,"target":34962},{"buffer":0,"byteLength":3024,"byteOffset":17336,"target":34962},{"buffer":0,"byteLength":2016,"byteOffset":20360,"target":34962}],"buffers":[{"byteLength":22376,"uri":"SM_KitchenTable_01_B.bin"}],"images":[{"name":"MainTexture_City_4","uri":"MainTexture_City_4.png"}],"materials":[{"alphaMode":"OPAQUE","doubleSided":false,"extras":{"fromFBX":{"isTruePBR":false,"shadingModel":"Phong"}},"name":"Material.247","pbrMetallicRoughness":{"baseColorFactor":[1,1,1,1],"baseColorTexture":{"index":0,"texCoord":0},"metallicFactor":0.400000005960464,"roughnessFactor":0.140028014779091}}],"meshes":[{"name":"KitchenTable_01_B","primitives":[{"attributes":{"NORMAL":2,"POSITION":1,"TEXCOORD_0":3},"indices":0,"material":0,"mode":4}]},{"name":"KitchenTableDoor_02_A","primitives":[{"attributes":{"NORMAL":6,"POSITION":5,"TEXCOORD_0":7},"indices":4,"material":0,"mode":4}]},{"name":"KitchenTableDoor_02_B","primitives":[{"attributes":{"NORMAL":10,"POSITION":9,"TEXCOORD_0":11},"indices":8,"material":0,"mode":4}]}],"nodes":[{"children":[1,2],"mesh":0,"name":"KitchenTable_01_B","rotation":[0,0,0,1],"scale":[1,1,1],"translation":[-21.0204238891602,0.0953863188624382,-61.6110343933105]},{"mesh":1,"name":"KitchenTableDoor_02_A","rotation":[0,0,0,1],"scale":[1,1,1],"translation":[-0.41565915942192,0.511330664157867,0.418637692928314]},{"mesh":2,"name":"KitchenTableDoor_02_B","rotation":[0,0,0,1],"scale":[1,1,1],"translation":[0.415136694908142,0.51191520690918,0.418637692928314]}],"samplers":[{}],"scene":0,"scenes":[{"name":"Root Scene","nodes":[0]}],"textures":[{"name":"base_color_texture","sampler":0,"source":0}]}