{"accessors":[{"bufferView":0,"byteOffset":0,"componentType":5123,"count":276,"type":"SCALAR"},{"bufferView":1,"byteOffset":0,"componentType":5126,"count":132,"max":[0.387672036886215,0.798827707767487,0.38525977730751],"min":[-0.38464647531509,0,-0.38705879449844],"type":"VEC3"},{"bufferView":2,"byteOffset":0,"componentType":5126,"count":132,"type":"VEC3"},{"bufferView":3,"byteOffset":0,"componentType":5126,"count":132,"type":"VEC2"}],"asset":{"generator":"FBX2glTF v0.13.1","version":"2.0"},"bufferViews":[{"buffer":0,"byteLength":552,"byteOffset":0,"target":34963},{"buffer":0,"byteLength":1584,"byteOffset":552,"target":34962},{"buffer":0,"byteLength":1584,"byteOffset":2136,"target":34962},{"buffer":0,"byteLength":1056,"byteOffset":3720,"target":34962}],"buffers":[{"byteLength":4776,"uri":"SM_Kitchen_Table_01_A.bin"}],"images":[{"name":"MainTexture_City_4","uri":"MainTexture_City_4.png"}],"materials":[{"alphaMode":"OPAQUE","doubleSided":false,"extras":{"fromFBX":{"isTruePBR":false,"shadingModel":"Phong"}},"name":"Material","pbrMetallicRoughness":{"baseColorFactor":[1,1,1,1],"baseColorTexture":{"index":0,"texCoord":0},"metallicFactor":0.400000005960464,"roughnessFactor":0.140028014779091}}],"meshes":[{"name":"Kitchen_Table_01_A","primitives":[{"attributes":{"NORMAL":2,"POSITION":1,"TEXCOORD_0":3},"indices":0,"material":0,"mode":4}]}],"nodes":[{"mesh":0,"name":"Kitchen_Table_01_A","rotation":[0,0,0,1],"scale":[1,1,1],"translation":[-21.6627807617188,0.00906187295913696,-57.9271659851074]}],"samplers":[{}],"scene":0,"scenes":[{"name":"Root Scene","nodes":[0]}],"textures":[{"name":"base_color_texture","sampler":0,"source":0}]}