{"accessors":[{"bufferView":0,"byteOffset":0,"componentType":5123,"count":180,"type":"SCALAR"},{"bufferView":1,"byteOffset":0,"componentType":5126,"count":110,"max":[0.422073274850845,0.374691843986511,0.360853791236877],"min":[-0.42204177379608,-0.36085373163223,-0.19267854094505],"type":"VEC3"},{"bufferView":2,"byteOffset":0,"componentType":5126,"count":110,"type":"VEC3"},{"bufferView":3,"byteOffset":0,"componentType":5126,"count":110,"type":"VEC2"},{"bufferView":4,"byteOffset":0,"componentType":5123,"count":384,"type":"SCALAR"},{"bufferView":5,"byteOffset":0,"componentType":5126,"count":250,"max":[0.136204794049263,0.500909388065338,0.3963902592659],"min":[-0.01965181343257,-0.2162084877491,-0.00000044142715],"type":"VEC3"},{"bufferView":6,"byteOffset":0,"componentType":5126,"count":250,"type":"VEC3"},{"bufferView":7,"byteOffset":0,"componentType":5126,"count":250,"type":"VEC2"},{"bufferView":8,"byteOffset":0,"componentType":5123,"count":384,"type":"SCALAR"},{"bufferView":9,"byteOffset":0,"componentType":5126,"count":250,"max":[0.143671974539757,0.500324845314026,0.40385177731514],"min":[0.0000000235893082844996,-0.21679295599461,-0.00428509153426],"type":"VEC3"},{"bufferView":10,"byteOffset":0,"componentType":5126,"count":250,"type":"VEC3"},{"bufferView":11,"byteOffset":0,"componentType":5126,"count":250,"type":"VEC2"}],"asset":{"generator":"FBX2glTF v0.13.1","version":"2.0"},"bufferViews":[{"buffer":0,"byteLength":360,"byteOffset":0,"target":34963},{"buffer":0,"byteLength":1320,"byteOffset":360,"target":34962},{"buffer":0,"byteLength":1320,"byteOffset":1680,"target":34962},{"buffer":0,"byteLength":880,"byteOffset":3000,"target":34962},{"buffer":0,"byteLength":768,"byteOffset":3880,"target":34963},{"buffer":0,"byteLength":3000,"byteOffset":4648,"target":34962},{"buffer":0,"byteLength":3000,"byteOffset":7648,"target":34962},{"buffer":0,"byteLength":2000,"byteOffset":10648,"target":34962},{"buffer":0,"byteLength":768,"byteOffset":12648,"target":34963},{"buffer":0,"byteLength":3000,"byteOffset":13416,"target":34962},{"buffer":0,"byteLength":3000,"byteOffset":16416,"target":34962},{"buffer":0,"byteLength":2000,"byteOffset":19416,"target":34962}],"buffers":[{"byteLength":21416,"uri":"SM_KitchenBox_01_D.bin"}],"images":[{"name":"MainTexture_City_4","uri":"MainTexture_City_4.png"}],"materials":[{"alphaMode":"OPAQUE","doubleSided":false,"extras":{"fromFBX":{"isTruePBR":false,"shadingModel":"Phong"}},"name":"Material.246","pbrMetallicRoughness":{"baseColorFactor":[1,1,1,1],"baseColorTexture":{"index":0,"texCoord":0},"metallicFactor":0.400000005960464,"roughnessFactor":0.140028014779091}}],"meshes":[{"name":"KitchenBox_01_D","primitives":[{"attributes":{"NORMAL":2,"POSITION":1,"TEXCOORD_0":3},"indices":0,"material":0,"mode":4}]},{"name":"KitchenBoxDoor_04_A","primitives":[{"attributes":{"NORMAL":6,"POSITION":5,"TEXCOORD_0":7},"indices":4,"material":0,"mode":4}]},{"name":"KitchenBoxDoor_04_B","primitives":[{"attributes":{"NORMAL":10,"POSITION":9,"TEXCOORD_0":11},"indices":8,"material":0,"mode":4}]}],"nodes":[{"children":[1,2],"mesh":0,"name":"KitchenBox_01_D","rotation":[0,0,0,1],"scale":[1,1,1],"translation":[-21.0223350524902,1.90886986255646,-66.608039855957]},{"mesh":1,"name":"KitchenBoxDoor_04_A","rotation":[0,0,0,1],"scale":[1,1,1],"translation":[-0.41316893696785,-0.14187881350517,0.367348611354828]},{"mesh":2,"name":"KitchenBoxDoor_04_B","rotation":[0,0,0,1],"scale":[1,1,1],"translation":[0.412338852882385,-0.14125488698483,0.367348611354828]}],"samplers":[{}],"scene":0,"scenes":[{"name":"Root Scene","nodes":[0]}],"textures":[{"name":"base_color_texture","sampler":0,"source":0}]}