{"accessors":[{"bufferView":0,"byteOffset":0,"componentType":5123,"count":558,"type":"SCALAR"},{"bufferView":1,"byteOffset":0,"componentType":5126,"count":328,"max":[0.602849304676056,0.763314783573151,0.440664976835251],"min":[-0.602847635746,0,-0.41633024811745],"type":"VEC3"},{"bufferView":2,"byteOffset":0,"componentType":5126,"count":328,"type":"VEC3"},{"bufferView":3,"byteOffset":0,"componentType":5126,"count":328,"type":"VEC2"},{"bufferView":4,"byteOffset":0,"componentType":5123,"count":384,"type":"SCALAR"},{"bufferView":5,"byteOffset":0,"componentType":5126,"count":254,"max":[0.590812563896179,0.216792941093445,0.0664926245808601],"min":[-0.00000088249925,-0.50032466650009,-0.0036579426378],"type":"VEC3"},{"bufferView":6,"byteOffset":0,"componentType":5126,"count":254,"type":"VEC3"},{"bufferView":7,"byteOffset":0,"componentType":5126,"count":254,"type":"VEC2"},{"bufferView":8,"byteOffset":0,"componentType":5123,"count":384,"type":"SCALAR"},{"bufferView":9,"byteOffset":0,"componentType":5126,"count":240,"max":[0.0189245399087667,0.216208472847939,0.545480489730835],"min":[-0.24606800079346,-0.50090914964676,0.000000747285014313093],"type":"VEC3"},{"bufferView":10,"byteOffset":0,"componentType":5126,"count":240,"type":"VEC3"},{"bufferView":11,"byteOffset":0,"componentType":5126,"count":240,"type":"VEC2"},{"bufferView":12,"byteOffset":0,"componentType":5123,"count":900,"type":"SCALAR"},{"bufferView":13,"byteOffset":0,"componentType":5126,"count":568,"max":[0.109680019319057,0.250104367733002,0.373410612344742],"min":[-0.10633374750614,-0.01005822513253,-0.06864081323147],"type":"VEC3"},{"bufferView":14,"byteOffset":0,"componentType":5126,"count":568,"type":"VEC3"},{"bufferView":15,"byteOffset":0,"componentType":5126,"count":568,"type":"VEC2"}],"asset":{"generator":"FBX2glTF v0.13.1","version":"2.0"},"bufferViews":[{"buffer":0,"byteLength":1116,"byteOffset":0,"target":34963},{"buffer":0,"byteLength":3936,"byteOffset":1116,"target":34962},{"buffer":0,"byteLength":3936,"byteOffset":5052,"target":34962},{"buffer":0,"byteLength":2624,"byteOffset":8988,"target":34962},{"buffer":0,"byteLength":768,"byteOffset":11612,"target":34963},{"buffer":0,"byteLength":3048,"byteOffset":12380,"target":34962},{"buffer":0,"byteLength":3048,"byteOffset":15428,"target":34962},{"buffer":0,"byteLength":2032,"byteOffset":18476,"target":34962},{"buffer":0,"byteLength":768,"byteOffset":20508,"target":34963},{"buffer":0,"byteLength":2880,"byteOffset":21276,"target":34962},{"buffer":0,"byteLength":2880,"byteOffset":24156,"target":34962},{"buffer":0,"byteLength":1920,"byteOffset":27036,"target":34962},{"buffer":0,"byteLength":1800,"byteOffset":28956,"target":34963},{"buffer":0,"byteLength":6816,"byteOffset":30756,"target":34962},{"buffer":0,"byteLength":6816,"byteOffset":37572,"target":34962},{"buffer":0,"byteLength":4544,"byteOffset":44388,"target":34962}],"buffers":[{"byteLength":48932,"uri":"SM_KitchenWashTable_01_B.bin"}],"images":[{"name":"MainTexture_City_4","uri":"MainTexture_City_4.png"}],"materials":[{"alphaMode":"OPAQUE","doubleSided":false,"extras":{"fromFBX":{"isTruePBR":false,"shadingModel":"Phong"}},"name":"Material.247","pbrMetallicRoughness":{"baseColorFactor":[1,1,1,1],"baseColorTexture":{"index":0,"texCoord":0},"metallicFactor":0.400000005960464,"roughnessFactor":0.140028014779091}},{"alphaMode":"OPAQUE","doubleSided":false,"extras":{"fromFBX":{"isTruePBR":false,"shadingModel":"Lambert"}},"name":"DefaultMaterial","pbrMetallicRoughness":{"baseColorFactor":[0.5,0.5,0.5,1],"metallicFactor":0.200000002980232,"roughnessFactor":0.800000011920929}}],"meshes":[{"name":"KitchenWashTable_01_B","primitives":[{"attributes":{"NORMAL":2,"POSITION":1,"TEXCOORD_0":3},"indices":0,"material":0,"mode":4}]},{"name":"KitchenWashTableDoor_02_B","primitives":[{"attributes":{"NORMAL":6,"POSITION":5,"TEXCOORD_0":7},"indices":4,"material":0,"mode":4}]},{"name":"KitchenWashTableDoor_01_B.001","primitives":[{"attributes":{"NORMAL":10,"POSITION":9,"TEXCOORD_0":11},"indices":8,"material":0,"mode":4}]},{"name":"WaterTap_01_A.001","primitives":[{"attributes":{"NORMAL":14,"POSITION":13,"TEXCOORD_0":15},"indices":12,"material":1,"mode":4}]}],"nodes":[{"children":[1,2,3],"mesh":0,"name":"KitchenWashTable_01_B","rotation":[0,0,0,1],"scale":[1,1,1],"translation":[-19.9955253601074,0.0953869223594666,-61.6093559265137]},{"mesh":1,"name":"KitchenWashTableDoor_02_B","rotation":[0,0,0,1],"scale":[1,1,1],"translation":[-0.602015376091,0.51167106628418,0.417851567268372]},{"mesh":2,"name":"KitchenWashTableDoor_01_B.001","rotation":[0,0,0,1],"scale":[1,1,1],"translation":[0.581972658634186,0.512255489826202,0.417851567268372]},{"mesh":3,"name":"WaterTap_01_A.001","rotation":[0,0,0,1],"scale":[1,1,1],"translation":[0.165281981229782,0.771049499511719,-0.34239745140076]}],"samplers":[{}],"scene":0,"scenes":[{"name":"Root Scene","nodes":[0]}],"textures":[{"name":"base_color_texture","sampler":0,"source":0}]}