{"accessors":[{"bufferView":0,"byteOffset":0,"componentType":5123,"count":2676,"type":"SCALAR"},{"bufferView":1,"byteOffset":0,"componentType":5126,"count":1762,"max":[0.132635325193405,0.476560443639755,0.12674905359745],"min":[-0.13603888452053,0.00000000400832300684328,-0.17017093300819],"type":"VEC3"},{"bufferView":2,"byteOffset":0,"componentType":5126,"count":1762,"type":"VEC3"},{"bufferView":3,"byteOffset":0,"componentType":5126,"count":1762,"type":"VEC2"}],"asset":{"generator":"FBX2glTF v0.13.1","version":"2.0"},"bufferViews":[{"buffer":0,"byteLength":5352,"byteOffset":0,"target":34963},{"buffer":0,"byteLength":21144,"byteOffset":5352,"target":34962},{"buffer":0,"byteLength":21144,"byteOffset":26496,"target":34962},{"buffer":0,"byteLength":14096,"byteOffset":47640,"target":34962}],"buffers":[{"byteLength":61736,"uri":"SM_Lamp_01_A.bin"}],"images":[{"name":"MainTexture_City_4","uri":"MainTexture_City_4.png"}],"materials":[{"alphaMode":"OPAQUE","doubleSided":false,"extras":{"fromFBX":{"isTruePBR":false,"shadingModel":"Phong"}},"name":"Material","pbrMetallicRoughness":{"baseColorFactor":[1,1,1,1],"baseColorTexture":{"index":0,"texCoord":0},"metallicFactor":0.400000005960464,"roughnessFactor":0.140028014779091}}],"meshes":[{"name":"Lamp_01_A","primitives":[{"attributes":{"NORMAL":2,"POSITION":1,"TEXCOORD_0":3},"indices":0,"material":0,"mode":4}]}],"nodes":[{"mesh":0,"name":"Lamp_01_A","rotation":[0,0,0,1],"scale":[1,1,1],"translation":[-11.8585386276245,0.0140185952186584,-56.7482414245605]}],"samplers":[{}],"scene":0,"scenes":[{"name":"Root Scene","nodes":[0]}],"textures":[{"name":"base_color_texture","sampler":0,"source":0}]}