{"accessors":[{"bufferView":0,"byteOffset":0,"componentType":5123,"count":1344,"type":"SCALAR"},{"bufferView":1,"byteOffset":0,"componentType":5126,"count":744,"max":[0.395383208990097,0.537225723266602,1.09070253372192],"min":[-0.39536181092262,-0.03570137917995,-1.10220336914062],"type":"VEC3"},{"bufferView":2,"byteOffset":0,"componentType":5126,"count":744,"type":"VEC3"},{"bufferView":3,"byteOffset":0,"componentType":5126,"count":744,"type":"VEC2"},{"bufferView":4,"byteOffset":0,"componentType":5123,"count":132,"type":"SCALAR"},{"bufferView":5,"byteOffset":0,"componentType":5126,"count":84,"max":[0.342960268259048,0.393144935369492,0.746271967887878],"min":[-0.34296074509621,-0.00000001490116,-1.25620007514954],"type":"VEC3"},{"bufferView":6,"byteOffset":0,"componentType":5126,"count":84,"type":"VEC3"},{"bufferView":7,"byteOffset":0,"componentType":5126,"count":84,"type":"VEC2"}],"asset":{"generator":"FBX2glTF v0.13.1","version":"2.0"},"bufferViews":[{"buffer":0,"byteLength":2688,"byteOffset":0,"target":34963},{"buffer":0,"byteLength":8928,"byteOffset":2688,"target":34962},{"buffer":0,"byteLength":8928,"byteOffset":11616,"target":34962},{"buffer":0,"byteLength":5952,"byteOffset":20544,"target":34962},{"buffer":0,"byteLength":264,"byteOffset":26496,"target":34963},{"buffer":0,"byteLength":1008,"byteOffset":26760,"target":34962},{"buffer":0,"byteLength":1008,"byteOffset":27768,"target":34962},{"buffer":0,"byteLength":672,"byteOffset":28776,"target":34962}],"buffers":[{"byteLength":29448,"uri":"SM_Lounger_01_D.bin"}],"images":[{"name":"MainTexture_City_4","uri":"MainTexture_City_4.png"}],"materials":[{"alphaMode":"OPAQUE","doubleSided":false,"extras":{"fromFBX":{"isTruePBR":false,"shadingModel":"Phong"}},"name":"Material.258","pbrMetallicRoughness":{"baseColorFactor":[1,1,1,1],"baseColorTexture":{"index":0,"texCoord":0},"metallicFactor":0.400000005960464,"roughnessFactor":0.140028014779091}}],"meshes":[{"name":"Lounger_01_D","primitives":[{"attributes":{"NORMAL":2,"POSITION":1,"TEXCOORD_0":3},"indices":0,"material":0,"mode":4}]},{"name":"Mat_01_D","primitives":[{"attributes":{"NORMAL":6,"POSITION":5,"TEXCOORD_0":7},"indices":4,"material":0,"mode":4}]}],"nodes":[{"children":[1],"mesh":0,"name":"Lounger_01_D","rotation":[0,0,0,1],"scale":[1,1,1],"translation":[109.286796569824,-0.13524508476257,-299.199981689453]},{"mesh":1,"name":"Mat_01_D","rotation":[0,0,0,1],"scale":[1,1,1],"translation":[0.00382812484167516,0.173648998141289,0.197324216365814]}],"samplers":[{}],"scene":0,"scenes":[{"name":"Root Scene","nodes":[0]}],"textures":[{"name":"base_color_texture","sampler":0,"source":0}]}