{"accessors":[{"bufferView":0,"byteOffset":0,"componentType":5123,"count":468,"type":"SCALAR"},{"bufferView":1,"byteOffset":0,"componentType":5126,"count":260,"max":[0.215988859534264,0.122995443642139,0.189325705170631],"min":[-0.2159888446331,-0.12299544364214,-0.14198885858059],"type":"VEC3"},{"bufferView":2,"byteOffset":0,"componentType":5126,"count":260,"type":"VEC3"},{"bufferView":3,"byteOffset":0,"componentType":5126,"count":260,"type":"VEC2"},{"bufferView":4,"byteOffset":0,"componentType":5123,"count":480,"type":"SCALAR"},{"bufferView":5,"byteOffset":0,"componentType":5126,"count":314,"max":[0.332139909267426,0.104706332087517,0.0615071132779121],"min":[-0.00031740844133,-0.13091917335987,-0.00000000387893],"type":"VEC3"},{"bufferView":6,"byteOffset":0,"componentType":5126,"count":314,"type":"VEC3"},{"bufferView":7,"byteOffset":0,"componentType":5126,"count":314,"type":"VEC2"}],"asset":{"generator":"FBX2glTF v0.13.1","version":"2.0"},"bufferViews":[{"buffer":0,"byteLength":936,"byteOffset":0,"target":34963},{"buffer":0,"byteLength":3120,"byteOffset":936,"target":34962},{"buffer":0,"byteLength":3120,"byteOffset":4056,"target":34962},{"buffer":0,"byteLength":2080,"byteOffset":7176,"target":34962},{"buffer":0,"byteLength":960,"byteOffset":9256,"target":34963},{"buffer":0,"byteLength":3768,"byteOffset":10216,"target":34962},{"buffer":0,"byteLength":3768,"byteOffset":13984,"target":34962},{"buffer":0,"byteLength":2512,"byteOffset":17752,"target":34962}],"buffers":[{"byteLength":20264,"uri":"SM_Microwave_01_A.bin"}],"images":[{"name":"MainTexture_City_4","uri":"MainTexture_City_4.png"}],"materials":[{"alphaMode":"OPAQUE","doubleSided":false,"extras":{"fromFBX":{"isTruePBR":false,"shadingModel":"Phong"}},"name":"Material","pbrMetallicRoughness":{"baseColorFactor":[1,1,1,1],"baseColorTexture":{"index":0,"texCoord":0},"metallicFactor":0.400000005960464,"roughnessFactor":0.140028014779091}}],"meshes":[{"name":"Microwave_01_A","primitives":[{"attributes":{"NORMAL":2,"POSITION":1,"TEXCOORD_0":3},"indices":0,"material":0,"mode":4}]},{"name":"MicrowaveDoor_01_A","primitives":[{"attributes":{"NORMAL":6,"POSITION":5,"TEXCOORD_0":7},"indices":4,"material":0,"mode":4}]}],"nodes":[{"children":[1],"mesh":0,"name":"Microwave_01_A","rotation":[0,0,0,1],"scale":[1,1,1],"translation":[-19.0385093688965,0.988289594650269,-59.8255805969238]},{"mesh":1,"name":"MicrowaveDoor_01_A","rotation":[0,0,0,1],"scale":[1,1,1],"translation":[-0.21360228955746,0.012523116543889,0.190034180879593]}],"samplers":[{}],"scene":0,"scenes":[{"name":"Root Scene","nodes":[0]}],"textures":[{"name":"base_color_texture","sampler":0,"source":0}]}