{"accessors":[{"bufferView":0,"byteOffset":0,"componentType":5123,"count":1884,"type":"SCALAR"},{"bufferView":1,"byteOffset":0,"componentType":5126,"count":1162,"max":[0.039945725351572,0.125378489494324,0.0460229776799679],"min":[-0.04003727808595,0.00000000745058059692383,-0.05322062969208],"type":"VEC3"},{"bufferView":2,"byteOffset":0,"componentType":5126,"count":1162,"type":"VEC3"},{"bufferView":3,"byteOffset":0,"componentType":5126,"count":1162,"type":"VEC2"}],"asset":{"generator":"FBX2glTF v0.13.1","version":"2.0"},"bufferViews":[{"buffer":0,"byteLength":3768,"byteOffset":0,"target":34963},{"buffer":0,"byteLength":13944,"byteOffset":3768,"target":34962},{"buffer":0,"byteLength":13944,"byteOffset":17712,"target":34962},{"buffer":0,"byteLength":9296,"byteOffset":31656,"target":34962}],"buffers":[{"byteLength":40952,"uri":"SM_MusicColumn_02_A.bin"}],"images":[{"name":"MainTexture_City_4","uri":"MainTexture_City_4.png"}],"materials":[{"alphaMode":"OPAQUE","doubleSided":false,"extras":{"fromFBX":{"isTruePBR":false,"shadingModel":"Phong"}},"name":"Material","pbrMetallicRoughness":{"baseColorFactor":[1,1,1,1],"baseColorTexture":{"index":0,"texCoord":0},"metallicFactor":0.400000005960464,"roughnessFactor":0.140028014779091}}],"meshes":[{"name":"MusicColumn_02_A","primitives":[{"attributes":{"NORMAL":2,"POSITION":1,"TEXCOORD_0":3},"indices":0,"material":0,"mode":4}]}],"nodes":[{"mesh":0,"name":"MusicColumn_02_A","rotation":[0,0,0,1],"scale":[1,1,1],"translation":[-9.77114391326904,0.607266902923584,-56.4308471679688]}],"samplers":[{}],"scene":0,"scenes":[{"name":"Root Scene","nodes":[0]}],"textures":[{"name":"base_color_texture","sampler":0,"source":0}]}