{"accessors":[{"bufferView":0,"byteOffset":0,"componentType":5123,"count":156,"type":"SCALAR"},{"bufferView":1,"byteOffset":0,"componentType":5126,"count":102,"max":[0.111527658998966,0.112676054239273,0.0887913182377815],"min":[-0.11155200004578,-0.00000005983748,-0.10852161794901],"type":"VEC3"},{"bufferView":2,"byteOffset":0,"componentType":5126,"count":102,"type":"VEC3"},{"bufferView":3,"byteOffset":0,"componentType":5126,"count":102,"type":"VEC2"}],"asset":{"generator":"FBX2glTF v0.13.1","version":"2.0"},"bufferViews":[{"buffer":0,"byteLength":312,"byteOffset":0,"target":34963},{"buffer":0,"byteLength":1224,"byteOffset":312,"target":34962},{"buffer":0,"byteLength":1224,"byteOffset":1536,"target":34962},{"buffer":0,"byteLength":816,"byteOffset":2760,"target":34962}],"buffers":[{"byteLength":3576,"uri":"SM_Notebook_01_A.bin"}],"images":[{"name":"MainTexture_City_4","uri":"MainTexture_City_4.png"}],"materials":[{"alphaMode":"OPAQUE","doubleSided":false,"extras":{"fromFBX":{"isTruePBR":false,"shadingModel":"Phong"}},"name":"Material","pbrMetallicRoughness":{"baseColorFactor":[1,1,1,1],"baseColorTexture":{"index":0,"texCoord":0},"metallicFactor":0.400000005960464,"roughnessFactor":0.140028014779091}}],"meshes":[{"name":"Notebook_01_A","primitives":[{"attributes":{"NORMAL":2,"POSITION":1,"TEXCOORD_0":3},"indices":0,"material":0,"mode":4}]}],"nodes":[{"mesh":0,"name":"Notebook_01_A","rotation":[0,0,0,1],"scale":[1,1,1],"translation":[-9.88354873657227,0.608795881271362,-56.2360687255859]}],"samplers":[{}],"scene":0,"scenes":[{"name":"Root Scene","nodes":[0]}],"textures":[{"name":"base_color_texture","sampler":0,"source":0}]}