{"accessors":[{"bufferView":0,"byteOffset":0,"componentType":5123,"count":6240,"type":"SCALAR"},{"bufferView":1,"byteOffset":0,"componentType":5126,"count":3285,"max":[0.581371903419495,2.72268509864807,2.21466636657715],"min":[-0.58140671253204,-0.01490163803101,-1.06331920623779],"type":"VEC3"},{"bufferView":2,"byteOffset":0,"componentType":5126,"count":3285,"type":"VEC3"},{"bufferView":3,"byteOffset":0,"componentType":5126,"count":3285,"type":"VEC2"}],"asset":{"generator":"FBX2glTF v0.13.1","version":"2.0"},"bufferViews":[{"buffer":0,"byteLength":12480,"byteOffset":0,"target":34963},{"buffer":0,"byteLength":39420,"byteOffset":12480,"target":34962},{"buffer":0,"byteLength":39420,"byteOffset":51900,"target":34962},{"buffer":0,"byteLength":26280,"byteOffset":91320,"target":34962}],"buffers":[{"byteLength":117600,"uri":"SM_Orphanage_01_A.bin"}],"images":[{"name":"MainTexture_City_4","uri":"MainTexture_City_4.png"}],"materials":[{"alphaMode":"OPAQUE","doubleSided":false,"extras":{"fromFBX":{"isTruePBR":false,"shadingModel":"Phong"}},"name":"Material","pbrMetallicRoughness":{"baseColorFactor":[1,1,1,1],"baseColorTexture":{"index":0,"texCoord":0},"metallicFactor":0.400000005960464,"roughnessFactor":0.140028014779091}}],"meshes":[{"name":"Orphanage_01_A","primitives":[{"attributes":{"NORMAL":2,"POSITION":1,"TEXCOORD_0":3},"indices":0,"material":0,"mode":4}]}],"nodes":[{"mesh":0,"name":"Orphanage_01_A","rotation":[0,0,0,1],"scale":[1,1,1],"translation":[128.728378295898,-0.04477167129517,-294.368591308594]}],"samplers":[{}],"scene":0,"scenes":[{"name":"Root Scene","nodes":[0]}],"textures":[{"name":"base_color_texture","sampler":0,"source":0}]}