{"accessors":[{"bufferView":0,"byteOffset":0,"componentType":5123,"count":840,"type":"SCALAR"},{"bufferView":1,"byteOffset":0,"componentType":5126,"count":432,"max":[0.116267427802086,0.262201815843582,0.0750000029802322],"min":[-0.12324841320515,-0.09999999403954,-0.07500000298023],"type":"VEC3"},{"bufferView":2,"byteOffset":0,"componentType":5126,"count":432,"type":"VEC3"},{"bufferView":3,"byteOffset":0,"componentType":5126,"count":432,"type":"VEC2"}],"asset":{"generator":"FBX2glTF v0.13.1","version":"2.0"},"bufferViews":[{"buffer":0,"byteLength":1680,"byteOffset":0,"target":34963},{"buffer":0,"byteLength":5184,"byteOffset":1680,"target":34962},{"buffer":0,"byteLength":5184,"byteOffset":6864,"target":34962},{"buffer":0,"byteLength":3456,"byteOffset":12048,"target":34962}],"buffers":[{"byteLength":15504,"uri":"SM_Oil.bin"}],"images":[{"name":"MainTexture_City_4","uri":"MainTexture_City_4.png"}],"materials":[{"alphaMode":"OPAQUE","doubleSided":false,"extras":{"fromFBX":{"isTruePBR":false,"shadingModel":"Phong"}},"name":"Material","pbrMetallicRoughness":{"baseColorFactor":[1,1,1,1],"baseColorTexture":{"index":0,"texCoord":0},"metallicFactor":0.400000005960464,"roughnessFactor":0.140028014779091}}],"meshes":[{"name":"Oil","primitives":[{"attributes":{"NORMAL":2,"POSITION":1,"TEXCOORD_0":3},"indices":0,"material":0,"mode":4}]}],"nodes":[{"mesh":0,"name":"Oil","rotation":[0,0,0,1],"scale":[1,1,1],"translation":[-126.252380371094,0.11268088966608,-60.0163612365723]}],"samplers":[{}],"scene":0,"scenes":[{"name":"Root Scene","nodes":[0]}],"textures":[{"name":"base_color_texture","sampler":0,"source":0}]}