{"accessors":[{"bufferView":0,"byteOffset":0,"componentType":5123,"count":288,"type":"SCALAR"},{"bufferView":1,"byteOffset":0,"componentType":5126,"count":192,"max":[0.222401678562164,0.199204280972481,0.0969734713435173],"min":[-0.21685037016869,-0.22295716404915,-0.09841369092464],"type":"VEC3"},{"bufferView":2,"byteOffset":0,"componentType":5126,"count":192,"type":"VEC3"},{"bufferView":3,"byteOffset":0,"componentType":5126,"count":192,"type":"VEC2"}],"asset":{"generator":"FBX2glTF v0.13.1","version":"2.0"},"bufferViews":[{"buffer":0,"byteLength":576,"byteOffset":0,"target":34963},{"buffer":0,"byteLength":2304,"byteOffset":576,"target":34962},{"buffer":0,"byteLength":2304,"byteOffset":2880,"target":34962},{"buffer":0,"byteLength":1536,"byteOffset":5184,"target":34962}],"buffers":[{"byteLength":6720,"uri":"SM_Pillow_01_A.bin"}],"images":[{"name":"MainTexture_City_4","uri":"MainTexture_City_4.png"}],"materials":[{"alphaMode":"OPAQUE","doubleSided":false,"extras":{"fromFBX":{"isTruePBR":false,"shadingModel":"Phong"}},"name":"Material","pbrMetallicRoughness":{"baseColorFactor":[1,1,1,1],"baseColorTexture":{"index":0,"texCoord":0},"metallicFactor":0.400000005960464,"roughnessFactor":0.140028014779091}}],"meshes":[{"name":"Pillow_01_A","primitives":[{"attributes":{"NORMAL":2,"POSITION":1,"TEXCOORD_0":3},"indices":0,"material":0,"mode":4}]}],"nodes":[{"mesh":0,"name":"Pillow_01_A","rotation":[0,0,0,1],"scale":[1,1,1],"translation":[-11.5840606689453,0.690721094608307,-59.4906234741211]}],"samplers":[{}],"scene":0,"scenes":[{"name":"Root Scene","nodes":[0]}],"textures":[{"name":"base_color_texture","sampler":0,"source":0}]}