{"accessors":[{"bufferView":0,"byteOffset":0,"componentType":5123,"count":204,"type":"SCALAR"},{"bufferView":1,"byteOffset":0,"componentType":5126,"count":114,"max":[0.0499755851924419,0.347885340452194,0.050048828125],"min":[-0.05002441257238,0,-0.04995116963983],"type":"VEC3"},{"bufferView":2,"byteOffset":0,"componentType":5126,"count":114,"type":"VEC3"},{"bufferView":3,"byteOffset":0,"componentType":5126,"count":114,"type":"VEC2"}],"asset":{"generator":"FBX2glTF v0.13.1","version":"2.0"},"bufferViews":[{"buffer":0,"byteLength":408,"byteOffset":0,"target":34963},{"buffer":0,"byteLength":1368,"byteOffset":408,"target":34962},{"buffer":0,"byteLength":1368,"byteOffset":1776,"target":34962},{"buffer":0,"byteLength":912,"byteOffset":3144,"target":34962}],"buffers":[{"byteLength":4056,"uri":"SM_PaperBottle_01_B.bin"}],"images":[{"name":"MainTexture_City_4","uri":"MainTexture_City_4.png"}],"materials":[{"alphaMode":"OPAQUE","doubleSided":false,"extras":{"fromFBX":{"isTruePBR":false,"shadingModel":"Phong"}},"name":"Material.264","pbrMetallicRoughness":{"baseColorFactor":[1,1,1,1],"baseColorTexture":{"index":0,"texCoord":0},"metallicFactor":0.400000005960464,"roughnessFactor":0.140028014779091}}],"meshes":[{"name":"PaperBottle_01_B","primitives":[{"attributes":{"NORMAL":2,"POSITION":1,"TEXCOORD_0":3},"indices":0,"material":0,"mode":4}]}],"nodes":[{"mesh":0,"name":"PaperBottle_01_B","rotation":[0,0,0,1],"scale":[1,1,1],"translation":[187.613037109375,0.0130592584609985,-294.383270263672]}],"samplers":[{}],"scene":0,"scenes":[{"name":"Root Scene","nodes":[0]}],"textures":[{"name":"base_color_texture","sampler":0,"source":0}]}