{"accessors":[{"bufferView":0,"byteOffset":0,"componentType":5123,"count":8094,"type":"SCALAR"},{"bufferView":1,"byteOffset":0,"componentType":5126,"count":5360,"max":[0.169025644659996,0.648021519184113,0.179854601621628],"min":[-0.1690254509449,0,-0.22994656860828],"type":"VEC3"},{"bufferView":2,"byteOffset":0,"componentType":5126,"count":5360,"type":"VEC3"},{"bufferView":3,"byteOffset":0,"componentType":5126,"count":5360,"type":"VEC2"}],"asset":{"generator":"FBX2glTF v0.13.1","version":"2.0"},"bufferViews":[{"buffer":0,"byteLength":16188,"byteOffset":0,"target":34963},{"buffer":0,"byteLength":64320,"byteOffset":16188,"target":34962},{"buffer":0,"byteLength":64320,"byteOffset":80508,"target":34962},{"buffer":0,"byteLength":42880,"byteOffset":144828,"target":34962}],"buffers":[{"byteLength":187708,"uri":"SM_Plant_04_A.bin"}],"images":[{"name":"MainTexture_City_4","uri":"MainTexture_City_4.png"}],"materials":[{"alphaMode":"OPAQUE","doubleSided":false,"extras":{"fromFBX":{"isTruePBR":false,"shadingModel":"Phong"}},"name":"Material","pbrMetallicRoughness":{"baseColorFactor":[1,1,1,1],"baseColorTexture":{"index":0,"texCoord":0},"metallicFactor":0.400000005960464,"roughnessFactor":0.140028014779091}}],"meshes":[{"name":"Plant_04_A","primitives":[{"attributes":{"NORMAL":2,"POSITION":1,"TEXCOORD_0":3},"indices":0,"material":0,"mode":4}]}],"nodes":[{"mesh":0,"name":"Plant_04_A","rotation":[0,0,0,1],"scale":[1,1,1],"translation":[-12.3652563095093,0.00048486702144146,-57.478328704834]}],"samplers":[{}],"scene":0,"scenes":[{"name":"Root Scene","nodes":[0]}],"textures":[{"name":"base_color_texture","sampler":0,"source":0}]}