{"accessors":[{"bufferView":0,"byteOffset":0,"componentType":5123,"count":2052,"type":"SCALAR"},{"bufferView":1,"byteOffset":0,"componentType":5126,"count":1346,"max":[0.12092387676239,0.295887053012848,0.149045869708061],"min":[-0.12924645841122,0.00000000325789262234366,-0.19988253712654],"type":"VEC3"},{"bufferView":2,"byteOffset":0,"componentType":5126,"count":1346,"type":"VEC3"},{"bufferView":3,"byteOffset":0,"componentType":5126,"count":1346,"type":"VEC2"}],"asset":{"generator":"FBX2glTF v0.13.1","version":"2.0"},"bufferViews":[{"buffer":0,"byteLength":4104,"byteOffset":0,"target":34963},{"buffer":0,"byteLength":16152,"byteOffset":4104,"target":34962},{"buffer":0,"byteLength":16152,"byteOffset":20256,"target":34962},{"buffer":0,"byteLength":10768,"byteOffset":36408,"target":34962}],"buffers":[{"byteLength":47176,"uri":"SM_Plant_02_A.bin"}],"images":[{"name":"MainTexture_City_4","uri":"MainTexture_City_4.png"}],"materials":[{"alphaMode":"OPAQUE","doubleSided":false,"extras":{"fromFBX":{"isTruePBR":false,"shadingModel":"Phong"}},"name":"Material","pbrMetallicRoughness":{"baseColorFactor":[1,1,1,1],"baseColorTexture":{"index":0,"texCoord":0},"metallicFactor":0.400000005960464,"roughnessFactor":0.140028014779091}}],"meshes":[{"name":"Plant_02_A","primitives":[{"attributes":{"NORMAL":2,"POSITION":1,"TEXCOORD_0":3},"indices":0,"material":0,"mode":4}]}],"nodes":[{"mesh":0,"name":"Plant_02_A","rotation":[0,0,0,1],"scale":[1,1,1],"translation":[-12.3260860443115,-0.01770759932697,-56.7622146606445]}],"samplers":[{}],"scene":0,"scenes":[{"name":"Root Scene","nodes":[0]}],"textures":[{"name":"base_color_texture","sampler":0,"source":0}]}