{"accessors":[{"bufferView":0,"byteOffset":0,"componentType":5123,"count":288,"type":"SCALAR"},{"bufferView":1,"byteOffset":0,"componentType":5126,"count":192,"max":[0.21674083173275,0.200778231024742,0.0969042927026749],"min":[-0.21113353967667,-0.21705357730389,-0.09856855869293],"type":"VEC3"},{"bufferView":2,"byteOffset":0,"componentType":5126,"count":192,"type":"VEC3"},{"bufferView":3,"byteOffset":0,"componentType":5126,"count":192,"type":"VEC2"}],"asset":{"generator":"FBX2glTF v0.13.1","version":"2.0"},"bufferViews":[{"buffer":0,"byteLength":576,"byteOffset":0,"target":34963},{"buffer":0,"byteLength":2304,"byteOffset":576,"target":34962},{"buffer":0,"byteLength":2304,"byteOffset":2880,"target":34962},{"buffer":0,"byteLength":1536,"byteOffset":5184,"target":34962}],"buffers":[{"byteLength":6720,"uri":"SM_Pillow_01_C.bin"}],"images":[{"name":"MainTexture_City_4","uri":"MainTexture_City_4.png"}],"materials":[{"alphaMode":"OPAQUE","doubleSided":false,"extras":{"fromFBX":{"isTruePBR":false,"shadingModel":"Phong"}},"name":"Material","pbrMetallicRoughness":{"baseColorFactor":[1,1,1,1],"baseColorTexture":{"index":0,"texCoord":0},"metallicFactor":0.400000005960464,"roughnessFactor":0.140028014779091}}],"meshes":[{"name":"Pillow_01_C","primitives":[{"attributes":{"NORMAL":2,"POSITION":1,"TEXCOORD_0":3},"indices":0,"material":0,"mode":4}]}],"nodes":[{"mesh":0,"name":"Pillow_01_C","rotation":[0,0,0,1],"scale":[1,1,1],"translation":[-11.1165781021118,0.681802988052368,-59.5009574890137]}],"samplers":[{}],"scene":0,"scenes":[{"name":"Root Scene","nodes":[0]}],"textures":[{"name":"base_color_texture","sampler":0,"source":0}]}