{"accessors":[{"bufferView":0,"byteOffset":0,"componentType":5123,"count":906,"type":"SCALAR"},{"bufferView":1,"byteOffset":0,"componentType":5126,"count":576,"max":[0.0529158003628254,0.0603845119476318,0.0529157668352127],"min":[-0.05291580036283,-0.08288614451885,-0.05291576683521],"type":"VEC3"},{"bufferView":2,"byteOffset":0,"componentType":5126,"count":576,"type":"VEC3"},{"bufferView":3,"byteOffset":0,"componentType":5126,"count":576,"type":"VEC2"}],"asset":{"generator":"FBX2glTF v0.13.1","version":"2.0"},"bufferViews":[{"buffer":0,"byteLength":1812,"byteOffset":0,"target":34963},{"buffer":0,"byteLength":6912,"byteOffset":1812,"target":34962},{"buffer":0,"byteLength":6912,"byteOffset":8724,"target":34962},{"buffer":0,"byteLength":4608,"byteOffset":15636,"target":34962}],"buffers":[{"byteLength":20244,"uri":"SM_Paper_01_C.bin"}],"images":[{"name":"MainTexture_City_4","uri":"MainTexture_City_4.png"}],"materials":[{"alphaMode":"OPAQUE","doubleSided":false,"extras":{"fromFBX":{"isTruePBR":false,"shadingModel":"Phong"}},"name":"Material.280","pbrMetallicRoughness":{"baseColorFactor":[1,1,1,1],"baseColorTexture":{"index":0,"texCoord":0},"metallicFactor":0.400000005960464,"roughnessFactor":0.140028014779091}}],"meshes":[{"name":"Paper_01_C","primitives":[{"attributes":{"NORMAL":2,"POSITION":1,"TEXCOORD_0":3},"indices":0,"material":0,"mode":4}]}],"nodes":[{"mesh":0,"name":"Paper_01_C","rotation":[0,0,0,1],"scale":[1,1,1],"translation":[192.529449462891,0.0879010632634163,-294.556488037109]}],"samplers":[{}],"scene":0,"scenes":[{"name":"Root Scene","nodes":[0]}],"textures":[{"name":"base_color_texture","sampler":0,"source":0}]}