{"accessors":[{"bufferView":0,"byteOffset":0,"componentType":5123,"count":432,"type":"SCALAR"},{"bufferView":1,"byteOffset":0,"componentType":5126,"count":244,"max":[0.234607696533203,0.0147911114618182,0.242671966552734],"min":[-0.2653923034668,-0.00266887340695,-0.25732803344727],"type":"VEC3"},{"bufferView":2,"byteOffset":0,"componentType":5126,"count":244,"type":"VEC3"},{"bufferView":3,"byteOffset":0,"componentType":5126,"count":244,"type":"VEC2"}],"asset":{"generator":"FBX2glTF v0.13.1","version":"2.0"},"bufferViews":[{"buffer":0,"byteLength":864,"byteOffset":0,"target":34963},{"buffer":0,"byteLength":2928,"byteOffset":864,"target":34962},{"buffer":0,"byteLength":2928,"byteOffset":3792,"target":34962},{"buffer":0,"byteLength":1952,"byteOffset":6720,"target":34962}],"buffers":[{"byteLength":8672,"uri":"SM_Paper_03.bin"}],"images":[{"name":"MainTexture_City_4","uri":"MainTexture_City_4.png"}],"materials":[{"alphaMode":"OPAQUE","doubleSided":false,"extras":{"fromFBX":{"isTruePBR":false,"shadingModel":"Phong"}},"name":"Material","pbrMetallicRoughness":{"baseColorFactor":[1,1,1,1],"baseColorTexture":{"index":0,"texCoord":0},"metallicFactor":0.400000005960464,"roughnessFactor":0.140028014779091}}],"meshes":[{"name":"Paper_03","primitives":[{"attributes":{"NORMAL":2,"POSITION":1,"TEXCOORD_0":3},"indices":0,"material":0,"mode":4}]}],"nodes":[{"mesh":0,"name":"Paper_03","rotation":[0,0,0,1],"scale":[1,1,1],"translation":[-40.3513107299805,-0.00033112673555,-60.6033668518066]}],"samplers":[{}],"scene":0,"scenes":[{"name":"Root Scene","nodes":[0]}],"textures":[{"name":"base_color_texture","sampler":0,"source":0}]}