{"accessors":[{"bufferView":0,"byteOffset":0,"componentType":5123,"count":8094,"type":"SCALAR"},{"bufferView":1,"byteOffset":0,"componentType":5126,"count":5360,"max":[0.201763361692429,0.600644826889038,0.138802319765091],"min":[-0.1965849250555,-0.00000001023703,-0.18736606836319],"type":"VEC3"},{"bufferView":2,"byteOffset":0,"componentType":5126,"count":5360,"type":"VEC3"},{"bufferView":3,"byteOffset":0,"componentType":5126,"count":5360,"type":"VEC2"}],"asset":{"generator":"FBX2glTF v0.13.1","version":"2.0"},"bufferViews":[{"buffer":0,"byteLength":16188,"byteOffset":0,"target":34963},{"buffer":0,"byteLength":64320,"byteOffset":16188,"target":34962},{"buffer":0,"byteLength":64320,"byteOffset":80508,"target":34962},{"buffer":0,"byteLength":42880,"byteOffset":144828,"target":34962}],"buffers":[{"byteLength":187708,"uri":"SM_Plant_01_A.bin"}],"images":[{"name":"MainTexture_City_4","uri":"MainTexture_City_4.png"}],"materials":[{"alphaMode":"OPAQUE","doubleSided":false,"extras":{"fromFBX":{"isTruePBR":false,"shadingModel":"Phong"}},"name":"Material","pbrMetallicRoughness":{"baseColorFactor":[1,1,1,1],"baseColorTexture":{"index":0,"texCoord":0},"metallicFactor":0.400000005960464,"roughnessFactor":0.140028014779091}}],"meshes":[{"name":"Plant_01_A","primitives":[{"attributes":{"NORMAL":2,"POSITION":1,"TEXCOORD_0":3},"indices":0,"material":0,"mode":4}]}],"nodes":[{"mesh":0,"name":"Plant_01_A","rotation":[0,0,0,1],"scale":[1,1,1],"translation":[-12.9099388122559,-0.05383319407701,-56.7866363525391]}],"samplers":[{}],"scene":0,"scenes":[{"name":"Root Scene","nodes":[0]}],"textures":[{"name":"base_color_texture","sampler":0,"source":0}]}