{"accessors":[{"bufferView":0,"byteOffset":0,"componentType":5123,"count":228,"type":"SCALAR"},{"bufferView":1,"byteOffset":0,"componentType":5126,"count":146,"max":[1.3433952331543,0.0049999887123704,3.30648803710938],"min":[-1.32729721069336,-0.00500001106411,-1.68890380859375],"type":"VEC3"},{"bufferView":2,"byteOffset":0,"componentType":5126,"count":146,"type":"VEC3"},{"bufferView":3,"byteOffset":0,"componentType":5126,"count":146,"type":"VEC2"}],"asset":{"generator":"FBX2glTF v0.13.1","version":"2.0"},"bufferViews":[{"buffer":0,"byteLength":456,"byteOffset":0,"target":34963},{"buffer":0,"byteLength":1752,"byteOffset":456,"target":34962},{"buffer":0,"byteLength":1752,"byteOffset":2208,"target":34962},{"buffer":0,"byteLength":1168,"byteOffset":3960,"target":34962}],"buffers":[{"byteLength":5128,"uri":"SM_Puddle_01.bin"}],"images":[{"name":"MainTexture_City_4","uri":"MainTexture_City_4.png"}],"materials":[{"alphaMode":"OPAQUE","doubleSided":false,"extras":{"fromFBX":{"isTruePBR":false,"shadingModel":"Phong"}},"name":"Material","pbrMetallicRoughness":{"baseColorFactor":[1,1,1,1],"baseColorTexture":{"index":0,"texCoord":0},"metallicFactor":0.400000005960464,"roughnessFactor":0.140028014779091}}],"meshes":[{"name":"Puddle_01","primitives":[{"attributes":{"NORMAL":2,"POSITION":1,"TEXCOORD_0":3},"indices":0,"material":0,"mode":4}]}],"nodes":[{"mesh":0,"name":"Puddle_01","rotation":[0,0,0,1],"scale":[1,1,1],"translation":[-52.1913032531738,-0.00499998871237,-60.6229476928711]}],"samplers":[{}],"scene":0,"scenes":[{"name":"Root Scene","nodes":[0]}],"textures":[{"name":"base_color_texture","sampler":0,"source":0}]}