{"accessors":[{"bufferView":0,"byteOffset":0,"componentType":5123,"count":420,"type":"SCALAR"},{"bufferView":1,"byteOffset":0,"componentType":5126,"count":278,"max":[0.100632570683956,0.0227461755275726,0.0644263476133347],"min":[-0.10289850085974,-0.0006188293919,-0.06196363642812],"type":"VEC3"},{"bufferView":2,"byteOffset":0,"componentType":5126,"count":278,"type":"VEC3"},{"bufferView":3,"byteOffset":0,"componentType":5126,"count":278,"type":"VEC2"}],"asset":{"generator":"FBX2glTF v0.13.1","version":"2.0"},"bufferViews":[{"buffer":0,"byteLength":840,"byteOffset":0,"target":34963},{"buffer":0,"byteLength":3336,"byteOffset":840,"target":34962},{"buffer":0,"byteLength":3336,"byteOffset":4176,"target":34962},{"buffer":0,"byteLength":2224,"byteOffset":7512,"target":34962}],"buffers":[{"byteLength":9736,"uri":"SM_PanTable_01_A.bin"}],"images":[{"name":"MainTexture_City_4","uri":"MainTexture_City_4.png"}],"materials":[{"alphaMode":"OPAQUE","doubleSided":false,"extras":{"fromFBX":{"isTruePBR":false,"shadingModel":"Phong"}},"name":"Material","pbrMetallicRoughness":{"baseColorFactor":[1,1,1,1],"baseColorTexture":{"index":0,"texCoord":0},"metallicFactor":0.400000005960464,"roughnessFactor":0.140028014779091}}],"meshes":[{"name":"PanTable_01_A","primitives":[{"attributes":{"NORMAL":2,"POSITION":1,"TEXCOORD_0":3},"indices":0,"material":0,"mode":4}]}],"nodes":[{"mesh":0,"name":"PanTable_01_A","rotation":[0,0,0,1],"scale":[1,1,1],"translation":[-9.36366939544678,0.60799777507782,-56.1245269775391]}],"samplers":[{}],"scene":0,"scenes":[{"name":"Root Scene","nodes":[0]}],"textures":[{"name":"base_color_texture","sampler":0,"source":0}]}