{"accessors":[{"bufferView":0,"byteOffset":0,"componentType":5123,"count":144,"type":"SCALAR"},{"bufferView":1,"byteOffset":0,"componentType":5126,"count":94,"max":[0.160736083984375,0.0499999970197678,0.202865600585938],"min":[-0.15607070922852,0,-0.20000076293945],"type":"VEC3"},{"bufferView":2,"byteOffset":0,"componentType":5126,"count":94,"type":"VEC3"},{"bufferView":3,"byteOffset":0,"componentType":5126,"count":94,"type":"VEC2"}],"asset":{"generator":"FBX2glTF v0.13.1","version":"2.0"},"bufferViews":[{"buffer":0,"byteLength":288,"byteOffset":0,"target":34963},{"buffer":0,"byteLength":1128,"byteOffset":288,"target":34962},{"buffer":0,"byteLength":1128,"byteOffset":1416,"target":34962},{"buffer":0,"byteLength":752,"byteOffset":2544,"target":34962}],"buffers":[{"byteLength":3296,"uri":"SM_Paper_02.bin"}],"images":[{"name":"MainTexture_City_4","uri":"MainTexture_City_4.png"}],"materials":[{"alphaMode":"OPAQUE","doubleSided":false,"extras":{"fromFBX":{"isTruePBR":false,"shadingModel":"Phong"}},"name":"Material","pbrMetallicRoughness":{"baseColorFactor":[1,1,1,1],"baseColorTexture":{"index":0,"texCoord":0},"metallicFactor":0.400000005960464,"roughnessFactor":0.140028014779091}}],"meshes":[{"name":"Paper_02","primitives":[{"attributes":{"NORMAL":2,"POSITION":1,"TEXCOORD_0":3},"indices":0,"material":0,"mode":4}]}],"nodes":[{"mesh":0,"name":"Paper_02","rotation":[0,0,0,1],"scale":[1,1,1],"translation":[-40.9347610473633,0,-60.555233001709]}],"samplers":[{}],"scene":0,"scenes":[{"name":"Root Scene","nodes":[0]}],"textures":[{"name":"base_color_texture","sampler":0,"source":0}]}