{"accessors":[{"bufferView":0,"byteOffset":0,"componentType":5123,"count":612,"type":"SCALAR"},{"bufferView":1,"byteOffset":0,"componentType":5126,"count":392,"max":[0.0668716430664062,0.220740333199501,0.051666259765625],"min":[-0.05575942993164,0,-0.05166625976563],"type":"VEC3"},{"bufferView":2,"byteOffset":0,"componentType":5126,"count":392,"type":"VEC3"},{"bufferView":3,"byteOffset":0,"componentType":5126,"count":392,"type":"VEC2"}],"asset":{"generator":"FBX2glTF v0.13.1","version":"2.0"},"bufferViews":[{"buffer":0,"byteLength":1224,"byteOffset":0,"target":34963},{"buffer":0,"byteLength":4704,"byteOffset":1224,"target":34962},{"buffer":0,"byteLength":4704,"byteOffset":5928,"target":34962},{"buffer":0,"byteLength":3136,"byteOffset":10632,"target":34962}],"buffers":[{"byteLength":13768,"uri":"SM_PlasticBottle_01_dest.bin"}],"images":[{"name":"MainTexture_City_4","uri":"MainTexture_City_4.png"}],"materials":[{"alphaMode":"OPAQUE","doubleSided":false,"extras":{"fromFBX":{"isTruePBR":false,"shadingModel":"Phong"}},"name":"Material","pbrMetallicRoughness":{"baseColorFactor":[1,1,1,1],"baseColorTexture":{"index":0,"texCoord":0},"metallicFactor":0.400000005960464,"roughnessFactor":0.140028014779091}}],"meshes":[{"name":"PlasticBottle_01_dest","primitives":[{"attributes":{"NORMAL":2,"POSITION":1,"TEXCOORD_0":3},"indices":0,"material":0,"mode":4}]}],"nodes":[{"mesh":0,"name":"PlasticBottle_01_dest","rotation":[0,0,0,1],"scale":[1,1,1],"translation":[-55.2351684570312,0.00041022896766662,-60.3400077819824]}],"samplers":[{}],"scene":0,"scenes":[{"name":"Root Scene","nodes":[0]}],"textures":[{"name":"base_color_texture","sampler":0,"source":0}]}