{"accessors":[{"bufferView":0,"byteOffset":0,"componentType":5123,"count":9912,"type":"SCALAR"},{"bufferView":1,"byteOffset":0,"componentType":5126,"count":6600,"max":[0.221306756138802,1.73533010482788,0.32479727268219],"min":[-0.31218346953392,-0.00000022175067,-0.19869957864284],"type":"VEC3"},{"bufferView":2,"byteOffset":0,"componentType":5126,"count":6600,"type":"VEC3"},{"bufferView":3,"byteOffset":0,"componentType":5126,"count":6600,"type":"VEC2"}],"asset":{"generator":"FBX2glTF v0.13.1","version":"2.0"},"bufferViews":[{"buffer":0,"byteLength":19824,"byteOffset":0,"target":34963},{"buffer":0,"byteLength":79200,"byteOffset":19824,"target":34962},{"buffer":0,"byteLength":79200,"byteOffset":99024,"target":34962},{"buffer":0,"byteLength":52800,"byteOffset":178224,"target":34962}],"buffers":[{"byteLength":231024,"uri":"SM_Plant_03_A.bin"}],"images":[{"name":"MainTexture_City_4","uri":"MainTexture_City_4.png"}],"materials":[{"alphaMode":"OPAQUE","doubleSided":false,"extras":{"fromFBX":{"isTruePBR":false,"shadingModel":"Phong"}},"name":"Material","pbrMetallicRoughness":{"baseColorFactor":[1,1,1,1],"baseColorTexture":{"index":0,"texCoord":0},"metallicFactor":0.400000005960464,"roughnessFactor":0.140028014779091}}],"meshes":[{"name":"Plant_03_A","primitives":[{"attributes":{"NORMAL":2,"POSITION":1,"TEXCOORD_0":3},"indices":0,"material":0,"mode":4}]}],"nodes":[{"mesh":0,"name":"Plant_03_A","rotation":[0,0,0,1],"scale":[1,1,1],"translation":[-12.8512725830078,0.0896808803081512,-57.3636169433594]}],"samplers":[{}],"scene":0,"scenes":[{"name":"Root Scene","nodes":[0]}],"textures":[{"name":"base_color_texture","sampler":0,"source":0}]}