{"accessors":[{"bufferView":0,"byteOffset":0,"componentType":5123,"count":492,"type":"SCALAR"},{"bufferView":1,"byteOffset":0,"componentType":5126,"count":326,"max":[0.035598386079073,0.0251189637929201,0.0692060068249702],"min":[-0.04245743528008,-0.02508874610066,-0.07039534300566],"type":"VEC3"},{"bufferView":2,"byteOffset":0,"componentType":5126,"count":326,"type":"VEC3"},{"bufferView":3,"byteOffset":0,"componentType":5126,"count":326,"type":"VEC2"}],"asset":{"generator":"FBX2glTF v0.13.1","version":"2.0"},"bufferViews":[{"buffer":0,"byteLength":984,"byteOffset":0,"target":34963},{"buffer":0,"byteLength":3912,"byteOffset":984,"target":34962},{"buffer":0,"byteLength":3912,"byteOffset":4896,"target":34962},{"buffer":0,"byteLength":2608,"byteOffset":8808,"target":34962}],"buffers":[{"byteLength":11416,"uri":"SM_Potato_01_A.bin"}],"images":[{"name":"MainTexture_City_4","uri":"MainTexture_City_4.png"}],"materials":[{"alphaMode":"OPAQUE","doubleSided":false,"extras":{"fromFBX":{"isTruePBR":false,"shadingModel":"Phong"}},"name":"Material","pbrMetallicRoughness":{"baseColorFactor":[1,1,1,1],"baseColorTexture":{"index":0,"texCoord":0},"metallicFactor":0.400000005960464,"roughnessFactor":0.140028014779091}}],"meshes":[{"name":"Potato_01_A","primitives":[{"attributes":{"NORMAL":2,"POSITION":1,"TEXCOORD_0":3},"indices":0,"material":0,"mode":4}]}],"nodes":[{"mesh":0,"name":"Potato_01_A","rotation":[0,0,0,1],"scale":[1,1,1],"translation":[192.762619018555,0.0357263833284378,-294.370300292969]}],"samplers":[{}],"scene":0,"scenes":[{"name":"Root Scene","nodes":[0]}],"textures":[{"name":"base_color_texture","sampler":0,"source":0}]}