{"accessors":[{"bufferView":0,"byteOffset":0,"componentType":5123,"count":960,"type":"SCALAR"},{"bufferView":1,"byteOffset":0,"componentType":5126,"count":578,"max":[0.150000005960464,5.70064496994019,0.149981692433357],"min":[-0.15000000596046,0,-0.15001831948757],"type":"VEC3"},{"bufferView":2,"byteOffset":0,"componentType":5126,"count":578,"type":"VEC3"},{"bufferView":3,"byteOffset":0,"componentType":5126,"count":578,"type":"VEC2"},{"bufferView":4,"byteOffset":0,"componentType":5123,"count":828,"type":"SCALAR"},{"bufferView":5,"byteOffset":0,"componentType":5126,"count":518,"max":[0.131724759936333,0.136837586760521,3.03972887992859],"min":[-0.13172487914562,-0.35783094167709,-0.09576100856066],"type":"VEC3"},{"bufferView":6,"byteOffset":0,"componentType":5126,"count":518,"type":"VEC3"},{"bufferView":7,"byteOffset":0,"componentType":5126,"count":518,"type":"VEC2"}],"asset":{"generator":"FBX2glTF v0.13.1","version":"2.0"},"bufferViews":[{"buffer":0,"byteLength":1920,"byteOffset":0,"target":34963},{"buffer":0,"byteLength":6936,"byteOffset":1920,"target":34962},{"buffer":0,"byteLength":6936,"byteOffset":8856,"target":34962},{"buffer":0,"byteLength":4624,"byteOffset":15792,"target":34962},{"buffer":0,"byteLength":1656,"byteOffset":20416,"target":34963},{"buffer":0,"byteLength":6216,"byteOffset":22072,"target":34962},{"buffer":0,"byteLength":6216,"byteOffset":28288,"target":34962},{"buffer":0,"byteLength":4144,"byteOffset":34504,"target":34962}],"buffers":[{"byteLength":38648,"uri":"SM_RoadLight_01_A.bin"}],"images":[{"name":"MainTexture_City_4","uri":"MainTexture_City_4.png"}],"materials":[{"alphaMode":"OPAQUE","doubleSided":false,"extras":{"fromFBX":{"isTruePBR":false,"shadingModel":"Phong"}},"name":"Material.260","pbrMetallicRoughness":{"baseColorFactor":[1,1,1,1],"baseColorTexture":{"index":0,"texCoord":0},"metallicFactor":0.400000005960464,"roughnessFactor":0.140028014779091}}],"meshes":[{"name":"RoadLight_01_A","primitives":[{"attributes":{"NORMAL":2,"POSITION":1,"TEXCOORD_0":3},"indices":0,"material":0,"mode":4}]},{"name":"Light_01_B","primitives":[{"attributes":{"NORMAL":6,"POSITION":5,"TEXCOORD_0":7},"indices":4,"material":0,"mode":4}]}],"nodes":[{"children":[1],"mesh":0,"name":"RoadLight_01_A","rotation":[0,0,0,1],"scale":[1,1,1],"translation":[112.101219177246,0.0999999940395355,-294.368591308594]},{"mesh":1,"name":"Light_01_B","rotation":[0,0,0,1],"scale":[1,1,1],"translation":[0,5.42158794403076,-0.00001953124956]}],"samplers":[{}],"scene":0,"scenes":[{"name":"Root Scene","nodes":[0]}],"textures":[{"name":"base_color_texture","sampler":0,"source":0}]}