{"accessors":[{"bufferView":0,"byteOffset":0,"componentType":5123,"count":732,"type":"SCALAR"},{"bufferView":1,"byteOffset":0,"componentType":5126,"count":308,"max":[0.499992370605469,0.0280726179480553,0.150016784667969],"min":[-0.50000762939453,-0.03192737326026,-0.14998626708984],"type":"VEC3"},{"bufferView":2,"byteOffset":0,"componentType":5126,"count":308,"type":"VEC3"},{"bufferView":3,"byteOffset":0,"componentType":5126,"count":308,"type":"VEC2"}],"asset":{"generator":"FBX2glTF v0.13.1","version":"2.0"},"bufferViews":[{"buffer":0,"byteLength":1464,"byteOffset":0,"target":34963},{"buffer":0,"byteLength":3696,"byteOffset":1464,"target":34962},{"buffer":0,"byteLength":3696,"byteOffset":5160,"target":34962},{"buffer":0,"byteLength":2464,"byteOffset":8856,"target":34962}],"buffers":[{"byteLength":11320,"uri":"SM_Spillway.bin"}],"images":[{"name":"MainTexture_City_4","uri":"MainTexture_City_4.png"}],"materials":[{"alphaMode":"OPAQUE","doubleSided":false,"extras":{"fromFBX":{"isTruePBR":false,"shadingModel":"Phong"}},"name":"Material","pbrMetallicRoughness":{"baseColorFactor":[1,1,1,1],"baseColorTexture":{"index":0,"texCoord":0},"metallicFactor":0.400000005960464,"roughnessFactor":0.140028014779091}}],"meshes":[{"name":"Spillway","primitives":[{"attributes":{"NORMAL":2,"POSITION":1,"TEXCOORD_0":3},"indices":0,"material":0,"mode":4}]}],"nodes":[{"mesh":0,"name":"Spillway","rotation":[0,0,0,1],"scale":[1,1,1],"translation":[-60.2518005371094,0.00192737870384008,-60.3400268554688]}],"samplers":[{}],"scene":0,"scenes":[{"name":"Root Scene","nodes":[0]}],"textures":[{"name":"base_color_texture","sampler":0,"source":0}]}