{"accessors":[{"bufferView":0,"byteOffset":0,"componentType":5123,"count":2928,"type":"SCALAR"},{"bufferView":1,"byteOffset":0,"componentType":5126,"count":1754,"max":[0.456550925970078,0.939678847789764,0.292962640523911],"min":[-0.56826782226563,-0.00000004768371,-0.2913025021553],"type":"VEC3"},{"bufferView":2,"byteOffset":0,"componentType":5126,"count":1754,"type":"VEC3"},{"bufferView":3,"byteOffset":0,"componentType":5126,"count":1754,"type":"VEC2"}],"asset":{"generator":"FBX2glTF v0.13.1","version":"2.0"},"bufferViews":[{"buffer":0,"byteLength":5856,"byteOffset":0,"target":34963},{"buffer":0,"byteLength":21048,"byteOffset":5856,"target":34962},{"buffer":0,"byteLength":21048,"byteOffset":26904,"target":34962},{"buffer":0,"byteLength":14032,"byteOffset":47952,"target":34962}],"buffers":[{"byteLength":61984,"uri":"SM_ShopTruck_01_A.bin"}],"images":[{"name":"MainTexture_City_4","uri":"MainTexture_City_4.png"}],"materials":[{"alphaMode":"OPAQUE","doubleSided":false,"extras":{"fromFBX":{"isTruePBR":false,"shadingModel":"Phong"}},"name":"Material","pbrMetallicRoughness":{"baseColorFactor":[1,1,1,1],"baseColorTexture":{"index":0,"texCoord":0},"metallicFactor":0.400000005960464,"roughnessFactor":0.140028014779091}}],"meshes":[{"name":"ShopTruck_01_A","primitives":[{"attributes":{"NORMAL":2,"POSITION":1,"TEXCOORD_0":3},"indices":0,"material":0,"mode":4}]}],"nodes":[{"mesh":0,"name":"ShopTruck_01_A","rotation":[0,0,0,1],"scale":[1,1,1],"translation":[181.531204223633,-0.08442139625549,-294.415679931641]}],"samplers":[{}],"scene":0,"scenes":[{"name":"Root Scene","nodes":[0]}],"textures":[{"name":"base_color_texture","sampler":0,"source":0}]}