{"accessors":[{"bufferView":0,"byteOffset":0,"componentType":5123,"count":300,"type":"SCALAR"},{"bufferView":1,"byteOffset":0,"componentType":5126,"count":164,"max":[4,1.01926290988922,4],"min":[-4,-1.18482220172882,-4],"type":"VEC3"},{"bufferView":2,"byteOffset":0,"componentType":5126,"count":164,"type":"VEC3"},{"bufferView":3,"byteOffset":0,"componentType":5126,"count":164,"type":"VEC2"},{"bufferView":4,"byteOffset":0,"componentType":5123,"count":384,"type":"SCALAR"},{"bufferView":5,"byteOffset":0,"componentType":5126,"count":256,"max":[3.022292137146,0.272548794746399,3.0327000617981],"min":[-3.00766158103943,-0.11926501989365,-2.99249362945557],"type":"VEC3"},{"bufferView":6,"byteOffset":0,"componentType":5126,"count":256,"type":"VEC3"},{"bufferView":7,"byteOffset":0,"componentType":5126,"count":256,"type":"VEC2"}],"asset":{"generator":"FBX2glTF v0.13.1","version":"2.0"},"bufferViews":[{"buffer":0,"byteLength":600,"byteOffset":0,"target":34963},{"buffer":0,"byteLength":1968,"byteOffset":600,"target":34962},{"buffer":0,"byteLength":1968,"byteOffset":2568,"target":34962},{"buffer":0,"byteLength":1312,"byteOffset":4536,"target":34962},{"buffer":0,"byteLength":768,"byteOffset":5848,"target":34963},{"buffer":0,"byteLength":3072,"byteOffset":6616,"target":34962},{"buffer":0,"byteLength":3072,"byteOffset":9688,"target":34962},{"buffer":0,"byteLength":2048,"byteOffset":12760,"target":34962}],"buffers":[{"byteLength":14808,"uri":"SM_SwimmingPool_01_A.bin"}],"images":[{"name":"MainTexture_City_4","uri":"MainTexture_City_4.png"}],"materials":[{"alphaMode":"OPAQUE","doubleSided":false,"extras":{"fromFBX":{"isTruePBR":false,"shadingModel":"Phong"}},"name":"Material","pbrMetallicRoughness":{"baseColorFactor":[1,1,1,1],"baseColorTexture":{"index":0,"texCoord":0},"metallicFactor":0.400000005960464,"roughnessFactor":0.140028014779091}}],"meshes":[{"name":"SwimmingPool_01_A","primitives":[{"attributes":{"NORMAL":2,"POSITION":1,"TEXCOORD_0":3},"indices":0,"material":0,"mode":4}]},{"name":"SwimmingPoolWater_01_A","primitives":[{"attributes":{"NORMAL":6,"POSITION":5,"TEXCOORD_0":7},"indices":4,"material":0,"mode":4}]}],"nodes":[{"children":[1],"mesh":0,"name":"SwimmingPool_01_A","rotation":[0,0,0,1],"scale":[1,1,1],"translation":[62.2654190063477,0,-294.874359130859]},{"mesh":1,"name":"SwimmingPoolWater_01_A","rotation":[0,0,0,1],"scale":[1,1,1],"translation":[-0.00273437495343,0.739773035049438,-0.02724609337747]}],"samplers":[{}],"scene":0,"scenes":[{"name":"Root Scene","nodes":[0]}],"textures":[{"name":"base_color_texture","sampler":0,"source":0}]}