{"accessors":[{"bufferView":0,"byteOffset":0,"componentType":5123,"count":384,"type":"SCALAR"},{"bufferView":1,"byteOffset":0,"componentType":5126,"count":235,"max":[1.71541941165924,0.731681942939758,1.71541941165924],"min":[-1.71541929244995,0.442267298698425,-1.71541941165924],"type":"VEC3"},{"bufferView":2,"byteOffset":0,"componentType":5126,"count":235,"type":"VEC3"},{"bufferView":3,"byteOffset":0,"componentType":5126,"count":235,"type":"VEC2"},{"bufferView":4,"byteOffset":0,"componentType":5123,"count":1392,"type":"SCALAR"},{"bufferView":5,"byteOffset":0,"componentType":5126,"count":802,"max":[1.83168971538544,0.81202107667923,1.83168971538544],"min":[-1.83168935775757,0,-1.83168971538544],"type":"VEC3"},{"bufferView":6,"byteOffset":0,"componentType":5126,"count":802,"type":"VEC3"},{"bufferView":7,"byteOffset":0,"componentType":5126,"count":802,"type":"VEC2"}],"asset":{"generator":"FBX2glTF v0.13.1","version":"2.0"},"bufferViews":[{"buffer":0,"byteLength":768,"byteOffset":0,"target":34963},{"buffer":0,"byteLength":2820,"byteOffset":768,"target":34962},{"buffer":0,"byteLength":2820,"byteOffset":3588,"target":34962},{"buffer":0,"byteLength":1880,"byteOffset":6408,"target":34962},{"buffer":0,"byteLength":2784,"byteOffset":8288,"target":34963},{"buffer":0,"byteLength":9624,"byteOffset":11072,"target":34962},{"buffer":0,"byteLength":9624,"byteOffset":20696,"target":34962},{"buffer":0,"byteLength":6416,"byteOffset":30320,"target":34962}],"buffers":[{"byteLength":36736,"uri":"SM_SwimmingPool_04_A.bin"}],"images":[{"name":"MainTexture_City_4","uri":"MainTexture_City_4.png"}],"materials":[{"alphaMode":"OPAQUE","doubleSided":false,"extras":{"fromFBX":{"isTruePBR":false,"shadingModel":"Phong"}},"name":"Glass.017","pbrMetallicRoughness":{"baseColorFactor":[0.364632904529572,0.488288849592209,0.800000071525574,1],"metallicFactor":0.400000005960464,"roughnessFactor":1}},{"alphaMode":"OPAQUE","doubleSided":false,"extras":{"fromFBX":{"isTruePBR":false,"shadingModel":"Phong"}},"name":"Material","pbrMetallicRoughness":{"baseColorFactor":[1,1,1,1],"baseColorTexture":{"index":0,"texCoord":0},"metallicFactor":0.400000005960464,"roughnessFactor":0.140028014779091}}],"meshes":[{"name":"SwimmingPool_04_A","primitives":[{"attributes":{"NORMAL":2,"POSITION":1,"TEXCOORD_0":3},"indices":0,"material":1,"mode":4},{"attributes":{"NORMAL":6,"POSITION":5,"TEXCOORD_0":7},"indices":4,"material":0,"mode":4}]}],"nodes":[{"mesh":0,"name":"SwimmingPool_04_A","rotation":[0,0,0,1],"scale":[1,1,1],"translation":[89.9422760009766,0,-295.332366943359]}],"samplers":[{}],"scene":0,"scenes":[{"name":"Root Scene","nodes":[0]}],"textures":[{"name":"base_color_texture","sampler":0,"source":0}]}