{"accessors":[{"bufferView":0,"byteOffset":0,"componentType":5123,"count":408,"type":"SCALAR"},{"bufferView":1,"byteOffset":0,"componentType":5126,"count":214,"max":[1,0.0662553384900093,0.349999994039536],"min":[-1,-0.06625533849001,-0.34999999403954],"type":"VEC3"},{"bufferView":2,"byteOffset":0,"componentType":5126,"count":214,"type":"VEC3"},{"bufferView":3,"byteOffset":0,"componentType":5126,"count":214,"type":"VEC2"}],"asset":{"generator":"FBX2glTF v0.13.1","version":"2.0"},"bufferViews":[{"buffer":0,"byteLength":816,"byteOffset":0,"target":34963},{"buffer":0,"byteLength":2568,"byteOffset":816,"target":34962},{"buffer":0,"byteLength":2568,"byteOffset":3384,"target":34962},{"buffer":0,"byteLength":1712,"byteOffset":5952,"target":34962}],"buffers":[{"byteLength":7664,"uri":"SM_SwimmingMattress.bin"}],"images":[{"name":"MainTexture_City_4","uri":"MainTexture_City_4.png"}],"materials":[{"alphaMode":"OPAQUE","doubleSided":false,"extras":{"fromFBX":{"isTruePBR":false,"shadingModel":"Phong"}},"name":"Material","pbrMetallicRoughness":{"baseColorFactor":[1,1,1,1],"baseColorTexture":{"index":0,"texCoord":0},"metallicFactor":0.400000005960464,"roughnessFactor":0.140028014779091}}],"meshes":[{"name":"SwimmingMattress","primitives":[{"attributes":{"NORMAL":2,"POSITION":1,"TEXCOORD_0":3},"indices":0,"material":0,"mode":4}]}],"nodes":[{"mesh":0,"name":"SwimmingMattress","rotation":[0,0,0,1],"scale":[1,1,1],"translation":[-106.232231140137,0,-60.0163612365723]}],"samplers":[{}],"scene":0,"scenes":[{"name":"Root Scene","nodes":[0]}],"textures":[{"name":"base_color_texture","sampler":0,"source":0}]}