{"accessors":[{"bufferView":0,"byteOffset":0,"componentType":5123,"count":276,"type":"SCALAR"},{"bufferView":1,"byteOffset":0,"componentType":5126,"count":136,"max":[0.5,1.58548474311829,0.5],"min":[-0.5,0,-0.5],"type":"VEC3"},{"bufferView":2,"byteOffset":0,"componentType":5126,"count":136,"type":"VEC3"},{"bufferView":3,"byteOffset":0,"componentType":5126,"count":136,"type":"VEC2"}],"asset":{"generator":"FBX2glTF v0.13.1","version":"2.0"},"bufferViews":[{"buffer":0,"byteLength":552,"byteOffset":0,"target":34963},{"buffer":0,"byteLength":1632,"byteOffset":552,"target":34962},{"buffer":0,"byteLength":1632,"byteOffset":2184,"target":34962},{"buffer":0,"byteLength":1088,"byteOffset":3816,"target":34962}],"buffers":[{"byteLength":4904,"uri":"SM_Stylage_04_A.bin"}],"images":[{"name":"MainTexture_City_4","uri":"MainTexture_City_4.png"}],"materials":[{"alphaMode":"OPAQUE","doubleSided":false,"extras":{"fromFBX":{"isTruePBR":false,"shadingModel":"Phong"}},"name":"Material","pbrMetallicRoughness":{"baseColorFactor":[1,1,1,1],"baseColorTexture":{"index":0,"texCoord":0},"metallicFactor":0.400000005960464,"roughnessFactor":0.140028014779091}}],"meshes":[{"name":"Stylage_04_A","primitives":[{"attributes":{"NORMAL":2,"POSITION":1,"TEXCOORD_0":3},"indices":0,"material":0,"mode":4}]}],"nodes":[{"mesh":0,"name":"Stylage_04_A","rotation":[0,0,0,1],"scale":[1,1,1],"translation":[184.94401550293,0.0999999940395355,-291.037658691406]}],"samplers":[{}],"scene":0,"scenes":[{"name":"Root Scene","nodes":[0]}],"textures":[{"name":"base_color_texture","sampler":0,"source":0}]}