{"accessors":[{"bufferView":0,"byteOffset":0,"componentType":5123,"count":768,"type":"SCALAR"},{"bufferView":1,"byteOffset":0,"componentType":5126,"count":460,"max":[0.251651018857956,0.760820209980011,0.181347116827965],"min":[-0.24834895133972,-1.23917973041534,-0.41865286231041],"type":"VEC3"},{"bufferView":2,"byteOffset":0,"componentType":5126,"count":460,"type":"VEC3"},{"bufferView":3,"byteOffset":0,"componentType":5126,"count":460,"type":"VEC2"}],"asset":{"generator":"FBX2glTF v0.13.1","version":"2.0"},"bufferViews":[{"buffer":0,"byteLength":1536,"byteOffset":0,"target":34963},{"buffer":0,"byteLength":5520,"byteOffset":1536,"target":34962},{"buffer":0,"byteLength":5520,"byteOffset":7056,"target":34962},{"buffer":0,"byteLength":3680,"byteOffset":12576,"target":34962}],"buffers":[{"byteLength":16256,"uri":"SM_SwimmingStairs_01_A.bin"}],"images":[{"name":"MainTexture_City_4","uri":"MainTexture_City_4.png"}],"materials":[{"alphaMode":"OPAQUE","doubleSided":false,"extras":{"fromFBX":{"isTruePBR":false,"shadingModel":"Phong"}},"name":"Material.281","pbrMetallicRoughness":{"baseColorFactor":[1,1,1,1],"baseColorTexture":{"index":0,"texCoord":0},"metallicFactor":0.400000005960464,"roughnessFactor":0.140028014779091}}],"meshes":[{"name":"SwimmingStairs_01_A","primitives":[{"attributes":{"NORMAL":2,"POSITION":1,"TEXCOORD_0":3},"indices":0,"material":0,"mode":4}]}],"nodes":[{"mesh":0,"name":"SwimmingStairs_01_A","rotation":[0,0,0,1],"scale":[1,1,1],"translation":[106.978080749512,0.435019284486771,-294.711273193359]}],"samplers":[{}],"scene":0,"scenes":[{"name":"Root Scene","nodes":[0]}],"textures":[{"name":"base_color_texture","sampler":0,"source":0}]}