{"accessors":[{"bufferView":0,"byteOffset":0,"componentType":5123,"count":228,"type":"SCALAR"},{"bufferView":1,"byteOffset":0,"componentType":5126,"count":114,"max":[1,1.20000004768372,0.367575526237488],"min":[-1,0,-0.29998171329498],"type":"VEC3"},{"bufferView":2,"byteOffset":0,"componentType":5126,"count":114,"type":"VEC3"},{"bufferView":3,"byteOffset":0,"componentType":5126,"count":114,"type":"VEC2"}],"asset":{"generator":"FBX2glTF v0.13.1","version":"2.0"},"bufferViews":[{"buffer":0,"byteLength":456,"byteOffset":0,"target":34963},{"buffer":0,"byteLength":1368,"byteOffset":456,"target":34962},{"buffer":0,"byteLength":1368,"byteOffset":1824,"target":34962},{"buffer":0,"byteLength":912,"byteOffset":3192,"target":34962}],"buffers":[{"byteLength":4104,"uri":"SM_ShopTable_02_A.bin"}],"images":[{"name":"MainTexture_City_4","uri":"MainTexture_City_4.png"}],"materials":[{"alphaMode":"OPAQUE","doubleSided":false,"extras":{"fromFBX":{"isTruePBR":false,"shadingModel":"Phong"}},"name":"Material","pbrMetallicRoughness":{"baseColorFactor":[1,1,1,1],"baseColorTexture":{"index":0,"texCoord":0},"metallicFactor":0.400000005960464,"roughnessFactor":0.140028014779091}}],"meshes":[{"name":"ShopTable_02_A","primitives":[{"attributes":{"NORMAL":2,"POSITION":1,"TEXCOORD_0":3},"indices":0,"material":0,"mode":4}]}],"nodes":[{"mesh":0,"name":"ShopTable_02_A","rotation":[0,0,0,1],"scale":[1,1,1],"translation":[173.975402832031,0,-294.368621826172]}],"samplers":[{}],"scene":0,"scenes":[{"name":"Root Scene","nodes":[0]}],"textures":[{"name":"base_color_texture","sampler":0,"source":0}]}