{"accessors":[{"bufferView":0,"byteOffset":0,"componentType":5123,"count":1344,"type":"SCALAR"},{"bufferView":1,"byteOffset":0,"componentType":5126,"count":928,"max":[0.524199187755585,0.687138497829437,0.456581443548203],"min":[-0.43274921178818,-0.00408327579498,-0.45368960499764],"type":"VEC3"},{"bufferView":2,"byteOffset":0,"componentType":5126,"count":928,"type":"VEC3"},{"bufferView":3,"byteOffset":0,"componentType":5126,"count":928,"type":"VEC2"}],"asset":{"generator":"FBX2glTF v0.13.1","version":"2.0"},"bufferViews":[{"buffer":0,"byteLength":2688,"byteOffset":0,"target":34963},{"buffer":0,"byteLength":11136,"byteOffset":2688,"target":34962},{"buffer":0,"byteLength":11136,"byteOffset":13824,"target":34962},{"buffer":0,"byteLength":7424,"byteOffset":24960,"target":34962}],"buffers":[{"byteLength":32384,"uri":"SM_Sofa_02_A.bin"}],"images":[{"name":"MainTexture_City_4","uri":"MainTexture_City_4.png"}],"materials":[{"alphaMode":"OPAQUE","doubleSided":false,"extras":{"fromFBX":{"isTruePBR":false,"shadingModel":"Phong"}},"name":"Material","pbrMetallicRoughness":{"baseColorFactor":[1,1,1,1],"baseColorTexture":{"index":0,"texCoord":0},"metallicFactor":0.400000005960464,"roughnessFactor":0.140028014779091}}],"meshes":[{"name":"Sofa_02_A","primitives":[{"attributes":{"NORMAL":2,"POSITION":1,"TEXCOORD_0":3},"indices":0,"material":0,"mode":4}]}],"nodes":[{"mesh":0,"name":"Sofa_02_A","rotation":[0,0,0,1],"scale":[1,1,1],"translation":[-6.66829395294189,0.100872963666916,-56.470832824707]}],"samplers":[{}],"scene":0,"scenes":[{"name":"Root Scene","nodes":[0]}],"textures":[{"name":"base_color_texture","sampler":0,"source":0}]}