{"accessors":[{"bufferView":0,"byteOffset":0,"componentType":5123,"count":1332,"type":"SCALAR"},{"bufferView":1,"byteOffset":0,"componentType":5126,"count":572,"max":[1.04037988185883,2.03169727325439,0.25],"min":[-1.04037964344025,0,-0.25],"type":"VEC3"},{"bufferView":2,"byteOffset":0,"componentType":5126,"count":572,"type":"VEC3"},{"bufferView":3,"byteOffset":0,"componentType":5126,"count":572,"type":"VEC2"}],"asset":{"generator":"FBX2glTF v0.13.1","version":"2.0"},"bufferViews":[{"buffer":0,"byteLength":2664,"byteOffset":0,"target":34963},{"buffer":0,"byteLength":6864,"byteOffset":2664,"target":34962},{"buffer":0,"byteLength":6864,"byteOffset":9528,"target":34962},{"buffer":0,"byteLength":4576,"byteOffset":16392,"target":34962}],"buffers":[{"byteLength":20968,"uri":"SM_Styling.bin"}],"images":[{"name":"MainTexture_City_4","uri":"MainTexture_City_4.png"}],"materials":[{"alphaMode":"OPAQUE","doubleSided":false,"extras":{"fromFBX":{"isTruePBR":false,"shadingModel":"Phong"}},"name":"Material","pbrMetallicRoughness":{"baseColorFactor":[1,1,1,1],"baseColorTexture":{"index":0,"texCoord":0},"metallicFactor":0.400000005960464,"roughnessFactor":0.140028014779091}}],"meshes":[{"name":"Styling","primitives":[{"attributes":{"NORMAL":2,"POSITION":1,"TEXCOORD_0":3},"indices":0,"material":0,"mode":4}]}],"nodes":[{"mesh":0,"name":"Styling","rotation":[0,0,0,1],"scale":[1,1,1],"translation":[-119.764801025391,0,-60.0163612365723]}],"samplers":[{}],"scene":0,"scenes":[{"name":"Root Scene","nodes":[0]}],"textures":[{"name":"base_color_texture","sampler":0,"source":0}]}