{"accessors":[{"bufferView":0,"byteOffset":0,"componentType":5123,"count":1392,"type":"SCALAR"},{"bufferView":1,"byteOffset":0,"componentType":5126,"count":903,"max":[0.39460551738739,0.272720992565155,0.300311923027039],"min":[-0.40276125073433,-0.00340697169304,-0.34775611758232],"type":"VEC3"},{"bufferView":2,"byteOffset":0,"componentType":5126,"count":903,"type":"VEC3"},{"bufferView":3,"byteOffset":0,"componentType":5126,"count":903,"type":"VEC2"}],"asset":{"generator":"FBX2glTF v0.13.1","version":"2.0"},"bufferViews":[{"buffer":0,"byteLength":2784,"byteOffset":0,"target":34963},{"buffer":0,"byteLength":10836,"byteOffset":2784,"target":34962},{"buffer":0,"byteLength":10836,"byteOffset":13620,"target":34962},{"buffer":0,"byteLength":7224,"byteOffset":24456,"target":34962}],"buffers":[{"byteLength":31680,"uri":"SM_Sofa_03_A.bin"}],"images":[{"name":"MainTexture_City_4","uri":"MainTexture_City_4.png"}],"materials":[{"alphaMode":"OPAQUE","doubleSided":false,"extras":{"fromFBX":{"isTruePBR":false,"shadingModel":"Phong"}},"name":"Material","pbrMetallicRoughness":{"baseColorFactor":[1,1,1,1],"baseColorTexture":{"index":0,"texCoord":0},"metallicFactor":0.400000005960464,"roughnessFactor":0.140028014779091}}],"meshes":[{"name":"Sofa_03_A","primitives":[{"attributes":{"NORMAL":2,"POSITION":1,"TEXCOORD_0":3},"indices":0,"material":0,"mode":4}]}],"nodes":[{"mesh":0,"name":"Sofa_03_A","rotation":[0,0,0,1],"scale":[1,1,1],"translation":[-5.5778923034668,0.121803253889084,-56.5204086303711]}],"samplers":[{}],"scene":0,"scenes":[{"name":"Root Scene","nodes":[0]}],"textures":[{"name":"base_color_texture","sampler":0,"source":0}]}