{"accessors":[{"bufferView":0,"byteOffset":0,"componentType":5123,"count":3096,"type":"SCALAR"},{"bufferView":1,"byteOffset":0,"componentType":5126,"count":1663,"max":[0.239980444312096,0.369708389043808,0.240019485354424],"min":[-0.24001948535442,-0.00000002384186,-0.2399804443121],"type":"VEC3"},{"bufferView":2,"byteOffset":0,"componentType":5126,"count":1663,"type":"VEC3"},{"bufferView":3,"byteOffset":0,"componentType":5126,"count":1663,"type":"VEC2"},{"bufferView":4,"byteOffset":0,"componentType":5123,"count":2160,"type":"SCALAR"},{"bufferView":5,"byteOffset":0,"componentType":5126,"count":1008,"max":[0.195475190877914,0.243097886443138,1.80103695392609],"min":[-0.19547519087791,0.0211437381803989,-1.80103695392609],"type":"VEC3"},{"bufferView":6,"byteOffset":0,"componentType":5126,"count":1008,"type":"VEC3"},{"bufferView":7,"byteOffset":0,"componentType":5126,"count":1008,"type":"VEC2"}],"asset":{"generator":"FBX2glTF v0.13.1","version":"2.0"},"bufferViews":[{"buffer":0,"byteLength":6192,"byteOffset":0,"target":34963},{"buffer":0,"byteLength":19956,"byteOffset":6192,"target":34962},{"buffer":0,"byteLength":19956,"byteOffset":26148,"target":34962},{"buffer":0,"byteLength":13304,"byteOffset":46104,"target":34962},{"buffer":0,"byteLength":4320,"byteOffset":59408,"target":34963},{"buffer":0,"byteLength":12096,"byteOffset":63728,"target":34962},{"buffer":0,"byteLength":12096,"byteOffset":75824,"target":34962},{"buffer":0,"byteLength":8064,"byteOffset":87920,"target":34962}],"buffers":[{"byteLength":95984,"uri":"SM_Swing_02_A.bin"}],"images":[{"name":"MainTexture_City_4","uri":"MainTexture_City_4.png"}],"materials":[{"alphaMode":"OPAQUE","doubleSided":false,"extras":{"fromFBX":{"isTruePBR":false,"shadingModel":"Phong"}},"name":"Material","pbrMetallicRoughness":{"baseColorFactor":[1,1,1,1],"baseColorTexture":{"index":0,"texCoord":0},"metallicFactor":0.400000005960464,"roughnessFactor":0.140028014779091}}],"meshes":[{"name":"Swing_02_A","primitives":[{"attributes":{"NORMAL":2,"POSITION":1,"TEXCOORD_0":3},"indices":0,"material":0,"mode":4}]},{"name":"Swing_02_B","primitives":[{"attributes":{"NORMAL":6,"POSITION":5,"TEXCOORD_0":7},"indices":4,"material":0,"mode":4}]}],"nodes":[{"children":[1],"mesh":0,"name":"Swing_02_A","rotation":[0,0,0,1],"scale":[1,1,1],"translation":[137.87109375,-0.1097510010004,-294.368621826172]},{"mesh":1,"name":"Swing_02_B","rotation":[0,0,0,1],"scale":[1,1,1],"translation":[-0.00000976562478,0.10975094884634,0.0000195312495634425]}],"samplers":[{}],"scene":0,"scenes":[{"name":"Root Scene","nodes":[0]}],"textures":[{"name":"base_color_texture","sampler":0,"source":0}]}