{"accessors":[{"bufferView":0,"byteOffset":0,"componentType":5123,"count":1338,"type":"SCALAR"},{"bufferView":1,"byteOffset":0,"componentType":5126,"count":812,"max":[0.332999914884567,2.84057116508484,0.476059228181839],"min":[-0.33299991488457,-0.00766861438751,-0.45766994357109],"type":"VEC3"},{"bufferView":2,"byteOffset":0,"componentType":5126,"count":812,"type":"VEC3"},{"bufferView":3,"byteOffset":0,"componentType":5126,"count":812,"type":"VEC2"}],"asset":{"generator":"FBX2glTF v0.13.1","version":"2.0"},"bufferViews":[{"buffer":0,"byteLength":2676,"byteOffset":0,"target":34963},{"buffer":0,"byteLength":9744,"byteOffset":2676,"target":34962},{"buffer":0,"byteLength":9744,"byteOffset":12420,"target":34962},{"buffer":0,"byteLength":6496,"byteOffset":22164,"target":34962}],"buffers":[{"byteLength":28660,"uri":"SM_Stairs02.bin"}],"images":[{"name":"MainTexture_City_4","uri":"MainTexture_City_4.png"}],"materials":[{"alphaMode":"OPAQUE","doubleSided":false,"extras":{"fromFBX":{"isTruePBR":false,"shadingModel":"Phong"}},"name":"Material","pbrMetallicRoughness":{"baseColorFactor":[1,1,1,1],"baseColorTexture":{"index":0,"texCoord":0},"metallicFactor":0.400000005960464,"roughnessFactor":0.140028014779091}}],"meshes":[{"name":"Stairs02","primitives":[{"attributes":{"NORMAL":2,"POSITION":1,"TEXCOORD_0":3},"indices":0,"material":0,"mode":4}]}],"nodes":[{"mesh":0,"name":"Stairs02","rotation":[0,0,0,1],"scale":[1,1,1],"translation":[-124.033447265625,-0.0307492017746,-59.9686737060547]}],"samplers":[{}],"scene":0,"scenes":[{"name":"Root Scene","nodes":[0]}],"textures":[{"name":"base_color_texture","sampler":0,"source":0}]}