{"accessors":[{"bufferView":0,"byteOffset":0,"componentType":5123,"count":192,"type":"SCALAR"},{"bufferView":1,"byteOffset":0,"componentType":5126,"count":100,"max":[0.640968680381775,0.267167568206787,0.142738342285156],"min":[-0.64997380971909,0,-0.14274597167969],"type":"VEC3"},{"bufferView":2,"byteOffset":0,"componentType":5126,"count":100,"type":"VEC3"},{"bufferView":3,"byteOffset":0,"componentType":5126,"count":100,"type":"VEC2"}],"asset":{"generator":"FBX2glTF v0.13.1","version":"2.0"},"bufferViews":[{"buffer":0,"byteLength":384,"byteOffset":0,"target":34963},{"buffer":0,"byteLength":1200,"byteOffset":384,"target":34962},{"buffer":0,"byteLength":1200,"byteOffset":1584,"target":34962},{"buffer":0,"byteLength":800,"byteOffset":2784,"target":34962}],"buffers":[{"byteLength":3584,"uri":"SM_Shelf_01_A.bin"}],"images":[{"name":"MainTexture_City_4","uri":"MainTexture_City_4.png"}],"materials":[{"alphaMode":"OPAQUE","doubleSided":false,"extras":{"fromFBX":{"isTruePBR":false,"shadingModel":"Phong"}},"name":"Material","pbrMetallicRoughness":{"baseColorFactor":[1,1,1,1],"baseColorTexture":{"index":0,"texCoord":0},"metallicFactor":0.400000005960464,"roughnessFactor":0.140028014779091}}],"meshes":[{"name":"Shelf_01_A","primitives":[{"attributes":{"NORMAL":2,"POSITION":1,"TEXCOORD_0":3},"indices":0,"material":0,"mode":4}]}],"nodes":[{"mesh":0,"name":"Shelf_01_A","rotation":[0,0,0,1],"scale":[1,1,1],"translation":[-20.9969215393066,0.018316401168704,-55.0099983215332]}],"samplers":[{}],"scene":0,"scenes":[{"name":"Root Scene","nodes":[0]}],"textures":[{"name":"base_color_texture","sampler":0,"source":0}]}