{"accessors":[{"bufferView":0,"byteOffset":0,"componentType":5123,"count":1134,"type":"SCALAR"},{"bufferView":1,"byteOffset":0,"componentType":5126,"count":696,"max":[1.17925727367401,1.14698302745819,0.69183075428009],"min":[-1.14950776100159,-0.0032915994525,-0.56694042682648],"type":"VEC3"},{"bufferView":2,"byteOffset":0,"componentType":5126,"count":696,"type":"VEC3"},{"bufferView":3,"byteOffset":0,"componentType":5126,"count":696,"type":"VEC2"}],"asset":{"generator":"FBX2glTF v0.13.1","version":"2.0"},"bufferViews":[{"buffer":0,"byteLength":2268,"byteOffset":0,"target":34963},{"buffer":0,"byteLength":8352,"byteOffset":2268,"target":34962},{"buffer":0,"byteLength":8352,"byteOffset":10620,"target":34962},{"buffer":0,"byteLength":5568,"byteOffset":18972,"target":34962}],"buffers":[{"byteLength":24540,"uri":"SM_Sofa_01_D.bin"}],"images":[{"name":"MainTexture_City_4","uri":"MainTexture_City_4.png"}],"materials":[{"alphaMode":"OPAQUE","doubleSided":false,"extras":{"fromFBX":{"isTruePBR":false,"shadingModel":"Phong"}},"name":"Material.240","pbrMetallicRoughness":{"baseColorFactor":[1,1,1,1],"baseColorTexture":{"index":0,"texCoord":0},"metallicFactor":0.400000005960464,"roughnessFactor":0.140028014779091}}],"meshes":[{"name":"Sofa_01_D","primitives":[{"attributes":{"NORMAL":2,"POSITION":1,"TEXCOORD_0":3},"indices":0,"material":0,"mode":4}]}],"nodes":[{"mesh":0,"name":"Sofa_01_D","rotation":[0,0,0,1],"scale":[1,1,1],"translation":[-14.6127281188965,0.0147923827171326,-62.4152526855469]}],"samplers":[{}],"scene":0,"scenes":[{"name":"Root Scene","nodes":[0]}],"textures":[{"name":"base_color_texture","sampler":0,"source":0}]}