{"accessors":[{"bufferView":0,"byteOffset":0,"componentType":5123,"count":486,"type":"SCALAR"},{"bufferView":1,"byteOffset":0,"componentType":5126,"count":403,"max":[1.0015013217926,28.6745128631592,0.962841093540192],"min":[-0.96586674451828,-31.3823356628418,-1.00129389762878],"type":"VEC3"},{"bufferView":2,"byteOffset":0,"componentType":5126,"count":403,"type":"VEC3"},{"bufferView":3,"byteOffset":0,"componentType":5126,"count":403,"type":"VEC2"}],"asset":{"generator":"FBX2glTF v0.13.1","version":"2.0"},"bufferViews":[{"buffer":0,"byteLength":972,"byteOffset":0,"target":34963},{"buffer":0,"byteLength":4836,"byteOffset":972,"target":34962},{"buffer":0,"byteLength":4836,"byteOffset":5808,"target":34962},{"buffer":0,"byteLength":3224,"byteOffset":10644,"target":34962}],"buffers":[{"byteLength":13868,"uri":"SM_Sand_01_C.bin"}],"images":[{"name":"MainTexture_City_4","uri":"MainTexture_City_4.png"}],"materials":[{"alphaMode":"OPAQUE","doubleSided":false,"extras":{"fromFBX":{"isTruePBR":false,"shadingModel":"Phong"}},"name":"Material.304","pbrMetallicRoughness":{"baseColorFactor":[1,1,1,1],"baseColorTexture":{"index":0,"texCoord":0},"metallicFactor":0.400000005960464,"roughnessFactor":0.140028014779091}}],"meshes":[{"name":"Sand_01_C","primitives":[{"attributes":{"NORMAL":2,"POSITION":1,"TEXCOORD_0":3},"indices":0,"material":0,"mode":4}]}],"nodes":[{"mesh":0,"name":"Sand_01_C","rotation":[-0,0.70710676908493,0,0.707106828689575],"scale":[3.04975962638855,0.025000000372529,2.03652000427246],"translation":[239.356750488281,-0.96270960569382,-272.631530761719]}],"samplers":[{}],"scene":0,"scenes":[{"name":"Root Scene","nodes":[0]}],"textures":[{"name":"base_color_texture","sampler":0,"source":0}]}