{"accessors":[{"bufferView":0,"byteOffset":0,"componentType":5123,"count":756,"type":"SCALAR"},{"bufferView":1,"byteOffset":0,"componentType":5126,"count":348,"max":[1,0.0369243994355202,0.300004601478577],"min":[-1,-0.13204555213451,0.00000457763690064894],"type":"VEC3"},{"bufferView":2,"byteOffset":0,"componentType":5126,"count":348,"type":"VEC3"},{"bufferView":3,"byteOffset":0,"componentType":5126,"count":348,"type":"VEC2"}],"asset":{"generator":"FBX2glTF v0.13.1","version":"2.0"},"bufferViews":[{"buffer":0,"byteLength":1512,"byteOffset":0,"target":34963},{"buffer":0,"byteLength":4176,"byteOffset":1512,"target":34962},{"buffer":0,"byteLength":4176,"byteOffset":5688,"target":34962},{"buffer":0,"byteLength":2784,"byteOffset":9864,"target":34962}],"buffers":[{"byteLength":12648,"uri":"SM_Shelf.bin"}],"images":[{"name":"MainTexture_City_4","uri":"MainTexture_City_4.png"}],"materials":[{"alphaMode":"OPAQUE","doubleSided":false,"extras":{"fromFBX":{"isTruePBR":false,"shadingModel":"Phong"}},"name":"Material","pbrMetallicRoughness":{"baseColorFactor":[1,1,1,1],"baseColorTexture":{"index":0,"texCoord":0},"metallicFactor":0.400000005960464,"roughnessFactor":0.140028014779091}}],"meshes":[{"name":"Shelf","primitives":[{"attributes":{"NORMAL":2,"POSITION":1,"TEXCOORD_0":3},"indices":0,"material":0,"mode":4}]}],"nodes":[{"mesh":0,"name":"Shelf","rotation":[0,0,0,1],"scale":[1,1,1],"translation":[-117.600280761719,0.160612195730209,-60.1663665771484]}],"samplers":[{}],"scene":0,"scenes":[{"name":"Root Scene","nodes":[0]}],"textures":[{"name":"base_color_texture","sampler":0,"source":0}]}