{"accessors":[{"bufferView":0,"byteOffset":0,"componentType":5123,"count":3888,"type":"SCALAR"},{"bufferView":1,"byteOffset":0,"componentType":5126,"count":1572,"max":[0.5,1.5,0.233978152275085],"min":[-0.5,0.0000000596046447753906,-0.23397815227509],"type":"VEC3"},{"bufferView":2,"byteOffset":0,"componentType":5126,"count":1572,"type":"VEC3"},{"bufferView":3,"byteOffset":0,"componentType":5126,"count":1572,"type":"VEC2"}],"asset":{"generator":"FBX2glTF v0.13.1","version":"2.0"},"bufferViews":[{"buffer":0,"byteLength":7776,"byteOffset":0,"target":34963},{"buffer":0,"byteLength":18864,"byteOffset":7776,"target":34962},{"buffer":0,"byteLength":18864,"byteOffset":26640,"target":34962},{"buffer":0,"byteLength":12576,"byteOffset":45504,"target":34962}],"buffers":[{"byteLength":58080,"uri":"SM_Stylage_01_A.bin"}],"images":[{"name":"MainTexture_City_4","uri":"MainTexture_City_4.png"}],"materials":[{"alphaMode":"OPAQUE","doubleSided":false,"extras":{"fromFBX":{"isTruePBR":false,"shadingModel":"Phong"}},"name":"Material","pbrMetallicRoughness":{"baseColorFactor":[1,1,1,1],"baseColorTexture":{"index":0,"texCoord":0},"metallicFactor":0.400000005960464,"roughnessFactor":0.140028014779091}}],"meshes":[{"name":"Stylage_01_A","primitives":[{"attributes":{"NORMAL":2,"POSITION":1,"TEXCOORD_0":3},"indices":0,"material":0,"mode":4}]}],"nodes":[{"mesh":0,"name":"Stylage_01_A","rotation":[0,0,0,1],"scale":[1,1,1],"translation":[161.842391967773,-0.43827670812607,-293.373077392578]}],"samplers":[{}],"scene":0,"scenes":[{"name":"Root Scene","nodes":[0]}],"textures":[{"name":"base_color_texture","sampler":0,"source":0}]}