{"accessors":[{"bufferView":0,"byteOffset":0,"componentType":5123,"count":2544,"type":"SCALAR"},{"bufferView":1,"byteOffset":0,"componentType":5126,"count":1356,"max":[1.15721702575684,1.82522118091583,1.16638505458832],"min":[-1.15722560882568,0,-1.16645014286041],"type":"VEC3"},{"bufferView":2,"byteOffset":0,"componentType":5126,"count":1356,"type":"VEC3"},{"bufferView":3,"byteOffset":0,"componentType":5126,"count":1356,"type":"VEC2"},{"bufferView":4,"byteOffset":0,"componentType":5123,"count":8280,"type":"SCALAR"},{"bufferView":5,"byteOffset":0,"componentType":5126,"count":5522,"max":[0.0113257141783834,0.00075680512236431,0.1734299659729],"min":[-0.01094057504088,-1.60692667961121,-0.00992226786911],"type":"VEC3"},{"bufferView":6,"byteOffset":0,"componentType":5126,"count":5522,"type":"VEC3"},{"bufferView":7,"byteOffset":0,"componentType":5126,"count":5522,"type":"VEC2"},{"bufferView":8,"byteOffset":0,"componentType":5123,"count":132,"type":"SCALAR"},{"bufferView":9,"byteOffset":0,"componentType":5126,"count":88,"max":[0.215607941150665,0.00213559553958476,0.450638264417648],"min":[-0.21400110423565,-1.13972389698029,-0.00641442835331],"type":"VEC3"},{"bufferView":10,"byteOffset":0,"componentType":5126,"count":88,"type":"VEC3"},{"bufferView":11,"byteOffset":0,"componentType":5126,"count":88,"type":"VEC2"}],"asset":{"generator":"FBX2glTF v0.13.1","version":"2.0"},"bufferViews":[{"buffer":0,"byteLength":5088,"byteOffset":0,"target":34963},{"buffer":0,"byteLength":16272,"byteOffset":5088,"target":34962},{"buffer":0,"byteLength":16272,"byteOffset":21360,"target":34962},{"buffer":0,"byteLength":10848,"byteOffset":37632,"target":34962},{"buffer":0,"byteLength":16560,"byteOffset":48480,"target":34963},{"buffer":0,"byteLength":66264,"byteOffset":65040,"target":34962},{"buffer":0,"byteLength":66264,"byteOffset":131304,"target":34962},{"buffer":0,"byteLength":44176,"byteOffset":197568,"target":34962},{"buffer":0,"byteLength":264,"byteOffset":241744,"target":34963},{"buffer":0,"byteLength":1056,"byteOffset":242008,"target":34962},{"buffer":0,"byteLength":1056,"byteOffset":243064,"target":34962},{"buffer":0,"byteLength":704,"byteOffset":244120,"target":34962}],"buffers":[{"byteLength":244824,"uri":"SM_Swing_01_A.bin"}],"images":[{"name":"MainTexture_City_4","uri":"MainTexture_City_4.png"}],"materials":[{"alphaMode":"OPAQUE","doubleSided":false,"extras":{"fromFBX":{"isTruePBR":false,"shadingModel":"Phong"}},"name":"Material","pbrMetallicRoughness":{"baseColorFactor":[1,1,1,1],"baseColorTexture":{"index":0,"texCoord":0},"metallicFactor":0.400000005960464,"roughnessFactor":0.140028014779091}},{"alphaMode":"OPAQUE","doubleSided":false,"extras":{"fromFBX":{"isTruePBR":false,"shadingModel":"Phong"}},"name":"Material.290","pbrMetallicRoughness":{"baseColorFactor":[1,1,1,1],"baseColorTexture":{"index":0,"texCoord":0},"metallicFactor":0.400000005960464,"roughnessFactor":0.140028014779091}}],"meshes":[{"name":"Swing_01_A","primitives":[{"attributes":{"NORMAL":2,"POSITION":1,"TEXCOORD_0":3},"indices":0,"material":0,"mode":4}]},{"name":"Rope_01_A","primitives":[{"attributes":{"NORMAL":6,"POSITION":5,"TEXCOORD_0":7},"indices":4,"material":1,"mode":4}]},{"name":"Swing_01_B","primitives":[{"attributes":{"NORMAL":10,"POSITION":9,"TEXCOORD_0":11},"indices":8,"material":1,"mode":4}]}],"nodes":[{"children":[1,2],"mesh":0,"name":"Swing_01_A","rotation":[0,0,0,1],"scale":[1,1,1],"translation":[135.712661743164,-0.00000013411045,-293.793701171875]},{"mesh":1,"name":"Rope_01_A","rotation":[0,0,0,1],"scale":[1,1,1],"translation":[0.549404263496399,1.68847489356995,0.00044921872904524]},{"mesh":2,"name":"Swing_01_B","rotation":[0,0,0,1],"scale":[1,1,1],"translation":[-0.588134765625,1.69034385681152,0.00013671875058207]}],"samplers":[{}],"scene":0,"scenes":[{"name":"Root Scene","nodes":[0]}],"textures":[{"name":"base_color_texture","sampler":0,"source":0}]}