{"accessors":[{"bufferView":0,"byteOffset":0,"componentType":5123,"count":5898,"type":"SCALAR"},{"bufferView":1,"byteOffset":0,"componentType":5126,"count":3675,"max":[0.0994940176606178,0.0795559510588646,0.0271343104541302],"min":[-0.21251106262207,-0.13302429020405,-0.02714509889483],"type":"VEC3"},{"bufferView":2,"byteOffset":0,"componentType":5126,"count":3675,"type":"VEC3"},{"bufferView":3,"byteOffset":0,"componentType":5126,"count":3675,"type":"VEC2"},{"bufferView":4,"byteOffset":0,"componentType":5123,"count":792,"type":"SCALAR"},{"bufferView":5,"byteOffset":0,"componentType":5126,"count":450,"max":[0.0412407144904137,0.0306734144687653,0.02858005464077],"min":[-0.08487453311682,-0.01284986920655,-0.02858005464077],"type":"VEC3"},{"bufferView":6,"byteOffset":0,"componentType":5126,"count":450,"type":"VEC3"},{"bufferView":7,"byteOffset":0,"componentType":5126,"count":450,"type":"VEC2"}],"asset":{"generator":"FBX2glTF v0.13.1","version":"2.0"},"bufferViews":[{"buffer":0,"byteLength":11796,"byteOffset":0,"target":34963},{"buffer":0,"byteLength":44100,"byteOffset":11796,"target":34962},{"buffer":0,"byteLength":44100,"byteOffset":55896,"target":34962},{"buffer":0,"byteLength":29400,"byteOffset":99996,"target":34962},{"buffer":0,"byteLength":1584,"byteOffset":129396,"target":34963},{"buffer":0,"byteLength":5400,"byteOffset":130980,"target":34962},{"buffer":0,"byteLength":5400,"byteOffset":136380,"target":34962},{"buffer":0,"byteLength":3600,"byteOffset":141780,"target":34962}],"buffers":[{"byteLength":145380,"uri":"SM_Screwdriver01.bin"}],"images":[{"name":"MainTexture_City_4","uri":"MainTexture_City_4.png"}],"materials":[{"alphaMode":"OPAQUE","doubleSided":false,"extras":{"fromFBX":{"isTruePBR":false,"shadingModel":"Phong"}},"name":"Material","pbrMetallicRoughness":{"baseColorFactor":[1,1,1,1],"baseColorTexture":{"index":0,"texCoord":0},"metallicFactor":0.400000005960464,"roughnessFactor":0.140028014779091}}],"meshes":[{"name":"Screwdriver01","primitives":[{"attributes":{"NORMAL":2,"POSITION":1,"TEXCOORD_0":3},"indices":0,"material":0,"mode":4}]},{"name":"Battery_01_A","primitives":[{"attributes":{"NORMAL":6,"POSITION":5,"TEXCOORD_0":7},"indices":4,"material":0,"mode":4}]}],"nodes":[{"children":[1],"mesh":0,"name":"Screwdriver01","rotation":[0,0,0,1],"scale":[1,1,1],"translation":[-122.941307067871,0.1599061191082,-60.0163612365723]},{"mesh":1,"name":"Battery_01_A","rotation":[0,0,0,1],"scale":[1,1,1],"translation":[0.0590039044618607,-0.14309476315975,-0.0002050781186]}],"samplers":[{}],"scene":0,"scenes":[{"name":"Root Scene","nodes":[0]}],"textures":[{"name":"base_color_texture","sampler":0,"source":0}]}