{"accessors":[{"bufferView":0,"byteOffset":0,"componentType":5123,"count":882,"type":"SCALAR"},{"bufferView":1,"byteOffset":0,"componentType":5126,"count":544,"max":[0.283703058958054,0.308100432157516,2.26006412506104],"min":[-0.28370293974876,-0.24157389998436,-0.63590079545975],"type":"VEC3"},{"bufferView":2,"byteOffset":0,"componentType":5126,"count":544,"type":"VEC3"},{"bufferView":3,"byteOffset":0,"componentType":5126,"count":544,"type":"VEC2"}],"asset":{"generator":"FBX2glTF v0.13.1","version":"2.0"},"bufferViews":[{"buffer":0,"byteLength":1764,"byteOffset":0,"target":34963},{"buffer":0,"byteLength":6528,"byteOffset":1764,"target":34962},{"buffer":0,"byteLength":6528,"byteOffset":8292,"target":34962},{"buffer":0,"byteLength":4352,"byteOffset":14820,"target":34962}],"buffers":[{"byteLength":19172,"uri":"SM_Springboard_01_A.bin"}],"images":[{"name":"MainTexture_City_4","uri":"MainTexture_City_4.png"}],"materials":[{"alphaMode":"OPAQUE","doubleSided":false,"extras":{"fromFBX":{"isTruePBR":false,"shadingModel":"Phong"}},"name":"Material.282","pbrMetallicRoughness":{"baseColorFactor":[1,1,1,1],"baseColorTexture":{"index":0,"texCoord":0},"metallicFactor":0.400000005960464,"roughnessFactor":0.140028014779091}}],"meshes":[{"name":"Springboard_01_A","primitives":[{"attributes":{"NORMAL":2,"POSITION":1,"TEXCOORD_0":3},"indices":0,"material":0,"mode":4}]}],"nodes":[{"mesh":0,"name":"Springboard_01_A","rotation":[0,0,0,1],"scale":[1,1,1],"translation":[108.318153381348,0.0178977455943823,-295.089477539062]}],"samplers":[{}],"scene":0,"scenes":[{"name":"Root Scene","nodes":[0]}],"textures":[{"name":"base_color_texture","sampler":0,"source":0}]}