{"accessors":[{"bufferView":0,"byteOffset":0,"componentType":5123,"count":180,"type":"SCALAR"},{"bufferView":1,"byteOffset":0,"componentType":5126,"count":108,"max":[1,1.01341104507446,1],"min":[-1,-1,-1],"type":"VEC3"},{"bufferView":2,"byteOffset":0,"componentType":5126,"count":108,"type":"VEC3"},{"bufferView":3,"byteOffset":0,"componentType":5126,"count":108,"type":"VEC2"},{"bufferView":4,"byteOffset":0,"componentType":5123,"count":1536,"type":"SCALAR"},{"bufferView":5,"byteOffset":0,"componentType":5126,"count":1024,"max":[0.945694327354431,0.0875813066959381,0.945403099060059],"min":[-0.94429105520248,-0.04807176440954,-0.94458258152008],"type":"VEC3"},{"bufferView":6,"byteOffset":0,"componentType":5126,"count":1024,"type":"VEC3"},{"bufferView":7,"byteOffset":0,"componentType":5126,"count":1024,"type":"VEC2"}],"asset":{"generator":"FBX2glTF v0.13.1","version":"2.0"},"bufferViews":[{"buffer":0,"byteLength":360,"byteOffset":0,"target":34963},{"buffer":0,"byteLength":1296,"byteOffset":360,"target":34962},{"buffer":0,"byteLength":1296,"byteOffset":1656,"target":34962},{"buffer":0,"byteLength":864,"byteOffset":2952,"target":34962},{"buffer":0,"byteLength":3072,"byteOffset":3816,"target":34963},{"buffer":0,"byteLength":12288,"byteOffset":6888,"target":34962},{"buffer":0,"byteLength":12288,"byteOffset":19176,"target":34962},{"buffer":0,"byteLength":8192,"byteOffset":31464,"target":34962}],"buffers":[{"byteLength":39656,"uri":"SM_SwimmingPool_03_A.bin"}],"images":[{"name":"MainTexture_City_4","uri":"MainTexture_City_4.png"}],"materials":[{"alphaMode":"OPAQUE","doubleSided":false,"extras":{"fromFBX":{"isTruePBR":false,"shadingModel":"Phong"}},"name":"Material.255","pbrMetallicRoughness":{"baseColorFactor":[1,1,1,1],"baseColorTexture":{"index":0,"texCoord":0},"metallicFactor":0.400000005960464,"roughnessFactor":0.140028014779091}},{"alphaMode":"OPAQUE","doubleSided":false,"extras":{"fromFBX":{"isTruePBR":false,"shadingModel":"Phong"}},"name":"Water.001","pbrMetallicRoughness":{"baseColorFactor":[0.0213617868721485,0.46109065413475,1,1],"metallicFactor":0.400000005960464,"roughnessFactor":0.147242039442062}}],"meshes":[{"name":"SwimmingPool_03_A","primitives":[{"attributes":{"NORMAL":2,"POSITION":1,"TEXCOORD_0":3},"indices":0,"material":0,"mode":4}]},{"name":"SwimmingPoolWater_03_A","primitives":[{"attributes":{"NORMAL":6,"POSITION":5,"TEXCOORD_0":7},"indices":4,"material":1,"mode":4}]}],"nodes":[{"children":[1],"mesh":0,"name":"SwimmingPool_03_A","rotation":[0,0,0,1],"scale":[4.99999952316284,0.967156410217285,7],"translation":[81.7743072509766,-0.4475594162941,-295.045928955078]},{"mesh":1,"name":"SwimmingPoolWater_03_A","rotation":[0,0,0,1],"scale":[1.02031624317169,1.0165159702301,1.01468598842621],"translation":[-0.00309326173738,0.761401832103729,0.00066406250698491]}],"samplers":[{}],"scene":0,"scenes":[{"name":"Root Scene","nodes":[0]}],"textures":[{"name":"base_color_texture","sampler":0,"source":0}]}