{"accessors":[{"bufferView":0,"byteOffset":0,"componentType":5123,"count":1296,"type":"SCALAR"},{"bufferView":1,"byteOffset":0,"componentType":5126,"count":506,"max":[1,2,0.527743577957153],"min":[-1,0,-0.49996948242188],"type":"VEC3"},{"bufferView":2,"byteOffset":0,"componentType":5126,"count":506,"type":"VEC3"},{"bufferView":3,"byteOffset":0,"componentType":5126,"count":506,"type":"VEC2"},{"bufferView":4,"byteOffset":0,"componentType":5123,"count":684,"type":"SCALAR"},{"bufferView":5,"byteOffset":0,"componentType":5126,"count":446,"max":[0.92604649066925,0.868802905082703,0.0889850854873657],"min":[-0.00069307681406,-0.86880260705948,-0.02270318008959],"type":"VEC3"},{"bufferView":6,"byteOffset":0,"componentType":5126,"count":446,"type":"VEC3"},{"bufferView":7,"byteOffset":0,"componentType":5126,"count":446,"type":"VEC2"},{"bufferView":8,"byteOffset":0,"componentType":5123,"count":684,"type":"SCALAR"},{"bufferView":9,"byteOffset":0,"componentType":5126,"count":456,"max":[0.00056610611500218,0.868802607059479,0.0838242918252945],"min":[-0.92606312036514,-0.86880284547806,-0.02270693518221],"type":"VEC3"},{"bufferView":10,"byteOffset":0,"componentType":5126,"count":456,"type":"VEC3"},{"bufferView":11,"byteOffset":0,"componentType":5126,"count":456,"type":"VEC2"},{"bufferView":12,"byteOffset":0,"componentType":5123,"count":84,"type":"SCALAR"},{"bufferView":13,"byteOffset":0,"componentType":5126,"count":32,"max":[0.898053467273712,0.816006600856781,0.025200167670846],"min":[0.0274759959429502,-0.81866508722305,-0.00271983933635],"type":"VEC3"},{"bufferView":14,"byteOffset":0,"componentType":5126,"count":32,"type":"VEC3"},{"bufferView":15,"byteOffset":0,"componentType":5126,"count":32,"type":"VEC2"},{"bufferView":16,"byteOffset":0,"componentType":5123,"count":84,"type":"SCALAR"},{"bufferView":17,"byteOffset":0,"componentType":5126,"count":32,"max":[-0.02746754512191,0.818664968013763,0.0201803743839264],"min":[-0.89828556776047,-0.81600654125214,-0.00739047350362],"type":"VEC3"},{"bufferView":18,"byteOffset":0,"componentType":5126,"count":32,"type":"VEC3"},{"bufferView":19,"byteOffset":0,"componentType":5126,"count":32,"type":"VEC2"}],"asset":{"generator":"FBX2glTF v0.13.1","version":"2.0"},"bufferViews":[{"buffer":0,"byteLength":2592,"byteOffset":0,"target":34963},{"buffer":0,"byteLength":6072,"byteOffset":2592,"target":34962},{"buffer":0,"byteLength":6072,"byteOffset":8664,"target":34962},{"buffer":0,"byteLength":4048,"byteOffset":14736,"target":34962},{"buffer":0,"byteLength":1368,"byteOffset":18784,"target":34963},{"buffer":0,"byteLength":5352,"byteOffset":20152,"target":34962},{"buffer":0,"byteLength":5352,"byteOffset":25504,"target":34962},{"buffer":0,"byteLength":3568,"byteOffset":30856,"target":34962},{"buffer":0,"byteLength":1368,"byteOffset":34424,"target":34963},{"buffer":0,"byteLength":5472,"byteOffset":35792,"target":34962},{"buffer":0,"byteLength":5472,"byteOffset":41264,"target":34962},{"buffer":0,"byteLength":3648,"byteOffset":46736,"target":34962},{"buffer":0,"byteLength":168,"byteOffset":50384,"target":34963},{"buffer":0,"byteLength":384,"byteOffset":50552,"target":34962},{"buffer":0,"byteLength":384,"byteOffset":50936,"target":34962},{"buffer":0,"byteLength":256,"byteOffset":51320,"target":34962},{"buffer":0,"byteLength":168,"byteOffset":51576,"target":34963},{"buffer":0,"byteLength":384,"byteOffset":51744,"target":34962},{"buffer":0,"byteLength":384,"byteOffset":52128,"target":34962},{"buffer":0,"byteLength":256,"byteOffset":52512,"target":34962}],"buffers":[{"byteLength":52768,"uri":"SM_ShopFridge_02_A.bin"}],"images":[{"name":"MainTexture_City_4","uri":"MainTexture_City_4.png"}],"materials":[{"alphaMode":"OPAQUE","doubleSided":false,"extras":{"fromFBX":{"isTruePBR":false,"shadingModel":"Phong"}},"name":"Material","pbrMetallicRoughness":{"baseColorFactor":[1,1,1,1],"baseColorTexture":{"index":0,"texCoord":0},"metallicFactor":0.400000005960464,"roughnessFactor":0.140028014779091}},{"alphaMode":"OPAQUE","doubleSided":false,"extras":{"fromFBX":{"isTruePBR":false,"shadingModel":"Phong"}},"name":"Glass","pbrMetallicRoughness":{"baseColorFactor":[0.364632904529572,0.488288849592209,0.800000071525574,1],"metallicFactor":0.400000005960464,"roughnessFactor":1}}],"meshes":[{"name":"ShopFridge_02_A","primitives":[{"attributes":{"NORMAL":2,"POSITION":1,"TEXCOORD_0":3},"indices":0,"material":0,"mode":4}]},{"name":"ShopFridgeDoor_02_A","primitives":[{"attributes":{"NORMAL":6,"POSITION":5,"TEXCOORD_0":7},"indices":4,"material":0,"mode":4},{"attributes":{"NORMAL":14,"POSITION":13,"TEXCOORD_0":15},"indices":12,"material":1,"mode":4}]},{"name":"ShopFridgeDoor_02_B","primitives":[{"attributes":{"NORMAL":10,"POSITION":9,"TEXCOORD_0":11},"indices":8,"material":0,"mode":4},{"attributes":{"NORMAL":18,"POSITION":17,"TEXCOORD_0":19},"indices":16,"material":1,"mode":4}]}],"nodes":[{"children":[1,2],"mesh":0,"name":"ShopFridge_02_A","rotation":[0,0,0,1],"scale":[1,1,1],"translation":[183.152725219727,-0.00755256414413,-294.368621826172]},{"mesh":1,"name":"ShopFridgeDoor_02_A","rotation":[0,0,0,1],"scale":[1,1,1],"translation":[-0.95763671398163,0.999999582767487,0.509726524353027]},{"mesh":2,"name":"ShopFridgeDoor_02_B","rotation":[0,0,0,1],"scale":[1,1,1],"translation":[0.954257786273956,0.999999582767487,0.522734344005585]}],"samplers":[{}],"scene":0,"scenes":[{"name":"Root Scene","nodes":[0]}],"textures":[{"name":"base_color_texture","sampler":0,"source":0}]}