{"accessors":[{"bufferView":0,"byteOffset":0,"componentType":5123,"count":516,"type":"SCALAR"},{"bufferView":1,"byteOffset":0,"componentType":5126,"count":276,"max":[0.233249559998512,2.05572319030762,0.230378925800323],"min":[-0.22750824689865,0,-0.23037892580032],"type":"VEC3"},{"bufferView":2,"byteOffset":0,"componentType":5126,"count":276,"type":"VEC3"},{"bufferView":3,"byteOffset":0,"componentType":5126,"count":276,"type":"VEC2"}],"asset":{"generator":"FBX2glTF v0.13.1","version":"2.0"},"bufferViews":[{"buffer":0,"byteLength":1032,"byteOffset":0,"target":34963},{"buffer":0,"byteLength":3312,"byteOffset":1032,"target":34962},{"buffer":0,"byteLength":3312,"byteOffset":4344,"target":34962},{"buffer":0,"byteLength":2208,"byteOffset":7656,"target":34962}],"buffers":[{"byteLength":9864,"uri":"SM_Shelf_05_A.bin"}],"images":[{"name":"MainTexture_City_4","uri":"MainTexture_City_4.png"}],"materials":[{"alphaMode":"OPAQUE","doubleSided":false,"extras":{"fromFBX":{"isTruePBR":false,"shadingModel":"Phong"}},"name":"Material","pbrMetallicRoughness":{"baseColorFactor":[1,1,1,1],"baseColorTexture":{"index":0,"texCoord":0},"metallicFactor":0.400000005960464,"roughnessFactor":0.140028014779091}}],"meshes":[{"name":"Shelf_05_A","primitives":[{"attributes":{"NORMAL":2,"POSITION":1,"TEXCOORD_0":3},"indices":0,"material":0,"mode":4}]}],"nodes":[{"mesh":0,"name":"Shelf_05_A","rotation":[0,0,0,1],"scale":[1,1,1],"translation":[-17.4572677612305,-0.0082391500473,-55.0488662719727]}],"samplers":[{}],"scene":0,"scenes":[{"name":"Root Scene","nodes":[0]}],"textures":[{"name":"base_color_texture","sampler":0,"source":0}]}