{"accessors":[{"bufferView":0,"byteOffset":0,"componentType":5123,"count":588,"type":"SCALAR"},{"bufferView":1,"byteOffset":0,"componentType":5126,"count":342,"max":[0.411146104335785,1.20000016689301,0.432408392429352],"min":[-0.61665385961533,0,-0.64986944198608],"type":"VEC3"},{"bufferView":2,"byteOffset":0,"componentType":5126,"count":342,"type":"VEC3"},{"bufferView":3,"byteOffset":0,"componentType":5126,"count":342,"type":"VEC2"}],"asset":{"generator":"FBX2glTF v0.13.1","version":"2.0"},"bufferViews":[{"buffer":0,"byteLength":1176,"byteOffset":0,"target":34963},{"buffer":0,"byteLength":4104,"byteOffset":1176,"target":34962},{"buffer":0,"byteLength":4104,"byteOffset":5280,"target":34962},{"buffer":0,"byteLength":2736,"byteOffset":9384,"target":34962}],"buffers":[{"byteLength":12120,"uri":"SM_ShopTable_01_A.bin"}],"images":[{"name":"MainTexture_City_4","uri":"MainTexture_City_4.png"}],"materials":[{"alphaMode":"OPAQUE","doubleSided":false,"extras":{"fromFBX":{"isTruePBR":false,"shadingModel":"Phong"}},"name":"Material","pbrMetallicRoughness":{"baseColorFactor":[1,1,1,1],"baseColorTexture":{"index":0,"texCoord":0},"metallicFactor":0.400000005960464,"roughnessFactor":0.140028014779091}}],"meshes":[{"name":"ShopTable_01_A","primitives":[{"attributes":{"NORMAL":2,"POSITION":1,"TEXCOORD_0":3},"indices":0,"material":0,"mode":4}]}],"nodes":[{"mesh":0,"name":"ShopTable_01_A","rotation":[0,0,0,1],"scale":[1,1,1],"translation":[172.564254760742,-0.00000017881393,-294.018707275391]}],"samplers":[{}],"scene":0,"scenes":[{"name":"Root Scene","nodes":[0]}],"textures":[{"name":"base_color_texture","sampler":0,"source":0}]}