{"accessors":[{"bufferView":0,"byteOffset":0,"componentType":5123,"count":756,"type":"SCALAR"},{"bufferView":1,"byteOffset":0,"componentType":5126,"count":432,"max":[0.750012099742889,2,0.0499755851924419],"min":[-0.74998760223389,0,-0.05002441257238],"type":"VEC3"},{"bufferView":2,"byteOffset":0,"componentType":5126,"count":432,"type":"VEC3"},{"bufferView":3,"byteOffset":0,"componentType":5126,"count":432,"type":"VEC2"}],"asset":{"generator":"FBX2glTF v0.13.1","version":"2.0"},"bufferViews":[{"buffer":0,"byteLength":1512,"byteOffset":0,"target":34963},{"buffer":0,"byteLength":5184,"byteOffset":1512,"target":34962},{"buffer":0,"byteLength":5184,"byteOffset":6696,"target":34962},{"buffer":0,"byteLength":3456,"byteOffset":11880,"target":34962}],"buffers":[{"byteLength":15336,"uri":"SM_SwedishWall_01_A.bin"}],"images":[{"name":"MainTexture_City_4","uri":"MainTexture_City_4.png"}],"materials":[{"alphaMode":"OPAQUE","doubleSided":false,"extras":{"fromFBX":{"isTruePBR":false,"shadingModel":"Phong"}},"name":"Material.288","pbrMetallicRoughness":{"baseColorFactor":[1,1,1,1],"baseColorTexture":{"index":0,"texCoord":0},"metallicFactor":0.400000005960464,"roughnessFactor":0.140028014779091}}],"meshes":[{"name":"SwedishWall_01_A","primitives":[{"attributes":{"NORMAL":2,"POSITION":1,"TEXCOORD_0":3},"indices":0,"material":0,"mode":4}]}],"nodes":[{"mesh":0,"name":"SwedishWall_01_A","rotation":[0,0,0,1],"scale":[1,1,1],"translation":[126.387809753418,0,-293.712127685547]}],"samplers":[{}],"scene":0,"scenes":[{"name":"Root Scene","nodes":[0]}],"textures":[{"name":"base_color_texture","sampler":0,"source":0}]}