{"accessors":[{"bufferView":0,"byteOffset":0,"componentType":5123,"count":1266,"type":"SCALAR"},{"bufferView":1,"byteOffset":0,"componentType":5126,"count":744,"max":[4,0.0112659176811576,4],"min":[-4,-2.4458909034729,-4],"type":"VEC3"},{"bufferView":2,"byteOffset":0,"componentType":5126,"count":744,"type":"VEC3"},{"bufferView":3,"byteOffset":0,"componentType":5126,"count":744,"type":"VEC2"},{"bufferView":4,"byteOffset":0,"componentType":5123,"count":1728,"type":"SCALAR"},{"bufferView":5,"byteOffset":0,"componentType":5126,"count":1150,"max":[2.79688286781311,0.256188482046127,2.8607873916626],"min":[-2.96167898178101,-0.08975066244602,-4.03758668899536],"type":"VEC3"},{"bufferView":6,"byteOffset":0,"componentType":5126,"count":1150,"type":"VEC3"},{"bufferView":7,"byteOffset":0,"componentType":5126,"count":1150,"type":"VEC2"}],"asset":{"generator":"FBX2glTF v0.13.1","version":"2.0"},"bufferViews":[{"buffer":0,"byteLength":2532,"byteOffset":0,"target":34963},{"buffer":0,"byteLength":8928,"byteOffset":2532,"target":34962},{"buffer":0,"byteLength":8928,"byteOffset":11460,"target":34962},{"buffer":0,"byteLength":5952,"byteOffset":20388,"target":34962},{"buffer":0,"byteLength":3456,"byteOffset":26340,"target":34963},{"buffer":0,"byteLength":13800,"byteOffset":29796,"target":34962},{"buffer":0,"byteLength":13800,"byteOffset":43596,"target":34962},{"buffer":0,"byteLength":9200,"byteOffset":57396,"target":34962}],"buffers":[{"byteLength":66596,"uri":"SM_SwimmingPool_02_A.bin"}],"images":[{"name":"MainTexture_City_4","uri":"MainTexture_City_4.png"}],"materials":[{"alphaMode":"OPAQUE","doubleSided":false,"extras":{"fromFBX":{"isTruePBR":false,"shadingModel":"Phong"}},"name":"Material","pbrMetallicRoughness":{"baseColorFactor":[1,1,1,1],"baseColorTexture":{"index":0,"texCoord":0},"metallicFactor":0.400000005960464,"roughnessFactor":0.140028014779091}}],"meshes":[{"name":"SwimmingPool_02_A","primitives":[{"attributes":{"NORMAL":2,"POSITION":1,"TEXCOORD_0":3},"indices":0,"material":0,"mode":4}]},{"name":"SwimmingPoolWater_02_A","primitives":[{"attributes":{"NORMAL":6,"POSITION":5,"TEXCOORD_0":7},"indices":4,"material":0,"mode":4}]}],"nodes":[{"children":[1],"mesh":0,"name":"SwimmingPool_02_A","rotation":[0,0,0,1],"scale":[1,1,1],"translation":[71.4834136962891,0,-294.763580322266]},{"mesh":1,"name":"SwimmingPoolWater_02_A","rotation":[0,0,0,1],"scale":[1,1,1],"translation":[0.113457031548023,-0.17843240499496,0.455078125]}],"samplers":[{}],"scene":0,"scenes":[{"name":"Root Scene","nodes":[0]}],"textures":[{"name":"base_color_texture","sampler":0,"source":0}]}