{"accessors":[{"bufferView":0,"byteOffset":0,"componentType":5123,"count":228,"type":"SCALAR"},{"bufferView":1,"byteOffset":0,"componentType":5126,"count":152,"max":[1.02466809749603,0.162424385547638,1.02466809749603],"min":[-1.02466809749603,-0.01176119502634,-1.02466809749603],"type":"VEC3"},{"bufferView":2,"byteOffset":0,"componentType":5126,"count":152,"type":"VEC3"},{"bufferView":3,"byteOffset":0,"componentType":5126,"count":152,"type":"VEC2"},{"bufferView":4,"byteOffset":0,"componentType":5123,"count":384,"type":"SCALAR"},{"bufferView":5,"byteOffset":0,"componentType":5126,"count":256,"max":[1.00038516521454,0.0879166424274445,0.913545429706573],"min":[-1.0020946264267,-0.03374331071973,-1.08943688869476],"type":"VEC3"},{"bufferView":6,"byteOffset":0,"componentType":5126,"count":256,"type":"VEC3"},{"bufferView":7,"byteOffset":0,"componentType":5126,"count":256,"type":"VEC2"}],"asset":{"generator":"FBX2glTF v0.13.1","version":"2.0"},"bufferViews":[{"buffer":0,"byteLength":456,"byteOffset":0,"target":34963},{"buffer":0,"byteLength":1824,"byteOffset":456,"target":34962},{"buffer":0,"byteLength":1824,"byteOffset":2280,"target":34962},{"buffer":0,"byteLength":1216,"byteOffset":4104,"target":34962},{"buffer":0,"byteLength":768,"byteOffset":5320,"target":34963},{"buffer":0,"byteLength":3072,"byteOffset":6088,"target":34962},{"buffer":0,"byteLength":3072,"byteOffset":9160,"target":34962},{"buffer":0,"byteLength":2048,"byteOffset":12232,"target":34962}],"buffers":[{"byteLength":14280,"uri":"SM_Sandbox_01_A.bin"}],"images":[{"name":"MainTexture_City_4","uri":"MainTexture_City_4.png"}],"materials":[{"alphaMode":"OPAQUE","doubleSided":false,"extras":{"fromFBX":{"isTruePBR":false,"shadingModel":"Phong"}},"name":"Material","pbrMetallicRoughness":{"baseColorFactor":[1,1,1,1],"baseColorTexture":{"index":0,"texCoord":0},"metallicFactor":0.400000005960464,"roughnessFactor":0.140028014779091}},{"alphaMode":"OPAQUE","doubleSided":false,"extras":{"fromFBX":{"isTruePBR":false,"shadingModel":"Phong"}},"name":"Material.285","pbrMetallicRoughness":{"baseColorFactor":[1,1,1,1],"baseColorTexture":{"index":0,"texCoord":0},"metallicFactor":0.400000005960464,"roughnessFactor":0.140028014779091}}],"meshes":[{"name":"Sandbox_01_A","primitives":[{"attributes":{"NORMAL":2,"POSITION":1,"TEXCOORD_0":3},"indices":0,"material":0,"mode":4}]},{"name":"Sand_01_A","primitives":[{"attributes":{"NORMAL":6,"POSITION":5,"TEXCOORD_0":7},"indices":4,"material":1,"mode":4}]}],"nodes":[{"children":[1],"mesh":0,"name":"Sandbox_01_A","rotation":[0,0,0,1],"scale":[1,1,1],"translation":[118.084732055664,-0.06262528896332,-294.368591308594]},{"mesh":1,"name":"Sand_01_A","rotation":[0,0,0,1],"scale":[1,1,1],"translation":[-0.00173828122206,0.135580137372017,0.0857617184519768]}],"samplers":[{}],"scene":0,"scenes":[{"name":"Root Scene","nodes":[0]}],"textures":[{"name":"base_color_texture","sampler":0,"source":0}]}