{"accessors":[{"bufferView":0,"byteOffset":0,"componentType":5123,"count":732,"type":"SCALAR"},{"bufferView":1,"byteOffset":0,"componentType":5126,"count":488,"max":[1.08615815639496,0.894164860248566,0.323641389608383],"min":[-1.08102929592133,-0.01266300678253,-0.30287000536919],"type":"VEC3"},{"bufferView":2,"byteOffset":0,"componentType":5126,"count":488,"type":"VEC3"},{"bufferView":3,"byteOffset":0,"componentType":5126,"count":488,"type":"VEC2"}],"asset":{"generator":"FBX2glTF v0.13.1","version":"2.0"},"bufferViews":[{"buffer":0,"byteLength":1464,"byteOffset":0,"target":34963},{"buffer":0,"byteLength":5856,"byteOffset":1464,"target":34962},{"buffer":0,"byteLength":5856,"byteOffset":7320,"target":34962},{"buffer":0,"byteLength":3904,"byteOffset":13176,"target":34962}],"buffers":[{"byteLength":17080,"uri":"SM_Table_04_A.bin"}],"images":[{"name":"MainTexture_City_4","uri":"MainTexture_City_4.png"}],"materials":[{"alphaMode":"OPAQUE","doubleSided":false,"extras":{"fromFBX":{"isTruePBR":false,"shadingModel":"Phong"}},"name":"Material","pbrMetallicRoughness":{"baseColorFactor":[1,1,1,1],"baseColorTexture":{"index":0,"texCoord":0},"metallicFactor":0.400000005960464,"roughnessFactor":0.140028014779091}}],"meshes":[{"name":"Table_04_A","primitives":[{"attributes":{"NORMAL":2,"POSITION":1,"TEXCOORD_0":3},"indices":0,"material":0,"mode":4}]}],"nodes":[{"mesh":0,"name":"Table_04_A","rotation":[0,0,0,1],"scale":[1,1,1],"translation":[-14.6551742553711,-0.00676155090332,-55.2578163146973]}],"samplers":[{}],"scene":0,"scenes":[{"name":"Root Scene","nodes":[0]}],"textures":[{"name":"base_color_texture","sampler":0,"source":0}]}