{"accessors":[{"bufferView":0,"byteOffset":0,"componentType":5123,"count":1668,"type":"SCALAR"},{"bufferView":1,"byteOffset":0,"componentType":5126,"count":906,"max":[0.61307567358017,1.3239072561264,0.351784348487854],"min":[-0.5869243144989,-0.00000007152558,-0.3733494579792],"type":"VEC3"},{"bufferView":2,"byteOffset":0,"componentType":5126,"count":906,"type":"VEC3"},{"bufferView":3,"byteOffset":0,"componentType":5126,"count":906,"type":"VEC2"},{"bufferView":4,"byteOffset":0,"componentType":5123,"count":378,"type":"SCALAR"},{"bufferView":5,"byteOffset":0,"componentType":5126,"count":160,"max":[0.562849879264832,0.171116575598717,0.297543048858643],"min":[-0.56284987926483,-0.14649052917957,-0.43612420558929],"type":"VEC3"},{"bufferView":6,"byteOffset":0,"componentType":5126,"count":160,"type":"VEC3"},{"bufferView":7,"byteOffset":0,"componentType":5126,"count":160,"type":"VEC2"},{"bufferView":8,"byteOffset":0,"componentType":5123,"count":378,"type":"SCALAR"},{"bufferView":9,"byteOffset":0,"componentType":5126,"count":216,"max":[0.562849879264832,0.176553145051003,0.307026654481888],"min":[-0.56284987926483,-0.16002398729324,-0.43849387764931],"type":"VEC3"},{"bufferView":10,"byteOffset":0,"componentType":5126,"count":216,"type":"VEC3"},{"bufferView":11,"byteOffset":0,"componentType":5126,"count":216,"type":"VEC2"},{"bufferView":12,"byteOffset":0,"componentType":5123,"count":378,"type":"SCALAR"},{"bufferView":13,"byteOffset":0,"componentType":5126,"count":208,"max":[0.562849879264832,0.103614546358585,0.298644125461578],"min":[-0.56284987926483,-0.09534762054682,-0.43723714351654],"type":"VEC3"},{"bufferView":14,"byteOffset":0,"componentType":5126,"count":208,"type":"VEC3"},{"bufferView":15,"byteOffset":0,"componentType":5126,"count":208,"type":"VEC2"},{"bufferView":16,"byteOffset":0,"componentType":5123,"count":378,"type":"SCALAR"},{"bufferView":17,"byteOffset":0,"componentType":5126,"count":200,"max":[0.562849879264832,0.113667696714401,0.299873739480972],"min":[-0.56284987926483,-0.10160283744335,-0.43600752949715],"type":"VEC3"},{"bufferView":18,"byteOffset":0,"componentType":5126,"count":200,"type":"VEC3"},{"bufferView":19,"byteOffset":0,"componentType":5126,"count":200,"type":"VEC2"}],"asset":{"generator":"FBX2glTF v0.13.1","version":"2.0"},"bufferViews":[{"buffer":0,"byteLength":3336,"byteOffset":0,"target":34963},{"buffer":0,"byteLength":10872,"byteOffset":3336,"target":34962},{"buffer":0,"byteLength":10872,"byteOffset":14208,"target":34962},{"buffer":0,"byteLength":7248,"byteOffset":25080,"target":34962},{"buffer":0,"byteLength":756,"byteOffset":32328,"target":34963},{"buffer":0,"byteLength":1920,"byteOffset":33084,"target":34962},{"buffer":0,"byteLength":1920,"byteOffset":35004,"target":34962},{"buffer":0,"byteLength":1280,"byteOffset":36924,"target":34962},{"buffer":0,"byteLength":756,"byteOffset":38204,"target":34963},{"buffer":0,"byteLength":2592,"byteOffset":38960,"target":34962},{"buffer":0,"byteLength":2592,"byteOffset":41552,"target":34962},{"buffer":0,"byteLength":1728,"byteOffset":44144,"target":34962},{"buffer":0,"byteLength":756,"byteOffset":45872,"target":34963},{"buffer":0,"byteLength":2496,"byteOffset":46628,"target":34962},{"buffer":0,"byteLength":2496,"byteOffset":49124,"target":34962},{"buffer":0,"byteLength":1664,"byteOffset":51620,"target":34962},{"buffer":0,"byteLength":756,"byteOffset":53284,"target":34963},{"buffer":0,"byteLength":2400,"byteOffset":54040,"target":34962},{"buffer":0,"byteLength":2400,"byteOffset":56440,"target":34962},{"buffer":0,"byteLength":1600,"byteOffset":58840,"target":34962}],"buffers":[{"byteLength":60440,"uri":"SM_ToolBox02.bin"}],"images":[{"name":"MainTexture_City_4","uri":"MainTexture_City_4.png"}],"materials":[{"alphaMode":"OPAQUE","doubleSided":false,"extras":{"fromFBX":{"isTruePBR":false,"shadingModel":"Phong"}},"name":"Material","pbrMetallicRoughness":{"baseColorFactor":[1,1,1,1],"baseColorTexture":{"index":0,"texCoord":0},"metallicFactor":0.400000005960464,"roughnessFactor":0.140028014779091}}],"meshes":[{"name":"ToolBox02","primitives":[{"attributes":{"NORMAL":2,"POSITION":1,"TEXCOORD_0":3},"indices":0,"material":0,"mode":4}]},{"name":"Box04.001","primitives":[{"attributes":{"NORMAL":6,"POSITION":5,"TEXCOORD_0":7},"indices":4,"material":0,"mode":4}]},{"name":"Box03","primitives":[{"attributes":{"NORMAL":10,"POSITION":9,"TEXCOORD_0":11},"indices":8,"material":0,"mode":4}]},{"name":"Box02","primitives":[{"attributes":{"NORMAL":14,"POSITION":13,"TEXCOORD_0":15},"indices":12,"material":0,"mode":4}]},{"name":"Box01","primitives":[{"attributes":{"NORMAL":18,"POSITION":17,"TEXCOORD_0":19},"indices":16,"material":0,"mode":4}]}],"nodes":[{"children":[1,2,3,4],"mesh":0,"name":"ToolBox02","rotation":[0,0,0,1],"scale":[1,1.00000202655792,1],"translation":[-129.842132568359,0.0353981256484985,-59.9930114746094]},{"mesh":1,"name":"Box04.001","rotation":[0,0,0,1],"scale":[1,1,1],"translation":[0.0130664063617587,0.301267206668854,0.447968751192093]},{"mesh":2,"name":"Box03","rotation":[0,0,0,1],"scale":[1,1,1],"translation":[0.0130664063617587,0.647747457027435,0.343481451272964]},{"mesh":3,"name":"Box02","rotation":[0,0,0,1],"scale":[1,1,1],"translation":[0.0130664063617587,0.939254820346832,0.237841784954071]},{"mesh":4,"name":"Box01","rotation":[0,0,0,1],"scale":[1,1,1],"translation":[0.0130664063617587,1.16078054904938,0.150825187563896]}],"samplers":[{}],"scene":0,"scenes":[{"name":"Root Scene","nodes":[0]}],"textures":[{"name":"base_color_texture","sampler":0,"source":0}]}