{"accessors":[{"bufferView":0,"byteOffset":0,"componentType":5123,"count":300,"type":"SCALAR"},{"bufferView":1,"byteOffset":0,"componentType":5126,"count":180,"max":[0.200004577636719,0.899999916553497,0.200000762939453],"min":[-0.19998931884766,0,-0.20000076293945],"type":"VEC3"},{"bufferView":2,"byteOffset":0,"componentType":5126,"count":180,"type":"VEC3"},{"bufferView":3,"byteOffset":0,"componentType":5126,"count":180,"type":"VEC2"}],"asset":{"generator":"FBX2glTF v0.13.1","version":"2.0"},"bufferViews":[{"buffer":0,"byteLength":600,"byteOffset":0,"target":34963},{"buffer":0,"byteLength":2160,"byteOffset":600,"target":34962},{"buffer":0,"byteLength":2160,"byteOffset":2760,"target":34962},{"buffer":0,"byteLength":1440,"byteOffset":4920,"target":34962}],"buffers":[{"byteLength":6360,"uri":"SM_TrashСan03.bin"}],"images":[{"name":"MainTexture_City_4","uri":"MainTexture_City_4.png"}],"materials":[{"alphaMode":"OPAQUE","doubleSided":false,"extras":{"fromFBX":{"isTruePBR":false,"shadingModel":"Phong"}},"name":"Material","pbrMetallicRoughness":{"baseColorFactor":[1,1,1,1],"baseColorTexture":{"index":0,"texCoord":0},"metallicFactor":0.400000005960464,"roughnessFactor":0.140028014779091}}],"meshes":[{"name":"TrashСan03","primitives":[{"attributes":{"NORMAL":2,"POSITION":1,"TEXCOORD_0":3},"indices":0,"material":0,"mode":4}]}],"nodes":[{"mesh":0,"name":"TrashСan03","rotation":[0,0,0,1],"scale":[1,1,1],"translation":[-94.4816665649414,-0.00224514305592,-60.3400077819824]}],"samplers":[{}],"scene":0,"scenes":[{"name":"Root Scene","nodes":[0]}],"textures":[{"name":"base_color_texture","sampler":0,"source":0}]}