{"accessors":[{"bufferView":0,"byteOffset":0,"componentType":5123,"count":888,"type":"SCALAR"},{"bufferView":1,"byteOffset":0,"componentType":5126,"count":359,"max":[1,0.399999976158142,0.250003814697266],"min":[-1,0,-0.24999618530273],"type":"VEC3"},{"bufferView":2,"byteOffset":0,"componentType":5126,"count":359,"type":"VEC3"},{"bufferView":3,"byteOffset":0,"componentType":5126,"count":359,"type":"VEC2"},{"bufferView":4,"byteOffset":0,"componentType":5123,"count":708,"type":"SCALAR"},{"bufferView":5,"byteOffset":0,"componentType":5126,"count":278,"max":[0.217500984668732,0.0922712758183479,0.152406364679337],"min":[-0.21750076115131,-0.11865085363388,-0.34366771578789],"type":"VEC3"},{"bufferView":6,"byteOffset":0,"componentType":5126,"count":278,"type":"VEC3"},{"bufferView":7,"byteOffset":0,"componentType":5126,"count":278,"type":"VEC2"},{"bufferView":8,"byteOffset":0,"componentType":5123,"count":708,"type":"SCALAR"},{"bufferView":9,"byteOffset":0,"componentType":5126,"count":278,"max":[0.217500925064087,0.0734406560659409,0.148665100336075],"min":[-0.21750083565712,-0.05924602970481,-0.34076991677284],"type":"VEC3"},{"bufferView":10,"byteOffset":0,"componentType":5126,"count":278,"type":"VEC3"},{"bufferView":11,"byteOffset":0,"componentType":5126,"count":278,"type":"VEC2"},{"bufferView":12,"byteOffset":0,"componentType":5123,"count":708,"type":"SCALAR"},{"bufferView":13,"byteOffset":0,"componentType":5126,"count":278,"max":[0.216245129704475,0.0934905037283897,0.149191468954086],"min":[-0.21875663101673,-0.11743162572384,-0.34688261151314],"type":"VEC3"},{"bufferView":14,"byteOffset":0,"componentType":5126,"count":278,"type":"VEC3"},{"bufferView":15,"byteOffset":0,"componentType":5126,"count":278,"type":"VEC2"},{"bufferView":16,"byteOffset":0,"componentType":5123,"count":708,"type":"SCALAR"},{"bufferView":17,"byteOffset":0,"componentType":5126,"count":278,"max":[0.216245070099831,0.0746598988771439,0.145450204610825],"min":[-0.21875670552254,-0.05802679806948,-0.34398478269577],"type":"VEC3"},{"bufferView":18,"byteOffset":0,"componentType":5126,"count":278,"type":"VEC3"},{"bufferView":19,"byteOffset":0,"componentType":5126,"count":278,"type":"VEC2"}],"asset":{"generator":"FBX2glTF v0.13.1","version":"2.0"},"bufferViews":[{"buffer":0,"byteLength":1776,"byteOffset":0,"target":34963},{"buffer":0,"byteLength":4308,"byteOffset":1776,"target":34962},{"buffer":0,"byteLength":4308,"byteOffset":6084,"target":34962},{"buffer":0,"byteLength":2872,"byteOffset":10392,"target":34962},{"buffer":0,"byteLength":1416,"byteOffset":13264,"target":34963},{"buffer":0,"byteLength":3336,"byteOffset":14680,"target":34962},{"buffer":0,"byteLength":3336,"byteOffset":18016,"target":34962},{"buffer":0,"byteLength":2224,"byteOffset":21352,"target":34962},{"buffer":0,"byteLength":1416,"byteOffset":23576,"target":34963},{"buffer":0,"byteLength":3336,"byteOffset":24992,"target":34962},{"buffer":0,"byteLength":3336,"byteOffset":28328,"target":34962},{"buffer":0,"byteLength":2224,"byteOffset":31664,"target":34962},{"buffer":0,"byteLength":1416,"byteOffset":33888,"target":34963},{"buffer":0,"byteLength":3336,"byteOffset":35304,"target":34962},{"buffer":0,"byteLength":3336,"byteOffset":38640,"target":34962},{"buffer":0,"byteLength":2224,"byteOffset":41976,"target":34962},{"buffer":0,"byteLength":1416,"byteOffset":44200,"target":34963},{"buffer":0,"byteLength":3336,"byteOffset":45616,"target":34962},{"buffer":0,"byteLength":3336,"byteOffset":48952,"target":34962},{"buffer":0,"byteLength":2224,"byteOffset":52288,"target":34962}],"buffers":[{"byteLength":54512,"uri":"SM_TVTable.bin"}],"images":[{"name":"MainTexture_City_4","uri":"MainTexture_City_4.png"}],"materials":[{"alphaMode":"OPAQUE","doubleSided":false,"extras":{"fromFBX":{"isTruePBR":false,"shadingModel":"Phong"}},"name":"Material","pbrMetallicRoughness":{"baseColorFactor":[1,1,1,1],"baseColorTexture":{"index":0,"texCoord":0},"metallicFactor":0.400000005960464,"roughnessFactor":0.140028014779091}}],"meshes":[{"name":"TVTable","primitives":[{"attributes":{"NORMAL":2,"POSITION":1,"TEXCOORD_0":3},"indices":0,"material":0,"mode":4}]},{"name":"Box02.002","primitives":[{"attributes":{"NORMAL":6,"POSITION":5,"TEXCOORD_0":7},"indices":4,"material":0,"mode":4}]},{"name":"Box01.002","primitives":[{"attributes":{"NORMAL":10,"POSITION":9,"TEXCOORD_0":11},"indices":8,"material":0,"mode":4}]},{"name":"Box04","primitives":[{"attributes":{"NORMAL":14,"POSITION":13,"TEXCOORD_0":15},"indices":12,"material":0,"mode":4}]},{"name":"Box03.002","primitives":[{"attributes":{"NORMAL":18,"POSITION":17,"TEXCOORD_0":19},"indices":16,"material":0,"mode":4}]}],"nodes":[{"children":[1,2,3,4],"mesh":0,"name":"TVTable","rotation":[0,0,0,1],"scale":[1,1,1],"translation":[-110.280082702637,0.0205061137676239,-60.0163650512695]},{"mesh":1,"name":"Box02.002","rotation":[0,0,0,1],"scale":[1,1,1],"translation":[-0.77411133050919,0.142429456114769,0.128232419490814]},{"mesh":2,"name":"Box01.002","rotation":[0,0,0,1],"scale":[1,1,1],"translation":[-0.77411133050919,0.306234747171402,0.125332027673721]},{"mesh":3,"name":"Box04","rotation":[0,0,0,1],"scale":[1,1,1],"translation":[0.781289041042328,0.135949030518532,0.131445303559303]},{"mesh":4,"name":"Box03.002","rotation":[0,0,0,1],"scale":[1,1,1],"translation":[0.781289041042328,0.299754351377487,0.128549799323082]}],"samplers":[{}],"scene":0,"scenes":[{"name":"Root Scene","nodes":[0]}],"textures":[{"name":"base_color_texture","sampler":0,"source":0}]}