{"accessors":[{"bufferView":0,"byteOffset":0,"componentType":5123,"count":744,"type":"SCALAR"},{"bufferView":1,"byteOffset":0,"componentType":5126,"count":316,"max":[0.518160820007324,0.637798666954041,0.165756583213806],"min":[-0.51816082000732,-0.36220133304596,-0.0362801104784],"type":"VEC3"},{"bufferView":2,"byteOffset":0,"componentType":5126,"count":316,"type":"VEC3"},{"bufferView":3,"byteOffset":0,"componentType":5126,"count":316,"type":"VEC2"}],"asset":{"generator":"FBX2glTF v0.13.1","version":"2.0"},"bufferViews":[{"buffer":0,"byteLength":1488,"byteOffset":0,"target":34963},{"buffer":0,"byteLength":3792,"byteOffset":1488,"target":34962},{"buffer":0,"byteLength":3792,"byteOffset":5280,"target":34962},{"buffer":0,"byteLength":2528,"byteOffset":9072,"target":34962}],"buffers":[{"byteLength":11600,"uri":"SM_ToolsWall02.bin"}],"images":[{"name":"MainTexture_City_4","uri":"MainTexture_City_4.png"}],"materials":[{"alphaMode":"OPAQUE","doubleSided":false,"extras":{"fromFBX":{"isTruePBR":false,"shadingModel":"Phong"}},"name":"Material","pbrMetallicRoughness":{"baseColorFactor":[1,1,1,1],"baseColorTexture":{"index":0,"texCoord":0},"metallicFactor":0.400000005960464,"roughnessFactor":0.140028014779091}}],"meshes":[{"name":"ToolsWall02","primitives":[{"attributes":{"NORMAL":2,"POSITION":1,"TEXCOORD_0":3},"indices":0,"material":0,"mode":4}]}],"nodes":[{"mesh":0,"name":"ToolsWall02","rotation":[0,0,0,1],"scale":[1,1,1],"translation":[-127.359146118164,0.376657217741013,-60.0163612365723]}],"samplers":[{}],"scene":0,"scenes":[{"name":"Root Scene","nodes":[0]}],"textures":[{"name":"base_color_texture","sampler":0,"source":0}]}