{"accessors":[{"bufferView":0,"byteOffset":0,"componentType":5123,"count":1152,"type":"SCALAR"},{"bufferView":1,"byteOffset":0,"componentType":5126,"count":744,"max":[0.340258657932281,0.140468642115593,0.340321004390717],"min":[-0.34030020236969,0,-0.3402379155159],"type":"VEC3"},{"bufferView":2,"byteOffset":0,"componentType":5126,"count":744,"type":"VEC3"},{"bufferView":3,"byteOffset":0,"componentType":5126,"count":744,"type":"VEC2"}],"asset":{"generator":"FBX2glTF v0.13.1","version":"2.0"},"bufferViews":[{"buffer":0,"byteLength":2304,"byteOffset":0,"target":34963},{"buffer":0,"byteLength":8928,"byteOffset":2304,"target":34962},{"buffer":0,"byteLength":8928,"byteOffset":11232,"target":34962},{"buffer":0,"byteLength":5952,"byteOffset":20160,"target":34962}],"buffers":[{"byteLength":26112,"uri":"SM_Tire_01_A.bin"}],"images":[{"name":"MainTexture_City_4","uri":"MainTexture_City_4.png"}],"materials":[{"alphaMode":"OPAQUE","doubleSided":false,"extras":{"fromFBX":{"isTruePBR":false,"shadingModel":"Phong"}},"name":"Material","pbrMetallicRoughness":{"baseColorFactor":[1,1,1,1],"baseColorTexture":{"index":0,"texCoord":0},"metallicFactor":0.400000005960464,"roughnessFactor":0.140028014779091}}],"meshes":[{"name":"Tire_01_A","primitives":[{"attributes":{"NORMAL":2,"POSITION":1,"TEXCOORD_0":3},"indices":0,"material":0,"mode":4}]}],"nodes":[{"mesh":0,"name":"Tire_01_A","rotation":[0,0,0,1],"scale":[1,1,1],"translation":[165.337295532227,-0.00578396115452,-294.368621826172]}],"samplers":[{}],"scene":0,"scenes":[{"name":"Root Scene","nodes":[0]}],"textures":[{"name":"base_color_texture","sampler":0,"source":0}]}