{"accessors":[{"bufferView":0,"byteOffset":0,"componentType":5123,"count":612,"type":"SCALAR"},{"bufferView":1,"byteOffset":0,"componentType":5126,"count":382,"max":[0.141811951994896,0.64136928319931,0.141865745186806],"min":[-0.14185884594917,-0.0000000388852,-0.14180499315262],"type":"VEC3"},{"bufferView":2,"byteOffset":0,"componentType":5126,"count":382,"type":"VEC3"},{"bufferView":3,"byteOffset":0,"componentType":5126,"count":382,"type":"VEC2"}],"asset":{"generator":"FBX2glTF v0.13.1","version":"2.0"},"bufferViews":[{"buffer":0,"byteLength":1224,"byteOffset":0,"target":34963},{"buffer":0,"byteLength":4584,"byteOffset":1224,"target":34962},{"buffer":0,"byteLength":4584,"byteOffset":5808,"target":34962},{"buffer":0,"byteLength":3056,"byteOffset":10392,"target":34962}],"buffers":[{"byteLength":13448,"uri":"SM_ThankYouBanner_01_A.bin"}],"images":[{"name":"MainTexture_City_4","uri":"MainTexture_City_4.png"}],"materials":[{"alphaMode":"OPAQUE","doubleSided":false,"extras":{"fromFBX":{"isTruePBR":false,"shadingModel":"Phong"}},"name":"Material","pbrMetallicRoughness":{"baseColorFactor":[1,1,1,1],"baseColorTexture":{"index":0,"texCoord":0},"metallicFactor":0.400000005960464,"roughnessFactor":0.140028014779091}}],"meshes":[{"name":"ThankYouBanner_01_A","primitives":[{"attributes":{"NORMAL":2,"POSITION":1,"TEXCOORD_0":3},"indices":0,"material":0,"mode":4}]}],"nodes":[{"mesh":0,"name":"ThankYouBanner_01_A","rotation":[0,0,0,1],"scale":[1,1,1],"translation":[164.627578735352,-0.07000227272511,-294.367980957031]}],"samplers":[{}],"scene":0,"scenes":[{"name":"Root Scene","nodes":[0]}],"textures":[{"name":"base_color_texture","sampler":0,"source":0}]}