{"accessors":[{"bufferView":0,"byteOffset":0,"componentType":5123,"count":636,"type":"SCALAR"},{"bufferView":1,"byteOffset":0,"componentType":5126,"count":402,"max":[0.198720172047615,0.0854318216443062,0.0908894687891006],"min":[-0.17255499958992,-0.11092033237219,-0.09297249466181],"type":"VEC3"},{"bufferView":2,"byteOffset":0,"componentType":5126,"count":402,"type":"VEC3"},{"bufferView":3,"byteOffset":0,"componentType":5126,"count":402,"type":"VEC2"}],"asset":{"generator":"FBX2glTF v0.13.1","version":"2.0"},"bufferViews":[{"buffer":0,"byteLength":1272,"byteOffset":0,"target":34963},{"buffer":0,"byteLength":4824,"byteOffset":1272,"target":34962},{"buffer":0,"byteLength":4824,"byteOffset":6096,"target":34962},{"buffer":0,"byteLength":3216,"byteOffset":10920,"target":34962}],"buffers":[{"byteLength":14136,"uri":"SM_Toaster_01_A.bin"}],"images":[{"name":"MainTexture_City_4","uri":"MainTexture_City_4.png"}],"materials":[{"alphaMode":"OPAQUE","doubleSided":false,"extras":{"fromFBX":{"isTruePBR":false,"shadingModel":"Phong"}},"name":"Material","pbrMetallicRoughness":{"baseColorFactor":[1,1,1,1],"baseColorTexture":{"index":0,"texCoord":0},"metallicFactor":0.400000005960464,"roughnessFactor":0.140028014779091}}],"meshes":[{"name":"Toaster_01_A","primitives":[{"attributes":{"NORMAL":2,"POSITION":1,"TEXCOORD_0":3},"indices":0,"material":0,"mode":4}]}],"nodes":[{"mesh":0,"name":"Toaster_01_A","rotation":[0,0,0,1],"scale":[1,1,1],"translation":[-21.19899559021,0.970372140407562,-59.7894020080566]}],"samplers":[{}],"scene":0,"scenes":[{"name":"Root Scene","nodes":[0]}],"textures":[{"name":"base_color_texture","sampler":0,"source":0}]}