{"accessors":[{"bufferView":0,"byteOffset":0,"componentType":5123,"count":444,"type":"SCALAR"},{"bufferView":1,"byteOffset":0,"componentType":5126,"count":260,"max":[0.430389404296875,0.344311505556107,0.172150507569313],"min":[-0.43038940429688,-0.00000002052256,-0.17216102778912],"type":"VEC3"},{"bufferView":2,"byteOffset":0,"componentType":5126,"count":260,"type":"VEC3"},{"bufferView":3,"byteOffset":0,"componentType":5126,"count":260,"type":"VEC2"},{"bufferView":4,"byteOffset":0,"componentType":5123,"count":708,"type":"SCALAR"},{"bufferView":5,"byteOffset":0,"componentType":5126,"count":468,"max":[0.430389404296875,0.252644896507263,0.344310075044632],"min":[-0.43038940429688,-0.000930903072,-0.0000000307005],"type":"VEC3"},{"bufferView":6,"byteOffset":0,"componentType":5126,"count":468,"type":"VEC3"},{"bufferView":7,"byteOffset":0,"componentType":5126,"count":468,"type":"VEC2"}],"asset":{"generator":"FBX2glTF v0.13.1","version":"2.0"},"bufferViews":[{"buffer":0,"byteLength":888,"byteOffset":0,"target":34963},{"buffer":0,"byteLength":3120,"byteOffset":888,"target":34962},{"buffer":0,"byteLength":3120,"byteOffset":4008,"target":34962},{"buffer":0,"byteLength":2080,"byteOffset":7128,"target":34962},{"buffer":0,"byteLength":1416,"byteOffset":9208,"target":34963},{"buffer":0,"byteLength":5616,"byteOffset":10624,"target":34962},{"buffer":0,"byteLength":5616,"byteOffset":16240,"target":34962},{"buffer":0,"byteLength":3744,"byteOffset":21856,"target":34962}],"buffers":[{"byteLength":25600,"uri":"SM_ToolBox.bin"}],"images":[{"name":"MainTexture_City_4","uri":"MainTexture_City_4.png"}],"materials":[{"alphaMode":"OPAQUE","doubleSided":false,"extras":{"fromFBX":{"isTruePBR":false,"shadingModel":"Phong"}},"name":"Material","pbrMetallicRoughness":{"baseColorFactor":[1,1,1,1],"baseColorTexture":{"index":0,"texCoord":0},"metallicFactor":0.400000005960464,"roughnessFactor":0.140028014779091}}],"meshes":[{"name":"ToolBox","primitives":[{"attributes":{"NORMAL":2,"POSITION":1,"TEXCOORD_0":3},"indices":0,"material":0,"mode":4}]},{"name":"ToolBoxTop","primitives":[{"attributes":{"NORMAL":6,"POSITION":5,"TEXCOORD_0":7},"indices":4,"material":0,"mode":4}]}],"nodes":[{"children":[1],"mesh":0,"name":"ToolBox","rotation":[0,0,0,1],"scale":[1,1,1],"translation":[-121.810356140137,-0.01888240687549,-60.016357421875]},{"mesh":1,"name":"ToolBoxTop","rotation":[0,0,0,1],"scale":[1,1,1],"translation":[0,0.344311475753784,-0.17216308414936]}],"samplers":[{}],"scene":0,"scenes":[{"name":"Root Scene","nodes":[0]}],"textures":[{"name":"base_color_texture","sampler":0,"source":0}]}