{"accessors":[{"bufferView":0,"byteOffset":0,"componentType":5123,"count":960,"type":"SCALAR"},{"bufferView":1,"byteOffset":0,"componentType":5126,"count":578,"max":[0.150000005960464,5.70064496994019,0.149981692433357],"min":[-0.15000000596046,0,-0.15001831948757],"type":"VEC3"},{"bufferView":2,"byteOffset":0,"componentType":5126,"count":578,"type":"VEC3"},{"bufferView":3,"byteOffset":0,"componentType":5126,"count":578,"type":"VEC2"},{"bufferView":4,"byteOffset":0,"componentType":5123,"count":2088,"type":"SCALAR"},{"bufferView":5,"byteOffset":0,"componentType":5126,"count":1384,"max":[0.134959608316422,0.380361765623093,0.38094487786293],"min":[-0.13506245613098,-0.37930560112,-0.08818893134594],"type":"VEC3"},{"bufferView":6,"byteOffset":0,"componentType":5126,"count":1384,"type":"VEC3"},{"bufferView":7,"byteOffset":0,"componentType":5126,"count":1384,"type":"VEC2"},{"bufferView":8,"byteOffset":0,"componentType":5123,"count":828,"type":"SCALAR"},{"bufferView":9,"byteOffset":0,"componentType":5126,"count":518,"max":[0.131724759936333,0.136837586760521,3.03972887992859],"min":[-0.13172487914562,-0.35783094167709,-0.09576100856066],"type":"VEC3"},{"bufferView":10,"byteOffset":0,"componentType":5126,"count":518,"type":"VEC3"},{"bufferView":11,"byteOffset":0,"componentType":5126,"count":518,"type":"VEC2"},{"bufferView":12,"byteOffset":0,"componentType":5123,"count":468,"type":"SCALAR"},{"bufferView":13,"byteOffset":0,"componentType":5126,"count":278,"max":[0.0957609638571739,0.000000238418579101562,4.90585851669312],"min":[-0.09576097130775,-0.35783094167709,-0.09576100856066],"type":"VEC3"},{"bufferView":14,"byteOffset":0,"componentType":5126,"count":278,"type":"VEC3"},{"bufferView":15,"byteOffset":0,"componentType":5126,"count":278,"type":"VEC2"},{"bufferView":16,"byteOffset":0,"componentType":5123,"count":2088,"type":"SCALAR"},{"bufferView":17,"byteOffset":0,"componentType":5126,"count":1306,"max":[0.209078252315521,0.373690664768219,0.474887192249298],"min":[-0.07217542082071,-0.06702237576246,-0.4748871922493],"type":"VEC3"},{"bufferView":18,"byteOffset":0,"componentType":5126,"count":1306,"type":"VEC3"},{"bufferView":19,"byteOffset":0,"componentType":5126,"count":1306,"type":"VEC2"}],"asset":{"generator":"FBX2glTF v0.13.1","version":"2.0"},"bufferViews":[{"buffer":0,"byteLength":1920,"byteOffset":0,"target":34963},{"buffer":0,"byteLength":6936,"byteOffset":1920,"target":34962},{"buffer":0,"byteLength":6936,"byteOffset":8856,"target":34962},{"buffer":0,"byteLength":4624,"byteOffset":15792,"target":34962},{"buffer":0,"byteLength":4176,"byteOffset":20416,"target":34963},{"buffer":0,"byteLength":16608,"byteOffset":24592,"target":34962},{"buffer":0,"byteLength":16608,"byteOffset":41200,"target":34962},{"buffer":0,"byteLength":11072,"byteOffset":57808,"target":34962},{"buffer":0,"byteLength":1656,"byteOffset":68880,"target":34963},{"buffer":0,"byteLength":6216,"byteOffset":70536,"target":34962},{"buffer":0,"byteLength":6216,"byteOffset":76752,"target":34962},{"buffer":0,"byteLength":4144,"byteOffset":82968,"target":34962},{"buffer":0,"byteLength":936,"byteOffset":87112,"target":34963},{"buffer":0,"byteLength":3336,"byteOffset":88048,"target":34962},{"buffer":0,"byteLength":3336,"byteOffset":91384,"target":34962},{"buffer":0,"byteLength":2224,"byteOffset":94720,"target":34962},{"buffer":0,"byteLength":4176,"byteOffset":96944,"target":34963},{"buffer":0,"byteLength":15672,"byteOffset":101120,"target":34962},{"buffer":0,"byteLength":15672,"byteOffset":116792,"target":34962},{"buffer":0,"byteLength":10448,"byteOffset":132464,"target":34962}],"buffers":[{"byteLength":142912,"uri":"SM_TrafficLight_01_A.bin"}],"images":[{"name":"MainTexture_City_4","uri":"MainTexture_City_4.png"}],"materials":[{"alphaMode":"OPAQUE","doubleSided":false,"extras":{"fromFBX":{"isTruePBR":false,"shadingModel":"Phong"}},"name":"Material.259","pbrMetallicRoughness":{"baseColorFactor":[1,1,1,1],"baseColorTexture":{"index":0,"texCoord":0},"metallicFactor":0.400000005960464,"roughnessFactor":0.140028014779091}}],"meshes":[{"name":"TrafficLight_01_A","primitives":[{"attributes":{"NORMAL":2,"POSITION":1,"TEXCOORD_0":3},"indices":0,"material":0,"mode":4}]},{"name":"Traffic_01_B","primitives":[{"attributes":{"NORMAL":6,"POSITION":5,"TEXCOORD_0":7},"indices":4,"material":0,"mode":4}]},{"name":"TrafficLightLigth_01_A","primitives":[{"attributes":{"NORMAL":10,"POSITION":9,"TEXCOORD_0":11},"indices":8,"material":0,"mode":4}]},{"name":"TrafficLightTrube_01_A","primitives":[{"attributes":{"NORMAL":14,"POSITION":13,"TEXCOORD_0":15},"indices":12,"material":0,"mode":4}]},{"name":"Traffic_01_A.001","primitives":[{"attributes":{"NORMAL":18,"POSITION":17,"TEXCOORD_0":19},"indices":16,"material":0,"mode":4}]}],"nodes":[{"children":[1,2,3],"mesh":0,"name":"TrafficLight_01_A","rotation":[0,0,0,1],"scale":[1,1,1],"translation":[110.757164001465,0,-294.368560791016]},{"mesh":1,"name":"Traffic_01_B","rotation":[0,0,0,1],"scale":[1,1,1],"translation":[0.00161132810171694,2.52795171737671,-0.00861328095198]},{"mesh":2,"name":"TrafficLightLigth_01_A","rotation":[0,0,0,1],"scale":[1,1,1],"translation":[-0.00000976562478,5.52158784866333,0]},{"children":[4],"mesh":3,"name":"TrafficLightTrube_01_A","rotation":[0,0,0,1],"scale":[1,1,1],"translation":[-0.00000976562478,4.17890787124634,0]},{"mesh":4,"name":"Traffic_01_A.001","rotation":[0.707106828689575,0,0,0.707106709480286],"scale":[0.00999999977648258,0.00999999977648258,0.00999999977648258],"translation":[0.0000307464579236694,-4.222900390625,0.0399860516190529]}],"samplers":[{}],"scene":0,"scenes":[{"name":"Root Scene","nodes":[0]}],"textures":[{"name":"base_color_texture","sampler":0,"source":0}]}