{"accessors":[{"bufferView":0,"byteOffset":0,"componentType":5123,"count":492,"type":"SCALAR"},{"bufferView":1,"byteOffset":0,"componentType":5126,"count":304,"max":[0.199996948242188,0.943139731884003,0.273258209228516],"min":[-0.19999694824219,0,-0.07500076293945],"type":"VEC3"},{"bufferView":2,"byteOffset":0,"componentType":5126,"count":304,"type":"VEC3"},{"bufferView":3,"byteOffset":0,"componentType":5126,"count":304,"type":"VEC2"}],"asset":{"generator":"FBX2glTF v0.13.1","version":"2.0"},"bufferViews":[{"buffer":0,"byteLength":984,"byteOffset":0,"target":34963},{"buffer":0,"byteLength":3648,"byteOffset":984,"target":34962},{"buffer":0,"byteLength":3648,"byteOffset":4632,"target":34962},{"buffer":0,"byteLength":2432,"byteOffset":8280,"target":34962}],"buffers":[{"byteLength":10712,"uri":"SM_TrashСan05.bin"}],"images":[{"name":"MainTexture_City_4","uri":"MainTexture_City_4.png"}],"materials":[{"alphaMode":"OPAQUE","doubleSided":false,"extras":{"fromFBX":{"isTruePBR":false,"shadingModel":"Phong"}},"name":"Material","pbrMetallicRoughness":{"baseColorFactor":[1,1,1,1],"baseColorTexture":{"index":0,"texCoord":0},"metallicFactor":0.400000005960464,"roughnessFactor":0.140028014779091}}],"meshes":[{"name":"TrashСan05","primitives":[{"attributes":{"NORMAL":2,"POSITION":1,"TEXCOORD_0":3},"indices":0,"material":0,"mode":4}]}],"nodes":[{"mesh":0,"name":"TrashСan05","rotation":[0,0,0,1],"scale":[1,1,1],"translation":[-93.5086975097656,-0.01499999966472,-60.3400077819824]}],"samplers":[{}],"scene":0,"scenes":[{"name":"Root Scene","nodes":[0]}],"textures":[{"name":"base_color_texture","sampler":0,"source":0}]}