{"accessors":[{"bufferView":0,"byteOffset":0,"componentType":5123,"count":228,"type":"SCALAR"},{"bufferView":1,"byteOffset":0,"componentType":5126,"count":142,"max":[0.723308622837067,0.507105767726898,0.331836342811584],"min":[-0.72292906045914,-0.00330758094788,-0.33180582523346],"type":"VEC3"},{"bufferView":2,"byteOffset":0,"componentType":5126,"count":142,"type":"VEC3"},{"bufferView":3,"byteOffset":0,"componentType":5126,"count":142,"type":"VEC2"}],"asset":{"generator":"FBX2glTF v0.13.1","version":"2.0"},"bufferViews":[{"buffer":0,"byteLength":456,"byteOffset":0,"target":34963},{"buffer":0,"byteLength":1704,"byteOffset":456,"target":34962},{"buffer":0,"byteLength":1704,"byteOffset":2160,"target":34962},{"buffer":0,"byteLength":1136,"byteOffset":3864,"target":34962}],"buffers":[{"byteLength":5000,"uri":"SM_Table_05_A.bin"}],"images":[{"name":"MainTexture_City_4","uri":"MainTexture_City_4.png"}],"materials":[{"alphaMode":"OPAQUE","doubleSided":false,"extras":{"fromFBX":{"isTruePBR":false,"shadingModel":"Phong"}},"name":"Material","pbrMetallicRoughness":{"baseColorFactor":[1,1,1,1],"baseColorTexture":{"index":0,"texCoord":0},"metallicFactor":0.400000005960464,"roughnessFactor":0.140028014779091}}],"meshes":[{"name":"Table_05_A","primitives":[{"attributes":{"NORMAL":2,"POSITION":1,"TEXCOORD_0":3},"indices":0,"material":0,"mode":4}]}],"nodes":[{"mesh":0,"name":"Table_05_A","rotation":[0,0,0,1],"scale":[1,1,1],"translation":[-9.36422157287598,0.100455164909363,-56.3620681762695]}],"samplers":[{}],"scene":0,"scenes":[{"name":"Root Scene","nodes":[0]}],"textures":[{"name":"base_color_texture","sampler":0,"source":0}]}