{"accessors":[{"bufferView":0,"byteOffset":0,"componentType":5123,"count":1668,"type":"SCALAR"},{"bufferView":1,"byteOffset":0,"componentType":5126,"count":910,"max":[0.366232067346573,1.3239072561264,0.35179015994072],"min":[-0.3667913377285,-0.00000007152558,-0.37334364652634],"type":"VEC3"},{"bufferView":2,"byteOffset":0,"componentType":5126,"count":910,"type":"VEC3"},{"bufferView":3,"byteOffset":0,"componentType":5126,"count":910,"type":"VEC2"},{"bufferView":4,"byteOffset":0,"componentType":5123,"count":378,"type":"SCALAR"},{"bufferView":5,"byteOffset":0,"componentType":5126,"count":160,"max":[0.343818575143814,0.225617781281471,0.333615243434906],"min":[-0.34381845593452,-0.09198939800262,-0.4000523686409],"type":"VEC3"},{"bufferView":6,"byteOffset":0,"componentType":5126,"count":160,"type":"VEC3"},{"bufferView":7,"byteOffset":0,"componentType":5126,"count":160,"type":"VEC2"},{"bufferView":8,"byteOffset":0,"componentType":5123,"count":378,"type":"SCALAR"},{"bufferView":9,"byteOffset":0,"componentType":5126,"count":184,"max":[0.343818515539169,0.223618537187576,0.357368230819702],"min":[-0.34381851553917,-0.11295867711306,-0.38815265893936],"type":"VEC3"},{"bufferView":10,"byteOffset":0,"componentType":5126,"count":184,"type":"VEC3"},{"bufferView":11,"byteOffset":0,"componentType":5126,"count":184,"type":"VEC2"},{"bufferView":12,"byteOffset":0,"componentType":5123,"count":378,"type":"SCALAR"},{"bufferView":13,"byteOffset":0,"componentType":5126,"count":172,"max":[0.343818515539169,0.135228618979454,0.348639279603958],"min":[-0.34381851553917,-0.06373360753059,-0.38724237680435],"type":"VEC3"},{"bufferView":14,"byteOffset":0,"componentType":5126,"count":172,"type":"VEC3"},{"bufferView":15,"byteOffset":0,"componentType":5126,"count":172,"type":"VEC2"},{"bufferView":16,"byteOffset":0,"componentType":5123,"count":378,"type":"SCALAR"},{"bufferView":17,"byteOffset":0,"componentType":5126,"count":156,"max":[0.343818515539169,0.144715756177902,0.349879741668701],"min":[-0.34381851553917,-0.07055485248566,-0.38600191473961],"type":"VEC3"},{"bufferView":18,"byteOffset":0,"componentType":5126,"count":156,"type":"VEC3"},{"bufferView":19,"byteOffset":0,"componentType":5126,"count":156,"type":"VEC2"}],"asset":{"generator":"FBX2glTF v0.13.1","version":"2.0"},"bufferViews":[{"buffer":0,"byteLength":3336,"byteOffset":0,"target":34963},{"buffer":0,"byteLength":10920,"byteOffset":3336,"target":34962},{"buffer":0,"byteLength":10920,"byteOffset":14256,"target":34962},{"buffer":0,"byteLength":7280,"byteOffset":25176,"target":34962},{"buffer":0,"byteLength":756,"byteOffset":32456,"target":34963},{"buffer":0,"byteLength":1920,"byteOffset":33212,"target":34962},{"buffer":0,"byteLength":1920,"byteOffset":35132,"target":34962},{"buffer":0,"byteLength":1280,"byteOffset":37052,"target":34962},{"buffer":0,"byteLength":756,"byteOffset":38332,"target":34963},{"buffer":0,"byteLength":2208,"byteOffset":39088,"target":34962},{"buffer":0,"byteLength":2208,"byteOffset":41296,"target":34962},{"buffer":0,"byteLength":1472,"byteOffset":43504,"target":34962},{"buffer":0,"byteLength":756,"byteOffset":44976,"target":34963},{"buffer":0,"byteLength":2064,"byteOffset":45732,"target":34962},{"buffer":0,"byteLength":2064,"byteOffset":47796,"target":34962},{"buffer":0,"byteLength":1376,"byteOffset":49860,"target":34962},{"buffer":0,"byteLength":756,"byteOffset":51236,"target":34963},{"buffer":0,"byteLength":1872,"byteOffset":51992,"target":34962},{"buffer":0,"byteLength":1872,"byteOffset":53864,"target":34962},{"buffer":0,"byteLength":1248,"byteOffset":55736,"target":34962}],"buffers":[{"byteLength":56984,"uri":"SM_ToolBox01.bin"}],"images":[{"name":"MainTexture_City_4","uri":"MainTexture_City_4.png"}],"materials":[{"alphaMode":"OPAQUE","doubleSided":false,"extras":{"fromFBX":{"isTruePBR":false,"shadingModel":"Phong"}},"name":"Material","pbrMetallicRoughness":{"baseColorFactor":[1,1,1,1],"baseColorTexture":{"index":0,"texCoord":0},"metallicFactor":0.400000005960464,"roughnessFactor":0.140028014779091}}],"meshes":[{"name":"ToolBox01","primitives":[{"attributes":{"NORMAL":2,"POSITION":1,"TEXCOORD_0":3},"indices":0,"material":0,"mode":4}]},{"name":"box04","primitives":[{"attributes":{"NORMAL":6,"POSITION":5,"TEXCOORD_0":7},"indices":4,"material":0,"mode":4}]},{"name":"Box03.001","primitives":[{"attributes":{"NORMAL":10,"POSITION":9,"TEXCOORD_0":11},"indices":8,"material":0,"mode":4}]},{"name":"Box02.001","primitives":[{"attributes":{"NORMAL":14,"POSITION":13,"TEXCOORD_0":15},"indices":12,"material":0,"mode":4}]},{"name":"Box01.001","primitives":[{"attributes":{"NORMAL":18,"POSITION":17,"TEXCOORD_0":19},"indices":16,"material":0,"mode":4}]}],"nodes":[{"children":[1,2,3,4],"mesh":0,"name":"ToolBox01","rotation":[0,0,0,1],"scale":[1,1,1],"translation":[-131.398086547852,0.0353980660438538,-59.9930152893066]},{"mesh":1,"name":"box04","rotation":[0,0,0,1],"scale":[1,1,1],"translation":[-0.00028320311685,0.24676613509655,0.0509960912168026]},{"mesh":2,"name":"Box03.001","rotation":[0,0,0,1],"scale":[1,1,1],"translation":[-0.00028320311685,0.600682318210602,0.038945309817791]},{"mesh":3,"name":"Box02.001","rotation":[0,0,0,1],"scale":[1,1,1],"translation":[-0.00028320311685,0.907640874385834,0.0372509770095348]},{"mesh":4,"name":"Box01.001","rotation":[0,0,0,1],"scale":[1,1,1],"translation":[-0.00028320311685,1.12973272800446,0.0375830084085464]}],"samplers":[{}],"scene":0,"scenes":[{"name":"Root Scene","nodes":[0]}],"textures":[{"name":"base_color_texture","sampler":0,"source":0}]}