{"accessors":[{"bufferView":0,"byteOffset":0,"componentType":5123,"count":1068,"type":"SCALAR"},{"bufferView":1,"byteOffset":0,"componentType":5126,"count":596,"max":[0.157218933105469,1.01877295970917,0.157211303710938],"min":[-0.1572265625,0,-0.15723037719727],"type":"VEC3"},{"bufferView":2,"byteOffset":0,"componentType":5126,"count":596,"type":"VEC3"},{"bufferView":3,"byteOffset":0,"componentType":5126,"count":596,"type":"VEC2"}],"asset":{"generator":"FBX2glTF v0.13.1","version":"2.0"},"bufferViews":[{"buffer":0,"byteLength":2136,"byteOffset":0,"target":34963},{"buffer":0,"byteLength":7152,"byteOffset":2136,"target":34962},{"buffer":0,"byteLength":7152,"byteOffset":9288,"target":34962},{"buffer":0,"byteLength":4768,"byteOffset":16440,"target":34962}],"buffers":[{"byteLength":21208,"uri":"SM_TrashСan01.bin"}],"images":[{"name":"MainTexture_City_4","uri":"MainTexture_City_4.png"}],"materials":[{"alphaMode":"OPAQUE","doubleSided":false,"extras":{"fromFBX":{"isTruePBR":false,"shadingModel":"Phong"}},"name":"Material","pbrMetallicRoughness":{"baseColorFactor":[1,1,1,1],"baseColorTexture":{"index":0,"texCoord":0},"metallicFactor":0.400000005960464,"roughnessFactor":0.140028014779091}}],"meshes":[{"name":"TrashСan01","primitives":[{"attributes":{"NORMAL":2,"POSITION":1,"TEXCOORD_0":3},"indices":0,"material":0,"mode":4}]}],"nodes":[{"mesh":0,"name":"TrashСan01","rotation":[0,0,0,1],"scale":[1,1,1],"translation":[-95.2780532836914,0,-60.3400039672852]}],"samplers":[{}],"scene":0,"scenes":[{"name":"Root Scene","nodes":[0]}],"textures":[{"name":"base_color_texture","sampler":0,"source":0}]}