{"accessors":[{"bufferView":0,"byteOffset":0,"componentType":5123,"count":984,"type":"SCALAR"},{"bufferView":1,"byteOffset":0,"componentType":5126,"count":608,"max":[0.454261988401413,0.768469393253326,0.454225987195969],"min":[-0.42379802465439,-0.01049727201462,-0.42302340269089],"type":"VEC3"},{"bufferView":2,"byteOffset":0,"componentType":5126,"count":608,"type":"VEC3"},{"bufferView":3,"byteOffset":0,"componentType":5126,"count":608,"type":"VEC2"}],"asset":{"generator":"FBX2glTF v0.13.1","version":"2.0"},"bufferViews":[{"buffer":0,"byteLength":1968,"byteOffset":0,"target":34963},{"buffer":0,"byteLength":7296,"byteOffset":1968,"target":34962},{"buffer":0,"byteLength":7296,"byteOffset":9264,"target":34962},{"buffer":0,"byteLength":4864,"byteOffset":16560,"target":34962}],"buffers":[{"byteLength":21424,"uri":"SM_Table_03_A.bin"}],"images":[{"name":"MainTexture_City_4","uri":"MainTexture_City_4.png"}],"materials":[{"alphaMode":"OPAQUE","doubleSided":false,"extras":{"fromFBX":{"isTruePBR":false,"shadingModel":"Phong"}},"name":"Material","pbrMetallicRoughness":{"baseColorFactor":[1,1,1,1],"baseColorTexture":{"index":0,"texCoord":0},"metallicFactor":0.400000005960464,"roughnessFactor":0.140028014779091}}],"meshes":[{"name":"Table_03_A","primitives":[{"attributes":{"NORMAL":2,"POSITION":1,"TEXCOORD_0":3},"indices":0,"material":0,"mode":4}]}],"nodes":[{"mesh":0,"name":"Table_03_A","rotation":[0,0,0,1],"scale":[1,1,1],"translation":[-18.0461883544922,-0.07690143585205,-56.7345924377441]}],"samplers":[{}],"scene":0,"scenes":[{"name":"Root Scene","nodes":[0]}],"textures":[{"name":"base_color_texture","sampler":0,"source":0}]}