{"accessors":[{"bufferView":0,"byteOffset":0,"componentType":5123,"count":534,"type":"SCALAR"},{"bufferView":1,"byteOffset":0,"componentType":5126,"count":283,"max":[0.393160402774811,0.691485106945038,0.266839683055878],"min":[-0.80393654108047,0,-0.26685017347336],"type":"VEC3"},{"bufferView":2,"byteOffset":0,"componentType":5126,"count":283,"type":"VEC3"},{"bufferView":3,"byteOffset":0,"componentType":5126,"count":283,"type":"VEC2"},{"bufferView":4,"byteOffset":0,"componentType":5123,"count":36,"type":"SCALAR"},{"bufferView":5,"byteOffset":0,"componentType":5126,"count":24,"max":[0.361257016658783,0.683500945568085,0.216944113373756],"min":[-0.76161360740662,0.659942507743835,-0.21736440062523],"type":"VEC3"},{"bufferView":6,"byteOffset":0,"componentType":5126,"count":24,"type":"VEC3"},{"bufferView":7,"byteOffset":0,"componentType":5126,"count":24,"type":"VEC2"}],"asset":{"generator":"FBX2glTF v0.13.1","version":"2.0"},"bufferViews":[{"buffer":0,"byteLength":1068,"byteOffset":0,"target":34963},{"buffer":0,"byteLength":3396,"byteOffset":1068,"target":34962},{"buffer":0,"byteLength":3396,"byteOffset":4464,"target":34962},{"buffer":0,"byteLength":2264,"byteOffset":7860,"target":34962},{"buffer":0,"byteLength":72,"byteOffset":10124,"target":34963},{"buffer":0,"byteLength":288,"byteOffset":10196,"target":34962},{"buffer":0,"byteLength":288,"byteOffset":10484,"target":34962},{"buffer":0,"byteLength":192,"byteOffset":10772,"target":34962}],"buffers":[{"byteLength":10964,"uri":"SM_Table_01_A.bin"}],"images":[{"name":"MainTexture_City_4","uri":"MainTexture_City_4.png"}],"materials":[{"alphaMode":"OPAQUE","doubleSided":false,"extras":{"fromFBX":{"isTruePBR":false,"shadingModel":"Phong"}},"name":"Material","pbrMetallicRoughness":{"baseColorFactor":[1,1,1,1],"baseColorTexture":{"index":0,"texCoord":0},"metallicFactor":0.400000005960464,"roughnessFactor":0.140028014779091}},{"alphaMode":"OPAQUE","doubleSided":false,"extras":{"fromFBX":{"isTruePBR":false,"shadingModel":"Phong"}},"name":"Glass","pbrMetallicRoughness":{"baseColorFactor":[0.364632904529572,0.488288849592209,0.800000071525574,1],"metallicFactor":0.400000005960464,"roughnessFactor":1}}],"meshes":[{"name":"Table_01_A","primitives":[{"attributes":{"NORMAL":2,"POSITION":1,"TEXCOORD_0":3},"indices":0,"material":0,"mode":4},{"attributes":{"NORMAL":6,"POSITION":5,"TEXCOORD_0":7},"indices":4,"material":1,"mode":4}]}],"nodes":[{"mesh":0,"name":"Table_01_A","rotation":[0,0,0,1],"scale":[1,1,1],"translation":[-20.5744209289551,0.0373613238334656,-56.7522010803223]}],"samplers":[{}],"scene":0,"scenes":[{"name":"Root Scene","nodes":[0]}],"textures":[{"name":"base_color_texture","sampler":0,"source":0}]}