{"accessors":[{"bufferView":0,"byteOffset":0,"componentType":5123,"count":468,"type":"SCALAR"},{"bufferView":1,"byteOffset":0,"componentType":5126,"count":255,"max":[0.54030179977417,0.580174565315247,0.0525983944535255],"min":[-0.54031825065613,0.0000000320162527600587,-0.05258773639798],"type":"VEC3"},{"bufferView":2,"byteOffset":0,"componentType":5126,"count":255,"type":"VEC3"},{"bufferView":3,"byteOffset":0,"componentType":5126,"count":255,"type":"VEC2"}],"asset":{"generator":"FBX2glTF v0.13.1","version":"2.0"},"bufferViews":[{"buffer":0,"byteLength":936,"byteOffset":0,"target":34963},{"buffer":0,"byteLength":3060,"byteOffset":936,"target":34962},{"buffer":0,"byteLength":3060,"byteOffset":3996,"target":34962},{"buffer":0,"byteLength":2040,"byteOffset":7056,"target":34962}],"buffers":[{"byteLength":9096,"uri":"SM_TV_02_A.bin"}],"images":[{"name":"MainTexture_City_4","uri":"MainTexture_City_4.png"}],"materials":[{"alphaMode":"OPAQUE","doubleSided":false,"extras":{"fromFBX":{"isTruePBR":false,"shadingModel":"Phong"}},"name":"Material","pbrMetallicRoughness":{"baseColorFactor":[1,1,1,1],"baseColorTexture":{"index":0,"texCoord":0},"metallicFactor":0.400000005960464,"roughnessFactor":0.140028014779091}}],"meshes":[{"name":"TV_02_A","primitives":[{"attributes":{"NORMAL":2,"POSITION":1,"TEXCOORD_0":3},"indices":0,"material":0,"mode":4}]}],"nodes":[{"mesh":0,"name":"TV_02_A","rotation":[0,0,0,1],"scale":[1,1,1],"translation":[-110.280876159668,0.419985085725784,-60.0797004699707]}],"samplers":[{}],"scene":0,"scenes":[{"name":"Root Scene","nodes":[0]}],"textures":[{"name":"base_color_texture","sampler":0,"source":0}]}