{"accessors":[{"bufferView":0,"byteOffset":0,"componentType":5123,"count":1506,"type":"SCALAR"},{"bufferView":1,"byteOffset":0,"componentType":5126,"count":844,"max":[0.16009521484375,1.13850235939026,0.160087585449219],"min":[-0.16008758544922,0,-0.16009140014648],"type":"VEC3"},{"bufferView":2,"byteOffset":0,"componentType":5126,"count":844,"type":"VEC3"},{"bufferView":3,"byteOffset":0,"componentType":5126,"count":844,"type":"VEC2"}],"asset":{"generator":"FBX2glTF v0.13.1","version":"2.0"},"bufferViews":[{"buffer":0,"byteLength":3012,"byteOffset":0,"target":34963},{"buffer":0,"byteLength":10128,"byteOffset":3012,"target":34962},{"buffer":0,"byteLength":10128,"byteOffset":13140,"target":34962},{"buffer":0,"byteLength":6752,"byteOffset":23268,"target":34962}],"buffers":[{"byteLength":30020,"uri":"SM_TrashСan02.bin"}],"images":[{"name":"MainTexture_City_4","uri":"MainTexture_City_4.png"}],"materials":[{"alphaMode":"OPAQUE","doubleSided":false,"extras":{"fromFBX":{"isTruePBR":false,"shadingModel":"Phong"}},"name":"Material","pbrMetallicRoughness":{"baseColorFactor":[1,1,1,1],"baseColorTexture":{"index":0,"texCoord":0},"metallicFactor":0.400000005960464,"roughnessFactor":0.140028014779091}}],"meshes":[{"name":"TrashСan02","primitives":[{"attributes":{"NORMAL":2,"POSITION":1,"TEXCOORD_0":3},"indices":0,"material":0,"mode":4}]}],"nodes":[{"mesh":0,"name":"TrashСan02","rotation":[0,0,0,1],"scale":[1,1,1],"translation":[-94.8652496337891,0,-60.3439064025879]}],"samplers":[{}],"scene":0,"scenes":[{"name":"Root Scene","nodes":[0]}],"textures":[{"name":"base_color_texture","sampler":0,"source":0}]}