{"accessors":[{"bufferView":0,"byteOffset":0,"componentType":5123,"count":714,"type":"SCALAR"},{"bufferView":1,"byteOffset":0,"componentType":5126,"count":406,"max":[0.711891174316406,0.0224028490483761,0.711883544921875],"min":[-0.71186828613281,-2.05759716033936,-0.71187591552734],"type":"VEC3"},{"bufferView":2,"byteOffset":0,"componentType":5126,"count":406,"type":"VEC3"},{"bufferView":3,"byteOffset":0,"componentType":5126,"count":406,"type":"VEC2"},{"bufferView":4,"byteOffset":0,"componentType":5123,"count":468,"type":"SCALAR"},{"bufferView":5,"byteOffset":0,"componentType":5126,"count":272,"max":[0.471446990966797,0.00999999884516001,0.471439361572266],"min":[-0.47143173217773,-0.00999999884516,-0.47143936157227],"type":"VEC3"},{"bufferView":6,"byteOffset":0,"componentType":5126,"count":272,"type":"VEC3"},{"bufferView":7,"byteOffset":0,"componentType":5126,"count":272,"type":"VEC2"}],"asset":{"generator":"FBX2glTF v0.13.1","version":"2.0"},"bufferViews":[{"buffer":0,"byteLength":1428,"byteOffset":0,"target":34963},{"buffer":0,"byteLength":4872,"byteOffset":1428,"target":34962},{"buffer":0,"byteLength":4872,"byteOffset":6300,"target":34962},{"buffer":0,"byteLength":3248,"byteOffset":11172,"target":34962},{"buffer":0,"byteLength":936,"byteOffset":14420,"target":34963},{"buffer":0,"byteLength":3264,"byteOffset":15356,"target":34962},{"buffer":0,"byteLength":3264,"byteOffset":18620,"target":34962},{"buffer":0,"byteLength":2176,"byteOffset":21884,"target":34962}],"buffers":[{"byteLength":24060,"uri":"SM_UndergroundHatch.bin"}],"images":[{"name":"MainTexture_City_4","uri":"MainTexture_City_4.png"}],"materials":[{"alphaMode":"OPAQUE","doubleSided":false,"extras":{"fromFBX":{"isTruePBR":false,"shadingModel":"Phong"}},"name":"Material","pbrMetallicRoughness":{"baseColorFactor":[1,1,1,1],"baseColorTexture":{"index":0,"texCoord":0},"metallicFactor":0.400000005960464,"roughnessFactor":0.140028014779091}}],"meshes":[{"name":"UndergroundHatch","primitives":[{"attributes":{"NORMAL":2,"POSITION":1,"TEXCOORD_0":3},"indices":0,"material":0,"mode":4}]},{"name":"Top","primitives":[{"attributes":{"NORMAL":6,"POSITION":5,"TEXCOORD_0":7},"indices":4,"material":0,"mode":4}]}],"nodes":[{"children":[1],"mesh":0,"name":"UndergroundHatch","rotation":[0,0,0,1],"scale":[1,1,1],"translation":[-62.1492156982422,-0.02240284904838,-60.3400115966797]},{"mesh":1,"name":"Top","rotation":[0,0,0,1],"scale":[1,1,1],"translation":[0.00025878904853016,0.0324028469622135,-0.00748046860099]}],"samplers":[{}],"scene":0,"scenes":[{"name":"Root Scene","nodes":[0]}],"textures":[{"name":"base_color_texture","sampler":0,"source":0}]}