{"accessors":[{"bufferView":0,"byteOffset":0,"componentType":5123,"count":2712,"type":"SCALAR"},{"bufferView":1,"byteOffset":0,"componentType":5126,"count":1727,"max":[27.3886947631836,52.7445068359375,27.3886947631836],"min":[-27.3886947631836,-0.04568529129028,-27.3886947631836],"type":"VEC3"},{"bufferView":2,"byteOffset":0,"componentType":5126,"count":1727,"type":"VEC3"},{"bufferView":3,"byteOffset":0,"componentType":5126,"count":1727,"type":"VEC2"}],"asset":{"generator":"FBX2glTF v0.13.1","version":"2.0"},"bufferViews":[{"buffer":0,"byteLength":5424,"byteOffset":0,"target":34963},{"buffer":0,"byteLength":20724,"byteOffset":5424,"target":34962},{"buffer":0,"byteLength":20724,"byteOffset":26148,"target":34962},{"buffer":0,"byteLength":13816,"byteOffset":46872,"target":34962}],"buffers":[{"byteLength":60688,"uri":"SM_Umbrella_01_C.bin"}],"images":[{"name":"MainTexture_City_4","uri":"MainTexture_City_4.png"}],"materials":[{"alphaMode":"OPAQUE","doubleSided":false,"extras":{"fromFBX":{"isTruePBR":false,"shadingModel":"Phong"}},"name":"Material.250","pbrMetallicRoughness":{"baseColorFactor":[1,1,1,1],"baseColorTexture":{"index":0,"texCoord":0},"metallicFactor":0.400000005960464,"roughnessFactor":0.140028014779091}}],"meshes":[{"name":"Umbrella_01_C","primitives":[{"attributes":{"NORMAL":2,"POSITION":1,"TEXCOORD_0":3},"indices":0,"material":0,"mode":4}]}],"nodes":[{"mesh":0,"name":"Umbrella_01_C","rotation":[-0,-0.70838356018066,-0,0.705827653408051],"scale":[0.0457036159932613,0.0457036197185516,0.0457036159932613],"translation":[97.2627410888672,-0.90142101049423,-294.808227539062]}],"samplers":[{}],"scene":0,"scenes":[{"name":"Root Scene","nodes":[0]}],"textures":[{"name":"base_color_texture","sampler":0,"source":0}]}