{"accessors":[{"bufferView":0,"byteOffset":0,"componentType":5123,"count":2748,"type":"SCALAR"},{"bufferView":1,"byteOffset":0,"componentType":5126,"count":1196,"max":[0.978983640670776,0.910585403442383,2.27937412261963],"min":[-1.02101647853851,-1.18941450119019,-1.72062599658966],"type":"VEC3"},{"bufferView":2,"byteOffset":0,"componentType":5126,"count":1196,"type":"VEC3"},{"bufferView":3,"byteOffset":0,"componentType":5126,"count":1196,"type":"VEC2"},{"bufferView":4,"byteOffset":0,"componentType":5123,"count":84,"type":"SCALAR"},{"bufferView":5,"byteOffset":0,"componentType":5126,"count":56,"max":[0.402010023593903,0.0499998331069946,1.55016982555389],"min":[-0.39798986911774,-0.05000007152557,-1.54982995986938],"type":"VEC3"},{"bufferView":6,"byteOffset":0,"componentType":5126,"count":56,"type":"VEC3"},{"bufferView":7,"byteOffset":0,"componentType":5126,"count":56,"type":"VEC2"},{"bufferView":8,"byteOffset":0,"componentType":5123,"count":84,"type":"SCALAR"},{"bufferView":9,"byteOffset":0,"componentType":5126,"count":48,"max":[0.550048291683197,0.0499999523162842,0.399999797344208],"min":[-0.54995167255402,-0.04999995231628,-0.40000033378601],"type":"VEC3"},{"bufferView":10,"byteOffset":0,"componentType":5126,"count":48,"type":"VEC3"},{"bufferView":11,"byteOffset":0,"componentType":5126,"count":48,"type":"VEC2"}],"asset":{"generator":"FBX2glTF v0.13.1","version":"2.0"},"bufferViews":[{"buffer":0,"byteLength":5496,"byteOffset":0,"target":34963},{"buffer":0,"byteLength":14352,"byteOffset":5496,"target":34962},{"buffer":0,"byteLength":14352,"byteOffset":19848,"target":34962},{"buffer":0,"byteLength":9568,"byteOffset":34200,"target":34962},{"buffer":0,"byteLength":168,"byteOffset":43768,"target":34963},{"buffer":0,"byteLength":672,"byteOffset":43936,"target":34962},{"buffer":0,"byteLength":672,"byteOffset":44608,"target":34962},{"buffer":0,"byteLength":448,"byteOffset":45280,"target":34962},{"buffer":0,"byteLength":168,"byteOffset":45728,"target":34963},{"buffer":0,"byteLength":576,"byteOffset":45896,"target":34962},{"buffer":0,"byteLength":576,"byteOffset":46472,"target":34962},{"buffer":0,"byteLength":384,"byteOffset":47048,"target":34962}],"buffers":[{"byteLength":47432,"uri":"SM_VehiclePitCap01.bin"}],"images":[{"name":"MainTexture_City_4","uri":"MainTexture_City_4.png"}],"materials":[{"alphaMode":"OPAQUE","doubleSided":false,"extras":{"fromFBX":{"isTruePBR":false,"shadingModel":"Phong"}},"name":"Material","pbrMetallicRoughness":{"baseColorFactor":[1,1,1,1],"baseColorTexture":{"index":0,"texCoord":0},"metallicFactor":0.400000005960464,"roughnessFactor":0.140028014779091}}],"meshes":[{"name":"VehiclePit","primitives":[{"attributes":{"NORMAL":2,"POSITION":1,"TEXCOORD_0":3},"indices":0,"material":0,"mode":4}]},{"name":"VehiclePitCap02","primitives":[{"attributes":{"NORMAL":6,"POSITION":5,"TEXCOORD_0":7},"indices":4,"material":0,"mode":4}]},{"name":"VehiclePitCap01","primitives":[{"attributes":{"NORMAL":10,"POSITION":9,"TEXCOORD_0":11},"indices":8,"material":0,"mode":4}]}],"nodes":[{"children":[1,2],"mesh":0,"name":"VehiclePit","rotation":[0,0,0,1],"scale":[1,1,1],"translation":[-144.01171875,-0.90124636888504,-60.3457298278809]},{"mesh":1,"name":"VehiclePitCap02","rotation":[0,0,0,1],"scale":[1,1,1],"translation":[-0.58562499284744,0.860585689544678,0.329208970069885]},{"mesh":2,"name":"VehiclePitCap01","rotation":[0,0,0,1],"scale":[1,1,1],"translation":[0.372412115335464,0.860585510730743,-0.82062500715256]}],"samplers":[{}],"scene":0,"scenes":[{"name":"Root Scene","nodes":[0]}],"textures":[{"name":"base_color_texture","sampler":0,"source":0}]}