{"accessors":[{"bufferView":0,"byteOffset":0,"componentType":5123,"count":204,"type":"SCALAR"},{"bufferView":1,"byteOffset":0,"componentType":5126,"count":136,"max":[0.249984741210938,1.00024592876434,0.0249755848199129],"min":[-0.25001525878906,-0.00000002384186,-0.0250244140625],"type":"VEC3"},{"bufferView":2,"byteOffset":0,"componentType":5126,"count":136,"type":"VEC3"},{"bufferView":3,"byteOffset":0,"componentType":5126,"count":136,"type":"VEC2"}],"asset":{"generator":"FBX2glTF v0.13.1","version":"2.0"},"bufferViews":[{"buffer":0,"byteLength":408,"byteOffset":0,"target":34963},{"buffer":0,"byteLength":1632,"byteOffset":408,"target":34962},{"buffer":0,"byteLength":1632,"byteOffset":2040,"target":34962},{"buffer":0,"byteLength":1088,"byteOffset":3672,"target":34962}],"buffers":[{"byteLength":4760,"uri":"SM_WI_FI_01_A.bin"}],"images":[{"name":"MainTexture_City_4","uri":"MainTexture_City_4.png"}],"materials":[{"alphaMode":"OPAQUE","doubleSided":false,"extras":{"fromFBX":{"isTruePBR":false,"shadingModel":"Phong"}},"name":"Material","pbrMetallicRoughness":{"baseColorFactor":[1,1,1,1],"baseColorTexture":{"index":0,"texCoord":0},"metallicFactor":0.400000005960464,"roughnessFactor":0.140028014779091}}],"meshes":[{"name":"WI_FI_01_A","primitives":[{"attributes":{"NORMAL":2,"POSITION":1,"TEXCOORD_0":3},"indices":0,"material":0,"mode":4}]}],"nodes":[{"mesh":0,"name":"WI_FI_01_A","rotation":[0,0,0,1],"scale":[1,1,1],"translation":[191.483612060547,-0.00102262198925,-294.368560791016]}],"samplers":[{}],"scene":0,"scenes":[{"name":"Root Scene","nodes":[0]}],"textures":[{"name":"base_color_texture","sampler":0,"source":0}]}