{"accessors":[{"bufferView":0,"byteOffset":0,"componentType":5123,"count":918,"type":"SCALAR"},{"bufferView":1,"byteOffset":0,"componentType":5126,"count":532,"max":[0.314776450395584,0.763315081596375,0.451696306467056],"min":[-0.31477361917496,-0.00000002217507,-0.41785225272179],"type":"VEC3"},{"bufferView":2,"byteOffset":0,"componentType":5126,"count":532,"type":"VEC3"},{"bufferView":3,"byteOffset":0,"componentType":5126,"count":532,"type":"VEC2"}],"asset":{"generator":"FBX2glTF v0.13.1","version":"2.0"},"bufferViews":[{"buffer":0,"byteLength":1836,"byteOffset":0,"target":34963},{"buffer":0,"byteLength":6384,"byteOffset":1836,"target":34962},{"buffer":0,"byteLength":6384,"byteOffset":8220,"target":34962},{"buffer":0,"byteLength":4256,"byteOffset":14604,"target":34962}],"buffers":[{"byteLength":18860,"uri":"SM_Washer_01_A.bin"}],"images":[{"name":"MainTexture_City_4","uri":"MainTexture_City_4.png"}],"materials":[{"alphaMode":"OPAQUE","doubleSided":false,"extras":{"fromFBX":{"isTruePBR":false,"shadingModel":"Phong"}},"name":"Material","pbrMetallicRoughness":{"baseColorFactor":[1,1,1,1],"baseColorTexture":{"index":0,"texCoord":0},"metallicFactor":0.400000005960464,"roughnessFactor":0.140028014779091}}],"meshes":[{"name":"Washer_01_A","primitives":[{"attributes":{"NORMAL":2,"POSITION":1,"TEXCOORD_0":3},"indices":0,"material":0,"mode":4}]}],"nodes":[{"mesh":0,"name":"Washer_01_A","rotation":[0,0,0,1],"scale":[1,1,1],"translation":[-19.0780944824219,0.0957000553607941,-59.5529518127441]}],"samplers":[{}],"scene":0,"scenes":[{"name":"Root Scene","nodes":[0]}],"textures":[{"name":"base_color_texture","sampler":0,"source":0}]}