{"accessors":[{"bufferView":0,"byteOffset":0,"componentType":5123,"count":1056,"type":"SCALAR"},{"bufferView":1,"byteOffset":0,"componentType":5126,"count":581,"max":[0.15131488442421,0,0.0406530164182186],"min":[-0.15131488442421,-0.01087039057165,-0.04065301641822],"type":"VEC3"},{"bufferView":2,"byteOffset":0,"componentType":5126,"count":581,"type":"VEC3"},{"bufferView":3,"byteOffset":0,"componentType":5126,"count":581,"type":"VEC2"}],"asset":{"generator":"FBX2glTF v0.13.1","version":"2.0"},"bufferViews":[{"buffer":0,"byteLength":2112,"byteOffset":0,"target":34963},{"buffer":0,"byteLength":6972,"byteOffset":2112,"target":34962},{"buffer":0,"byteLength":6972,"byteOffset":9084,"target":34962},{"buffer":0,"byteLength":4648,"byteOffset":16056,"target":34962}],"buffers":[{"byteLength":20704,"uri":"SM_Wrench.bin"}],"images":[{"name":"MainTexture_City_4","uri":"MainTexture_City_4.png"}],"materials":[{"alphaMode":"OPAQUE","doubleSided":false,"extras":{"fromFBX":{"isTruePBR":false,"shadingModel":"Phong"}},"name":"Material","pbrMetallicRoughness":{"baseColorFactor":[1,1,1,1],"baseColorTexture":{"index":0,"texCoord":0},"metallicFactor":0.400000005960464,"roughnessFactor":0.140028014779091}}],"meshes":[{"name":"Wrench","primitives":[{"attributes":{"NORMAL":2,"POSITION":1,"TEXCOORD_0":3},"indices":0,"material":0,"mode":4}]}],"nodes":[{"mesh":0,"name":"Wrench","rotation":[0,0,0,1],"scale":[1,1,1],"translation":[-121.082244873047,0,-60.0163612365723]}],"samplers":[{}],"scene":0,"scenes":[{"name":"Root Scene","nodes":[0]}],"textures":[{"name":"base_color_texture","sampler":0,"source":0}]}