{"accessors":[{"bufferView":0,"byteOffset":0,"componentType":5123,"count":1536,"type":"SCALAR"},{"bufferView":1,"byteOffset":0,"componentType":5126,"count":1536,"max":[0.934054613113403,0.124657474458218,0.940530955791473],"min":[-0.95593374967575,-0.13873262703419,-0.94945454597473],"type":"VEC3"},{"bufferView":2,"byteOffset":0,"componentType":5126,"count":1536,"type":"VEC3"},{"bufferView":3,"byteOffset":0,"componentType":5126,"count":1536,"type":"VEC2"}],"asset":{"generator":"FBX2glTF v0.13.1","version":"2.0"},"bufferViews":[{"buffer":0,"byteLength":3072,"byteOffset":0,"target":34963},{"buffer":0,"byteLength":18432,"byteOffset":3072,"target":34962},{"buffer":0,"byteLength":18432,"byteOffset":21504,"target":34962},{"buffer":0,"byteLength":12288,"byteOffset":39936,"target":34962}],"buffers":[{"byteLength":52224,"uri":"SM_Water_01_A.bin"}],"materials":[{"alphaMode":"OPAQUE","doubleSided":false,"extras":{"fromFBX":{"isTruePBR":false,"shadingModel":"Phong"}},"name":"Water","pbrMetallicRoughness":{"baseColorFactor":[0.0213617868721485,0.46109065413475,1,1],"metallicFactor":0.400000005960464,"roughnessFactor":0.147242039442062}}],"meshes":[{"name":"Water_01_A","primitives":[{"attributes":{"NORMAL":2,"POSITION":1,"TEXCOORD_0":3},"indices":0,"material":0,"mode":4}]}],"nodes":[{"mesh":0,"name":"Water_01_A","rotation":[0,0,0,1],"scale":[8.46567344665527,0.983129918575287,8.46567249298096],"translation":[243.982879638672,-2.65144181251526,-284.586853027344]}],"samplers":[{}],"scene":0,"scenes":[{"name":"Root Scene","nodes":[0]}]}