{"accessors":[{"bufferView":0,"byteOffset":0,"componentType":5123,"count":324,"type":"SCALAR"},{"bufferView":1,"byteOffset":0,"componentType":5126,"count":212,"max":[0.0535059422254562,0.0515255518257618,0.0596862398087978],"min":[-0.05350594967604,-0.02961535938084,-0.07480392605066],"type":"VEC3"},{"bufferView":2,"byteOffset":0,"componentType":5126,"count":212,"type":"VEC3"},{"bufferView":3,"byteOffset":0,"componentType":5126,"count":212,"type":"VEC2"}],"asset":{"generator":"FBX2glTF v0.13.1","version":"2.0"},"bufferViews":[{"buffer":0,"byteLength":648,"byteOffset":0,"target":34963},{"buffer":0,"byteLength":2544,"byteOffset":648,"target":34962},{"buffer":0,"byteLength":2544,"byteOffset":3192,"target":34962},{"buffer":0,"byteLength":1696,"byteOffset":5736,"target":34962}],"buffers":[{"byteLength":7432,"uri":"SM_СashMachine_02_A.bin"}],"images":[{"name":"MainTexture_City_4","uri":"MainTexture_City_4.png"}],"materials":[{"alphaMode":"OPAQUE","doubleSided":false,"extras":{"fromFBX":{"isTruePBR":false,"shadingModel":"Phong"}},"name":"Material","pbrMetallicRoughness":{"baseColorFactor":[1,1,1,1],"baseColorTexture":{"index":0,"texCoord":0},"metallicFactor":0.400000005960464,"roughnessFactor":0.140028014779091}}],"meshes":[{"name":"СashMachine_02_A","primitives":[{"attributes":{"NORMAL":2,"POSITION":1,"TEXCOORD_0":3},"indices":0,"material":0,"mode":4}]}],"nodes":[{"mesh":0,"name":"СashMachine_02_A","rotation":[0,0,0,1],"scale":[1,1,1],"translation":[164.157012939453,0.111989945173264,-294.451629638672]}],"samplers":[{}],"scene":0,"scenes":[{"name":"Root Scene","nodes":[0]}],"textures":[{"name":"base_color_texture","sampler":0,"source":0}]}