{"accessors":[{"bufferView":0,"byteOffset":0,"componentType":5123,"count":468,"type":"SCALAR"},{"bufferView":1,"byteOffset":0,"componentType":5126,"count":304,"max":[0.0199659839272499,0.181488588452339,0.0258194766938686],"min":[-0.0192998778075,-0.18223245441914,-0.02530949003994],"type":"VEC3"},{"bufferView":2,"byteOffset":0,"componentType":5126,"count":304,"type":"VEC3"},{"bufferView":3,"byteOffset":0,"componentType":5126,"count":304,"type":"VEC2"}],"asset":{"generator":"FBX2glTF v0.13.1","version":"2.0"},"bufferViews":[{"buffer":0,"byteLength":936,"byteOffset":0,"target":34963},{"buffer":0,"byteLength":3648,"byteOffset":936,"target":34962},{"buffer":0,"byteLength":3648,"byteOffset":4584,"target":34962},{"buffer":0,"byteLength":2432,"byteOffset":8232,"target":34962}],"buffers":[{"byteLength":10664,"uri":"SM_Сucumber_01_A.bin"}],"images":[{"name":"MainTexture_City_4","uri":"MainTexture_City_4.png"}],"materials":[{"alphaMode":"OPAQUE","doubleSided":false,"extras":{"fromFBX":{"isTruePBR":false,"shadingModel":"Phong"}},"name":"Material","pbrMetallicRoughness":{"baseColorFactor":[1,1,1,1],"baseColorTexture":{"index":0,"texCoord":0},"metallicFactor":0.400000005960464,"roughnessFactor":0.140028014779091}}],"meshes":[{"name":"Сucumber_01_A","primitives":[{"attributes":{"NORMAL":2,"POSITION":1,"TEXCOORD_0":3},"indices":0,"material":0,"mode":4}]}],"nodes":[{"mesh":0,"name":"Сucumber_01_A","rotation":[0,0,0,1],"scale":[1,1,1],"translation":[192.667007446289,0.0835380181670189,-294.371826171875]}],"samplers":[{}],"scene":0,"scenes":[{"name":"Root Scene","nodes":[0]}],"textures":[{"name":"base_color_texture","sampler":0,"source":0}]}