{"accessors":[{"bufferView":0,"byteOffset":0,"componentType":5123,"count":3804,"type":"SCALAR"},{"bufferView":1,"byteOffset":0,"componentType":5126,"count":2513,"max":[0.150000005960464,0.344260543584824,0.200024411082268],"min":[-0.15000000596046,0,-0.22734454274178],"type":"VEC3"},{"bufferView":2,"byteOffset":0,"componentType":5126,"count":2513,"type":"VEC3"},{"bufferView":3,"byteOffset":0,"componentType":5126,"count":2513,"type":"VEC2"},{"bufferView":4,"byteOffset":0,"componentType":5123,"count":426,"type":"SCALAR"},{"bufferView":5,"byteOffset":0,"componentType":5126,"count":184,"max":[0.129749715328217,0.0752099603414536,0.0996758788824081],"min":[-0.12974971532822,-0.05453978478909,-0.17408917844295],"type":"VEC3"},{"bufferView":6,"byteOffset":0,"componentType":5126,"count":184,"type":"VEC3"},{"bufferView":7,"byteOffset":0,"componentType":5126,"count":184,"type":"VEC2"}],"asset":{"generator":"FBX2glTF v0.13.1","version":"2.0"},"bufferViews":[{"buffer":0,"byteLength":7608,"byteOffset":0,"target":34963},{"buffer":0,"byteLength":30156,"byteOffset":7608,"target":34962},{"buffer":0,"byteLength":30156,"byteOffset":37764,"target":34962},{"buffer":0,"byteLength":20104,"byteOffset":67920,"target":34962},{"buffer":0,"byteLength":852,"byteOffset":88024,"target":34963},{"buffer":0,"byteLength":2208,"byteOffset":88876,"target":34962},{"buffer":0,"byteLength":2208,"byteOffset":91084,"target":34962},{"buffer":0,"byteLength":1472,"byteOffset":93292,"target":34962}],"buffers":[{"byteLength":94764,"uri":"SM_СashMachine_01_A.bin"}],"images":[{"name":"MainTexture_City_4","uri":"MainTexture_City_4.png"}],"materials":[{"alphaMode":"OPAQUE","doubleSided":false,"extras":{"fromFBX":{"isTruePBR":false,"shadingModel":"Phong"}},"name":"Material","pbrMetallicRoughness":{"baseColorFactor":[1,1,1,1],"baseColorTexture":{"index":0,"texCoord":0},"metallicFactor":0.400000005960464,"roughnessFactor":0.140028014779091}}],"meshes":[{"name":"СashMachine_01_A","primitives":[{"attributes":{"NORMAL":2,"POSITION":1,"TEXCOORD_0":3},"indices":0,"material":0,"mode":4}]},{"name":"СashMachineBox_01_A","primitives":[{"attributes":{"NORMAL":6,"POSITION":5,"TEXCOORD_0":7},"indices":4,"material":0,"mode":4}]}],"nodes":[{"children":[1],"mesh":0,"name":"СashMachine_01_A","rotation":[0,0,0,1],"scale":[1,1,1],"translation":[164.354156494141,-0.07500000298023,-294.368621826172]},{"mesh":1,"name":"СashMachineBox_01_A","rotation":[0,0,0,1],"scale":[1,1,1],"translation":[-0.0005664062337,0.0646649077534676,0.209374994039536]}],"samplers":[{}],"scene":0,"scenes":[{"name":"Root Scene","nodes":[0]}],"textures":[{"name":"base_color_texture","sampler":0,"source":0}]}