{"accessors":[{"bufferView":0,"byteOffset":0,"componentType":5123,"count":480,"type":"SCALAR"},{"bufferView":1,"byteOffset":0,"componentType":5126,"count":307,"max":[0.0153912035748363,0.102910324931145,0.0154062490910292],"min":[-0.01542129460722,-0.00000000613393,-0.01540624909103],"type":"VEC3"},{"bufferView":2,"byteOffset":0,"componentType":5126,"count":307,"type":"VEC3"},{"bufferView":3,"byteOffset":0,"componentType":5126,"count":307,"type":"VEC2"}],"asset":{"generator":"FBX2glTF v0.13.1","version":"2.0"},"bufferViews":[{"buffer":0,"byteLength":960,"byteOffset":0,"target":34963},{"buffer":0,"byteLength":3684,"byteOffset":960,"target":34962},{"buffer":0,"byteLength":3684,"byteOffset":4644,"target":34962},{"buffer":0,"byteLength":2456,"byteOffset":8328,"target":34962}],"buffers":[{"byteLength":10784,"uri":"SM_Сookies_01_A.bin"}],"images":[{"name":"MainTexture_City_4","uri":"MainTexture_City_4.png"}],"materials":[{"alphaMode":"OPAQUE","doubleSided":false,"extras":{"fromFBX":{"isTruePBR":false,"shadingModel":"Phong"}},"name":"Material","pbrMetallicRoughness":{"baseColorFactor":[1,1,1,1],"baseColorTexture":{"index":0,"texCoord":0},"metallicFactor":0.400000005960464,"roughnessFactor":0.140028014779091}}],"meshes":[{"name":"Сookies_01_A","primitives":[{"attributes":{"NORMAL":2,"POSITION":1,"TEXCOORD_0":3},"indices":0,"material":0,"mode":4}]}],"nodes":[{"mesh":0,"name":"Сookies_01_A","rotation":[0,0,0,1],"scale":[1,1,1],"translation":[188.739227294922,-0.00878537818789,-294.190185546875]}],"samplers":[{}],"scene":0,"scenes":[{"name":"Root Scene","nodes":[0]}],"textures":[{"name":"base_color_texture","sampler":0,"source":0}]}