{"accessors":[{"bufferView":0,"byteOffset":0,"componentType":5123,"count":54624,"type":"SCALAR"},{"bufferView":1,"byteOffset":0,"componentType":5126,"count":30214,"max":[8.39502906799316,4.92916774749756,2.14721512794495],"min":[-8.36454963684082,0.367046475410461,-2.14721512794495],"type":"VEC3"},{"bufferView":2,"byteOffset":0,"componentType":5126,"count":30214,"type":"VEC3"},{"bufferView":3,"byteOffset":0,"componentType":5126,"count":30214,"type":"VEC2"},{"bufferView":4,"byteOffset":0,"componentType":5123,"count":276,"type":"SCALAR"},{"bufferView":5,"byteOffset":0,"componentType":5126,"count":148,"max":[0,0.554580748081207,-0.02999997138977],"min":[-1.29860687255859,-1.5165069103241,-0.11020231246948],"type":"VEC3"},{"bufferView":6,"byteOffset":0,"componentType":5126,"count":148,"type":"VEC3"},{"bufferView":7,"byteOffset":0,"componentType":5126,"count":148,"type":"VEC2"},{"bufferView":8,"byteOffset":0,"componentType":5123,"count":156,"type":"SCALAR"},{"bufferView":9,"byteOffset":0,"componentType":5126,"count":94,"max":[0.0000000596046447753906,1.39161372184753,0.000000385567545890808],"min":[-1.16438317298889,-1.18790400028229,-0.0299996137619],"type":"VEC3"},{"bufferView":10,"byteOffset":0,"componentType":5126,"count":94,"type":"VEC3"},{"bufferView":11,"byteOffset":0,"componentType":5126,"count":94,"type":"VEC2"},{"bufferView":12,"byteOffset":0,"componentType":5123,"count":7272,"type":"SCALAR"},{"bufferView":13,"byteOffset":0,"componentType":5126,"count":4538,"max":[1,0.709839403629303,1],"min":[-1,-0.67446094751358,-1.00000011920929],"type":"VEC3"},{"bufferView":14,"byteOffset":0,"componentType":5126,"count":4538,"type":"VEC3"},{"bufferView":15,"byteOffset":0,"componentType":5126,"count":4538,"type":"VEC2"},{"bufferView":16,"byteOffset":0,"componentType":5123,"count":3732,"type":"SCALAR"},{"bufferView":17,"byteOffset":0,"componentType":5126,"count":2334,"max":[0.999999761581421,0.319083273410797,1.00000035762787],"min":[-1.00000023841858,-0.40822410583496,-0.99999970197678],"type":"VEC3"},{"bufferView":18,"byteOffset":0,"componentType":5126,"count":2334,"type":"VEC3"},{"bufferView":19,"byteOffset":0,"componentType":5126,"count":2334,"type":"VEC2"},{"bufferView":20,"byteOffset":0,"componentType":5123,"count":3732,"type":"SCALAR"},{"bufferView":21,"byteOffset":0,"componentType":5126,"count":2330,"max":[0.999999701976776,0.408233642578125,1.00000035762787],"min":[-1.00000011920929,-0.31907367706299,-0.99999970197678],"type":"VEC3"},{"bufferView":22,"byteOffset":0,"componentType":5126,"count":2330,"type":"VEC3"},{"bufferView":23,"byteOffset":0,"componentType":5126,"count":2330,"type":"VEC2"},{"bufferView":24,"byteOffset":0,"componentType":5123,"count":7272,"type":"SCALAR"},{"bufferView":25,"byteOffset":0,"componentType":5126,"count":4518,"max":[1,0.674463272094727,0.99999988079071],"min":[-0.99999982118607,-0.70983737707138,-1.00000011920929],"type":"VEC3"},{"bufferView":26,"byteOffset":0,"componentType":5126,"count":4518,"type":"VEC3"},{"bufferView":27,"byteOffset":0,"componentType":5126,"count":4518,"type":"VEC2"},{"bufferView":28,"byteOffset":0,"componentType":5123,"count":3252,"type":"SCALAR"},{"bufferView":29,"byteOffset":0,"componentType":5126,"count":2146,"max":[8.14152908325195,4.48235559463501,1.82687509059906],"min":[-8.38450145721436,1.88296318054199,-1.82687509059906],"type":"VEC3"},{"bufferView":30,"byteOffset":0,"componentType":5126,"count":2146,"type":"VEC3"},{"bufferView":31,"byteOffset":0,"componentType":5126,"count":2146,"type":"VEC2"},{"bufferView":32,"byteOffset":0,"componentType":5123,"count":96,"type":"SCALAR"},{"bufferView":33,"byteOffset":0,"componentType":5126,"count":64,"max":[0,2.46570134162903,-0.02999997138977],"min":[-1.36050164699554,0.0452762208878994,-0.21538506448269],"type":"VEC3"},{"bufferView":34,"byteOffset":0,"componentType":5126,"count":64,"type":"VEC3"},{"bufferView":35,"byteOffset":0,"componentType":5126,"count":64,"type":"VEC2"}],"asset":{"generator":"FBX2glTF v0.13.1","version":"2.0"},"bufferViews":[{"buffer":0,"byteLength":109248,"byteOffset":0,"target":34963},{"buffer":0,"byteLength":362568,"byteOffset":109248,"target":34962},{"buffer":0,"byteLength":362568,"byteOffset":471816,"target":34962},{"buffer":0,"byteLength":241712,"byteOffset":834384,"target":34962},{"buffer":0,"byteLength":552,"byteOffset":1076096,"target":34963},{"buffer":0,"byteLength":1776,"byteOffset":1076648,"target":34962},{"buffer":0,"byteLength":1776,"byteOffset":1078424,"target":34962},{"buffer":0,"byteLength":1184,"byteOffset":1080200,"target":34962},{"buffer":0,"byteLength":312,"byteOffset":1081384,"target":34963},{"buffer":0,"byteLength":1128,"byteOffset":1081696,"target":34962},{"buffer":0,"byteLength":1128,"byteOffset":1082824,"target":34962},{"buffer":0,"byteLength":752,"byteOffset":1083952,"target":34962},{"buffer":0,"byteLength":14544,"byteOffset":1084704,"target":34963},{"buffer":0,"byteLength":54456,"byteOffset":1099248,"target":34962},{"buffer":0,"byteLength":54456,"byteOffset":1153704,"target":34962},{"buffer":0,"byteLength":36304,"byteOffset":1208160,"target":34962},{"buffer":0,"byteLength":7464,"byteOffset":1244464,"target":34963},{"buffer":0,"byteLength":28008,"byteOffset":1251928,"target":34962},{"buffer":0,"byteLength":28008,"byteOffset":1279936,"target":34962},{"buffer":0,"byteLength":18672,"byteOffset":1307944,"target":34962},{"buffer":0,"byteLength":7464,"byteOffset":1326616,"target":34963},{"buffer":0,"byteLength":27960,"byteOffset":1334080,"target":34962},{"buffer":0,"byteLength":27960,"byteOffset":1362040,"target":34962},{"buffer":0,"byteLength":18640,"byteOffset":1390000,"target":34962},{"buffer":0,"byteLength":14544,"byteOffset":1408640,"target":34963},{"buffer":0,"byteLength":54216,"byteOffset":1423184,"target":34962},{"buffer":0,"byteLength":54216,"byteOffset":1477400,"target":34962},{"buffer":0,"byteLength":36144,"byteOffset":1531616,"target":34962},{"buffer":0,"byteLength":6504,"byteOffset":1567760,"target":34963},{"buffer":0,"byteLength":25752,"byteOffset":1574264,"target":34962},{"buffer":0,"byteLength":25752,"byteOffset":1600016,"target":34962},{"buffer":0,"byteLength":17168,"byteOffset":1625768,"target":34962},{"buffer":0,"byteLength":192,"byteOffset":1642936,"target":34963},{"buffer":0,"byteLength":768,"byteOffset":1643128,"target":34962},{"buffer":0,"byteLength":768,"byteOffset":1643896,"target":34962},{"buffer":0,"byteLength":512,"byteOffset":1644664,"target":34962}],"buffers":[{"byteLength":1645176,"uri":"Vehicle_14_A.bin"}],"images":[{"name":"Polygon_Camping_Texture","uri":"Polygon_Camping_Texture.jpg"}],"materials":[{"alphaMode":"OPAQUE","doubleSided":false,"extras":{"fromFBX":{"isTruePBR":false,"shadingModel":"Phong"}},"name":"main","pbrMetallicRoughness":{"baseColorFactor":[1,1,1,1],"baseColorTexture":{"index":0,"texCoord":0},"metallicFactor":0.400000005960464,"roughnessFactor":0.272165536880493}},{"alphaMode":"OPAQUE","doubleSided":false,"extras":{"fromFBX":{"isTruePBR":false,"shadingModel":"Phong"}},"name":"glass","pbrMetallicRoughness":{"baseColorFactor":[0.800000011920929,0.800000011920929,0.800000011920929,1],"metallicFactor":0.400000005960464,"roughnessFactor":0.272165536880493}}],"meshes":[{"name":"Bus_Carcase_01","primitives":[{"attributes":{"NORMAL":2,"POSITION":1,"TEXCOORD_0":3},"indices":0,"material":0,"mode":4},{"attributes":{"NORMAL":30,"POSITION":29,"TEXCOORD_0":31},"indices":28,"material":1,"mode":4}]},{"name":"Bus_Front_door_01","primitives":[{"attributes":{"NORMAL":6,"POSITION":5,"TEXCOORD_0":7},"indices":4,"material":0,"mode":4},{"attributes":{"NORMAL":34,"POSITION":33,"TEXCOORD_0":35},"indices":32,"material":1,"mode":4}]},{"name":"Bus_Midle_door_01","primitives":[{"attributes":{"NORMAL":10,"POSITION":9,"TEXCOORD_0":11},"indices":8,"material":0,"mode":4}]},{"name":"Wheel_01","primitives":[{"attributes":{"NORMAL":14,"POSITION":13,"TEXCOORD_0":15},"indices":12,"material":0,"mode":4}]},{"name":"Wheel_03","primitives":[{"attributes":{"NORMAL":18,"POSITION":17,"TEXCOORD_0":19},"indices":16,"material":0,"mode":4}]},{"name":"Wheel_04","primitives":[{"attributes":{"NORMAL":22,"POSITION":21,"TEXCOORD_0":23},"indices":20,"material":0,"mode":4}]},{"name":"Wheel_06","primitives":[{"attributes":{"NORMAL":26,"POSITION":25,"TEXCOORD_0":27},"indices":24,"material":0,"mode":4}]}],"nodes":[{"children":[1,2,3,4,5,6],"mesh":0,"name":"Bus_Carcase_01","rotation":[0,0,0,1],"scale":[1,1,1],"translation":[0,0,0]},{"mesh":1,"name":"Bus_Front_door_01","rotation":[0,0,0,1],"scale":[1,1,1],"translation":[7.59735202789307,1.98309659957886,1.83821320533752]},{"mesh":2,"name":"Bus_Midle_door_01","rotation":[0,0,0,1],"scale":[1,1,1],"translation":[-0.09395011514425,1.65583848953247,1.81090211868286]},{"mesh":3,"name":"Wheel_01","rotation":[0.707106828689575,0,0,0.707106709480286],"scale":[0.700633585453033,0.700633585453033,0.700633585453033],"translation":[-3.85940551757812,0.694048285484314,-1.37248742580414]},{"mesh":4,"name":"Wheel_03","rotation":[0.707106828689575,0,0,0.707106709480286],"scale":[0.700633585453033,0.700633585453033,0.700633585453033],"translation":[4.41870975494385,0.694048583507538,-1.55902218818665]},{"mesh":5,"name":"Wheel_04","rotation":[0.707106828689575,0,0,0.707106709480286],"scale":[0.700633585453033,0.700633585453033,0.700633585453033],"translation":[4.41870975494385,0.694048702716827,1.55901515483856]},{"mesh":6,"name":"Wheel_06","rotation":[0.707106828689575,0,0,0.707106709480286],"scale":[0.700633585453033,0.700633585453033,0.700633585453033],"translation":[-3.85940551757812,0.694048345088959,1.37248575687408]}],"samplers":[{}],"scene":0,"scenes":[{"name":"Root Scene","nodes":[0]}],"textures":[{"name":"base_color_texture","sampler":0,"source":0}]}