{"accessors":[{"bufferView":0,"byteOffset":0,"componentType":5123,"count":40512,"type":"SCALAR"},{"bufferView":1,"byteOffset":0,"componentType":5126,"count":23277,"max":[2.5098876953125,1.92492973804474,0.885186374187469],"min":[-2.51646089553833,0.260797441005707,-0.88518637418747],"type":"VEC3"},{"bufferView":2,"byteOffset":0,"componentType":5126,"count":23277,"type":"VEC3"},{"bufferView":3,"byteOffset":0,"componentType":5126,"count":23277,"type":"VEC2"},{"bufferView":4,"byteOffset":0,"componentType":5123,"count":2073,"type":"SCALAR"},{"bufferView":5,"byteOffset":0,"componentType":5126,"count":1350,"max":[0.00250556226819754,0.57759016752243,0.26464056968689],"min":[-1.11380219459534,-0.59852921962738,-0.21993891894817],"type":"VEC3"},{"bufferView":6,"byteOffset":0,"componentType":5126,"count":1350,"type":"VEC3"},{"bufferView":7,"byteOffset":0,"componentType":5126,"count":1350,"type":"VEC2"},{"bufferView":8,"byteOffset":0,"componentType":5123,"count":2076,"type":"SCALAR"},{"bufferView":9,"byteOffset":0,"componentType":5126,"count":1349,"max":[0.00246757874265313,0.57759016752243,0.220048248767853],"min":[-1.11378526687622,-0.59852921962738,-0.26244619488716],"type":"VEC3"},{"bufferView":10,"byteOffset":0,"componentType":5126,"count":1349,"type":"VEC3"},{"bufferView":11,"byteOffset":0,"componentType":5126,"count":1349,"type":"VEC2"},{"bufferView":12,"byteOffset":0,"componentType":5123,"count":3252,"type":"SCALAR"},{"bufferView":13,"byteOffset":0,"componentType":5126,"count":2108,"max":[0.370000094175339,0.151821151375771,0.370000064373016],"min":[-0.36999988555908,-0.09473231434822,-0.3699999153614],"type":"VEC3"},{"bufferView":14,"byteOffset":0,"componentType":5126,"count":2108,"type":"VEC3"},{"bufferView":15,"byteOffset":0,"componentType":5126,"count":2108,"type":"VEC2"},{"bufferView":16,"byteOffset":0,"componentType":5123,"count":3252,"type":"SCALAR"},{"bufferView":17,"byteOffset":0,"componentType":5126,"count":2108,"max":[0.370000094175339,0.151821151375771,0.370000064373016],"min":[-0.36999988555908,-0.09473231434822,-0.3699999153614],"type":"VEC3"},{"bufferView":18,"byteOffset":0,"componentType":5126,"count":2108,"type":"VEC3"},{"bufferView":19,"byteOffset":0,"componentType":5126,"count":2108,"type":"VEC2"},{"bufferView":20,"byteOffset":0,"componentType":5123,"count":3252,"type":"SCALAR"},{"bufferView":21,"byteOffset":0,"componentType":5126,"count":2112,"max":[0.370000094175339,0.0947316884994507,0.370000064373016],"min":[-0.36999988555908,-0.15182185173035,-0.36999994516373],"type":"VEC3"},{"bufferView":22,"byteOffset":0,"componentType":5126,"count":2112,"type":"VEC3"},{"bufferView":23,"byteOffset":0,"componentType":5126,"count":2112,"type":"VEC2"},{"bufferView":24,"byteOffset":0,"componentType":5123,"count":3252,"type":"SCALAR"},{"bufferView":25,"byteOffset":0,"componentType":5126,"count":2112,"max":[0.370000004768372,1.52122020721436,0.369999945163727],"min":[-0.37000000476837,1.27466666698456,-0.37000006437302],"type":"VEC3"},{"bufferView":26,"byteOffset":0,"componentType":5126,"count":2112,"type":"VEC3"},{"bufferView":27,"byteOffset":0,"componentType":5126,"count":2112,"type":"VEC2"},{"bufferView":28,"byteOffset":0,"componentType":5123,"count":180,"type":"SCALAR"},{"bufferView":29,"byteOffset":0,"componentType":5126,"count":120,"max":[1.36238098144531,1.58047723770142,0.693812370300293],"min":[0.662978708744049,1.15703392028809,-0.69381237030029],"type":"VEC3"},{"bufferView":30,"byteOffset":0,"componentType":5126,"count":120,"type":"VEC3"},{"bufferView":31,"byteOffset":0,"componentType":5126,"count":120,"type":"VEC2"},{"bufferView":32,"byteOffset":0,"componentType":5123,"count":96,"type":"SCALAR"},{"bufferView":33,"byteOffset":0,"componentType":5126,"count":64,"max":[-0.09127137064934,0.561065673828125,0.259794235229492],"min":[-1.08385419845581,0.0654095113277435,0.0622599311172962],"type":"VEC3"},{"bufferView":34,"byteOffset":0,"componentType":5126,"count":64,"type":"VEC3"},{"bufferView":35,"byteOffset":0,"componentType":5126,"count":64,"type":"VEC2"},{"bufferView":36,"byteOffset":0,"componentType":5123,"count":96,"type":"SCALAR"},{"bufferView":37,"byteOffset":0,"componentType":5126,"count":64,"max":[-0.0915442854166,0.561065673828125,-0.06196103990078],"min":[-1.08436584472656,0.0654095113277435,-0.25764745473862],"type":"VEC3"},{"bufferView":38,"byteOffset":0,"componentType":5126,"count":64,"type":"VEC3"},{"bufferView":39,"byteOffset":0,"componentType":5126,"count":64,"type":"VEC2"}],"asset":{"generator":"FBX2glTF v0.13.1","version":"2.0"},"bufferViews":[{"buffer":0,"byteLength":81024,"byteOffset":0,"target":34963},{"buffer":0,"byteLength":279324,"byteOffset":81024,"target":34962},{"buffer":0,"byteLength":279324,"byteOffset":360348,"target":34962},{"buffer":0,"byteLength":186216,"byteOffset":639672,"target":34962},{"buffer":0,"byteLength":4146,"byteOffset":825888,"target":34963},{"buffer":0,"byteLength":16200,"byteOffset":830036,"target":34962},{"buffer":0,"byteLength":16200,"byteOffset":846236,"target":34962},{"buffer":0,"byteLength":10800,"byteOffset":862436,"target":34962},{"buffer":0,"byteLength":4152,"byteOffset":873236,"target":34963},{"buffer":0,"byteLength":16188,"byteOffset":877388,"target":34962},{"buffer":0,"byteLength":16188,"byteOffset":893576,"target":34962},{"buffer":0,"byteLength":10792,"byteOffset":909764,"target":34962},{"buffer":0,"byteLength":6504,"byteOffset":920556,"target":34963},{"buffer":0,"byteLength":25296,"byteOffset":927060,"target":34962},{"buffer":0,"byteLength":25296,"byteOffset":952356,"target":34962},{"buffer":0,"byteLength":16864,"byteOffset":977652,"target":34962},{"buffer":0,"byteLength":6504,"byteOffset":994516,"target":34963},{"buffer":0,"byteLength":25296,"byteOffset":1001020,"target":34962},{"buffer":0,"byteLength":25296,"byteOffset":1026316,"target":34962},{"buffer":0,"byteLength":16864,"byteOffset":1051612,"target":34962},{"buffer":0,"byteLength":6504,"byteOffset":1068476,"target":34963},{"buffer":0,"byteLength":25344,"byteOffset":1074980,"target":34962},{"buffer":0,"byteLength":25344,"byteOffset":1100324,"target":34962},{"buffer":0,"byteLength":16896,"byteOffset":1125668,"target":34962},{"buffer":0,"byteLength":6504,"byteOffset":1142564,"target":34963},{"buffer":0,"byteLength":25344,"byteOffset":1149068,"target":34962},{"buffer":0,"byteLength":25344,"byteOffset":1174412,"target":34962},{"buffer":0,"byteLength":16896,"byteOffset":1199756,"target":34962},{"buffer":0,"byteLength":360,"byteOffset":1216652,"target":34963},{"buffer":0,"byteLength":1440,"byteOffset":1217012,"target":34962},{"buffer":0,"byteLength":1440,"byteOffset":1218452,"target":34962},{"buffer":0,"byteLength":960,"byteOffset":1219892,"target":34962},{"buffer":0,"byteLength":192,"byteOffset":1220852,"target":34963},{"buffer":0,"byteLength":768,"byteOffset":1221044,"target":34962},{"buffer":0,"byteLength":768,"byteOffset":1221812,"target":34962},{"buffer":0,"byteLength":512,"byteOffset":1222580,"target":34962},{"buffer":0,"byteLength":192,"byteOffset":1223092,"target":34963},{"buffer":0,"byteLength":768,"byteOffset":1223284,"target":34962},{"buffer":0,"byteLength":768,"byteOffset":1224052,"target":34962},{"buffer":0,"byteLength":512,"byteOffset":1224820,"target":34962}],"buffers":[{"byteLength":1225332,"uri":"Vehicle_07_A.bin"}],"images":[{"name":"Polygon_Camping_Texture","uri":"Polygon_Camping_Texture.jpg"}],"materials":[{"alphaMode":"OPAQUE","doubleSided":false,"extras":{"fromFBX":{"isTruePBR":false,"shadingModel":"Phong"}},"name":"main","pbrMetallicRoughness":{"baseColorFactor":[1,1,1,1],"baseColorTexture":{"index":0,"texCoord":0},"metallicFactor":0.400000005960464,"roughnessFactor":0.272165536880493}},{"alphaMode":"OPAQUE","doubleSided":false,"extras":{"fromFBX":{"isTruePBR":false,"shadingModel":"Phong"}},"name":"glass","pbrMetallicRoughness":{"baseColorFactor":[0.800000011920929,0.800000011920929,0.800000011920929,1],"metallicFactor":0.400000005960464,"roughnessFactor":0.272165536880493}}],"meshes":[{"name":"Car","primitives":[{"attributes":{"NORMAL":2,"POSITION":1,"TEXCOORD_0":3},"indices":0,"material":0,"mode":4},{"attributes":{"NORMAL":30,"POSITION":29,"TEXCOORD_0":31},"indices":28,"material":1,"mode":4}]},{"name":"Doors_01","primitives":[{"attributes":{"NORMAL":6,"POSITION":5,"TEXCOORD_0":7},"indices":4,"material":0,"mode":4},{"attributes":{"NORMAL":34,"POSITION":33,"TEXCOORD_0":35},"indices":32,"material":1,"mode":4}]},{"name":"Doors_02","primitives":[{"attributes":{"NORMAL":10,"POSITION":9,"TEXCOORD_0":11},"indices":8,"material":0,"mode":4},{"attributes":{"NORMAL":38,"POSITION":37,"TEXCOORD_0":39},"indices":36,"material":1,"mode":4}]},{"name":"Whell_04","primitives":[{"attributes":{"NORMAL":14,"POSITION":13,"TEXCOORD_0":15},"indices":12,"material":0,"mode":4}]},{"name":"Whell_02","primitives":[{"attributes":{"NORMAL":18,"POSITION":17,"TEXCOORD_0":19},"indices":16,"material":0,"mode":4}]},{"name":"Whell_03","primitives":[{"attributes":{"NORMAL":22,"POSITION":21,"TEXCOORD_0":23},"indices":20,"material":0,"mode":4}]},{"name":"Whell_01","primitives":[{"attributes":{"NORMAL":26,"POSITION":25,"TEXCOORD_0":27},"indices":24,"material":0,"mode":4}]}],"nodes":[{"children":[1,2,3,4,5,6],"mesh":0,"name":"Car","rotation":[0,0,0,1],"scale":[1,1,1],"translation":[0,0,0]},{"mesh":1,"name":"Doors_01","rotation":[0,0,0,1],"scale":[1,1,1],"translation":[1.14514815807343,1.02631080150604,-0.81097501516342]},{"mesh":2,"name":"Doors_02","rotation":[0,0,0,1],"scale":[1,1,1],"translation":[1.14514815807343,1.02631080150604,0.810975015163422]},{"mesh":3,"name":"Whell_04","rotation":[0.707106828689575,0,0,0.707106709480286],"scale":[1,1,1],"translation":[-1.32615637779236,0.371460139751434,-0.77892178297043]},{"mesh":4,"name":"Whell_02","rotation":[0.707106828689575,0,0,0.707106709480286],"scale":[1,1,1],"translation":[1.71455729007721,0.371460139751434,-0.77892178297043]},{"mesh":5,"name":"Whell_03","rotation":[0.707106828689575,0,0,0.707106709480286],"scale":[1,1,1],"translation":[-1.32615637779236,0.371460109949112,0.778922498226166]},{"mesh":6,"name":"Whell_01","rotation":[0.707106828689575,0,0,0.707106709480286],"scale":[1,1,1],"translation":[1.7145574092865,0.371460020542145,-0.64756596088409]}],"samplers":[{}],"scene":0,"scenes":[{"name":"Root Scene","nodes":[0]}],"textures":[{"name":"base_color_texture","sampler":0,"source":0}]}