{"accessors":[{"bufferView":0,"byteOffset":0,"componentType":5123,"count":34971,"type":"SCALAR"},{"bufferView":1,"byteOffset":0,"componentType":5126,"count":21195,"max":[2.61881899833679,2.33924961090088,0.870262801647186],"min":[-2.4573347568512,0.227958202362061,-0.87026280164719],"type":"VEC3"},{"bufferView":2,"byteOffset":0,"componentType":5126,"count":21195,"type":"VEC3"},{"bufferView":3,"byteOffset":0,"componentType":5126,"count":21195,"type":"VEC2"},{"bufferView":4,"byteOffset":0,"componentType":5123,"count":1458,"type":"SCALAR"},{"bufferView":5,"byteOffset":0,"componentType":5126,"count":895,"max":[0.0698885917663574,0.80371755361557,0.698413550853729],"min":[-0.09310173988342,-0.69190418720245,-0.00315654277802],"type":"VEC3"},{"bufferView":6,"byteOffset":0,"componentType":5126,"count":895,"type":"VEC3"},{"bufferView":7,"byteOffset":0,"componentType":5126,"count":895,"type":"VEC2"},{"bufferView":8,"byteOffset":0,"componentType":5123,"count":864,"type":"SCALAR"},{"bufferView":9,"byteOffset":0,"componentType":5126,"count":550,"max":[0.491219878196716,0.790089845657349,0.117709100246429],"min":[-0.65457898378372,-0.9066174030304,-0.06188970431685],"type":"VEC3"},{"bufferView":10,"byteOffset":0,"componentType":5126,"count":550,"type":"VEC3"},{"bufferView":11,"byteOffset":0,"componentType":5126,"count":550,"type":"VEC2"},{"bufferView":12,"byteOffset":0,"componentType":5123,"count":2028,"type":"SCALAR"},{"bufferView":13,"byteOffset":0,"componentType":5126,"count":1330,"max":[0.00041389465332031,0.83452308177948,0.101416349411011],"min":[-0.91697484254837,-0.63381713628769,-0.21131716668606],"type":"VEC3"},{"bufferView":14,"byteOffset":0,"componentType":5126,"count":1330,"type":"VEC3"},{"bufferView":15,"byteOffset":0,"componentType":5126,"count":1330,"type":"VEC2"},{"bufferView":16,"byteOffset":0,"componentType":5123,"count":2028,"type":"SCALAR"},{"bufferView":17,"byteOffset":0,"componentType":5126,"count":1334,"max":[0.00041389465332031,0.83452308177948,0.211317166686058],"min":[-0.91697484254837,-0.63381713628769,-0.10141634941101],"type":"VEC3"},{"bufferView":18,"byteOffset":0,"componentType":5126,"count":1334,"type":"VEC3"},{"bufferView":19,"byteOffset":0,"componentType":5126,"count":1334,"type":"VEC2"},{"bufferView":20,"byteOffset":0,"componentType":5123,"count":864,"type":"SCALAR"},{"bufferView":21,"byteOffset":0,"componentType":5126,"count":550,"max":[0.491219937801361,0.790089845657349,0.0618895292282104],"min":[-0.65457898378372,-0.90661746263504,-0.11770927160978],"type":"VEC3"},{"bufferView":22,"byteOffset":0,"componentType":5126,"count":550,"type":"VEC3"},{"bufferView":23,"byteOffset":0,"componentType":5126,"count":550,"type":"VEC2"},{"bufferView":24,"byteOffset":0,"componentType":5123,"count":1440,"type":"SCALAR"},{"bufferView":25,"byteOffset":0,"componentType":5126,"count":884,"max":[0.0698885917663574,0.80371755361557,0.00315660238265991],"min":[-0.09310173988342,-0.69190418720245,-0.69841355085373],"type":"VEC3"},{"bufferView":26,"byteOffset":0,"componentType":5126,"count":884,"type":"VEC3"},{"bufferView":27,"byteOffset":0,"componentType":5126,"count":884,"type":"VEC2"},{"bufferView":28,"byteOffset":0,"componentType":5123,"count":2628,"type":"SCALAR"},{"bufferView":29,"byteOffset":0,"componentType":5126,"count":1720,"max":[0.250032722949982,0.147589296102524,0.250004470348358],"min":[-0.24996727705002,-0.07554774731398,-0.24999552965164],"type":"VEC3"},{"bufferView":30,"byteOffset":0,"componentType":5126,"count":1720,"type":"VEC3"},{"bufferView":31,"byteOffset":0,"componentType":5126,"count":1720,"type":"VEC2"},{"bufferView":32,"byteOffset":0,"componentType":5123,"count":2628,"type":"SCALAR"},{"bufferView":33,"byteOffset":0,"componentType":5126,"count":1720,"max":[0.250032722949982,0.147589296102524,0.250004470348358],"min":[-0.24996727705002,-0.07554774731398,-0.24999552965164],"type":"VEC3"},{"bufferView":34,"byteOffset":0,"componentType":5126,"count":1720,"type":"VEC3"},{"bufferView":35,"byteOffset":0,"componentType":5126,"count":1720,"type":"VEC2"},{"bufferView":36,"byteOffset":0,"componentType":5123,"count":2628,"type":"SCALAR"},{"bufferView":37,"byteOffset":0,"componentType":5126,"count":1720,"max":[0.250032722949982,0.0755469799041748,0.250004500150681],"min":[-0.2499673217535,-0.14759010076523,-0.2499955445528],"type":"VEC3"},{"bufferView":38,"byteOffset":0,"componentType":5126,"count":1720,"type":"VEC3"},{"bufferView":39,"byteOffset":0,"componentType":5126,"count":1720,"type":"VEC2"},{"bufferView":40,"byteOffset":0,"componentType":5123,"count":2628,"type":"SCALAR"},{"bufferView":41,"byteOffset":0,"componentType":5126,"count":1720,"max":[0.250032722949982,0.0755482912063599,0.250004500150681],"min":[-0.2499673217535,-0.1475887298584,-0.2499955445528],"type":"VEC3"},{"bufferView":42,"byteOffset":0,"componentType":5126,"count":1720,"type":"VEC3"},{"bufferView":43,"byteOffset":0,"componentType":5126,"count":1720,"type":"VEC2"},{"bufferView":44,"byteOffset":0,"componentType":5123,"count":1182,"type":"SCALAR"},{"bufferView":45,"byteOffset":0,"componentType":5126,"count":778,"max":[1.85522854328156,1.76172924041748,0.813424110412598],"min":[-2.08106827735901,1.13617360591888,-0.8134241104126],"type":"VEC3"},{"bufferView":46,"byteOffset":0,"componentType":5126,"count":778,"type":"VEC3"},{"bufferView":47,"byteOffset":0,"componentType":5126,"count":778,"type":"VEC2"},{"bufferView":48,"byteOffset":0,"componentType":5123,"count":276,"type":"SCALAR"},{"bufferView":49,"byteOffset":0,"componentType":5126,"count":178,"max":[0.0336816310882568,0.61434006690979,0.697888910770416],"min":[-0.0528552532196,-0.03803470358253,0.0403003692626953],"type":"VEC3"},{"bufferView":50,"byteOffset":0,"componentType":5126,"count":178,"type":"VEC3"},{"bufferView":51,"byteOffset":0,"componentType":5126,"count":178,"type":"VEC2"},{"bufferView":52,"byteOffset":0,"componentType":5123,"count":180,"type":"SCALAR"},{"bufferView":53,"byteOffset":0,"componentType":5126,"count":120,"max":[0.414357990026474,0.578969538211823,0.0864768549799919],"min":[-0.65450799465179,-0.04658602923155,-0.02611571550369],"type":"VEC3"},{"bufferView":54,"byteOffset":0,"componentType":5126,"count":120,"type":"VEC3"},{"bufferView":55,"byteOffset":0,"componentType":5126,"count":120,"type":"VEC2"},{"bufferView":56,"byteOffset":0,"componentType":5123,"count":132,"type":"SCALAR"},{"bufferView":57,"byteOffset":0,"componentType":5126,"count":88,"max":[-0.12499511241913,0.798503696918488,0.11042445898056],"min":[-0.88044559955597,0.19723853468895,0.0249503254890442],"type":"VEC3"},{"bufferView":58,"byteOffset":0,"componentType":5126,"count":88,"type":"VEC3"},{"bufferView":59,"byteOffset":0,"componentType":5126,"count":88,"type":"VEC2"},{"bufferView":60,"byteOffset":0,"componentType":5123,"count":132,"type":"SCALAR"},{"bufferView":61,"byteOffset":0,"componentType":5126,"count":88,"max":[-0.12499511241913,0.798503696918488,-0.02495032548904],"min":[-0.88044559955597,0.19723853468895,-0.11042445898056],"type":"VEC3"},{"bufferView":62,"byteOffset":0,"componentType":5126,"count":88,"type":"VEC3"},{"bufferView":63,"byteOffset":0,"componentType":5126,"count":88,"type":"VEC2"},{"bufferView":64,"byteOffset":0,"componentType":5123,"count":180,"type":"SCALAR"},{"bufferView":65,"byteOffset":0,"componentType":5126,"count":120,"max":[0.414358019828796,0.578969478607178,0.0261155366897583],"min":[-0.6545078754425,-0.04658608883619,-0.08647704124451],"type":"VEC3"},{"bufferView":66,"byteOffset":0,"componentType":5126,"count":120,"type":"VEC3"},{"bufferView":67,"byteOffset":0,"componentType":5126,"count":120,"type":"VEC2"},{"bufferView":68,"byteOffset":0,"componentType":5123,"count":276,"type":"SCALAR"},{"bufferView":69,"byteOffset":0,"componentType":5126,"count":178,"max":[0.0336815193295479,0.61434006690979,-0.04030037298799],"min":[-0.05285536125302,-0.03803470358253,-0.69788891077042],"type":"VEC3"},{"bufferView":70,"byteOffset":0,"componentType":5126,"count":178,"type":"VEC3"},{"bufferView":71,"byteOffset":0,"componentType":5126,"count":178,"type":"VEC2"}],"asset":{"generator":"FBX2glTF v0.13.1","version":"2.0"},"bufferViews":[{"buffer":0,"byteLength":69942,"byteOffset":0,"target":34963},{"buffer":0,"byteLength":254340,"byteOffset":69944,"target":34962},{"buffer":0,"byteLength":254340,"byteOffset":324284,"target":34962},{"buffer":0,"byteLength":169560,"byteOffset":578624,"target":34962},{"buffer":0,"byteLength":2916,"byteOffset":748184,"target":34963},{"buffer":0,"byteLength":10740,"byteOffset":751100,"target":34962},{"buffer":0,"byteLength":10740,"byteOffset":761840,"target":34962},{"buffer":0,"byteLength":7160,"byteOffset":772580,"target":34962},{"buffer":0,"byteLength":1728,"byteOffset":779740,"target":34963},{"buffer":0,"byteLength":6600,"byteOffset":781468,"target":34962},{"buffer":0,"byteLength":6600,"byteOffset":788068,"target":34962},{"buffer":0,"byteLength":4400,"byteOffset":794668,"target":34962},{"buffer":0,"byteLength":4056,"byteOffset":799068,"target":34963},{"buffer":0,"byteLength":15960,"byteOffset":803124,"target":34962},{"buffer":0,"byteLength":15960,"byteOffset":819084,"target":34962},{"buffer":0,"byteLength":10640,"byteOffset":835044,"target":34962},{"buffer":0,"byteLength":4056,"byteOffset":845684,"target":34963},{"buffer":0,"byteLength":16008,"byteOffset":849740,"target":34962},{"buffer":0,"byteLength":16008,"byteOffset":865748,"target":34962},{"buffer":0,"byteLength":10672,"byteOffset":881756,"target":34962},{"buffer":0,"byteLength":1728,"byteOffset":892428,"target":34963},{"buffer":0,"byteLength":6600,"byteOffset":894156,"target":34962},{"buffer":0,"byteLength":6600,"byteOffset":900756,"target":34962},{"buffer":0,"byteLength":4400,"byteOffset":907356,"target":34962},{"buffer":0,"byteLength":2880,"byteOffset":911756,"target":34963},{"buffer":0,"byteLength":10608,"byteOffset":914636,"target":34962},{"buffer":0,"byteLength":10608,"byteOffset":925244,"target":34962},{"buffer":0,"byteLength":7072,"byteOffset":935852,"target":34962},{"buffer":0,"byteLength":5256,"byteOffset":942924,"target":34963},{"buffer":0,"byteLength":20640,"byteOffset":948180,"target":34962},{"buffer":0,"byteLength":20640,"byteOffset":968820,"target":34962},{"buffer":0,"byteLength":13760,"byteOffset":989460,"target":34962},{"buffer":0,"byteLength":5256,"byteOffset":1003220,"target":34963},{"buffer":0,"byteLength":20640,"byteOffset":1008476,"target":34962},{"buffer":0,"byteLength":20640,"byteOffset":1029116,"target":34962},{"buffer":0,"byteLength":13760,"byteOffset":1049756,"target":34962},{"buffer":0,"byteLength":5256,"byteOffset":1063516,"target":34963},{"buffer":0,"byteLength":20640,"byteOffset":1068772,"target":34962},{"buffer":0,"byteLength":20640,"byteOffset":1089412,"target":34962},{"buffer":0,"byteLength":13760,"byteOffset":1110052,"target":34962},{"buffer":0,"byteLength":5256,"byteOffset":1123812,"target":34963},{"buffer":0,"byteLength":20640,"byteOffset":1129068,"target":34962},{"buffer":0,"byteLength":20640,"byteOffset":1149708,"target":34962},{"buffer":0,"byteLength":13760,"byteOffset":1170348,"target":34962},{"buffer":0,"byteLength":2364,"byteOffset":1184108,"target":34963},{"buffer":0,"byteLength":9336,"byteOffset":1186472,"target":34962},{"buffer":0,"byteLength":9336,"byteOffset":1195808,"target":34962},{"buffer":0,"byteLength":6224,"byteOffset":1205144,"target":34962},{"buffer":0,"byteLength":552,"byteOffset":1211368,"target":34963},{"buffer":0,"byteLength":2136,"byteOffset":1211920,"target":34962},{"buffer":0,"byteLength":2136,"byteOffset":1214056,"target":34962},{"buffer":0,"byteLength":1424,"byteOffset":1216192,"target":34962},{"buffer":0,"byteLength":360,"byteOffset":1217616,"target":34963},{"buffer":0,"byteLength":1440,"byteOffset":1217976,"target":34962},{"buffer":0,"byteLength":1440,"byteOffset":1219416,"target":34962},{"buffer":0,"byteLength":960,"byteOffset":1220856,"target":34962},{"buffer":0,"byteLength":264,"byteOffset":1221816,"target":34963},{"buffer":0,"byteLength":1056,"byteOffset":1222080,"target":34962},{"buffer":0,"byteLength":1056,"byteOffset":1223136,"target":34962},{"buffer":0,"byteLength":704,"byteOffset":1224192,"target":34962},{"buffer":0,"byteLength":264,"byteOffset":1224896,"target":34963},{"buffer":0,"byteLength":1056,"byteOffset":1225160,"target":34962},{"buffer":0,"byteLength":1056,"byteOffset":1226216,"target":34962},{"buffer":0,"byteLength":704,"byteOffset":1227272,"target":34962},{"buffer":0,"byteLength":360,"byteOffset":1227976,"target":34963},{"buffer":0,"byteLength":1440,"byteOffset":1228336,"target":34962},{"buffer":0,"byteLength":1440,"byteOffset":1229776,"target":34962},{"buffer":0,"byteLength":960,"byteOffset":1231216,"target":34962},{"buffer":0,"byteLength":552,"byteOffset":1232176,"target":34963},{"buffer":0,"byteLength":2136,"byteOffset":1232728,"target":34962},{"buffer":0,"byteLength":2136,"byteOffset":1234864,"target":34962},{"buffer":0,"byteLength":1424,"byteOffset":1237000,"target":34962}],"buffers":[{"byteLength":1238424,"uri":"Vehicle_06_A.bin"}],"images":[{"name":"Polygon_Camping_Texture","uri":"Polygon_Camping_Texture.jpg"}],"materials":[{"alphaMode":"OPAQUE","doubleSided":false,"extras":{"fromFBX":{"isTruePBR":false,"shadingModel":"Phong"}},"name":"main","pbrMetallicRoughness":{"baseColorFactor":[1,1,1,1],"baseColorTexture":{"index":0,"texCoord":0},"metallicFactor":0.400000005960464,"roughnessFactor":0.272165536880493}},{"alphaMode":"OPAQUE","doubleSided":false,"extras":{"fromFBX":{"isTruePBR":false,"shadingModel":"Phong"}},"name":"glass","pbrMetallicRoughness":{"baseColorFactor":[0.800000011920929,0.800000011920929,0.800000011920929,1],"metallicFactor":0.400000005960464,"roughnessFactor":0.272165536880493}}],"meshes":[{"name":"Carcase","primitives":[{"attributes":{"NORMAL":2,"POSITION":1,"TEXCOORD_0":3},"indices":0,"material":0,"mode":4},{"attributes":{"NORMAL":46,"POSITION":45,"TEXCOORD_0":47},"indices":44,"material":1,"mode":4}]},{"name":"Back_doors","primitives":[{"attributes":{"NORMAL":6,"POSITION":5,"TEXCOORD_0":7},"indices":4,"material":0,"mode":4},{"attributes":{"NORMAL":50,"POSITION":49,"TEXCOORD_0":51},"indices":48,"material":1,"mode":4}]},{"name":"Middle_doors","primitives":[{"attributes":{"NORMAL":10,"POSITION":9,"TEXCOORD_0":11},"indices":8,"material":0,"mode":4},{"attributes":{"NORMAL":54,"POSITION":53,"TEXCOORD_0":55},"indices":52,"material":1,"mode":4}]},{"name":"Front_doors","primitives":[{"attributes":{"NORMAL":14,"POSITION":13,"TEXCOORD_0":15},"indices":12,"material":0,"mode":4},{"attributes":{"NORMAL":58,"POSITION":57,"TEXCOORD_0":59},"indices":56,"material":1,"mode":4}]},{"name":"Front_doors.001","primitives":[{"attributes":{"NORMAL":18,"POSITION":17,"TEXCOORD_0":19},"indices":16,"material":0,"mode":4},{"attributes":{"NORMAL":62,"POSITION":61,"TEXCOORD_0":63},"indices":60,"material":1,"mode":4}]},{"name":"Middle_doors.001","primitives":[{"attributes":{"NORMAL":22,"POSITION":21,"TEXCOORD_0":23},"indices":20,"material":0,"mode":4},{"attributes":{"NORMAL":66,"POSITION":65,"TEXCOORD_0":67},"indices":64,"material":1,"mode":4}]},{"name":"Back_doors.001","primitives":[{"attributes":{"NORMAL":26,"POSITION":25,"TEXCOORD_0":27},"indices":24,"material":0,"mode":4},{"attributes":{"NORMAL":70,"POSITION":69,"TEXCOORD_0":71},"indices":68,"material":1,"mode":4}]},{"name":"Circle.001","primitives":[{"attributes":{"NORMAL":30,"POSITION":29,"TEXCOORD_0":31},"indices":28,"material":0,"mode":4}]},{"name":"Circle.002","primitives":[{"attributes":{"NORMAL":34,"POSITION":33,"TEXCOORD_0":35},"indices":32,"material":0,"mode":4}]},{"name":"Circle.003","primitives":[{"attributes":{"NORMAL":38,"POSITION":37,"TEXCOORD_0":39},"indices":36,"material":0,"mode":4}]},{"name":"Circle.004","primitives":[{"attributes":{"NORMAL":42,"POSITION":41,"TEXCOORD_0":43},"indices":40,"material":0,"mode":4}]}],"nodes":[{"children":[1,2,3,4,5,6,7,8,9,10],"mesh":0,"name":"Carcase","rotation":[0,0,0,1],"scale":[1,1,1],"translation":[0,0,0]},{"mesh":1,"name":"Back_doors","rotation":[0,0,0,1],"scale":[1,1,1],"translation":[-2.29830527305603,1.12969946861267,-0.69788891077042]},{"mesh":2,"name":"Middle_doors","rotation":[0,0,0,1],"scale":[1,1,1],"translation":[0.0483180284500122,1.1827597618103,-0.78698033094406]},{"mesh":3,"name":"Front_doors","rotation":[0,0,0,1],"scale":[1,1,1],"translation":[1.53524804115295,0.930030882358551,-0.83397418260574]},{"mesh":4,"name":"Front_doors.001","rotation":[0,0,0,1],"scale":[1,1,1],"translation":[1.53524804115295,0.930030882358551,0.833974182605743]},{"mesh":5,"name":"Middle_doors.001","rotation":[0,0,0,1],"scale":[1,1,1],"translation":[0.0485044196248055,1.1827597618103,0.787821173667908]},{"mesh":6,"name":"Back_doors.001","rotation":[0,0,0,1],"scale":[1,1,1],"translation":[-2.29830527305603,1.12969946861267,0.697888910770416]},{"mesh":7,"name":"Circle.001","rotation":[0.707106828689575,0,0,0.707106709480286],"scale":[1.2547310590744,1.2547310590744,1.2547310590744],"translation":[1.7501095533371,0.335158675909042,-0.73834782838821]},{"mesh":8,"name":"Circle.002","rotation":[0.707106828689575,0,0,0.707106709480286],"scale":[1.2547310590744,1.2547310590744,1.2547310590744],"translation":[-1.32573235034943,0.335158675909042,-0.80429172515869]},{"mesh":9,"name":"Circle.003","rotation":[0.707106828689575,0,0,0.707106709480286],"scale":[1.2547310590744,1.2547310590744,1.2547310590744],"translation":[1.7501095533371,0.335158675909042,0.738348960876465]},{"mesh":10,"name":"Circle.004","rotation":[0.707106828689575,0,0,0.707106709480286],"scale":[1.2547310590744,1.2547310590744,1.2547310590744],"translation":[-1.32573235034943,0.335158675909042,0.804291129112244]}],"samplers":[{}],"scene":0,"scenes":[{"name":"Root Scene","nodes":[0]}],"textures":[{"name":"base_color_texture","sampler":0,"source":0}]}