{"accessors":[{"bufferView":0,"byteOffset":0,"componentType":5123,"count":52788,"type":"SCALAR"},{"bufferView":1,"byteOffset":0,"componentType":5126,"count":31560,"max":[2.52425003051758,1.90663063526154,0.885186374187469],"min":[-2.50209856033325,0.260797441005707,-0.88518637418747],"type":"VEC3"},{"bufferView":2,"byteOffset":0,"componentType":5126,"count":31560,"type":"VEC3"},{"bufferView":3,"byteOffset":0,"componentType":5126,"count":31560,"type":"VEC2"},{"bufferView":4,"byteOffset":0,"componentType":5123,"count":2001,"type":"SCALAR"},{"bufferView":5,"byteOffset":0,"componentType":5126,"count":1235,"max":[0.0024491548538208,0.57759016752243,0.261196792125702],"min":[-1.11377382278442,-0.59852921962738,-0.22010999917984],"type":"VEC3"},{"bufferView":6,"byteOffset":0,"componentType":5126,"count":1235,"type":"VEC3"},{"bufferView":7,"byteOffset":0,"componentType":5126,"count":1235,"type":"VEC2"},{"bufferView":8,"byteOffset":0,"componentType":5123,"count":2004,"type":"SCALAR"},{"bufferView":9,"byteOffset":0,"componentType":5126,"count":1231,"max":[0.0024491548538208,0.57759016752243,0.22010999917984],"min":[-1.11377382278442,-0.59852921962738,-0.2611967921257],"type":"VEC3"},{"bufferView":10,"byteOffset":0,"componentType":5126,"count":1231,"type":"VEC3"},{"bufferView":11,"byteOffset":0,"componentType":5126,"count":1231,"type":"VEC2"},{"bufferView":12,"byteOffset":0,"componentType":5123,"count":3252,"type":"SCALAR"},{"bufferView":13,"byteOffset":0,"componentType":5126,"count":2106,"max":[0.370000094175339,0.15181827545166,0.370000064373016],"min":[-0.36999988555908,-0.09473519772291,-0.3699999153614],"type":"VEC3"},{"bufferView":14,"byteOffset":0,"componentType":5126,"count":2106,"type":"VEC3"},{"bufferView":15,"byteOffset":0,"componentType":5126,"count":2106,"type":"VEC2"},{"bufferView":16,"byteOffset":0,"componentType":5123,"count":3252,"type":"SCALAR"},{"bufferView":17,"byteOffset":0,"componentType":5126,"count":2108,"max":[0.370000094175339,0.151821151375771,0.370000064373016],"min":[-0.36999988555908,-0.09473231434822,-0.3699999153614],"type":"VEC3"},{"bufferView":18,"byteOffset":0,"componentType":5126,"count":2108,"type":"VEC3"},{"bufferView":19,"byteOffset":0,"componentType":5126,"count":2108,"type":"VEC2"},{"bufferView":20,"byteOffset":0,"componentType":5123,"count":3252,"type":"SCALAR"},{"bufferView":21,"byteOffset":0,"componentType":5126,"count":2112,"max":[0.370000094175339,0.0947316884994507,0.370000064373016],"min":[-0.36999988555908,-0.15182185173035,-0.36999994516373],"type":"VEC3"},{"bufferView":22,"byteOffset":0,"componentType":5126,"count":2112,"type":"VEC3"},{"bufferView":23,"byteOffset":0,"componentType":5126,"count":2112,"type":"VEC2"},{"bufferView":24,"byteOffset":0,"componentType":5123,"count":3252,"type":"SCALAR"},{"bufferView":25,"byteOffset":0,"componentType":5126,"count":2112,"max":[0.370000094175339,0.0947340056300163,0.370000064373016],"min":[-0.36999988555908,-0.1518195271492,-0.3699999153614],"type":"VEC3"},{"bufferView":26,"byteOffset":0,"componentType":5126,"count":2112,"type":"VEC3"},{"bufferView":27,"byteOffset":0,"componentType":5126,"count":2112,"type":"VEC2"},{"bufferView":28,"byteOffset":0,"componentType":5123,"count":264,"type":"SCALAR"},{"bufferView":29,"byteOffset":0,"componentType":5126,"count":174,"max":[1.37674331665039,1.58224880695343,0.708837270736694],"min":[-0.49851942062378,1.13801610469818,-0.70883727073669],"type":"VEC3"},{"bufferView":30,"byteOffset":0,"componentType":5126,"count":174,"type":"VEC3"},{"bufferView":31,"byteOffset":0,"componentType":5126,"count":174,"type":"VEC2"},{"bufferView":32,"byteOffset":0,"componentType":5123,"count":96,"type":"SCALAR"},{"bufferView":33,"byteOffset":0,"componentType":5126,"count":64,"max":[-0.09169917553663,0.561065673828125,0.256425112485886],"min":[-1.08465504646301,0.0654095113277435,0.0610088706016541],"type":"VEC3"},{"bufferView":34,"byteOffset":0,"componentType":5126,"count":64,"type":"VEC3"},{"bufferView":35,"byteOffset":0,"componentType":5126,"count":64,"type":"VEC2"},{"bufferView":36,"byteOffset":0,"componentType":5123,"count":96,"type":"SCALAR"},{"bufferView":37,"byteOffset":0,"componentType":5126,"count":64,"max":[-0.09169923514128,0.561065673828125,-0.06100887060165],"min":[-1.08465504646301,0.0654095113277435,-0.25642511248589],"type":"VEC3"},{"bufferView":38,"byteOffset":0,"componentType":5126,"count":64,"type":"VEC3"},{"bufferView":39,"byteOffset":0,"componentType":5126,"count":64,"type":"VEC2"}],"asset":{"generator":"FBX2glTF v0.13.1","version":"2.0"},"bufferViews":[{"buffer":0,"byteLength":105576,"byteOffset":0,"target":34963},{"buffer":0,"byteLength":378720,"byteOffset":105576,"target":34962},{"buffer":0,"byteLength":378720,"byteOffset":484296,"target":34962},{"buffer":0,"byteLength":252480,"byteOffset":863016,"target":34962},{"buffer":0,"byteLength":4002,"byteOffset":1115496,"target":34963},{"buffer":0,"byteLength":14820,"byteOffset":1119500,"target":34962},{"buffer":0,"byteLength":14820,"byteOffset":1134320,"target":34962},{"buffer":0,"byteLength":9880,"byteOffset":1149140,"target":34962},{"buffer":0,"byteLength":4008,"byteOffset":1159020,"target":34963},{"buffer":0,"byteLength":14772,"byteOffset":1163028,"target":34962},{"buffer":0,"byteLength":14772,"byteOffset":1177800,"target":34962},{"buffer":0,"byteLength":9848,"byteOffset":1192572,"target":34962},{"buffer":0,"byteLength":6504,"byteOffset":1202420,"target":34963},{"buffer":0,"byteLength":25272,"byteOffset":1208924,"target":34962},{"buffer":0,"byteLength":25272,"byteOffset":1234196,"target":34962},{"buffer":0,"byteLength":16848,"byteOffset":1259468,"target":34962},{"buffer":0,"byteLength":6504,"byteOffset":1276316,"target":34963},{"buffer":0,"byteLength":25296,"byteOffset":1282820,"target":34962},{"buffer":0,"byteLength":25296,"byteOffset":1308116,"target":34962},{"buffer":0,"byteLength":16864,"byteOffset":1333412,"target":34962},{"buffer":0,"byteLength":6504,"byteOffset":1350276,"target":34963},{"buffer":0,"byteLength":25344,"byteOffset":1356780,"target":34962},{"buffer":0,"byteLength":25344,"byteOffset":1382124,"target":34962},{"buffer":0,"byteLength":16896,"byteOffset":1407468,"target":34962},{"buffer":0,"byteLength":6504,"byteOffset":1424364,"target":34963},{"buffer":0,"byteLength":25344,"byteOffset":1430868,"target":34962},{"buffer":0,"byteLength":25344,"byteOffset":1456212,"target":34962},{"buffer":0,"byteLength":16896,"byteOffset":1481556,"target":34962},{"buffer":0,"byteLength":528,"byteOffset":1498452,"target":34963},{"buffer":0,"byteLength":2088,"byteOffset":1498980,"target":34962},{"buffer":0,"byteLength":2088,"byteOffset":1501068,"target":34962},{"buffer":0,"byteLength":1392,"byteOffset":1503156,"target":34962},{"buffer":0,"byteLength":192,"byteOffset":1504548,"target":34963},{"buffer":0,"byteLength":768,"byteOffset":1504740,"target":34962},{"buffer":0,"byteLength":768,"byteOffset":1505508,"target":34962},{"buffer":0,"byteLength":512,"byteOffset":1506276,"target":34962},{"buffer":0,"byteLength":192,"byteOffset":1506788,"target":34963},{"buffer":0,"byteLength":768,"byteOffset":1506980,"target":34962},{"buffer":0,"byteLength":768,"byteOffset":1507748,"target":34962},{"buffer":0,"byteLength":512,"byteOffset":1508516,"target":34962}],"buffers":[{"byteLength":1509028,"uri":"Vehicle_03_A.bin"}],"images":[{"name":"Polygon_Camping_Texture","uri":"Polygon_Camping_Texture.jpg"}],"materials":[{"alphaMode":"OPAQUE","doubleSided":false,"extras":{"fromFBX":{"isTruePBR":false,"shadingModel":"Phong"}},"name":"main","pbrMetallicRoughness":{"baseColorFactor":[1,1,1,1],"baseColorTexture":{"index":0,"texCoord":0},"metallicFactor":0.400000005960464,"roughnessFactor":0.272165536880493}},{"alphaMode":"OPAQUE","doubleSided":false,"extras":{"fromFBX":{"isTruePBR":false,"shadingModel":"Phong"}},"name":"glass","pbrMetallicRoughness":{"baseColorFactor":[0.800000011920929,0.800000011920929,0.800000011920929,1],"metallicFactor":0.400000005960464,"roughnessFactor":0.272165536880493}}],"meshes":[{"name":"Carcas","primitives":[{"attributes":{"NORMAL":2,"POSITION":1,"TEXCOORD_0":3},"indices":0,"material":0,"mode":4},{"attributes":{"NORMAL":30,"POSITION":29,"TEXCOORD_0":31},"indices":28,"material":1,"mode":4}]},{"name":"Doors_01","primitives":[{"attributes":{"NORMAL":6,"POSITION":5,"TEXCOORD_0":7},"indices":4,"material":0,"mode":4},{"attributes":{"NORMAL":34,"POSITION":33,"TEXCOORD_0":35},"indices":32,"material":1,"mode":4}]},{"name":"Doors_02","primitives":[{"attributes":{"NORMAL":10,"POSITION":9,"TEXCOORD_0":11},"indices":8,"material":0,"mode":4},{"attributes":{"NORMAL":38,"POSITION":37,"TEXCOORD_0":39},"indices":36,"material":1,"mode":4}]},{"name":"whell_02","primitives":[{"attributes":{"NORMAL":14,"POSITION":13,"TEXCOORD_0":15},"indices":12,"material":0,"mode":4}]},{"name":"whell_01","primitives":[{"attributes":{"NORMAL":18,"POSITION":17,"TEXCOORD_0":19},"indices":16,"material":0,"mode":4}]},{"name":"whell_03","primitives":[{"attributes":{"NORMAL":22,"POSITION":21,"TEXCOORD_0":23},"indices":20,"material":0,"mode":4}]},{"name":"whell_04","primitives":[{"attributes":{"NORMAL":26,"POSITION":25,"TEXCOORD_0":27},"indices":24,"material":0,"mode":4}]}],"nodes":[{"children":[1,2,3,4,5,6],"mesh":0,"name":"Carcas","rotation":[0,0,0,1],"scale":[1,1,1],"translation":[0,0,0]},{"mesh":1,"name":"Doors_01","rotation":[0,0,0,1],"scale":[1,1,1],"translation":[1.1595104932785,1.02631080150604,-0.81097501516342]},{"mesh":2,"name":"Doors_02","rotation":[0,0,0,1],"scale":[1,1,1],"translation":[1.1595104932785,1.02631080150604,0.810975015163422]},{"mesh":3,"name":"whell_02","rotation":[0.707106828689575,0,0,0.707106709480286],"scale":[1,1,1],"translation":[-1.31179404258728,0.371460139751434,-0.77891892194748]},{"mesh":4,"name":"whell_01","rotation":[0.707106828689575,0,0,0.707106709480286],"scale":[1,1,1],"translation":[1.72891962528229,0.371460139751434,-0.77892178297043]},{"mesh":5,"name":"whell_03","rotation":[0.707106828689575,0,0,0.707106709480286],"scale":[1,1,1],"translation":[1.72891962528229,0.371460109949112,0.778922498226166]},{"mesh":6,"name":"whell_04","rotation":[0.707106828689575,0,0,0.707106709480286],"scale":[1,1,1],"translation":[-1.31179404258728,0.371460139751434,0.778920114040375]}],"samplers":[{}],"scene":0,"scenes":[{"name":"Root Scene","nodes":[0]}],"textures":[{"name":"base_color_texture","sampler":0,"source":0}]}