{"accessors":[{"bufferView":0,"byteOffset":0,"componentType":5123,"count":19248,"type":"SCALAR"},{"bufferView":1,"byteOffset":0,"componentType":5126,"count":10407,"max":[2.24468994140625,2.01919507980347,0.724195241928101],"min":[-2.4392716884613,0.135548174381256,-0.71383553743362],"type":"VEC3"},{"bufferView":2,"byteOffset":0,"componentType":5126,"count":10407,"type":"VEC3"},{"bufferView":3,"byteOffset":0,"componentType":5126,"count":10407,"type":"VEC2"},{"bufferView":4,"byteOffset":0,"componentType":5123,"count":336,"type":"SCALAR"},{"bufferView":5,"byteOffset":0,"componentType":5126,"count":217,"max":[0,0.467560231685638,0.0232699513435364],"min":[-0.53902661800384,-0.33855783939362,-0.00942957401276],"type":"VEC3"},{"bufferView":6,"byteOffset":0,"componentType":5126,"count":217,"type":"VEC3"},{"bufferView":7,"byteOffset":0,"componentType":5126,"count":217,"type":"VEC2"},{"bufferView":8,"byteOffset":0,"componentType":5123,"count":2484,"type":"SCALAR"},{"bufferView":9,"byteOffset":0,"componentType":5126,"count":1600,"max":[0.270000100135803,0.111429393291473,0.270000129938126],"min":[-0.26999998092651,-0.08024712651968,-0.26999995112419],"type":"VEC3"},{"bufferView":10,"byteOffset":0,"componentType":5126,"count":1600,"type":"VEC3"},{"bufferView":11,"byteOffset":0,"componentType":5126,"count":1600,"type":"VEC2"},{"bufferView":12,"byteOffset":0,"componentType":5123,"count":2484,"type":"SCALAR"},{"bufferView":13,"byteOffset":0,"componentType":5126,"count":1600,"max":[0.270000100135803,0.111429393291473,0.270000129938126],"min":[-0.26999998092651,-0.08024712651968,-0.26999995112419],"type":"VEC3"},{"bufferView":14,"byteOffset":0,"componentType":5126,"count":1600,"type":"VEC3"},{"bufferView":15,"byteOffset":0,"componentType":5126,"count":1600,"type":"VEC2"},{"bufferView":16,"byteOffset":0,"componentType":5123,"count":2586,"type":"SCALAR"},{"bufferView":17,"byteOffset":0,"componentType":5126,"count":1600,"max":[0.270000040531158,0.0164745524525642,0.270000040531158],"min":[-0.27000004053116,-0.17520196735859,-0.27000004053116],"type":"VEC3"},{"bufferView":18,"byteOffset":0,"componentType":5126,"count":1600,"type":"VEC3"},{"bufferView":19,"byteOffset":0,"componentType":5126,"count":1600,"type":"VEC2"},{"bufferView":20,"byteOffset":0,"componentType":5123,"count":3060,"type":"SCALAR"},{"bufferView":21,"byteOffset":0,"componentType":5126,"count":1980,"max":[0.270000100135803,0.105036340653896,0.270000129938126],"min":[-0.26999998092651,-0.08664017170668,-0.26999995112419],"type":"VEC3"},{"bufferView":22,"byteOffset":0,"componentType":5126,"count":1980,"type":"VEC3"},{"bufferView":23,"byteOffset":0,"componentType":5126,"count":1980,"type":"VEC2"},{"bufferView":24,"byteOffset":0,"componentType":5123,"count":300,"type":"SCALAR"},{"bufferView":25,"byteOffset":0,"componentType":5126,"count":188,"max":[0,0.467560231685638,0.00942957401275635],"min":[-0.53902661800384,-0.33855783939362,-0.01885306835175],"type":"VEC3"},{"bufferView":26,"byteOffset":0,"componentType":5126,"count":188,"type":"VEC3"},{"bufferView":27,"byteOffset":0,"componentType":5126,"count":188,"type":"VEC2"},{"bufferView":28,"byteOffset":0,"componentType":5123,"count":3060,"type":"SCALAR"},{"bufferView":29,"byteOffset":0,"componentType":5126,"count":1984,"max":[0.270000159740448,0.0866409465670586,0.270000129938126],"min":[-0.27000001072884,-0.10503578186035,-0.26999995112419],"type":"VEC3"},{"bufferView":30,"byteOffset":0,"componentType":5126,"count":1984,"type":"VEC3"},{"bufferView":31,"byteOffset":0,"componentType":5126,"count":1984,"type":"VEC2"},{"bufferView":32,"byteOffset":0,"componentType":5123,"count":2484,"type":"SCALAR"},{"bufferView":33,"byteOffset":0,"componentType":5126,"count":1600,"max":[0.270000100135803,0.0802481174468994,0.270000100135803],"min":[-0.26999998092651,-0.11142837256193,-0.26999998092651],"type":"VEC3"},{"bufferView":34,"byteOffset":0,"componentType":5126,"count":1600,"type":"VEC3"},{"bufferView":35,"byteOffset":0,"componentType":5126,"count":1600,"type":"VEC2"},{"bufferView":36,"byteOffset":0,"componentType":5123,"count":2484,"type":"SCALAR"},{"bufferView":37,"byteOffset":0,"componentType":5126,"count":1600,"max":[0.270000100135803,0.0802482962608337,0.270000100135803],"min":[-0.26999998092651,-0.11142826080322,-0.26999998092651],"type":"VEC3"},{"bufferView":38,"byteOffset":0,"componentType":5126,"count":1600,"type":"VEC3"},{"bufferView":39,"byteOffset":0,"componentType":5126,"count":1600,"type":"VEC2"},{"bufferView":40,"byteOffset":0,"componentType":5123,"count":2586,"type":"SCALAR"},{"bufferView":41,"byteOffset":0,"componentType":5126,"count":1600,"max":[0.270000100135803,0.0822611376643181,0.270000159740448],"min":[-0.26999998092651,-0.10941537469625,-0.26999992132187],"type":"VEC3"},{"bufferView":42,"byteOffset":0,"componentType":5126,"count":1600,"type":"VEC3"},{"bufferView":43,"byteOffset":0,"componentType":5126,"count":1600,"type":"VEC2"},{"bufferView":44,"byteOffset":0,"componentType":5123,"count":24,"type":"SCALAR"},{"bufferView":45,"byteOffset":0,"componentType":5126,"count":14,"max":[2.20639204978943,1.37311410903931,0.526270151138306],"min":[2.0895209312439,0.933514535427094,-0.51591038703919],"type":"VEC3"},{"bufferView":46,"byteOffset":0,"componentType":5126,"count":14,"type":"VEC3"},{"bufferView":47,"byteOffset":0,"componentType":5126,"count":14,"type":"VEC2"},{"bufferView":48,"byteOffset":0,"componentType":5123,"count":24,"type":"SCALAR"},{"bufferView":49,"byteOffset":0,"componentType":5126,"count":14,"max":[-0.05783948302269,0.422780513763428,0.0232699513435364],"min":[-0.49048000574112,0.0439168475568295,0.00518149137496948],"type":"VEC3"},{"bufferView":50,"byteOffset":0,"componentType":5126,"count":14,"type":"VEC3"},{"bufferView":51,"byteOffset":0,"componentType":5126,"count":14,"type":"VEC2"},{"bufferView":52,"byteOffset":0,"componentType":5123,"count":60,"type":"SCALAR"},{"bufferView":53,"byteOffset":0,"componentType":5126,"count":38,"max":[-0.05783948302269,0.423037141561508,-0.0033820271492],"min":[-0.49048000574112,0.0439168475568295,-0.02326995134354],"type":"VEC3"},{"bufferView":54,"byteOffset":0,"componentType":5126,"count":38,"type":"VEC3"},{"bufferView":55,"byteOffset":0,"componentType":5126,"count":38,"type":"VEC2"}],"asset":{"generator":"FBX2glTF v0.13.1","version":"2.0"},"bufferViews":[{"buffer":0,"byteLength":38496,"byteOffset":0,"target":34963},{"buffer":0,"byteLength":124884,"byteOffset":38496,"target":34962},{"buffer":0,"byteLength":124884,"byteOffset":163380,"target":34962},{"buffer":0,"byteLength":83256,"byteOffset":288264,"target":34962},{"buffer":0,"byteLength":672,"byteOffset":371520,"target":34963},{"buffer":0,"byteLength":2604,"byteOffset":372192,"target":34962},{"buffer":0,"byteLength":2604,"byteOffset":374796,"target":34962},{"buffer":0,"byteLength":1736,"byteOffset":377400,"target":34962},{"buffer":0,"byteLength":4968,"byteOffset":379136,"target":34963},{"buffer":0,"byteLength":19200,"byteOffset":384104,"target":34962},{"buffer":0,"byteLength":19200,"byteOffset":403304,"target":34962},{"buffer":0,"byteLength":12800,"byteOffset":422504,"target":34962},{"buffer":0,"byteLength":4968,"byteOffset":435304,"target":34963},{"buffer":0,"byteLength":19200,"byteOffset":440272,"target":34962},{"buffer":0,"byteLength":19200,"byteOffset":459472,"target":34962},{"buffer":0,"byteLength":12800,"byteOffset":478672,"target":34962},{"buffer":0,"byteLength":5172,"byteOffset":491472,"target":34963},{"buffer":0,"byteLength":19200,"byteOffset":496644,"target":34962},{"buffer":0,"byteLength":19200,"byteOffset":515844,"target":34962},{"buffer":0,"byteLength":12800,"byteOffset":535044,"target":34962},{"buffer":0,"byteLength":6120,"byteOffset":547844,"target":34963},{"buffer":0,"byteLength":23760,"byteOffset":553964,"target":34962},{"buffer":0,"byteLength":23760,"byteOffset":577724,"target":34962},{"buffer":0,"byteLength":15840,"byteOffset":601484,"target":34962},{"buffer":0,"byteLength":600,"byteOffset":617324,"target":34963},{"buffer":0,"byteLength":2256,"byteOffset":617924,"target":34962},{"buffer":0,"byteLength":2256,"byteOffset":620180,"target":34962},{"buffer":0,"byteLength":1504,"byteOffset":622436,"target":34962},{"buffer":0,"byteLength":6120,"byteOffset":623940,"target":34963},{"buffer":0,"byteLength":23808,"byteOffset":630060,"target":34962},{"buffer":0,"byteLength":23808,"byteOffset":653868,"target":34962},{"buffer":0,"byteLength":15872,"byteOffset":677676,"target":34962},{"buffer":0,"byteLength":4968,"byteOffset":693548,"target":34963},{"buffer":0,"byteLength":19200,"byteOffset":698516,"target":34962},{"buffer":0,"byteLength":19200,"byteOffset":717716,"target":34962},{"buffer":0,"byteLength":12800,"byteOffset":736916,"target":34962},{"buffer":0,"byteLength":4968,"byteOffset":749716,"target":34963},{"buffer":0,"byteLength":19200,"byteOffset":754684,"target":34962},{"buffer":0,"byteLength":19200,"byteOffset":773884,"target":34962},{"buffer":0,"byteLength":12800,"byteOffset":793084,"target":34962},{"buffer":0,"byteLength":5172,"byteOffset":805884,"target":34963},{"buffer":0,"byteLength":19200,"byteOffset":811056,"target":34962},{"buffer":0,"byteLength":19200,"byteOffset":830256,"target":34962},{"buffer":0,"byteLength":12800,"byteOffset":849456,"target":34962},{"buffer":0,"byteLength":48,"byteOffset":862256,"target":34963},{"buffer":0,"byteLength":168,"byteOffset":862304,"target":34962},{"buffer":0,"byteLength":168,"byteOffset":862472,"target":34962},{"buffer":0,"byteLength":112,"byteOffset":862640,"target":34962},{"buffer":0,"byteLength":48,"byteOffset":862752,"target":34963},{"buffer":0,"byteLength":168,"byteOffset":862800,"target":34962},{"buffer":0,"byteLength":168,"byteOffset":862968,"target":34962},{"buffer":0,"byteLength":112,"byteOffset":863136,"target":34962},{"buffer":0,"byteLength":120,"byteOffset":863248,"target":34963},{"buffer":0,"byteLength":456,"byteOffset":863368,"target":34962},{"buffer":0,"byteLength":456,"byteOffset":863824,"target":34962},{"buffer":0,"byteLength":304,"byteOffset":864280,"target":34962}],"buffers":[{"byteLength":864584,"uri":"Vehicle_05_A.bin"}],"images":[{"name":"Polygon_Camping_Texture","uri":"Polygon_Camping_Texture.psd"}],"materials":[{"alphaMode":"OPAQUE","doubleSided":false,"extras":{"fromFBX":{"isTruePBR":false,"shadingModel":"Phong"}},"name":"main","pbrMetallicRoughness":{"baseColorFactor":[1,1,1,1],"baseColorTexture":{"index":0,"texCoord":0},"metallicFactor":0.400000005960464,"roughnessFactor":0.272165536880493}},{"alphaMode":"OPAQUE","doubleSided":false,"extras":{"fromFBX":{"isTruePBR":false,"shadingModel":"Phong"}},"name":"glass","pbrMetallicRoughness":{"baseColorFactor":[0.800000011920929,0.800000011920929,0.800000011920929,1],"metallicFactor":0.400000005960464,"roughnessFactor":0.272165536880493}}],"meshes":[{"name":"truck_carcase_01","primitives":[{"attributes":{"NORMAL":2,"POSITION":1,"TEXCOORD_0":3},"indices":0,"material":0,"mode":4},{"attributes":{"NORMAL":46,"POSITION":45,"TEXCOORD_0":47},"indices":44,"material":1,"mode":4}]},{"name":"cabin.Doors_01","primitives":[{"attributes":{"NORMAL":6,"POSITION":5,"TEXCOORD_0":7},"indices":4,"material":0,"mode":4},{"attributes":{"NORMAL":50,"POSITION":49,"TEXCOORD_0":51},"indices":48,"material":1,"mode":4}]},{"name":"Whell_01","primitives":[{"attributes":{"NORMAL":10,"POSITION":9,"TEXCOORD_0":11},"indices":8,"material":0,"mode":4}]},{"name":"Whell_02","primitives":[{"attributes":{"NORMAL":14,"POSITION":13,"TEXCOORD_0":15},"indices":12,"material":0,"mode":4}]},{"name":"Whell_03","primitives":[{"attributes":{"NORMAL":18,"POSITION":17,"TEXCOORD_0":19},"indices":16,"material":0,"mode":4}]},{"name":"Whell_04","primitives":[{"attributes":{"NORMAL":22,"POSITION":21,"TEXCOORD_0":23},"indices":20,"material":0,"mode":4}]},{"name":"cabin.Doors_02","primitives":[{"attributes":{"NORMAL":26,"POSITION":25,"TEXCOORD_0":27},"indices":24,"material":0,"mode":4},{"attributes":{"NORMAL":54,"POSITION":53,"TEXCOORD_0":55},"indices":52,"material":1,"mode":4}]},{"name":"Whell_05","primitives":[{"attributes":{"NORMAL":30,"POSITION":29,"TEXCOORD_0":31},"indices":28,"material":0,"mode":4}]},{"name":"Whell_06","primitives":[{"attributes":{"NORMAL":34,"POSITION":33,"TEXCOORD_0":35},"indices":32,"material":0,"mode":4}]},{"name":"Whell_07","primitives":[{"attributes":{"NORMAL":38,"POSITION":37,"TEXCOORD_0":39},"indices":36,"material":0,"mode":4}]},{"name":"Whell_08","primitives":[{"attributes":{"NORMAL":42,"POSITION":41,"TEXCOORD_0":43},"indices":40,"material":0,"mode":4}]}],"nodes":[{"children":[1,2,3,4,5,6,7,8,9,10],"mesh":0,"name":"truck_carcase_01","rotation":[0,0,0,1],"scale":[1,1,1],"translation":[0,0,0]},{"mesh":1,"name":"cabin.Doors_01","rotation":[0,0,0,1],"scale":[1,1,1],"translation":[2.10397386550903,0.922315716743469,-0.57301867008209]},{"mesh":2,"name":"Whell_01","rotation":[0.707106828689575,0,0,0.707106709480286],"scale":[1,1,1],"translation":[1.56074690818787,0.269746035337448,-0.51672738790512]},{"mesh":3,"name":"Whell_02","rotation":[0.707106828689575,0,0,0.707106709480286],"scale":[1,1,1],"translation":[-0.17060455679893,0.37802192568779,-0.53830587863922]},{"mesh":4,"name":"Whell_03","rotation":[0.707106828689575,0,0,0.707106709480286],"scale":[1,1,1],"translation":[-0.7524254322052,0.269745945930481,-0.21417528390884]},{"mesh":5,"name":"Whell_04","rotation":[0.000000390559904417387,-0.70710670948029,0.707106828689575,0.000000390559819152259],"scale":[1,1,1],"translation":[-0.75550746917725,0.269746035337448,-0.46803793311119]},{"mesh":6,"name":"cabin.Doors_02","rotation":[0,0,0,1],"scale":[1,1,1],"translation":[2.10397386550903,0.922315716743469,0.583378434181213]},{"mesh":7,"name":"Whell_05","rotation":[0.000000390559904417387,-0.70710670948029,0.707106828689575,0.000000390559819152259],"scale":[1,1,1],"translation":[-0.75550746917725,0.269746035337448,0.478398412466049]},{"mesh":8,"name":"Whell_06","rotation":[0.707106828689575,0,0,0.707106709480286],"scale":[1,1,1],"translation":[1.56074690818787,0.269746005535126,0.527086138725281]},{"mesh":9,"name":"Whell_07","rotation":[0.707106828689575,0,0,0.707106709480286],"scale":[1,1,1],"translation":[-0.17060455679893,0.378021866083145,0.548664510250092]},{"mesh":10,"name":"Whell_08","rotation":[0.707106828689575,0,0,0.707106709480286],"scale":[1,1,1],"translation":[-0.75242549180984,0.269746035337448,0.317475855350494]}],"samplers":[{}],"scene":0,"scenes":[{"name":"Root Scene","nodes":[0]}],"textures":[{"name":"base_color_texture","sampler":0,"source":0}]}