{"accessors":[{"bufferView":0,"byteOffset":0,"componentType":5123,"count":20784,"type":"SCALAR"},{"bufferView":1,"byteOffset":0,"componentType":5126,"count":12566,"max":[1.57362854480743,1.46179449558258,0.852047622203827],"min":[-1.44576513767242,0.216199636459351,-0.85204762220383],"type":"VEC3"},{"bufferView":2,"byteOffset":0,"componentType":5126,"count":12566,"type":"VEC3"},{"bufferView":3,"byteOffset":0,"componentType":5126,"count":12566,"type":"VEC4"},{"bufferView":4,"byteOffset":0,"componentType":5126,"count":12566,"type":"VEC2"},{"bufferView":5,"byteOffset":0,"componentType":5126,"count":12566,"type":"VEC2"},{"bufferView":6,"byteOffset":0,"componentType":5123,"count":729,"type":"SCALAR"},{"bufferView":7,"byteOffset":0,"componentType":5126,"count":447,"max":[0,0.351407736539841,0.163110077381134],"min":[-0.73433071374893,-0.45970812439919,-0.02595984376967],"type":"VEC3"},{"bufferView":8,"byteOffset":0,"componentType":5126,"count":447,"type":"VEC3"},{"bufferView":9,"byteOffset":0,"componentType":5126,"count":447,"type":"VEC2"},{"bufferView":10,"byteOffset":0,"componentType":5126,"count":447,"type":"VEC2"},{"bufferView":11,"byteOffset":0,"componentType":5123,"count":924,"type":"SCALAR"},{"bufferView":12,"byteOffset":0,"componentType":5126,"count":596,"max":[0.536460816860199,1.01309287548065,0.681603670120239],"min":[-1,0.5,-0.68160367012024],"type":"VEC3"},{"bufferView":13,"byteOffset":0,"componentType":5126,"count":596,"type":"VEC3"},{"bufferView":14,"byteOffset":0,"componentType":5126,"count":596,"type":"VEC2"},{"bufferView":15,"byteOffset":0,"componentType":5126,"count":596,"type":"VEC2"},{"bufferView":16,"byteOffset":0,"componentType":5123,"count":729,"type":"SCALAR"},{"bufferView":17,"byteOffset":0,"componentType":5126,"count":445,"max":[0,0.351407736539841,0.0259598027914762],"min":[-0.73433071374893,-0.45970812439919,-0.16311013698578],"type":"VEC3"},{"bufferView":18,"byteOffset":0,"componentType":5126,"count":445,"type":"VEC3"},{"bufferView":19,"byteOffset":0,"componentType":5126,"count":445,"type":"VEC2"},{"bufferView":20,"byteOffset":0,"componentType":5126,"count":445,"type":"VEC2"},{"bufferView":21,"byteOffset":0,"componentType":5123,"count":3828,"type":"SCALAR"},{"bufferView":22,"byteOffset":0,"componentType":5126,"count":2496,"max":[0.318307757377625,0.318307757377625,0.222188547253609],"min":[-0.31830775737763,-0.31830775737763,-0.00736663443968],"type":"VEC3"},{"bufferView":23,"byteOffset":0,"componentType":5126,"count":2496,"type":"VEC3"},{"bufferView":24,"byteOffset":0,"componentType":5126,"count":2496,"type":"VEC2"},{"bufferView":25,"byteOffset":0,"componentType":5126,"count":2496,"type":"VEC2"},{"bufferView":26,"byteOffset":0,"componentType":5123,"count":3828,"type":"SCALAR"},{"bufferView":27,"byteOffset":0,"componentType":5126,"count":2496,"max":[0.318307757377625,0.318307757377625,0.222188547253609],"min":[-0.31830775737763,-0.31830775737763,-0.00736663443968],"type":"VEC3"},{"bufferView":28,"byteOffset":0,"componentType":5126,"count":2496,"type":"VEC3"},{"bufferView":29,"byteOffset":0,"componentType":5126,"count":2496,"type":"VEC2"},{"bufferView":30,"byteOffset":0,"componentType":5126,"count":2496,"type":"VEC2"},{"bufferView":31,"byteOffset":0,"componentType":5123,"count":3828,"type":"SCALAR"},{"bufferView":32,"byteOffset":0,"componentType":5126,"count":2496,"max":[0.318307757377625,0.318307757377625,0.007366634439677],"min":[-0.31830775737763,-0.31830775737763,-0.2319767922163],"type":"VEC3"},{"bufferView":33,"byteOffset":0,"componentType":5126,"count":2496,"type":"VEC3"},{"bufferView":34,"byteOffset":0,"componentType":5126,"count":2496,"type":"VEC2"},{"bufferView":35,"byteOffset":0,"componentType":5126,"count":2496,"type":"VEC2"},{"bufferView":36,"byteOffset":0,"componentType":5123,"count":3828,"type":"SCALAR"},{"bufferView":37,"byteOffset":0,"componentType":5126,"count":2496,"max":[0.318307757377625,0.318307757377625,0.007366634439677],"min":[-0.31830775737763,-0.31830775737763,-0.23015481233597],"type":"VEC3"},{"bufferView":38,"byteOffset":0,"componentType":5126,"count":2496,"type":"VEC3"},{"bufferView":39,"byteOffset":0,"componentType":5126,"count":2496,"type":"VEC2"},{"bufferView":40,"byteOffset":0,"componentType":5126,"count":2496,"type":"VEC2"},{"bufferView":41,"byteOffset":0,"componentType":5123,"count":3828,"type":"SCALAR"},{"bufferView":42,"byteOffset":0,"componentType":5126,"count":2496,"max":[0.222188532352448,0.318307757377625,0.318307757377625],"min":[-0.00736660882831,-0.31830775737763,-0.31830775737763],"type":"VEC3"},{"bufferView":43,"byteOffset":0,"componentType":5126,"count":2496,"type":"VEC3"},{"bufferView":44,"byteOffset":0,"componentType":5126,"count":2496,"type":"VEC2"},{"bufferView":45,"byteOffset":0,"componentType":5126,"count":2496,"type":"VEC2"},{"bufferView":46,"byteOffset":0,"componentType":5123,"count":24,"type":"SCALAR"},{"bufferView":47,"byteOffset":0,"componentType":5126,"count":14,"max":[0.394336074590683,1.4042581319809,0.581065058708191],"min":[0.187615767121315,1.08526039123535,-0.58106505870819],"type":"VEC3"},{"bufferView":48,"byteOffset":0,"componentType":5126,"count":14,"type":"VEC3"},{"bufferView":49,"byteOffset":0,"componentType":5126,"count":14,"type":"VEC4"},{"bufferView":50,"byteOffset":0,"componentType":5126,"count":14,"type":"VEC2"},{"bufferView":51,"byteOffset":0,"componentType":5126,"count":14,"type":"VEC2"},{"bufferView":52,"byteOffset":0,"componentType":5123,"count":15,"type":"SCALAR"},{"bufferView":53,"byteOffset":0,"componentType":5126,"count":11,"max":[-0.05138942599297,0.324996531009674,0.143129780888557],"min":[-0.70500302314758,0.0201908890157938,0.0362231098115444],"type":"VEC3"},{"bufferView":54,"byteOffset":0,"componentType":5126,"count":11,"type":"VEC3"},{"bufferView":55,"byteOffset":0,"componentType":5126,"count":11,"type":"VEC2"},{"bufferView":56,"byteOffset":0,"componentType":5126,"count":11,"type":"VEC2"},{"bufferView":57,"byteOffset":0,"componentType":5123,"count":84,"type":"SCALAR"},{"bufferView":58,"byteOffset":0,"componentType":5126,"count":56,"max":[-0.18662932515144,0.910918176174164,0.663323938846588],"min":[-0.97464460134506,0.576695621013641,-0.66332393884659],"type":"VEC3"},{"bufferView":59,"byteOffset":0,"componentType":5126,"count":56,"type":"VEC3"},{"bufferView":60,"byteOffset":0,"componentType":5126,"count":56,"type":"VEC2"},{"bufferView":61,"byteOffset":0,"componentType":5126,"count":56,"type":"VEC2"},{"bufferView":62,"byteOffset":0,"componentType":5123,"count":15,"type":"SCALAR"},{"bufferView":63,"byteOffset":0,"componentType":5126,"count":11,"max":[-0.05138954892755,0.324996590614319,-0.03622304648161],"min":[-0.70500308275223,0.0201909355819225,-0.14312973618507],"type":"VEC3"},{"bufferView":64,"byteOffset":0,"componentType":5126,"count":11,"type":"VEC3"},{"bufferView":65,"byteOffset":0,"componentType":5126,"count":11,"type":"VEC2"},{"bufferView":66,"byteOffset":0,"componentType":5126,"count":11,"type":"VEC2"}],"asset":{"generator":"FBX2glTF v0.13.1","version":"2.0"},"bufferViews":[{"buffer":0,"byteLength":41568,"byteOffset":0,"target":34963},{"buffer":0,"byteLength":150792,"byteOffset":41568,"target":34962},{"buffer":0,"byteLength":150792,"byteOffset":192360,"target":34962},{"buffer":0,"byteLength":201056,"byteOffset":343152,"target":34962},{"buffer":0,"byteLength":100528,"byteOffset":544208,"target":34962},{"buffer":0,"byteLength":100528,"byteOffset":644736,"target":34962},{"buffer":0,"byteLength":1458,"byteOffset":745264,"target":34963},{"buffer":0,"byteLength":5364,"byteOffset":746724,"target":34962},{"buffer":0,"byteLength":5364,"byteOffset":752088,"target":34962},{"buffer":0,"byteLength":3576,"byteOffset":757452,"target":34962},{"buffer":0,"byteLength":3576,"byteOffset":761028,"target":34962},{"buffer":0,"byteLength":1848,"byteOffset":764604,"target":34963},{"buffer":0,"byteLength":7152,"byteOffset":766452,"target":34962},{"buffer":0,"byteLength":7152,"byteOffset":773604,"target":34962},{"buffer":0,"byteLength":4768,"byteOffset":780756,"target":34962},{"buffer":0,"byteLength":4768,"byteOffset":785524,"target":34962},{"buffer":0,"byteLength":1458,"byteOffset":790292,"target":34963},{"buffer":0,"byteLength":5340,"byteOffset":791752,"target":34962},{"buffer":0,"byteLength":5340,"byteOffset":797092,"target":34962},{"buffer":0,"byteLength":3560,"byteOffset":802432,"target":34962},{"buffer":0,"byteLength":3560,"byteOffset":805992,"target":34962},{"buffer":0,"byteLength":7656,"byteOffset":809552,"target":34963},{"buffer":0,"byteLength":29952,"byteOffset":817208,"target":34962},{"buffer":0,"byteLength":29952,"byteOffset":847160,"target":34962},{"buffer":0,"byteLength":19968,"byteOffset":877112,"target":34962},{"buffer":0,"byteLength":19968,"byteOffset":897080,"target":34962},{"buffer":0,"byteLength":7656,"byteOffset":917048,"target":34963},{"buffer":0,"byteLength":29952,"byteOffset":924704,"target":34962},{"buffer":0,"byteLength":29952,"byteOffset":954656,"target":34962},{"buffer":0,"byteLength":19968,"byteOffset":984608,"target":34962},{"buffer":0,"byteLength":19968,"byteOffset":1004576,"target":34962},{"buffer":0,"byteLength":7656,"byteOffset":1024544,"target":34963},{"buffer":0,"byteLength":29952,"byteOffset":1032200,"target":34962},{"buffer":0,"byteLength":29952,"byteOffset":1062152,"target":34962},{"buffer":0,"byteLength":19968,"byteOffset":1092104,"target":34962},{"buffer":0,"byteLength":19968,"byteOffset":1112072,"target":34962},{"buffer":0,"byteLength":7656,"byteOffset":1132040,"target":34963},{"buffer":0,"byteLength":29952,"byteOffset":1139696,"target":34962},{"buffer":0,"byteLength":29952,"byteOffset":1169648,"target":34962},{"buffer":0,"byteLength":19968,"byteOffset":1199600,"target":34962},{"buffer":0,"byteLength":19968,"byteOffset":1219568,"target":34962},{"buffer":0,"byteLength":7656,"byteOffset":1239536,"target":34963},{"buffer":0,"byteLength":29952,"byteOffset":1247192,"target":34962},{"buffer":0,"byteLength":29952,"byteOffset":1277144,"target":34962},{"buffer":0,"byteLength":19968,"byteOffset":1307096,"target":34962},{"buffer":0,"byteLength":19968,"byteOffset":1327064,"target":34962},{"buffer":0,"byteLength":48,"byteOffset":1347032,"target":34963},{"buffer":0,"byteLength":168,"byteOffset":1347080,"target":34962},{"buffer":0,"byteLength":168,"byteOffset":1347248,"target":34962},{"buffer":0,"byteLength":224,"byteOffset":1347416,"target":34962},{"buffer":0,"byteLength":112,"byteOffset":1347640,"target":34962},{"buffer":0,"byteLength":112,"byteOffset":1347752,"target":34962},{"buffer":0,"byteLength":30,"byteOffset":1347864,"target":34963},{"buffer":0,"byteLength":132,"byteOffset":1347896,"target":34962},{"buffer":0,"byteLength":132,"byteOffset":1348028,"target":34962},{"buffer":0,"byteLength":88,"byteOffset":1348160,"target":34962},{"buffer":0,"byteLength":88,"byteOffset":1348248,"target":34962},{"buffer":0,"byteLength":168,"byteOffset":1348336,"target":34963},{"buffer":0,"byteLength":672,"byteOffset":1348504,"target":34962},{"buffer":0,"byteLength":672,"byteOffset":1349176,"target":34962},{"buffer":0,"byteLength":448,"byteOffset":1349848,"target":34962},{"buffer":0,"byteLength":448,"byteOffset":1350296,"target":34962},{"buffer":0,"byteLength":30,"byteOffset":1350744,"target":34963},{"buffer":0,"byteLength":132,"byteOffset":1350776,"target":34962},{"buffer":0,"byteLength":132,"byteOffset":1350908,"target":34962},{"buffer":0,"byteLength":88,"byteOffset":1351040,"target":34962},{"buffer":0,"byteLength":88,"byteOffset":1351128,"target":34962}],"buffers":[{"byteLength":1351216,"uri":"Vehicle_12_A.bin"}],"images":[{"name":"Polygon_Camping_Texture","uri":"Polygon_Camping_Texture.jpg"}],"materials":[{"alphaMode":"OPAQUE","doubleSided":false,"extras":{"fromFBX":{"isTruePBR":false,"shadingModel":"Phong"}},"name":"Material","pbrMetallicRoughness":{"baseColorFactor":[1,1,1,1],"baseColorTexture":{"index":0,"texCoord":0},"metallicFactor":0.400000005960464,"roughnessFactor":0.272165536880493}},{"alphaMode":"OPAQUE","doubleSided":false,"extras":{"fromFBX":{"isTruePBR":false,"shadingModel":"Phong"}},"name":"glass","pbrMetallicRoughness":{"baseColorFactor":[0.800000011920929,0.800000011920929,0.800000011920929,1],"metallicFactor":0.400000005960464,"roughnessFactor":0.272165536880493}}],"meshes":[{"name":"body_01","primitives":[{"attributes":{"COLOR_0":3,"NORMAL":2,"POSITION":1,"TEXCOORD_0":4,"TEXCOORD_1":5},"indices":0,"material":0,"mode":4},{"attributes":{"COLOR_0":49,"NORMAL":48,"POSITION":47,"TEXCOORD_0":50,"TEXCOORD_1":51},"indices":46,"material":1,"mode":4}]},{"name":"Door_02","primitives":[{"attributes":{"NORMAL":8,"POSITION":7,"TEXCOORD_0":9,"TEXCOORD_1":10},"indices":6,"material":0,"mode":4},{"attributes":{"NORMAL":54,"POSITION":53,"TEXCOORD_0":55,"TEXCOORD_1":56},"indices":52,"material":1,"mode":4}]},{"name":"Roof_tent_01","primitives":[{"attributes":{"NORMAL":13,"POSITION":12,"TEXCOORD_0":14,"TEXCOORD_1":15},"indices":11,"material":0,"mode":4},{"attributes":{"NORMAL":59,"POSITION":58,"TEXCOORD_0":60,"TEXCOORD_1":61},"indices":57,"material":1,"mode":4}]},{"name":"Door_01","primitives":[{"attributes":{"NORMAL":18,"POSITION":17,"TEXCOORD_0":19,"TEXCOORD_1":20},"indices":16,"material":0,"mode":4},{"attributes":{"NORMAL":64,"POSITION":63,"TEXCOORD_0":65,"TEXCOORD_1":66},"indices":62,"material":1,"mode":4}]},{"name":"wheel_01","primitives":[{"attributes":{"NORMAL":23,"POSITION":22,"TEXCOORD_0":24,"TEXCOORD_1":25},"indices":21,"material":0,"mode":4}]},{"name":"wheel_02","primitives":[{"attributes":{"NORMAL":28,"POSITION":27,"TEXCOORD_0":29,"TEXCOORD_1":30},"indices":26,"material":0,"mode":4}]},{"name":"wheel_04","primitives":[{"attributes":{"NORMAL":33,"POSITION":32,"TEXCOORD_0":34,"TEXCOORD_1":35},"indices":31,"material":0,"mode":4}]},{"name":"wheel_03","primitives":[{"attributes":{"NORMAL":38,"POSITION":37,"TEXCOORD_0":39,"TEXCOORD_1":40},"indices":36,"material":0,"mode":4}]},{"name":"wheel_05","primitives":[{"attributes":{"NORMAL":43,"POSITION":42,"TEXCOORD_0":44,"TEXCOORD_1":45},"indices":41,"material":0,"mode":4}]}],"nodes":[{"children":[1,2,3,4,5,6,7,8],"mesh":0,"name":"body_01","rotation":[0,0,0,1],"scale":[1,1,1],"translation":[0,0,0]},{"mesh":1,"name":"Door_02","rotation":[0,0,0,1],"scale":[1,1,1],"translation":[0.338355362415314,1.03067982196808,-0.6787314414978]},{"mesh":2,"name":"Roof_tent_01","rotation":[0,0,0,1],"scale":[1,1,1],"translation":[-0.34793117642403,0.466569483280182,0]},{"mesh":3,"name":"Door_01","rotation":[0,0,0,1],"scale":[1,1,1],"translation":[0.338355362415314,1.03067982196808,0.673536837100983]},{"mesh":4,"name":"wheel_01","rotation":[0,0,0,1],"scale":[1,1,1],"translation":[1.01752376556396,0.320895582437515,-0.84402030706406]},{"mesh":5,"name":"wheel_02","rotation":[0,0,0,1],"scale":[1,1,1],"translation":[-0.823037981987,0.320895582437515,-0.84402030706406]},{"mesh":6,"name":"wheel_04","rotation":[0,0,0,1],"scale":[1,1,1],"translation":[-0.83025348186493,0.320895582437515,0.849023044109344]},{"mesh":7,"name":"wheel_03","rotation":[0,0,0,1],"scale":[1,1,1],"translation":[1.01357066631317,0.320895582437515,0.85549134016037]},{"mesh":8,"name":"wheel_05","rotation":[0,0,0,1],"scale":[1,1,1],"translation":[-1.59514462947845,0.857595682144165,0.0287716928869486]}],"samplers":[{}],"scene":0,"scenes":[{"name":"Root Scene","nodes":[0]}],"textures":[{"name":"base_color_texture","sampler":0,"source":0}]}