{"accessors":[{"bufferView":0,"byteOffset":0,"componentType":5123,"count":37254,"type":"SCALAR"},{"bufferView":1,"byteOffset":0,"componentType":5126,"count":22929,"max":[2.49823760986328,1.63021051883698,0.900353133678436],"min":[-2.49577140808105,0.280425071716309,-0.89958661794662],"type":"VEC3"},{"bufferView":2,"byteOffset":0,"componentType":5126,"count":22929,"type":"VEC3"},{"bufferView":3,"byteOffset":0,"componentType":5126,"count":22929,"type":"VEC2"},{"bufferView":4,"byteOffset":0,"componentType":5123,"count":1452,"type":"SCALAR"},{"bufferView":5,"byteOffset":0,"componentType":5126,"count":861,"max":[0,0.713062286376953,0.357356369495392],"min":[-1.17304027080536,-0.35333430767059,-0.11179166287184],"type":"VEC3"},{"bufferView":6,"byteOffset":0,"componentType":5126,"count":861,"type":"VEC3"},{"bufferView":7,"byteOffset":0,"componentType":5126,"count":861,"type":"VEC2"},{"bufferView":8,"byteOffset":0,"componentType":5123,"count":1032,"type":"SCALAR"},{"bufferView":9,"byteOffset":0,"componentType":5126,"count":633,"max":[0.00993195176124573,0.515643000602722,0.323417961597443],"min":[-0.96484959125519,-0.55075359344482,-0.03642672300339],"type":"VEC3"},{"bufferView":10,"byteOffset":0,"componentType":5126,"count":633,"type":"VEC3"},{"bufferView":11,"byteOffset":0,"componentType":5126,"count":633,"type":"VEC2"},{"bufferView":12,"byteOffset":0,"componentType":5123,"count":4524,"type":"SCALAR"},{"bufferView":13,"byteOffset":0,"componentType":5126,"count":2946,"max":[1,1.03415632247925,0.999999761581421],"min":[-0.99999988079071,-0.34057852625847,-1.00000023841858],"type":"VEC3"},{"bufferView":14,"byteOffset":0,"componentType":5126,"count":2946,"type":"VEC3"},{"bufferView":15,"byteOffset":0,"componentType":5126,"count":2946,"type":"VEC2"},{"bufferView":16,"byteOffset":0,"componentType":5123,"count":1032,"type":"SCALAR"},{"bufferView":17,"byteOffset":0,"componentType":5126,"count":642,"max":[0.00993195176124573,0.515643000602722,0.0364267230033875],"min":[-0.96484959125519,-0.55075359344482,-0.32341796159744],"type":"VEC3"},{"bufferView":18,"byteOffset":0,"componentType":5126,"count":642,"type":"VEC3"},{"bufferView":19,"byteOffset":0,"componentType":5126,"count":642,"type":"VEC2"},{"bufferView":20,"byteOffset":0,"componentType":5123,"count":1452,"type":"SCALAR"},{"bufferView":21,"byteOffset":0,"componentType":5126,"count":849,"max":[0,0.713062286376953,0.111791662871838],"min":[-1.17304015159607,-0.35333433747292,-0.35735636949539],"type":"VEC3"},{"bufferView":22,"byteOffset":0,"componentType":5126,"count":849,"type":"VEC3"},{"bufferView":23,"byteOffset":0,"componentType":5126,"count":849,"type":"VEC2"},{"bufferView":24,"byteOffset":0,"componentType":5123,"count":4524,"type":"SCALAR"},{"bufferView":25,"byteOffset":0,"componentType":5126,"count":2932,"max":[1.00000011920929,0.340576618909836,0.99999988079071],"min":[-1.00000011920929,-1.03415870666504,-1.00000035762787],"type":"VEC3"},{"bufferView":26,"byteOffset":0,"componentType":5126,"count":2932,"type":"VEC3"},{"bufferView":27,"byteOffset":0,"componentType":5126,"count":2932,"type":"VEC2"},{"bufferView":28,"byteOffset":0,"componentType":5123,"count":4524,"type":"SCALAR"},{"bufferView":29,"byteOffset":0,"componentType":5126,"count":2952,"max":[0.990512669086456,0.77857381105423,0.990512669086456],"min":[-0.99051266908646,-0.57970178127289,-0.99051266908646],"type":"VEC3"},{"bufferView":30,"byteOffset":0,"componentType":5126,"count":2952,"type":"VEC3"},{"bufferView":31,"byteOffset":0,"componentType":5126,"count":2952,"type":"VEC2"},{"bufferView":32,"byteOffset":0,"componentType":5123,"count":4524,"type":"SCALAR"},{"bufferView":33,"byteOffset":0,"componentType":5126,"count":2932,"max":[1.00000011920929,0.340576618909836,0.99999988079071],"min":[-1.00000011920929,-1.03415870666504,-1.00000035762787],"type":"VEC3"},{"bufferView":34,"byteOffset":0,"componentType":5126,"count":2932,"type":"VEC3"},{"bufferView":35,"byteOffset":0,"componentType":5126,"count":2932,"type":"VEC2"},{"bufferView":36,"byteOffset":0,"componentType":5123,"count":192,"type":"SCALAR"},{"bufferView":37,"byteOffset":0,"componentType":5126,"count":128,"max":[-0.08065097033978,1.3817617893219,0.896732151508331],"min":[-0.32801550626755,0.310819804668427,-0.89673215150833],"type":"VEC3"},{"bufferView":38,"byteOffset":0,"componentType":5126,"count":128,"type":"VEC3"},{"bufferView":39,"byteOffset":0,"componentType":5126,"count":128,"type":"VEC2"},{"bufferView":40,"byteOffset":0,"componentType":5123,"count":420,"type":"SCALAR"},{"bufferView":41,"byteOffset":0,"componentType":5126,"count":240,"max":[1.06259644031525,1.29763042926788,0.714079558849335],"min":[-1.53308665752411,0.924139857292175,-0.71407955884934],"type":"VEC3"},{"bufferView":42,"byteOffset":0,"componentType":5126,"count":240,"type":"VEC3"},{"bufferView":43,"byteOffset":0,"componentType":5126,"count":240,"type":"VEC2"},{"bufferView":44,"byteOffset":0,"componentType":5123,"count":108,"type":"SCALAR"},{"bufferView":45,"byteOffset":0,"componentType":5126,"count":60,"max":[-0.15914402902126,0.666924595832825,0.338571012020111],"min":[-1.09876477718353,0.27119106054306,0.106964401900768],"type":"VEC3"},{"bufferView":46,"byteOffset":0,"componentType":5126,"count":60,"type":"VEC3"},{"bufferView":47,"byteOffset":0,"componentType":5126,"count":60,"type":"VEC2"},{"bufferView":48,"byteOffset":0,"componentType":5123,"count":156,"type":"SCALAR"},{"bufferView":49,"byteOffset":0,"componentType":5126,"count":80,"max":[-0.1031974107027,0.478969216346741,0.309679687023163],"min":[-0.87736546993256,0.0911487936973572,0.0798088312149048],"type":"VEC3"},{"bufferView":50,"byteOffset":0,"componentType":5126,"count":80,"type":"VEC3"},{"bufferView":51,"byteOffset":0,"componentType":5126,"count":80,"type":"VEC2"},{"bufferView":52,"byteOffset":0,"componentType":5123,"count":156,"type":"SCALAR"},{"bufferView":53,"byteOffset":0,"componentType":5126,"count":80,"max":[-0.1031974107027,0.478969216346741,-0.0798088312149],"min":[-0.87736546993256,0.0911487936973572,-0.30967968702316],"type":"VEC3"},{"bufferView":54,"byteOffset":0,"componentType":5126,"count":80,"type":"VEC3"},{"bufferView":55,"byteOffset":0,"componentType":5126,"count":80,"type":"VEC2"},{"bufferView":56,"byteOffset":0,"componentType":5123,"count":108,"type":"SCALAR"},{"bufferView":57,"byteOffset":0,"componentType":5126,"count":60,"max":[-0.15914402902126,0.666924595832825,-0.10696440190077],"min":[-1.09876477718353,0.27119106054306,-0.33857101202011],"type":"VEC3"},{"bufferView":58,"byteOffset":0,"componentType":5126,"count":60,"type":"VEC3"},{"bufferView":59,"byteOffset":0,"componentType":5126,"count":60,"type":"VEC2"}],"asset":{"generator":"FBX2glTF v0.13.1","version":"2.0"},"bufferViews":[{"buffer":0,"byteLength":74508,"byteOffset":0,"target":34963},{"buffer":0,"byteLength":275148,"byteOffset":74508,"target":34962},{"buffer":0,"byteLength":275148,"byteOffset":349656,"target":34962},{"buffer":0,"byteLength":183432,"byteOffset":624804,"target":34962},{"buffer":0,"byteLength":2904,"byteOffset":808236,"target":34963},{"buffer":0,"byteLength":10332,"byteOffset":811140,"target":34962},{"buffer":0,"byteLength":10332,"byteOffset":821472,"target":34962},{"buffer":0,"byteLength":6888,"byteOffset":831804,"target":34962},{"buffer":0,"byteLength":2064,"byteOffset":838692,"target":34963},{"buffer":0,"byteLength":7596,"byteOffset":840756,"target":34962},{"buffer":0,"byteLength":7596,"byteOffset":848352,"target":34962},{"buffer":0,"byteLength":5064,"byteOffset":855948,"target":34962},{"buffer":0,"byteLength":9048,"byteOffset":861012,"target":34963},{"buffer":0,"byteLength":35352,"byteOffset":870060,"target":34962},{"buffer":0,"byteLength":35352,"byteOffset":905412,"target":34962},{"buffer":0,"byteLength":23568,"byteOffset":940764,"target":34962},{"buffer":0,"byteLength":2064,"byteOffset":964332,"target":34963},{"buffer":0,"byteLength":7704,"byteOffset":966396,"target":34962},{"buffer":0,"byteLength":7704,"byteOffset":974100,"target":34962},{"buffer":0,"byteLength":5136,"byteOffset":981804,"target":34962},{"buffer":0,"byteLength":2904,"byteOffset":986940,"target":34963},{"buffer":0,"byteLength":10188,"byteOffset":989844,"target":34962},{"buffer":0,"byteLength":10188,"byteOffset":1000032,"target":34962},{"buffer":0,"byteLength":6792,"byteOffset":1010220,"target":34962},{"buffer":0,"byteLength":9048,"byteOffset":1017012,"target":34963},{"buffer":0,"byteLength":35184,"byteOffset":1026060,"target":34962},{"buffer":0,"byteLength":35184,"byteOffset":1061244,"target":34962},{"buffer":0,"byteLength":23456,"byteOffset":1096428,"target":34962},{"buffer":0,"byteLength":9048,"byteOffset":1119884,"target":34963},{"buffer":0,"byteLength":35424,"byteOffset":1128932,"target":34962},{"buffer":0,"byteLength":35424,"byteOffset":1164356,"target":34962},{"buffer":0,"byteLength":23616,"byteOffset":1199780,"target":34962},{"buffer":0,"byteLength":9048,"byteOffset":1223396,"target":34963},{"buffer":0,"byteLength":35184,"byteOffset":1232444,"target":34962},{"buffer":0,"byteLength":35184,"byteOffset":1267628,"target":34962},{"buffer":0,"byteLength":23456,"byteOffset":1302812,"target":34962},{"buffer":0,"byteLength":384,"byteOffset":1326268,"target":34963},{"buffer":0,"byteLength":1536,"byteOffset":1326652,"target":34962},{"buffer":0,"byteLength":1536,"byteOffset":1328188,"target":34962},{"buffer":0,"byteLength":1024,"byteOffset":1329724,"target":34962},{"buffer":0,"byteLength":840,"byteOffset":1330748,"target":34963},{"buffer":0,"byteLength":2880,"byteOffset":1331588,"target":34962},{"buffer":0,"byteLength":2880,"byteOffset":1334468,"target":34962},{"buffer":0,"byteLength":1920,"byteOffset":1337348,"target":34962},{"buffer":0,"byteLength":216,"byteOffset":1339268,"target":34963},{"buffer":0,"byteLength":720,"byteOffset":1339484,"target":34962},{"buffer":0,"byteLength":720,"byteOffset":1340204,"target":34962},{"buffer":0,"byteLength":480,"byteOffset":1340924,"target":34962},{"buffer":0,"byteLength":312,"byteOffset":1341404,"target":34963},{"buffer":0,"byteLength":960,"byteOffset":1341716,"target":34962},{"buffer":0,"byteLength":960,"byteOffset":1342676,"target":34962},{"buffer":0,"byteLength":640,"byteOffset":1343636,"target":34962},{"buffer":0,"byteLength":312,"byteOffset":1344276,"target":34963},{"buffer":0,"byteLength":960,"byteOffset":1344588,"target":34962},{"buffer":0,"byteLength":960,"byteOffset":1345548,"target":34962},{"buffer":0,"byteLength":640,"byteOffset":1346508,"target":34962},{"buffer":0,"byteLength":216,"byteOffset":1347148,"target":34963},{"buffer":0,"byteLength":720,"byteOffset":1347364,"target":34962},{"buffer":0,"byteLength":720,"byteOffset":1348084,"target":34962},{"buffer":0,"byteLength":480,"byteOffset":1348804,"target":34962}],"buffers":[{"byteLength":1349284,"uri":"Vehicle_13_A.bin"}],"images":[{"name":"Polygon_Camping_Texture","uri":"Polygon_Camping_Texture.jpg"}],"materials":[{"alphaMode":"OPAQUE","doubleSided":false,"extras":{"fromFBX":{"isTruePBR":false,"shadingModel":"Phong"}},"name":"main","pbrMetallicRoughness":{"baseColorFactor":[1,1,1,1],"baseColorTexture":{"index":0,"texCoord":0},"metallicFactor":0.400000005960464,"roughnessFactor":0.272165536880493}},{"alphaMode":"OPAQUE","doubleSided":false,"extras":{"fromFBX":{"isTruePBR":false,"shadingModel":"Phong"}},"name":"Material","pbrMetallicRoughness":{"baseColorFactor":[0.800000071525574,0.241236045956612,0.00408722879365087,1],"metallicFactor":0.400000005960464,"roughnessFactor":0.229415729641914}},{"alphaMode":"OPAQUE","doubleSided":false,"extras":{"fromFBX":{"isTruePBR":false,"shadingModel":"Phong"}},"name":"glass","pbrMetallicRoughness":{"baseColorFactor":[0.800000011920929,0.800000011920929,0.800000011920929,1],"metallicFactor":0.400000005960464,"roughnessFactor":0.272165536880493}}],"meshes":[{"name":"Carcase","primitives":[{"attributes":{"NORMAL":2,"POSITION":1,"TEXCOORD_0":3},"indices":0,"material":0,"mode":4},{"attributes":{"NORMAL":38,"POSITION":37,"TEXCOORD_0":39},"indices":36,"material":1,"mode":4},{"attributes":{"NORMAL":42,"POSITION":41,"TEXCOORD_0":43},"indices":40,"material":2,"mode":4}]},{"name":"Front_Doors_01","primitives":[{"attributes":{"NORMAL":6,"POSITION":5,"TEXCOORD_0":7},"indices":4,"material":0,"mode":4},{"attributes":{"NORMAL":46,"POSITION":45,"TEXCOORD_0":47},"indices":44,"material":2,"mode":4}]},{"name":"Back_Doors_01","primitives":[{"attributes":{"NORMAL":10,"POSITION":9,"TEXCOORD_0":11},"indices":8,"material":0,"mode":4},{"attributes":{"NORMAL":50,"POSITION":49,"TEXCOORD_0":51},"indices":48,"material":2,"mode":4}]},{"name":"Wheels_01","primitives":[{"attributes":{"NORMAL":14,"POSITION":13,"TEXCOORD_0":15},"indices":12,"material":0,"mode":4}]},{"name":"Back_Doors_02","primitives":[{"attributes":{"NORMAL":18,"POSITION":17,"TEXCOORD_0":19},"indices":16,"material":0,"mode":4},{"attributes":{"NORMAL":54,"POSITION":53,"TEXCOORD_0":55},"indices":52,"material":2,"mode":4}]},{"name":"Front_Doors_02","primitives":[{"attributes":{"NORMAL":22,"POSITION":21,"TEXCOORD_0":23},"indices":20,"material":0,"mode":4},{"attributes":{"NORMAL":58,"POSITION":57,"TEXCOORD_0":59},"indices":56,"material":2,"mode":4}]},{"name":"whels_04","primitives":[{"attributes":{"NORMAL":26,"POSITION":25,"TEXCOORD_0":27},"indices":24,"material":0,"mode":4}]},{"name":"whels_03","primitives":[{"attributes":{"NORMAL":30,"POSITION":29,"TEXCOORD_0":31},"indices":28,"material":0,"mode":4}]},{"name":"Wheels_02","primitives":[{"attributes":{"NORMAL":34,"POSITION":33,"TEXCOORD_0":35},"indices":32,"material":0,"mode":4}]}],"nodes":[{"children":[1,2,3,4,5,6,7,8],"mesh":0,"name":"Carcase","rotation":[0,0,0,1],"scale":[1,1,1],"translation":[0,0,0]},{"mesh":1,"name":"Front_Doors_01","rotation":[0,0,0,1],"scale":[1,1,1],"translation":[0.922061204910278,0.64925342798233,-0.89958661794662]},{"mesh":2,"name":"Back_Doors_01","rotation":[0,0,0,1],"scale":[1,1,1],"translation":[-0.13573327660561,0.846672713756561,-0.86518186330795]},{"mesh":3,"name":"Wheels_01","rotation":[0.707106828689575,0,0,0.707106709480286],"scale":[0.334090650081635,0.334090650081635,0.334090650081635],"translation":[1.48098969459534,0.339257687330246,-0.77656400203705]},{"mesh":4,"name":"Back_Doors_02","rotation":[0,0,0,1],"scale":[1,1,1],"translation":[-0.13573327660561,0.846672713756561,0.865181863307953]},{"mesh":5,"name":"Front_Doors_02","rotation":[0,0,0,1],"scale":[1,1,1],"translation":[0.922061204910278,0.64925342798233,0.899586617946625]},{"mesh":6,"name":"whels_04","rotation":[0.707106828689575,0,0,0.707106709480286],"scale":[0.334090650081635,0.334090650081635,0.334090650081635],"translation":[-1.23718929290771,0.339257657527924,0.776564836502075]},{"mesh":7,"name":"whels_03","rotation":[0.707106828689575,0,0,0.707106709480286],"scale":[0.334090650081635,0.334090650081635,0.334090650081635],"translation":[-1.23718929290771,0.339257717132568,-0.69347476959229]},{"mesh":8,"name":"Wheels_02","rotation":[0.707106828689575,0,0,0.707106709480286],"scale":[0.334090650081635,0.334090650081635,0.334090650081635],"translation":[1.48098969459534,0.339257657527924,0.776564836502075]}],"samplers":[{}],"scene":0,"scenes":[{"name":"Root Scene","nodes":[0]}],"textures":[{"name":"base_color_texture","sampler":0,"source":0}]}