{"accessors":[{"bufferView":0,"byteOffset":0,"componentType":5123,"count":45024,"type":"SCALAR"},{"bufferView":1,"byteOffset":0,"componentType":5126,"count":27453,"max":[4.37420320510864,1.39393699169159,0.902252852916718],"min":[-4.3846435546875,0.275379568338394,-0.90225285291672],"type":"VEC3"},{"bufferView":2,"byteOffset":0,"componentType":5126,"count":27453,"type":"VEC3"},{"bufferView":3,"byteOffset":0,"componentType":5126,"count":27453,"type":"VEC2"},{"bufferView":4,"byteOffset":0,"componentType":5123,"count":972,"type":"SCALAR"},{"bufferView":5,"byteOffset":0,"componentType":5126,"count":614,"max":[0.00752899190410972,0.510048627853394,0.33266943693161],"min":[-0.96566182374954,-0.55634796619415,-0.02788493596017],"type":"VEC3"},{"bufferView":6,"byteOffset":0,"componentType":5126,"count":614,"type":"VEC3"},{"bufferView":7,"byteOffset":0,"componentType":5126,"count":614,"type":"VEC2"},{"bufferView":8,"byteOffset":0,"componentType":5123,"count":972,"type":"SCALAR"},{"bufferView":9,"byteOffset":0,"componentType":5126,"count":614,"max":[0.00752347940579057,0.510048627853394,0.0278868414461613],"min":[-0.96565282344818,-0.55634796619415,-0.33281052112579],"type":"VEC3"},{"bufferView":10,"byteOffset":0,"componentType":5126,"count":614,"type":"VEC3"},{"bufferView":11,"byteOffset":0,"componentType":5126,"count":614,"type":"VEC2"},{"bufferView":12,"byteOffset":0,"componentType":5123,"count":1872,"type":"SCALAR"},{"bufferView":13,"byteOffset":0,"componentType":5126,"count":1208,"max":[0,0.702790141105652,0.347761482000351],"min":[-1.17457485198975,-0.35335478186607,-0.11183746159077],"type":"VEC3"},{"bufferView":14,"byteOffset":0,"componentType":5126,"count":1208,"type":"VEC3"},{"bufferView":15,"byteOffset":0,"componentType":5126,"count":1208,"type":"VEC2"},{"bufferView":16,"byteOffset":0,"componentType":5123,"count":1872,"type":"SCALAR"},{"bufferView":17,"byteOffset":0,"componentType":5126,"count":1202,"max":[0,0.702790141105652,0.111861787736416],"min":[-1.17462384700775,-0.35335478186607,-0.34759643673897],"type":"VEC3"},{"bufferView":18,"byteOffset":0,"componentType":5126,"count":1202,"type":"VEC3"},{"bufferView":19,"byteOffset":0,"componentType":5126,"count":1202,"type":"VEC2"},{"bufferView":20,"byteOffset":0,"componentType":5123,"count":4524,"type":"SCALAR"},{"bufferView":21,"byteOffset":0,"componentType":5126,"count":2942,"max":[0.334090650081635,0.334090709686279,0.345501959323883],"min":[-0.33409062027931,-0.33409056067467,-0.11378411948681],"type":"VEC3"},{"bufferView":22,"byteOffset":0,"componentType":5126,"count":2942,"type":"VEC3"},{"bufferView":23,"byteOffset":0,"componentType":5126,"count":2942,"type":"VEC2"},{"bufferView":24,"byteOffset":0,"componentType":5123,"count":4524,"type":"SCALAR"},{"bufferView":25,"byteOffset":0,"componentType":5126,"count":2942,"max":[0.334090679883957,0.334090769290924,0.113783463835716],"min":[-0.33409067988396,-0.33409062027931,-0.34550276398659],"type":"VEC3"},{"bufferView":26,"byteOffset":0,"componentType":5126,"count":2942,"type":"VEC3"},{"bufferView":27,"byteOffset":0,"componentType":5126,"count":2942,"type":"VEC2"},{"bufferView":28,"byteOffset":0,"componentType":5123,"count":4524,"type":"SCALAR"},{"bufferView":29,"byteOffset":0,"componentType":5126,"count":2942,"max":[0.334090650081635,0.334090709686279,0.345501959323883],"min":[-0.33409062027931,-0.33409056067467,-0.11378411948681],"type":"VEC3"},{"bufferView":30,"byteOffset":0,"componentType":5126,"count":2942,"type":"VEC3"},{"bufferView":31,"byteOffset":0,"componentType":5126,"count":2942,"type":"VEC2"},{"bufferView":32,"byteOffset":0,"componentType":5123,"count":4524,"type":"SCALAR"},{"bufferView":33,"byteOffset":0,"componentType":5126,"count":2936,"max":[0.334090679883957,0.334090769290924,0.113783463835716],"min":[-0.33409067988396,-0.33409062027931,-0.34550276398659],"type":"VEC3"},{"bufferView":34,"byteOffset":0,"componentType":5126,"count":2936,"type":"VEC3"},{"bufferView":35,"byteOffset":0,"componentType":5126,"count":2936,"type":"VEC2"},{"bufferView":36,"byteOffset":0,"componentType":5123,"count":312,"type":"SCALAR"},{"bufferView":37,"byteOffset":0,"componentType":5126,"count":156,"max":[2.93530106544495,1.33909952640533,0.782836735248566],"min":[-3.42348408699036,0.919094383716583,-0.78283673524857],"type":"VEC3"},{"bufferView":38,"byteOffset":0,"componentType":5126,"count":156,"type":"VEC3"},{"bufferView":39,"byteOffset":0,"componentType":5126,"count":156,"type":"VEC2"},{"bufferView":40,"byteOffset":0,"componentType":5123,"count":216,"type":"SCALAR"},{"bufferView":41,"byteOffset":0,"componentType":5126,"count":120,"max":[-0.10399811714888,0.473374843597412,0.318931877613068],"min":[-0.87816596031189,0.0855544060468674,0.0890841260552406],"type":"VEC3"},{"bufferView":42,"byteOffset":0,"componentType":5126,"count":120,"type":"VEC3"},{"bufferView":43,"byteOffset":0,"componentType":5126,"count":120,"type":"VEC2"},{"bufferView":44,"byteOffset":0,"componentType":5123,"count":216,"type":"SCALAR"},{"bufferView":45,"byteOffset":0,"componentType":5126,"count":120,"max":[-0.10396371781826,0.473374843597412,-0.08922724425793],"min":[-0.87813156843185,0.0855544060468674,-0.31907510757446],"type":"VEC3"},{"bufferView":46,"byteOffset":0,"componentType":5126,"count":120,"type":"VEC3"},{"bufferView":47,"byteOffset":0,"componentType":5126,"count":120,"type":"VEC2"},{"bufferView":48,"byteOffset":0,"componentType":5123,"count":108,"type":"SCALAR"},{"bufferView":49,"byteOffset":0,"componentType":5126,"count":60,"max":[-0.1591752320528,0.667139708995819,0.338280022144318],"min":[-1.09885430335999,0.27119106054306,0.10674849152565],"type":"VEC3"},{"bufferView":50,"byteOffset":0,"componentType":5126,"count":60,"type":"VEC3"},{"bufferView":51,"byteOffset":0,"componentType":5126,"count":60,"type":"VEC2"},{"bufferView":52,"byteOffset":0,"componentType":5123,"count":108,"type":"SCALAR"},{"bufferView":53,"byteOffset":0,"componentType":5126,"count":60,"max":[-0.15919157862663,0.667139708995819,-0.10663464665413],"min":[-1.09890222549438,0.27119106054306,-0.33812552690506],"type":"VEC3"},{"bufferView":54,"byteOffset":0,"componentType":5126,"count":60,"type":"VEC3"},{"bufferView":55,"byteOffset":0,"componentType":5126,"count":60,"type":"VEC2"}],"asset":{"generator":"FBX2glTF v0.13.1","version":"2.0"},"bufferViews":[{"buffer":0,"byteLength":90048,"byteOffset":0,"target":34963},{"buffer":0,"byteLength":329436,"byteOffset":90048,"target":34962},{"buffer":0,"byteLength":329436,"byteOffset":419484,"target":34962},{"buffer":0,"byteLength":219624,"byteOffset":748920,"target":34962},{"buffer":0,"byteLength":1944,"byteOffset":968544,"target":34963},{"buffer":0,"byteLength":7368,"byteOffset":970488,"target":34962},{"buffer":0,"byteLength":7368,"byteOffset":977856,"target":34962},{"buffer":0,"byteLength":4912,"byteOffset":985224,"target":34962},{"buffer":0,"byteLength":1944,"byteOffset":990136,"target":34963},{"buffer":0,"byteLength":7368,"byteOffset":992080,"target":34962},{"buffer":0,"byteLength":7368,"byteOffset":999448,"target":34962},{"buffer":0,"byteLength":4912,"byteOffset":1006816,"target":34962},{"buffer":0,"byteLength":3744,"byteOffset":1011728,"target":34963},{"buffer":0,"byteLength":14496,"byteOffset":1015472,"target":34962},{"buffer":0,"byteLength":14496,"byteOffset":1029968,"target":34962},{"buffer":0,"byteLength":9664,"byteOffset":1044464,"target":34962},{"buffer":0,"byteLength":3744,"byteOffset":1054128,"target":34963},{"buffer":0,"byteLength":14424,"byteOffset":1057872,"target":34962},{"buffer":0,"byteLength":14424,"byteOffset":1072296,"target":34962},{"buffer":0,"byteLength":9616,"byteOffset":1086720,"target":34962},{"buffer":0,"byteLength":9048,"byteOffset":1096336,"target":34963},{"buffer":0,"byteLength":35304,"byteOffset":1105384,"target":34962},{"buffer":0,"byteLength":35304,"byteOffset":1140688,"target":34962},{"buffer":0,"byteLength":23536,"byteOffset":1175992,"target":34962},{"buffer":0,"byteLength":9048,"byteOffset":1199528,"target":34963},{"buffer":0,"byteLength":35304,"byteOffset":1208576,"target":34962},{"buffer":0,"byteLength":35304,"byteOffset":1243880,"target":34962},{"buffer":0,"byteLength":23536,"byteOffset":1279184,"target":34962},{"buffer":0,"byteLength":9048,"byteOffset":1302720,"target":34963},{"buffer":0,"byteLength":35304,"byteOffset":1311768,"target":34962},{"buffer":0,"byteLength":35304,"byteOffset":1347072,"target":34962},{"buffer":0,"byteLength":23536,"byteOffset":1382376,"target":34962},{"buffer":0,"byteLength":9048,"byteOffset":1405912,"target":34963},{"buffer":0,"byteLength":35232,"byteOffset":1414960,"target":34962},{"buffer":0,"byteLength":35232,"byteOffset":1450192,"target":34962},{"buffer":0,"byteLength":23488,"byteOffset":1485424,"target":34962},{"buffer":0,"byteLength":624,"byteOffset":1508912,"target":34963},{"buffer":0,"byteLength":1872,"byteOffset":1509536,"target":34962},{"buffer":0,"byteLength":1872,"byteOffset":1511408,"target":34962},{"buffer":0,"byteLength":1248,"byteOffset":1513280,"target":34962},{"buffer":0,"byteLength":432,"byteOffset":1514528,"target":34963},{"buffer":0,"byteLength":1440,"byteOffset":1514960,"target":34962},{"buffer":0,"byteLength":1440,"byteOffset":1516400,"target":34962},{"buffer":0,"byteLength":960,"byteOffset":1517840,"target":34962},{"buffer":0,"byteLength":432,"byteOffset":1518800,"target":34963},{"buffer":0,"byteLength":1440,"byteOffset":1519232,"target":34962},{"buffer":0,"byteLength":1440,"byteOffset":1520672,"target":34962},{"buffer":0,"byteLength":960,"byteOffset":1522112,"target":34962},{"buffer":0,"byteLength":216,"byteOffset":1523072,"target":34963},{"buffer":0,"byteLength":720,"byteOffset":1523288,"target":34962},{"buffer":0,"byteLength":720,"byteOffset":1524008,"target":34962},{"buffer":0,"byteLength":480,"byteOffset":1524728,"target":34962},{"buffer":0,"byteLength":216,"byteOffset":1525208,"target":34963},{"buffer":0,"byteLength":720,"byteOffset":1525424,"target":34962},{"buffer":0,"byteLength":720,"byteOffset":1526144,"target":34962},{"buffer":0,"byteLength":480,"byteOffset":1526864,"target":34962}],"buffers":[{"byteLength":1527344,"uri":"Vehicle_04_A.bin"}],"images":[{"name":"Polygon_Camping_Texture","uri":"Polygon_Camping_Texture.psd"}],"materials":[{"alphaMode":"OPAQUE","doubleSided":false,"extras":{"fromFBX":{"isTruePBR":false,"shadingModel":"Phong"}},"name":"main.001","pbrMetallicRoughness":{"baseColorFactor":[1,1,1,1],"baseColorTexture":{"index":0,"texCoord":0},"metallicFactor":0.400000005960464,"roughnessFactor":0.272165536880493}},{"alphaMode":"OPAQUE","doubleSided":false,"extras":{"fromFBX":{"isTruePBR":false,"shadingModel":"Phong"}},"name":"glass.001","pbrMetallicRoughness":{"baseColorFactor":[0.800000011920929,0.800000011920929,0.800000011920929,1],"metallicFactor":0.400000005960464,"roughnessFactor":0.272165536880493}}],"meshes":[{"name":"Vehicle_04_A.001","primitives":[{"attributes":{"NORMAL":2,"POSITION":1,"TEXCOORD_0":3},"indices":0,"material":0,"mode":4},{"attributes":{"NORMAL":38,"POSITION":37,"TEXCOORD_0":39},"indices":36,"material":1,"mode":4}]},{"name":"Back_Doors_01.001","primitives":[{"attributes":{"NORMAL":6,"POSITION":5,"TEXCOORD_0":7},"indices":4,"material":0,"mode":4},{"attributes":{"NORMAL":42,"POSITION":41,"TEXCOORD_0":43},"indices":40,"material":1,"mode":4}]},{"name":"Back_Doors_02.001","primitives":[{"attributes":{"NORMAL":10,"POSITION":9,"TEXCOORD_0":11},"indices":8,"material":0,"mode":4},{"attributes":{"NORMAL":46,"POSITION":45,"TEXCOORD_0":47},"indices":44,"material":1,"mode":4}]},{"name":"Front_Doors_01.001","primitives":[{"attributes":{"NORMAL":14,"POSITION":13,"TEXCOORD_0":15},"indices":12,"material":0,"mode":4},{"attributes":{"NORMAL":50,"POSITION":49,"TEXCOORD_0":51},"indices":48,"material":1,"mode":4}]},{"name":"Front_Doors_02.001","primitives":[{"attributes":{"NORMAL":18,"POSITION":17,"TEXCOORD_0":19},"indices":16,"material":0,"mode":4},{"attributes":{"NORMAL":54,"POSITION":53,"TEXCOORD_0":55},"indices":52,"material":1,"mode":4}]},{"name":"Wheels_01.001","primitives":[{"attributes":{"NORMAL":22,"POSITION":21,"TEXCOORD_0":23},"indices":20,"material":0,"mode":4}]},{"name":"Wheels_04.001","primitives":[{"attributes":{"NORMAL":26,"POSITION":25,"TEXCOORD_0":27},"indices":24,"material":0,"mode":4}]},{"name":"whels_02.001","primitives":[{"attributes":{"NORMAL":30,"POSITION":29,"TEXCOORD_0":31},"indices":28,"material":0,"mode":4}]},{"name":"whels_03.001","primitives":[{"attributes":{"NORMAL":34,"POSITION":33,"TEXCOORD_0":35},"indices":32,"material":0,"mode":4}]}],"nodes":[{"children":[1,2,3,4,5,6,7,8],"mesh":0,"name":"Vehicle_04_A.001","rotation":[0,0,0,1],"scale":[1,1,1],"translation":[-0.00000011920929,0.0000000298023223876953,0]},{"mesh":1,"name":"Back_Doors_01.001","rotation":[0,0,0,1],"scale":[1,1,1],"translation":[-2.02317976951599,0.847221612930298,-0.87436878681183]},{"mesh":2,"name":"Back_Doors_02.001","rotation":[0,0,0,1],"scale":[1,1,1],"translation":[-2.02317976951599,0.847221612930298,0.874368786811829]},{"mesh":3,"name":"Front_Doors_01.001","rotation":[0,0,0,1],"scale":[1,1,1],"translation":[2.79802703857422,0.644207894802094,-0.89958661794662]},{"mesh":4,"name":"Front_Doors_02.001","rotation":[0,0,0,1],"scale":[1,1,1],"translation":[2.79802703857422,0.644207894802094,0.899586617946625]},{"mesh":5,"name":"Wheels_01.001","rotation":[0,0,0,1],"scale":[1,1,1],"translation":[3.35695552825928,0.334212183952332,-0.77656400203705]},{"mesh":6,"name":"Wheels_04.001","rotation":[0,0,0,1],"scale":[1,1,1],"translation":[3.35695552825928,0.334212154150009,0.776564836502075]},{"mesh":7,"name":"whels_02.001","rotation":[0,0,0,1],"scale":[1,1,1],"translation":[-3.14184617996216,0.334212183952332,-0.77656400203705]},{"mesh":8,"name":"whels_03.001","rotation":[0,0,0,1],"scale":[1,1,1],"translation":[-3.14184665679932,0.334212154150009,0.776564836502075]}],"samplers":[{}],"scene":0,"scenes":[{"name":"Root Scene","nodes":[0]}],"textures":[{"name":"base_color_texture","sampler":0,"source":0}]}