{"accessors":[{"bufferView":0,"byteOffset":0,"componentType":5126,"count":2,"max":[0.0416666679084301],"min":[0],"type":"SCALAR"},{"bufferView":1,"byteOffset":0,"componentType":5126,"count":2,"max":[0.0416666679084301],"min":[0],"type":"SCALAR"},{"bufferView":2,"byteOffset":0,"componentType":5123,"count":26790,"type":"SCALAR"},{"bufferView":3,"byteOffset":0,"componentType":5126,"count":16609,"max":[2.51418018341064,2.31441354751587,0.964008212089539],"min":[-2.43813943862915,0.204764187335968,-0.96400821208954],"type":"VEC3"},{"bufferView":4,"byteOffset":0,"componentType":5126,"count":16609,"type":"VEC3"},{"bufferView":5,"byteOffset":0,"componentType":5126,"count":16609,"type":"VEC2"},{"bufferView":6,"byteOffset":0,"componentType":5123,"count":1848,"type":"SCALAR"},{"bufferView":7,"byteOffset":0,"componentType":5126,"count":1170,"max":[1.01968610286713,1.36618614196777,-0.56809115409851],"min":[-0.21405147016048,0.261083126068115,-1.00583219528198],"type":"VEC3"},{"bufferView":8,"byteOffset":0,"componentType":5126,"count":1170,"type":"VEC3"},{"bufferView":9,"byteOffset":0,"componentType":5126,"count":1170,"type":"VEC2"},{"bufferView":10,"byteOffset":0,"componentType":5123,"count":732,"type":"SCALAR"},{"bufferView":11,"byteOffset":0,"componentType":5126,"count":433,"max":[-0.0842388048768,1.36710202693939,-0.56800502538681],"min":[-1.14389109611511,0.261083126068115,-0.94400799274445],"type":"VEC3"},{"bufferView":12,"byteOffset":0,"componentType":5126,"count":433,"type":"VEC3"},{"bufferView":13,"byteOffset":0,"componentType":5126,"count":433,"type":"VEC2"},{"bufferView":14,"byteOffset":0,"componentType":5123,"count":1674,"type":"SCALAR"},{"bufferView":15,"byteOffset":0,"componentType":5126,"count":1100,"max":[2.23338603973389,-0.76981669664383,0.0000903308391571045],"min":[1.41338586807251,-1.07488000392914,-0.81990963220596],"type":"VEC3"},{"bufferView":16,"byteOffset":0,"componentType":5126,"count":1100,"type":"VEC3"},{"bufferView":17,"byteOffset":0,"componentType":5126,"count":1100,"type":"VEC2"},{"bufferView":18,"byteOffset":0,"componentType":5123,"count":1674,"type":"SCALAR"},{"bufferView":19,"byteOffset":0,"componentType":5126,"count":1100,"max":[-1.16905915737152,-0.7728716135025,0.0000903308391571045],"min":[-1.98905909061432,-1.07793486118317,-0.81990963220596],"type":"VEC3"},{"bufferView":20,"byteOffset":0,"componentType":5126,"count":1100,"type":"VEC3"},{"bufferView":21,"byteOffset":0,"componentType":5126,"count":1100,"type":"VEC2"},{"bufferView":22,"byteOffset":0,"componentType":5123,"count":660,"type":"SCALAR"},{"bufferView":23,"byteOffset":0,"componentType":5126,"count":426,"max":[-0.0842388048768,1.36710202693939,0.944007992744446],"min":[-1.14389109611511,0.261083126068115,0.56800502538681],"type":"VEC3"},{"bufferView":24,"byteOffset":0,"componentType":5126,"count":426,"type":"VEC3"},{"bufferView":25,"byteOffset":0,"componentType":5126,"count":426,"type":"VEC2"},{"bufferView":26,"byteOffset":0,"componentType":5123,"count":1848,"type":"SCALAR"},{"bufferView":27,"byteOffset":0,"componentType":5126,"count":1158,"max":[1.01968610286713,1.36618614196777,1.00583219528198],"min":[-0.21405147016048,0.261083126068115,0.568091154098511],"type":"VEC3"},{"bufferView":28,"byteOffset":0,"componentType":5126,"count":1158,"type":"VEC3"},{"bufferView":29,"byteOffset":0,"componentType":5126,"count":1158,"type":"VEC2"},{"bufferView":30,"byteOffset":0,"componentType":5123,"count":1674,"type":"SCALAR"},{"bufferView":31,"byteOffset":0,"componentType":5126,"count":1100,"max":[2.23338603973389,1.07488012313843,0.0000902414321899414],"min":[1.4133859872818,0.769816696643829,-0.81990963220596],"type":"VEC3"},{"bufferView":32,"byteOffset":0,"componentType":5126,"count":1100,"type":"VEC3"},{"bufferView":33,"byteOffset":0,"componentType":5126,"count":1100,"type":"VEC2"},{"bufferView":34,"byteOffset":0,"componentType":5123,"count":1674,"type":"SCALAR"},{"bufferView":35,"byteOffset":0,"componentType":5126,"count":1100,"max":[-1.16905915737152,1.07793498039246,0.0000902414321899414],"min":[-1.98905909061432,0.772871553897858,-0.81990963220596],"type":"VEC3"},{"bufferView":36,"byteOffset":0,"componentType":5126,"count":1100,"type":"VEC3"},{"bufferView":37,"byteOffset":0,"componentType":5126,"count":1100,"type":"VEC2"},{"bufferView":38,"byteOffset":0,"componentType":5123,"count":816,"type":"SCALAR"},{"bufferView":39,"byteOffset":0,"componentType":5126,"count":544,"max":[1.09673392772675,2.03215384483337,0.810711443424225],"min":[-1.74658453464508,1.40581583976746,-0.80616122484207],"type":"VEC3"},{"bufferView":40,"byteOffset":0,"componentType":5126,"count":544,"type":"VEC3"},{"bufferView":41,"byteOffset":0,"componentType":5126,"count":544,"type":"VEC2"},{"bufferView":42,"byteOffset":0,"componentType":5123,"count":132,"type":"SCALAR"},{"bufferView":43,"byteOffset":0,"componentType":5126,"count":88,"max":[0.8276526927948,1.34035408496857,-0.5692298412323],"min":[-0.1535234451294,0.920010149478912,-0.81773054599762],"type":"VEC3"},{"bufferView":44,"byteOffset":0,"componentType":5126,"count":88,"type":"VEC3"},{"bufferView":45,"byteOffset":0,"componentType":5126,"count":88,"type":"VEC2"},{"bufferView":46,"byteOffset":0,"componentType":5123,"count":108,"type":"SCALAR"},{"bufferView":47,"byteOffset":0,"componentType":5126,"count":72,"max":[-0.22629825770855,1.32813858985901,-0.57725882530212],"min":[-1.08693861961365,0.940827667713165,-0.81364643573761],"type":"VEC3"},{"bufferView":48,"byteOffset":0,"componentType":5126,"count":72,"type":"VEC3"},{"bufferView":49,"byteOffset":0,"componentType":5126,"count":72,"type":"VEC2"},{"bufferView":50,"byteOffset":0,"componentType":5123,"count":108,"type":"SCALAR"},{"bufferView":51,"byteOffset":0,"componentType":5126,"count":72,"max":[-0.22629825770855,1.32813858985901,0.81364643573761],"min":[-1.08693861961365,0.940827667713165,0.577258825302124],"type":"VEC3"},{"bufferView":52,"byteOffset":0,"componentType":5126,"count":72,"type":"VEC3"},{"bufferView":53,"byteOffset":0,"componentType":5126,"count":72,"type":"VEC2"},{"bufferView":54,"byteOffset":0,"componentType":5123,"count":132,"type":"SCALAR"},{"bufferView":55,"byteOffset":0,"componentType":5126,"count":88,"max":[0.8276526927948,1.34035408496857,0.81773054599762],"min":[-0.1535234451294,0.920010149478912,0.5692298412323],"type":"VEC3"},{"bufferView":56,"byteOffset":0,"componentType":5126,"count":88,"type":"VEC3"},{"bufferView":57,"byteOffset":0,"componentType":5126,"count":88,"type":"VEC2"}],"animations":[{"channels":[],"name":"Rear_doors_01|Rear_doorsAction","samplers":[]},{"channels":[],"name":"Rear_doors_02|Rear_doorsAction.001","samplers":[]}],"asset":{"generator":"FBX2glTF v0.13.1","version":"2.0"},"bufferViews":[{"buffer":0,"byteLength":8,"byteOffset":0},{"buffer":0,"byteLength":8,"byteOffset":8},{"buffer":0,"byteLength":53580,"byteOffset":16,"target":34963},{"buffer":0,"byteLength":199308,"byteOffset":53596,"target":34962},{"buffer":0,"byteLength":199308,"byteOffset":252904,"target":34962},{"buffer":0,"byteLength":132872,"byteOffset":452212,"target":34962},{"buffer":0,"byteLength":3696,"byteOffset":585084,"target":34963},{"buffer":0,"byteLength":14040,"byteOffset":588780,"target":34962},{"buffer":0,"byteLength":14040,"byteOffset":602820,"target":34962},{"buffer":0,"byteLength":9360,"byteOffset":616860,"target":34962},{"buffer":0,"byteLength":1464,"byteOffset":626220,"target":34963},{"buffer":0,"byteLength":5196,"byteOffset":627684,"target":34962},{"buffer":0,"byteLength":5196,"byteOffset":632880,"target":34962},{"buffer":0,"byteLength":3464,"byteOffset":638076,"target":34962},{"buffer":0,"byteLength":3348,"byteOffset":641540,"target":34963},{"buffer":0,"byteLength":13200,"byteOffset":644888,"target":34962},{"buffer":0,"byteLength":13200,"byteOffset":658088,"target":34962},{"buffer":0,"byteLength":8800,"byteOffset":671288,"target":34962},{"buffer":0,"byteLength":3348,"byteOffset":680088,"target":34963},{"buffer":0,"byteLength":13200,"byteOffset":683436,"target":34962},{"buffer":0,"byteLength":13200,"byteOffset":696636,"target":34962},{"buffer":0,"byteLength":8800,"byteOffset":709836,"target":34962},{"buffer":0,"byteLength":1320,"byteOffset":718636,"target":34963},{"buffer":0,"byteLength":5112,"byteOffset":719956,"target":34962},{"buffer":0,"byteLength":5112,"byteOffset":725068,"target":34962},{"buffer":0,"byteLength":3408,"byteOffset":730180,"target":34962},{"buffer":0,"byteLength":3696,"byteOffset":733588,"target":34963},{"buffer":0,"byteLength":13896,"byteOffset":737284,"target":34962},{"buffer":0,"byteLength":13896,"byteOffset":751180,"target":34962},{"buffer":0,"byteLength":9264,"byteOffset":765076,"target":34962},{"buffer":0,"byteLength":3348,"byteOffset":774340,"target":34963},{"buffer":0,"byteLength":13200,"byteOffset":777688,"target":34962},{"buffer":0,"byteLength":13200,"byteOffset":790888,"target":34962},{"buffer":0,"byteLength":8800,"byteOffset":804088,"target":34962},{"buffer":0,"byteLength":3348,"byteOffset":812888,"target":34963},{"buffer":0,"byteLength":13200,"byteOffset":816236,"target":34962},{"buffer":0,"byteLength":13200,"byteOffset":829436,"target":34962},{"buffer":0,"byteLength":8800,"byteOffset":842636,"target":34962},{"buffer":0,"byteLength":1632,"byteOffset":851436,"target":34963},{"buffer":0,"byteLength":6528,"byteOffset":853068,"target":34962},{"buffer":0,"byteLength":6528,"byteOffset":859596,"target":34962},{"buffer":0,"byteLength":4352,"byteOffset":866124,"target":34962},{"buffer":0,"byteLength":264,"byteOffset":870476,"target":34963},{"buffer":0,"byteLength":1056,"byteOffset":870740,"target":34962},{"buffer":0,"byteLength":1056,"byteOffset":871796,"target":34962},{"buffer":0,"byteLength":704,"byteOffset":872852,"target":34962},{"buffer":0,"byteLength":216,"byteOffset":873556,"target":34963},{"buffer":0,"byteLength":864,"byteOffset":873772,"target":34962},{"buffer":0,"byteLength":864,"byteOffset":874636,"target":34962},{"buffer":0,"byteLength":576,"byteOffset":875500,"target":34962},{"buffer":0,"byteLength":216,"byteOffset":876076,"target":34963},{"buffer":0,"byteLength":864,"byteOffset":876292,"target":34962},{"buffer":0,"byteLength":864,"byteOffset":877156,"target":34962},{"buffer":0,"byteLength":576,"byteOffset":878020,"target":34962},{"buffer":0,"byteLength":264,"byteOffset":878596,"target":34963},{"buffer":0,"byteLength":1056,"byteOffset":878860,"target":34962},{"buffer":0,"byteLength":1056,"byteOffset":879916,"target":34962},{"buffer":0,"byteLength":704,"byteOffset":880972,"target":34962}],"buffers":[{"byteLength":881676,"uri":"Vehicle_08_A.bin"}],"images":[{"name":"Polygon_Camping_Texture","uri":"Polygon_Camping_Texture.psd"}],"materials":[{"alphaMode":"OPAQUE","doubleSided":false,"extras":{"fromFBX":{"isTruePBR":false,"shadingModel":"Phong"}},"name":"main","pbrMetallicRoughness":{"baseColorFactor":[1,1,1,1],"baseColorTexture":{"index":0,"texCoord":0},"metallicFactor":0.400000005960464,"roughnessFactor":0.272165536880493}},{"alphaMode":"OPAQUE","doubleSided":false,"extras":{"fromFBX":{"isTruePBR":false,"shadingModel":"Phong"}},"name":"glass","pbrMetallicRoughness":{"baseColorFactor":[0.800000011920929,0.800000011920929,0.800000011920929,1],"metallicFactor":0.400000005960464,"roughnessFactor":0.272165536880493}}],"meshes":[{"name":"car","primitives":[{"attributes":{"NORMAL":4,"POSITION":3,"TEXCOORD_0":5},"indices":2,"material":0,"mode":4},{"attributes":{"NORMAL":40,"POSITION":39,"TEXCOORD_0":41},"indices":38,"material":1,"mode":4}]},{"name":"Front_doors_01","primitives":[{"attributes":{"NORMAL":8,"POSITION":7,"TEXCOORD_0":9},"indices":6,"material":0,"mode":4},{"attributes":{"NORMAL":44,"POSITION":43,"TEXCOORD_0":45},"indices":42,"material":1,"mode":4}]},{"name":"Rear_doors_01","primitives":[{"attributes":{"NORMAL":12,"POSITION":11,"TEXCOORD_0":13},"indices":10,"material":0,"mode":4},{"attributes":{"NORMAL":48,"POSITION":47,"TEXCOORD_0":49},"indices":46,"material":1,"mode":4}]},{"name":"Whell_01","primitives":[{"attributes":{"NORMAL":16,"POSITION":15,"TEXCOORD_0":17},"indices":14,"material":0,"mode":4}]},{"name":"Whell_04","primitives":[{"attributes":{"NORMAL":20,"POSITION":19,"TEXCOORD_0":21},"indices":18,"material":0,"mode":4}]},{"name":"Rear_doors_02","primitives":[{"attributes":{"NORMAL":24,"POSITION":23,"TEXCOORD_0":25},"indices":22,"material":0,"mode":4},{"attributes":{"NORMAL":52,"POSITION":51,"TEXCOORD_0":53},"indices":50,"material":1,"mode":4}]},{"name":"Front_doors_02","primitives":[{"attributes":{"NORMAL":28,"POSITION":27,"TEXCOORD_0":29},"indices":26,"material":0,"mode":4},{"attributes":{"NORMAL":56,"POSITION":55,"TEXCOORD_0":57},"indices":54,"material":1,"mode":4}]},{"name":"Whell_02","primitives":[{"attributes":{"NORMAL":32,"POSITION":31,"TEXCOORD_0":33},"indices":30,"material":0,"mode":4}]},{"name":"Whell_03","primitives":[{"attributes":{"NORMAL":36,"POSITION":35,"TEXCOORD_0":37},"indices":34,"material":0,"mode":4}]}],"nodes":[{"children":[1,2,3,4,5,6,7,8],"mesh":0,"name":"car","rotation":[0,0,0,1],"scale":[1,0.65654194355011,1],"translation":[0,0,0]},{"mesh":1,"name":"Front_doors_01","rotation":[0,0,0,1],"scale":[1,1.52313184738159,1],"translation":[0,0,0]},{"mesh":2,"name":"Rear_doors_01","rotation":[0,0,0,1],"scale":[1,1.52313184738159,1],"translation":[0,0,0]},{"mesh":3,"name":"Whell_01","rotation":[0.707106828689575,0,0,0.707106709480286],"scale":[0.86338347196579,0.86338347196579,1.31504678726196],"translation":[0,-0.00000022696433,0]},{"mesh":4,"name":"Whell_04","rotation":[0.707106828689575,0,0,0.707106709480286],"scale":[0.86338347196579,0.86338347196579,1.31504678726196],"translation":[0,-0.00000022696433,-0.00000005960464]},{"mesh":5,"name":"Rear_doors_02","rotation":[0,0,0,1],"scale":[1,1.52313184738159,1],"translation":[0,0,0]},{"mesh":6,"name":"Front_doors_02","rotation":[0,0,0,1],"scale":[1,1.52313184738159,1],"translation":[0,0,0]},{"mesh":7,"name":"Whell_02","rotation":[0.707106828689575,0,0,0.707106709480286],"scale":[0.86338347196579,0.86338347196579,1.31504678726196],"translation":[0,0.000000136178613274751,-0.00000005960464]},{"mesh":8,"name":"Whell_03","rotation":[0.707106828689575,0,0,0.707106709480286],"scale":[0.86338347196579,0.86338347196579,1.31504678726196],"translation":[0,0.000000136178613274751,-0.00000005960464]}],"samplers":[{}],"scene":0,"scenes":[{"name":"Root Scene","nodes":[0]}],"textures":[{"name":"base_color_texture","sampler":0,"source":0}]}