{"accessors":[{"bufferView":0,"byteOffset":0,"componentType":5123,"count":61158,"type":"SCALAR"},{"bufferView":1,"byteOffset":0,"componentType":5126,"count":36509,"max":[2.55671000480652,1.66629219055176,1.96056437492371],"min":[-7.39765405654907,-1.00261569023132,-1.96056437492371],"type":"VEC3"},{"bufferView":2,"byteOffset":0,"componentType":5126,"count":36509,"type":"VEC3"},{"bufferView":3,"byteOffset":0,"componentType":5126,"count":36509,"type":"VEC2"},{"bufferView":4,"byteOffset":0,"componentType":5123,"count":10548,"type":"SCALAR"},{"bufferView":5,"byteOffset":0,"componentType":5126,"count":6704,"max":[0.0403484702110291,1.22001624107361,1.51045668125153],"min":[-7.18017864227295,-1.29567468166351,-1.38160049915314],"type":"VEC3"},{"bufferView":6,"byteOffset":0,"componentType":5126,"count":6704,"type":"VEC3"},{"bufferView":7,"byteOffset":0,"componentType":5126,"count":6704,"type":"VEC2"},{"bufferView":8,"byteOffset":0,"componentType":5123,"count":804,"type":"SCALAR"},{"bufferView":9,"byteOffset":0,"componentType":5126,"count":528,"max":[0.0222280025482178,0.828313410282135,0.205211743712425],"min":[-1.08848738670349,-0.87626332044601,-0.05369305610657],"type":"VEC3"},{"bufferView":10,"byteOffset":0,"componentType":5126,"count":528,"type":"VEC3"},{"bufferView":11,"byteOffset":0,"componentType":5126,"count":528,"type":"VEC2"},{"bufferView":12,"byteOffset":0,"componentType":5123,"count":810,"type":"SCALAR"},{"bufferView":13,"byteOffset":0,"componentType":5126,"count":532,"max":[0.0222280025482178,0.828313410282135,0.0536930561065674],"min":[-1.08848738670349,-0.87626332044601,-0.20521174371243],"type":"VEC3"},{"bufferView":14,"byteOffset":0,"componentType":5126,"count":532,"type":"VEC3"},{"bufferView":15,"byteOffset":0,"componentType":5126,"count":532,"type":"VEC2"},{"bufferView":16,"byteOffset":0,"componentType":5123,"count":936,"type":"SCALAR"},{"bufferView":17,"byteOffset":0,"componentType":5126,"count":618,"max":[0.0000784397125244141,1.12583827972412,0.0841526985168457],"min":[-1.05835700035095,-0.87563276290894,-0.0670325756073],"type":"VEC3"},{"bufferView":18,"byteOffset":0,"componentType":5126,"count":618,"type":"VEC3"},{"bufferView":19,"byteOffset":0,"componentType":5126,"count":618,"type":"VEC2"},{"bufferView":20,"byteOffset":0,"componentType":5123,"count":936,"type":"SCALAR"},{"bufferView":21,"byteOffset":0,"componentType":5126,"count":620,"max":[0.0000784397125244141,1.12583827972412,0.0670325756072998],"min":[-1.05835700035095,-0.87563276290894,-0.08415269851685],"type":"VEC3"},{"bufferView":22,"byteOffset":0,"componentType":5126,"count":620,"type":"VEC3"},{"bufferView":23,"byteOffset":0,"componentType":5126,"count":620,"type":"VEC2"},{"bufferView":24,"byteOffset":0,"componentType":5123,"count":3060,"type":"SCALAR"},{"bufferView":25,"byteOffset":0,"componentType":5126,"count":1984,"max":[0.31491693854332,0.314916431903839,0.104157328605652],"min":[-0.31491675972938,-0.31491726636887,-0.13846582174301],"type":"VEC3"},{"bufferView":26,"byteOffset":0,"componentType":5126,"count":1984,"type":"VEC3"},{"bufferView":27,"byteOffset":0,"componentType":5126,"count":1984,"type":"VEC2"},{"bufferView":28,"byteOffset":0,"componentType":5123,"count":3060,"type":"SCALAR"},{"bufferView":29,"byteOffset":0,"componentType":5126,"count":1984,"max":[0.314916759729385,0.314916491508484,0.149535208940506],"min":[-0.31491693854332,-0.31491720676422,-0.09308791160584],"type":"VEC3"},{"bufferView":30,"byteOffset":0,"componentType":5126,"count":1984,"type":"VEC3"},{"bufferView":31,"byteOffset":0,"componentType":5126,"count":1984,"type":"VEC2"},{"bufferView":32,"byteOffset":0,"componentType":5123,"count":3060,"type":"SCALAR"},{"bufferView":33,"byteOffset":0,"componentType":5126,"count":1984,"max":[0.314916759729385,0.31491681933403,0.0930887386202812],"min":[-0.31491693854332,-0.31491681933403,-0.14953437447548],"type":"VEC3"},{"bufferView":34,"byteOffset":0,"componentType":5126,"count":1984,"type":"VEC3"},{"bufferView":35,"byteOffset":0,"componentType":5126,"count":1984,"type":"VEC2"},{"bufferView":36,"byteOffset":0,"componentType":5123,"count":3060,"type":"SCALAR"},{"bufferView":37,"byteOffset":0,"componentType":5126,"count":1984,"max":[0.31491693854332,0.314916431903839,0.138465821743011],"min":[-0.31491675972938,-0.31491726636887,-0.10415732860565],"type":"VEC3"},{"bufferView":38,"byteOffset":0,"componentType":5126,"count":1984,"type":"VEC3"},{"bufferView":39,"byteOffset":0,"componentType":5126,"count":1984,"type":"VEC2"},{"bufferView":40,"byteOffset":0,"componentType":5123,"count":3738,"type":"SCALAR"},{"bufferView":41,"byteOffset":0,"componentType":5126,"count":2368,"max":[0.619669795036316,0.61998450756073,0.354713201522827],"min":[-0.62033015489578,-0.62001550197601,-0.18951296806335],"type":"VEC3"},{"bufferView":42,"byteOffset":0,"componentType":5126,"count":2368,"type":"VEC3"},{"bufferView":43,"byteOffset":0,"componentType":5126,"count":2368,"type":"VEC2"},{"bufferView":44,"byteOffset":0,"componentType":5123,"count":3738,"type":"SCALAR"},{"bufferView":45,"byteOffset":0,"componentType":5126,"count":2368,"max":[0.619669795036316,0.619982838630676,0.189518451690674],"min":[-0.62033015489578,-0.62001717090607,-0.35470771789551],"type":"VEC3"},{"bufferView":46,"byteOffset":0,"componentType":5126,"count":2368,"type":"VEC3"},{"bufferView":47,"byteOffset":0,"componentType":5126,"count":2368,"type":"VEC2"},{"bufferView":48,"byteOffset":0,"componentType":5123,"count":456,"type":"SCALAR"},{"bufferView":49,"byteOffset":0,"componentType":5126,"count":304,"max":[2.01654362678528,1.12374806404114,1.6320241689682],"min":[1.46531701087952,0.330289721488953,-1.6320241689682],"type":"VEC3"},{"bufferView":50,"byteOffset":0,"componentType":5126,"count":304,"type":"VEC3"},{"bufferView":51,"byteOffset":0,"componentType":5126,"count":304,"type":"VEC2"},{"bufferView":52,"byteOffset":0,"componentType":5123,"count":84,"type":"SCALAR"},{"bufferView":53,"byteOffset":0,"componentType":5126,"count":56,"max":[-0.08905398845673,0.779035687446594,0.0894243717193604],"min":[-0.97678458690643,0.0693548917770386,0.00321531295776367],"type":"VEC3"},{"bufferView":54,"byteOffset":0,"componentType":5126,"count":56,"type":"VEC3"},{"bufferView":55,"byteOffset":0,"componentType":5126,"count":56,"type":"VEC2"},{"bufferView":56,"byteOffset":0,"componentType":5123,"count":78,"type":"SCALAR"},{"bufferView":57,"byteOffset":0,"componentType":5126,"count":52,"max":[-0.0890539214015,0.779035687446594,-0.00321555137634],"min":[-0.97678464651108,0.0693548917770386,-0.08942461013794],"type":"VEC3"},{"bufferView":58,"byteOffset":0,"componentType":5126,"count":52,"type":"VEC3"},{"bufferView":59,"byteOffset":0,"componentType":5126,"count":52,"type":"VEC2"},{"bufferView":60,"byteOffset":0,"componentType":5123,"count":18,"type":"SCALAR"},{"bufferView":61,"byteOffset":0,"componentType":5126,"count":12,"max":[-0.15861248970032,0.894861817359924,0.0622178316116333],"min":[-0.91855579614639,0.100186049938202,0.0119087100028992],"type":"VEC3"},{"bufferView":62,"byteOffset":0,"componentType":5126,"count":12,"type":"VEC3"},{"bufferView":63,"byteOffset":0,"componentType":5126,"count":12,"type":"VEC2"},{"bufferView":64,"byteOffset":0,"componentType":5123,"count":18,"type":"SCALAR"},{"bufferView":65,"byteOffset":0,"componentType":5126,"count":12,"max":[-0.15861248970032,0.89486163854599,-0.01190859079361],"min":[-0.91855579614639,0.100185923278332,-0.06221771240234],"type":"VEC3"},{"bufferView":66,"byteOffset":0,"componentType":5126,"count":12,"type":"VEC3"},{"bufferView":67,"byteOffset":0,"componentType":5126,"count":12,"type":"VEC2"}],"asset":{"generator":"FBX2glTF v0.13.1","version":"2.0"},"bufferViews":[{"buffer":0,"byteLength":122316,"byteOffset":0,"target":34963},{"buffer":0,"byteLength":438108,"byteOffset":122316,"target":34962},{"buffer":0,"byteLength":438108,"byteOffset":560424,"target":34962},{"buffer":0,"byteLength":292072,"byteOffset":998532,"target":34962},{"buffer":0,"byteLength":21096,"byteOffset":1290604,"target":34963},{"buffer":0,"byteLength":80448,"byteOffset":1311700,"target":34962},{"buffer":0,"byteLength":80448,"byteOffset":1392148,"target":34962},{"buffer":0,"byteLength":53632,"byteOffset":1472596,"target":34962},{"buffer":0,"byteLength":1608,"byteOffset":1526228,"target":34963},{"buffer":0,"byteLength":6336,"byteOffset":1527836,"target":34962},{"buffer":0,"byteLength":6336,"byteOffset":1534172,"target":34962},{"buffer":0,"byteLength":4224,"byteOffset":1540508,"target":34962},{"buffer":0,"byteLength":1620,"byteOffset":1544732,"target":34963},{"buffer":0,"byteLength":6384,"byteOffset":1546352,"target":34962},{"buffer":0,"byteLength":6384,"byteOffset":1552736,"target":34962},{"buffer":0,"byteLength":4256,"byteOffset":1559120,"target":34962},{"buffer":0,"byteLength":1872,"byteOffset":1563376,"target":34963},{"buffer":0,"byteLength":7416,"byteOffset":1565248,"target":34962},{"buffer":0,"byteLength":7416,"byteOffset":1572664,"target":34962},{"buffer":0,"byteLength":4944,"byteOffset":1580080,"target":34962},{"buffer":0,"byteLength":1872,"byteOffset":1585024,"target":34963},{"buffer":0,"byteLength":7440,"byteOffset":1586896,"target":34962},{"buffer":0,"byteLength":7440,"byteOffset":1594336,"target":34962},{"buffer":0,"byteLength":4960,"byteOffset":1601776,"target":34962},{"buffer":0,"byteLength":6120,"byteOffset":1606736,"target":34963},{"buffer":0,"byteLength":23808,"byteOffset":1612856,"target":34962},{"buffer":0,"byteLength":23808,"byteOffset":1636664,"target":34962},{"buffer":0,"byteLength":15872,"byteOffset":1660472,"target":34962},{"buffer":0,"byteLength":6120,"byteOffset":1676344,"target":34963},{"buffer":0,"byteLength":23808,"byteOffset":1682464,"target":34962},{"buffer":0,"byteLength":23808,"byteOffset":1706272,"target":34962},{"buffer":0,"byteLength":15872,"byteOffset":1730080,"target":34962},{"buffer":0,"byteLength":6120,"byteOffset":1745952,"target":34963},{"buffer":0,"byteLength":23808,"byteOffset":1752072,"target":34962},{"buffer":0,"byteLength":23808,"byteOffset":1775880,"target":34962},{"buffer":0,"byteLength":15872,"byteOffset":1799688,"target":34962},{"buffer":0,"byteLength":6120,"byteOffset":1815560,"target":34963},{"buffer":0,"byteLength":23808,"byteOffset":1821680,"target":34962},{"buffer":0,"byteLength":23808,"byteOffset":1845488,"target":34962},{"buffer":0,"byteLength":15872,"byteOffset":1869296,"target":34962},{"buffer":0,"byteLength":7476,"byteOffset":1885168,"target":34963},{"buffer":0,"byteLength":28416,"byteOffset":1892644,"target":34962},{"buffer":0,"byteLength":28416,"byteOffset":1921060,"target":34962},{"buffer":0,"byteLength":18944,"byteOffset":1949476,"target":34962},{"buffer":0,"byteLength":7476,"byteOffset":1968420,"target":34963},{"buffer":0,"byteLength":28416,"byteOffset":1975896,"target":34962},{"buffer":0,"byteLength":28416,"byteOffset":2004312,"target":34962},{"buffer":0,"byteLength":18944,"byteOffset":2032728,"target":34962},{"buffer":0,"byteLength":912,"byteOffset":2051672,"target":34963},{"buffer":0,"byteLength":3648,"byteOffset":2052584,"target":34962},{"buffer":0,"byteLength":3648,"byteOffset":2056232,"target":34962},{"buffer":0,"byteLength":2432,"byteOffset":2059880,"target":34962},{"buffer":0,"byteLength":168,"byteOffset":2062312,"target":34963},{"buffer":0,"byteLength":672,"byteOffset":2062480,"target":34962},{"buffer":0,"byteLength":672,"byteOffset":2063152,"target":34962},{"buffer":0,"byteLength":448,"byteOffset":2063824,"target":34962},{"buffer":0,"byteLength":156,"byteOffset":2064272,"target":34963},{"buffer":0,"byteLength":624,"byteOffset":2064428,"target":34962},{"buffer":0,"byteLength":624,"byteOffset":2065052,"target":34962},{"buffer":0,"byteLength":416,"byteOffset":2065676,"target":34962},{"buffer":0,"byteLength":36,"byteOffset":2066092,"target":34963},{"buffer":0,"byteLength":144,"byteOffset":2066128,"target":34962},{"buffer":0,"byteLength":144,"byteOffset":2066272,"target":34962},{"buffer":0,"byteLength":96,"byteOffset":2066416,"target":34962},{"buffer":0,"byteLength":36,"byteOffset":2066512,"target":34963},{"buffer":0,"byteLength":144,"byteOffset":2066548,"target":34962},{"buffer":0,"byteLength":144,"byteOffset":2066692,"target":34962},{"buffer":0,"byteLength":96,"byteOffset":2066836,"target":34962}],"buffers":[{"byteLength":2066932,"uri":"Vehicle_02_A.bin"}],"images":[{"name":"Polygon_Camping_Texture","uri":"Polygon_Camping_Texture.jpg"}],"materials":[{"alphaMode":"OPAQUE","doubleSided":false,"extras":{"fromFBX":{"isTruePBR":false,"shadingModel":"Phong"}},"name":"main","pbrMetallicRoughness":{"baseColorFactor":[1,1,1,1],"baseColorTexture":{"index":0,"texCoord":0},"metallicFactor":0.400000005960464,"roughnessFactor":0.272165536880493}},{"alphaMode":"OPAQUE","doubleSided":false,"extras":{"fromFBX":{"isTruePBR":false,"shadingModel":"Phong"}},"name":"glass","pbrMetallicRoughness":{"baseColorFactor":[0.800000011920929,0.800000011920929,0.800000011920929,1],"metallicFactor":0.400000005960464,"roughnessFactor":0.272165536880493}},{"alphaMode":"OPAQUE","doubleSided":false,"extras":{"fromFBX":{"isTruePBR":false,"shadingModel":"Phong"}},"name":"main.001","pbrMetallicRoughness":{"baseColorFactor":[1,1,1,1],"baseColorTexture":{"index":0,"texCoord":0},"metallicFactor":0.400000005960464,"roughnessFactor":0.272165536880493}}],"meshes":[{"name":"Vehicle_02_A","primitives":[{"attributes":{"NORMAL":2,"POSITION":1,"TEXCOORD_0":3},"indices":0,"material":0,"mode":4},{"attributes":{"NORMAL":6,"POSITION":5,"TEXCOORD_0":7},"indices":4,"material":2,"mode":4},{"attributes":{"NORMAL":50,"POSITION":49,"TEXCOORD_0":51},"indices":48,"material":1,"mode":4}]},{"name":"Front_doors_01","primitives":[{"attributes":{"NORMAL":10,"POSITION":9,"TEXCOORD_0":11},"indices":8,"material":2,"mode":4},{"attributes":{"NORMAL":54,"POSITION":53,"TEXCOORD_0":55},"indices":52,"material":1,"mode":4}]},{"name":"Front_doors_02","primitives":[{"attributes":{"NORMAL":14,"POSITION":13,"TEXCOORD_0":15},"indices":12,"material":2,"mode":4},{"attributes":{"NORMAL":58,"POSITION":57,"TEXCOORD_0":59},"indices":56,"material":1,"mode":4}]},{"name":"Middlr_doors_01","primitives":[{"attributes":{"NORMAL":18,"POSITION":17,"TEXCOORD_0":19},"indices":16,"material":2,"mode":4},{"attributes":{"NORMAL":62,"POSITION":61,"TEXCOORD_0":63},"indices":60,"material":1,"mode":4}]},{"name":"Middlr_doors_02","primitives":[{"attributes":{"NORMAL":22,"POSITION":21,"TEXCOORD_0":23},"indices":20,"material":2,"mode":4},{"attributes":{"NORMAL":66,"POSITION":65,"TEXCOORD_0":67},"indices":64,"material":1,"mode":4}]},{"name":"Rear_well_01","primitives":[{"attributes":{"NORMAL":26,"POSITION":25,"TEXCOORD_0":27},"indices":24,"material":2,"mode":4}]},{"name":"Rear_well_02","primitives":[{"attributes":{"NORMAL":30,"POSITION":29,"TEXCOORD_0":31},"indices":28,"material":2,"mode":4}]},{"name":"Rear_well_03","primitives":[{"attributes":{"NORMAL":34,"POSITION":33,"TEXCOORD_0":35},"indices":32,"material":2,"mode":4}]},{"name":"Rear_well_04","primitives":[{"attributes":{"NORMAL":38,"POSITION":37,"TEXCOORD_0":39},"indices":36,"material":2,"mode":4}]},{"name":"Well_01","primitives":[{"attributes":{"NORMAL":42,"POSITION":41,"TEXCOORD_0":43},"indices":40,"material":2,"mode":4}]},{"name":"Well_02","primitives":[{"attributes":{"NORMAL":46,"POSITION":45,"TEXCOORD_0":47},"indices":44,"material":2,"mode":4}]}],"nodes":[{"children":[1,2,3,4,5,6,7,8,9,10],"mesh":0,"name":"Vehicle_02_A","rotation":[0,0,0,1],"scale":[0.5,0.5,0.5],"translation":[1.20286238193512,0.790284931659698,0]},{"mesh":1,"name":"Front_doors_01","rotation":[0,0,0,1],"scale":[1,1,1],"translation":[1.51668894290924,0.295115053653717,-1.65353190898895]},{"mesh":2,"name":"Front_doors_02","rotation":[0,0,0,1],"scale":[1,1,1],"translation":[1.51668894290924,0.295115053653717,1.65353190898895]},{"mesh":3,"name":"Middlr_doors_01","rotation":[0,0,0,1],"scale":[1,1,1],"translation":[-0.5965815782547,0.310187220573425,-1.65438461303711]},{"mesh":4,"name":"Middlr_doors_02","rotation":[0,0,0,1],"scale":[1,1,1],"translation":[-0.5965815782547,0.310187220573425,1.65438461303711]},{"mesh":5,"name":"Rear_well_01","rotation":[0,0,0,1],"scale":[2,2,2],"translation":[-4.94013547897339,-1.04853892326355,-1.43396842479706]},{"mesh":6,"name":"Rear_well_02","rotation":[0,0,0,1],"scale":[2,2,2],"translation":[-4.94013118743896,-1.04853904247284,-1.03864216804504]},{"mesh":7,"name":"Rear_well_03","rotation":[0,0,0,1],"scale":[2,2,2],"translation":[-4.94013118743896,-1.04853975772858,1.03864049911499]},{"mesh":8,"name":"Rear_well_04","rotation":[0,0,0,1],"scale":[2,2,2],"translation":[-4.94013547897339,-1.04853892326355,1.43396842479706]},{"mesh":9,"name":"Well_01","rotation":[0,0,0,1],"scale":[1,1,1],"translation":[-0.11133757978678,-1.02538633346558,-1.52996444702148]},{"mesh":10,"name":"Well_02","rotation":[0,0,0,1],"scale":[1,1,1],"translation":[-0.11133757978678,-1.02538466453552,1.52995896339417]}],"samplers":[{}],"scene":0,"scenes":[{"name":"Root Scene","nodes":[0]}],"textures":[{"name":"base_color_texture","sampler":0,"source":0}]}