{"accessors":[{"bufferView":0,"byteOffset":0,"componentType":5123,"count":57075,"type":"SCALAR"},{"bufferView":1,"byteOffset":0,"componentType":5126,"count":32747,"max":[2.57016015052795,1.77873301506042,0.648116230964661],"min":[-2.42409467697144,0.158079028129578,-0.64811623096466],"type":"VEC3"},{"bufferView":2,"byteOffset":0,"componentType":5126,"count":32747,"type":"VEC3"},{"bufferView":3,"byteOffset":0,"componentType":5126,"count":32747,"type":"VEC2"},{"bufferView":4,"byteOffset":0,"componentType":5123,"count":504,"type":"SCALAR"},{"bufferView":5,"byteOffset":0,"componentType":5126,"count":314,"max":[0.00090861320495605,0.210914716124535,0.0265635922551155],"min":[-0.53513067960739,-0.21068201959133,-0.02927922457457],"type":"VEC3"},{"bufferView":6,"byteOffset":0,"componentType":5126,"count":314,"type":"VEC3"},{"bufferView":7,"byteOffset":0,"componentType":5126,"count":314,"type":"VEC2"},{"bufferView":8,"byteOffset":0,"componentType":5123,"count":576,"type":"SCALAR"},{"bufferView":9,"byteOffset":0,"componentType":5126,"count":332,"max":[0.0000259626231127186,0.463166147470474,0.0737574473023415],"min":[-0.42855158448219,-0.38433054089546,-0.00703160651028],"type":"VEC3"},{"bufferView":10,"byteOffset":0,"componentType":5126,"count":332,"type":"VEC3"},{"bufferView":11,"byteOffset":0,"componentType":5126,"count":332,"type":"VEC2"},{"bufferView":12,"byteOffset":0,"componentType":5123,"count":192,"type":"SCALAR"},{"bufferView":13,"byteOffset":0,"componentType":5126,"count":118,"max":[0,0.640540599822998,0.0299999713897705],"min":[-0.49377876520157,-0.42944484949112,0],"type":"VEC3"},{"bufferView":14,"byteOffset":0,"componentType":5126,"count":118,"type":"VEC3"},{"bufferView":15,"byteOffset":0,"componentType":5126,"count":118,"type":"VEC2"},{"bufferView":16,"byteOffset":0,"componentType":5123,"count":192,"type":"SCALAR"},{"bufferView":17,"byteOffset":0,"componentType":5126,"count":118,"max":[0,0.640540599822998,0],"min":[-0.49377876520157,-0.42944484949112,-0.02999997325242],"type":"VEC3"},{"bufferView":18,"byteOffset":0,"componentType":5126,"count":118,"type":"VEC3"},{"bufferView":19,"byteOffset":0,"componentType":5126,"count":118,"type":"VEC2"},{"bufferView":20,"byteOffset":0,"componentType":5123,"count":1236,"type":"SCALAR"},{"bufferView":21,"byteOffset":0,"componentType":5126,"count":800,"max":[0.272899121046066,0.0836250260472298,0.272899091243744],"min":[-0.27289906144142,-0.06884022057056,-0.27289909124374],"type":"VEC3"},{"bufferView":22,"byteOffset":0,"componentType":5126,"count":800,"type":"VEC3"},{"bufferView":23,"byteOffset":0,"componentType":5126,"count":800,"type":"VEC2"},{"bufferView":24,"byteOffset":0,"componentType":5123,"count":2430,"type":"SCALAR"},{"bufferView":25,"byteOffset":0,"componentType":5126,"count":1584,"max":[0.272899180650711,0.232432529330254,0.272899091243744],"min":[-0.27289906144142,-0.06884022057056,-0.27289909124374],"type":"VEC3"},{"bufferView":26,"byteOffset":0,"componentType":5126,"count":1584,"type":"VEC3"},{"bufferView":27,"byteOffset":0,"componentType":5126,"count":1584,"type":"VEC2"},{"bufferView":28,"byteOffset":0,"componentType":5123,"count":1236,"type":"SCALAR"},{"bufferView":29,"byteOffset":0,"componentType":5126,"count":800,"max":[0.272899121046066,0.0688409805297852,0.272899121046066],"min":[-0.27289906144142,-0.08362436294556,-0.27289909124374],"type":"VEC3"},{"bufferView":30,"byteOffset":0,"componentType":5126,"count":800,"type":"VEC3"},{"bufferView":31,"byteOffset":0,"componentType":5126,"count":800,"type":"VEC2"},{"bufferView":32,"byteOffset":0,"componentType":5123,"count":2430,"type":"SCALAR"},{"bufferView":33,"byteOffset":0,"componentType":5126,"count":1584,"max":[0.272899121046066,0.0688403993844986,0.272899091243744],"min":[-0.27289906144142,-0.232432320714,-0.27289915084839],"type":"VEC3"},{"bufferView":34,"byteOffset":0,"componentType":5126,"count":1584,"type":"VEC3"},{"bufferView":35,"byteOffset":0,"componentType":5126,"count":1584,"type":"VEC2"},{"bufferView":36,"byteOffset":0,"componentType":5123,"count":1074,"type":"SCALAR"},{"bufferView":37,"byteOffset":0,"componentType":5126,"count":572,"max":[1.72660791873932,1.4733681678772,0.575296819210052],"min":[-2.37631225585938,1.01459407806396,-0.57529681921005],"type":"VEC3"},{"bufferView":38,"byteOffset":0,"componentType":5126,"count":572,"type":"VEC3"},{"bufferView":39,"byteOffset":0,"componentType":5126,"count":572,"type":"VEC2"},{"bufferView":40,"byteOffset":0,"componentType":5123,"count":12,"type":"SCALAR"},{"bufferView":41,"byteOffset":0,"componentType":5126,"count":8,"max":[-0.00757217407227,0.637720346450806,0.024541437625885],"min":[-0.48620647192001,0.243843659758568,0.00722098350524902],"type":"VEC3"},{"bufferView":42,"byteOffset":0,"componentType":5126,"count":8,"type":"VEC3"},{"bufferView":43,"byteOffset":0,"componentType":5126,"count":8,"type":"VEC2"},{"bufferView":44,"byteOffset":0,"componentType":5123,"count":12,"type":"SCALAR"},{"bufferView":45,"byteOffset":0,"componentType":5126,"count":8,"max":[-0.00757223227993,0.637720346450806,-0.00722098210827],"min":[-0.48620647192001,0.243843659758568,-0.02454144135118],"type":"VEC3"},{"bufferView":46,"byteOffset":0,"componentType":5126,"count":8,"type":"VEC3"},{"bufferView":47,"byteOffset":0,"componentType":5126,"count":8,"type":"VEC2"}],"asset":{"generator":"FBX2glTF v0.13.1","version":"2.0"},"bufferViews":[{"buffer":0,"byteLength":114150,"byteOffset":0,"target":34963},{"buffer":0,"byteLength":392964,"byteOffset":114152,"target":34962},{"buffer":0,"byteLength":392964,"byteOffset":507116,"target":34962},{"buffer":0,"byteLength":261976,"byteOffset":900080,"target":34962},{"buffer":0,"byteLength":1008,"byteOffset":1162056,"target":34963},{"buffer":0,"byteLength":3768,"byteOffset":1163064,"target":34962},{"buffer":0,"byteLength":3768,"byteOffset":1166832,"target":34962},{"buffer":0,"byteLength":2512,"byteOffset":1170600,"target":34962},{"buffer":0,"byteLength":1152,"byteOffset":1173112,"target":34963},{"buffer":0,"byteLength":3984,"byteOffset":1174264,"target":34962},{"buffer":0,"byteLength":3984,"byteOffset":1178248,"target":34962},{"buffer":0,"byteLength":2656,"byteOffset":1182232,"target":34962},{"buffer":0,"byteLength":384,"byteOffset":1184888,"target":34963},{"buffer":0,"byteLength":1416,"byteOffset":1185272,"target":34962},{"buffer":0,"byteLength":1416,"byteOffset":1186688,"target":34962},{"buffer":0,"byteLength":944,"byteOffset":1188104,"target":34962},{"buffer":0,"byteLength":384,"byteOffset":1189048,"target":34963},{"buffer":0,"byteLength":1416,"byteOffset":1189432,"target":34962},{"buffer":0,"byteLength":1416,"byteOffset":1190848,"target":34962},{"buffer":0,"byteLength":944,"byteOffset":1192264,"target":34962},{"buffer":0,"byteLength":2472,"byteOffset":1193208,"target":34963},{"buffer":0,"byteLength":9600,"byteOffset":1195680,"target":34962},{"buffer":0,"byteLength":9600,"byteOffset":1205280,"target":34962},{"buffer":0,"byteLength":6400,"byteOffset":1214880,"target":34962},{"buffer":0,"byteLength":4860,"byteOffset":1221280,"target":34963},{"buffer":0,"byteLength":19008,"byteOffset":1226140,"target":34962},{"buffer":0,"byteLength":19008,"byteOffset":1245148,"target":34962},{"buffer":0,"byteLength":12672,"byteOffset":1264156,"target":34962},{"buffer":0,"byteLength":2472,"byteOffset":1276828,"target":34963},{"buffer":0,"byteLength":9600,"byteOffset":1279300,"target":34962},{"buffer":0,"byteLength":9600,"byteOffset":1288900,"target":34962},{"buffer":0,"byteLength":6400,"byteOffset":1298500,"target":34962},{"buffer":0,"byteLength":4860,"byteOffset":1304900,"target":34963},{"buffer":0,"byteLength":19008,"byteOffset":1309760,"target":34962},{"buffer":0,"byteLength":19008,"byteOffset":1328768,"target":34962},{"buffer":0,"byteLength":12672,"byteOffset":1347776,"target":34962},{"buffer":0,"byteLength":2148,"byteOffset":1360448,"target":34963},{"buffer":0,"byteLength":6864,"byteOffset":1362596,"target":34962},{"buffer":0,"byteLength":6864,"byteOffset":1369460,"target":34962},{"buffer":0,"byteLength":4576,"byteOffset":1376324,"target":34962},{"buffer":0,"byteLength":24,"byteOffset":1380900,"target":34963},{"buffer":0,"byteLength":96,"byteOffset":1380924,"target":34962},{"buffer":0,"byteLength":96,"byteOffset":1381020,"target":34962},{"buffer":0,"byteLength":64,"byteOffset":1381116,"target":34962},{"buffer":0,"byteLength":24,"byteOffset":1381180,"target":34963},{"buffer":0,"byteLength":96,"byteOffset":1381204,"target":34962},{"buffer":0,"byteLength":96,"byteOffset":1381300,"target":34962},{"buffer":0,"byteLength":64,"byteOffset":1381396,"target":34962}],"buffers":[{"byteLength":1381460,"uri":"Vehicle_09_A.bin"}],"images":[{"name":"Polygon_Camping_Texture","uri":"Polygon_Camping_Texture.psd"}],"materials":[{"alphaMode":"OPAQUE","doubleSided":false,"extras":{"fromFBX":{"isTruePBR":false,"shadingModel":"Phong"}},"name":"main","pbrMetallicRoughness":{"baseColorFactor":[1,1,1,1],"baseColorTexture":{"index":0,"texCoord":0},"metallicFactor":0.400000005960464,"roughnessFactor":0.272165536880493}},{"alphaMode":"OPAQUE","doubleSided":false,"extras":{"fromFBX":{"isTruePBR":false,"shadingModel":"Phong"}},"name":"glass","pbrMetallicRoughness":{"baseColorFactor":[0.800000011920929,0.800000011920929,0.800000011920929,1],"metallicFactor":0.400000005960464,"roughnessFactor":0.272165536880493}}],"meshes":[{"name":"bus","primitives":[{"attributes":{"NORMAL":2,"POSITION":1,"TEXCOORD_0":3},"indices":0,"material":0,"mode":4},{"attributes":{"NORMAL":38,"POSITION":37,"TEXCOORD_0":39},"indices":36,"material":1,"mode":4}]},{"name":"Stop_01","primitives":[{"attributes":{"NORMAL":6,"POSITION":5,"TEXCOORD_0":7},"indices":4,"material":0,"mode":4}]},{"name":"Back_doors_01","primitives":[{"attributes":{"NORMAL":10,"POSITION":9,"TEXCOORD_0":11},"indices":8,"material":0,"mode":4}]},{"name":"Front_Doors_01","primitives":[{"attributes":{"NORMAL":14,"POSITION":13,"TEXCOORD_0":15},"indices":12,"material":0,"mode":4},{"attributes":{"NORMAL":42,"POSITION":41,"TEXCOORD_0":43},"indices":40,"material":1,"mode":4}]},{"name":"Front_Doors_02","primitives":[{"attributes":{"NORMAL":18,"POSITION":17,"TEXCOORD_0":19},"indices":16,"material":0,"mode":4},{"attributes":{"NORMAL":46,"POSITION":45,"TEXCOORD_0":47},"indices":44,"material":1,"mode":4}]},{"name":"whell_01","primitives":[{"attributes":{"NORMAL":22,"POSITION":21,"TEXCOORD_0":23},"indices":20,"material":0,"mode":4}]},{"name":"whell_03","primitives":[{"attributes":{"NORMAL":26,"POSITION":25,"TEXCOORD_0":27},"indices":24,"material":0,"mode":4}]},{"name":"whell_05","primitives":[{"attributes":{"NORMAL":30,"POSITION":29,"TEXCOORD_0":31},"indices":28,"material":0,"mode":4}]},{"name":"whell_07","primitives":[{"attributes":{"NORMAL":34,"POSITION":33,"TEXCOORD_0":35},"indices":32,"material":0,"mode":4}]}],"nodes":[{"children":[1,2,3,4,5,6,7,8],"mesh":0,"name":"bus","rotation":[0,0,0,1],"scale":[1,1,1],"translation":[0,0,0]},{"mesh":1,"name":"Stop_01","rotation":[0,0,0,1],"scale":[1,1,1],"translation":[0.966014623641968,0.871804177761078,-0.62146198749542]},{"mesh":2,"name":"Back_doors_01","rotation":[-0,0.70710676908493,0,0.707106828689575],"scale":[1,1,1],"translation":[-2.39774799346924,0.943191826343536,-0.2138719111681]},{"mesh":3,"name":"Front_Doors_01","rotation":[0,0,0,1],"scale":[1,1,1],"translation":[1.50317895412445,0.809112787246704,-0.57797062397003]},{"mesh":4,"name":"Front_Doors_02","rotation":[0,0,0,1],"scale":[1,1,1],"translation":[1.50317895412445,0.809112787246704,0.577970623970032]},{"mesh":5,"name":"whell_01","rotation":[0.707106828689575,0,0,0.707106709480286],"scale":[1,1,1],"translation":[1.96171152591705,0.250674158334732,-0.50063645839691]},{"mesh":6,"name":"whell_03","rotation":[0.707106828689575,0,0,0.707106709480286],"scale":[1,0.802084922790527,1],"translation":[-0.85301578044891,0.247807845473289,-0.53185927867889]},{"mesh":7,"name":"whell_05","rotation":[0.707106828689575,0,0,0.707106709480286],"scale":[1,1,1],"translation":[1.96171152591705,0.25067412853241,0.500635743141174]},{"mesh":8,"name":"whell_07","rotation":[0.707106828689575,0,0,0.707106709480286],"scale":[1,0.802084922790527,1],"translation":[-0.85301572084427,0.247807845473289,0.531859159469604]}],"samplers":[{}],"scene":0,"scenes":[{"name":"Root Scene","nodes":[0]}],"textures":[{"name":"base_color_texture","sampler":0,"source":0}]}