{"accessors":[{"bufferView":0,"byteOffset":0,"componentType":5123,"count":31758,"type":"SCALAR"},{"bufferView":1,"byteOffset":0,"componentType":5126,"count":18600,"max":[2.8021936416626,1.94896447658539,0.57771247625351],"min":[-2.85010838508606,0.135548174381256,-0.5694534778595],"type":"VEC3"},{"bufferView":2,"byteOffset":0,"componentType":5126,"count":18600,"type":"VEC3"},{"bufferView":3,"byteOffset":0,"componentType":5126,"count":18600,"type":"VEC2"},{"bufferView":4,"byteOffset":0,"componentType":5123,"count":300,"type":"SCALAR"},{"bufferView":5,"byteOffset":0,"componentType":5126,"count":200,"max":[0.0000375276431441307,0.467490792274475,0.0445228032767773],"min":[-0.53902608156204,-0.33862727880478,-0.00385730713606],"type":"VEC3"},{"bufferView":6,"byteOffset":0,"componentType":5126,"count":200,"type":"VEC3"},{"bufferView":7,"byteOffset":0,"componentType":5126,"count":200,"type":"VEC2"},{"bufferView":8,"byteOffset":0,"componentType":5123,"count":2484,"type":"SCALAR"},{"bufferView":9,"byteOffset":0,"componentType":5126,"count":1600,"max":[0.270000100135803,0.111429393291473,0.270000129938126],"min":[-0.26999998092651,-0.08024712651968,-0.26999995112419],"type":"VEC3"},{"bufferView":10,"byteOffset":0,"componentType":5126,"count":1600,"type":"VEC3"},{"bufferView":11,"byteOffset":0,"componentType":5126,"count":1600,"type":"VEC2"},{"bufferView":12,"byteOffset":0,"componentType":5123,"count":2484,"type":"SCALAR"},{"bufferView":13,"byteOffset":0,"componentType":5126,"count":1600,"max":[0.270000100135803,0.0802481174468994,0.270000100135803],"min":[-0.26999998092651,-0.11142837256193,-0.26999998092651],"type":"VEC3"},{"bufferView":14,"byteOffset":0,"componentType":5126,"count":1600,"type":"VEC3"},{"bufferView":15,"byteOffset":0,"componentType":5126,"count":1600,"type":"VEC2"},{"bufferView":16,"byteOffset":0,"componentType":5123,"count":11088,"type":"SCALAR"},{"bufferView":17,"byteOffset":0,"componentType":5126,"count":7168,"max":[0.270000159740448,1.05147278308868,0.270000129938126],"min":[-0.27000042796135,-0.10503578186035,-0.26999998092651],"type":"VEC3"},{"bufferView":18,"byteOffset":0,"componentType":5126,"count":7168,"type":"VEC3"},{"bufferView":19,"byteOffset":0,"componentType":5126,"count":7168,"type":"VEC2"},{"bufferView":20,"byteOffset":0,"componentType":5123,"count":6120,"type":"SCALAR"},{"bufferView":21,"byteOffset":0,"componentType":5126,"count":3968,"max":[0.270000159740448,1.0514725446701,0.270000129938126],"min":[-0.27000063657761,-0.10503578186035,-0.26999998092651],"type":"VEC3"},{"bufferView":22,"byteOffset":0,"componentType":5126,"count":3968,"type":"VEC3"},{"bufferView":23,"byteOffset":0,"componentType":5126,"count":3968,"type":"VEC2"},{"bufferView":24,"byteOffset":0,"componentType":5123,"count":300,"type":"SCALAR"},{"bufferView":25,"byteOffset":0,"componentType":5126,"count":200,"max":[0.000000132631498672708,0.467490792274475,0.00458590686321259],"min":[-0.53903996944428,-0.33862727880478,-0.04381611198187],"type":"VEC3"},{"bufferView":26,"byteOffset":0,"componentType":5126,"count":200,"type":"VEC3"},{"bufferView":27,"byteOffset":0,"componentType":5126,"count":200,"type":"VEC2"},{"bufferView":28,"byteOffset":0,"componentType":5123,"count":5172,"type":"SCALAR"},{"bufferView":29,"byteOffset":0,"componentType":5126,"count":3200,"max":[0.26691797375679,0.867775619029999,0.270000129938126],"min":[-0.27308264374733,0.0786614045500755,-0.26999998092651],"type":"VEC3"},{"bufferView":30,"byteOffset":0,"componentType":5126,"count":3200,"type":"VEC3"},{"bufferView":31,"byteOffset":0,"componentType":5126,"count":3200,"type":"VEC2"},{"bufferView":32,"byteOffset":0,"componentType":5123,"count":72,"type":"SCALAR"},{"bufferView":33,"byteOffset":0,"componentType":5126,"count":48,"max":[2.75916624069214,1.37311410903931,0.465724140405655],"min":[1.77986061573029,0.936018347740173,-0.45746552944183],"type":"VEC3"},{"bufferView":34,"byteOffset":0,"componentType":5126,"count":48,"type":"VEC3"},{"bufferView":35,"byteOffset":0,"componentType":5126,"count":48,"type":"VEC2"},{"bufferView":36,"byteOffset":0,"componentType":5123,"count":60,"type":"SCALAR"},{"bufferView":37,"byteOffset":0,"componentType":5126,"count":40,"max":[-0.04514938220382,0.436684519052505,0.0431928187608719],"min":[-0.50199210643768,0.0292925164103508,0.010261757299304],"type":"VEC3"},{"bufferView":38,"byteOffset":0,"componentType":5126,"count":40,"type":"VEC3"},{"bufferView":39,"byteOffset":0,"componentType":5126,"count":40,"type":"VEC2"},{"bufferView":40,"byteOffset":0,"componentType":5123,"count":60,"type":"SCALAR"},{"bufferView":41,"byteOffset":0,"componentType":5126,"count":40,"max":[-0.045190513134,0.436684519052505,-0.01003058161587],"min":[-0.50203800201416,0.0292925164103508,-0.04273293912411],"type":"VEC3"},{"bufferView":42,"byteOffset":0,"componentType":5126,"count":40,"type":"VEC3"},{"bufferView":43,"byteOffset":0,"componentType":5126,"count":40,"type":"VEC2"}],"asset":{"generator":"FBX2glTF v0.13.1","version":"2.0"},"bufferViews":[{"buffer":0,"byteLength":63516,"byteOffset":0,"target":34963},{"buffer":0,"byteLength":223200,"byteOffset":63516,"target":34962},{"buffer":0,"byteLength":223200,"byteOffset":286716,"target":34962},{"buffer":0,"byteLength":148800,"byteOffset":509916,"target":34962},{"buffer":0,"byteLength":600,"byteOffset":658716,"target":34963},{"buffer":0,"byteLength":2400,"byteOffset":659316,"target":34962},{"buffer":0,"byteLength":2400,"byteOffset":661716,"target":34962},{"buffer":0,"byteLength":1600,"byteOffset":664116,"target":34962},{"buffer":0,"byteLength":4968,"byteOffset":665716,"target":34963},{"buffer":0,"byteLength":19200,"byteOffset":670684,"target":34962},{"buffer":0,"byteLength":19200,"byteOffset":689884,"target":34962},{"buffer":0,"byteLength":12800,"byteOffset":709084,"target":34962},{"buffer":0,"byteLength":4968,"byteOffset":721884,"target":34963},{"buffer":0,"byteLength":19200,"byteOffset":726852,"target":34962},{"buffer":0,"byteLength":19200,"byteOffset":746052,"target":34962},{"buffer":0,"byteLength":12800,"byteOffset":765252,"target":34962},{"buffer":0,"byteLength":22176,"byteOffset":778052,"target":34963},{"buffer":0,"byteLength":86016,"byteOffset":800228,"target":34962},{"buffer":0,"byteLength":86016,"byteOffset":886244,"target":34962},{"buffer":0,"byteLength":57344,"byteOffset":972260,"target":34962},{"buffer":0,"byteLength":12240,"byteOffset":1029604,"target":34963},{"buffer":0,"byteLength":47616,"byteOffset":1041844,"target":34962},{"buffer":0,"byteLength":47616,"byteOffset":1089460,"target":34962},{"buffer":0,"byteLength":31744,"byteOffset":1137076,"target":34962},{"buffer":0,"byteLength":600,"byteOffset":1168820,"target":34963},{"buffer":0,"byteLength":2400,"byteOffset":1169420,"target":34962},{"buffer":0,"byteLength":2400,"byteOffset":1171820,"target":34962},{"buffer":0,"byteLength":1600,"byteOffset":1174220,"target":34962},{"buffer":0,"byteLength":10344,"byteOffset":1175820,"target":34963},{"buffer":0,"byteLength":38400,"byteOffset":1186164,"target":34962},{"buffer":0,"byteLength":38400,"byteOffset":1224564,"target":34962},{"buffer":0,"byteLength":25600,"byteOffset":1262964,"target":34962},{"buffer":0,"byteLength":144,"byteOffset":1288564,"target":34963},{"buffer":0,"byteLength":576,"byteOffset":1288708,"target":34962},{"buffer":0,"byteLength":576,"byteOffset":1289284,"target":34962},{"buffer":0,"byteLength":384,"byteOffset":1289860,"target":34962},{"buffer":0,"byteLength":120,"byteOffset":1290244,"target":34963},{"buffer":0,"byteLength":480,"byteOffset":1290364,"target":34962},{"buffer":0,"byteLength":480,"byteOffset":1290844,"target":34962},{"buffer":0,"byteLength":320,"byteOffset":1291324,"target":34962},{"buffer":0,"byteLength":120,"byteOffset":1291644,"target":34963},{"buffer":0,"byteLength":480,"byteOffset":1291764,"target":34962},{"buffer":0,"byteLength":480,"byteOffset":1292244,"target":34962},{"buffer":0,"byteLength":320,"byteOffset":1292724,"target":34962}],"buffers":[{"byteLength":1293044,"uri":"Vehicle_10_A.bin"}],"images":[{"name":"Polygon_Camping_Texture","uri":"Polygon_Camping_Texture.jpg"}],"materials":[{"alphaMode":"OPAQUE","doubleSided":false,"extras":{"fromFBX":{"isTruePBR":false,"shadingModel":"Phong"}},"name":"main","pbrMetallicRoughness":{"baseColorFactor":[1,1,1,1],"baseColorTexture":{"index":0,"texCoord":0},"metallicFactor":0.400000005960464,"roughnessFactor":0.272165536880493}},{"alphaMode":"OPAQUE","doubleSided":false,"extras":{"fromFBX":{"isTruePBR":false,"shadingModel":"Phong"}},"name":"glass","pbrMetallicRoughness":{"baseColorFactor":[0.800000011920929,0.800000011920929,0.800000011920929,1],"metallicFactor":0.400000005960464,"roughnessFactor":0.272165536880493}},{"alphaMode":"OPAQUE","doubleSided":false,"extras":{"fromFBX":{"isTruePBR":false,"shadingModel":"Phong"}},"name":"Material.010","pbrMetallicRoughness":{"baseColorFactor":[1,1,1,1],"baseColorTexture":{"index":0,"texCoord":0},"metallicFactor":0.400000005960464,"roughnessFactor":0.272165536880493}}],"meshes":[{"name":"cabin","primitives":[{"attributes":{"NORMAL":2,"POSITION":1,"TEXCOORD_0":3},"indices":0,"material":0,"mode":4},{"attributes":{"NORMAL":34,"POSITION":33,"TEXCOORD_0":35},"indices":32,"material":1,"mode":4}]},{"name":"cabin.Doors_01","primitives":[{"attributes":{"NORMAL":6,"POSITION":5,"TEXCOORD_0":7},"indices":4,"material":0,"mode":4},{"attributes":{"NORMAL":38,"POSITION":37,"TEXCOORD_0":39},"indices":36,"material":1,"mode":4}]},{"name":"Whell_01","primitives":[{"attributes":{"NORMAL":10,"POSITION":9,"TEXCOORD_0":11},"indices":8,"material":0,"mode":4}]},{"name":"Whell_07","primitives":[{"attributes":{"NORMAL":14,"POSITION":13,"TEXCOORD_0":15},"indices":12,"material":0,"mode":4}]},{"name":"Whell_09","primitives":[{"attributes":{"NORMAL":18,"POSITION":17,"TEXCOORD_0":19},"indices":16,"material":0,"mode":4}]},{"name":"Whell_10","primitives":[{"attributes":{"NORMAL":22,"POSITION":21,"TEXCOORD_0":23},"indices":20,"material":0,"mode":4},{"attributes":{"NORMAL":30,"POSITION":29,"TEXCOORD_0":31},"indices":28,"material":2,"mode":4}]},{"name":"cabin.Doors_02","primitives":[{"attributes":{"NORMAL":26,"POSITION":25,"TEXCOORD_0":27},"indices":24,"material":0,"mode":4},{"attributes":{"NORMAL":42,"POSITION":41,"TEXCOORD_0":43},"indices":40,"material":1,"mode":4}]}],"nodes":[{"children":[1,2,3,4,5,6],"mesh":0,"name":"cabin","rotation":[0,0,0,1],"scale":[0.890074849128723,1,1.25442755222321],"translation":[0,0,0]},{"mesh":1,"name":"cabin.Doors_01","rotation":[0,0,0,1],"scale":[1.12350106239319,1,0.797176361083984],"translation":[2.64409899711609,0.922385215759277,-0.46078234910965]},{"mesh":2,"name":"Whell_01","rotation":[0.707106828689575,0,0,0.707106709480286],"scale":[1.12350106239319,0.797176361083984,1],"translation":[2.03378343582153,0.269746035337448,-0.4119228720665]},{"mesh":3,"name":"Whell_07","rotation":[0.707106828689575,0,0,0.707106709480286],"scale":[1.12350106239319,0.797176361083984,1],"translation":[2.03378295898438,0.269746005535126,0.42018061876297]},{"mesh":4,"name":"Whell_09","rotation":[0.000000152168425415766,-0.70710670948029,0.707106828689575,0.000000291776530048082],"scale":[1.12350106239319,0.797176361083984,1],"translation":[-0.80185562372208,0.269746035337448,0.381367892026901]},{"mesh":5,"name":"Whell_10","rotation":[0.000000152168425415766,-0.70710670948029,0.707106828689575,0.000000291776530048082],"scale":[1.12350106239319,0.797176361083984,1],"translation":[-1.45899498462677,0.269746035337448,0.381367892026901]},{"mesh":6,"name":"cabin.Doors_02","rotation":[0,0,0,1],"scale":[1.12350106239319,1,0.797176361083984],"translation":[2.64409899711609,0.922385215759277,0.469040900468826]}],"samplers":[{}],"scene":0,"scenes":[{"name":"Root Scene","nodes":[0]}],"textures":[{"name":"base_color_texture","sampler":0,"source":0}]}