{"accessors":[{"bufferView":0,"byteOffset":0,"componentType":5123,"count":19584,"type":"SCALAR"},{"bufferView":1,"byteOffset":0,"componentType":5126,"count":10905,"max":[1.52884924411774,1.52685022354126,0.724195241928101],"min":[-1.61710929870605,0.135548174381256,-0.71383553743362],"type":"VEC3"},{"bufferView":2,"byteOffset":0,"componentType":5126,"count":10905,"type":"VEC3"},{"bufferView":3,"byteOffset":0,"componentType":5126,"count":10905,"type":"VEC2"},{"bufferView":4,"byteOffset":0,"componentType":5123,"count":300,"type":"SCALAR"},{"bufferView":5,"byteOffset":0,"componentType":5126,"count":184,"max":[0,0.467490792274475,0.043843325227499],"min":[-0.53902661800384,-0.33862727880478,-0.00443017482758],"type":"VEC3"},{"bufferView":6,"byteOffset":0,"componentType":5126,"count":184,"type":"VEC3"},{"bufferView":7,"byteOffset":0,"componentType":5126,"count":184,"type":"VEC2"},{"bufferView":8,"byteOffset":0,"componentType":5123,"count":2484,"type":"SCALAR"},{"bufferView":9,"byteOffset":0,"componentType":5126,"count":1600,"max":[0.270000100135803,0.269999951124191,0.111429430544376],"min":[-0.26999998092651,-0.27000015974045,-0.08024712651968],"type":"VEC3"},{"bufferView":10,"byteOffset":0,"componentType":5126,"count":1600,"type":"VEC3"},{"bufferView":11,"byteOffset":0,"componentType":5126,"count":1600,"type":"VEC2"},{"bufferView":12,"byteOffset":0,"componentType":5123,"count":300,"type":"SCALAR"},{"bufferView":13,"byteOffset":0,"componentType":5126,"count":188,"max":[0,0.467490792274475,0.00443017482757568],"min":[-0.53902661800384,-0.33862727880478,-0.04384326934814],"type":"VEC3"},{"bufferView":14,"byteOffset":0,"componentType":5126,"count":188,"type":"VEC3"},{"bufferView":15,"byteOffset":0,"componentType":5126,"count":188,"type":"VEC2"},{"bufferView":16,"byteOffset":0,"componentType":5123,"count":2484,"type":"SCALAR"},{"bufferView":17,"byteOffset":0,"componentType":5126,"count":1600,"max":[0.270000100135803,0.270000010728836,0.0802481323480606],"min":[-0.26999998092651,-0.2700001001358,-0.11142840981484],"type":"VEC3"},{"bufferView":18,"byteOffset":0,"componentType":5126,"count":1600,"type":"VEC3"},{"bufferView":19,"byteOffset":0,"componentType":5126,"count":1600,"type":"VEC2"},{"bufferView":20,"byteOffset":0,"componentType":5123,"count":11088,"type":"SCALAR"},{"bufferView":21,"byteOffset":0,"componentType":5126,"count":7168,"max":[0.270000219345093,0.270000129938126,0.578254222869873],"min":[-0.27000027894974,-0.27000007033348,-0.57825440168381],"type":"VEC3"},{"bufferView":22,"byteOffset":0,"componentType":5126,"count":7168,"type":"VEC3"},{"bufferView":23,"byteOffset":0,"componentType":5126,"count":7168,"type":"VEC2"},{"bufferView":24,"byteOffset":0,"componentType":5123,"count":11292,"type":"SCALAR"},{"bufferView":25,"byteOffset":0,"componentType":5126,"count":7168,"max":[0.271461606025696,0.270000100135803,0.578254401683807],"min":[-0.2716209590435,-0.2700001001358,-0.57825422286987],"type":"VEC3"},{"bufferView":26,"byteOffset":0,"componentType":5126,"count":7168,"type":"VEC3"},{"bufferView":27,"byteOffset":0,"componentType":5126,"count":7168,"type":"VEC2"},{"bufferView":28,"byteOffset":0,"componentType":5123,"count":18594,"type":"SCALAR"},{"bufferView":29,"byteOffset":0,"componentType":5126,"count":10512,"max":[0.909855544567108,0.885490953922272,0.670632600784302],"min":[-4.72237920761108,-0.40467855334282,-0.66027301549911],"type":"VEC3"},{"bufferView":30,"byteOffset":0,"componentType":5126,"count":10512,"type":"VEC3"},{"bufferView":31,"byteOffset":0,"componentType":5126,"count":10512,"type":"VEC2"},{"bufferView":32,"byteOffset":0,"componentType":5123,"count":11088,"type":"SCALAR"},{"bufferView":33,"byteOffset":0,"componentType":5126,"count":7168,"max":[0.270000368356705,0.270000129938126,0.578254282474518],"min":[-0.27000030875206,-0.27000007033348,-0.57825428247452],"type":"VEC3"},{"bufferView":34,"byteOffset":0,"componentType":5126,"count":7168,"type":"VEC3"},{"bufferView":35,"byteOffset":0,"componentType":5126,"count":7168,"type":"VEC2"},{"bufferView":36,"byteOffset":0,"componentType":5123,"count":11292,"type":"SCALAR"},{"bufferView":37,"byteOffset":0,"componentType":5126,"count":7168,"max":[0.271461635828018,0.270000100135803,0.578254401683807],"min":[-0.27162110805512,-0.2700001001358,-0.57825416326523],"type":"VEC3"},{"bufferView":38,"byteOffset":0,"componentType":5126,"count":7168,"type":"VEC3"},{"bufferView":39,"byteOffset":0,"componentType":5126,"count":7168,"type":"VEC2"},{"bufferView":40,"byteOffset":0,"componentType":5123,"count":11088,"type":"SCALAR"},{"bufferView":41,"byteOffset":0,"componentType":5126,"count":7168,"max":[0.270000368356705,0.270000129938126,0.578254282474518],"min":[-0.27000030875206,-0.27000007033348,-0.57825428247452],"type":"VEC3"},{"bufferView":42,"byteOffset":0,"componentType":5126,"count":7168,"type":"VEC3"},{"bufferView":43,"byteOffset":0,"componentType":5126,"count":7168,"type":"VEC2"},{"bufferView":44,"byteOffset":0,"componentType":5123,"count":72,"type":"SCALAR"},{"bufferView":45,"byteOffset":0,"componentType":5126,"count":48,"max":[1.49055171012878,1.37311410903931,0.584217190742493],"min":[0.61889660358429,0.936018347740173,-0.57385742664337],"type":"VEC3"},{"bufferView":46,"byteOffset":0,"componentType":5126,"count":48,"type":"VEC3"},{"bufferView":47,"byteOffset":0,"componentType":5126,"count":48,"type":"VEC2"},{"bufferView":48,"byteOffset":0,"componentType":5123,"count":60,"type":"SCALAR"},{"bufferView":49,"byteOffset":0,"componentType":5126,"count":40,"max":[-0.04518285021186,0.436684519052505,0.0428242683410645],"min":[-0.50202703475952,0.0292925238609314,0.0101808905601501],"type":"VEC3"},{"bufferView":50,"byteOffset":0,"componentType":5126,"count":40,"type":"VEC3"},{"bufferView":51,"byteOffset":0,"componentType":5126,"count":40,"type":"VEC2"},{"bufferView":52,"byteOffset":0,"componentType":5123,"count":60,"type":"SCALAR"},{"bufferView":53,"byteOffset":0,"componentType":5126,"count":40,"max":[-0.04518281295896,0.436684489250183,-0.01018094364554],"min":[-0.50202703475952,0.0292924642562866,-0.04282426834106],"type":"VEC3"},{"bufferView":54,"byteOffset":0,"componentType":5126,"count":40,"type":"VEC3"},{"bufferView":55,"byteOffset":0,"componentType":5126,"count":40,"type":"VEC2"}],"asset":{"generator":"FBX2glTF v0.13.1","version":"2.0"},"bufferViews":[{"buffer":0,"byteLength":39168,"byteOffset":0,"target":34963},{"buffer":0,"byteLength":130860,"byteOffset":39168,"target":34962},{"buffer":0,"byteLength":130860,"byteOffset":170028,"target":34962},{"buffer":0,"byteLength":87240,"byteOffset":300888,"target":34962},{"buffer":0,"byteLength":600,"byteOffset":388128,"target":34963},{"buffer":0,"byteLength":2208,"byteOffset":388728,"target":34962},{"buffer":0,"byteLength":2208,"byteOffset":390936,"target":34962},{"buffer":0,"byteLength":1472,"byteOffset":393144,"target":34962},{"buffer":0,"byteLength":4968,"byteOffset":394616,"target":34963},{"buffer":0,"byteLength":19200,"byteOffset":399584,"target":34962},{"buffer":0,"byteLength":19200,"byteOffset":418784,"target":34962},{"buffer":0,"byteLength":12800,"byteOffset":437984,"target":34962},{"buffer":0,"byteLength":600,"byteOffset":450784,"target":34963},{"buffer":0,"byteLength":2256,"byteOffset":451384,"target":34962},{"buffer":0,"byteLength":2256,"byteOffset":453640,"target":34962},{"buffer":0,"byteLength":1504,"byteOffset":455896,"target":34962},{"buffer":0,"byteLength":4968,"byteOffset":457400,"target":34963},{"buffer":0,"byteLength":19200,"byteOffset":462368,"target":34962},{"buffer":0,"byteLength":19200,"byteOffset":481568,"target":34962},{"buffer":0,"byteLength":12800,"byteOffset":500768,"target":34962},{"buffer":0,"byteLength":22176,"byteOffset":513568,"target":34963},{"buffer":0,"byteLength":86016,"byteOffset":535744,"target":34962},{"buffer":0,"byteLength":86016,"byteOffset":621760,"target":34962},{"buffer":0,"byteLength":57344,"byteOffset":707776,"target":34962},{"buffer":0,"byteLength":22584,"byteOffset":765120,"target":34963},{"buffer":0,"byteLength":86016,"byteOffset":787704,"target":34962},{"buffer":0,"byteLength":86016,"byteOffset":873720,"target":34962},{"buffer":0,"byteLength":57344,"byteOffset":959736,"target":34962},{"buffer":0,"byteLength":37188,"byteOffset":1017080,"target":34963},{"buffer":0,"byteLength":126144,"byteOffset":1054268,"target":34962},{"buffer":0,"byteLength":126144,"byteOffset":1180412,"target":34962},{"buffer":0,"byteLength":84096,"byteOffset":1306556,"target":34962},{"buffer":0,"byteLength":22176,"byteOffset":1390652,"target":34963},{"buffer":0,"byteLength":86016,"byteOffset":1412828,"target":34962},{"buffer":0,"byteLength":86016,"byteOffset":1498844,"target":34962},{"buffer":0,"byteLength":57344,"byteOffset":1584860,"target":34962},{"buffer":0,"byteLength":22584,"byteOffset":1642204,"target":34963},{"buffer":0,"byteLength":86016,"byteOffset":1664788,"target":34962},{"buffer":0,"byteLength":86016,"byteOffset":1750804,"target":34962},{"buffer":0,"byteLength":57344,"byteOffset":1836820,"target":34962},{"buffer":0,"byteLength":22176,"byteOffset":1894164,"target":34963},{"buffer":0,"byteLength":86016,"byteOffset":1916340,"target":34962},{"buffer":0,"byteLength":86016,"byteOffset":2002356,"target":34962},{"buffer":0,"byteLength":57344,"byteOffset":2088372,"target":34962},{"buffer":0,"byteLength":144,"byteOffset":2145716,"target":34963},{"buffer":0,"byteLength":576,"byteOffset":2145860,"target":34962},{"buffer":0,"byteLength":576,"byteOffset":2146436,"target":34962},{"buffer":0,"byteLength":384,"byteOffset":2147012,"target":34962},{"buffer":0,"byteLength":120,"byteOffset":2147396,"target":34963},{"buffer":0,"byteLength":480,"byteOffset":2147516,"target":34962},{"buffer":0,"byteLength":480,"byteOffset":2147996,"target":34962},{"buffer":0,"byteLength":320,"byteOffset":2148476,"target":34962},{"buffer":0,"byteLength":120,"byteOffset":2148796,"target":34963},{"buffer":0,"byteLength":480,"byteOffset":2148916,"target":34962},{"buffer":0,"byteLength":480,"byteOffset":2149396,"target":34962},{"buffer":0,"byteLength":320,"byteOffset":2149876,"target":34962}],"buffers":[{"byteLength":2150196,"uri":"Vehicle_11_A.bin"}],"images":[{"name":"Polygon_Camping_Texture","uri":"Polygon_Camping_Texture.jpg"}],"materials":[{"alphaMode":"OPAQUE","doubleSided":false,"extras":{"fromFBX":{"isTruePBR":false,"shadingModel":"Phong"}},"name":"main","pbrMetallicRoughness":{"baseColorFactor":[1,1,1,1],"baseColorTexture":{"index":0,"texCoord":0},"metallicFactor":0.400000005960464,"roughnessFactor":0.272165536880493}},{"alphaMode":"OPAQUE","doubleSided":false,"extras":{"fromFBX":{"isTruePBR":false,"shadingModel":"Phong"}},"name":"glass","pbrMetallicRoughness":{"baseColorFactor":[0.800000011920929,0.800000011920929,0.800000011920929,1],"metallicFactor":0.400000005960464,"roughnessFactor":0.272165536880493}}],"meshes":[{"name":"cabin_01","primitives":[{"attributes":{"NORMAL":2,"POSITION":1,"TEXCOORD_0":3},"indices":0,"material":0,"mode":4},{"attributes":{"NORMAL":46,"POSITION":45,"TEXCOORD_0":47},"indices":44,"material":1,"mode":4}]},{"name":"cabin.Door_01","primitives":[{"attributes":{"NORMAL":6,"POSITION":5,"TEXCOORD_0":7},"indices":4,"material":0,"mode":4},{"attributes":{"NORMAL":50,"POSITION":49,"TEXCOORD_0":51},"indices":48,"material":1,"mode":4}]},{"name":"Whell","primitives":[{"attributes":{"NORMAL":10,"POSITION":9,"TEXCOORD_0":11},"indices":8,"material":0,"mode":4}]},{"name":"cabin.Doors_02","primitives":[{"attributes":{"NORMAL":14,"POSITION":13,"TEXCOORD_0":15},"indices":12,"material":0,"mode":4},{"attributes":{"NORMAL":54,"POSITION":53,"TEXCOORD_0":55},"indices":52,"material":1,"mode":4}]},{"name":"Whell.015","primitives":[{"attributes":{"NORMAL":18,"POSITION":17,"TEXCOORD_0":19},"indices":16,"material":0,"mode":4}]},{"name":"Whell.018","primitives":[{"attributes":{"NORMAL":22,"POSITION":21,"TEXCOORD_0":23},"indices":20,"material":0,"mode":4}]},{"name":"Whell.019","primitives":[{"attributes":{"NORMAL":26,"POSITION":25,"TEXCOORD_0":27},"indices":24,"material":0,"mode":4}]},{"name":"Trailer_01","primitives":[{"attributes":{"NORMAL":30,"POSITION":29,"TEXCOORD_0":31},"indices":28,"material":0,"mode":4}]},{"name":"Whell_011","primitives":[{"attributes":{"NORMAL":34,"POSITION":33,"TEXCOORD_0":35},"indices":32,"material":0,"mode":4}]},{"name":"Whell_012","primitives":[{"attributes":{"NORMAL":38,"POSITION":37,"TEXCOORD_0":39},"indices":36,"material":0,"mode":4}]},{"name":"Whell_014","primitives":[{"attributes":{"NORMAL":42,"POSITION":41,"TEXCOORD_0":43},"indices":40,"material":0,"mode":4}]}],"nodes":[{"children":[1,2,3,4,5,6,7],"mesh":0,"name":"cabin_01","rotation":[0,0,0,1],"scale":[1,1,1],"translation":[0,0,0]},{"mesh":1,"name":"cabin.Door_01","rotation":[0,0,0,1],"scale":[1,1,1],"translation":[1.38813352584839,0.922385215759277,-0.57801806926727]},{"mesh":2,"name":"Whell","rotation":[0,0,0,1],"scale":[1,1,1],"translation":[0.844906687736511,0.269746035337448,-0.51672738790512]},{"mesh":3,"name":"cabin.Doors_02","rotation":[0,0,0,1],"scale":[1,1,1],"translation":[1.38813352584839,0.922385215759277,0.588377833366394]},{"mesh":4,"name":"Whell.015","rotation":[0,0,0,1],"scale":[1,1,1],"translation":[0.844906508922577,0.269746005535126,0.527086138725281]},{"mesh":5,"name":"Whell.018","rotation":[0,0,0,1],"scale":[1,1,1],"translation":[-0.65466099977493,0.269745945930481,0.00517991185188293]},{"mesh":6,"name":"Whell.019","rotation":[0,0,0,1],"scale":[1,1,1],"translation":[-1.23794341087341,0.269745945930481,0.00517970323562622]},{"children":[8,9,10],"mesh":7,"name":"Trailer_01","rotation":[0,0,0,1],"scale":[1,1,1],"translation":[-0.87373924255371,0.6219562292099,0]},{"mesh":8,"name":"Whell_011","rotation":[0.707106828689575,0,0,0.707106709480286],"scale":[0.00999999977648258,0.00999999977648258,0.00999999977648258],"translation":[0.832354843616486,-0.62200802564621,0.00269745942205191]},{"mesh":9,"name":"Whell_012","rotation":[0.707106828689575,0,0,0.707106709480286],"scale":[0.00999999977648258,0.00999999977648258,0.00999999977648258],"translation":[0.826522052288055,-0.62200802564621,0.00269745942205191]},{"mesh":10,"name":"Whell_014","rotation":[0.707106828689575,0,0,0.707106709480286],"scale":[0.00999999977648258,0.00999999977648258,0.00999999977648258],"translation":[0.83820766210556,-0.62200802564621,0.00269745942205191]}],"samplers":[{}],"scene":0,"scenes":[{"name":"Root Scene","nodes":[0]}],"textures":[{"name":"base_color_texture","sampler":0,"source":0}]}