{"accessors":[{"bufferView":0,"byteOffset":0,"componentType":5123,"count":44913,"type":"SCALAR"},{"bufferView":1,"byteOffset":0,"componentType":5126,"count":27788,"max":[1.49119782447815,0.686079263687134,0.603069663047791],"min":[-1.4327700138092,-0.00853371899575,-0.60306966304779],"type":"VEC3"},{"bufferView":2,"byteOffset":0,"componentType":5126,"count":27788,"type":"VEC3"},{"bufferView":3,"byteOffset":0,"componentType":5126,"count":27788,"type":"VEC2"},{"bufferView":4,"byteOffset":0,"componentType":5123,"count":924,"type":"SCALAR"},{"bufferView":5,"byteOffset":0,"componentType":5126,"count":602,"max":[0.891666650772095,0.335646480321884,0.167439833283424],"min":[-0.00228515267372,-0.20967622101307,-0.13720399141312],"type":"VEC3"},{"bufferView":6,"byteOffset":0,"componentType":5126,"count":602,"type":"VEC3"},{"bufferView":7,"byteOffset":0,"componentType":5126,"count":602,"type":"VEC2"},{"bufferView":8,"byteOffset":0,"componentType":5123,"count":1332,"type":"SCALAR"},{"bufferView":9,"byteOffset":0,"componentType":5126,"count":864,"max":[0.229920908808708,0.229920968413353,0.0980314016342163],"min":[-0.22992080450058,-0.2299207597971,-0.10297160595655],"type":"VEC3"},{"bufferView":10,"byteOffset":0,"componentType":5126,"count":864,"type":"VEC3"},{"bufferView":11,"byteOffset":0,"componentType":5126,"count":864,"type":"VEC2"},{"bufferView":12,"byteOffset":0,"componentType":5123,"count":924,"type":"SCALAR"},{"bufferView":13,"byteOffset":0,"componentType":5126,"count":602,"max":[0.891666650772095,0.335646480321884,0.137203991413116],"min":[-0.00228515267372,-0.20967622101307,-0.16743983328342],"type":"VEC3"},{"bufferView":14,"byteOffset":0,"componentType":5126,"count":602,"type":"VEC3"},{"bufferView":15,"byteOffset":0,"componentType":5126,"count":602,"type":"VEC2"},{"bufferView":16,"byteOffset":0,"componentType":5123,"count":1332,"type":"SCALAR"},{"bufferView":17,"byteOffset":0,"componentType":5126,"count":864,"max":[0.229920208454132,0.229921028017998,0.102971732616425],"min":[-0.22992150485516,-0.22992070019245,-0.09803128242493],"type":"VEC3"},{"bufferView":18,"byteOffset":0,"componentType":5126,"count":864,"type":"VEC3"},{"bufferView":19,"byteOffset":0,"componentType":5126,"count":864,"type":"VEC2"},{"bufferView":20,"byteOffset":0,"componentType":5123,"count":1332,"type":"SCALAR"},{"bufferView":21,"byteOffset":0,"componentType":5126,"count":864,"max":[0.229920908808708,0.229920968413353,0.0980314016342163],"min":[-0.22992080450058,-0.2299207597971,-0.10297160595655],"type":"VEC3"},{"bufferView":22,"byteOffset":0,"componentType":5126,"count":864,"type":"VEC3"},{"bufferView":23,"byteOffset":0,"componentType":5126,"count":864,"type":"VEC2"},{"bufferView":24,"byteOffset":0,"componentType":5123,"count":1332,"type":"SCALAR"},{"bufferView":25,"byteOffset":0,"componentType":5126,"count":864,"max":[0.229920208454132,0.229921028017998,0.102971732616425],"min":[-0.22992150485516,-0.22992070019245,-0.09803128242493],"type":"VEC3"},{"bufferView":26,"byteOffset":0,"componentType":5126,"count":864,"type":"VEC3"},{"bufferView":27,"byteOffset":0,"componentType":5126,"count":864,"type":"VEC2"},{"bufferView":28,"byteOffset":0,"componentType":5123,"count":804,"type":"SCALAR"},{"bufferView":29,"byteOffset":0,"componentType":5126,"count":518,"max":[1.26918351650238,0.630893588066101,0.507196426391602],"min":[-0.49082523584366,0.461750596761703,-0.5071964263916],"type":"VEC3"},{"bufferView":30,"byteOffset":0,"componentType":5126,"count":518,"type":"VEC3"},{"bufferView":31,"byteOffset":0,"componentType":5126,"count":518,"type":"VEC2"},{"bufferView":32,"byteOffset":0,"componentType":5123,"count":48,"type":"SCALAR"},{"bufferView":33,"byteOffset":0,"componentType":5126,"count":32,"max":[0.875973165035248,0.327982097864151,0.167439833283424],"min":[0.115629456937313,0.139192432165146,0.0673503875732422],"type":"VEC3"},{"bufferView":34,"byteOffset":0,"componentType":5126,"count":32,"type":"VEC3"},{"bufferView":35,"byteOffset":0,"componentType":5126,"count":32,"type":"VEC2"},{"bufferView":36,"byteOffset":0,"componentType":5123,"count":48,"type":"SCALAR"},{"bufferView":37,"byteOffset":0,"componentType":5126,"count":32,"max":[0.875973165035248,0.327982097864151,-0.06735038757324],"min":[0.115629456937313,0.139192432165146,-0.16743983328342],"type":"VEC3"},{"bufferView":38,"byteOffset":0,"componentType":5126,"count":32,"type":"VEC3"},{"bufferView":39,"byteOffset":0,"componentType":5126,"count":32,"type":"VEC2"}],"asset":{"generator":"FBX2glTF v0.13.1","version":"2.0"},"bufferViews":[{"buffer":0,"byteLength":89826,"byteOffset":0,"target":34963},{"buffer":0,"byteLength":333456,"byteOffset":89828,"target":34962},{"buffer":0,"byteLength":333456,"byteOffset":423284,"target":34962},{"buffer":0,"byteLength":222304,"byteOffset":756740,"target":34962},{"buffer":0,"byteLength":1848,"byteOffset":979044,"target":34963},{"buffer":0,"byteLength":7224,"byteOffset":980892,"target":34962},{"buffer":0,"byteLength":7224,"byteOffset":988116,"target":34962},{"buffer":0,"byteLength":4816,"byteOffset":995340,"target":34962},{"buffer":0,"byteLength":2664,"byteOffset":1000156,"target":34963},{"buffer":0,"byteLength":10368,"byteOffset":1002820,"target":34962},{"buffer":0,"byteLength":10368,"byteOffset":1013188,"target":34962},{"buffer":0,"byteLength":6912,"byteOffset":1023556,"target":34962},{"buffer":0,"byteLength":1848,"byteOffset":1030468,"target":34963},{"buffer":0,"byteLength":7224,"byteOffset":1032316,"target":34962},{"buffer":0,"byteLength":7224,"byteOffset":1039540,"target":34962},{"buffer":0,"byteLength":4816,"byteOffset":1046764,"target":34962},{"buffer":0,"byteLength":2664,"byteOffset":1051580,"target":34963},{"buffer":0,"byteLength":10368,"byteOffset":1054244,"target":34962},{"buffer":0,"byteLength":10368,"byteOffset":1064612,"target":34962},{"buffer":0,"byteLength":6912,"byteOffset":1074980,"target":34962},{"buffer":0,"byteLength":2664,"byteOffset":1081892,"target":34963},{"buffer":0,"byteLength":10368,"byteOffset":1084556,"target":34962},{"buffer":0,"byteLength":10368,"byteOffset":1094924,"target":34962},{"buffer":0,"byteLength":6912,"byteOffset":1105292,"target":34962},{"buffer":0,"byteLength":2664,"byteOffset":1112204,"target":34963},{"buffer":0,"byteLength":10368,"byteOffset":1114868,"target":34962},{"buffer":0,"byteLength":10368,"byteOffset":1125236,"target":34962},{"buffer":0,"byteLength":6912,"byteOffset":1135604,"target":34962},{"buffer":0,"byteLength":1608,"byteOffset":1142516,"target":34963},{"buffer":0,"byteLength":6216,"byteOffset":1144124,"target":34962},{"buffer":0,"byteLength":6216,"byteOffset":1150340,"target":34962},{"buffer":0,"byteLength":4144,"byteOffset":1156556,"target":34962},{"buffer":0,"byteLength":96,"byteOffset":1160700,"target":34963},{"buffer":0,"byteLength":384,"byteOffset":1160796,"target":34962},{"buffer":0,"byteLength":384,"byteOffset":1161180,"target":34962},{"buffer":0,"byteLength":256,"byteOffset":1161564,"target":34962},{"buffer":0,"byteLength":96,"byteOffset":1161820,"target":34963},{"buffer":0,"byteLength":384,"byteOffset":1161916,"target":34962},{"buffer":0,"byteLength":384,"byteOffset":1162300,"target":34962},{"buffer":0,"byteLength":256,"byteOffset":1162684,"target":34962}],"buffers":[{"byteLength":1162940,"uri":"Vehicle_01_B.bin"}],"images":[{"name":"Polygon_Camping_Texture","uri":"Polygon_Camping_Texture.jpg"}],"materials":[{"alphaMode":"OPAQUE","doubleSided":false,"extras":{"fromFBX":{"isTruePBR":false,"shadingModel":"Phong"}},"name":"Material.001","pbrMetallicRoughness":{"baseColorFactor":[1,1,1,1],"baseColorTexture":{"index":0,"texCoord":0},"metallicFactor":0.400000005960464,"roughnessFactor":0.272165536880493}},{"alphaMode":"OPAQUE","doubleSided":false,"extras":{"fromFBX":{"isTruePBR":false,"shadingModel":"Phong"}},"name":"glass","pbrMetallicRoughness":{"baseColorFactor":[0.800000011920929,0.800000011920929,0.800000011920929,1],"metallicFactor":0.400000005960464,"roughnessFactor":0.272165536880493}}],"meshes":[{"name":"Vehicle_01_B","primitives":[{"attributes":{"NORMAL":2,"POSITION":1,"TEXCOORD_0":3},"indices":0,"material":0,"mode":4},{"attributes":{"NORMAL":30,"POSITION":29,"TEXCOORD_0":31},"indices":28,"material":1,"mode":4}]},{"name":"Door_04","primitives":[{"attributes":{"NORMAL":6,"POSITION":5,"TEXCOORD_0":7},"indices":4,"material":0,"mode":4},{"attributes":{"NORMAL":34,"POSITION":33,"TEXCOORD_0":35},"indices":32,"material":1,"mode":4}]},{"name":"wheel_06","primitives":[{"attributes":{"NORMAL":10,"POSITION":9,"TEXCOORD_0":11},"indices":8,"material":0,"mode":4}]},{"name":"Door_03","primitives":[{"attributes":{"NORMAL":14,"POSITION":13,"TEXCOORD_0":15},"indices":12,"material":0,"mode":4},{"attributes":{"NORMAL":38,"POSITION":37,"TEXCOORD_0":39},"indices":36,"material":1,"mode":4}]},{"name":"wheel_08","primitives":[{"attributes":{"NORMAL":18,"POSITION":17,"TEXCOORD_0":19},"indices":16,"material":0,"mode":4}]},{"name":"wheel_05","primitives":[{"attributes":{"NORMAL":22,"POSITION":21,"TEXCOORD_0":23},"indices":20,"material":0,"mode":4}]},{"name":"wheel_07","primitives":[{"attributes":{"NORMAL":26,"POSITION":25,"TEXCOORD_0":27},"indices":24,"material":0,"mode":4}]}],"nodes":[{"children":[1,2,3,4,5,6],"mesh":0,"name":"Vehicle_01_B","rotation":[0,0,0,1],"scale":[1,1,1],"translation":[0,0,0]},{"mesh":1,"name":"Door_04","rotation":[0,0,0,1],"scale":[1,1,1],"translation":[-0.45806747674942,0.2946797311306,-0.58176511526108]},{"mesh":2,"name":"wheel_06","rotation":[0,0,0,1],"scale":[1,1,1],"translation":[0.829368889331818,0.103483662009239,0.515075981616974]},{"mesh":3,"name":"Door_03","rotation":[0,0,0,1],"scale":[1,1,1],"translation":[-0.45806747674942,0.2946797311306,0.58176451921463]},{"mesh":4,"name":"wheel_08","rotation":[0,0,0,1],"scale":[1,1,1],"translation":[0.82936954498291,0.103483624756336,-0.51507705450058]},{"mesh":5,"name":"wheel_05","rotation":[0,0,0,1],"scale":[1,1,1],"translation":[-0.86866360902786,0.0870041325688362,0.515075981616974]},{"mesh":6,"name":"wheel_07","rotation":[0,0,0,1],"scale":[1,1,1],"translation":[-0.86866283416748,0.0870040953159332,-0.51507705450058]}],"samplers":[{}],"scene":0,"scenes":[{"name":"Root Scene","nodes":[0]}],"textures":[{"name":"base_color_texture","sampler":0,"source":0}]}