{"accessors":[{"bufferView":0,"byteOffset":0,"componentType":5123,"count":468,"type":"SCALAR"},{"bufferView":1,"byteOffset":0,"componentType":5126,"count":204,"max":[1,0.0318840034306049,1],"min":[-1,-0.02499999850988,-0.99999988079071],"type":"VEC3"},{"bufferView":2,"byteOffset":0,"componentType":5126,"count":204,"type":"VEC3"},{"bufferView":3,"byteOffset":0,"componentType":5126,"count":204,"type":"VEC2"}],"asset":{"generator":"FBX2glTF v0.13.1","version":"2.0"},"bufferViews":[{"buffer":0,"byteLength":936,"byteOffset":0,"target":34963},{"buffer":0,"byteLength":2448,"byteOffset":936,"target":34962},{"buffer":0,"byteLength":2448,"byteOffset":3384,"target":34962},{"buffer":0,"byteLength":1632,"byteOffset":5832,"target":34962}],"buffers":[{"byteLength":7464,"uri":"SM_Road_01_D.bin"}],"images":[{"name":"MainTexture_City_4","uri":"MainTexture_City_4.png"}],"materials":[{"alphaMode":"OPAQUE","doubleSided":false,"extras":{"fromFBX":{"isTruePBR":false,"shadingModel":"Phong"}},"name":"Material.312","pbrMetallicRoughness":{"baseColorFactor":[1,1,1,1],"baseColorTexture":{"index":0,"texCoord":0},"metallicFactor":0.400000005960464,"roughnessFactor":0.140028014779091}}],"meshes":[{"name":"Road_01_D","primitives":[{"attributes":{"NORMAL":2,"POSITION":1,"TEXCOORD_0":3},"indices":0,"material":0,"mode":4}]}],"nodes":[{"mesh":0,"name":"Road_01_D","rotation":[0,0,0,1],"scale":[1,1,1],"translation":[218.461929321289,-0.22750224173069,-191.72607421875]}],"samplers":[{}],"scene":0,"scenes":[{"name":"Root Scene","nodes":[0]}],"textures":[{"name":"base_color_texture","sampler":0,"source":0}]}