{"accessors":[{"bufferView":0,"byteOffset":0,"componentType":5123,"count":372,"type":"SCALAR"},{"bufferView":1,"byteOffset":0,"componentType":5126,"count":224,"max":[1,0.0318840034306049,1],"min":[-1,-0.02499999850988,-1.00000011920929],"type":"VEC3"},{"bufferView":2,"byteOffset":0,"componentType":5126,"count":224,"type":"VEC3"},{"bufferView":3,"byteOffset":0,"componentType":5126,"count":224,"type":"VEC2"}],"asset":{"generator":"FBX2glTF v0.13.1","version":"2.0"},"bufferViews":[{"buffer":0,"byteLength":744,"byteOffset":0,"target":34963},{"buffer":0,"byteLength":2688,"byteOffset":744,"target":34962},{"buffer":0,"byteLength":2688,"byteOffset":3432,"target":34962},{"buffer":0,"byteLength":1792,"byteOffset":6120,"target":34962}],"buffers":[{"byteLength":7912,"uri":"SM_Road_01_C.bin"}],"images":[{"name":"MainTexture_City_4","uri":"MainTexture_City_4.png"}],"materials":[{"alphaMode":"OPAQUE","doubleSided":false,"extras":{"fromFBX":{"isTruePBR":false,"shadingModel":"Phong"}},"name":"Material.209","pbrMetallicRoughness":{"baseColorFactor":[1,1,1,1],"baseColorTexture":{"index":0,"texCoord":0},"metallicFactor":0.400000005960464,"roughnessFactor":0.140028014779091}}],"meshes":[{"name":"Road_01_C","primitives":[{"attributes":{"NORMAL":2,"POSITION":1,"TEXCOORD_0":3},"indices":0,"material":0,"mode":4}]}],"nodes":[{"mesh":0,"name":"Road_01_C","rotation":[0,0,0,1],"scale":[1,1,1],"translation":[227.439208984375,0,-200.337905883789]}],"samplers":[{}],"scene":0,"scenes":[{"name":"Root Scene","nodes":[0]}],"textures":[{"name":"base_color_texture","sampler":0,"source":0}]}