{"accessors":[{"bufferView":0,"byteOffset":0,"componentType":5123,"count":987,"type":"SCALAR"},{"bufferView":1,"byteOffset":0,"componentType":5126,"count":659,"max":[1.00095045566559,0.111327663064003,1.00219118595123],"min":[-1.00262987613678,-0.02499999850988,-1.00174260139465],"type":"VEC3"},{"bufferView":2,"byteOffset":0,"componentType":5126,"count":659,"type":"VEC3"},{"bufferView":3,"byteOffset":0,"componentType":5126,"count":659,"type":"VEC2"}],"asset":{"generator":"FBX2glTF v0.13.1","version":"2.0"},"bufferViews":[{"buffer":0,"byteLength":1974,"byteOffset":0,"target":34963},{"buffer":0,"byteLength":7908,"byteOffset":1976,"target":34962},{"buffer":0,"byteLength":7908,"byteOffset":9884,"target":34962},{"buffer":0,"byteLength":5272,"byteOffset":17792,"target":34962}],"buffers":[{"byteLength":23064,"uri":"SM_Sidewalk_03_C.bin"}],"images":[{"name":"MainTexture_City_4","uri":"MainTexture_City_4.png"}],"materials":[{"alphaMode":"OPAQUE","doubleSided":false,"extras":{"fromFBX":{"isTruePBR":false,"shadingModel":"Phong"}},"name":"Material.214","pbrMetallicRoughness":{"baseColorFactor":[1,1,1,1],"baseColorTexture":{"index":0,"texCoord":0},"metallicFactor":0.400000005960464,"roughnessFactor":0.140028014779091}}],"meshes":[{"name":"Sidewalk_03_C","primitives":[{"attributes":{"NORMAL":2,"POSITION":1,"TEXCOORD_0":3},"indices":0,"material":0,"mode":4}]}],"nodes":[{"mesh":0,"name":"Sidewalk_03_C","rotation":[0,0,0,1],"scale":[1,1,1],"translation":[218.512924194336,0,-200.310546875]}],"samplers":[{}],"scene":0,"scenes":[{"name":"Root Scene","nodes":[0]}],"textures":[{"name":"base_color_texture","sampler":0,"source":0}]}