{"accessors":[{"bufferView":0,"byteOffset":0,"componentType":5123,"count":1071,"type":"SCALAR"},{"bufferView":1,"byteOffset":0,"componentType":5126,"count":701,"max":[1.00000011920929,0.111327663064003,1.00000011920929],"min":[-1.00044572353363,-0.02499999850988,-1.00008964538574],"type":"VEC3"},{"bufferView":2,"byteOffset":0,"componentType":5126,"count":701,"type":"VEC3"},{"bufferView":3,"byteOffset":0,"componentType":5126,"count":701,"type":"VEC2"}],"asset":{"generator":"FBX2glTF v0.13.1","version":"2.0"},"bufferViews":[{"buffer":0,"byteLength":2142,"byteOffset":0,"target":34963},{"buffer":0,"byteLength":8412,"byteOffset":2144,"target":34962},{"buffer":0,"byteLength":8412,"byteOffset":10556,"target":34962},{"buffer":0,"byteLength":5608,"byteOffset":18968,"target":34962}],"buffers":[{"byteLength":24576,"uri":"SM_Sidewalk_04_A.bin"}],"images":[{"name":"MainTexture_City_4","uri":"MainTexture_City_4.png"}],"materials":[{"alphaMode":"OPAQUE","doubleSided":false,"extras":{"fromFBX":{"isTruePBR":false,"shadingModel":"Phong"}},"name":"Material.218","pbrMetallicRoughness":{"baseColorFactor":[1,1,1,1],"baseColorTexture":{"index":0,"texCoord":0},"metallicFactor":0.400000005960464,"roughnessFactor":0.140028014779091}}],"meshes":[{"name":"Sidewalk_04_A","primitives":[{"attributes":{"NORMAL":2,"POSITION":1,"TEXCOORD_0":3},"indices":0,"material":0,"mode":4}]}],"nodes":[{"mesh":0,"name":"Sidewalk_04_A","rotation":[0,0,0,1],"scale":[1,1,1],"translation":[215.710662841797,0,-206.296249389648]}],"samplers":[{}],"scene":0,"scenes":[{"name":"Root Scene","nodes":[0]}],"textures":[{"name":"base_color_texture","sampler":0,"source":0}]}