{"accessors":[{"bufferView":0,"byteOffset":0,"componentType":5123,"count":780,"type":"SCALAR"},{"bufferView":1,"byteOffset":0,"componentType":5126,"count":520,"max":[1.00000011920929,0.111141659319401,1.00000011920929],"min":[-1.00000011920929,-0.02499999850988,-1.00000023841858],"type":"VEC3"},{"bufferView":2,"byteOffset":0,"componentType":5126,"count":520,"type":"VEC3"},{"bufferView":3,"byteOffset":0,"componentType":5126,"count":520,"type":"VEC2"}],"asset":{"generator":"FBX2glTF v0.13.1","version":"2.0"},"bufferViews":[{"buffer":0,"byteLength":1560,"byteOffset":0,"target":34963},{"buffer":0,"byteLength":6240,"byteOffset":1560,"target":34962},{"buffer":0,"byteLength":6240,"byteOffset":7800,"target":34962},{"buffer":0,"byteLength":4160,"byteOffset":14040,"target":34962}],"buffers":[{"byteLength":18200,"uri":"SM_Sidewalk_01_A.bin"}],"images":[{"name":"MainTexture_City_4","uri":"MainTexture_City_4.png"}],"materials":[{"alphaMode":"OPAQUE","doubleSided":false,"extras":{"fromFBX":{"isTruePBR":false,"shadingModel":"Phong"}},"name":"Material.302","pbrMetallicRoughness":{"baseColorFactor":[1,1,1,1],"baseColorTexture":{"index":0,"texCoord":0},"metallicFactor":0.400000005960464,"roughnessFactor":0.140028014779091}}],"meshes":[{"name":"Sidewalk_01_A","primitives":[{"attributes":{"NORMAL":2,"POSITION":1,"TEXCOORD_0":3},"indices":0,"material":0,"mode":4}]}],"nodes":[{"mesh":0,"name":"Sidewalk_01_A","rotation":[0,0,0,1],"scale":[1,1,1],"translation":[224.459838867188,0,-206.330581665039]}],"samplers":[{}],"scene":0,"scenes":[{"name":"Root Scene","nodes":[0]}],"textures":[{"name":"base_color_texture","sampler":0,"source":0}]}