{"accessors":[{"bufferView":0,"byteOffset":0,"componentType":5123,"count":684,"type":"SCALAR"},{"bufferView":1,"byteOffset":0,"componentType":5126,"count":438,"max":[1.00000011920929,0.0320041440427303,1.00000011920929],"min":[-1.00000023841858,-0.02499999850988,-1.00000011920929],"type":"VEC3"},{"bufferView":2,"byteOffset":0,"componentType":5126,"count":438,"type":"VEC3"},{"bufferView":3,"byteOffset":0,"componentType":5126,"count":438,"type":"VEC2"}],"asset":{"generator":"FBX2glTF v0.13.1","version":"2.0"},"bufferViews":[{"buffer":0,"byteLength":1368,"byteOffset":0,"target":34963},{"buffer":0,"byteLength":5256,"byteOffset":1368,"target":34962},{"buffer":0,"byteLength":5256,"byteOffset":6624,"target":34962},{"buffer":0,"byteLength":3504,"byteOffset":11880,"target":34962}],"buffers":[{"byteLength":15384,"uri":"SM_Sidewalk_05_A.bin"}],"images":[{"name":"MainTexture_City_4","uri":"MainTexture_City_4.png"}],"materials":[{"alphaMode":"OPAQUE","doubleSided":false,"extras":{"fromFBX":{"isTruePBR":false,"shadingModel":"Phong"}},"name":"Material.218","pbrMetallicRoughness":{"baseColorFactor":[1,1,1,1],"baseColorTexture":{"index":0,"texCoord":0},"metallicFactor":0.400000005960464,"roughnessFactor":0.140028014779091}}],"meshes":[{"name":"Sidewalk_05_A","primitives":[{"attributes":{"NORMAL":2,"POSITION":1,"TEXCOORD_0":3},"indices":0,"material":0,"mode":4}]}],"nodes":[{"mesh":0,"name":"Sidewalk_05_A","rotation":[0,0,0,1],"scale":[1,1,1],"translation":[212.931854248047,0,-206.24055480957]}],"samplers":[{}],"scene":0,"scenes":[{"name":"Root Scene","nodes":[0]}],"textures":[{"name":"base_color_texture","sampler":0,"source":0}]}