{"accessors":[{"bufferView":0,"byteOffset":0,"componentType":5123,"count":978,"type":"SCALAR"},{"bufferView":1,"byteOffset":0,"componentType":5126,"count":621,"max":[1.00008964538574,0.111327663064003,1.00044918060303],"min":[-1,-0.02499999850988,-1.00000333786011],"type":"VEC3"},{"bufferView":2,"byteOffset":0,"componentType":5126,"count":621,"type":"VEC3"},{"bufferView":3,"byteOffset":0,"componentType":5126,"count":621,"type":"VEC2"}],"asset":{"generator":"FBX2glTF v0.13.1","version":"2.0"},"bufferViews":[{"buffer":0,"byteLength":1956,"byteOffset":0,"target":34963},{"buffer":0,"byteLength":7452,"byteOffset":1956,"target":34962},{"buffer":0,"byteLength":7452,"byteOffset":9408,"target":34962},{"buffer":0,"byteLength":4968,"byteOffset":16860,"target":34962}],"buffers":[{"byteLength":21828,"uri":"SM_Sidewalk_08_B.bin"}],"images":[{"name":"MainTexture_City_4","uri":"MainTexture_City_4.png"}],"materials":[{"alphaMode":"OPAQUE","doubleSided":false,"extras":{"fromFBX":{"isTruePBR":false,"shadingModel":"Phong"}},"name":"Material.219","pbrMetallicRoughness":{"baseColorFactor":[1,1,1,1],"baseColorTexture":{"index":0,"texCoord":0},"metallicFactor":0.400000005960464,"roughnessFactor":0.140028014779091}}],"meshes":[{"name":"Sidewalk_08_B","primitives":[{"attributes":{"NORMAL":2,"POSITION":1,"TEXCOORD_0":3},"indices":0,"material":0,"mode":4}]}],"nodes":[{"mesh":0,"name":"Sidewalk_08_B","rotation":[0,0,0,1],"scale":[1,1,1],"translation":[204.067764282227,0,-203.158294677734]}],"samplers":[{}],"scene":0,"scenes":[{"name":"Root Scene","nodes":[0]}],"textures":[{"name":"base_color_texture","sampler":0,"source":0}]}