{"accessors":[{"bufferView":0,"byteOffset":0,"componentType":5123,"count":1050,"type":"SCALAR"},{"bufferView":1,"byteOffset":0,"componentType":5126,"count":680,"max":[1.00000011920929,0.111443258821964,1.00003230571747],"min":[-1.00000011920929,-0.02499999850988,-1.00000023841858],"type":"VEC3"},{"bufferView":2,"byteOffset":0,"componentType":5126,"count":680,"type":"VEC3"},{"bufferView":3,"byteOffset":0,"componentType":5126,"count":680,"type":"VEC2"}],"asset":{"generator":"FBX2glTF v0.13.1","version":"2.0"},"bufferViews":[{"buffer":0,"byteLength":2100,"byteOffset":0,"target":34963},{"buffer":0,"byteLength":8160,"byteOffset":2100,"target":34962},{"buffer":0,"byteLength":8160,"byteOffset":10260,"target":34962},{"buffer":0,"byteLength":5440,"byteOffset":18420,"target":34962}],"buffers":[{"byteLength":23860,"uri":"SM_Sidewalk_07_B.bin"}],"images":[{"name":"MainTexture_City_4","uri":"MainTexture_City_4.png"}],"materials":[{"alphaMode":"OPAQUE","doubleSided":false,"extras":{"fromFBX":{"isTruePBR":false,"shadingModel":"Phong"}},"name":"Material.220","pbrMetallicRoughness":{"baseColorFactor":[1,1,1,1],"baseColorTexture":{"index":0,"texCoord":0},"metallicFactor":0.400000005960464,"roughnessFactor":0.140028014779091}}],"meshes":[{"name":"Sidewalk_07_B","primitives":[{"attributes":{"NORMAL":2,"POSITION":1,"TEXCOORD_0":3},"indices":0,"material":0,"mode":4}]}],"nodes":[{"mesh":0,"name":"Sidewalk_07_B","rotation":[0,0,0,1],"scale":[1,1,1],"translation":[206.961227416992,0,-203.178253173828]}],"samplers":[{}],"scene":0,"scenes":[{"name":"Root Scene","nodes":[0]}],"textures":[{"name":"base_color_texture","sampler":0,"source":0}]}