{"accessors":[{"bufferView":0,"byteOffset":0,"componentType":5123,"count":672,"type":"SCALAR"},{"bufferView":1,"byteOffset":0,"componentType":5126,"count":412,"max":[1.00031888484955,0.111654557287693,1],"min":[-1.00000011920929,-0.02499999850988,-1.00032830238342],"type":"VEC3"},{"bufferView":2,"byteOffset":0,"componentType":5126,"count":412,"type":"VEC3"},{"bufferView":3,"byteOffset":0,"componentType":5126,"count":412,"type":"VEC2"}],"asset":{"generator":"FBX2glTF v0.13.1","version":"2.0"},"bufferViews":[{"buffer":0,"byteLength":1344,"byteOffset":0,"target":34963},{"buffer":0,"byteLength":4944,"byteOffset":1344,"target":34962},{"buffer":0,"byteLength":4944,"byteOffset":6288,"target":34962},{"buffer":0,"byteLength":3296,"byteOffset":11232,"target":34962}],"buffers":[{"byteLength":14528,"uri":"SM_Sidewalk_02_C.bin"}],"images":[{"name":"MainTexture_City_4","uri":"MainTexture_City_4.png"}],"materials":[{"alphaMode":"OPAQUE","doubleSided":false,"extras":{"fromFBX":{"isTruePBR":false,"shadingModel":"Phong"}},"name":"Material.210","pbrMetallicRoughness":{"baseColorFactor":[1,1,1,1],"baseColorTexture":{"index":0,"texCoord":0},"metallicFactor":0.400000005960464,"roughnessFactor":0.140028014779091}}],"meshes":[{"name":"Sidewalk_02_C","primitives":[{"attributes":{"NORMAL":2,"POSITION":1,"TEXCOORD_0":3},"indices":0,"material":0,"mode":4}]}],"nodes":[{"mesh":0,"name":"Sidewalk_02_C","rotation":[0,0,0,1],"scale":[1,1,1],"translation":[221.509384155273,0,-200.33219909668]}],"samplers":[{}],"scene":0,"scenes":[{"name":"Root Scene","nodes":[0]}],"textures":[{"name":"base_color_texture","sampler":0,"source":0}]}