{"accessors":[{"bufferView":0,"byteOffset":0,"componentType":5123,"count":402,"type":"SCALAR"},{"bufferView":1,"byteOffset":0,"componentType":5126,"count":396,"max":[0.0499970130622387,0.913363099098206,0.0500132106244564],"min":[-0.05605512484908,0.0000000476837129781416,-0.05417151004076],"type":"VEC3"},{"bufferView":2,"byteOffset":0,"componentType":5126,"count":396,"type":"VEC3"},{"bufferView":3,"byteOffset":0,"componentType":5126,"count":396,"type":"VEC2"}],"asset":{"generator":"FBX2glTF v0.13.1","version":"2.0"},"bufferViews":[{"buffer":0,"byteLength":804,"byteOffset":0,"target":34963},{"buffer":0,"byteLength":4752,"byteOffset":804,"target":34962},{"buffer":0,"byteLength":4752,"byteOffset":5556,"target":34962},{"buffer":0,"byteLength":3168,"byteOffset":10308,"target":34962}],"buffers":[{"byteLength":13476,"uri":"SM_Beam_small_E.bin"}],"images":[{"name":"MainTexture_City_4","uri":"MainTexture_City_4.png"}],"materials":[{"alphaMode":"OPAQUE","doubleSided":false,"extras":{"fromFBX":{"isTruePBR":false,"shadingModel":"Phong"}},"name":"Material.108","pbrMetallicRoughness":{"baseColorFactor":[1,1,1,1],"baseColorTexture":{"index":0,"texCoord":0},"metallicFactor":0.400000005960464,"roughnessFactor":0.140028014779091}}],"meshes":[{"name":"Beam_small_E","primitives":[{"attributes":{"NORMAL":2,"POSITION":1,"TEXCOORD_0":3},"indices":0,"material":0,"mode":4}]}],"nodes":[{"mesh":0,"name":"Beam_small_E","rotation":[0,0,0,1],"scale":[1,1,1],"translation":[220.573181152344,-0.99270641803741,-216.275253295898]}],"samplers":[{}],"scene":0,"scenes":[{"name":"Root Scene","nodes":[0]}],"textures":[{"name":"base_color_texture","sampler":0,"source":0}]}