{"accessors":[{"bufferView":0,"byteOffset":0,"componentType":5123,"count":312,"type":"SCALAR"},{"bufferView":1,"byteOffset":0,"componentType":5126,"count":172,"max":[0.0292196627706289,1.17514777183533,0.029219564050436],"min":[-0.02675695903599,-1.12446975708008,-0.0267568230629],"type":"VEC3"},{"bufferView":2,"byteOffset":0,"componentType":5126,"count":172,"type":"VEC3"},{"bufferView":3,"byteOffset":0,"componentType":5126,"count":172,"type":"VEC2"}],"asset":{"generator":"FBX2glTF v0.13.1","version":"2.0"},"bufferViews":[{"buffer":0,"byteLength":624,"byteOffset":0,"target":34963},{"buffer":0,"byteLength":2064,"byteOffset":624,"target":34962},{"buffer":0,"byteLength":2064,"byteOffset":2688,"target":34962},{"buffer":0,"byteLength":1376,"byteOffset":4752,"target":34962}],"buffers":[{"byteLength":6128,"uri":"SM_Beam_04_A.bin"}],"images":[{"name":"MainTexture_City_4","uri":"MainTexture_City_4.png"}],"materials":[{"alphaMode":"OPAQUE","doubleSided":false,"extras":{"fromFBX":{"isTruePBR":false,"shadingModel":"Phong"}},"name":"Material.117","pbrMetallicRoughness":{"baseColorFactor":[1,1,1,1],"baseColorTexture":{"index":0,"texCoord":0},"metallicFactor":0.400000005960464,"roughnessFactor":0.140028014779091}}],"meshes":[{"name":"Beam_04_A","primitives":[{"attributes":{"NORMAL":2,"POSITION":1,"TEXCOORD_0":3},"indices":0,"material":0,"mode":4}]}],"nodes":[{"mesh":0,"name":"Beam_04_A","rotation":[0,0,0,1],"scale":[1,1,1],"translation":[212.486572265625,0.549167454242706,-224.332885742188]}],"samplers":[{}],"scene":0,"scenes":[{"name":"Root Scene","nodes":[0]}],"textures":[{"name":"base_color_texture","sampler":0,"source":0}]}