{"accessors":[{"bufferView":0,"byteOffset":0,"componentType":5123,"count":402,"type":"SCALAR"},{"bufferView":1,"byteOffset":0,"componentType":5126,"count":392,"max":[0.0499999970197678,0.913363099098206,0.0499999970197678],"min":[-0.05605213344097,0.0000000476837129781416,-0.05418471992016],"type":"VEC3"},{"bufferView":2,"byteOffset":0,"componentType":5126,"count":392,"type":"VEC3"},{"bufferView":3,"byteOffset":0,"componentType":5126,"count":392,"type":"VEC2"}],"asset":{"generator":"FBX2glTF v0.13.1","version":"2.0"},"bufferViews":[{"buffer":0,"byteLength":804,"byteOffset":0,"target":34963},{"buffer":0,"byteLength":4704,"byteOffset":804,"target":34962},{"buffer":0,"byteLength":4704,"byteOffset":5508,"target":34962},{"buffer":0,"byteLength":3136,"byteOffset":10212,"target":34962}],"buffers":[{"byteLength":13348,"uri":"SM_Beam_small_A.bin"}],"images":[{"name":"MainTexture_City_4","uri":"MainTexture_City_4.png"}],"materials":[{"alphaMode":"OPAQUE","doubleSided":false,"extras":{"fromFBX":{"isTruePBR":false,"shadingModel":"Phong"}},"name":"Material.134","pbrMetallicRoughness":{"baseColorFactor":[1,1,1,1],"baseColorTexture":{"index":0,"texCoord":0},"metallicFactor":0.400000005960464,"roughnessFactor":0.140028014779091}}],"meshes":[{"name":"Beam_small_A","primitives":[{"attributes":{"NORMAL":2,"POSITION":1,"TEXCOORD_0":3},"indices":0,"material":0,"mode":4}]}],"nodes":[{"mesh":0,"name":"Beam_small_A","rotation":[0,0,0,1],"scale":[1,1,1],"translation":[0,0,-1.56773602962494]}],"samplers":[{}],"scene":0,"scenes":[{"name":"Root Scene","nodes":[0]}],"textures":[{"name":"base_color_texture","sampler":0,"source":0}]}