{"accessors":[{"bufferView":0,"byteOffset":0,"componentType":5123,"count":726,"type":"SCALAR"},{"bufferView":1,"byteOffset":0,"componentType":5126,"count":438,"max":[0.0676560327410698,1.27456140518188,0.0797137916088104],"min":[-0.09588351100683,-1.04094398021698,-0.08350462466478],"type":"VEC3"},{"bufferView":2,"byteOffset":0,"componentType":5126,"count":438,"type":"VEC3"},{"bufferView":3,"byteOffset":0,"componentType":5126,"count":438,"type":"VEC2"}],"asset":{"generator":"FBX2glTF v0.13.1","version":"2.0"},"bufferViews":[{"buffer":0,"byteLength":1452,"byteOffset":0,"target":34963},{"buffer":0,"byteLength":5256,"byteOffset":1452,"target":34962},{"buffer":0,"byteLength":5256,"byteOffset":6708,"target":34962},{"buffer":0,"byteLength":3504,"byteOffset":11964,"target":34962}],"buffers":[{"byteLength":15468,"uri":"SM_Beam_E.bin"}],"images":[{"name":"MainTexture_City_4","uri":"MainTexture_City_4.png"}],"materials":[{"alphaMode":"OPAQUE","doubleSided":false,"extras":{"fromFBX":{"isTruePBR":false,"shadingModel":"Phong"}},"name":"Material.107","pbrMetallicRoughness":{"baseColorFactor":[1,1,1,1],"baseColorTexture":{"index":0,"texCoord":0},"metallicFactor":0.400000005960464,"roughnessFactor":0.140028014779091}}],"meshes":[{"name":"Beam_E","primitives":[{"attributes":{"NORMAL":2,"POSITION":1,"TEXCOORD_0":3},"indices":0,"material":0,"mode":4}]}],"nodes":[{"mesh":0,"name":"Beam_E","rotation":[0,0,0,1],"scale":[1,1,1],"translation":[220.705520629883,-0.59141182899475,-218.785049438477]}],"samplers":[{}],"scene":0,"scenes":[{"name":"Root Scene","nodes":[0]}],"textures":[{"name":"base_color_texture","sampler":0,"source":0}]}