{"accessors":[{"bufferView":0,"byteOffset":0,"componentType":5123,"count":726,"type":"SCALAR"},{"bufferView":1,"byteOffset":0,"componentType":5126,"count":439,"max":[0.0818077549338341,2.31550550460815,0.0816094502806664],"min":[-0.08173178136349,0,-0.08160897344351],"type":"VEC3"},{"bufferView":2,"byteOffset":0,"componentType":5126,"count":439,"type":"VEC3"},{"bufferView":3,"byteOffset":0,"componentType":5126,"count":439,"type":"VEC2"}],"asset":{"generator":"FBX2glTF v0.13.1","version":"2.0"},"bufferViews":[{"buffer":0,"byteLength":1452,"byteOffset":0,"target":34963},{"buffer":0,"byteLength":5268,"byteOffset":1452,"target":34962},{"buffer":0,"byteLength":5268,"byteOffset":6720,"target":34962},{"buffer":0,"byteLength":3512,"byteOffset":11988,"target":34962}],"buffers":[{"byteLength":15500,"uri":"SM_Beam_B.bin"}],"images":[{"name":"MainTexture_City_4","uri":"MainTexture_City_4.png"}],"materials":[{"alphaMode":"OPAQUE","doubleSided":false,"extras":{"fromFBX":{"isTruePBR":false,"shadingModel":"Phong"}},"name":"Material.102","pbrMetallicRoughness":{"baseColorFactor":[1,1,1,1],"baseColorTexture":{"index":0,"texCoord":0},"metallicFactor":0.400000005960464,"roughnessFactor":0.140028014779091}}],"meshes":[{"name":"Beam_B","primitives":[{"attributes":{"NORMAL":2,"POSITION":1,"TEXCOORD_0":3},"indices":0,"material":0,"mode":4}]}],"nodes":[{"mesh":0,"name":"Beam_B","rotation":[0,0,0,1],"scale":[1,1,1],"translation":[220.691375732422,-1.63235592842102,-242.321014404297]}],"samplers":[{}],"scene":0,"scenes":[{"name":"Root Scene","nodes":[0]}],"textures":[{"name":"base_color_texture","sampler":0,"source":0}]}