{"accessors":[{"bufferView":0,"byteOffset":0,"componentType":5123,"count":132,"type":"SCALAR"},{"bufferView":1,"byteOffset":0,"componentType":5126,"count":80,"max":[0.0436631850898266,1.92095959186554,0.44647353887558],"min":[-0.0436618514359,0,-0.44661104679108],"type":"VEC3"},{"bufferView":2,"byteOffset":0,"componentType":5126,"count":80,"type":"VEC3"},{"bufferView":3,"byteOffset":0,"componentType":5126,"count":80,"type":"VEC2"},{"bufferView":4,"byteOffset":0,"componentType":5123,"count":900,"type":"SCALAR"},{"bufferView":5,"byteOffset":0,"componentType":5126,"count":554,"max":[0.108673095703125,1.8770831823349,0.800855696201324],"min":[-0.10898676514625,0,-0.00009359233081],"type":"VEC3"},{"bufferView":6,"byteOffset":0,"componentType":5126,"count":554,"type":"VEC3"},{"bufferView":7,"byteOffset":0,"componentType":5126,"count":554,"type":"VEC2"}],"asset":{"generator":"FBX2glTF v0.13.1","version":"2.0"},"bufferViews":[{"buffer":0,"byteLength":264,"byteOffset":0,"target":34963},{"buffer":0,"byteLength":960,"byteOffset":264,"target":34962},{"buffer":0,"byteLength":960,"byteOffset":1224,"target":34962},{"buffer":0,"byteLength":640,"byteOffset":2184,"target":34962},{"buffer":0,"byteLength":1800,"byteOffset":2824,"target":34963},{"buffer":0,"byteLength":6648,"byteOffset":4624,"target":34962},{"buffer":0,"byteLength":6648,"byteOffset":11272,"target":34962},{"buffer":0,"byteLength":4432,"byteOffset":17920,"target":34962}],"buffers":[{"byteLength":22352,"uri":"SM_Door_03_A.bin"}],"images":[{"name":"MainTexture_City_4","uri":"MainTexture_City_4.png"}],"materials":[{"alphaMode":"OPAQUE","doubleSided":false,"extras":{"fromFBX":{"isTruePBR":false,"shadingModel":"Phong"}},"name":"Material.137","pbrMetallicRoughness":{"baseColorFactor":[1,1,1,1],"baseColorTexture":{"index":0,"texCoord":0},"metallicFactor":0.400000005960464,"roughnessFactor":0.140028014779091}}],"meshes":[{"name":"DoorBox_03_A","primitives":[{"attributes":{"NORMAL":2,"POSITION":1,"TEXCOORD_0":3},"indices":0,"material":0,"mode":4}]},{"name":"Door_03_A","primitives":[{"attributes":{"NORMAL":6,"POSITION":5,"TEXCOORD_0":7},"indices":4,"material":0,"mode":4}]}],"nodes":[{"children":[1],"mesh":0,"name":"DoorBox_03_A","rotation":[0,0,0,1],"scale":[1,1,1],"translation":[0,0,0]},{"mesh":1,"name":"Door_03_A","rotation":[0,0,0,1],"scale":[1,1,1],"translation":[-0.00015258789063,0,-0.39968872070313]}],"samplers":[{}],"scene":0,"scenes":[{"name":"Root Scene","nodes":[0]}],"textures":[{"name":"base_color_texture","sampler":0,"source":0}]}