{"accessors":[{"bufferView":0,"byteOffset":0,"componentType":5123,"count":132,"type":"SCALAR"},{"bufferView":1,"byteOffset":0,"componentType":5126,"count":64,"max":[0.04364013671875,1.92095947265625,0.446487426757812],"min":[-0.04368591308594,0,-0.44659423828125],"type":"VEC3"},{"bufferView":2,"byteOffset":0,"componentType":5126,"count":64,"type":"VEC3"},{"bufferView":3,"byteOffset":0,"componentType":5126,"count":64,"type":"VEC2"},{"bufferView":4,"byteOffset":0,"componentType":5123,"count":900,"type":"SCALAR"},{"bufferView":5,"byteOffset":0,"componentType":5126,"count":556,"max":[0.108663827180862,1.8770831823349,0.800867676734924],"min":[-0.10897951573134,0,-0.00009654462337],"type":"VEC3"},{"bufferView":6,"byteOffset":0,"componentType":5126,"count":556,"type":"VEC3"},{"bufferView":7,"byteOffset":0,"componentType":5126,"count":556,"type":"VEC2"}],"asset":{"generator":"FBX2glTF v0.13.1","version":"2.0"},"bufferViews":[{"buffer":0,"byteLength":264,"byteOffset":0,"target":34963},{"buffer":0,"byteLength":768,"byteOffset":264,"target":34962},{"buffer":0,"byteLength":768,"byteOffset":1032,"target":34962},{"buffer":0,"byteLength":512,"byteOffset":1800,"target":34962},{"buffer":0,"byteLength":1800,"byteOffset":2312,"target":34963},{"buffer":0,"byteLength":6672,"byteOffset":4112,"target":34962},{"buffer":0,"byteLength":6672,"byteOffset":10784,"target":34962},{"buffer":0,"byteLength":4448,"byteOffset":17456,"target":34962}],"buffers":[{"byteLength":21904,"uri":"SM_Door_01_A.bin"}],"images":[{"name":"MainTexture_City_4","uri":"MainTexture_City_4.png"}],"materials":[{"alphaMode":"OPAQUE","doubleSided":false,"extras":{"fromFBX":{"isTruePBR":false,"shadingModel":"Phong"}},"name":"Material.136","pbrMetallicRoughness":{"baseColorFactor":[1,1,1,1],"baseColorTexture":{"index":0,"texCoord":0},"metallicFactor":0.400000005960464,"roughnessFactor":0.140028014779091}}],"meshes":[{"name":"DoorBox_01_A","primitives":[{"attributes":{"NORMAL":2,"POSITION":1,"TEXCOORD_0":3},"indices":0,"material":0,"mode":4}]},{"name":"Door_01_A","primitives":[{"attributes":{"NORMAL":6,"POSITION":5,"TEXCOORD_0":7},"indices":4,"material":0,"mode":4}]}],"nodes":[{"children":[1],"mesh":0,"name":"DoorBox_01_A","rotation":[0,0,0,1],"scale":[1,1,1],"translation":[211.833602905273,0.00498020648956299,-249.392868041992]},{"mesh":1,"name":"Door_01_A","rotation":[0,0,0,1],"scale":[1,1,1],"translation":[0.00070312496973201,-0.0000000590086,-0.39755859971046]}],"samplers":[{}],"scene":0,"scenes":[{"name":"Root Scene","nodes":[0]}],"textures":[{"name":"base_color_texture","sampler":0,"source":0}]}