{"accessors":[{"bufferView":0,"byteOffset":0,"componentType":5123,"count":132,"type":"SCALAR"},{"bufferView":1,"byteOffset":0,"componentType":5126,"count":80,"max":[0.0436625182628632,1.92095947265625,0.446454107761383],"min":[-0.04366251826286,0,-0.44663041830063],"type":"VEC3"},{"bufferView":2,"byteOffset":0,"componentType":5126,"count":80,"type":"VEC3"},{"bufferView":3,"byteOffset":0,"componentType":5126,"count":80,"type":"VEC2"},{"bufferView":4,"byteOffset":0,"componentType":5123,"count":900,"type":"SCALAR"},{"bufferView":5,"byteOffset":0,"componentType":5126,"count":556,"max":[0.109151810407639,1.8770831823349,0.800859272480011],"min":[-0.10854684561491,0,-0.00012079626322],"type":"VEC3"},{"bufferView":6,"byteOffset":0,"componentType":5126,"count":556,"type":"VEC3"},{"bufferView":7,"byteOffset":0,"componentType":5126,"count":556,"type":"VEC2"}],"asset":{"generator":"FBX2glTF v0.13.1","version":"2.0"},"bufferViews":[{"buffer":0,"byteLength":264,"byteOffset":0,"target":34963},{"buffer":0,"byteLength":960,"byteOffset":264,"target":34962},{"buffer":0,"byteLength":960,"byteOffset":1224,"target":34962},{"buffer":0,"byteLength":640,"byteOffset":2184,"target":34962},{"buffer":0,"byteLength":1800,"byteOffset":2824,"target":34963},{"buffer":0,"byteLength":6672,"byteOffset":4624,"target":34962},{"buffer":0,"byteLength":6672,"byteOffset":11296,"target":34962},{"buffer":0,"byteLength":4448,"byteOffset":17968,"target":34962}],"buffers":[{"byteLength":22416,"uri":"SM_Door_02_A.bin"}],"images":[{"name":"MainTexture_City_4","uri":"MainTexture_City_4.png"}],"materials":[{"alphaMode":"OPAQUE","doubleSided":false,"extras":{"fromFBX":{"isTruePBR":false,"shadingModel":"Phong"}},"name":"Material.135","pbrMetallicRoughness":{"baseColorFactor":[1,1,1,1],"baseColorTexture":{"index":0,"texCoord":0},"metallicFactor":0.400000005960464,"roughnessFactor":0.140028014779091}}],"meshes":[{"name":"DoorBox_02_A","primitives":[{"attributes":{"NORMAL":2,"POSITION":1,"TEXCOORD_0":3},"indices":0,"material":0,"mode":4}]},{"name":"Door_02_A","primitives":[{"attributes":{"NORMAL":6,"POSITION":5,"TEXCOORD_0":7},"indices":4,"material":0,"mode":4}]}],"nodes":[{"children":[1],"mesh":0,"name":"DoorBox_02_A","rotation":[0,0,0,1],"scale":[1,1,1],"translation":[212.023056030273,-0.77006435394287,-240.887252807617]},{"mesh":1,"name":"Door_02_A","rotation":[0,0,0,1],"scale":[1,1,1],"translation":[0.00078124995343387,-0.00000007629394,-0.39759764075279]}],"samplers":[{}],"scene":0,"scenes":[{"name":"Root Scene","nodes":[0]}],"textures":[{"name":"base_color_texture","sampler":0,"source":0}]}