{"accessors":[{"bufferView":0,"byteOffset":0,"componentType":5123,"count":84,"type":"SCALAR"},{"bufferView":1,"byteOffset":0,"componentType":5126,"count":46,"max":[0.531855583190918,0.079530380666256,1],"min":[-0.46814450621605,-0.0286773648113,-1],"type":"VEC3"},{"bufferView":2,"byteOffset":0,"componentType":5126,"count":46,"type":"VEC3"},{"bufferView":3,"byteOffset":0,"componentType":5126,"count":46,"type":"VEC2"}],"asset":{"generator":"FBX2glTF v0.13.1","version":"2.0"},"bufferViews":[{"buffer":0,"byteLength":168,"byteOffset":0,"target":34963},{"buffer":0,"byteLength":552,"byteOffset":168,"target":34962},{"buffer":0,"byteLength":552,"byteOffset":720,"target":34962},{"buffer":0,"byteLength":368,"byteOffset":1272,"target":34962}],"buffers":[{"byteLength":1640,"uri":"SM_FloorOutside_03_H.bin"}],"images":[{"name":"MainTexture_City_4","uri":"MainTexture_City_4.png"}],"materials":[{"alphaMode":"OPAQUE","doubleSided":false,"extras":{"fromFBX":{"isTruePBR":false,"shadingModel":"Phong"}},"name":"Material.166","pbrMetallicRoughness":{"baseColorFactor":[1,1,1,1],"baseColorTexture":{"index":0,"texCoord":0},"metallicFactor":0.400000005960464,"roughnessFactor":0.140028014779091}}],"meshes":[{"name":"FloorOutside_03_H","primitives":[{"attributes":{"NORMAL":2,"POSITION":1,"TEXCOORD_0":3},"indices":0,"material":0,"mode":4}]}],"nodes":[{"mesh":0,"name":"FloorOutside_03_H","rotation":[0,0,0,1],"scale":[1,1,1],"translation":[205.692199707031,0.0516567789018154,-232.009994506836]}],"samplers":[{}],"scene":0,"scenes":[{"name":"Root Scene","nodes":[0]}],"textures":[{"name":"base_color_texture","sampler":0,"source":0}]}