{"accessors":[{"bufferView":0,"byteOffset":0,"componentType":5123,"count":1560,"type":"SCALAR"},{"bufferView":1,"byteOffset":0,"componentType":5126,"count":952,"max":[0.0413328632712364,0.350764274597168,1.00641655921936],"min":[-0.04231735318899,-0.41046905517578,-0.99358379840851],"type":"VEC3"},{"bufferView":2,"byteOffset":0,"componentType":5126,"count":952,"type":"VEC3"},{"bufferView":3,"byteOffset":0,"componentType":5126,"count":952,"type":"VEC2"},{"bufferView":4,"byteOffset":0,"componentType":5126,"count":952,"type":"VEC2"}],"asset":{"generator":"FBX2glTF v0.13.1","version":"2.0"},"bufferViews":[{"buffer":0,"byteLength":3120,"byteOffset":0,"target":34963},{"buffer":0,"byteLength":11424,"byteOffset":3120,"target":34962},{"buffer":0,"byteLength":11424,"byteOffset":14544,"target":34962},{"buffer":0,"byteLength":7616,"byteOffset":25968,"target":34962},{"buffer":0,"byteLength":7616,"byteOffset":33584,"target":34962}],"buffers":[{"byteLength":41200,"uri":"SM_Fence_big_A.bin"}],"images":[{"name":"MainTexture_City_4","uri":"MainTexture_City_4.png"}],"materials":[{"alphaMode":"OPAQUE","doubleSided":false,"extras":{"fromFBX":{"isTruePBR":false,"shadingModel":"Phong"}},"name":"Material.134","pbrMetallicRoughness":{"baseColorFactor":[1,1,1,1],"baseColorTexture":{"index":0,"texCoord":0},"metallicFactor":0.400000005960464,"roughnessFactor":0.140028014779091}}],"meshes":[{"name":"Fence_big_A","primitives":[{"attributes":{"NORMAL":2,"POSITION":1,"TEXCOORD_0":3,"TEXCOORD_1":4},"indices":0,"material":0,"mode":4}]}],"nodes":[{"mesh":0,"name":"Fence_big_A","rotation":[0,0,0,1],"scale":[1,1,1],"translation":[220.572372436523,-0.53712058067322,-248.828643798828]}],"samplers":[{}],"scene":0,"scenes":[{"name":"Root Scene","nodes":[0]}],"textures":[{"name":"base_color_texture","sampler":0,"source":0}]}