{"accessors":[{"bufferView":0,"byteOffset":0,"componentType":5123,"count":456,"type":"SCALAR"},{"bufferView":1,"byteOffset":0,"componentType":5126,"count":270,"max":[0.0333983823657036,0.37807685136795,0.444145917892456],"min":[-0.03436751663685,-0.385279327631,-0.44747692346573],"type":"VEC3"},{"bufferView":2,"byteOffset":0,"componentType":5126,"count":270,"type":"VEC3"},{"bufferView":3,"byteOffset":0,"componentType":5126,"count":270,"type":"VEC2"},{"bufferView":4,"byteOffset":0,"componentType":5126,"count":270,"type":"VEC2"}],"asset":{"generator":"FBX2glTF v0.13.1","version":"2.0"},"bufferViews":[{"buffer":0,"byteLength":912,"byteOffset":0,"target":34963},{"buffer":0,"byteLength":3240,"byteOffset":912,"target":34962},{"buffer":0,"byteLength":3240,"byteOffset":4152,"target":34962},{"buffer":0,"byteLength":2160,"byteOffset":7392,"target":34962},{"buffer":0,"byteLength":2160,"byteOffset":9552,"target":34962}],"buffers":[{"byteLength":11712,"uri":"SM_Fence_small_E.bin"}],"images":[{"name":"MainTexture_City_4","uri":"MainTexture_City_4.png"}],"materials":[{"alphaMode":"OPAQUE","doubleSided":false,"extras":{"fromFBX":{"isTruePBR":false,"shadingModel":"Phong"}},"name":"Material.108","pbrMetallicRoughness":{"baseColorFactor":[1,1,1,1],"baseColorTexture":{"index":0,"texCoord":0},"metallicFactor":0.400000005960464,"roughnessFactor":0.140028014779091}}],"meshes":[{"name":"Fence_small_E","primitives":[{"attributes":{"NORMAL":2,"POSITION":1,"TEXCOORD_0":3,"TEXCOORD_1":4},"indices":0,"material":0,"mode":4}]}],"nodes":[{"mesh":0,"name":"Fence_small_E","rotation":[0,0,0,1],"scale":[1,1,1],"translation":[220.571029663086,-0.57072234153748,-215.831832885742]}],"samplers":[{}],"scene":0,"scenes":[{"name":"Root Scene","nodes":[0]}],"textures":[{"name":"base_color_texture","sampler":0,"source":0}]}