{"accessors":[{"bufferView":0,"byteOffset":0,"componentType":5123,"count":144,"type":"SCALAR"},{"bufferView":1,"byteOffset":0,"componentType":5126,"count":82,"max":[1.06528794765472,0.0795841068029404,0.999378561973572],"min":[-0.99937802553177,-0.02862364053726,-1.06528830528259],"type":"VEC3"},{"bufferView":2,"byteOffset":0,"componentType":5126,"count":82,"type":"VEC3"},{"bufferView":3,"byteOffset":0,"componentType":5126,"count":82,"type":"VEC2"}],"asset":{"generator":"FBX2glTF v0.13.1","version":"2.0"},"bufferViews":[{"buffer":0,"byteLength":288,"byteOffset":0,"target":34963},{"buffer":0,"byteLength":984,"byteOffset":288,"target":34962},{"buffer":0,"byteLength":984,"byteOffset":1272,"target":34962},{"buffer":0,"byteLength":656,"byteOffset":2256,"target":34962}],"buffers":[{"byteLength":2912,"uri":"SM_FloorOutside_02_C.bin"}],"images":[{"name":"MainTexture_City_4","uri":"MainTexture_City_4.png"}],"materials":[{"alphaMode":"OPAQUE","doubleSided":false,"extras":{"fromFBX":{"isTruePBR":false,"shadingModel":"Phong"}},"name":"Material.142","pbrMetallicRoughness":{"baseColorFactor":[1,1,1,1],"baseColorTexture":{"index":0,"texCoord":0},"metallicFactor":0.400000005960464,"roughnessFactor":0.140028014779091}}],"meshes":[{"name":"FloorOutside_02_C","primitives":[{"attributes":{"NORMAL":2,"POSITION":1,"TEXCOORD_0":3},"indices":0,"material":0,"mode":4}]}],"nodes":[{"mesh":0,"name":"FloorOutside_02_C","rotation":[0,0,0,1],"scale":[1,1,1],"translation":[208.977432250977,0.00362369860522449,-238.027145385742]}],"samplers":[{}],"scene":0,"scenes":[{"name":"Root Scene","nodes":[0]}],"textures":[{"name":"base_color_texture","sampler":0,"source":0}]}