{"accessors":[{"bufferView":0,"byteOffset":0,"componentType":5123,"count":36,"type":"SCALAR"},{"bufferView":1,"byteOffset":0,"componentType":5126,"count":24,"max":[0.5,0.0249999966472387,0.499999940395355],"min":[-0.5,-0.02499999664724,-0.49999994039536],"type":"VEC3"},{"bufferView":2,"byteOffset":0,"componentType":5126,"count":24,"type":"VEC3"},{"bufferView":3,"byteOffset":0,"componentType":5126,"count":24,"type":"VEC2"}],"asset":{"generator":"FBX2glTF v0.13.1","version":"2.0"},"bufferViews":[{"buffer":0,"byteLength":72,"byteOffset":0,"target":34963},{"buffer":0,"byteLength":288,"byteOffset":72,"target":34962},{"buffer":0,"byteLength":288,"byteOffset":360,"target":34962},{"buffer":0,"byteLength":192,"byteOffset":648,"target":34962}],"buffers":[{"byteLength":840,"uri":"SM_FloorOutside_05_J.bin"}],"images":[{"name":"MainTexture_City_4","uri":"MainTexture_City_4.png"}],"materials":[{"alphaMode":"OPAQUE","doubleSided":false,"extras":{"fromFBX":{"isTruePBR":false,"shadingModel":"Phong"}},"name":"Material.174","pbrMetallicRoughness":{"baseColorFactor":[1,1,1,1],"baseColorTexture":{"index":0,"texCoord":0},"metallicFactor":0.400000005960464,"roughnessFactor":0.140028014779091}}],"meshes":[{"name":"FloorOutside_05_J","primitives":[{"attributes":{"NORMAL":2,"POSITION":1,"TEXCOORD_0":3},"indices":0,"material":0,"mode":4}]}],"nodes":[{"mesh":0,"name":"FloorOutside_05_J","rotation":[0,0,0,1],"scale":[1,1,1],"translation":[204.475524902344,0.0479794107377529,-215.851364135742]}],"samplers":[{}],"scene":0,"scenes":[{"name":"Root Scene","nodes":[0]}],"textures":[{"name":"base_color_texture","sampler":0,"source":0}]}