{"accessors":[{"bufferView":0,"byteOffset":0,"componentType":5123,"count":246,"type":"SCALAR"},{"bufferView":1,"byteOffset":0,"componentType":5126,"count":135,"max":[1.03272008895874,0.0778200775384903,0.469243586063385],"min":[-0.96727979183197,-0.03038766048849,-0.53075748682022],"type":"VEC3"},{"bufferView":2,"byteOffset":0,"componentType":5126,"count":135,"type":"VEC3"},{"bufferView":3,"byteOffset":0,"componentType":5126,"count":135,"type":"VEC2"}],"asset":{"generator":"FBX2glTF v0.13.1","version":"2.0"},"bufferViews":[{"buffer":0,"byteLength":492,"byteOffset":0,"target":34963},{"buffer":0,"byteLength":1620,"byteOffset":492,"target":34962},{"buffer":0,"byteLength":1620,"byteOffset":2112,"target":34962},{"buffer":0,"byteLength":1080,"byteOffset":3732,"target":34962}],"buffers":[{"byteLength":4812,"uri":"SM_FloorOutside_01_F.bin"}],"images":[{"name":"MainTexture_City_4","uri":"MainTexture_City_4.png"}],"materials":[{"alphaMode":"OPAQUE","doubleSided":false,"extras":{"fromFBX":{"isTruePBR":false,"shadingModel":"Phong"}},"name":"Material.237","pbrMetallicRoughness":{"baseColorFactor":[1,1,1,1],"baseColorTexture":{"index":0,"texCoord":0},"metallicFactor":0.400000005960464,"roughnessFactor":0.140028014779091}}],"meshes":[{"name":"FloorOutside_01_F","primitives":[{"attributes":{"NORMAL":2,"POSITION":1,"TEXCOORD_0":3},"indices":0,"material":0,"mode":4}]}],"nodes":[{"mesh":0,"name":"FloorOutside_01_F","rotation":[0,0,0,1],"scale":[1,1,1],"translation":[206.191345214844,0.053367093205452,-246.09880065918]}],"samplers":[{}],"scene":0,"scenes":[{"name":"Root Scene","nodes":[0]}],"textures":[{"name":"base_color_texture","sampler":0,"source":0}]}