{"accessors":[{"bufferView":0,"byteOffset":0,"componentType":5123,"count":246,"type":"SCALAR"},{"bufferView":1,"byteOffset":0,"componentType":5126,"count":136,"max":[0.469243496656418,0.0778200700879097,1.03271996974945],"min":[-0.53075742721558,-0.03038765862584,-0.96727973222733],"type":"VEC3"},{"bufferView":2,"byteOffset":0,"componentType":5126,"count":136,"type":"VEC3"},{"bufferView":3,"byteOffset":0,"componentType":5126,"count":136,"type":"VEC2"}],"asset":{"generator":"FBX2glTF v0.13.1","version":"2.0"},"bufferViews":[{"buffer":0,"byteLength":492,"byteOffset":0,"target":34963},{"buffer":0,"byteLength":1632,"byteOffset":492,"target":34962},{"buffer":0,"byteLength":1632,"byteOffset":2124,"target":34962},{"buffer":0,"byteLength":1088,"byteOffset":3756,"target":34962}],"buffers":[{"byteLength":4844,"uri":"SM_FloorOutside_02_D.bin"}],"images":[{"name":"MainTexture_City_4","uri":"MainTexture_City_4.png"}],"materials":[{"alphaMode":"OPAQUE","doubleSided":false,"extras":{"fromFBX":{"isTruePBR":false,"shadingModel":"Phong"}},"name":"Material.161","pbrMetallicRoughness":{"baseColorFactor":[1,1,1,1],"baseColorTexture":{"index":0,"texCoord":0},"metallicFactor":0.400000005960464,"roughnessFactor":0.140028014779091}}],"meshes":[{"name":"FloorOutside_02_D","primitives":[{"attributes":{"NORMAL":2,"POSITION":1,"TEXCOORD_0":3},"indices":0,"material":0,"mode":4}]}],"nodes":[{"mesh":0,"name":"FloorOutside_02_D","rotation":[0,0,0,1],"scale":[1,1,1],"translation":[206.754821777344,0.053367093205452,-241.211776733398]}],"samplers":[{}],"scene":0,"scenes":[{"name":"Root Scene","nodes":[0]}],"textures":[{"name":"base_color_texture","sampler":0,"source":0}]}