{"accessors":[{"bufferView":0,"byteOffset":0,"componentType":5123,"count":246,"type":"SCALAR"},{"bufferView":1,"byteOffset":0,"componentType":5126,"count":137,"max":[0.46924352645874,0.0778200775384903,1.03272008895874],"min":[-0.53075748682022,-0.03038766048849,-0.96727979183197],"type":"VEC3"},{"bufferView":2,"byteOffset":0,"componentType":5126,"count":137,"type":"VEC3"},{"bufferView":3,"byteOffset":0,"componentType":5126,"count":137,"type":"VEC2"}],"asset":{"generator":"FBX2glTF v0.13.1","version":"2.0"},"bufferViews":[{"buffer":0,"byteLength":492,"byteOffset":0,"target":34963},{"buffer":0,"byteLength":1644,"byteOffset":492,"target":34962},{"buffer":0,"byteLength":1644,"byteOffset":2136,"target":34962},{"buffer":0,"byteLength":1096,"byteOffset":3780,"target":34962}],"buffers":[{"byteLength":4876,"uri":"SM_FloorOutside_05_D.bin"}],"images":[{"name":"MainTexture_City_4","uri":"MainTexture_City_4.png"}],"materials":[{"alphaMode":"OPAQUE","doubleSided":false,"extras":{"fromFBX":{"isTruePBR":false,"shadingModel":"Phong"}},"name":"Material.176","pbrMetallicRoughness":{"baseColorFactor":[1,1,1,1],"baseColorTexture":{"index":0,"texCoord":0},"metallicFactor":0.400000005960464,"roughnessFactor":0.140028014779091}}],"meshes":[{"name":"FloorOutside_05_D","primitives":[{"attributes":{"NORMAL":2,"POSITION":1,"TEXCOORD_0":3},"indices":0,"material":0,"mode":4}]}],"nodes":[{"mesh":0,"name":"FloorOutside_05_D","rotation":[0,0,0,1],"scale":[1,1,1],"translation":[206.754821777344,0.053367093205452,-218.053176879883]}],"samplers":[{}],"scene":0,"scenes":[{"name":"Root Scene","nodes":[0]}],"textures":[{"name":"base_color_texture","sampler":0,"source":0}]}