{"accessors":[{"bufferView":0,"byteOffset":0,"componentType":5123,"count":1560,"type":"SCALAR"},{"bufferView":1,"byteOffset":0,"componentType":5126,"count":950,"max":[0.0418926551938057,0.37404203414917,0.950177609920502],"min":[-0.04175755754113,-0.38719129562378,-1.04982268810272],"type":"VEC3"},{"bufferView":2,"byteOffset":0,"componentType":5126,"count":950,"type":"VEC3"},{"bufferView":3,"byteOffset":0,"componentType":5126,"count":950,"type":"VEC2"},{"bufferView":4,"byteOffset":0,"componentType":5126,"count":950,"type":"VEC2"}],"asset":{"generator":"FBX2glTF v0.13.1","version":"2.0"},"bufferViews":[{"buffer":0,"byteLength":3120,"byteOffset":0,"target":34963},{"buffer":0,"byteLength":11400,"byteOffset":3120,"target":34962},{"buffer":0,"byteLength":11400,"byteOffset":14520,"target":34962},{"buffer":0,"byteLength":7600,"byteOffset":25920,"target":34962},{"buffer":0,"byteLength":7600,"byteOffset":33520,"target":34962}],"buffers":[{"byteLength":41120,"uri":"SM_Fence_big_E.bin"}],"images":[{"name":"MainTexture_City_4","uri":"MainTexture_City_4.png"}],"materials":[{"alphaMode":"OPAQUE","doubleSided":false,"extras":{"fromFBX":{"isTruePBR":false,"shadingModel":"Phong"}},"name":"Material.108","pbrMetallicRoughness":{"baseColorFactor":[1,1,1,1],"baseColorTexture":{"index":0,"texCoord":0},"metallicFactor":0.400000005960464,"roughnessFactor":0.140028014779091}}],"meshes":[{"name":"Fence_big_E","primitives":[{"attributes":{"NORMAL":2,"POSITION":1,"TEXCOORD_0":3,"TEXCOORD_1":4},"indices":0,"material":0,"mode":4}]}],"nodes":[{"mesh":0,"name":"Fence_big_E","rotation":[0,0,0,1],"scale":[1,1,1],"translation":[220.571807861328,-0.56039834022522,-217.258682250977]}],"samplers":[{}],"scene":0,"scenes":[{"name":"Root Scene","nodes":[0]}],"textures":[{"name":"base_color_texture","sampler":0,"source":0}]}