{"accessors":[{"bufferView":0,"byteOffset":0,"componentType":5123,"count":708,"type":"SCALAR"},{"bufferView":1,"byteOffset":0,"componentType":5126,"count":400,"max":[1.00032722949982,0.934943199157715,0.733462035655975],"min":[-0.99967265129089,-0.48295584321022,-1.36653780937195],"type":"VEC3"},{"bufferView":2,"byteOffset":0,"componentType":5126,"count":400,"type":"VEC3"},{"bufferView":3,"byteOffset":0,"componentType":5126,"count":400,"type":"VEC2"}],"asset":{"generator":"FBX2glTF v0.13.1","version":"2.0"},"bufferViews":[{"buffer":0,"byteLength":1416,"byteOffset":0,"target":34963},{"buffer":0,"byteLength":4800,"byteOffset":1416,"target":34962},{"buffer":0,"byteLength":4800,"byteOffset":6216,"target":34962},{"buffer":0,"byteLength":3200,"byteOffset":11016,"target":34962}],"buffers":[{"byteLength":14216,"uri":"SM_Roof_01_C.bin"}],"images":[{"name":"MainTexture_City_4","uri":"MainTexture_City_4.png"}],"materials":[{"alphaMode":"OPAQUE","doubleSided":false,"extras":{"fromFBX":{"isTruePBR":false,"shadingModel":"Phong"}},"name":"Material.131","pbrMetallicRoughness":{"baseColorFactor":[1,1,1,1],"baseColorTexture":{"index":0,"texCoord":0},"metallicFactor":0.400000005960464,"roughnessFactor":0.140028014779091}}],"meshes":[{"name":"Roof_01_C","primitives":[{"attributes":{"NORMAL":2,"POSITION":1,"TEXCOORD_0":3},"indices":0,"material":0,"mode":4}]}],"nodes":[{"mesh":0,"name":"Roof_01_C","rotation":[0,0,0,1],"scale":[1,1,1],"translation":[228.916030883789,-0.31988710165024,-250.085693359375]}],"samplers":[{}],"scene":0,"scenes":[{"name":"Root Scene","nodes":[0]}],"textures":[{"name":"base_color_texture","sampler":0,"source":0}]}