{"accessors":[{"bufferView":0,"byteOffset":0,"componentType":5123,"count":36,"type":"SCALAR"},{"bufferView":1,"byteOffset":0,"componentType":5126,"count":26,"max":[0.834715247154236,0.5482137799263,1.26528513431549],"min":[-1.26528513431549,-0.18573571741581,-0.83471524715424],"type":"VEC3"},{"bufferView":2,"byteOffset":0,"componentType":5126,"count":26,"type":"VEC3"},{"bufferView":3,"byteOffset":0,"componentType":5126,"count":26,"type":"VEC2"}],"asset":{"generator":"FBX2glTF v0.13.1","version":"2.0"},"bufferViews":[{"buffer":0,"byteLength":72,"byteOffset":0,"target":34963},{"buffer":0,"byteLength":312,"byteOffset":72,"target":34962},{"buffer":0,"byteLength":312,"byteOffset":384,"target":34962},{"buffer":0,"byteLength":208,"byteOffset":696,"target":34962}],"buffers":[{"byteLength":904,"uri":"SM_Roof_05_I.bin"}],"images":[{"name":"MainTexture_City_4","uri":"MainTexture_City_4.png"}],"materials":[{"alphaMode":"OPAQUE","doubleSided":false,"extras":{"fromFBX":{"isTruePBR":false,"shadingModel":"Phong"}},"name":"Material.098","pbrMetallicRoughness":{"baseColorFactor":[1,1,1,1],"baseColorTexture":{"index":0,"texCoord":0},"metallicFactor":0.400000005960464,"roughnessFactor":0.140028014779091}}],"meshes":[{"name":"Roof_05_I","primitives":[{"attributes":{"NORMAL":2,"POSITION":1,"TEXCOORD_0":3},"indices":0,"material":0,"mode":4}]}],"nodes":[{"mesh":0,"name":"Roof_05_I","rotation":[0,0,0,1],"scale":[1,1,1],"translation":[224.320449829102,-0.58581012487411,-214.43229675293]}],"samplers":[{}],"scene":0,"scenes":[{"name":"Root Scene","nodes":[0]}],"textures":[{"name":"base_color_texture","sampler":0,"source":0}]}