{"accessors":[{"bufferView":0,"byteOffset":0,"componentType":5123,"count":708,"type":"SCALAR"},{"bufferView":1,"byteOffset":0,"componentType":5126,"count":404,"max":[1.00032734870911,0.93494313955307,0.733461916446686],"min":[-0.99967259168625,-0.48295587301254,-1.36653780937195],"type":"VEC3"},{"bufferView":2,"byteOffset":0,"componentType":5126,"count":404,"type":"VEC3"},{"bufferView":3,"byteOffset":0,"componentType":5126,"count":404,"type":"VEC2"}],"asset":{"generator":"FBX2glTF v0.13.1","version":"2.0"},"bufferViews":[{"buffer":0,"byteLength":1416,"byteOffset":0,"target":34963},{"buffer":0,"byteLength":4848,"byteOffset":1416,"target":34962},{"buffer":0,"byteLength":4848,"byteOffset":6264,"target":34962},{"buffer":0,"byteLength":3232,"byteOffset":11112,"target":34962}],"buffers":[{"byteLength":14344,"uri":"SM_Roof_05_C.bin"}],"images":[{"name":"MainTexture_City_4","uri":"MainTexture_City_4.png"}],"materials":[{"alphaMode":"OPAQUE","doubleSided":false,"extras":{"fromFBX":{"isTruePBR":false,"shadingModel":"Phong"}},"name":"Material.099","pbrMetallicRoughness":{"baseColorFactor":[1,1,1,1],"baseColorTexture":{"index":0,"texCoord":0},"metallicFactor":0.400000005960464,"roughnessFactor":0.140028014779091}}],"meshes":[{"name":"Roof_05_C","primitives":[{"attributes":{"NORMAL":2,"POSITION":1,"TEXCOORD_0":3},"indices":0,"material":0,"mode":4}]}],"nodes":[{"mesh":0,"name":"Roof_05_C","rotation":[0,0,0,1],"scale":[1,1,1],"translation":[228.916030883789,-0.31988704204559,-218.416015625]}],"samplers":[{}],"scene":0,"scenes":[{"name":"Root Scene","nodes":[0]}],"textures":[{"name":"base_color_texture","sampler":0,"source":0}]}