{"accessors":[{"bufferView":0,"byteOffset":0,"componentType":5123,"count":36,"type":"SCALAR"},{"bufferView":1,"byteOffset":0,"componentType":5126,"count":28,"max":[0.881494522094727,0.88290011882782,0.881494641304016],"min":[-1.11849915981293,-0.53499960899353,-1.11849892139435],"type":"VEC3"},{"bufferView":2,"byteOffset":0,"componentType":5126,"count":28,"type":"VEC3"},{"bufferView":3,"byteOffset":0,"componentType":5126,"count":28,"type":"VEC2"}],"asset":{"generator":"FBX2glTF v0.13.1","version":"2.0"},"bufferViews":[{"buffer":0,"byteLength":72,"byteOffset":0,"target":34963},{"buffer":0,"byteLength":336,"byteOffset":72,"target":34962},{"buffer":0,"byteLength":336,"byteOffset":408,"target":34962},{"buffer":0,"byteLength":224,"byteOffset":744,"target":34962}],"buffers":[{"byteLength":968,"uri":"SM_Roof_01_F.bin"}],"images":[{"name":"MainTexture_City_4","uri":"MainTexture_City_4.png"}],"materials":[{"alphaMode":"OPAQUE","doubleSided":false,"extras":{"fromFBX":{"isTruePBR":false,"shadingModel":"Phong"}},"name":"Material.133","pbrMetallicRoughness":{"baseColorFactor":[1,1,1,1],"baseColorTexture":{"index":0,"texCoord":0},"metallicFactor":0.400000005960464,"roughnessFactor":0.140028014779091}}],"meshes":[{"name":"Roof_01_F","primitives":[{"attributes":{"NORMAL":2,"POSITION":1,"TEXCOORD_0":3},"indices":0,"material":0,"mode":4}]}],"nodes":[{"mesh":0,"name":"Roof_01_F","rotation":[0,0,0,1],"scale":[1,1,1],"translation":[226.724761962891,-0.18178629875183,-247.988647460938]}],"samplers":[{}],"scene":0,"scenes":[{"name":"Root Scene","nodes":[0]}],"textures":[{"name":"base_color_texture","sampler":0,"source":0}]}