{"accessors":[{"bufferView":0,"byteOffset":0,"componentType":5123,"count":36,"type":"SCALAR"},{"bufferView":1,"byteOffset":0,"componentType":5126,"count":28,"max":[1.28655970096588,1.06218898296356,1.2865594625473],"min":[-0.81344044208527,-0.35571002960205,-0.81344056129456],"type":"VEC3"},{"bufferView":2,"byteOffset":0,"componentType":5126,"count":28,"type":"VEC3"},{"bufferView":3,"byteOffset":0,"componentType":5126,"count":28,"type":"VEC2"}],"asset":{"generator":"FBX2glTF v0.13.1","version":"2.0"},"bufferViews":[{"buffer":0,"byteLength":72,"byteOffset":0,"target":34963},{"buffer":0,"byteLength":336,"byteOffset":72,"target":34962},{"buffer":0,"byteLength":336,"byteOffset":408,"target":34962},{"buffer":0,"byteLength":224,"byteOffset":744,"target":34962}],"buffers":[{"byteLength":968,"uri":"SM_Roof_04_B.bin"}],"images":[{"name":"MainTexture_City_4","uri":"MainTexture_City_4.png"}],"materials":[{"alphaMode":"OPAQUE","doubleSided":false,"extras":{"fromFBX":{"isTruePBR":false,"shadingModel":"Phong"}},"name":"Material.094","pbrMetallicRoughness":{"baseColorFactor":[1,1,1,1],"baseColorTexture":{"index":0,"texCoord":0},"metallicFactor":0.400000005960464,"roughnessFactor":0.140028014779091}}],"meshes":[{"name":"Roof_04_B","primitives":[{"attributes":{"NORMAL":2,"POSITION":1,"TEXCOORD_0":3},"indices":0,"material":0,"mode":4}]}],"nodes":[{"mesh":0,"name":"Roof_04_B","rotation":[0,0,0,1],"scale":[1,1,1],"translation":[231.009368896484,-0.43529713153839,-222.059295654297]}],"samplers":[{}],"scene":0,"scenes":[{"name":"Root Scene","nodes":[0]}],"textures":[{"name":"base_color_texture","sampler":0,"source":0}]}