{"accessors":[{"bufferView":0,"byteOffset":0,"componentType":5123,"count":96,"type":"SCALAR"},{"bufferView":1,"byteOffset":0,"componentType":5126,"count":58,"max":[1,1.21083664894104,0.99999988079071],"min":[-0.99999982118607,-0.89101248979569,-1],"type":"VEC3"},{"bufferView":2,"byteOffset":0,"componentType":5126,"count":58,"type":"VEC3"},{"bufferView":3,"byteOffset":0,"componentType":5126,"count":58,"type":"VEC2"}],"asset":{"generator":"FBX2glTF v0.13.1","version":"2.0"},"bufferViews":[{"buffer":0,"byteLength":192,"byteOffset":0,"target":34963},{"buffer":0,"byteLength":696,"byteOffset":192,"target":34962},{"buffer":0,"byteLength":696,"byteOffset":888,"target":34962},{"buffer":0,"byteLength":464,"byteOffset":1584,"target":34962}],"buffers":[{"byteLength":2048,"uri":"SM_Roof_02_A.bin"}],"images":[{"name":"MainTexture_City_4","uri":"MainTexture_City_4.png"}],"materials":[{"alphaMode":"OPAQUE","doubleSided":false,"extras":{"fromFBX":{"isTruePBR":false,"shadingModel":"Phong"}},"name":"Material.088","pbrMetallicRoughness":{"baseColorFactor":[1,1,1,1],"baseColorTexture":{"index":0,"texCoord":0},"metallicFactor":0.400000005960464,"roughnessFactor":0.140028014779091}}],"meshes":[{"name":"Roof_02_A","primitives":[{"attributes":{"NORMAL":2,"POSITION":1,"TEXCOORD_0":3},"indices":0,"material":0,"mode":4}]}],"nodes":[{"mesh":0,"name":"Roof_02_A","rotation":[0,0,0,1],"scale":[1,1,1],"translation":[231.191284179688,0.106068335473537,-240.146087646484]}],"samplers":[{}],"scene":0,"scenes":[{"name":"Root Scene","nodes":[0]}],"textures":[{"name":"base_color_texture","sampler":0,"source":0}]}