{"accessors":[{"bufferView":0,"byteOffset":0,"componentType":5123,"count":96,"type":"SCALAR"},{"bufferView":1,"byteOffset":0,"componentType":5126,"count":68,"max":[1.00000023841858,1.23991751670837,1.02510273456573],"min":[-1,-0.86193144321442,-0.97489750385284],"type":"VEC3"},{"bufferView":2,"byteOffset":0,"componentType":5126,"count":68,"type":"VEC3"},{"bufferView":3,"byteOffset":0,"componentType":5126,"count":68,"type":"VEC2"}],"asset":{"generator":"FBX2glTF v0.13.1","version":"2.0"},"bufferViews":[{"buffer":0,"byteLength":192,"byteOffset":0,"target":34963},{"buffer":0,"byteLength":816,"byteOffset":192,"target":34962},{"buffer":0,"byteLength":816,"byteOffset":1008,"target":34962},{"buffer":0,"byteLength":544,"byteOffset":1824,"target":34962}],"buffers":[{"byteLength":2368,"uri":"SM_Roof_05_D.bin"}],"images":[{"name":"MainTexture_City_4","uri":"MainTexture_City_4.png"}],"materials":[{"alphaMode":"OPAQUE","doubleSided":false,"extras":{"fromFBX":{"isTruePBR":false,"shadingModel":"Phong"}},"name":"Material.099","pbrMetallicRoughness":{"baseColorFactor":[1,1,1,1],"baseColorTexture":{"index":0,"texCoord":0},"metallicFactor":0.400000005960464,"roughnessFactor":0.140028014779091}}],"meshes":[{"name":"Roof_05_D","primitives":[{"attributes":{"NORMAL":2,"POSITION":1,"TEXCOORD_0":3},"indices":0,"material":0,"mode":4}]}],"nodes":[{"mesh":0,"name":"Roof_05_D","rotation":[0,0,0,1],"scale":[1,1,1],"translation":[228.901031494141,0.0769872888922691,-216.476379394531]}],"samplers":[{}],"scene":0,"scenes":[{"name":"Root Scene","nodes":[0]}],"textures":[{"name":"base_color_texture","sampler":0,"source":0}]}