{"accessors":[{"bufferView":0,"byteOffset":0,"componentType":5123,"count":906,"type":"SCALAR"},{"bufferView":1,"byteOffset":0,"componentType":5126,"count":571,"max":[1.50021982192993,2.29961752891541,0.486005872488022],"min":[-1.5002806186676,0,-0.48600205779076],"type":"VEC3"},{"bufferView":2,"byteOffset":0,"componentType":5126,"count":571,"type":"VEC3"},{"bufferView":3,"byteOffset":0,"componentType":5126,"count":571,"type":"VEC2"}],"asset":{"generator":"FBX2glTF v0.13.1","version":"2.0"},"bufferViews":[{"buffer":0,"byteLength":1812,"byteOffset":0,"target":34963},{"buffer":0,"byteLength":6852,"byteOffset":1812,"target":34962},{"buffer":0,"byteLength":6852,"byteOffset":8664,"target":34962},{"buffer":0,"byteLength":4568,"byteOffset":15516,"target":34962}],"buffers":[{"byteLength":20084,"uri":"SM_Stairs_03_A.bin"}],"images":[{"name":"MainTexture_City_4","uri":"MainTexture_City_4.png"}],"materials":[{"alphaMode":"OPAQUE","doubleSided":false,"extras":{"fromFBX":{"isTruePBR":false,"shadingModel":"Phong"}},"name":"Material.308","pbrMetallicRoughness":{"baseColorFactor":[1,1,1,1],"baseColorTexture":{"index":0,"texCoord":0},"metallicFactor":0.400000005960464,"roughnessFactor":0.140028014779091}}],"meshes":[{"name":"Stairs_03_A","primitives":[{"attributes":{"NORMAL":2,"POSITION":1,"TEXCOORD_0":3},"indices":0,"material":0,"mode":4}]}],"nodes":[{"mesh":0,"name":"Stairs_03_A","rotation":[0,0,0,1],"scale":[1,1,1],"translation":[218.930465698242,-0.5674546957016,-249.246459960938]}],"samplers":[{}],"scene":0,"scenes":[{"name":"Root Scene","nodes":[0]}],"textures":[{"name":"base_color_texture","sampler":0,"source":0}]}