{"accessors":[{"bufferView":0,"byteOffset":0,"componentType":5123,"count":468,"type":"SCALAR"},{"bufferView":1,"byteOffset":0,"componentType":5126,"count":312,"max":[1.0967515707016,1.18479990959167,0.468172520399094],"min":[-1.07877731323242,-1.2140793800354,-0.46715891361237],"type":"VEC3"},{"bufferView":2,"byteOffset":0,"componentType":5126,"count":312,"type":"VEC3"},{"bufferView":3,"byteOffset":0,"componentType":5126,"count":312,"type":"VEC2"},{"bufferView":4,"byteOffset":0,"componentType":5126,"count":312,"type":"VEC2"}],"asset":{"generator":"FBX2glTF v0.13.1","version":"2.0"},"bufferViews":[{"buffer":0,"byteLength":936,"byteOffset":0,"target":34963},{"buffer":0,"byteLength":3744,"byteOffset":936,"target":34962},{"buffer":0,"byteLength":3744,"byteOffset":4680,"target":34962},{"buffer":0,"byteLength":2496,"byteOffset":8424,"target":34962},{"buffer":0,"byteLength":2496,"byteOffset":10920,"target":34962}],"buffers":[{"byteLength":13416,"uri":"SM_Stairs_01_B.bin"}],"images":[{"name":"MainTexture_City_4","uri":"MainTexture_City_4.png"}],"materials":[{"alphaMode":"OPAQUE","doubleSided":false,"extras":{"fromFBX":{"isTruePBR":false,"shadingModel":"Phong"}},"name":"Material.101","pbrMetallicRoughness":{"baseColorFactor":[1,1,1,1],"baseColorTexture":{"index":0,"texCoord":0},"metallicFactor":0.400000005960464,"roughnessFactor":0.140028014779091}}],"meshes":[{"name":"Stairs_01_B","primitives":[{"attributes":{"NORMAL":2,"POSITION":1,"TEXCOORD_0":3,"TEXCOORD_1":4},"indices":0,"material":0,"mode":4}]}],"nodes":[{"mesh":0,"name":"Stairs_01_B","rotation":[0,0,0,1],"scale":[1,1,1],"translation":[220.033706665039,-0.40151941776276,-238.345916748047]}],"samplers":[{}],"scene":0,"scenes":[{"name":"Root Scene","nodes":[0]}],"textures":[{"name":"base_color_texture","sampler":0,"source":0}]}