{"accessors":[{"bufferView":0,"byteOffset":0,"componentType":5123,"count":126,"type":"SCALAR"},{"bufferView":1,"byteOffset":0,"componentType":5126,"count":72,"max":[0.524462878704071,1.2492253780365,0.524524867534637],"min":[0.4684739112854,-1.05039238929749,-1.47547996044159],"type":"VEC3"},{"bufferView":2,"byteOffset":0,"componentType":5126,"count":72,"type":"VEC3"},{"bufferView":3,"byteOffset":0,"componentType":5126,"count":72,"type":"VEC2"},{"bufferView":4,"byteOffset":0,"componentType":5123,"count":108,"type":"SCALAR"},{"bufferView":5,"byteOffset":0,"componentType":5126,"count":61,"max":[0.524462878704071,1.2492253780365,0.524524867534637],"min":[-1.47553658485413,-1.05039238929749,0.468549519777298],"type":"VEC3"},{"bufferView":6,"byteOffset":0,"componentType":5126,"count":61,"type":"VEC3"},{"bufferView":7,"byteOffset":0,"componentType":5126,"count":61,"type":"VEC2"}],"asset":{"generator":"FBX2glTF v0.13.1","version":"2.0"},"bufferViews":[{"buffer":0,"byteLength":252,"byteOffset":0,"target":34963},{"buffer":0,"byteLength":864,"byteOffset":252,"target":34962},{"buffer":0,"byteLength":864,"byteOffset":1116,"target":34962},{"buffer":0,"byteLength":576,"byteOffset":1980,"target":34962},{"buffer":0,"byteLength":216,"byteOffset":2556,"target":34963},{"buffer":0,"byteLength":732,"byteOffset":2772,"target":34962},{"buffer":0,"byteLength":732,"byteOffset":3504,"target":34962},{"buffer":0,"byteLength":488,"byteOffset":4236,"target":34962}],"buffers":[{"byteLength":4724,"uri":"SM_Wall_01_E.bin"}],"images":[{"name":"MainTexture_City_4","uri":"MainTexture_City_4.png"}],"materials":[{"alphaMode":"OPAQUE","doubleSided":false,"extras":{"fromFBX":{"isTruePBR":false,"shadingModel":"Phong"}},"name":"Material.128","pbrMetallicRoughness":{"baseColorFactor":[1,1,1,1],"baseColorTexture":{"index":0,"texCoord":0},"metallicFactor":0.400000005960464,"roughnessFactor":0.140028014779091}},{"alphaMode":"OPAQUE","doubleSided":false,"extras":{"fromFBX":{"isTruePBR":false,"shadingModel":"Phong"}},"name":"Material.127","pbrMetallicRoughness":{"baseColorFactor":[1,1,1,1],"baseColorTexture":{"index":0,"texCoord":0},"metallicFactor":0.400000005960464,"roughnessFactor":0.140028014779091}}],"meshes":[{"name":"Wall_01_E","primitives":[{"attributes":{"NORMAL":2,"POSITION":1,"TEXCOORD_0":3},"indices":0,"material":0,"mode":4},{"attributes":{"NORMAL":6,"POSITION":5,"TEXCOORD_0":7},"indices":4,"material":1,"mode":4}]}],"nodes":[{"mesh":0,"name":"Wall_01_E","rotation":[0,0,0,1],"scale":[1,1,1],"translation":[215.325073242188,-0.11496793478727,-246.215774536133]}],"samplers":[{}],"scene":0,"scenes":[{"name":"Root Scene","nodes":[0]}],"textures":[{"name":"base_color_texture","sampler":0,"source":0}]}