{"accessors":[{"bufferView":0,"byteOffset":0,"componentType":5123,"count":348,"type":"SCALAR"},{"bufferView":1,"byteOffset":0,"componentType":5126,"count":206,"max":[0.0337058939039707,1.13625240325928,1.00164484977722],"min":[-0.02295840904117,-1.16336488723755,-0.99835515022278],"type":"VEC3"},{"bufferView":2,"byteOffset":0,"componentType":5126,"count":206,"type":"VEC3"},{"bufferView":3,"byteOffset":0,"componentType":5126,"count":206,"type":"VEC2"}],"asset":{"generator":"FBX2glTF v0.13.1","version":"2.0"},"bufferViews":[{"buffer":0,"byteLength":696,"byteOffset":0,"target":34963},{"buffer":0,"byteLength":2472,"byteOffset":696,"target":34962},{"buffer":0,"byteLength":2472,"byteOffset":3168,"target":34962},{"buffer":0,"byteLength":1648,"byteOffset":5640,"target":34962}],"buffers":[{"byteLength":7288,"uri":"SM_Wall_05_D.bin"}],"images":[{"name":"MainTexture_City_4","uri":"MainTexture_City_4.png"}],"materials":[{"alphaMode":"OPAQUE","doubleSided":false,"extras":{"fromFBX":{"isTruePBR":false,"shadingModel":"Phong"}},"name":"Material.118","pbrMetallicRoughness":{"baseColorFactor":[1,1,1,1],"baseColorTexture":{"index":0,"texCoord":0},"metallicFactor":0.400000005960464,"roughnessFactor":0.140028014779091}}],"meshes":[{"name":"Wall_05_D","primitives":[{"attributes":{"NORMAL":2,"POSITION":1,"TEXCOORD_0":3},"indices":0,"material":0,"mode":4}]}],"nodes":[{"mesh":0,"name":"Wall_05_D","rotation":[0,0,0,1],"scale":[1,1,1],"translation":[215.827102661133,0.0568355917930603,-218.172592163086]}],"samplers":[{}],"scene":0,"scenes":[{"name":"Root Scene","nodes":[0]}],"textures":[{"name":"base_color_texture","sampler":0,"source":0}]}