{"accessors":[{"bufferView":0,"byteOffset":0,"componentType":5123,"count":240,"type":"SCALAR"},{"bufferView":1,"byteOffset":0,"componentType":5126,"count":152,"max":[0.0326761566102505,1.31664347648621,1.00425326824188],"min":[-0.02329924143851,-0.98297423124313,-0.99574673175812],"type":"VEC3"},{"bufferView":2,"byteOffset":0,"componentType":5126,"count":152,"type":"VEC3"},{"bufferView":3,"byteOffset":0,"componentType":5126,"count":152,"type":"VEC2"}],"asset":{"generator":"FBX2glTF v0.13.1","version":"2.0"},"bufferViews":[{"buffer":0,"byteLength":480,"byteOffset":0,"target":34963},{"buffer":0,"byteLength":1824,"byteOffset":480,"target":34962},{"buffer":0,"byteLength":1824,"byteOffset":2304,"target":34962},{"buffer":0,"byteLength":1216,"byteOffset":4128,"target":34962}],"buffers":[{"byteLength":5344,"uri":"SM_Wall_05_B.bin"}],"images":[{"name":"MainTexture_City_4","uri":"MainTexture_City_4.png"}],"materials":[{"alphaMode":"OPAQUE","doubleSided":false,"extras":{"fromFBX":{"isTruePBR":false,"shadingModel":"Phong"}},"name":"Material.118","pbrMetallicRoughness":{"baseColorFactor":[1,1,1,1],"baseColorTexture":{"index":0,"texCoord":0},"metallicFactor":0.400000005960464,"roughnessFactor":0.140028014779091}}],"meshes":[{"name":"Wall_05_B","primitives":[{"attributes":{"NORMAL":2,"POSITION":1,"TEXCOORD_0":3},"indices":0,"material":0,"mode":4}]}],"nodes":[{"mesh":0,"name":"Wall_05_B","rotation":[0,0,0,1],"scale":[1,1,1],"translation":[217.811767578125,-0.15737022459507,-215.779541015625]}],"samplers":[{}],"scene":0,"scenes":[{"name":"Root Scene","nodes":[0]}],"textures":[{"name":"base_color_texture","sampler":0,"source":0}]}