{"accessors":[{"bufferView":0,"byteOffset":0,"componentType":5123,"count":156,"type":"SCALAR"},{"bufferView":1,"byteOffset":0,"componentType":5126,"count":73,"max":[0.0327629186213017,1.24803853034973,1.00000011920929],"min":[-0.02321047335863,-1.05157923698425,-1],"type":"VEC3"},{"bufferView":2,"byteOffset":0,"componentType":5126,"count":73,"type":"VEC3"},{"bufferView":3,"byteOffset":0,"componentType":5126,"count":73,"type":"VEC2"}],"asset":{"generator":"FBX2glTF v0.13.1","version":"2.0"},"bufferViews":[{"buffer":0,"byteLength":312,"byteOffset":0,"target":34963},{"buffer":0,"byteLength":876,"byteOffset":312,"target":34962},{"buffer":0,"byteLength":876,"byteOffset":1188,"target":34962},{"buffer":0,"byteLength":584,"byteOffset":2064,"target":34962}],"buffers":[{"byteLength":2648,"uri":"SM_Wall_04_A.bin"}],"images":[{"name":"MainTexture_City_4","uri":"MainTexture_City_4.png"}],"materials":[{"alphaMode":"OPAQUE","doubleSided":false,"extras":{"fromFBX":{"isTruePBR":false,"shadingModel":"Phong"}},"name":"Material.117","pbrMetallicRoughness":{"baseColorFactor":[1,1,1,1],"baseColorTexture":{"index":0,"texCoord":0},"metallicFactor":0.400000005960464,"roughnessFactor":0.140028014779091}}],"meshes":[{"name":"Wall_04_A","primitives":[{"attributes":{"NORMAL":2,"POSITION":1,"TEXCOORD_0":3},"indices":0,"material":0,"mode":4}]}],"nodes":[{"mesh":0,"name":"Wall_04_A","rotation":[0,0,0,1],"scale":[1,1,1],"translation":[217.862884521484,-0.01978397369385,-225.697296142578]}],"samplers":[{}],"scene":0,"scenes":[{"name":"Root Scene","nodes":[0]}],"textures":[{"name":"base_color_texture","sampler":0,"source":0}]}