{"accessors":[{"bufferView":0,"byteOffset":0,"componentType":5123,"count":576,"type":"SCALAR"},{"bufferView":1,"byteOffset":0,"componentType":5126,"count":250,"max":[0.0591441839933395,0.715247571468353,0.984099090099335],"min":[-0.05740355700254,-0.69391530752182,-0.92963665723801],"type":"VEC3"},{"bufferView":2,"byteOffset":0,"componentType":5126,"count":250,"type":"VEC3"},{"bufferView":3,"byteOffset":0,"componentType":5126,"count":250,"type":"VEC2"},{"bufferView":4,"byteOffset":0,"componentType":5123,"count":36,"type":"SCALAR"},{"bufferView":5,"byteOffset":0,"componentType":5126,"count":24,"max":[0.0232117772102356,0.697505414485931,0.966445744037628],"min":[-0.01567145623267,-0.68224442005158,-0.90703338384628],"type":"VEC3"},{"bufferView":6,"byteOffset":0,"componentType":5126,"count":24,"type":"VEC3"},{"bufferView":7,"byteOffset":0,"componentType":5126,"count":24,"type":"VEC2"}],"asset":{"generator":"FBX2glTF v0.13.1","version":"2.0"},"bufferViews":[{"buffer":0,"byteLength":1152,"byteOffset":0,"target":34963},{"buffer":0,"byteLength":3000,"byteOffset":1152,"target":34962},{"buffer":0,"byteLength":3000,"byteOffset":4152,"target":34962},{"buffer":0,"byteLength":2000,"byteOffset":7152,"target":34962},{"buffer":0,"byteLength":72,"byteOffset":9152,"target":34963},{"buffer":0,"byteLength":288,"byteOffset":9224,"target":34962},{"buffer":0,"byteLength":288,"byteOffset":9512,"target":34962},{"buffer":0,"byteLength":192,"byteOffset":9800,"target":34962}],"buffers":[{"byteLength":9992,"uri":"SM_Window_02_B.bin"}],"images":[{"name":"MainTexture_City_4","uri":"MainTexture_City_4.png"}],"materials":[{"alphaMode":"OPAQUE","doubleSided":false,"extras":{"fromFBX":{"isTruePBR":false,"shadingModel":"Phong"}},"name":"Material.183","pbrMetallicRoughness":{"baseColorFactor":[1,1,1,1],"baseColorTexture":{"index":0,"texCoord":0},"metallicFactor":0.400000005960464,"roughnessFactor":0.140028014779091}},{"alphaMode":"OPAQUE","doubleSided":false,"extras":{"fromFBX":{"isTruePBR":false,"shadingModel":"Phong"}},"name":"Glass.016","pbrMetallicRoughness":{"baseColorFactor":[0.364632904529572,0.488288849592209,0.800000071525574,1],"metallicFactor":0.400000005960464,"roughnessFactor":1}}],"meshes":[{"name":"Window_02_B","primitives":[{"attributes":{"NORMAL":2,"POSITION":1,"TEXCOORD_0":3},"indices":0,"material":0,"mode":4},{"attributes":{"NORMAL":6,"POSITION":5,"TEXCOORD_0":7},"indices":4,"material":1,"mode":4}]}],"nodes":[{"mesh":0,"name":"Window_02_B","rotation":[0,0,0,1],"scale":[1,1,1],"translation":[211.932998657227,-0.04627609997988,-237.890594482422]}],"samplers":[{}],"scene":0,"scenes":[{"name":"Root Scene","nodes":[0]}],"textures":[{"name":"base_color_texture","sampler":0,"source":0}]}