{"accessors":[{"bufferView":0,"byteOffset":0,"componentType":5123,"count":240,"type":"SCALAR"},{"bufferView":1,"byteOffset":0,"componentType":5126,"count":200,"max":[0.0326761566102505,1.31664347648621,1.00425326824188],"min":[-0.02329924143851,-0.98297423124313,-0.99574673175812],"type":"VEC3"},{"bufferView":2,"byteOffset":0,"componentType":5126,"count":200,"type":"VEC3"},{"bufferView":3,"byteOffset":0,"componentType":5126,"count":200,"type":"VEC2"}],"asset":{"generator":"FBX2glTF v0.13.1","version":"2.0"},"bufferViews":[{"buffer":0,"byteLength":480,"byteOffset":0,"target":34963},{"buffer":0,"byteLength":2400,"byteOffset":480,"target":34962},{"buffer":0,"byteLength":2400,"byteOffset":2880,"target":34962},{"buffer":0,"byteLength":1600,"byteOffset":5280,"target":34962}],"buffers":[{"byteLength":6880,"uri":"SM_Wall_03_C.bin"}],"images":[{"name":"MainTexture_City_4","uri":"MainTexture_City_4.png"}],"materials":[{"alphaMode":"OPAQUE","doubleSided":false,"extras":{"fromFBX":{"isTruePBR":false,"shadingModel":"Phong"}},"name":"Material.181","pbrMetallicRoughness":{"baseColorFactor":[1,1,1,1],"baseColorTexture":{"index":0,"texCoord":0},"metallicFactor":0.400000005960464,"roughnessFactor":0.140028014779091}}],"meshes":[{"name":"Wall_03_C","primitives":[{"attributes":{"NORMAL":2,"POSITION":1,"TEXCOORD_0":3},"indices":0,"material":0,"mode":4}]}],"nodes":[{"mesh":0,"name":"Wall_03_C","rotation":[0,0,0,1],"scale":[1,1,1],"translation":[216.932159423828,-0.15737022459507,-230.799240112305]}],"samplers":[{}],"scene":0,"scenes":[{"name":"Root Scene","nodes":[0]}],"textures":[{"name":"base_color_texture","sampler":0,"source":0}]}