{"accessors":[{"bufferView":0,"byteOffset":0,"componentType":5123,"count":297,"type":"SCALAR"},{"bufferView":1,"byteOffset":0,"componentType":5126,"count":249,"max":[0.0278872046619654,1.14980864524841,1.00000011920929],"min":[-0.0280881896615,-1.14980912208557,-0.99999988079071],"type":"VEC3"},{"bufferView":2,"byteOffset":0,"componentType":5126,"count":249,"type":"VEC3"},{"bufferView":3,"byteOffset":0,"componentType":5126,"count":249,"type":"VEC2"}],"asset":{"generator":"FBX2glTF v0.13.1","version":"2.0"},"bufferViews":[{"buffer":0,"byteLength":594,"byteOffset":0,"target":34963},{"buffer":0,"byteLength":2988,"byteOffset":596,"target":34962},{"buffer":0,"byteLength":2988,"byteOffset":3584,"target":34962},{"buffer":0,"byteLength":1992,"byteOffset":6572,"target":34962}],"buffers":[{"byteLength":8564,"uri":"SM_Wall_01_C.bin"}],"images":[{"name":"MainTexture_City_4","uri":"MainTexture_City_4.png"}],"materials":[{"alphaMode":"OPAQUE","doubleSided":false,"extras":{"fromFBX":{"isTruePBR":false,"shadingModel":"Phong"}},"name":"Material.185","pbrMetallicRoughness":{"baseColorFactor":[1,1,1,1],"baseColorTexture":{"index":0,"texCoord":0},"metallicFactor":0.400000005960464,"roughnessFactor":0.140028014779091}}],"meshes":[{"name":"Wall_01_C","primitives":[{"attributes":{"NORMAL":2,"POSITION":1,"TEXCOORD_0":3},"indices":0,"material":0,"mode":4}]}],"nodes":[{"mesh":0,"name":"Wall_01_C","rotation":[0,0,0,1],"scale":[1,1,1],"translation":[-0.70487385988235,-0.00000017881393,-0.00000007450581]}],"samplers":[{}],"scene":0,"scenes":[{"name":"Root Scene","nodes":[0]}],"textures":[{"name":"base_color_texture","sampler":0,"source":0}]}