{"accessors":[{"bufferView":0,"byteOffset":0,"componentType":5123,"count":660,"type":"SCALAR"},{"bufferView":1,"byteOffset":0,"componentType":5126,"count":318,"max":[0.0591441839933395,0.715247571468353,0.349658221006393],"min":[-0.05740355700254,-0.69391530752182,-0.35034170746803],"type":"VEC3"},{"bufferView":2,"byteOffset":0,"componentType":5126,"count":318,"type":"VEC3"},{"bufferView":3,"byteOffset":0,"componentType":5126,"count":318,"type":"VEC2"},{"bufferView":4,"byteOffset":0,"componentType":5123,"count":36,"type":"SCALAR"},{"bufferView":5,"byteOffset":0,"componentType":5126,"count":24,"max":[0.0232117772102356,0.697505414485931,0.332004874944687],"min":[-0.01567145623267,-0.68224442005158,-0.3277382850647],"type":"VEC3"},{"bufferView":6,"byteOffset":0,"componentType":5126,"count":24,"type":"VEC3"},{"bufferView":7,"byteOffset":0,"componentType":5126,"count":24,"type":"VEC2"}],"asset":{"generator":"FBX2glTF v0.13.1","version":"2.0"},"bufferViews":[{"buffer":0,"byteLength":1320,"byteOffset":0,"target":34963},{"buffer":0,"byteLength":3816,"byteOffset":1320,"target":34962},{"buffer":0,"byteLength":3816,"byteOffset":5136,"target":34962},{"buffer":0,"byteLength":2544,"byteOffset":8952,"target":34962},{"buffer":0,"byteLength":72,"byteOffset":11496,"target":34963},{"buffer":0,"byteLength":288,"byteOffset":11568,"target":34962},{"buffer":0,"byteLength":288,"byteOffset":11856,"target":34962},{"buffer":0,"byteLength":192,"byteOffset":12144,"target":34962}],"buffers":[{"byteLength":12336,"uri":"SM_Window_04_A.bin"}],"images":[{"name":"MainTexture_City_4","uri":"MainTexture_City_4.png"}],"materials":[{"alphaMode":"OPAQUE","doubleSided":false,"extras":{"fromFBX":{"isTruePBR":false,"shadingModel":"Phong"}},"name":"Material.138","pbrMetallicRoughness":{"baseColorFactor":[1,1,1,1],"baseColorTexture":{"index":0,"texCoord":0},"metallicFactor":0.400000005960464,"roughnessFactor":0.140028014779091}},{"alphaMode":"OPAQUE","doubleSided":false,"extras":{"fromFBX":{"isTruePBR":false,"shadingModel":"Phong"}},"name":"Glass.011","pbrMetallicRoughness":{"baseColorFactor":[0.364632904529572,0.488288849592209,0.800000071525574,1],"metallicFactor":0.400000005960464,"roughnessFactor":1}}],"meshes":[{"name":"Window_04_A","primitives":[{"attributes":{"NORMAL":2,"POSITION":1,"TEXCOORD_0":3},"indices":0,"material":0,"mode":4},{"attributes":{"NORMAL":6,"POSITION":5,"TEXCOORD_0":7},"indices":4,"material":1,"mode":4}]}],"nodes":[{"mesh":0,"name":"Window_04_A","rotation":[0,0,0,1],"scale":[1,1,1],"translation":[212.015441894531,-0.07979702949524,-223.84162902832]}],"samplers":[{}],"scene":0,"scenes":[{"name":"Root Scene","nodes":[0]}],"textures":[{"name":"base_color_texture","sampler":0,"source":0}]}