{"accessors":[{"bufferView":0,"byteOffset":0,"componentType":5123,"count":276,"type":"SCALAR"},{"bufferView":1,"byteOffset":0,"componentType":5126,"count":164,"max":[1.05935657024384,1.04536163806915,1.22323942184448],"min":[-1.05935657024384,-1,-1.22323942184448],"type":"VEC3"},{"bufferView":2,"byteOffset":0,"componentType":5126,"count":164,"type":"VEC3"},{"bufferView":3,"byteOffset":0,"componentType":5126,"count":164,"type":"VEC2"}],"asset":{"generator":"FBX2glTF v0.13.1","version":"2.0"},"bufferViews":[{"buffer":0,"byteLength":552,"byteOffset":0,"target":34963},{"buffer":0,"byteLength":1968,"byteOffset":552,"target":34962},{"buffer":0,"byteLength":1968,"byteOffset":2520,"target":34962},{"buffer":0,"byteLength":1312,"byteOffset":4488,"target":34962}],"buffers":[{"byteLength":5800,"uri":"SM_Cap_01_C.bin"}],"images":[{"name":"Polygon_Camping_Texture","uri":"Polygon_Camping_Texture.jpg"}],"materials":[{"alphaMode":"OPAQUE","doubleSided":false,"extras":{"fromFBX":{"isTruePBR":false,"shadingModel":"Phong"}},"name":"icecream_buckets.011","pbrMetallicRoughness":{"baseColorFactor":[1,1,1,1],"baseColorTexture":{"index":0,"texCoord":0},"metallicFactor":0.400000005960464,"roughnessFactor":0.229415729641914}}],"meshes":[{"name":"Cap_01_C","primitives":[{"attributes":{"NORMAL":2,"POSITION":1,"TEXCOORD_0":3},"indices":0,"material":0,"mode":4}]}],"nodes":[{"mesh":0,"name":"Cap_01_C","rotation":[0,0,0,1],"scale":[0.0476808361709118,0.0648448094725609,0.0476808361709118],"translation":[-3.28845596313477,0.20536895096302,-0.32103174924851]}],"samplers":[{}],"scene":0,"scenes":[{"name":"Root Scene","nodes":[0]}],"textures":[{"name":"base_color_texture","sampler":0,"source":0}]}