{"accessors":[{"bufferView":0,"byteOffset":0,"componentType":5123,"count":9042,"type":"SCALAR"},{"bufferView":1,"byteOffset":0,"componentType":5126,"count":5055,"max":[0.690158128738403,1.24413847923279,0.745497524738312],"min":[-1.19469773769379,-0.77177375555038,-0.74549752473831],"type":"VEC3"},{"bufferView":2,"byteOffset":0,"componentType":5126,"count":5055,"type":"VEC3"},{"bufferView":3,"byteOffset":0,"componentType":5126,"count":5055,"type":"VEC2"},{"bufferView":4,"byteOffset":0,"componentType":5123,"count":3060,"type":"SCALAR"},{"bufferView":5,"byteOffset":0,"componentType":5126,"count":1980,"max":[0.259630292654037,0.259630411863327,0.648347854614258],"min":[-0.25963056087494,-0.25963041186333,-0.64834785461426],"type":"VEC3"},{"bufferView":6,"byteOffset":0,"componentType":5126,"count":1980,"type":"VEC3"},{"bufferView":7,"byteOffset":0,"componentType":5126,"count":1980,"type":"VEC2"},{"bufferView":8,"byteOffset":0,"componentType":5123,"count":156,"type":"SCALAR"},{"bufferView":9,"byteOffset":0,"componentType":5126,"count":100,"max":[0.0946483239531517,0.0132605573162436,0.270802706480026],"min":[-0.09464830905199,-0.01527362409979,-0.27080270648003],"type":"VEC3"},{"bufferView":10,"byteOffset":0,"componentType":5126,"count":100,"type":"VEC3"},{"bufferView":11,"byteOffset":0,"componentType":5126,"count":100,"type":"VEC2"},{"bufferView":12,"byteOffset":0,"componentType":5123,"count":156,"type":"SCALAR"},{"bufferView":13,"byteOffset":0,"componentType":5126,"count":100,"max":[0.0946483239531517,0.0132605573162436,0.270802706480026],"min":[-0.09464830905199,-0.01527362409979,-0.27080270648003],"type":"VEC3"},{"bufferView":14,"byteOffset":0,"componentType":5126,"count":100,"type":"VEC3"},{"bufferView":15,"byteOffset":0,"componentType":5126,"count":100,"type":"VEC2"},{"bufferView":16,"byteOffset":0,"componentType":5123,"count":156,"type":"SCALAR"},{"bufferView":17,"byteOffset":0,"componentType":5126,"count":100,"max":[0.0946483239531517,0.0132605573162436,0.270802706480026],"min":[-0.09464830905199,-0.01527362409979,-0.27080270648003],"type":"VEC3"},{"bufferView":18,"byteOffset":0,"componentType":5126,"count":100,"type":"VEC3"},{"bufferView":19,"byteOffset":0,"componentType":5126,"count":100,"type":"VEC2"},{"bufferView":20,"byteOffset":0,"componentType":5123,"count":204,"type":"SCALAR"},{"bufferView":21,"byteOffset":0,"componentType":5126,"count":88,"max":[0.119034186005592,0.0130138890817761,0.269632190465927],"min":[-0.11903431266546,-0.0152708850801,-0.26963222026825],"type":"VEC3"},{"bufferView":22,"byteOffset":0,"componentType":5126,"count":88,"type":"VEC3"},{"bufferView":23,"byteOffset":0,"componentType":5126,"count":88,"type":"VEC2"},{"bufferView":24,"byteOffset":0,"componentType":5123,"count":36,"type":"SCALAR"},{"bufferView":25,"byteOffset":0,"componentType":5126,"count":24,"max":[1.90384089946747,0.951920628547668,0.0175453424453735],"min":[-0.00000005960464,-0.95192044973373,0],"type":"VEC3"},{"bufferView":26,"byteOffset":0,"componentType":5126,"count":24,"type":"VEC3"},{"bufferView":27,"byteOffset":0,"componentType":5126,"count":24,"type":"VEC2"}],"asset":{"generator":"FBX2glTF v0.13.1","version":"2.0"},"bufferViews":[{"buffer":0,"byteLength":18084,"byteOffset":0,"target":34963},{"buffer":0,"byteLength":60660,"byteOffset":18084,"target":34962},{"buffer":0,"byteLength":60660,"byteOffset":78744,"target":34962},{"buffer":0,"byteLength":40440,"byteOffset":139404,"target":34962},{"buffer":0,"byteLength":6120,"byteOffset":179844,"target":34963},{"buffer":0,"byteLength":23760,"byteOffset":185964,"target":34962},{"buffer":0,"byteLength":23760,"byteOffset":209724,"target":34962},{"buffer":0,"byteLength":15840,"byteOffset":233484,"target":34962},{"buffer":0,"byteLength":312,"byteOffset":249324,"target":34963},{"buffer":0,"byteLength":1200,"byteOffset":249636,"target":34962},{"buffer":0,"byteLength":1200,"byteOffset":250836,"target":34962},{"buffer":0,"byteLength":800,"byteOffset":252036,"target":34962},{"buffer":0,"byteLength":312,"byteOffset":252836,"target":34963},{"buffer":0,"byteLength":1200,"byteOffset":253148,"target":34962},{"buffer":0,"byteLength":1200,"byteOffset":254348,"target":34962},{"buffer":0,"byteLength":800,"byteOffset":255548,"target":34962},{"buffer":0,"byteLength":312,"byteOffset":256348,"target":34963},{"buffer":0,"byteLength":1200,"byteOffset":256660,"target":34962},{"buffer":0,"byteLength":1200,"byteOffset":257860,"target":34962},{"buffer":0,"byteLength":800,"byteOffset":259060,"target":34962},{"buffer":0,"byteLength":408,"byteOffset":259860,"target":34963},{"buffer":0,"byteLength":1056,"byteOffset":260268,"target":34962},{"buffer":0,"byteLength":1056,"byteOffset":261324,"target":34962},{"buffer":0,"byteLength":704,"byteOffset":262380,"target":34962},{"buffer":0,"byteLength":72,"byteOffset":263084,"target":34963},{"buffer":0,"byteLength":288,"byteOffset":263156,"target":34962},{"buffer":0,"byteLength":288,"byteOffset":263444,"target":34962},{"buffer":0,"byteLength":192,"byteOffset":263732,"target":34962}],"buffers":[{"byteLength":263924,"uri":"SM_HotDogStation.bin"}],"images":[{"name":"Polygon_Camping_Texture","uri":"Polygon_Camping_Texture.jpg"}],"materials":[{"alphaMode":"OPAQUE","doubleSided":false,"extras":{"fromFBX":{"isTruePBR":false,"shadingModel":"Phong"}},"name":"icecream_buckets","pbrMetallicRoughness":{"baseColorFactor":[1,1,1,1],"baseColorTexture":{"index":0,"texCoord":0},"metallicFactor":0.400000005960464,"roughnessFactor":0.229415729641914}}],"meshes":[{"name":"лавка для хот-догов","primitives":[{"attributes":{"NORMAL":2,"POSITION":1,"TEXCOORD_0":3},"indices":0,"material":0,"mode":4}]},{"name":"Circle","primitives":[{"attributes":{"NORMAL":6,"POSITION":5,"TEXCOORD_0":7},"indices":4,"material":0,"mode":4}]},{"name":"крышка.002","primitives":[{"attributes":{"NORMAL":10,"POSITION":9,"TEXCOORD_0":11},"indices":8,"material":0,"mode":4}]},{"name":"крышка.003","primitives":[{"attributes":{"NORMAL":14,"POSITION":13,"TEXCOORD_0":15},"indices":12,"material":0,"mode":4}]},{"name":"крышка","primitives":[{"attributes":{"NORMAL":18,"POSITION":17,"TEXCOORD_0":19},"indices":16,"material":0,"mode":4}]},{"name":"крышка.001","primitives":[{"attributes":{"NORMAL":22,"POSITION":21,"TEXCOORD_0":23},"indices":20,"material":0,"mode":4}]},{"name":"Cube.003","primitives":[{"attributes":{"NORMAL":26,"POSITION":25,"TEXCOORD_0":27},"indices":24,"material":0,"mode":4}]}],"nodes":[{"children":[1,2,3,4,5,6],"mesh":0,"name":"лавка для хот-догов","rotation":[0,0,0,1],"scale":[1,1,1],"translation":[-4.14491081237793,0,0]},{"mesh":1,"name":"Circle","rotation":[0,0,0,1],"scale":[1,1,1],"translation":[-0.61362946033478,-0.513427734375,-0.00000001490116]},{"mesh":2,"name":"крышка.002","rotation":[0,0,0,1],"scale":[1,1,1],"translation":[-0.09741607308388,0.257937848567963,-0.13322167098522]},{"mesh":3,"name":"крышка.003","rotation":[0,0,0,1],"scale":[1,1,1],"translation":[0.0990054309368134,0.259504050016403,-0.13322167098522]},{"mesh":4,"name":"крышка","rotation":[0,0,0,1],"scale":[1,1,1],"translation":[0.30197662115097,0.261070251464844,-0.13322167098522]},{"mesh":5,"name":"крышка.001","rotation":[0,0,0,1],"scale":[1,1,1],"translation":[-0.31499451398849,0.257935106754303,-0.13322165608406]},{"mesh":6,"name":"Cube.003","rotation":[0,-0.19159065186977,0,0.981474936008453],"scale":[0.247232273221016,0.247232258319855,0.247232273221016],"translation":[-0.07155303657055,-0.16379255056381,0.588888883590698]}],"samplers":[{}],"scene":0,"scenes":[{"name":"Root Scene","nodes":[0]}],"textures":[{"name":"base_color_texture","sampler":0,"source":0}]}