{"accessors":[{"bufferView":0,"byteOffset":0,"componentType":5123,"count":492,"type":"SCALAR"},{"bufferView":1,"byteOffset":0,"componentType":5126,"count":312,"max":[0.881358802318573,1.0798853635788,1.01770544052124],"min":[-0.88135880231857,-1.0798853635788,-1.01770544052124],"type":"VEC3"},{"bufferView":2,"byteOffset":0,"componentType":5126,"count":312,"type":"VEC3"},{"bufferView":3,"byteOffset":0,"componentType":5126,"count":312,"type":"VEC2"}],"asset":{"generator":"FBX2glTF v0.13.1","version":"2.0"},"bufferViews":[{"buffer":0,"byteLength":984,"byteOffset":0,"target":34963},{"buffer":0,"byteLength":3744,"byteOffset":984,"target":34962},{"buffer":0,"byteLength":3744,"byteOffset":4728,"target":34962},{"buffer":0,"byteLength":2496,"byteOffset":8472,"target":34962}],"buffers":[{"byteLength":10968,"uri":"SM_Soda_01_D.bin"}],"images":[{"name":"Polygon_Camping_Texture","uri":"Polygon_Camping_Texture.jpg"}],"materials":[{"alphaMode":"OPAQUE","doubleSided":false,"extras":{"fromFBX":{"isTruePBR":false,"shadingModel":"Phong"}},"name":"icecream_buckets.014","pbrMetallicRoughness":{"baseColorFactor":[1,1,1,1],"baseColorTexture":{"index":0,"texCoord":0},"metallicFactor":0.400000005960464,"roughnessFactor":0.229415729641914}}],"meshes":[{"name":"Soda_01_D","primitives":[{"attributes":{"NORMAL":2,"POSITION":1,"TEXCOORD_0":3},"indices":0,"material":0,"mode":4}]}],"nodes":[{"mesh":0,"name":"Soda_01_D","rotation":[0,0,0,1],"scale":[0.0499541461467743,0.0952052623033524,0.0499541461467743],"translation":[-2.95388841629028,0.227679118514061,-0.48666903376579]}],"samplers":[{}],"scene":0,"scenes":[{"name":"Root Scene","nodes":[0]}],"textures":[{"name":"base_color_texture","sampler":0,"source":0}]}