{"accessors":[{"bufferView":0,"byteOffset":0,"componentType":5123,"count":372,"type":"SCALAR"},{"bufferView":1,"byteOffset":0,"componentType":5126,"count":236,"max":[0.226383924484253,0.927762866020203,0.230701372027397],"min":[-0.23136121034622,0,-0.23633107542992],"type":"VEC3"},{"bufferView":2,"byteOffset":0,"componentType":5126,"count":236,"type":"VEC3"},{"bufferView":3,"byteOffset":0,"componentType":5126,"count":236,"type":"VEC2"}],"asset":{"generator":"FBX2glTF v0.13.1","version":"2.0"},"bufferViews":[{"buffer":0,"byteLength":744,"byteOffset":0,"target":34963},{"buffer":0,"byteLength":2832,"byteOffset":744,"target":34962},{"buffer":0,"byteLength":2832,"byteOffset":3576,"target":34962},{"buffer":0,"byteLength":1888,"byteOffset":6408,"target":34962}],"buffers":[{"byteLength":8296,"uri":"SM_Bush_06_A.bin"}],"images":[{"name":"MainTexture_City_4","uri":"MainTexture_City_4.png"}],"materials":[{"alphaMode":"OPAQUE","doubleSided":false,"extras":{"fromFBX":{"isTruePBR":false,"shadingModel":"Phong"}},"name":"Material","pbrMetallicRoughness":{"baseColorFactor":[1,1,1,1],"baseColorTexture":{"index":0,"texCoord":0},"metallicFactor":0.400000005960464,"roughnessFactor":0.140028014779091}}],"meshes":[{"name":"Bush_06_A","primitives":[{"attributes":{"NORMAL":2,"POSITION":1,"TEXCOORD_0":3},"indices":0,"material":0,"mode":4}]}],"nodes":[{"mesh":0,"name":"Bush_06_A","rotation":[0,0,0,1],"scale":[1,1,1],"translation":[241.382781982422,0.00000214576721191406,-210.184326171875]}],"samplers":[{}],"scene":0,"scenes":[{"name":"Root Scene","nodes":[0]}],"textures":[{"name":"base_color_texture","sampler":0,"source":0}]}