{"accessors":[{"bufferView":0,"byteOffset":0,"componentType":5123,"count":3048,"type":"SCALAR"},{"bufferView":1,"byteOffset":0,"componentType":5126,"count":3048,"max":[0.63897168636322,0.564327299594879,0.660515248775482],"min":[-0.63551193475723,-0.50168526172638,-0.66305035352707],"type":"VEC3"},{"bufferView":2,"byteOffset":0,"componentType":5126,"count":3048,"type":"VEC3"},{"bufferView":3,"byteOffset":0,"componentType":5126,"count":3048,"type":"VEC2"}],"asset":{"generator":"FBX2glTF v0.13.1","version":"2.0"},"bufferViews":[{"buffer":0,"byteLength":6096,"byteOffset":0,"target":34963},{"buffer":0,"byteLength":36576,"byteOffset":6096,"target":34962},{"buffer":0,"byteLength":36576,"byteOffset":42672,"target":34962},{"buffer":0,"byteLength":24384,"byteOffset":79248,"target":34962}],"buffers":[{"byteLength":103632,"uri":"SM_Bush_02_A.bin"}],"images":[{"name":"MainTexture_City_4","uri":"MainTexture_City_4.png"}],"materials":[{"alphaMode":"OPAQUE","doubleSided":false,"extras":{"fromFBX":{"isTruePBR":false,"shadingModel":"Phong"}},"name":"Material.190","pbrMetallicRoughness":{"baseColorFactor":[1,1,1,1],"baseColorTexture":{"index":0,"texCoord":0},"metallicFactor":0.400000005960464,"roughnessFactor":0.140028014779091}}],"meshes":[{"name":"Bush_02_A","primitives":[{"attributes":{"NORMAL":2,"POSITION":1,"TEXCOORD_0":3},"indices":0,"material":0,"mode":4}]}],"nodes":[{"mesh":0,"name":"Bush_02_A","rotation":[0,0,0,1],"scale":[1,1,1],"translation":[241.409744262695,0,-203.53108215332]}],"samplers":[{}],"scene":0,"scenes":[{"name":"Root Scene","nodes":[0]}],"textures":[{"name":"base_color_texture","sampler":0,"source":0}]}