{"accessors":[{"bufferView":0,"byteOffset":0,"componentType":5123,"count":468,"type":"SCALAR"},{"bufferView":1,"byteOffset":0,"componentType":5126,"count":298,"max":[0.175597339868546,0.540600419044495,0.658119022846222],"min":[-0.18565845489502,-0.00781105970964,-0.66208791732788],"type":"VEC3"},{"bufferView":2,"byteOffset":0,"componentType":5126,"count":298,"type":"VEC3"},{"bufferView":3,"byteOffset":0,"componentType":5126,"count":298,"type":"VEC2"}],"asset":{"generator":"FBX2glTF v0.13.1","version":"2.0"},"bufferViews":[{"buffer":0,"byteLength":936,"byteOffset":0,"target":34963},{"buffer":0,"byteLength":3576,"byteOffset":936,"target":34962},{"buffer":0,"byteLength":3576,"byteOffset":4512,"target":34962},{"buffer":0,"byteLength":2384,"byteOffset":8088,"target":34962}],"buffers":[{"byteLength":10472,"uri":"SM_Bush_04_C.bin"}],"images":[{"name":"MainTexture_City_4","uri":"MainTexture_City_4.png"}],"materials":[{"alphaMode":"OPAQUE","doubleSided":false,"extras":{"fromFBX":{"isTruePBR":false,"shadingModel":"Phong"}},"name":"Material.234","pbrMetallicRoughness":{"baseColorFactor":[1,1,1,1],"baseColorTexture":{"index":0,"texCoord":0},"metallicFactor":0.400000005960464,"roughnessFactor":0.140028014779091}}],"meshes":[{"name":"Bush_04_C","primitives":[{"attributes":{"NORMAL":2,"POSITION":1,"TEXCOORD_0":3},"indices":0,"material":0,"mode":4}]}],"nodes":[{"mesh":0,"name":"Bush_04_C","rotation":[0,0,0,1],"scale":[1,1,1],"translation":[238.531127929688,-0.24243572354317,-208.022872924805]}],"samplers":[{}],"scene":0,"scenes":[{"name":"Root Scene","nodes":[0]}],"textures":[{"name":"base_color_texture","sampler":0,"source":0}]}