{"accessors":[{"bufferView":0,"byteOffset":0,"componentType":5123,"count":8796,"type":"SCALAR"},{"bufferView":1,"byteOffset":0,"componentType":5126,"count":8736,"max":[0.329580634832382,0.286725074052811,1.03571939468384],"min":[-0.32590109109879,-0.25906783342362,-1.02475774288177],"type":"VEC3"},{"bufferView":2,"byteOffset":0,"componentType":5126,"count":8736,"type":"VEC3"},{"bufferView":3,"byteOffset":0,"componentType":5126,"count":8736,"type":"VEC2"}],"asset":{"generator":"FBX2glTF v0.13.1","version":"2.0"},"bufferViews":[{"buffer":0,"byteLength":17592,"byteOffset":0,"target":34963},{"buffer":0,"byteLength":104832,"byteOffset":17592,"target":34962},{"buffer":0,"byteLength":104832,"byteOffset":122424,"target":34962},{"buffer":0,"byteLength":69888,"byteOffset":227256,"target":34962}],"buffers":[{"byteLength":297144,"uri":"SM_Bush_01_A.bin"}],"images":[{"name":"MainTexture_City_4","uri":"MainTexture_City_4.png"}],"materials":[{"alphaMode":"OPAQUE","doubleSided":false,"extras":{"fromFBX":{"isTruePBR":false,"shadingModel":"Phong"}},"name":"Material.187","pbrMetallicRoughness":{"baseColorFactor":[1,1,1,1],"baseColorTexture":{"index":0,"texCoord":0},"metallicFactor":0.400000005960464,"roughnessFactor":0.140028014779091}}],"meshes":[{"name":"Bush_01_A","primitives":[{"attributes":{"NORMAL":2,"POSITION":1,"TEXCOORD_0":3},"indices":0,"material":0,"mode":4}]}],"nodes":[{"mesh":0,"name":"Bush_01_A","rotation":[0,0,0,1],"scale":[1,1,1],"translation":[239.916244506836,0,-205.616638183594]}],"samplers":[{}],"scene":0,"scenes":[{"name":"Root Scene","nodes":[0]}],"textures":[{"name":"base_color_texture","sampler":0,"source":0}]}