{"accessors":[{"bufferView":0,"byteOffset":0,"componentType":5123,"count":1110,"type":"SCALAR"},{"bufferView":1,"byteOffset":0,"componentType":5126,"count":1110,"max":[0.483317255973816,0.793121874332428,0.484446465969086],"min":[-0.44045400619507,-0.37388914823532,-0.45451954007149],"type":"VEC3"},{"bufferView":2,"byteOffset":0,"componentType":5126,"count":1110,"type":"VEC3"},{"bufferView":3,"byteOffset":0,"componentType":5126,"count":1110,"type":"VEC2"}],"asset":{"generator":"FBX2glTF v0.13.1","version":"2.0"},"bufferViews":[{"buffer":0,"byteLength":2220,"byteOffset":0,"target":34963},{"buffer":0,"byteLength":13320,"byteOffset":2220,"target":34962},{"buffer":0,"byteLength":13320,"byteOffset":15540,"target":34962},{"buffer":0,"byteLength":8880,"byteOffset":28860,"target":34962}],"buffers":[{"byteLength":37740,"uri":"SM_Bush_03_A.bin"}],"images":[{"name":"MainTexture_City_4","uri":"MainTexture_City_4.png"}],"materials":[{"alphaMode":"OPAQUE","doubleSided":false,"extras":{"fromFBX":{"isTruePBR":false,"shadingModel":"Phong"}},"name":"Material.193","pbrMetallicRoughness":{"baseColorFactor":[1,1,1,1],"baseColorTexture":{"index":0,"texCoord":0},"metallicFactor":0.400000005960464,"roughnessFactor":0.140028014779091}}],"meshes":[{"name":"Bush_03_A","primitives":[{"attributes":{"NORMAL":2,"POSITION":1,"TEXCOORD_0":3},"indices":0,"material":0,"mode":4}]}],"nodes":[{"mesh":0,"name":"Bush_03_A","rotation":[0,0,0,1],"scale":[1,1,1],"translation":[241.318023681641,0,-201.901077270508]}],"samplers":[{}],"scene":0,"scenes":[{"name":"Root Scene","nodes":[0]}],"textures":[{"name":"base_color_texture","sampler":0,"source":0}]}