{"accessors":[{"bufferView":0,"byteOffset":0,"componentType":5123,"count":336,"type":"SCALAR"},{"bufferView":1,"byteOffset":0,"componentType":5126,"count":239,"max":[0.525850057601929,0.940455675125122,0.594473719596863],"min":[-0.5285792350769,-0.00372150540352,-0.52762001752853],"type":"VEC3"},{"bufferView":2,"byteOffset":0,"componentType":5126,"count":239,"type":"VEC3"},{"bufferView":3,"byteOffset":0,"componentType":5126,"count":239,"type":"VEC2"}],"asset":{"generator":"FBX2glTF v0.13.1","version":"2.0"},"bufferViews":[{"buffer":0,"byteLength":672,"byteOffset":0,"target":34963},{"buffer":0,"byteLength":2868,"byteOffset":672,"target":34962},{"buffer":0,"byteLength":2868,"byteOffset":3540,"target":34962},{"buffer":0,"byteLength":1912,"byteOffset":6408,"target":34962}],"buffers":[{"byteLength":8320,"uri":"SM_Bush_08_A.bin"}],"images":[{"name":"MainTexture_City_4","uri":"MainTexture_City_4.png"}],"materials":[{"alphaMode":"OPAQUE","doubleSided":false,"extras":{"fromFBX":{"isTruePBR":false,"shadingModel":"Phong"}},"name":"Material","pbrMetallicRoughness":{"baseColorFactor":[1,1,1,1],"baseColorTexture":{"index":0,"texCoord":0},"metallicFactor":0.400000005960464,"roughnessFactor":0.140028014779091}}],"meshes":[{"name":"Bush_08_A","primitives":[{"attributes":{"NORMAL":2,"POSITION":1,"TEXCOORD_0":3},"indices":0,"material":0,"mode":4}]}],"nodes":[{"mesh":0,"name":"Bush_08_A","rotation":[0,0,0,1],"scale":[1,1,1],"translation":[241.364852905273,0.0042082667350769,-211.718139648438]}],"samplers":[{}],"scene":0,"scenes":[{"name":"Root Scene","nodes":[0]}],"textures":[{"name":"base_color_texture","sampler":0,"source":0}]}