{"accessors":[{"bufferView":0,"byteOffset":0,"componentType":5123,"count":522,"type":"SCALAR"},{"bufferView":1,"byteOffset":0,"componentType":5126,"count":368,"max":[0.123284175992012,0.351774126291275,0.124035328626633],"min":[-0.09721113741398,-0.09962628036737,-0.11915270239115],"type":"VEC3"},{"bufferView":2,"byteOffset":0,"componentType":5126,"count":368,"type":"VEC3"},{"bufferView":3,"byteOffset":0,"componentType":5126,"count":368,"type":"VEC2"}],"asset":{"generator":"FBX2glTF v0.13.1","version":"2.0"},"bufferViews":[{"buffer":0,"byteLength":1044,"byteOffset":0,"target":34963},{"buffer":0,"byteLength":4416,"byteOffset":1044,"target":34962},{"buffer":0,"byteLength":4416,"byteOffset":5460,"target":34962},{"buffer":0,"byteLength":2944,"byteOffset":9876,"target":34962}],"buffers":[{"byteLength":12820,"uri":"SM_Grass_01_A.bin"}],"images":[{"name":"MainTexture_City_4","uri":"MainTexture_City_4.png"}],"materials":[{"alphaMode":"OPAQUE","doubleSided":false,"extras":{"fromFBX":{"isTruePBR":false,"shadingModel":"Phong"}},"name":"Material.200","pbrMetallicRoughness":{"baseColorFactor":[1,1,1,1],"baseColorTexture":{"index":0,"texCoord":0},"metallicFactor":0.400000005960464,"roughnessFactor":0.140028014779091}}],"meshes":[{"name":"Grass_01_A","primitives":[{"attributes":{"NORMAL":2,"POSITION":1,"TEXCOORD_0":3},"indices":0,"material":0,"mode":4}]}],"nodes":[{"mesh":0,"name":"Grass_01_A","rotation":[0,0,0,1],"scale":[1,1,1],"translation":[239.985046386719,-0.09157015383244,-200.536560058594]}],"samplers":[{}],"scene":0,"scenes":[{"name":"Root Scene","nodes":[0]}],"textures":[{"name":"base_color_texture","sampler":0,"source":0}]}