{"accessors":[{"bufferView":0,"byteOffset":0,"componentType":5123,"count":1632,"type":"SCALAR"},{"bufferView":1,"byteOffset":0,"componentType":5126,"count":1088,"max":[0.317155420780182,0.256201952695847,0.204600781202316],"min":[-0.18384891748428,-0.00765213696286,-0.22719264030457],"type":"VEC3"},{"bufferView":2,"byteOffset":0,"componentType":5126,"count":1088,"type":"VEC3"},{"bufferView":3,"byteOffset":0,"componentType":5126,"count":1088,"type":"VEC2"}],"asset":{"generator":"FBX2glTF v0.13.1","version":"2.0"},"bufferViews":[{"buffer":0,"byteLength":3264,"byteOffset":0,"target":34963},{"buffer":0,"byteLength":13056,"byteOffset":3264,"target":34962},{"buffer":0,"byteLength":13056,"byteOffset":16320,"target":34962},{"buffer":0,"byteLength":8704,"byteOffset":29376,"target":34962}],"buffers":[{"byteLength":38080,"uri":"SM_Grass_02_A.bin"}],"images":[{"name":"MainTexture_City_4","uri":"MainTexture_City_4.png"}],"materials":[{"alphaMode":"OPAQUE","doubleSided":false,"extras":{"fromFBX":{"isTruePBR":false,"shadingModel":"Phong"}},"name":"Material.200","pbrMetallicRoughness":{"baseColorFactor":[1,1,1,1],"baseColorTexture":{"index":0,"texCoord":0},"metallicFactor":0.400000005960464,"roughnessFactor":0.140028014779091}}],"meshes":[{"name":"Grass_02_A","primitives":[{"attributes":{"NORMAL":2,"POSITION":1,"TEXCOORD_0":3},"indices":0,"material":0,"mode":4}]}],"nodes":[{"mesh":0,"name":"Grass_02_A","rotation":[0,0,0,1],"scale":[1,1,1],"translation":[239.904876708984,-0.18205732107163,-200.033218383789]}],"samplers":[{}],"scene":0,"scenes":[{"name":"Root Scene","nodes":[0]}],"textures":[{"name":"base_color_texture","sampler":0,"source":0}]}