{"accessors":[{"bufferView":0,"byteOffset":0,"componentType":5123,"count":396,"type":"SCALAR"},{"bufferView":1,"byteOffset":0,"componentType":5126,"count":255,"max":[0.399814039468765,0.143641963601112,0.344792634248734],"min":[-0.35718524456024,-0.10557437688112,-0.3833204805851],"type":"VEC3"},{"bufferView":2,"byteOffset":0,"componentType":5126,"count":255,"type":"VEC3"},{"bufferView":3,"byteOffset":0,"componentType":5126,"count":255,"type":"VEC2"}],"asset":{"generator":"FBX2glTF v0.13.1","version":"2.0"},"bufferViews":[{"buffer":0,"byteLength":792,"byteOffset":0,"target":34963},{"buffer":0,"byteLength":3060,"byteOffset":792,"target":34962},{"buffer":0,"byteLength":3060,"byteOffset":3852,"target":34962},{"buffer":0,"byteLength":2040,"byteOffset":6912,"target":34962}],"buffers":[{"byteLength":8952,"uri":"SM_Stone_09_C.bin"}],"images":[{"name":"MainTexture_City_4","uri":"MainTexture_City_4.png"}],"materials":[{"alphaMode":"OPAQUE","doubleSided":false,"extras":{"fromFBX":{"isTruePBR":false,"shadingModel":"Phong"}},"name":"Material","pbrMetallicRoughness":{"baseColorFactor":[1,1,1,1],"baseColorTexture":{"index":0,"texCoord":0},"metallicFactor":0.400000005960464,"roughnessFactor":0.140028014779091}}],"meshes":[{"name":"Stone_09_C","primitives":[{"attributes":{"NORMAL":2,"POSITION":1,"TEXCOORD_0":3},"indices":0,"material":0,"mode":4}]}],"nodes":[{"mesh":0,"name":"Stone_09_C","rotation":[0,0,0,1],"scale":[1,1,1],"translation":[235.70768737793,-0.2367552369833,-192.624923706055]}],"samplers":[{}],"scene":0,"scenes":[{"name":"Root Scene","nodes":[0]}],"textures":[{"name":"base_color_texture","sampler":0,"source":0}]}