{"accessors":[{"bufferView":0,"byteOffset":0,"componentType":5123,"count":138,"type":"SCALAR"},{"bufferView":1,"byteOffset":0,"componentType":5126,"count":96,"max":[0.335187822580338,0.078505776822567,0.347489804029465],"min":[-0.32948008179665,-0.08077016472816,-0.29044753313065],"type":"VEC3"},{"bufferView":2,"byteOffset":0,"componentType":5126,"count":96,"type":"VEC3"},{"bufferView":3,"byteOffset":0,"componentType":5126,"count":96,"type":"VEC2"}],"asset":{"generator":"FBX2glTF v0.13.1","version":"2.0"},"bufferViews":[{"buffer":0,"byteLength":276,"byteOffset":0,"target":34963},{"buffer":0,"byteLength":1152,"byteOffset":276,"target":34962},{"buffer":0,"byteLength":1152,"byteOffset":1428,"target":34962},{"buffer":0,"byteLength":768,"byteOffset":2580,"target":34962}],"buffers":[{"byteLength":3348,"uri":"SM_Stone_06_B.bin"}],"images":[{"name":"MainTexture_City_4","uri":"MainTexture_City_4.png"}],"materials":[{"alphaMode":"OPAQUE","doubleSided":false,"extras":{"fromFBX":{"isTruePBR":false,"shadingModel":"Phong"}},"name":"Material.203","pbrMetallicRoughness":{"baseColorFactor":[1,1,1,1],"baseColorTexture":{"index":0,"texCoord":0},"metallicFactor":0.400000005960464,"roughnessFactor":0.140028014779091}}],"meshes":[{"name":"Stone_06_B","primitives":[{"attributes":{"NORMAL":2,"POSITION":1,"TEXCOORD_0":3},"indices":0,"material":0,"mode":4}]}],"nodes":[{"mesh":0,"name":"Stone_06_B","rotation":[0,0,0,1],"scale":[1,1,1],"translation":[237.036087036133,-0.26746588945389,-194.406768798828]}],"samplers":[{}],"scene":0,"scenes":[{"name":"Root Scene","nodes":[0]}],"textures":[{"name":"base_color_texture","sampler":0,"source":0}]}