{"accessors":[{"bufferView":0,"byteOffset":0,"componentType":5123,"count":168,"type":"SCALAR"},{"bufferView":1,"byteOffset":0,"componentType":5126,"count":102,"max":[0.154910951852798,0.0468100383877754,0.110161311924458],"min":[-0.13148054480553,-0.03330026566982,-0.12570862472057],"type":"VEC3"},{"bufferView":2,"byteOffset":0,"componentType":5126,"count":102,"type":"VEC3"},{"bufferView":3,"byteOffset":0,"componentType":5126,"count":102,"type":"VEC2"}],"asset":{"generator":"FBX2glTF v0.13.1","version":"2.0"},"bufferViews":[{"buffer":0,"byteLength":336,"byteOffset":0,"target":34963},{"buffer":0,"byteLength":1224,"byteOffset":336,"target":34962},{"buffer":0,"byteLength":1224,"byteOffset":1560,"target":34962},{"buffer":0,"byteLength":816,"byteOffset":2784,"target":34962}],"buffers":[{"byteLength":3600,"uri":"SM_Stone_08_A.bin"}],"images":[{"name":"MainTexture_City_4","uri":"MainTexture_City_4.png"}],"materials":[{"alphaMode":"OPAQUE","doubleSided":false,"extras":{"fromFBX":{"isTruePBR":false,"shadingModel":"Phong"}},"name":"Material","pbrMetallicRoughness":{"baseColorFactor":[1,1,1,1],"baseColorTexture":{"index":0,"texCoord":0},"metallicFactor":0.400000005960464,"roughnessFactor":0.140028014779091}}],"meshes":[{"name":"Stone_08_A","primitives":[{"attributes":{"NORMAL":2,"POSITION":1,"TEXCOORD_0":3},"indices":0,"material":0,"mode":4}]}],"nodes":[{"mesh":0,"name":"Stone_08_A","rotation":[0,0,0,1],"scale":[1,1,1],"translation":[238.254776000977,-0.31609779596329,-193.352005004883]}],"samplers":[{}],"scene":0,"scenes":[{"name":"Root Scene","nodes":[0]}],"textures":[{"name":"base_color_texture","sampler":0,"source":0}]}