{"accessors":[{"bufferView":0,"byteOffset":0,"componentType":5123,"count":252,"type":"SCALAR"},{"bufferView":1,"byteOffset":0,"componentType":5126,"count":168,"max":[0.454860210418701,0.202768668532372,0.488021790981293],"min":[-0.41129842400551,-0.18675567209721,-0.53225594758987],"type":"VEC3"},{"bufferView":2,"byteOffset":0,"componentType":5126,"count":168,"type":"VEC3"},{"bufferView":3,"byteOffset":0,"componentType":5126,"count":168,"type":"VEC2"}],"asset":{"generator":"FBX2glTF v0.13.1","version":"2.0"},"bufferViews":[{"buffer":0,"byteLength":504,"byteOffset":0,"target":34963},{"buffer":0,"byteLength":2016,"byteOffset":504,"target":34962},{"buffer":0,"byteLength":2016,"byteOffset":2520,"target":34962},{"buffer":0,"byteLength":1344,"byteOffset":4536,"target":34962}],"buffers":[{"byteLength":5880,"uri":"SM_Stone_05_B.bin"}],"images":[{"name":"MainTexture_City_4","uri":"MainTexture_City_4.png"}],"materials":[{"alphaMode":"OPAQUE","doubleSided":false,"extras":{"fromFBX":{"isTruePBR":false,"shadingModel":"Phong"}},"name":"Material.203","pbrMetallicRoughness":{"baseColorFactor":[1,1,1,1],"baseColorTexture":{"index":0,"texCoord":0},"metallicFactor":0.400000005960464,"roughnessFactor":0.140028014779091}}],"meshes":[{"name":"Stone_05_B","primitives":[{"attributes":{"NORMAL":2,"POSITION":1,"TEXCOORD_0":3},"indices":0,"material":0,"mode":4}]}],"nodes":[{"mesh":0,"name":"Stone_05_B","rotation":[0,0,0,1],"scale":[1,1,1],"translation":[237.002868652344,-0.17739719152451,-195.47038269043]}],"samplers":[{}],"scene":0,"scenes":[{"name":"Root Scene","nodes":[0]}],"textures":[{"name":"base_color_texture","sampler":0,"source":0}]}