{"accessors":[{"bufferView":0,"byteOffset":0,"componentType":5123,"count":108,"type":"SCALAR"},{"bufferView":1,"byteOffset":0,"componentType":5126,"count":70,"max":[0.41736900806427,0.0725535452365875,0.323875188827515],"min":[-0.60011351108551,-0.04618742316961,-0.3207571208477],"type":"VEC3"},{"bufferView":2,"byteOffset":0,"componentType":5126,"count":70,"type":"VEC3"},{"bufferView":3,"byteOffset":0,"componentType":5126,"count":70,"type":"VEC2"}],"asset":{"generator":"FBX2glTF v0.13.1","version":"2.0"},"bufferViews":[{"buffer":0,"byteLength":216,"byteOffset":0,"target":34963},{"buffer":0,"byteLength":840,"byteOffset":216,"target":34962},{"buffer":0,"byteLength":840,"byteOffset":1056,"target":34962},{"buffer":0,"byteLength":560,"byteOffset":1896,"target":34962}],"buffers":[{"byteLength":2456,"uri":"SM_Stone_03_C.bin"}],"images":[{"name":"MainTexture_City_4","uri":"MainTexture_City_4.png"}],"materials":[{"alphaMode":"OPAQUE","doubleSided":false,"extras":{"fromFBX":{"isTruePBR":false,"shadingModel":"Phong"}},"name":"Material.204","pbrMetallicRoughness":{"baseColorFactor":[1,1,1,1],"baseColorTexture":{"index":0,"texCoord":0},"metallicFactor":0.400000005960464,"roughnessFactor":0.140028014779091}}],"meshes":[{"name":"Stone_03_C","primitives":[{"attributes":{"NORMAL":2,"POSITION":1,"TEXCOORD_0":3},"indices":0,"material":0,"mode":4}]}],"nodes":[{"mesh":0,"name":"Stone_03_C","rotation":[0,0,0,1],"scale":[1,1,1],"translation":[235.793380737305,-0.25616043806076,-197.170074462891]}],"samplers":[{}],"scene":0,"scenes":[{"name":"Root Scene","nodes":[0]}],"textures":[{"name":"base_color_texture","sampler":0,"source":0}]}