{"accessors":[{"bufferView":0,"byteOffset":0,"componentType":5123,"count":408,"type":"SCALAR"},{"bufferView":1,"byteOffset":0,"componentType":5126,"count":272,"max":[0.301931202411652,0.0378417298197746,0.292015194892883],"min":[-0.29501092433929,-0.04075553640723,-0.32563263177872],"type":"VEC3"},{"bufferView":2,"byteOffset":0,"componentType":5126,"count":272,"type":"VEC3"},{"bufferView":3,"byteOffset":0,"componentType":5126,"count":272,"type":"VEC2"}],"asset":{"generator":"FBX2glTF v0.13.1","version":"2.0"},"bufferViews":[{"buffer":0,"byteLength":816,"byteOffset":0,"target":34963},{"buffer":0,"byteLength":3264,"byteOffset":816,"target":34962},{"buffer":0,"byteLength":3264,"byteOffset":4080,"target":34962},{"buffer":0,"byteLength":2176,"byteOffset":7344,"target":34962}],"buffers":[{"byteLength":9520,"uri":"SM_Stone_02_A.bin"}],"images":[{"name":"MainTexture_City_4","uri":"MainTexture_City_4.png"}],"materials":[{"alphaMode":"OPAQUE","doubleSided":false,"extras":{"fromFBX":{"isTruePBR":false,"shadingModel":"Phong"}},"name":"Material","pbrMetallicRoughness":{"baseColorFactor":[1,1,1,1],"baseColorTexture":{"index":0,"texCoord":0},"metallicFactor":0.400000005960464,"roughnessFactor":0.140028014779091}}],"meshes":[{"name":"Stone_02_A","primitives":[{"attributes":{"NORMAL":2,"POSITION":1,"TEXCOORD_0":3},"indices":0,"material":0,"mode":4}]}],"nodes":[{"mesh":0,"name":"Stone_02_A","rotation":[0,0,0,1],"scale":[1,1,1],"translation":[238.391006469727,-0.31105929613113,-197.948211669922]}],"samplers":[{}],"scene":0,"scenes":[{"name":"Root Scene","nodes":[0]}],"textures":[{"name":"base_color_texture","sampler":0,"source":0}]}