{"accessors":[{"bufferView":0,"byteOffset":0,"componentType":5123,"count":2388,"type":"SCALAR"},{"bufferView":1,"byteOffset":0,"componentType":5126,"count":1600,"max":[0.275853157043457,0.132997706532478,0.236854523420334],"min":[-0.32769083976746,-0.08626855909824,-0.27508559823036],"type":"VEC3"},{"bufferView":2,"byteOffset":0,"componentType":5126,"count":1600,"type":"VEC3"},{"bufferView":3,"byteOffset":0,"componentType":5126,"count":1600,"type":"VEC2"}],"asset":{"generator":"FBX2glTF v0.13.1","version":"2.0"},"bufferViews":[{"buffer":0,"byteLength":4776,"byteOffset":0,"target":34963},{"buffer":0,"byteLength":19200,"byteOffset":4776,"target":34962},{"buffer":0,"byteLength":19200,"byteOffset":23976,"target":34962},{"buffer":0,"byteLength":12800,"byteOffset":43176,"target":34962}],"buffers":[{"byteLength":55976,"uri":"SM_Stone_01_A.bin"}],"images":[{"name":"MainTexture_City_4","uri":"MainTexture_City_4.png"}],"materials":[{"alphaMode":"OPAQUE","doubleSided":false,"extras":{"fromFBX":{"isTruePBR":false,"shadingModel":"Phong"}},"name":"Material.198","pbrMetallicRoughness":{"baseColorFactor":[1,1,1,1],"baseColorTexture":{"index":0,"texCoord":0},"metallicFactor":0.400000005960464,"roughnessFactor":0.140028014779091}}],"meshes":[{"name":"Stone_01_A","primitives":[{"attributes":{"NORMAL":2,"POSITION":1,"TEXCOORD_0":3},"indices":0,"material":0,"mode":4}]}],"nodes":[{"mesh":0,"name":"Stone_01_A","rotation":[0,0,0,1],"scale":[1,1,1],"translation":[238.327774047852,-0.13055616617203,-198.780426025391]}],"samplers":[{}],"scene":0,"scenes":[{"name":"Root Scene","nodes":[0]}],"textures":[{"name":"base_color_texture","sampler":0,"source":0}]}