{"accessors":[{"bufferView":0,"byteOffset":0,"componentType":5123,"count":102,"type":"SCALAR"},{"bufferView":1,"byteOffset":0,"componentType":5126,"count":72,"max":[0.346212655305862,0.130562573671341,0.314009606838226],"min":[-0.33805349469185,-0.09286350011826,-0.27858233451843],"type":"VEC3"},{"bufferView":2,"byteOffset":0,"componentType":5126,"count":72,"type":"VEC3"},{"bufferView":3,"byteOffset":0,"componentType":5126,"count":72,"type":"VEC2"}],"asset":{"generator":"FBX2glTF v0.13.1","version":"2.0"},"bufferViews":[{"buffer":0,"byteLength":204,"byteOffset":0,"target":34963},{"buffer":0,"byteLength":864,"byteOffset":204,"target":34962},{"buffer":0,"byteLength":864,"byteOffset":1068,"target":34962},{"buffer":0,"byteLength":576,"byteOffset":1932,"target":34962}],"buffers":[{"byteLength":2508,"uri":"SM_Stone_04_C.bin"}],"images":[{"name":"MainTexture_City_4","uri":"MainTexture_City_4.png"}],"materials":[{"alphaMode":"OPAQUE","doubleSided":false,"extras":{"fromFBX":{"isTruePBR":false,"shadingModel":"Phong"}},"name":"Material.204","pbrMetallicRoughness":{"baseColorFactor":[1,1,1,1],"baseColorTexture":{"index":0,"texCoord":0},"metallicFactor":0.400000005960464,"roughnessFactor":0.140028014779091}}],"meshes":[{"name":"Stone_04_C","primitives":[{"attributes":{"NORMAL":2,"POSITION":1,"TEXCOORD_0":3},"indices":0,"material":0,"mode":4}]}],"nodes":[{"mesh":0,"name":"Stone_04_C","rotation":[0,0,0,1],"scale":[1,1,1],"translation":[235.751693725586,-0.25918048620224,-196.421875]}],"samplers":[{}],"scene":0,"scenes":[{"name":"Root Scene","nodes":[0]}],"textures":[{"name":"base_color_texture","sampler":0,"source":0}]}