{"accessors":[{"bufferView":0,"byteOffset":0,"componentType":5123,"count":612,"type":"SCALAR"},{"bufferView":1,"byteOffset":0,"componentType":5126,"count":368,"max":[0.872635543346405,4.83399820327759,1.39820146560669],"min":[-1.54257965087891,-0.00920021533966,-1.20833480358124],"type":"VEC3"},{"bufferView":2,"byteOffset":0,"componentType":5126,"count":368,"type":"VEC3"},{"bufferView":3,"byteOffset":0,"componentType":5126,"count":368,"type":"VEC2"}],"asset":{"generator":"FBX2glTF v0.13.1","version":"2.0"},"bufferViews":[{"buffer":0,"byteLength":1224,"byteOffset":0,"target":34963},{"buffer":0,"byteLength":4416,"byteOffset":1224,"target":34962},{"buffer":0,"byteLength":4416,"byteOffset":5640,"target":34962},{"buffer":0,"byteLength":2944,"byteOffset":10056,"target":34962}],"buffers":[{"byteLength":13000,"uri":"SM_Tree_01_T.bin"}],"images":[{"name":"MainTexture_City_4","uri":"MainTexture_City_4.png"}],"materials":[{"alphaMode":"OPAQUE","doubleSided":false,"extras":{"fromFBX":{"isTruePBR":false,"shadingModel":"Phong"}},"name":"Material","pbrMetallicRoughness":{"baseColorFactor":[1,1,1,1],"baseColorTexture":{"index":0,"texCoord":0},"metallicFactor":0.400000005960464,"roughnessFactor":0.140028014779091}}],"meshes":[{"name":"Tree_01_T","primitives":[{"attributes":{"NORMAL":2,"POSITION":1,"TEXCOORD_0":3},"indices":0,"material":0,"mode":4}]}],"nodes":[{"mesh":0,"name":"Tree_01_T","rotation":[0,0,0,1],"scale":[1,1,1],"translation":[242.352645874023,-0.7298731803894,-185.584289550781]}],"samplers":[{}],"scene":0,"scenes":[{"name":"Root Scene","nodes":[0]}],"textures":[{"name":"base_color_texture","sampler":0,"source":0}]}