{"accessors":[{"bufferView":0,"byteOffset":0,"componentType":5123,"count":2754,"type":"SCALAR"},{"bufferView":1,"byteOffset":0,"componentType":5126,"count":2340,"max":[1.70243299007416,3.69471454620361,1.02356588840485],"min":[-0.99920392036438,-0.04695320129395,-1.2431788444519],"type":"VEC3"},{"bufferView":2,"byteOffset":0,"componentType":5126,"count":2340,"type":"VEC3"},{"bufferView":3,"byteOffset":0,"componentType":5126,"count":2340,"type":"VEC2"}],"asset":{"generator":"FBX2glTF v0.13.1","version":"2.0"},"bufferViews":[{"buffer":0,"byteLength":5508,"byteOffset":0,"target":34963},{"buffer":0,"byteLength":28080,"byteOffset":5508,"target":34962},{"buffer":0,"byteLength":28080,"byteOffset":33588,"target":34962},{"buffer":0,"byteLength":18720,"byteOffset":61668,"target":34962}],"buffers":[{"byteLength":80388,"uri":"SM_Tree_01_H.bin"}],"images":[{"name":"MainTexture_City_4","uri":"MainTexture_City_4.png"}],"materials":[{"alphaMode":"OPAQUE","doubleSided":false,"extras":{"fromFBX":{"isTruePBR":false,"shadingModel":"Phong"}},"name":"Material.197","pbrMetallicRoughness":{"baseColorFactor":[1,1,1,1],"baseColorTexture":{"index":0,"texCoord":0},"metallicFactor":0.400000005960464,"roughnessFactor":0.140028014779091}}],"meshes":[{"name":"Tree_01_H","primitives":[{"attributes":{"NORMAL":2,"POSITION":1,"TEXCOORD_0":3},"indices":0,"material":0,"mode":4}]}],"nodes":[{"mesh":0,"name":"Tree_01_H","rotation":[0,0,0,1],"scale":[1,1,1],"translation":[245.04345703125,-0.04904294013977,-191.808624267578]}],"samplers":[{}],"scene":0,"scenes":[{"name":"Root Scene","nodes":[0]}],"textures":[{"name":"base_color_texture","sampler":0,"source":0}]}