{"accessors":[{"bufferView":0,"byteOffset":0,"componentType":5123,"count":1146,"type":"SCALAR"},{"bufferView":1,"byteOffset":0,"componentType":5126,"count":790,"max":[1.13532137870789,3.93854856491089,1.44517147541046],"min":[-1.27882432937622,0,-1.34110546112061],"type":"VEC3"},{"bufferView":2,"byteOffset":0,"componentType":5126,"count":790,"type":"VEC3"},{"bufferView":3,"byteOffset":0,"componentType":5126,"count":790,"type":"VEC2"}],"asset":{"generator":"FBX2glTF v0.13.1","version":"2.0"},"bufferViews":[{"buffer":0,"byteLength":2292,"byteOffset":0,"target":34963},{"buffer":0,"byteLength":9480,"byteOffset":2292,"target":34962},{"buffer":0,"byteLength":9480,"byteOffset":11772,"target":34962},{"buffer":0,"byteLength":6320,"byteOffset":21252,"target":34962}],"buffers":[{"byteLength":27572,"uri":"SM_Tree_01_D.bin"}],"images":[{"name":"MainTexture_City_4","uri":"MainTexture_City_4.png"}],"materials":[{"alphaMode":"OPAQUE","doubleSided":false,"extras":{"fromFBX":{"isTruePBR":false,"shadingModel":"Phong"}},"name":"Material.196","pbrMetallicRoughness":{"baseColorFactor":[1,1,1,1],"baseColorTexture":{"index":0,"texCoord":0},"metallicFactor":0.400000005960464,"roughnessFactor":0.140028014779091}}],"meshes":[{"name":"Tree_01_D","primitives":[{"attributes":{"NORMAL":2,"POSITION":1,"TEXCOORD_0":3},"indices":0,"material":0,"mode":4}]}],"nodes":[{"mesh":0,"name":"Tree_01_D","rotation":[0,0,0,1],"scale":[1,1,1],"translation":[240.00390625,-0.22391818463802,-191.92610168457]}],"samplers":[{}],"scene":0,"scenes":[{"name":"Root Scene","nodes":[0]}],"textures":[{"name":"base_color_texture","sampler":0,"source":0}]}