{"accessors":[{"bufferView":0,"byteOffset":0,"componentType":5123,"count":948,"type":"SCALAR"},{"bufferView":1,"byteOffset":0,"componentType":5126,"count":688,"max":[1.26987111568451,4.64162826538086,1.04490971565247],"min":[-1.22146821022034,0,-1.50414669513702],"type":"VEC3"},{"bufferView":2,"byteOffset":0,"componentType":5126,"count":688,"type":"VEC3"},{"bufferView":3,"byteOffset":0,"componentType":5126,"count":688,"type":"VEC2"}],"asset":{"generator":"FBX2glTF v0.13.1","version":"2.0"},"bufferViews":[{"buffer":0,"byteLength":1896,"byteOffset":0,"target":34963},{"buffer":0,"byteLength":8256,"byteOffset":1896,"target":34962},{"buffer":0,"byteLength":8256,"byteOffset":10152,"target":34962},{"buffer":0,"byteLength":5504,"byteOffset":18408,"target":34962}],"buffers":[{"byteLength":23912,"uri":"SM_Tree_01_L.bin"}],"images":[{"name":"MainTexture_City_4","uri":"MainTexture_City_4.png"}],"materials":[{"alphaMode":"OPAQUE","doubleSided":false,"extras":{"fromFBX":{"isTruePBR":false,"shadingModel":"Phong"}},"name":"Material","pbrMetallicRoughness":{"baseColorFactor":[1,1,1,1],"baseColorTexture":{"index":0,"texCoord":0},"metallicFactor":0.400000005960464,"roughnessFactor":0.140028014779091}}],"meshes":[{"name":"Tree_01_L","primitives":[{"attributes":{"NORMAL":2,"POSITION":1,"TEXCOORD_0":3},"indices":0,"material":0,"mode":4}]}],"nodes":[{"mesh":0,"name":"Tree_01_L","rotation":[0,0,0,1],"scale":[1,1,1],"translation":[250.602325439453,0.00000238418579101562,-195.823257446289]}],"samplers":[{}],"scene":0,"scenes":[{"name":"Root Scene","nodes":[0]}],"textures":[{"name":"base_color_texture","sampler":0,"source":0}]}