{"accessors":[{"bufferView":0,"byteOffset":0,"componentType":5123,"count":3564,"type":"SCALAR"},{"bufferView":1,"byteOffset":0,"componentType":5126,"count":3294,"max":[0.864759027957916,4.56707000732422,0.808972001075745],"min":[-0.87095195055008,-0.01591086387634,-0.54923063516617],"type":"VEC3"},{"bufferView":2,"byteOffset":0,"componentType":5126,"count":3294,"type":"VEC3"},{"bufferView":3,"byteOffset":0,"componentType":5126,"count":3294,"type":"VEC2"}],"asset":{"generator":"FBX2glTF v0.13.1","version":"2.0"},"bufferViews":[{"buffer":0,"byteLength":7128,"byteOffset":0,"target":34963},{"buffer":0,"byteLength":39528,"byteOffset":7128,"target":34962},{"buffer":0,"byteLength":39528,"byteOffset":46656,"target":34962},{"buffer":0,"byteLength":26352,"byteOffset":86184,"target":34962}],"buffers":[{"byteLength":112536,"uri":"SM_Tree_01_J.bin"}],"images":[{"name":"MainTexture_City_4","uri":"MainTexture_City_4.png"}],"materials":[{"alphaMode":"OPAQUE","doubleSided":false,"extras":{"fromFBX":{"isTruePBR":false,"shadingModel":"Phong"}},"name":"Material.197","pbrMetallicRoughness":{"baseColorFactor":[1,1,1,1],"baseColorTexture":{"index":0,"texCoord":0},"metallicFactor":0.400000005960464,"roughnessFactor":0.140028014779091}}],"meshes":[{"name":"Tree_01_J","primitives":[{"attributes":{"NORMAL":2,"POSITION":1,"TEXCOORD_0":3},"indices":0,"material":0,"mode":4}]}],"nodes":[{"mesh":0,"name":"Tree_01_J","rotation":[0,0,0,1],"scale":[1,1,1],"translation":[245.32731628418,0.0260641574859619,-185.617279052734]}],"samplers":[{}],"scene":0,"scenes":[{"name":"Root Scene","nodes":[0]}],"textures":[{"name":"base_color_texture","sampler":0,"source":0}]}