{"accessors":[{"bufferView":0,"byteOffset":0,"componentType":5123,"count":888,"type":"SCALAR"},{"bufferView":1,"byteOffset":0,"componentType":5126,"count":612,"max":[0.817015528678894,3.44843506813049,1.04971504211426],"min":[-0.96015584468842,0,-0.72238159179688],"type":"VEC3"},{"bufferView":2,"byteOffset":0,"componentType":5126,"count":612,"type":"VEC3"},{"bufferView":3,"byteOffset":0,"componentType":5126,"count":612,"type":"VEC2"}],"asset":{"generator":"FBX2glTF v0.13.1","version":"2.0"},"bufferViews":[{"buffer":0,"byteLength":1776,"byteOffset":0,"target":34963},{"buffer":0,"byteLength":7344,"byteOffset":1776,"target":34962},{"buffer":0,"byteLength":7344,"byteOffset":9120,"target":34962},{"buffer":0,"byteLength":4896,"byteOffset":16464,"target":34962}],"buffers":[{"byteLength":21360,"uri":"SM_Tree_01_A.bin"}],"images":[{"name":"MainTexture_City_4","uri":"MainTexture_City_4.png"}],"materials":[{"alphaMode":"OPAQUE","doubleSided":false,"extras":{"fromFBX":{"isTruePBR":false,"shadingModel":"Phong"}},"name":"Material.196","pbrMetallicRoughness":{"baseColorFactor":[1,1,1,1],"baseColorTexture":{"index":0,"texCoord":0},"metallicFactor":0.400000005960464,"roughnessFactor":0.140028014779091}}],"meshes":[{"name":"Tree_01_A","primitives":[{"attributes":{"NORMAL":2,"POSITION":1,"TEXCOORD_0":3},"indices":0,"material":0,"mode":4}]}],"nodes":[{"mesh":0,"name":"Tree_01_A","rotation":[0,0,0,1],"scale":[1,1,1],"translation":[240.369598388672,0,-200.501770019531]}],"samplers":[{}],"scene":0,"scenes":[{"name":"Root Scene","nodes":[0]}],"textures":[{"name":"base_color_texture","sampler":0,"source":0}]}