{"accessors":[{"bufferView":0,"byteOffset":0,"componentType":5123,"count":636,"type":"SCALAR"},{"bufferView":1,"byteOffset":0,"componentType":5126,"count":444,"max":[1.7857061624527,3.58453059196472,1.45364618301392],"min":[-1.08240699768066,0,-1.22086989879608],"type":"VEC3"},{"bufferView":2,"byteOffset":0,"componentType":5126,"count":444,"type":"VEC3"},{"bufferView":3,"byteOffset":0,"componentType":5126,"count":444,"type":"VEC2"}],"asset":{"generator":"FBX2glTF v0.13.1","version":"2.0"},"bufferViews":[{"buffer":0,"byteLength":1272,"byteOffset":0,"target":34963},{"buffer":0,"byteLength":5328,"byteOffset":1272,"target":34962},{"buffer":0,"byteLength":5328,"byteOffset":6600,"target":34962},{"buffer":0,"byteLength":3552,"byteOffset":11928,"target":34962}],"buffers":[{"byteLength":15480,"uri":"SM_Tree_01_C.bin"}],"images":[{"name":"MainTexture_City_4","uri":"MainTexture_City_4.png"}],"materials":[{"alphaMode":"OPAQUE","doubleSided":false,"extras":{"fromFBX":{"isTruePBR":false,"shadingModel":"Phong"}},"name":"Material.196","pbrMetallicRoughness":{"baseColorFactor":[1,1,1,1],"baseColorTexture":{"index":0,"texCoord":0},"metallicFactor":0.400000005960464,"roughnessFactor":0.140028014779091}}],"meshes":[{"name":"Tree_01_C","primitives":[{"attributes":{"NORMAL":2,"POSITION":1,"TEXCOORD_0":3},"indices":0,"material":0,"mode":4}]}],"nodes":[{"mesh":0,"name":"Tree_01_C","rotation":[0,0,0,1],"scale":[1,1,1],"translation":[240.167999267578,-0.05363929271698,-195.234176635742]}],"samplers":[{}],"scene":0,"scenes":[{"name":"Root Scene","nodes":[0]}],"textures":[{"name":"base_color_texture","sampler":0,"source":0}]}