{"accessors":[{"bufferView":0,"byteOffset":0,"componentType":5123,"count":972,"type":"SCALAR"},{"bufferView":1,"byteOffset":0,"componentType":5126,"count":876,"max":[1.39645957946777,4.3133397102356,1.43918943405151],"min":[-1.53210473060608,-0.03469085693359,-1.19861221313477],"type":"VEC3"},{"bufferView":2,"byteOffset":0,"componentType":5126,"count":876,"type":"VEC3"},{"bufferView":3,"byteOffset":0,"componentType":5126,"count":876,"type":"VEC2"}],"asset":{"generator":"FBX2glTF v0.13.1","version":"2.0"},"bufferViews":[{"buffer":0,"byteLength":1944,"byteOffset":0,"target":34963},{"buffer":0,"byteLength":10512,"byteOffset":1944,"target":34962},{"buffer":0,"byteLength":10512,"byteOffset":12456,"target":34962},{"buffer":0,"byteLength":7008,"byteOffset":22968,"target":34962}],"buffers":[{"byteLength":29976,"uri":"SM_Tree_01_I.bin"}],"images":[{"name":"MainTexture_City_4","uri":"MainTexture_City_4.png"}],"materials":[{"alphaMode":"OPAQUE","doubleSided":false,"extras":{"fromFBX":{"isTruePBR":false,"shadingModel":"Phong"}},"name":"Material.197","pbrMetallicRoughness":{"baseColorFactor":[1,1,1,1],"baseColorTexture":{"index":0,"texCoord":0},"metallicFactor":0.400000005960464,"roughnessFactor":0.140028014779091}}],"meshes":[{"name":"Tree_01_I","primitives":[{"attributes":{"NORMAL":2,"POSITION":1,"TEXCOORD_0":3},"indices":0,"material":0,"mode":4}]}],"nodes":[{"mesh":0,"name":"Tree_01_I","rotation":[0,0,0,1],"scale":[1,1,1],"translation":[245.1865234375,-0.64584821462631,-188.767791748047]}],"samplers":[{}],"scene":0,"scenes":[{"name":"Root Scene","nodes":[0]}],"textures":[{"name":"base_color_texture","sampler":0,"source":0}]}