{"accessors":[{"bufferView":0,"byteOffset":0,"componentType":5123,"count":1176,"type":"SCALAR"},{"bufferView":1,"byteOffset":0,"componentType":5126,"count":960,"max":[1.14055752754211,5.05423307418823,0.929421186447144],"min":[-0.97706228494644,0.00000014179619256538,-0.89988553524017],"type":"VEC3"},{"bufferView":2,"byteOffset":0,"componentType":5126,"count":960,"type":"VEC3"},{"bufferView":3,"byteOffset":0,"componentType":5126,"count":960,"type":"VEC2"}],"asset":{"generator":"FBX2glTF v0.13.1","version":"2.0"},"bufferViews":[{"buffer":0,"byteLength":2352,"byteOffset":0,"target":34963},{"buffer":0,"byteLength":11520,"byteOffset":2352,"target":34962},{"buffer":0,"byteLength":11520,"byteOffset":13872,"target":34962},{"buffer":0,"byteLength":7680,"byteOffset":25392,"target":34962}],"buffers":[{"byteLength":33072,"uri":"SM_Tree_01_B.bin"}],"images":[{"name":"MainTexture_City_4","uri":"MainTexture_City_4.png"}],"materials":[{"alphaMode":"OPAQUE","doubleSided":false,"extras":{"fromFBX":{"isTruePBR":false,"shadingModel":"Phong"}},"name":"Material.196","pbrMetallicRoughness":{"baseColorFactor":[1,1,1,1],"baseColorTexture":{"index":0,"texCoord":0},"metallicFactor":0.400000005960464,"roughnessFactor":0.140028014779091}}],"meshes":[{"name":"Tree_01_B","primitives":[{"attributes":{"NORMAL":2,"POSITION":1,"TEXCOORD_0":3},"indices":0,"material":0,"mode":4}]}],"nodes":[{"mesh":0,"name":"Tree_01_B","rotation":[0,0,0,1],"scale":[1,1,1],"translation":[240.256423950195,0,-197.925888061523]}],"samplers":[{}],"scene":0,"scenes":[{"name":"Root Scene","nodes":[0]}],"textures":[{"name":"base_color_texture","sampler":0,"source":0}]}