{"accessors":[{"bufferView":0,"byteOffset":0,"componentType":5123,"count":5628,"type":"SCALAR"},{"bufferView":1,"byteOffset":0,"componentType":5126,"count":3969,"max":[1.31104385852814,5.88561820983887,1.73270988464355],"min":[-1.41271817684174,-0.00426978478208,-1.68223464488983],"type":"VEC3"},{"bufferView":2,"byteOffset":0,"componentType":5126,"count":3969,"type":"VEC3"},{"bufferView":3,"byteOffset":0,"componentType":5126,"count":3969,"type":"VEC2"}],"asset":{"generator":"FBX2glTF v0.13.1","version":"2.0"},"bufferViews":[{"buffer":0,"byteLength":11256,"byteOffset":0,"target":34963},{"buffer":0,"byteLength":47628,"byteOffset":11256,"target":34962},{"buffer":0,"byteLength":47628,"byteOffset":58884,"target":34962},{"buffer":0,"byteLength":31752,"byteOffset":106512,"target":34962}],"buffers":[{"byteLength":138264,"uri":"SM_Tree_01_N.bin"}],"images":[{"name":"MainTexture_City_4","uri":"MainTexture_City_4.png"}],"materials":[{"alphaMode":"OPAQUE","doubleSided":false,"extras":{"fromFBX":{"isTruePBR":false,"shadingModel":"Phong"}},"name":"Material","pbrMetallicRoughness":{"baseColorFactor":[1,1,1,1],"baseColorTexture":{"index":0,"texCoord":0},"metallicFactor":0.400000005960464,"roughnessFactor":0.140028014779091}}],"meshes":[{"name":"Tree_01_N","primitives":[{"attributes":{"NORMAL":2,"POSITION":1,"TEXCOORD_0":3},"indices":0,"material":0,"mode":4}]}],"nodes":[{"mesh":0,"name":"Tree_01_N","rotation":[0,0,0,1],"scale":[1,1,1],"translation":[249.886749267578,0.00000214576721191406,-185.918243408203]}],"samplers":[{}],"scene":0,"scenes":[{"name":"Root Scene","nodes":[0]}],"textures":[{"name":"base_color_texture","sampler":0,"source":0}]}