{"accessors":[{"bufferView":0,"byteOffset":0,"componentType":5123,"count":990,"type":"SCALAR"},{"bufferView":1,"byteOffset":0,"componentType":5126,"count":643,"max":[0.807703912258148,3.32958817481995,0.891295731067657],"min":[-0.8659325838089,-0.00000000000023,-0.80323147773743],"type":"VEC3"},{"bufferView":2,"byteOffset":0,"componentType":5126,"count":643,"type":"VEC3"},{"bufferView":3,"byteOffset":0,"componentType":5126,"count":643,"type":"VEC2"}],"asset":{"generator":"FBX2glTF v0.13.1","version":"2.0"},"bufferViews":[{"buffer":0,"byteLength":1980,"byteOffset":0,"target":34963},{"buffer":0,"byteLength":7716,"byteOffset":1980,"target":34962},{"buffer":0,"byteLength":7716,"byteOffset":9696,"target":34962},{"buffer":0,"byteLength":5144,"byteOffset":17412,"target":34962}],"buffers":[{"byteLength":22556,"uri":"SM_Tree_01_F.bin"}],"images":[{"name":"MainTexture_City_4","uri":"MainTexture_City_4.png"}],"materials":[{"alphaMode":"OPAQUE","doubleSided":false,"extras":{"fromFBX":{"isTruePBR":false,"shadingModel":"Phong"}},"name":"Material","pbrMetallicRoughness":{"baseColorFactor":[1,1,1,1],"baseColorTexture":{"index":0,"texCoord":0},"metallicFactor":0.400000005960464,"roughnessFactor":0.140028014779091}}],"meshes":[{"name":"Tree_01_F","primitives":[{"attributes":{"NORMAL":2,"POSITION":1,"TEXCOORD_0":3},"indices":0,"material":0,"mode":4}]}],"nodes":[{"mesh":0,"name":"Tree_01_F","rotation":[0,0,0,1],"scale":[1,1,1],"translation":[240.374038696289,0.00000262260459749086,-182.756729125977]}],"samplers":[{}],"scene":0,"scenes":[{"name":"Root Scene","nodes":[0]}],"textures":[{"name":"base_color_texture","sampler":0,"source":0}]}