{"accessors":[{"bufferView":0,"byteOffset":0,"componentType":5123,"count":1938,"type":"SCALAR"},{"bufferView":1,"byteOffset":0,"componentType":5126,"count":1810,"max":[2.60726594924927,7.44787740707397,4.64530563354492],"min":[-2.66431879997253,-0.08015251159668,-3.67529368400574],"type":"VEC3"},{"bufferView":2,"byteOffset":0,"componentType":5126,"count":1810,"type":"VEC3"},{"bufferView":3,"byteOffset":0,"componentType":5126,"count":1810,"type":"VEC2"}],"asset":{"generator":"FBX2glTF v0.13.1","version":"2.0"},"bufferViews":[{"buffer":0,"byteLength":3876,"byteOffset":0,"target":34963},{"buffer":0,"byteLength":21720,"byteOffset":3876,"target":34962},{"buffer":0,"byteLength":21720,"byteOffset":25596,"target":34962},{"buffer":0,"byteLength":14480,"byteOffset":47316,"target":34962}],"buffers":[{"byteLength":61796,"uri":"SM_Tree_01_G.bin"}],"images":[{"name":"MainTexture_City_4","uri":"MainTexture_City_4.png"}],"materials":[{"alphaMode":"OPAQUE","doubleSided":false,"extras":{"fromFBX":{"isTruePBR":false,"shadingModel":"Phong"}},"name":"Material.197","pbrMetallicRoughness":{"baseColorFactor":[1,1,1,1],"baseColorTexture":{"index":0,"texCoord":0},"metallicFactor":0.400000005960464,"roughnessFactor":0.140028014779091}}],"meshes":[{"name":"Tree_01_G","primitives":[{"attributes":{"NORMAL":2,"POSITION":1,"TEXCOORD_0":3},"indices":0,"material":0,"mode":4}]}],"nodes":[{"mesh":0,"name":"Tree_01_G","rotation":[0,0,0,1],"scale":[1,1,1],"translation":[245.699600219727,-0.85085701942444,-198.784729003906]}],"samplers":[{}],"scene":0,"scenes":[{"name":"Root Scene","nodes":[0]}],"textures":[{"name":"base_color_texture","sampler":0,"source":0}]}