{"accessors":[{"bufferView":0,"byteOffset":0,"componentType":5123,"count":1098,"type":"SCALAR"},{"bufferView":1,"byteOffset":0,"componentType":5126,"count":742,"max":[1.41513407230377,7.286780834198,1.45728600025177],"min":[-1.17884588241577,0,-1.4791544675827],"type":"VEC3"},{"bufferView":2,"byteOffset":0,"componentType":5126,"count":742,"type":"VEC3"},{"bufferView":3,"byteOffset":0,"componentType":5126,"count":742,"type":"VEC2"}],"asset":{"generator":"FBX2glTF v0.13.1","version":"2.0"},"bufferViews":[{"buffer":0,"byteLength":2196,"byteOffset":0,"target":34963},{"buffer":0,"byteLength":8904,"byteOffset":2196,"target":34962},{"buffer":0,"byteLength":8904,"byteOffset":11100,"target":34962},{"buffer":0,"byteLength":5936,"byteOffset":20004,"target":34962}],"buffers":[{"byteLength":25940,"uri":"SM_Tree_01_M.bin"}],"images":[{"name":"MainTexture_City_4","uri":"MainTexture_City_4.png"}],"materials":[{"alphaMode":"OPAQUE","doubleSided":false,"extras":{"fromFBX":{"isTruePBR":false,"shadingModel":"Phong"}},"name":"Material","pbrMetallicRoughness":{"baseColorFactor":[1,1,1,1],"baseColorTexture":{"index":0,"texCoord":0},"metallicFactor":0.400000005960464,"roughnessFactor":0.140028014779091}}],"meshes":[{"name":"Tree_01_M","primitives":[{"attributes":{"NORMAL":2,"POSITION":1,"TEXCOORD_0":3},"indices":0,"material":0,"mode":4}]}],"nodes":[{"mesh":0,"name":"Tree_01_M","rotation":[0,0,0,1],"scale":[1,1,1],"translation":[249.676239013672,0.00000214576721191406,-191.271224975586]}],"samplers":[{}],"scene":0,"scenes":[{"name":"Root Scene","nodes":[0]}],"textures":[{"name":"base_color_texture","sampler":0,"source":0}]}