{"accessors":[{"bufferView":0,"byteOffset":0,"componentType":5123,"count":1236,"type":"SCALAR"},{"bufferView":1,"byteOffset":0,"componentType":5126,"count":824,"max":[0.758186757564545,3.80683064460754,1.22433042526245],"min":[-1.33711218833923,0.0000000298023223876953,-0.71049392223358],"type":"VEC3"},{"bufferView":2,"byteOffset":0,"componentType":5126,"count":824,"type":"VEC3"},{"bufferView":3,"byteOffset":0,"componentType":5126,"count":824,"type":"VEC2"}],"asset":{"generator":"FBX2glTF v0.13.1","version":"2.0"},"bufferViews":[{"buffer":0,"byteLength":2472,"byteOffset":0,"target":34963},{"buffer":0,"byteLength":9888,"byteOffset":2472,"target":34962},{"buffer":0,"byteLength":9888,"byteOffset":12360,"target":34962},{"buffer":0,"byteLength":6592,"byteOffset":22248,"target":34962}],"buffers":[{"byteLength":28840,"uri":"SM_Tree_01_R.bin"}],"images":[{"name":"MainTexture_City_4","uri":"MainTexture_City_4.png"}],"materials":[{"alphaMode":"OPAQUE","doubleSided":false,"extras":{"fromFBX":{"isTruePBR":false,"shadingModel":"Phong"}},"name":"Material","pbrMetallicRoughness":{"baseColorFactor":[1,1,1,1],"baseColorTexture":{"index":0,"texCoord":0},"metallicFactor":0.400000005960464,"roughnessFactor":0.140028014779091}}],"meshes":[{"name":"Tree_01_R","primitives":[{"attributes":{"NORMAL":2,"POSITION":1,"TEXCOORD_0":3},"indices":0,"material":0,"mode":4}]}],"nodes":[{"mesh":0,"name":"Tree_01_R","rotation":[0,0,0,1],"scale":[1,1,1],"translation":[240.283920288086,-0.72989422082901,-185.560852050781]}],"samplers":[{}],"scene":0,"scenes":[{"name":"Root Scene","nodes":[0]}],"textures":[{"name":"base_color_texture","sampler":0,"source":0}]}