{"accessors":[{"bufferView":0,"byteOffset":0,"componentType":5123,"count":768,"type":"SCALAR"},{"bufferView":1,"byteOffset":0,"componentType":5126,"count":734,"max":[0.859986424446106,4.87533712387085,0.847479462623596],"min":[-0.91506803035736,-0.04241240024567,-1.00093042850494],"type":"VEC3"},{"bufferView":2,"byteOffset":0,"componentType":5126,"count":734,"type":"VEC3"},{"bufferView":3,"byteOffset":0,"componentType":5126,"count":734,"type":"VEC2"}],"asset":{"generator":"FBX2glTF v0.13.1","version":"2.0"},"bufferViews":[{"buffer":0,"byteLength":1536,"byteOffset":0,"target":34963},{"buffer":0,"byteLength":8808,"byteOffset":1536,"target":34962},{"buffer":0,"byteLength":8808,"byteOffset":10344,"target":34962},{"buffer":0,"byteLength":5872,"byteOffset":19152,"target":34962}],"buffers":[{"byteLength":25024,"uri":"SM_Tree_01_E.bin"}],"images":[{"name":"MainTexture_City_4","uri":"MainTexture_City_4.png"}],"materials":[{"alphaMode":"OPAQUE","doubleSided":false,"extras":{"fromFBX":{"isTruePBR":false,"shadingModel":"Phong"}},"name":"Material.197","pbrMetallicRoughness":{"baseColorFactor":[1,1,1,1],"baseColorTexture":{"index":0,"texCoord":0},"metallicFactor":0.400000005960464,"roughnessFactor":0.140028014779091}}],"meshes":[{"name":"Tree_01_E","primitives":[{"attributes":{"NORMAL":2,"POSITION":1,"TEXCOORD_0":3},"indices":0,"material":0,"mode":4}]}],"nodes":[{"mesh":0,"name":"Tree_01_E","rotation":[0,0,0,1],"scale":[1,1,1],"translation":[240.069778442383,-0.30127459764481,-188.010391235352]}],"samplers":[{}],"scene":0,"scenes":[{"name":"Root Scene","nodes":[0]}],"textures":[{"name":"base_color_texture","sampler":0,"source":0}]}