{"accessors":[{"bufferView":0,"byteOffset":0,"componentType":5123,"count":2964,"type":"SCALAR"},{"bufferView":1,"byteOffset":0,"componentType":5126,"count":1962,"max":[0.393961012363434,4.92760324478149,0.394370526075363],"min":[-0.39477980136871,0,-0.39437034726143],"type":"VEC3"},{"bufferView":2,"byteOffset":0,"componentType":5126,"count":1962,"type":"VEC3"},{"bufferView":3,"byteOffset":0,"componentType":5126,"count":1962,"type":"VEC2"}],"asset":{"generator":"FBX2glTF v0.13.1","version":"2.0"},"bufferViews":[{"buffer":0,"byteLength":5928,"byteOffset":0,"target":34963},{"buffer":0,"byteLength":23544,"byteOffset":5928,"target":34962},{"buffer":0,"byteLength":23544,"byteOffset":29472,"target":34962},{"buffer":0,"byteLength":15696,"byteOffset":53016,"target":34962}],"buffers":[{"byteLength":68712,"uri":"SM_Tree_03_O.bin"}],"images":[{"name":"MainTexture_City_4","uri":"MainTexture_City_4.png"}],"materials":[{"alphaMode":"OPAQUE","doubleSided":false,"extras":{"fromFBX":{"isTruePBR":false,"shadingModel":"Phong"}},"name":"Material.234","pbrMetallicRoughness":{"baseColorFactor":[1,1,1,1],"baseColorTexture":{"index":0,"texCoord":0},"metallicFactor":0.400000005960464,"roughnessFactor":0.140028014779091}}],"meshes":[{"name":"Tree_03_O","primitives":[{"attributes":{"NORMAL":2,"POSITION":1,"TEXCOORD_0":3},"indices":0,"material":0,"mode":4}]}],"nodes":[{"mesh":0,"name":"Tree_03_O","rotation":[0,0,0,1],"scale":[1,1,1],"translation":[249.874740600586,0.00000217556953430176,-205.178451538086]}],"samplers":[{}],"scene":0,"scenes":[{"name":"Root Scene","nodes":[0]}],"textures":[{"name":"base_color_texture","sampler":0,"source":0}]}